<svg xmlns="http://www.w3.org/2000/svg" width="206" height="224" fill="none" viewBox="0 0 206 224">
    <g clip-path="url(#clip0)">
        <path fill="#3F3D56" d="M205.807 201.709c0 6.798-46.071 22.291-102.903 22.291C46.072 224 0 208.507 0 201.709c0-6.799 46.072-2.329 102.904-2.329 56.832 0 102.903-4.47 102.903 2.329z"/>
        <path fill="#000" d="M205.807 201.709c0 6.798-46.071 22.291-102.903 22.291C46.072 224 0 208.507 0 201.709c0-6.799 46.072-2.329 102.904-2.329 56.832 0 102.903-4.47 102.903 2.329z" opacity=".1"/>
        <path fill="#6C63FF" d="M29.306 111.214c2.39 0 4.33-1.937 4.33-4.326 0-2.388-1.94-4.325-4.33-4.325-2.391 0-4.33 1.937-4.33 4.325 0 2.389 1.939 4.326 4.33 4.326zM48.288 146.813c2.391 0 4.33-1.937 4.33-4.325 0-2.389-1.939-4.325-4.33-4.325-2.39 0-4.33 1.936-4.33 4.325 0 2.388 1.94 4.325 4.33 4.325zM33.635 137.83c2.391 0 4.33-1.937 4.33-4.325 0-2.389-1.939-4.325-4.33-4.325-2.39 0-4.33 1.936-4.33 4.325 0 2.388 1.94 4.325 4.33 4.325z"/>
        <path fill="#CFCCE0" d="M35.016 194.896c-.076-.125-1.878-3.131-2.503-9.373-.573-5.727-.205-15.38 4.806-28.845 9.493-25.509-2.188-46.09-2.307-46.295l.576-.334c.03.052 3.045 5.299 4.825 13.655 2.353 11.078 1.496 22.597-2.47 33.206-9.476 25.465-2.43 37.52-2.358 37.639l-.569.347zM31.304 109.218c-.922 0-1.823-.274-2.59-.785-.767-.512-1.364-1.24-1.717-2.091-.353-.851-.446-1.787-.266-2.691.18-.904.624-1.733 1.276-2.385.652-.651 1.483-1.095 2.387-1.275.905-.18 1.842-.087 2.694.265.852.353 1.58.95 2.093 1.716.512.766.785 1.666.785 2.588-.001 1.235-.493 2.419-1.367 3.292-.874.873-2.059 1.364-3.295 1.366zm0-8.651c-.79 0-1.563.234-2.22.673-.657.439-1.17 1.062-1.472 1.792-.302.729-.382 1.532-.227 2.307.154.774.534 1.485 1.093 2.044.56.558 1.271.938 2.046 1.092.776.154 1.58.075 2.31-.227s1.354-.814 1.793-1.47c.439-.657.673-1.429.673-2.218 0-1.059-.422-2.074-1.171-2.822-.75-.749-1.765-1.17-2.825-1.171z"/>
        <path fill="#CFCCE0" d="M44.958 124.855c2.39 0 4.33-1.937 4.33-4.326 0-2.388-1.94-4.325-4.33-4.325-2.391 0-4.33 1.937-4.33 4.325 0 2.389 1.939 4.326 4.33 4.326zM35.633 135.834c-.922 0-1.823-.274-2.59-.785-.767-.512-1.364-1.24-1.717-2.091-.353-.851-.445-1.787-.265-2.691.18-.903.623-1.733 1.276-2.385.652-.651 1.482-1.095 2.387-1.275.904-.179 1.842-.087 2.694.266.851.352 1.58.949 2.092 1.715.512.766.786 1.667.786 2.588-.002 1.235-.493 2.419-1.367 3.292-.875.873-2.06 1.364-3.296 1.366zm0-8.651c-.79 0-1.563.235-2.22.673-.657.439-1.17 1.062-1.472 1.792-.302.729-.381 1.532-.227 2.307.154.774.535 1.486 1.093 2.044.56.558 1.271.938 2.047 1.093.775.154 1.578.074 2.309-.228.73-.302 1.354-.814 1.793-1.47.44-.657.673-1.429.673-2.218 0-1.059-.422-2.074-1.171-2.822-.75-.748-1.765-1.169-2.825-1.171zM46.956 144.817c-.922 0-1.824-.274-2.59-.785-.767-.512-1.364-1.24-1.717-2.091-.353-.851-.446-1.787-.266-2.691.18-.903.624-1.733 1.276-2.385.652-.651 1.483-1.095 2.387-1.275.905-.179 1.842-.087 2.694.266.852.352 1.58.949 2.093 1.715.512.766.785 1.667.785 2.588-.001 1.235-.493 2.419-1.367 3.292-.874.873-2.059 1.364-3.295 1.366zm0-8.651c-.79 0-1.563.235-2.22.673-.657.439-1.17 1.062-1.472 1.792-.303.729-.382 1.532-.228 2.307.155.774.535 1.486 1.094 2.044.56.558 1.271.938 2.046 1.093.776.154 1.58.074 2.31-.228s1.354-.814 1.793-1.47c.439-.657.673-1.429.673-2.218 0-1.059-.422-2.073-1.171-2.822-.75-.748-1.765-1.169-2.825-1.171zM32.303 158.458c2.391 0 4.33-1.937 4.33-4.326 0-2.388-1.939-4.325-4.33-4.325s-4.33 1.937-4.33 4.325c0 2.389 1.939 4.326 4.33 4.326zM37.631 195.055s-4.329-10.647 8.659-18.632l-8.659 18.632zM32.307 194.862s-1.97-11.322-17.22-11.225l17.22 11.225z"/>
        <path fill="#6C63FF" d="M188.602 199.047h-73.688s-1.494-21.886 7.344-22.135c8.837-.249 7.841 9.7 18.92-3.98 11.078-13.679 24.521-12.932 26.264-4.849 1.742 8.083-3.361 14.549 5.975 12.56 9.335-1.99 22.778 3.233 15.185 18.404z"/>
        <path fill="#F2F2F2" d="M150.514 199.052l-.249-.01c.58-14.41 3.601-23.668 6.033-28.897 2.641-5.679 5.185-7.977 5.211-8l.165.186c-.025.022-2.54 2.298-5.159 7.938-2.419 5.207-5.423 14.428-6.001 28.783zM177.184 199.082l-.239-.069c2.878-9.868 9.654-16.099 9.723-16.161l.167.185c-.068.061-6.794 6.247-9.651 16.045zM126.52 199.064l-.247-.034c.977-7.035-.787-12.493-2.438-15.833-1.789-3.616-3.829-5.591-3.849-5.611l.172-.179c.021.02 2.093 2.025 3.9 5.68 1.667 3.371 3.447 8.88 2.462 15.977z"/>
        <path fill="#CFCCE0" d="M198.603 199.38h-91.638l-.021-.31c-.052-.772-1.221-18.969 4.681-25.462 1.319-1.452 2.908-2.214 4.723-2.265 3.848-.109 6.265 1.33 8.215 2.486 3.676 2.178 6.104 3.617 14.932-7.283 9.564-11.81 19.882-14.35 25.814-12.938 3.833.913 6.474 3.494 7.248 7.08.732 3.395.499 6.586.311 9.149-.2 2.744-.359 4.91.769 5.892.941.819 2.82.894 5.913.234 6.29-1.34 15.067-.193 19.472 5.493 2.37 3.06 4.237 8.621-.327 17.74l-.092.184zm-91.012-.665h90.6c3.401-6.894 3.507-12.717.304-16.851-4.041-5.217-12.519-6.59-18.806-5.25-3.36.716-5.362.598-6.49-.383-1.378-1.201-1.209-3.514-.995-6.442.184-2.521.414-5.659-.298-8.961-.717-3.326-3.178-5.721-6.751-6.572-5.743-1.369-15.773 1.14-25.142 12.708-9.19 11.348-11.959 9.708-15.789 7.437-1.974-1.169-4.216-2.496-7.857-2.393-1.627.046-3.056.735-4.249 2.047-5.305 5.835-4.657 22.199-4.527 24.66z"/>
        <path fill="#3F3D56" d="M102.904 214.019c56.832 0 102.903-5.512 102.903-12.31 0-6.799-46.071-12.31-102.903-12.31C46.072 189.399 0 194.91 0 201.709c0 6.798 46.072 12.31 102.904 12.31z"/>
        <path fill="#2F2E41" d="M105.166 40.672s-5.144-1.835-8.451 5.507c-3.308 7.342-8.452 15.419-8.452 15.419l2.94.734s.735-5.14 2.572-5.874l-.735 6.608s22.048 7.71 31.969-.734l-.367-2.57s1.47.367 1.47 2.57l1.102-1.101s-1.102-2.203-4.409-5.14c-2.171-1.928-2.917-5.595-3.173-7.888-.192-1.914-.959-3.726-2.2-5.198-2.198-2.544-6.203-5.249-12.266-2.333z"/>
        <path fill="#FFB9B9" d="M99.74 69.46l-5.328-6.655-3.997-13.64 15.319-16.303s3.33-12.643.333-11.977c-2.997.665-3.663 9.98-3.663 9.98L83.089 45.839s1.998 20.96 7.66 28.28l4.329 13.64L99.74 69.46z"/>
        <path fill="#FFB9B9" d="M114.393 69.46l5.328-6.655 3.996-13.64-15.319-16.303s-3.33-12.643-.333-11.977c2.998.665 3.664 9.98 3.664 9.98l19.315 14.973s-1.998 20.96-7.66 28.28l-4.329 13.64-4.662-18.299z"/>
        <path fill="#FFB9B9" d="M107.066 63.804c4.782 0 8.659-3.873 8.659-8.65 0-4.778-3.877-8.65-8.659-8.65-4.782 0-8.658 3.872-8.658 8.65 0 4.777 3.876 8.65 8.658 8.65z"/>
        <path fill="#FFB9B9" d="M103.07 59.811s.333 6.987-1.665 9.316c-1.998 2.329-3.996 14.306 5.661 14.639 9.658.332 8.659-9.981 8.659-9.981l-1.998-5.656s-2.997-4.325-1.998-8.318h-8.659zM94.079 137.331l7.159 2.162s5.828-3.493 5.828-.166-1.998 7.652-1.332 10.647c.666 2.994 1.998 10.313 0 10.313s-5.994-12.975-5.994-12.975l-6.66-3.66.999-6.321zM103.07 183.909l-2.664 10.314s-2.331 2.995 0 4.325c1.094.625 1.894 1.909 2.436 3.095.472 1.069 1.262 1.967 2.263 2.572 1 .605 2.163.887 3.33.809 1.136-.094 2.094-.543 2.327-1.71.064-.366.052-.742-.037-1.103s-.252-.699-.479-.994c-2.456-3.316-3.013-5.497-3.013-5.497l.999-11.644-5.162-.167z"/>
        <path fill="#2F2E41" d="M96.622 56.69s2.94-4.039 5.512-4.773c2.572-.734 2.939-4.405 2.939-4.405s6.615 7.342 10.657 7.71c4.042.366.367-8.812.367-8.812l-7.349-1.835-6.982.734-5.512 3.671.368 7.71zM91.081 112.046l-1.332 2.661s-32.303 10.314-29.639 19.962c2.664 9.649 17.65 6.987 17.65 6.987l16.651 2.994 1.666-7.319-11.656-2.994 19.981-7.32.666 33.936-2.664 24.287 6.66.666s7.327-22.292 6.328-31.607c0 0 12.322-37.928 5.328-43.584-6.993-5.656-29.639 1.331-29.639 1.331z"/>
        <path fill="#CFCCE0" d="M107.457 73.79l-5.197-6.275-3.52 1.612-3.662 11.645s-2.998 5.655.666 11.644c0 0 .666 3.993-.333 4.99-1 .999-1.332 7.32-1.332 7.32l-4.33 8.318s24.644 4.325 31.97-1.664c0 0-3.844-14.16-1.513-18.485 2.331-4.325 2.664-10.956 0-13.95-2.664-2.995-5.48-10.816-5.48-10.816l-1.613-1.03-5.656 6.69zM126.884 24.116h-3.194v-3.191h-.29v3.19h-3.194v.29h3.194v3.192h.29v-3.191h3.194v-.29zM96.529 17.444h-3.194v-3.19h-.29v3.19H89.85v.29h3.194v3.191h.29v-3.19h3.194v-.29zM111.099 3.19h-3.193V0h-.291v3.19h-3.194v.29h3.194v3.192h.291V3.48h3.193v-.29z"/>
    </g>
    <defs>
        <clipPath id="clip0">
            <path fill="#fff" d="M0 0H205.807V224H0z"/>
        </clipPath>
    </defs>
</svg>
