<svg xmlns="http://www.w3.org/2000/svg" width="279" height="224" fill="none" viewBox="0 0 279 224">
    <g clip-path="url(#clip0)">
        <path fill="#3F3D56" d="M140.665 224c75.864 0 137.364-4.805 137.364-10.732 0-5.926-61.5-10.731-137.364-10.731-75.863 0-137.363 4.805-137.363 10.731 0 5.927 61.5 10.732 137.363 10.732z"/>
        <path fill="#FFB9B9" d="M257.348 193.332l1.287 9.442-9.012.858 1.288-11.587 6.437 1.287zM214.862 63.729s.858 11.587.858 12.016c0 .43-6.008 30.041-6.008 30.041s-8.583 16.307 0 15.878c8.583-.429 6.008-15.449 6.008-15.449l9.012-24.891-3.862-17.595h-6.008zM229.024 193.332l-1.288 9.442 9.013.858-1.288-11.587-6.437 1.287z"/>
        <path fill="#2F2E41" d="M219.153 104.927l-2.145 3.004s-1.288 12.875 0 17.166c1.287 4.292 3.862 24.033 3.862 25.32 0 1.288.429 2.146 0 2.575-.429.429-1.717.429-.858 1.288.858.858.858 3.433.858 3.433v2.145l5.579 31.758s-3.433 3.862-.858 3.862c2.574 0 12.016 0 11.587-4.292l-.859-.429s-1.287-28.324-.858-29.611c.429-1.288 0-3.862 0-3.862s-.858-1.288 0-1.717c.858-.429.858-3.862.858-3.862l3.863-26.179s3.433 17.596 5.579 19.312c2.145 1.717 1.716 6.008 1.716 6.008l1.717 37.766s-1.717 4.291 0 5.149c1.716.859 9.012 3.863 9.441-.429.429-4.291 2.575-41.627 2.575-43.344 0-1.717-.429-2.575 0-3.862.429-1.288-.429-1.288 0-1.288s-.858-1.287-.858-2.146v-21.028s.429-4.291.858-5.15c.429-.858-.429-1.716 0-3.004.429-1.287-.858-5.579-.858-5.579l-19.312-5.15-21.887 2.146zM234.174 201.057s2.145-2.146-.859-2.146c-1.928.04-3.828.478-5.579 1.288l-2.145 7.725s-8.798 7.081 1.072 6.222c9.871-.858 8.369-.214 8.369-.214s3.004-.859 3.433-1.717c.429-.858-.858-13.304-.858-13.304s-1.288 3.434-3.433 2.146zM252.627 201.057s-2.146-2.146.858-2.146c1.929.039 3.828.478 5.579 1.288l2.146 7.724s8.798 7.081-1.073 6.223c-9.87-.858-9.656-.215-9.656-.215s-3.004-.858-3.433-1.716c-.429-.859 2.146-13.304 2.146-13.304s1.287 3.433 3.433 2.146z"/>
        <path fill="#FFB9B9" d="M224.732 29.826c6.163 0 11.158-4.995 11.158-11.158 0-6.162-4.995-11.158-11.158-11.158-6.162 0-11.158 4.996-11.158 11.158 0 6.163 4.996 11.158 11.158 11.158z"/>
        <path fill="#FFB9B9" d="M220.87 26.822s1.716 8.583 1.716 9.87c0 1.288 7.296 5.15 7.296 5.15l8.154-10.3s-5.15-7.295-5.15-9.012l-12.016 4.292z"/>
        <path fill="#D0CDE1" d="M227.307 37.98s-3.74-.996-4.874-2.644c0 0-11.863 11.656-11.863 13.802l9.442 16.737s0 6.008.858 6.437c.858.429 0 0 0 1.716 0 1.717-2.575 12.875-1.717 14.591.859 1.717 1.717.43.859 3.005-.859 2.575-3.004 16.307-3.004 16.307s7.724-2.575 18.882 1.717c11.158 4.291 24.462-1.717 24.462-1.717s-3.434-7.724-2.575-10.3c.858-2.574-2.146-7.295-2.146-7.295l-2.146-39.482s3.004-17.595.859-18.453l-4.292-1.717-13.743-1.689s-3.423 8.556-9.002 8.985z"/>
        <path fill="#D0CDE1" d="M214.862 46.133l-4.292 3.005s-2.146 6.437 0 9.44c2.146 3.005 3.004 7.296 3.004 7.296l8.583-.858-7.295-18.883z"/>
        <path fill="#2F2E41" d="M216.213 6.876l-1.935-.775s4.047-4.455 9.677-4.068L222.371.29s3.871-1.55 7.39 2.518c1.85 2.139 3.991 4.652 5.325 7.484h2.073l-.865 1.905 3.028 1.904-3.108-.342c.294 1.645.193 3.336-.294 4.933l.083 1.506s-3.602-5.574-3.602-6.348v1.937s-1.936-1.744-1.936-2.906l-1.055 1.356-.528-2.13-6.511 2.13 1.056-1.743-4.047.58 1.584-2.13s-4.575 2.518-4.751 4.65c-.176 2.13-2.463 4.842-2.463 4.842l-1.056-1.937s-1.583-8.717 3.519-11.623z"/>
        <path fill="#F2F2F2" d="M218.801 93.391H48.265v119.796h170.536V93.391z"/>
        <path fill="#3F3D56" d="M105.44 139.099H62.62v74.749h42.82v-74.749z"/>
        <path fill="#F2F2F2" d="M82.076 143.583H70.54v10.752h11.535v-10.752zM97.52 143.583H85.986v10.752H97.52v-10.752zM82.076 158.246H70.54v11.143h11.535v-11.143zM97.52 158.246H85.986v11.143H97.52v-11.143z"/>
        <path fill="#6C63FF" d="M99.995 184.228c1.504 0 2.723-1.219 2.723-2.722 0-1.504-1.219-2.723-2.723-2.723-1.503 0-2.722 1.219-2.722 2.723 0 1.503 1.219 2.722 2.722 2.722z"/>
        <path fill="#3F3D56" d="M204.445 132.003h-84.649v71.036h84.649v-71.036zM236.622 115.944H30.444l13.747-28.74 3.076-6.436 4.025-8.416 3.077-6.435 3.566-7.455h162.443l2.106 7.455 1.819 6.435 2.379 8.416 1.819 6.435 8.121 28.741z"/>
        <path fill="#6C63FF" d="M125.736 161.457h-2.97v18.316h2.97v-18.316z"/>
        <path fill="#F2F2F2" d="M125.736 164.18h-2.97v2.227h2.97v-2.227zM125.736 174.823h-2.97v2.227h2.97v-2.227z"/>
        <path fill="#6C63FF" d="M134.399 161.457h-7.177v18.316h7.177v-18.316z"/>
        <path fill="#F2F2F2" d="M134.399 164.18h-7.177v2.227h7.177v-2.227zM134.399 174.823h-7.177v2.227h7.177v-2.227z"/>
        <path fill="#6C63FF" d="M139.102 161.457h-2.97v18.316h2.97v-18.316z"/>
        <path fill="#F2F2F2" d="M139.102 164.18h-2.97v2.227h2.97v-2.227zM139.102 174.823h-2.97v2.227h2.97v-2.227z"/>
        <path fill="#6C63FF" d="M143.557 161.457h-2.97v18.316h2.97v-18.316z"/>
        <path fill="#F2F2F2" d="M143.557 164.18h-2.97v2.227h2.97v-2.227zM143.557 174.823h-2.97v2.227h2.97v-2.227z"/>
        <path fill="#6C63FF" d="M146.42 161.522l-2.78 1.048 6.461 17.138 2.779-1.047-6.46-17.139z"/>
        <path fill="#F2F2F2" d="M147.38 164.07l-2.779 1.047.785 2.085 2.78-1.048-.786-2.084zM151.134 174.029l-2.779 1.047.785 2.085 2.78-1.048-.786-2.084z"/>
        <path fill="#6C63FF" d="M201.723 161.457h-7.178v18.316h7.178v-18.316z"/>
        <path fill="#F2F2F2" d="M201.723 164.18h-7.178v2.227h7.178v-2.227zM201.723 174.823h-7.178v2.227h7.178v-2.227z"/>
        <path fill="#6C63FF" d="M192.812 161.457h-2.97v18.316h2.97v-18.316z"/>
        <path fill="#F2F2F2" d="M192.812 164.18h-2.97v2.227h2.97v-2.227zM192.812 174.823h-2.97v2.227h2.97v-2.227z"/>
        <path fill="#6C63FF" d="M188.357 161.457h-2.97v18.316h2.97v-18.316z"/>
        <path fill="#F2F2F2" d="M188.357 164.18h-2.97v2.227h2.97v-2.227zM188.357 174.823h-2.97v2.227h2.97v-2.227z"/>
        <path fill="#6C63FF" d="M182.525 161.522l-6.461 17.139 2.78 1.047 6.46-17.138-2.779-1.048z"/>
        <path fill="#F2F2F2" d="M181.565 164.07l-.786 2.084 2.779 1.048.786-2.085-2.779-1.047zM177.811 174.029l-.786 2.084 2.779 1.048.786-2.085-2.779-1.047zM204.445 179.773h-84.649v1.733h84.649v-1.733z"/>
        <path fill="#6C63FF" d="M172.269 161.457h-15.593v18.316h15.593v-18.316z"/>
        <path fill="#F2F2F2" d="M168.432 165.417h-7.92v3.465h7.92v-3.465zM162.863 132.003h-1.485v15.841h1.485v-15.841z"/>
        <path fill="#F2F2F2" d="M162.121 150.319c1.367 0 2.475-1.108 2.475-2.475s-1.108-2.475-2.475-2.475-2.475 1.108-2.475 2.475 1.108 2.475 2.475 2.475z"/>
        <path fill="#6C63FF" d="M224.303 72.353H51.293l3.076-6.436h168.115l1.819 6.436zM228.501 87.203H44.191l3.076-6.435h179.415l1.819 6.435z"/>
        <path fill="#FFB9B9" d="M246.619 49.996s-2.485 6.39-1.966 12.713c.095 1.132.476 2.221 1.108 3.165L215.315 80.33s-13.757 1.424-10.324 7.432c3.433 6.008 15.879-3.004 15.879-3.004s32.615-4.72 35.19-9.441c2.575-4.72 4.292-24.462 4.292-24.462l-13.733-.858z"/>
        <path fill="#D0CDE1" d="M247.906 32.4h6.438s4.72.86 6.008 9.442c1.287 8.583 2.575 10.729 1.287 10.729-1.287 0-16.737-.43-16.737-.858 0-.43 3.004-19.312 3.004-19.312z"/>
        <path fill="#6C63FF" d="M33.02 160.602c18.236 0 33.02-14.784 33.02-33.02 0-18.237-14.784-33.02-33.02-33.02-18.236 0-33.02 14.783-33.02 33.02 0 18.236 14.784 33.02 33.02 33.02z"/>
        <path fill="#000" d="M33.02 155.979c15.683 0 28.397-12.714 28.397-28.397 0-15.684-12.714-28.398-28.397-28.398-15.683 0-28.397 12.714-28.397 28.398 0 15.683 12.714 28.397 28.397 28.397z" opacity=".1"/>
        <path fill-rule="evenodd" stroke="#fff" stroke-width="2" d="M42.136 120.364H37.75c-.25-2.602-1.555-5.018-3.463-6.505h7.85c.474 0 .863-.419.863-.93 0-.511-.389-.929-.864-.929H23.864c-.475 0-.864.418-.864.929 0 .511.389.93.864.93h5.233c3.558 0 6.494 2.881 6.917 6.505h-12.15c-.475 0-.864.418-.864.929 0 .512.389.93.864.93h12.15c-.432 3.764-3.403 6.589-6.917 6.598h-5.225c-.483.009-.872.437-.863.957 0 .251.103.493.267.669l13.066 13.299c.345.354.89.335 1.218-.037.328-.381.31-.966-.035-1.329l-11.494-11.7h3.057c4.508 0 8.23-3.718 8.662-8.457h4.386c.475 0 .864-.418.864-.93 0-.511-.389-.929-.864-.929z" clip-rule="evenodd"/>
    </g>
    <defs>
        <clipPath id="clip0">
            <path fill="#fff" d="M0 0H278.029V224H0z"/>
        </clipPath>
    </defs>
</svg>
