<svg xmlns="http://www.w3.org/2000/svg" width="169" height="224" fill="none" viewBox="0 0 169 224">
    <g clip-path="url(#clip0)">
        <path fill="#3F3D56" stroke="#161B1D" d="M89.903 205.081c5.337-.004 10.613-.467 15.864-1.01 1.15-.119 2.299-.242 3.446-.365 4.1-.439 8.189-.876 12.308-1.135 10.551-.665 21.985.057 29.932 4.304 1.029.55 1.977 1.222 2.561 1.923.582.7.724 1.317.435 1.881l-.001.001c-.278.547-.858.978-1.732 1.336-.87.355-1.952.606-3.133.843-.3.06-.608.12-.918.18-.892.173-1.812.351-2.676.569-1.165.295-2.288.675-3.178 1.256h-.001c-.494.324-.909.703-1.286 1.078-.156.155-.3.303-.439.446-.212.219-.414.428-.637.637-.699.658-1.441 1.163-2.586 1.276-.998.098-1.987-.164-3.03-.44l-.182-.048c-11.93-3.146-25.718-1.829-37.739 1.04h0c-1.762.422-3.504.875-5.242 1.326-5.135 1.335-10.232 2.659-15.68 3.146-3.63.324-7.518.181-10.996-.518-3.488-.701-6.51-1.95-8.463-3.792h-.001c-.263-.247-.51-.508-.763-.779l-.084-.09c-.225-.241-.459-.491-.705-.734-.56-.551-1.206-1.084-2.08-1.491-1.716-.798-3.938-.919-5.93-.961h-.001c-4.352-.091-8.83.079-13.286.248-3.031.115-6.052.229-9.015.261-6.84.074-13.447-.289-19.458-2.059 3.244-1.351 5.516-3.136 7.744-4.887l.508-.399c2.688-2.103 5.437-4.126 9.949-5.384 8.43-2.318 18.271-2.421 27.322-1.623h0c4.864.428 9.679 1.085 14.5 1.743 1.668.228 3.337.456 5.009.674 6.495.849 13.023 1.555 19.664 1.547zm0 0v-.5m0 .5s0 0 0 0v-.5m0 0c-8.303.01-16.439-1.101-24.595-2.215-4.825-.658-9.657-1.318-14.534-1.747l104.119 10.288c.843-1.64-1.095-3.345-3.205-4.473-8.076-4.317-19.629-5.028-30.199-4.362-4.13.26-8.234.699-12.335 1.137-6.394.684-12.78 1.368-19.252 1.372z" opacity=".1"/>
        <path fill="url(#paint0_linear)" d="M109.821 82.167s-2.808-7.153-12.354-13.535c-9.546-6.383-9.434-10.168-9.434-10.168s-1.795-13.387-4.154-17.127c-2.358-3.738-3.706-9.134-3.706-9.134s-.099.132-.26.328c0-.091-.02-.187-.032-.288-.24-1.981-.856-5.697-1.88-4.55 0 0-.233.191-.623.493l-.16-.207c-.942-1.217-2.478-3.244-2.478-3.585 0-.495-11.734-9.51-14.712-10.898-2.1-.984-6.61-3.506-9.077-4.92-1.156-.655-2.504-.887-3.812-.656-3.608.627-10.497 2.25-9.572 5.353 1.233 4.181 6.006 3.027 9.264.656 0 0 2.867-1.099 6.121 2.148 3.254 3.247 16.625 12.82 16.625 12.82l1.112 3.083.105.296c-.387.152-.802.22-1.217.2-1.01-.128-.597.862.141 1.968.102.15.21.304.328.455-.134-.052-.266-.101-.403-.164 0 0 .078.151.213.42l-.213-.088s5.166 9.904 5.5 11.777c.148.819.228 1.648.24 2.48 0 .862-.124 1.535-.35 1.702-.45.328-1.798 3.742-1.798 3.742l-5.278.226c-.158-.016-.328-.032-.473-.055l-.328-.05v-.124c0-2.194-.754-4.32-2.135-6.025h.078c1.116-2.427-1.286-4.96-1.807-7.583-.124-.854-.179-1.718-.164-2.581-.012-.345-.041-.688-.089-1.03-.541-3.624-3.986-6.041-7.341-7.419-1.968-.816-4.265-1.423-6.213-.55-2.277 1.01-3.376 3.67-5.43 5.083-3.28 2.26-7.744.702-11.661 1.37-1.519.26-3.057.932-3.937 2.215-.774 1.121-.95 2.555-.984 3.919-.095 3.63.633 7.34-.328 10.823-1.558 5.694-6.994 9.183-11.058 13.42-2.59 2.702-4.698 5.827-6.233 9.24-.58 1.295-1.03 2.952-.095 4.021.535.6 1.381.817 1.939 1.39.712.732.807 1.877.676 2.893-.49 3.782-3.33 6.717-5.577 9.787-2.247 3.07-3.956 7.288-2.054 10.574 1.64 2.83 5.23 3.677 8.425 4.264 1.016.183 2.096.364 3.06 0 .87-.328 1.516-1.083 2.086-1.834 1.318-1.729 2.411-3.618 3.255-5.621.413-.984.823-2.063 1.732-2.624.803-.482 1.807-.42 2.745-.344l7.014.577c.592.093 1.197.052 1.771-.121.662-.317 1.202-.842 1.535-1.496.536-.939.956-1.939 1.254-2.978.843-2.729 1.312-5.654 3.28-7.61 1.778-1.74 4.409-2.262 6.889-2.295 1.515 0 3.027.138 4.54.2.423.02.853.033 1.276.033.285 0 .57 0 .856-.016.561 3.89 1.253 9.649.712 11.243-.843 2.48-.787 4.073-.787 4.073l.387.19c-.036.089-.073.181-.109.279-.406 1.099-.692 2.716.565 3.742.206.164.425.311.656.44l-.095.275c-1.224 3.549-4.032 11.85-4.294 14.057-.329 2.834-4.38 11.45-4.38 11.45s-11.005 9.049-1.095 12.325c0 0 .964-3.421 3.034-6.074 1.238-1.577 2.182-3.363 2.788-5.274.264-.83.654-1.615 1.155-2.328.882-1.253 2.749-5.1 4.494-8.856l1.398.299c-.703 3.033-.89 8.265 1.718 16.585l.145.85c-.056-.04-.117-.073-.18-.099-1.247-.514-3.202 1.26-4.37 3.969-1.066 2.476-1.109 4.874-.148 5.658.088.074.186.135.292.18.347.126.728.115 1.066-.033.016-.005.032-.012.046-.02.277-.113.537-.266.771-.452.938-.233 1.896-.682 2.86-.633.255.013.507.055.752.124.066.984.098 1.939.072 2.752-.128 4.336-.207 6.232-.207 6.232s-.636 3.217-1.141 4.001c-.505.784-1.05 17.383 1.053 25.343 0 0 1.433 7.717.8 9.035v.027c-.269.695-.427 1.429-.469 2.174-.054.641-.074 1.285-.062 1.929l-3.035 9.284s-.082.164-.19.433c-.332.787-.456 1.645-.36 2.493.06.393.212.767.446 1.089 0 0-.43 4.086 4.182 4.014 4.612-.072 5.42-3.161 5.42-3.161l-.329-1.447c.036-.115.055-.236.056-.357 0 0-.033-.509-.069-1.273-.082-2.01-.177-5.785.282-6.651.63-1.197.25-6.314.25-6.314l-.168-1.394-.174-1.456-.246-2.063s-.072-8.789.699-10.069c.715-1.184 3.038-11.971 2.349-19.199-.104-1.185.038-2.379.416-3.506.69-2.125 1.64-5.664 1.378-8.167-.026-.239-.043-.548-.05-.918.528.814 1.237 1.495 2.073 1.986.836.492 1.776.783 2.743.848h-.091.249c1.42.067 2.818-.363 3.956-1.214 2.359-1.745 4.92-4.654 6.344-9.455.387-1.339.855-2.654 1.401-3.936 1.312-3.001 3.556-8.639 4.041-12.676l.142.137s3.149-9.367 3.06-13.027c.043-.481-.025-.965-.197-1.417l-.036-.288c.01-.016.023-.03.036-.043 0 0-1.243-9.806-1.682-18.17l4.041-3.014s-1.91-3.936-.676-4.674c1.234-.737 3.035 3.903 3.035 3.903s12.009.673 8.637-6.04zm-45.092 10.84l2.562-2.575c.246 1.414-.351 3.11-2.625 5.05l-.078.027c.14-1.41.14-2.502.14-2.502zM61.66 64.706s-.295.226-.774.61c-.082-.466-.167-.935-.259-1.4.145.088.285.176.42.275.217.156.422.328.613.515zM74.6 125.283l.328-2.726.719.469c-.651 1.896-1.136 3.845-1.45 5.825.17-1.741.305-3.044.36-3.608l.043.04zm-.656 8.721c.037.511-.026 1.025-.187 1.512h-.177c.112-1.27.223-2.509.328-3.667-.02.718-.006 1.438.046 2.155h-.01z"/>
        <path fill="#FFB9B9" d="M56.505 143.239v3.608c1.44.535 2.952-.708 4.487-.629.896.042 1.71.541 2.595.692.11.029.225.035.338.019.112-.016.22-.055.318-.115.162-.166.258-.387.27-.619.327-1.919.688-6.56-2.297-6.888-2.205-.252-3.048 3.677-5.711 3.932z"/>
        <path fill="#000" d="M56.505 143.239v3.608c1.44.535 2.952-.708 4.487-.629.896.042 1.71.541 2.595.692.11.029.225.035.338.019.112-.016.22-.055.318-.115.162-.166.258-.387.27-.619.327-1.919.688-6.56-2.297-6.888-2.205-.252-3.048 3.677-5.711 3.932z" opacity=".1"/>
        <path fill="#4C4C78" d="M60.631 143.397c-.836 1.968-2.086 3.454-3.172 3.893-.014.008-.03.015-.046.02-.328.145-.7.155-1.036.029-.105-.042-.201-.102-.286-.177-.935-.78-.895-3.162.145-5.621 1.135-2.69 3.04-4.454 4.264-3.936 1.224.518 1.27 3.103.131 5.792zM58.762 209.841l-.063.86s-.403 4.034 4.081 3.978c4.484-.056 5.275-3.142 5.275-3.142l-.463-2.05-8.83.354z"/>
        <path fill="#FFB9B9" d="M74.137 125.004s-2.172 21.276-1.762 25.048c.27 2.486-.656 6.001-1.341 8.114-.368 1.121-.505 2.304-.404 3.479.656 7.183-1.59 17.898-2.296 19.072-.751 1.273-.683 10.003-.683 10.003l.24 2.05.17 1.447.161 1.384s.37 5.083-.242 6.271c-.447.862-.355 4.611-.273 6.608.033.758.066 1.263.066 1.263-.005.354-.138.694-.374.958-.555.682-1.929 1.456-5.324 1.338-2.713-.095-3.609-1.227-3.819-2.421-.093-.841.028-1.693.351-2.476.105-.269.187-.43.187-.43l2.953-9.225c-.012-.64.008-1.279.062-1.916.04-.738.193-1.466.456-2.158v-.026c.617-1.312-.78-8.977-.78-8.977-2.048-7.914-1.516-24.395-1.024-25.175.492-.781 1.138-3.959 1.138-3.959s.079-1.886.204-6.192c.124-4.306-1.273-12.214-1.273-12.214-4.632-15.087-.204-19.967-.204-19.967l13.817 3.24-.006 4.861z"/>
        <path fill="#4C4C78" d="M68.071 194.217c-1.502.498-4.592 1.446-6.252 1.354.04-.739.193-1.467.456-2.158 1.355.272 3.651.472 5.626-.656l.17 1.46zM67.409 210.704c-2.04-1.069-5.885-2.591-9.143-1.082-.093-.842.028-1.694.351-2.477 1.893-.252 5.905-.488 9.1 1.338.033.758.066 1.263.066 1.263-.006.354-.138.694-.374.958z"/>
        <path fill="#FFB9B9" d="M61.248 103.167v8.416s-6.285 14.625-8.132 17.301c-.49.709-.87 1.489-1.125 2.312-.586 1.897-1.506 3.674-2.716 5.248-2.014 2.624-2.953 6.031-2.953 6.031-9.647-3.253 1.066-12.243 1.066-12.243s3.937-8.557 4.265-11.371c.256-2.194 2.988-10.439 4.18-13.965.327-.984.55-1.614.55-1.614l4.865-.115z"/>
        <path fill="#000" d="M74.793 135.926s-3.376-2.296-4.688 3.935c-1.312 6.232 3.72 7.872 3.72 7.872l.968-11.807z" opacity=".05"/>
        <path fill="#FFB9B9" d="M76.174 120.442s-3.13 6.854-2.664 13.555c.048.618-.053 1.239-.295 1.81-1.367 3.283-1.973 6.831-1.775 10.381v.197c.074 1.075.437 2.11 1.05 2.996.613.886 1.454 1.59 2.434 2.039.98.448 2.063.624 3.135.508 1.071-.116 2.092-.518 2.954-1.165 2.296-1.735 4.792-4.624 6.176-9.393.379-1.329.835-2.634 1.365-3.91 1.64-3.834 4.8-12.007 3.851-15.542-1.25-4.687-16.231-1.476-16.231-1.476z"/>
        <path fill="#000" d="M92.231 121.918c-.547-2.05-3.703-2.591-7.085-2.555 3.126.039 5.904.656 6.43 2.555.944 3.535-2.221 11.708-3.852 15.542-.533 1.275-.988 2.581-1.365 3.91-1.387 4.769-3.88 7.661-6.176 9.393-.941.718-2.076 1.136-3.258 1.2 1.406.082 2.795-.344 3.914-1.2 2.296-1.732 4.789-4.624 6.177-9.393.376-1.329.831-2.635 1.364-3.91 1.63-3.83 4.796-12.007 3.851-15.542z" opacity=".1"/>
        <path fill="#000" d="M59.09 109.714s-2.421 9.511-2.953 10.085c0 0 15.746 3.155 18 5.533l.328-2.706 1.109.738s9.103-6.477 17.058 1.64c0 0 3.893-11.807 2.788-14.021-1.106-2.214-14.394-.285-14.394-.285l-21.936-.984z" opacity=".1"/>
        <path fill="#4C4C78" d="M59.09 109.386s-2.421 9.511-2.953 10.085c0 0 15.746 3.155 18 5.533l.328-2.706 1.109.738s9.103-6.477 17.058 1.64c0 0 3.893-11.807 2.788-14.021-1.106-2.214-14.394-.285-14.394-.285l-21.936-.984z"/>
        <path fill="#B96B6B" d="M58.647 52.722c-.042.493-.032.99.03 1.482.108.984.258 1.968.426 2.952.049.288.101.574.154.86.518 2.813 1.187 5.604 1.64 8.431.238 1.447.398 2.905.48 4.369.184 2.592-.052 5.197-.7 7.714-.379 1.4-.953 2.74-1.706 3.982-.303.54-.703 1.02-1.18 1.416-.105.076-.215.145-.328.207-.681.356-1.431.56-2.198.597-.522.05-1.044.066-1.568.066-.414 0-.83 0-1.244-.033-1.473-.063-2.952-.21-4.418-.2-2.411.02-4.973.538-6.705 2.27-1.942 1.941-2.385 4.847-3.205 7.543-.29 1.028-.7 2.018-1.22 2.951-.322.647-.848 1.17-1.497 1.486-.558.174-1.148.215-1.725.122l-6.843-.574c-.912-.076-1.89-.138-2.673.344-.883.541-1.283 1.617-1.687 2.591-.819 1.984-1.883 3.857-3.168 5.576-.555.744-1.185 1.482-2.03 1.82-.94.37-1.989.193-2.98 0-3.11-.577-6.6-1.417-8.2-4.228-1.854-3.279-.174-7.455 1.997-10.495 2.172-3.04 4.95-5.93 5.426-9.692.128-1.01.036-2.148-.656-2.873-.545-.57-1.368-.787-1.886-1.38-.912-1.053-.476-2.71.092-3.995 1.488-3.384 3.541-6.49 6.072-9.184 3.959-4.204 9.25-7.674 10.766-13.328.928-3.474.22-7.16.311-10.764.033-1.358.207-2.782.962-3.897.862-1.272 2.358-1.941 3.838-2.197 3.812-.656 8.151.882 11.353-1.361 1.998-1.404 3.07-4.048 5.285-5.051 1.906-.866 4.12-.263 6.049.548 3.28 1.367 6.62 3.768 7.148 7.37.046.338.075.68.085 1.022-.014.858.04 1.716.16 2.565.51 2.604 2.845 5.12 1.76 7.544-3.34.413-5.948.423-6.217 3.424z"/>
        <path fill="#000" d="M60.677 78.53c-1.184 1.784-2.188 3.696-3.201 5.605-.681.356-1.431.56-2.198.597-.522.05-1.043.066-1.568.066-.413 0-.83 0-1.243-.033-1.473-.063-2.953-.21-4.42-.2-2.41.02-4.972.538-6.704 2.27-1.942 1.94-2.385 4.847-3.205 7.543h-.355c-1.705 0-3.204-1.08-4.513-2.168-.345-.252-.636-.57-.857-.935-.203-.438-.274-.926-.203-1.404.19-1.899 1.486-3.473 2.65-4.982 1.261-1.632 2.43-3.334 3.5-5.096.493-.804.985-1.693.896-2.624-.065-.755-.488-1.427-.656-2.162-.45-1.889.824-3.771 2.32-5.008 1.495-1.236 3.28-2.138 4.536-3.624 1.257-1.486 1.857-3.539 1.998-5.523.102-1.394.06-2.952 1.007-3.978 1.398-1.519 3.56-.578 5.295-.433 1.81.154 3.585.393 5.36.698.05.289.102.574.154.86.518 2.814 1.188 5.605 1.64 8.432.238 1.447.398 2.905.48 4.368.182 2.599-.059 5.21-.713 7.73z" opacity=".1"/>
        <path fill="#FFB9B9" d="M77.378 29.59l-6.561 4.483-.502-1.42-1.082-3.064s-13.014-9.51-16.186-12.735c-3.172-3.224-5.957-2.132-5.957-2.132-3.172 2.352-7.82 3.5-9.021-.656-.896-3.083 5.806-4.693 9.32-5.316 1.275-.228 2.59.005 3.71.656 2.4 1.397 6.793 3.913 8.837 4.88 2.9 1.364 14.325 10.331 14.325 10.823 0 .328 1.493 2.355 2.412 3.562.41.541.705.918.705.918z"/>
        <path fill="#757A9B" d="M90.171 69.386l2.953 23.394 4.592-3.496s-1.86-3.936-.656-4.644c1.204-.708 2.952 3.877 2.952 3.877s11.702.656 8.421-6.012l-3.72-4.811-7.325-5.199-7.217-3.109z"/>
        <path fill="#000" d="M90.171 69.386l2.953 23.394 4.592-3.496s-1.86-3.936-.656-4.644c1.204-.708 2.952 3.877 2.952 3.877s11.702.656 8.421-6.012l-3.72-4.811-7.325-5.199-7.217-3.109z" opacity=".1"/>
        <path fill="#FFB9B9" d="M79.126 68.29l-1.42 11.808-9.474.767s-10.107-2.883-6.38-9.95c1.692-3.215.63-5.14-.906-6.268-1.125-.76-2.4-1.269-3.74-1.493 0 0-.275-18.038 2.894-11.918 1.424 2.752 4.327 3.847 7.092 4.22 2.19.263 4.405.204 6.577-.173l5.357 13.007z"/>
        <path fill="#000" d="M67.195 55.611c0 1.963-.598 3.879-1.715 5.493-1.118 1.614-2.7 2.85-4.537 3.543-1.125-.76-2.4-1.269-3.74-1.493 0 0-.275-18.038 2.894-11.918 1.423 2.752 4.327 3.847 7.092 4.22.007.053.007.116.007.155z" opacity=".1"/>
        <path fill="#FFB9B9" d="M57.207 64.942c5.335 0 9.66-4.324 9.66-9.659 0-5.334-4.325-9.659-9.66-9.659-5.336 0-9.661 4.325-9.661 9.66 0 5.334 4.325 9.658 9.66 9.658z"/>
        <path fill="#000" d="M77.378 29.59l-6.561 4.483-.502-1.42c1.952-.64 4.96-2.886 6.358-3.982.41.541.705.919.705.919z" opacity=".1"/>
        <path fill="#CBCDDA" d="M79.402 34.073l-.276 1.256-7.653 2.46c-.755-.855-1.457-1.756-2.103-2.696-.718-1.092-1.121-2.076-.137-1.948 2.132.272 8.2-4.756 8.2-4.756 1.014-1.138 1.608 2.555 1.847 4.526.082.682.122 1.158.122 1.158z"/>
        <path fill="#000" d="M61.248 103.167v3.001c-.656 0-3.556-.147-5.416-1.279.328-.984.551-1.613.551-1.613l4.865-.109z" opacity=".1"/>
        <path fill="#CBCDDA" d="M62.672 100.216l-.417 1.856-.863 3.772s-4.1 0-6.095-1.666c-1.223-1.02-.947-2.624-.55-3.716.145-.409.33-.804.55-1.178l7.375.932z"/>
        <path fill="#000" d="M62.672 100.216l-.417 1.856c-1.939 1.023-6.374-1.05-7.509-1.61.146-.409.331-.804.551-1.178l7.375.932z" opacity=".1"/>
        <path fill="#757A9B" d="M55.015 77.094l-1.036 3.991s2.076 12.407 1.256 14.867c-.82 2.46-.764 4.044-.764 4.044s6.013 3.172 8.037 1.587c2.024-1.584 2.02-8.294 2.02-8.294l4.265-4.372-5.413-7.816-8.365-4.007z"/>
        <path fill="#000" d="M75.574 61.475s5.166 17.301-11.646 13.283l4.865 19.105-9.703 18.039s31.081 5.247 36.33-1.558c0 0-2.542-20.499-1.558-27.386.984-6.888-3.117-17.632-5.33-18.328-2.215-.695-12.958-3.155-12.958-3.155z" opacity=".1"/>
        <path fill="#000" d="M75.574 62.131s5.166 17.3-11.646 13.283l4.865 19.105-9.703 18.038s31.081 5.248 36.33-1.558c0 0-2.542-20.498-1.558-27.385.984-6.888-3.117-17.633-5.33-18.328-2.215-.695-12.958-3.155-12.958-3.155z" opacity=".1"/>
        <path fill="#CBCDDA" d="M75.574 61.803s5.166 17.3-11.646 13.283l4.865 19.105-9.703 18.038s31.081 5.248 36.33-1.557c0 0-2.542-20.499-1.558-27.386.984-6.888-3.117-17.632-5.33-18.328-2.215-.695-12.958-3.155-12.958-3.155z"/>
        <path fill="#000" d="M75.682 36.057c-.984.46-3.195 1.063-6.397-.344 0 0 5.032 9.839 5.36 11.699.328 1.86.328 4.155-.111 4.483-.44.328-1.749 3.716-1.749 3.716l-5.14.226s3.28 1.312 3.28 3.818c0 2.506 7.217 7.215 11.045 9.075 3.829 1.86 19.463 7.337 19.463 7.337l7 6.766s-2.736-7.107-12.029-13.447c-9.293-6.34-9.185-10.111-9.185-10.111s-1.748-13.283-4.045-17.003c-2.296-3.719-3.608-9.072-3.608-9.072s-1.837 2.532-2.93 2.601c-.33.026-.654.113-.954.256z" opacity=".1"/>
        <path fill="#000" d="M79.402 34.073l-.276 1.256-7.653 2.46c-.755-.855-1.457-1.756-2.103-2.696 3.16 1.361 5.328.764 6.312.308.299-.145.623-.231.954-.256.83-.052 2.087-1.521 2.644-2.23.082.682.122 1.158.122 1.158z" opacity=".1"/>
        <path fill="#757A9B" d="M75.682 35.73c-.984.458-3.195 1.062-6.397-.345 0 0 5.032 9.84 5.36 11.699.328 1.86.328 4.155-.111 4.483-.44.328-1.749 3.716-1.749 3.716l-5.14.226s3.28 1.312 3.28 3.818c0 2.506 7.217 7.216 11.045 9.075 3.829 1.86 19.463 7.337 19.463 7.337l7 6.766s-2.736-7.107-12.029-13.447c-9.293-6.34-9.185-10.111-9.185-10.111s-1.748-13.283-4.045-17.003c-2.296-3.719-3.608-9.071-3.608-9.071s-1.837 2.532-2.93 2.6c-.33.026-.654.113-.954.256z"/>
        <path fill="#000" d="M50.958 62.567c.328-1.033.13-2.158.269-3.233.367-2.916 3.113-5.265 2.985-8.2-.049-.274-.009-.557.114-.807.183-.205.438-.331.712-.35 1.43-.26 3.074-.122 4.137-1.112 1.063-.991 1.037-2.785.876-4.294-.089-.81-.217-1.702-.837-2.236-.423-.31-.915-.511-1.433-.588-1.79-.406-3.588-.762-5.396-1.066-1.824-.308-3.743-.554-5.479.086-1.735.64-3.083 2.141-4.32 3.575-1.164 1.348-2.408 2.968-2.08 4.723.18.95.8 1.748 1.214 2.623.433.942.63 1.975.573 3.01-.057 1.034-.367 2.039-.901 2.927-.86 1.39-2.296 2.489-2.644 4.083-.328 1.489.43 3.11 1.703 3.952 2.607 1.719 9.48.164 10.507-3.093z" opacity=".1"/>
        <path fill="#B96B6B" d="M50.63 62.567c.328-1.033.13-2.158.268-3.233.368-2.916 3.114-5.265 2.986-8.2-.049-.274-.008-.557.114-.807.183-.205.438-.331.712-.35 1.43-.26 3.074-.122 4.137-1.112 1.063-.991 1.036-2.785.876-4.294-.089-.81-.217-1.702-.837-2.236-.423-.31-.915-.511-1.433-.588-1.79-.406-3.588-.762-5.397-1.066-1.823-.308-3.742-.554-5.478.086-1.735.64-3.083 2.141-4.32 3.575-1.165 1.348-2.408 2.968-2.08 4.723.18.95.8 1.748 1.214 2.623.433.942.63 1.975.573 3.01-.057 1.034-.367 2.039-.901 2.927-.86 1.39-2.296 2.489-2.644 4.083-.328 1.489.43 3.11 1.702 3.952 2.608 1.719 9.48.164 10.508-3.093z"/>
        <path fill="#000" d="M61.871 65.158s-8.112 6.416-8.384 8.547c-.273 2.132.872 7.16.872 7.16l8.093 5.084s9.35 3.663 2.352 9.783c-6.997 6.12-9.46 19.243-9.46 19.243s3.391 4.043 9.732-7.583c0 0 6.125-6.668 6.397-9.948.272-3.28 1.227-13.338-2.913-19.57-2.732-4.113-4.219-8.73-5.288-11.122-.257-.684-.755-1.25-1.4-1.594z" opacity=".1"/>
        <path fill="#757A9B" d="M61.543 65.158s-8.112 6.416-8.384 8.547c-.273 2.132.872 7.16.872 7.16l8.093 5.084s9.35 3.663 2.352 9.783c-6.997 6.12-9.46 19.243-9.46 19.243s3.391 4.043 9.732-7.583c0 0 6.125-6.668 6.397-9.948.272-3.28 1.227-13.338-2.913-19.57-2.733-4.113-4.219-8.73-5.288-11.122-.257-.684-.755-1.25-1.4-1.594z"/>
        <path fill="#000" d="M64.476 95.732s-7.118 2.23-6.252 9.183l6.252-9.183zM66.179 86.113l-1.65 7.163 3.116-3.195-1.466-3.968zM74.465 122.302l-2.126 1.61 1.798 1.095.328-2.705zM86.399 86.113s7.315.236 7.463-2.516l-7.463 2.516z" opacity=".1"/>
        <path fill="#6C63FF" d="M14.46 196.381s1.804 2.358-.83 5.904c-2.634 3.545-4.806 6.559-3.936 8.777 0 0 3.972-6.606 7.216-6.698 3.245-.092 1.11-4.008-2.45-7.983z"/>
        <path fill="#000" d="M14.46 196.381c.157.228.282.476.37.738 3.156 3.71 4.836 7.17 1.802 7.255-2.825.098-6.207 5.133-7.027 6.409.026.098.06.194.098.288 0 0 3.973-6.605 7.217-6.697 3.245-.092 1.1-4.018-2.46-7.993z" opacity=".1"/>
        <path fill="#FFD037" d="M17.813 199.385c0 .83-.096 1.503-.21 1.503-.115 0-.207-.673-.207-1.503 0-.829.115-.439.23-.439.114 0 .186-.377.186.439z"/>
        <path fill="#FFD037" d="M18.954 200.376c-.728.397-1.365.636-1.417.535-.052-.102.489-.506 1.217-.902.728-.397.443-.109.499 0 .055.108.436-.03-.299.367z"/>
        <path fill="#6C63FF" d="M4.944 196.381s-1.805 2.358.83 5.904c2.634 3.545 4.805 6.559 3.936 8.777 0 0-3.976-6.606-7.217-6.698-3.24-.092-1.109-4.008 2.45-7.983z"/>
        <path fill="#000" d="M4.944 196.381c-.158.228-.283.476-.371.738-3.156 3.71-4.835 7.17-1.801 7.255 2.824.082 6.213 5.133 7.027 6.409-.027.097-.059.194-.096.288 0 0-3.975-6.599-7.21-6.697-3.234-.098-1.109-4.018 2.45-7.993z" opacity=".1"/>
        <path fill="#FFD037" d="M1.591 199.385c0 .83.095 1.503.21 1.503.115 0 .207-.673.207-1.503 0-.829-.115-.439-.23-.439s-.187-.377-.187.439z"/>
        <path fill="#FFD037" d="M.443 200.376c.728.397 1.365.636 1.417.535.052-.102-.489-.506-1.217-.902-.728-.397-.443-.109-.499 0-.055.108-.43-.03.299.367z"/>
        <path fill="#4C5D67" d="M2.165 210.763s5.039-.154 6.56-1.233c1.523-1.079 7.752-2.375 8.13-.64.377 1.735 7.57 8.623 1.883 8.669-5.689.046-13.234-.886-14.736-1.807-1.502-.922-1.837-4.989-1.837-4.989z"/>
        <path fill="#000" d="M18.836 216.955c-5.688.046-13.217-.885-14.732-1.807-1.155-.705-1.614-3.227-1.768-4.392h-.17c-.001 0 .327 4.064 1.836 4.989 1.51.925 9.047 1.846 14.732 1.814 1.64 0 2.208-.597 2.178-1.463-.23.511-.856.839-2.076.859z" opacity=".2"/>
        <g clip-path="url(#clip1)">
            <path stroke="#4C5D67" stroke-miterlimit="10" stroke-width="2" d="M126.66 208.835s-4.609-15.654.863-27.166c2.327-4.815 3.029-10.255 2.001-15.504-.509-2.487-1.243-4.923-2.195-7.277"/>
            <path fill="#6C63FF" d="M130.734 151.61c0 1.915-3.474 7.478-3.474 7.478s-3.474-5.576-3.474-7.478c0-.921.366-1.805 1.018-2.456.651-.651 1.535-1.017 2.456-1.017.922 0 1.805.366 2.457 1.017.651.651 1.017 1.535 1.017 2.456zM136.468 162.23c-1.043 1.61-6.98 4.391-6.98 4.391s.108-6.559 1.148-8.163c.242-.394.561-.735.938-1.004.376-.269.802-.46 1.254-.562.451-.102.918-.112 1.373-.031.456.08.89.252 1.279.503.388.251.723.577.983.959.261.382.443.813.535 1.266.092.453.092.92.001 1.374-.09.453-.271.884-.531 1.267zM136.222 180.39c-1.712.862-8.24.265-8.24.265s3.402-5.602 5.114-6.467c.408-.217.856-.349 1.316-.39.46-.042.924.009 1.365.15.44.14.848.367 1.199.666.352.3.64.667.848 1.08.208.412.332.862.364 1.323.031.461-.029.924-.178 1.361-.149.437-.384.841-.691 1.186-.307.345-.68.626-1.097.826zM132.942 194.073c-1.545 1.141-8.08 1.64-8.08 1.64s2.405-6.097 3.937-7.239c.741-.501 1.648-.697 2.531-.547.883.151 1.673.637 2.206 1.356.533.719.768 1.617.656 2.505-.113.888-.564 1.698-1.26 2.262l.01.023zM122.202 166.992c1.374 1.338 7.784 2.722 7.784 2.722s-1.568-6.366-2.952-7.701c-.66-.641-1.549-.994-2.469-.981-.921.013-1.799.391-2.44 1.052-.642.66-.995 1.548-.982 2.468.014.921.392 1.798 1.052 2.44h.007zM118.564 183.053c1.712.866 8.244.269 8.244.269s-3.402-5.605-5.101-6.468c-.819-.384-1.755-.433-2.609-.139-.855.295-1.561.912-1.968 1.719-.408.806-.484 1.74-.214 2.603.27.862.866 1.586 1.661 2.016h-.013zM117.173 199.15c1.542 1.138 8.08 1.64 8.08 1.64s-2.408-6.101-3.937-7.242c-.364-.298-.785-.519-1.237-.65-.452-.131-.925-.169-1.392-.111-.468.058-.918.21-1.324.448-.407.237-.761.554-1.041.932-.28.378-.48.809-.589 1.267-.108.458-.122.933-.041 1.397.08.463.255.905.511 1.299.257.395.592.733.983.994l-.013.026z"/>
            <path fill="#6C63FF" d="M130.734 151.61c0 1.915-3.474 7.478-3.474 7.478s-3.474-5.576-3.474-7.478c0-.921.366-1.805 1.018-2.456.651-.651 1.535-1.017 2.456-1.017.922 0 1.805.366 2.457 1.017.651.651 1.017 1.535 1.017 2.456zM136.468 162.23c-1.043 1.61-6.98 4.391-6.98 4.391s.108-6.559 1.148-8.163c.242-.394.561-.735.938-1.004.376-.269.802-.46 1.254-.562.451-.102.918-.112 1.373-.031.456.08.89.252 1.279.503.388.251.723.577.983.959.261.382.443.813.535 1.266.092.453.092.92.001 1.374-.09.453-.271.884-.531 1.267zM136.222 180.39c-1.712.862-8.24.265-8.24.265s3.402-5.602 5.114-6.467c.408-.217.856-.349 1.316-.39.46-.042.924.009 1.365.15.44.14.848.367 1.199.666.352.3.64.667.848 1.08.208.412.332.862.364 1.323.031.461-.029.924-.178 1.361-.149.437-.384.841-.691 1.186-.307.345-.68.626-1.097.826zM132.942 194.073c-1.545 1.141-8.08 1.64-8.08 1.64s2.405-6.097 3.937-7.239c.741-.501 1.648-.697 2.531-.547.883.151 1.673.637 2.206 1.356.533.719.768 1.617.656 2.505-.113.888-.564 1.698-1.26 2.262l.01.023zM122.202 166.992c1.374 1.338 7.784 2.722 7.784 2.722s-1.568-6.366-2.952-7.701c-.66-.641-1.549-.994-2.469-.981-.921.013-1.799.391-2.44 1.052-.642.66-.995 1.548-.982 2.468.014.921.392 1.798 1.052 2.44h.007zM118.564 183.053c1.712.866 8.244.269 8.244.269s-3.402-5.605-5.101-6.468c-.819-.384-1.755-.433-2.609-.139-.855.295-1.561.912-1.968 1.719-.408.806-.484 1.74-.214 2.603.27.862.866 1.586 1.661 2.016h-.013zM117.173 199.15c1.542 1.138 8.08 1.64 8.08 1.64s-2.408-6.101-3.937-7.242c-.364-.298-.785-.519-1.237-.65-.452-.131-.925-.169-1.392-.111-.468.058-.918.21-1.324.448-.407.237-.761.554-1.041.932-.28.378-.48.809-.589 1.267-.108.458-.122.933-.041 1.397.08.463.255.905.511 1.299.257.395.592.733.983.994l-.013.026z"/>
            <path fill="#4C5D67" d="M115.766 207.848s5.613-1.115 7.108-2.601c1.496-1.486 8.234-4.087 8.982-2.23.748 1.856 10.104 8.173 3.743 9.288-6.361 1.115-14.968 1.486-16.842.741-1.873-.744-2.991-5.198-2.991-5.198z"/>
            <path fill="#4C5D67" d="M135.599 211.613c-6.361 1.115-14.968 1.486-16.842.744-1.423-.567-2.414-3.279-2.804-4.549l-.187.04s1.122 4.457 2.991 5.198c1.87.741 10.498.374 16.842-.741 1.837-.328 2.362-1.079 2.162-2.034-.154.62-.794 1.102-2.162 1.342z" opacity=".2"/>
        </g>
    </g>
    <defs>
        <clipPath id="clip0">
            <path fill="#fff" d="M0 0H168.205V224H0z"/>
        </clipPath>
        <clipPath id="clip1">
            <path fill="#fff" d="M0 0H65.641V67.282H0z" transform="translate(87.795 148.513)"/>
        </clipPath>
        <linearGradient id="paint0_linear" x1="57.164" x2="57.164" y1="215.227" y2="7.835" gradientUnits="userSpaceOnUse">
            <stop stop-color="gray" stop-opacity=".25"/>
            <stop offset=".54" stop-color="gray" stop-opacity=".12"/>
            <stop offset="1" stop-color="gray" stop-opacity=".1"/>
        </linearGradient>
    </defs>
</svg>
