<svg xmlns="http://www.w3.org/2000/svg" width="281" height="224" fill="none" viewBox="0 0 281 224">
    <g clip-path="url(#clip0)">
        <path fill="#6C63FF" d="M80.502 38.417h-21.02c-1.213 0-2.196.983-2.196 2.195v3.292c0 1.213.983 2.196 2.195 2.196h21.021c1.213 0 2.196-.983 2.196-2.196v-3.292c0-1.212-.983-2.195-2.196-2.195zM107.096 46.1h-21.02c-1.213 0-2.196.983-2.196 2.196v3.292c0 1.213.983 2.196 2.195 2.196h21.021c1.213 0 2.196-.983 2.196-2.196v-3.292c0-1.213-.983-2.196-2.196-2.196zM133.69 53.784h-21.021c-1.213 0-2.195.983-2.195 2.195v3.292c0 1.213.982 2.196 2.195 2.196h21.021c1.212 0 2.195-.983 2.195-2.196V55.98c0-1.212-.983-2.195-2.195-2.195zM80.502 26.892h-21.02c-1.213 0-2.196.983-2.196 2.195v3.293c0 1.212.983 2.195 2.195 2.195h21.021c1.213 0 2.196-.983 2.196-2.195v-3.293c0-1.212-.983-2.195-2.196-2.195zM107.096 34.575h-21.02c-1.213 0-2.196.983-2.196 2.196v3.292c0 1.212.983 2.196 2.195 2.196h21.021c1.213 0 2.196-.983 2.196-2.196V36.77c0-1.213-.983-2.196-2.196-2.196zM133.69 42.258h-21.021c-1.213 0-2.195.984-2.195 2.196v3.292c0 1.213.982 2.196 2.195 2.196h21.021c1.212 0 2.195-.983 2.195-2.196v-3.292c0-1.212-.983-2.196-2.195-2.196zM163.239 38.417h-21.021c-1.213 0-2.196.983-2.196 2.195v3.292c0 1.213.983 2.196 2.196 2.196h21.021c1.212 0 2.195-.983 2.195-2.196v-3.292c0-1.212-.983-2.195-2.195-2.195zM189.832 46.1h-21.021c-1.212 0-2.195.983-2.195 2.196v3.292c0 1.213.983 2.196 2.195 2.196h21.021c1.213 0 2.196-.983 2.196-2.196v-3.292c0-1.213-.983-2.196-2.196-2.196zM216.426 53.784h-21.021c-1.212 0-2.195.983-2.195 2.195v3.292c0 1.213.983 2.196 2.195 2.196h21.021c1.213 0 2.196-.983 2.196-2.196V55.98c0-1.212-.983-2.195-2.196-2.195zM163.239 26.892h-21.021c-1.213 0-2.196.983-2.196 2.195v3.293c0 1.212.983 2.195 2.196 2.195h21.021c1.212 0 2.195-.983 2.195-2.195v-3.293c0-1.212-.983-2.195-2.195-2.195zM189.832 34.575h-21.021c-1.212 0-2.195.983-2.195 2.196v3.292c0 1.212.983 2.196 2.195 2.196h21.021c1.213 0 2.196-.983 2.196-2.196V36.77c0-1.213-.983-2.196-2.196-2.196zM216.426 42.258h-21.021c-1.212 0-2.195.984-2.195 2.196v3.292c0 1.213.983 2.196 2.195 2.196h21.021c1.213 0 2.196-.983 2.196-2.196v-3.292c0-1.212-.983-2.196-2.196-2.196zM80.502 11.525h-21.02c-1.213 0-2.196.983-2.196 2.196v3.292c0 1.212.983 2.195 2.195 2.195h21.021c1.213 0 2.196-.983 2.196-2.195V13.72c0-1.213-.983-2.196-2.196-2.196zM107.096 19.209h-21.02c-1.213 0-2.196.983-2.196 2.195v3.292c0 1.213.983 2.196 2.195 2.196h21.021c1.213 0 2.196-.983 2.196-2.196v-3.292c0-1.212-.983-2.195-2.196-2.195zM133.69 26.892h-21.021c-1.213 0-2.195.983-2.195 2.195v3.293c0 1.212.982 2.195 2.195 2.195h21.021c1.212 0 2.195-.983 2.195-2.195v-3.293c0-1.212-.983-2.195-2.195-2.195zM80.502 0h-21.02c-1.213 0-2.196.983-2.196 2.196v3.292c0 1.212.983 2.195 2.195 2.195h21.021c1.213 0 2.196-.983 2.196-2.195V2.196C82.698.983 81.715 0 80.502 0zM107.096 7.683h-21.02c-1.213 0-2.196.983-2.196 2.196v3.292c0 1.213.983 2.196 2.195 2.196h21.021c1.213 0 2.196-.983 2.196-2.196V9.88c0-1.213-.983-2.196-2.196-2.196zM133.69 15.367h-21.021c-1.213 0-2.195.983-2.195 2.195v3.292c0 1.213.982 2.196 2.195 2.196h21.021c1.212 0 2.195-.983 2.195-2.196v-3.292c0-1.212-.983-2.195-2.195-2.195zM163.239 11.525h-21.021c-1.213 0-2.196.983-2.196 2.196v3.292c0 1.212.983 2.195 2.196 2.195h21.021c1.212 0 2.195-.983 2.195-2.195V13.72c0-1.213-.983-2.196-2.195-2.196zM189.832 19.209h-21.021c-1.212 0-2.195.983-2.195 2.195v3.292c0 1.213.983 2.196 2.195 2.196h21.021c1.213 0 2.196-.983 2.196-2.196v-3.292c0-1.212-.983-2.195-2.196-2.195zM216.426 26.892h-21.021c-1.212 0-2.195.983-2.195 2.195v3.293c0 1.212.983 2.195 2.195 2.195h21.021c1.213 0 2.196-.983 2.196-2.195v-3.293c0-1.212-.983-2.195-2.196-2.195zM163.239 0h-21.021c-1.213 0-2.196.983-2.196 2.196v3.292c0 1.212.983 2.195 2.196 2.195h21.021c1.212 0 2.195-.983 2.195-2.195V2.196c0-1.213-.983-2.196-2.195-2.196zM189.832 7.683h-21.021c-1.212 0-2.195.983-2.195 2.196v3.292c0 1.213.983 2.196 2.195 2.196h21.021c1.213 0 2.196-.983 2.196-2.196V9.88c0-1.213-.983-2.196-2.196-2.196zM216.426 15.367h-21.021c-1.212 0-2.195.983-2.195 2.195v3.292c0 1.213.983 2.196 2.195 2.196h21.021c1.213 0 2.196-.983 2.196-2.196v-3.292c0-1.212-.983-2.195-2.196-2.195zM80.502 175.24h-21.02c-1.213 0-2.196.983-2.196 2.196v3.292c0 1.213.983 2.196 2.195 2.196h21.021c1.213 0 2.196-.983 2.196-2.196v-3.292c0-1.213-.983-2.196-2.196-2.196zM107.096 182.924h-21.02c-1.213 0-2.196.983-2.196 2.195v3.292c0 1.213.983 2.196 2.195 2.196h21.021c1.213 0 2.196-.983 2.196-2.196v-3.292c0-1.212-.983-2.195-2.196-2.195zM133.69 190.607h-21.021c-1.213 0-2.195.983-2.195 2.196v3.292c0 1.212.982 2.195 2.195 2.195h21.021c1.212 0 2.195-.983 2.195-2.195v-3.292c0-1.213-.983-2.196-2.195-2.196zM80.502 163.715h-21.02c-1.213 0-2.196.983-2.196 2.196v3.292c0 1.212.983 2.195 2.195 2.195h21.021c1.213 0 2.196-.983 2.196-2.195v-3.292c0-1.213-.983-2.196-2.196-2.196zM107.096 171.398h-21.02c-1.213 0-2.196.983-2.196 2.196v3.292c0 1.213.983 2.196 2.195 2.196h21.021c1.213 0 2.196-.983 2.196-2.196v-3.292c0-1.213-.983-2.196-2.196-2.196zM133.69 179.082h-21.021c-1.213 0-2.195.983-2.195 2.195v3.292c0 1.213.982 2.196 2.195 2.196h21.021c1.212 0 2.195-.983 2.195-2.196v-3.292c0-1.212-.983-2.195-2.195-2.195zM163.239 175.24h-21.021c-1.213 0-2.196.983-2.196 2.196v3.292c0 1.213.983 2.196 2.196 2.196h21.021c1.212 0 2.195-.983 2.195-2.196v-3.292c0-1.213-.983-2.196-2.195-2.196zM189.832 182.924h-21.021c-1.212 0-2.195.983-2.195 2.195v3.292c0 1.213.983 2.196 2.195 2.196h21.021c1.213 0 2.196-.983 2.196-2.196v-3.292c0-1.212-.983-2.195-2.196-2.195zM216.426 190.607h-21.021c-1.212 0-2.195.983-2.195 2.196v3.292c0 1.212.983 2.195 2.195 2.195h21.021c1.213 0 2.196-.983 2.196-2.195v-3.292c0-1.213-.983-2.196-2.196-2.196zM163.239 163.715h-21.021c-1.213 0-2.196.983-2.196 2.196v3.292c0 1.212.983 2.195 2.196 2.195h21.021c1.212 0 2.195-.983 2.195-2.195v-3.292c0-1.213-.983-2.196-2.195-2.196zM189.832 171.398h-21.021c-1.212 0-2.195.983-2.195 2.196v3.292c0 1.213.983 2.196 2.195 2.196h21.021c1.213 0 2.196-.983 2.196-2.196v-3.292c0-1.213-.983-2.196-2.196-2.196zM216.426 179.082h-21.021c-1.212 0-2.195.983-2.195 2.195v3.292c0 1.213.983 2.196 2.195 2.196h21.021c1.213 0 2.196-.983 2.196-2.196v-3.292c0-1.212-.983-2.195-2.196-2.195zM80.502 148.348h-21.02c-1.213 0-2.196.983-2.196 2.196v3.292c0 1.213.983 2.196 2.195 2.196h21.021c1.213 0 2.196-.983 2.196-2.196v-3.292c0-1.213-.983-2.196-2.196-2.196zM107.096 156.032h-21.02c-1.213 0-2.196.983-2.196 2.195v3.292c0 1.213.983 2.196 2.195 2.196h21.021c1.213 0 2.196-.983 2.196-2.196v-3.292c0-1.212-.983-2.195-2.196-2.195zM133.69 163.715h-21.021c-1.213 0-2.195.983-2.195 2.196v3.292c0 1.212.982 2.195 2.195 2.195h21.021c1.212 0 2.195-.983 2.195-2.195v-3.292c0-1.213-.983-2.196-2.195-2.196zM80.502 136.823h-21.02c-1.213 0-2.196.983-2.196 2.196v3.292c0 1.213.983 2.196 2.195 2.196h21.021c1.213 0 2.196-.983 2.196-2.196v-3.292c0-1.213-.983-2.196-2.196-2.196zM107.096 144.507h-21.02c-1.213 0-2.196.983-2.196 2.195v3.292c0 1.213.983 2.196 2.195 2.196h21.021c1.213 0 2.196-.983 2.196-2.196v-3.292c0-1.212-.983-2.195-2.196-2.195zM133.69 152.19h-21.021c-1.213 0-2.195.983-2.195 2.196v3.292c0 1.212.982 2.195 2.195 2.195h21.021c1.212 0 2.195-.983 2.195-2.195v-3.292c0-1.213-.983-2.196-2.195-2.196zM163.239 148.348h-21.021c-1.213 0-2.196.983-2.196 2.196v3.292c0 1.213.983 2.196 2.196 2.196h21.021c1.212 0 2.195-.983 2.195-2.196v-3.292c0-1.213-.983-2.196-2.195-2.196zM189.832 156.032h-21.021c-1.212 0-2.195.983-2.195 2.195v3.292c0 1.213.983 2.196 2.195 2.196h21.021c1.213 0 2.196-.983 2.196-2.196v-3.292c0-1.212-.983-2.195-2.196-2.195zM216.426 163.715h-21.021c-1.212 0-2.195.983-2.195 2.196v3.292c0 1.212.983 2.195 2.195 2.195h21.021c1.213 0 2.196-.983 2.196-2.195v-3.292c0-1.213-.983-2.196-2.196-2.196zM163.239 136.823h-21.021c-1.213 0-2.196.983-2.196 2.196v3.292c0 1.213.983 2.196 2.196 2.196h21.021c1.212 0 2.195-.983 2.195-2.196v-3.292c0-1.213-.983-2.196-2.195-2.196zM189.832 144.507h-21.021c-1.212 0-2.195.983-2.195 2.195v3.292c0 1.213.983 2.196 2.195 2.196h21.021c1.213 0 2.196-.983 2.196-2.196v-3.292c0-1.212-.983-2.195-2.196-2.195zM216.426 152.19h-21.021c-1.212 0-2.195.983-2.195 2.196v3.292c0 1.212.983 2.195 2.195 2.195h21.021c1.213 0 2.196-.983 2.196-2.195v-3.292c0-1.213-.983-2.196-2.196-2.196zM142.534 224c71.56 0 129.571-4.763 129.571-10.639 0-5.875-58.011-10.638-129.571-10.638s-129.571 4.763-129.571 10.638c0 5.876 58.01 10.639 129.571 10.639z" opacity=".1"/>
        <path fill="#6C63FF" d="M25.013 55.202c12.218 5.296 19.239 16.253 19.239 16.253S31.46 73.82 19.239 68.527C7.018 63.234 0 52.273 0 52.273s12.792-2.367 25.013 2.929zM62.51 34.87c3.78-6.205 10.215-9.16 10.215-9.16s.296 7.075-3.472 13.263c-3.767 6.188-10.218 9.14-10.218 9.14s-.307-7.072 3.475-13.242z"/>
        <path fill="#46455B" d="M34.728 41.51c2.704 9.652 10.156 16.006 10.156 16.006s3.07-9.3.367-18.954c-2.704-9.655-10.16-16.005-10.16-16.005s-3.07 9.3-.363 18.954z"/>
        <path fill="#3F3D56" d="M248.404 41.076H37.254c-1.176 0-2.13.954-2.13 2.131V146.81c0 1.176.954 2.13 2.13 2.13h211.15c1.176 0 2.13-.954 2.13-2.13V43.207c0-1.177-.954-2.13-2.13-2.13z"/>
        <path fill="#000" d="M35.124 142.438h215.41v4.371c0 .565-.224 1.107-.624 1.506-.4.4-.941.624-1.506.624H37.254c-.564 0-1.106-.224-1.506-.624-.4-.399-.623-.941-.623-1.506v-4.371z" opacity=".1"/>
        <path fill="#6C63FF" d="M71.322 134.459h-14.48c-.407 0-.738.331-.738.739v6.501c0 .408.33.739.739.739H71.32c.409 0 .74-.331.74-.739v-6.501c0-.408-.332-.739-.74-.739zM86.835 141.256h-9.751c-.327 0-.591.264-.591.591 0 .326.264.591.59.591h9.752c.326 0 .59-.265.59-.591 0-.327-.264-.591-.59-.591zM66.786 62.17c7.798 1.44 15.752 0 23.518-.975l23.6-2.955c.955-.121 2.343-.692 2.905.476.316.653.103 2.068.127 2.819.062 2.069.056 4.137 0 6.206-.107 3.954-.396 7.899-.766 11.835-.718 7.704-1.734 15.367-2.242 23.1-.26 3.937-.39 7.885-.275 11.821.027.94.065 1.879.121 2.816.062 1.049.532 2.607-.612 3.307-.653.402-1.938.381-2.686.499-1.181.187-2.363.334-3.569.456-7.946.794-15.995.464-23.97.416l-24.082-.124-5.874-.032c-.532 0-2.45.319-2.778-.314-.139-.269.23-1.527.296-1.864.09-.556.189-1.11.295-1.664.686-3.886 1.495-7.748 2.31-11.608 1.753-8.274 3.547-16.59 4.268-25.042.357-4.24.12-8.52.558-12.751.204-1.965.446-6.35 3.061-6.525 2.217-.148 4.498 0 6.72 0 .117 0 .23-.047.313-.13.083-.083.13-.196.13-.313 0-.118-.047-.23-.13-.314-.083-.083-.196-.13-.313-.13-2.098 0-4.2-.056-6.297-.014-1.395.026-2.364.357-3.029 1.64-1.699 3.292-1.524 7.683-1.578 11.276-.127 8.603-1.448 17.022-3.167 25.435-.866 4.235-1.8 8.455-2.66 12.693-.404 2.024-.792 4.054-1.146 6.09-.166.97-1.002 3.106-.266 3.996.736.889 2.999.41 4.013.416l7.05.042 13.51.077c8.728.05 17.486.295 26.212.038 4.166-.124 8.569-.296 12.626-1.291 1.209-.296 1.791-.852 1.838-2.14.071-1.998-.254-4.057-.295-6.064-.296-17.17 3.738-34.1 3.324-51.275-.027-1.167.414-4.11-.863-4.817-.573-.319-1.318-.144-1.921-.073-1.152.133-2.301.295-3.454.431l-14.966 1.868c-4.784.59-9.565 1.229-14.358 1.773-5.073.59-10.197.942-15.253 0-.558-.104-.798.75-.236.854l-.01.035z"/>
        <path fill="#6C63FF" d="M57.377 72.617l59.045-2.896c.57-.03.573-.916 0-.887L57.378 71.73c-.568.027-.57.913 0 .887zM75.568 65.309c-.165.175-.285.388-.35.62-.064.231-.07.475-.019.71.052.236.16.454.315.638.156.184.354.327.577.417.795.363 1.728.059 2.517-.14 1.182-.295 2.364-.558 3.579-.773 2.643-.469 5.32-.718 8.004-.745 1.224-.015 2.438.041 3.661.094.887.036 1.841.107 2.592-.443.857-.626 1.135-1.85.295-2.612-1.182-1.079-3.729-.452-5.094-.34-4.953.411-9.875 1.146-14.733 2.198-.555.119-.322.976.237.854 3.205-.691 6.434-1.247 9.689-1.666 1.6-.197 3.202-.364 4.807-.5.757-.062 1.513-.118 2.27-.162.295-.018.608-.05.91-.042.936.021 1.046-.147.484.985-.5 1.001-.34.886-1.205.854-.367 0-.733-.042-1.1-.06-.75-.031-1.5-.048-2.251-.05-1.598 0-3.192.077-4.781.23-1.348.13-2.692.314-4.025.55-.833.148-1.66.32-2.485.509-.363.085-.73.174-1.093.266-.174.047-.352.088-.526.133-.646.224-1.197-.071-1.652-.887.396-.41-.227-1.04-.626-.626l.003-.012zM86.27 77.921c-4.275-.165-8.894.99-11.71 4.433-2.204 2.692-3.46 7.31-1.126 10.343 2.509 3.25 8.01 2.677 11.33 1.291 3.51-1.477 7.351-4.524 8.406-8.336 1.315-4.76-2.955-8.36-7.402-8.413-.57 0-.57.886 0 .886 2.535.03 5.023 1.117 6.205 3.478 1.238 2.489.171 5.1-1.477 7.093-2.642 3.17-6.773 5.561-10.98 5.493-2.527-.038-5.32-.904-6.102-3.57-.645-2.16-.154-4.521.969-6.436 2.429-4.137 7.372-5.538 11.905-5.36.57.02.57-.866 0-.887l-.018-.015z"/>
        <path fill="#6C63FF" d="M82.024 84.488c-.182-.068-.379-.088-.57-.06-.193.03-.375.106-.53.224-.154.118-.276.273-.355.451-.078.178-.11.373-.093.567.088 1.152 1.359 1.477 2.313 1.41.825-.072 1.788-.376 1.498-1.407-.053-.183-.145-.352-.27-.496-.124-.143-.277-.259-.45-.338-.265-.105-.552-.14-.834-.103-.11 0-1.11.366-.685-.074l-.698-.092c.078.077.137.17.174.272.037.102.05.211.04.32 0 .077.022.152.061.219.04.066.095.121.162.16.067.038.143.059.22.059.078 0 .154-.02.22-.057.102-.043.213-.056.322-.039.109.017.21.065.293.136.084.072.145.166.178.27.033.106.036.218.009.324-.024.103-.011.21.037.304.047.093.127.167.223.208.097.041.205.047.306.016.1-.031.186-.097.243-.185.296-.532.653-1.59.21-2.145-.295-.376-.866-.264-1.22-.045-.22.155-.423.33-.609.523-.357.316-.59.464-.458-.142.222-1.102 1.274-1.98 2.234-2.42l-.65-.5c-.34 1.282-.95 2.475-1.788 3.503l.757.313c-.022-.406.082-.808.298-1.153.216-.344.533-.613.907-.771h-.434l.23.378c-.085.559.769.798.854.234.113-.73-.348-1.679-1.202-1.321-1.02.425-1.549 1.593-1.528 2.633 0 .354.502.63.76.316.94-1.142 1.625-2.47 2.012-3.898.02-.084.016-.173-.013-.255-.03-.083-.082-.155-.151-.207-.07-.053-.152-.085-.24-.092-.086-.006-.173.013-.25.055-.885.4-1.633 1.051-2.15 1.873-.361.591-.813 1.513-.447 2.193.06.109.141.204.239.282.097.077.209.134.328.168.12.034.245.043.368.029.123-.015.243-.054.35-.115.274-.163.523-.361.742-.592.11-.097.23-.266.376-.295.13-.089.124-.038-.021.157-.002.306-.091.605-.257.862l.81.34c.072-.276.064-.567-.025-.838s-.255-.51-.477-.69c-.222-.179-.491-.29-.775-.32-.284-.028-.57.025-.824.155l.667.384c.014-.376-.104-.745-.334-1.043-.034-.057-.082-.106-.138-.143-.056-.037-.12-.06-.187-.07-.066-.008-.134-.002-.198.02-.064.02-.122.055-.17.101-.45.47-.536 1.283.029 1.717.422.323.629 0 1.093-.073 1.575-.204.656.505.1.528-.248.027-.5.01-.741-.053-.617-.209-.655-.477-.116-.806.53.215.757-.642.237-.855l-.012-.011z"/>
        <path fill="#6C63FF" d="M81.312 86.107c.363 1.182-1.138 1.572-1.85 1.98-.5.28-.935.662-1.28 1.12-.744.999-1.022 2.27-1.267 3.466-.112.559.742.795.857.237.135-.88.387-1.737.748-2.55.532-1.059 1.294-1.413 2.287-1.957.992-.544 1.71-1.386 1.359-2.533-.166-.543-1.022-.31-.854.237z"/>
        <path fill="#6C63FF" d="M82.79 85.513c-.212.03-.405.136-.541.3-.137.164-.208.373-.198.587 0 .351.233.576.393.856.378.575.667 1.204.857 1.865.141.636.28 1.773-.05 2.364-.612 1.097-1.717.887-2.66.887-.886 0-1.572.295-1.542-.94.017-.694.502-1.398.886-1.944l-.81-.107c.171.903.261 1.818.27 2.737 0 .41.629.638.824.221.475-1 .852-2.042 1.126-3.114l-.872-.119.153 2.246c.003.096.036.189.096.264.059.075.14.13.233.155.093.025.19.02.28-.015.09-.035.165-.098.216-.18.103-.113.18-.25.222-.398.029-.139-.243-1.076-.352-.742l.869.118.062-2.133-.887.118c.188.602.244 1.236.166 1.862-.056.493.774.606.886.118l.556-2.867-.81.104c.192.396.245.846.15 1.276-.064.568.822.562.887 0 .075-.588-.019-1.186-.272-1.722-.045-.074-.11-.134-.188-.171-.078-.037-.165-.051-.251-.04-.086.011-.167.047-.232.103-.066.057-.114.131-.138.214l-.559 2.867.872.118c.088-.705.02-1.42-.198-2.095-.03-.102-.095-.19-.184-.248-.088-.058-.195-.082-.3-.068-.105.014-.202.065-.272.144-.07.08-.11.18-.113.287l-.062 2.133c0 .518.718.591.872.119l.047-.145c.02-.076.02-.155.001-.23-.02-.076-.059-.146-.113-.202-.92-.999-1.105.591-1.424 1.032l.827.224-.154-2.246c-.032-.478-.741-.626-.871-.118-.25 1-.597 1.973-1.035 2.905l.828.225c-.01-.998-.109-1.993-.296-2.973-.077-.408-.611-.39-.81-.107-.59.852-1.613 2.71-.824 3.73.689.886 2.855.544 3.78.487 1.46-.082 1.988-1.007 2.148-2.384.076-.66.039-1.327-.11-1.974-.08-.35-.886-2.56-1.128-2.515.561-.104.322-.96-.237-.857l-.015-.012z"/>
        <path fill="#6C63FF" d="M81.073 87.505l-2.42 3.194.765.447 1.773-2.566-.81-.342-.883 3.371c-.024.103-.011.21.037.304.047.094.127.168.223.209.097.04.205.046.306.015.1-.031.186-.096.243-.185.402-.666.854-1.301 1.35-1.9l-.738-.431c-.198.763-.58 1.466-1.114 2.048l.742.431c.045-.408.154-.807.322-1.182.227-.511-.494-.963-.766-.45-.25.47-.535.918-.854 1.342l.81.107.18-.842-.81-.107.13.739c.022.074.062.142.118.196.055.054.123.093.198.112.075.02.153.02.228 0 .075-.02.143-.059.198-.113.75-.776 1.35-1.682 1.773-2.674h-.762c.2.37.341.768.417 1.182.106.532.812.334.868-.118.127-.99.192-1.987.195-2.985h-.886v1.859c0 .481.789.623.871.118.06-.449.207-.88.435-1.27h-.777c.187.301.29.648.295 1.004 0 .117.047.23.13.313.083.083.196.13.314.13.117 0 .23-.047.313-.13.083-.083.13-.196.13-.313l.112-.591h-.854c.086.523.41 3.47-.745 3.123-.195-.047-.25-.035-.168.033l.263-.562.618-1.309-.828-.224c.053.608.11 1.477-.257 1.997-.295.423-1.206.591-1.67.343-.306-.218-.567-.493-.77-.81l-.606.591c.49.358 1.285 1.236 1.917 1.286.482.038.887-.36 1.203-.68.485-.5.863-1.095 1.112-1.747.248-.652.361-1.347.333-2.044 0-.118-.047-.23-.13-.314-.083-.083-.196-.13-.313-.13-.118 0-.23.047-.314.13-.083.084-.13.196-.13.314v1.01c0 .118.047.23.13.314.083.083.196.13.314.13.117 0 .23-.047.313-.13.083-.083.13-.196.13-.314v-2.479c0-.117-.047-.23-.13-.313-.083-.083-.196-.13-.313-.13-.118 0-.23.047-.314.13-.083.083-.13.196-.13.313-.001.594-.052 1.188-.153 1.773l.872.118c-.07-.706-.102-1.415-.098-2.124-.001-.106-.04-.209-.111-.288-.07-.08-.167-.132-.273-.146-.105-.014-.212.01-.3.068-.09.058-.155.145-.185.248-.133.564-.295 1.12-.452 1.672l.81-.106-.062-.237c-.042-.564-.928-.567-.887 0 .01.24.073.474.183.686.172.36.707.233.81-.106.169-.556.32-1.112.452-1.673l-.871-.118c-.005.71.028 1.418.097 2.124.044.456.777.65.869.119.118-.668.18-1.344.186-2.022h-.886v2.48h.886v-1.011h-.886c.052 1.115-.336 2.206-1.08 3.038-.114.13-.239.253-.371.366-.21.201-.402.172-.57-.091-.42-.175-.855-.624-1.221-.887-.366-.263-.869.257-.609.606.68.904 1.693 1.912 2.955 1.478 1.327-.47 1.507-2.267 1.407-3.45-.033-.392-.62-.658-.825-.22l-.886 1.87c-.104.219-.296.52-.266.78.097.665.904.556 1.4.517 1.924-.145 1.62-2.872 1.398-4.243-.074-.456-.736-.385-.854 0-.094.27-.143.553-.145.839h.887c-.032-.508-.175-1.003-.417-1.451-.04-.066-.096-.12-.163-.159-.067-.038-.142-.058-.22-.058-.077 0-.152.02-.22.058-.066.038-.122.093-.162.159-.264.456-.443.957-.526 1.478l.886.118V87.3c0-.117-.046-.23-.13-.313-.083-.083-.195-.13-.313-.13-.117 0-.23.047-.313.13-.083.084-.13.196-.13.314-.003.998-.068 1.995-.195 2.985l.872-.119c-.1-.483-.27-.949-.506-1.383-.04-.066-.095-.12-.162-.158-.068-.038-.143-.058-.22-.058-.077 0-.153.02-.22.058-.067.038-.123.092-.163.158-.385.926-.94 1.772-1.634 2.494l.742.195-.13-.738c-.068-.393-.624-.405-.81-.107-.147.223-.246.473-.293.735-.046.262-.038.531.024.79.074.42.606.375.81.107.318-.424.604-.872.854-1.34l-.766-.448c-.204.441-.343.91-.413 1.392-.053.39.41.797.741.431.636-.695 1.096-1.532 1.342-2.44.11-.403-.446-.784-.742-.432-.543.651-1.037 1.343-1.477 2.068l.81.343.9-3.36c.024-.102.011-.21-.036-.303-.048-.094-.127-.168-.224-.209-.097-.04-.205-.046-.305-.015-.1.03-.187.096-.244.184L78.685 90.7c-.33.476.428.887.765.447l2.412-3.192c.342-.455-.426-.887-.766-.45h-.023zM118.771 98.17c3.546-2.17 6.365-5.405 9.497-8.112 3.398-2.934 6.964-5.668 10.637-8.257 7.133-5.023 14.624-9.518 22.108-14.001.097-.062.167-.158.194-.27.027-.111.01-.229-.048-.328-.057-.1-.151-.172-.262-.203-.11-.032-.229-.019-.33.035-7.484 4.483-14.978 8.97-22.111 14.002-3.366 2.364-6.651 4.87-9.801 7.53-3.428 2.896-6.48 6.5-10.342 8.838-.488.296-.042 1.064.446.766h.012z"/>
        <path fill="#6C63FF" d="M172.458 54.035c-3.842.39-7.978 1.368-10.342 4.728-2.042 2.89-1.998 7.932-.08 10.899 2.178 3.371 6.628 3.493 10.085 2.402 3.457-1.09 7.035-3.002 7.003-7.134-.018-2.216-.819-4.524-1.702-6.533-.762-1.735-2.113-3.251-4.158-3.059-.564.053-.57.94 0 .886 2.74-.254 3.62 3 4.27 5.054.591 1.918 1.138 4.187.21 6.093-.928 1.906-3.165 2.879-5.077 3.576-2.068.75-4.34 1.209-6.5.591-4.279-1.197-5.461-6.62-4.229-10.467 1.419-4.433 6.442-5.736 10.534-6.15.562-.056.568-.942 0-.886h-.014zM178.367 88.315c-3.841.39-7.978 1.368-10.342 4.728-2.041 2.89-1.997 7.931-.079 10.898 2.177 3.372 6.627 3.493 10.085 2.403 3.457-1.091 7.035-3.003 7.003-7.134-.018-2.216-.819-4.524-1.702-6.534-.763-1.734-2.113-3.25-4.158-3.058-.564.053-.57.94 0 .886 2.739-.254 3.62 3 4.27 5.054.591 1.917 1.138 4.187.21 6.093-.928 1.906-3.165 2.878-5.077 3.576-2.068.75-4.34 1.209-6.5.591-4.279-1.197-5.461-6.62-4.229-10.467 1.418-4.433 6.442-5.736 10.534-6.15.562-.056.568-.943 0-.886h-.015z"/>
        <path fill="#6C63FF" d="M166.663 62.667l2.798 3.191c.056.054.124.092.199.111.074.02.152.02.227 0 .074-.02.142-.06.197-.113.055-.054.095-.122.116-.196.591-1.554.479-3.165.618-4.799.153-1.689.577-3.342 1.256-4.896 1.363-3.153 3.674-5.802 6.613-7.58.487-.296.041-1.064-.447-.766-2.897 1.745-5.221 4.298-6.686 7.347-.718 1.483-1.216 3.063-1.478 4.69-.295 1.917-.027 3.927-.736 5.768l.742-.198-2.783-3.186c-.379-.428-1.002.201-.627.627h-.009zM120.198 101.624c15.241-.464 30.486-.563 45.735-.295.571 0 .571-.887 0-.887-15.245-.271-30.49-.173-45.735.296-.57.018-.573.904 0 .886zM169.119 92.883c5.21 2.045 10.222 4.564 14.972 7.524.485.295.931-.464.446-.766-4.813-2.997-9.891-5.545-15.17-7.612-.529-.21-.759.647-.234.854h-.014z"/>
        <path fill="#6C63FF" d="M178.58 88.867c-5.283 6.16-8.344 13.917-8.69 22.025-.024.57.863.57.886 0 .336-7.876 3.305-15.41 8.431-21.398.369-.432-.255-1.061-.627-.627zM60.4 98.406l33.027-.431 3.797-.05c.682 0 1.365-.024 2.048-.027.96 0 1.607.798 1.589 1.773-.044 2.069-1.344 1.995-3.046 2.069l-4.105.186-16.712.736c-2.994.133-5.99.295-8.983.399-2.7.082-7.836-.798-6.637-4.729.166-.546-.688-.78-.856-.236-.591 1.933.455 3.895 2.139 4.909 2.39 1.436 5.54.948 8.179.83l20.519-.931 4.981-.222c1.277-.059 3.053.201 4.226-.393 1.377-.694 1.619-3.451.75-4.612-.446-.592-1.072-.645-1.773-.671-1.838-.071-3.708.05-5.549.073l-10.23.137-23.375.295c-.57 0-.57.886 0 .886l.011.01z"/>
        <path fill="#323444" d="M193.836 207.008c-.745.467-1.596.73-2.364 1.141-.768.411-1.516 1.028-1.734 1.879-.082.264-.068.549.038.804.191.308.484.54.827.656 1.561.693 3.247 1.061 4.955 1.08 1.707.019 3.401-.31 4.977-.968.554-.266 1.127-.493 1.714-.679.722-.148 1.458-.223 2.195-.225.775-.045 1.546-.144 2.308-.295.383-.043.745-.194 1.046-.435.274-.316.439-.712.47-1.129.349-2.302-.178-4.652-1.478-6.584-.164-.271-.383-.503-.644-.682-.318-.165-.668-.259-1.025-.275-1.478-.18-3.026-.511-4.518-.547-1.07-.024-1.608.485-2.364 1.221-1.563 1.563-2.476 3.835-4.403 5.038zM215.61 206.789c0 1.448.175 2.982 1.052 4.138.402.499.888.924 1.436 1.255 1.856 1.183 4.315 1.617 6.271.615.316-.142.586-.369.78-.656.295-.514.139-1.155-.027-1.723l-2.831-9.811c-1.829.281-4.518.479-6.143 1.407-1.179.671-.538 3.481-.538 4.775z"/>
        <path fill="#FBB3B2" d="M192.175 146.377c-.171.541-.791.792-1.131 1.247-.399.535-.358 1.277-.213 1.927.179.959.629 1.846 1.297 2.556.339.352.758.618 1.22.775.463.158.956.202 1.44.13.951-.181 1.772-1.023 1.805-1.989-.017-.44-.111-.873-.278-1.28l-2.015-5.827c-.008-.041-.025-.08-.05-.115-.024-.034-.055-.062-.092-.083-.076-.017-.156-.003-.221.038-.476.225-1.431.461-1.708.955-.278.493.147 1.131-.054 1.666z"/>
        <path fill="#323444" d="M191.233 146.085c.736-.116 1.38-.547 2.068-.831.689-.283 1.552-.393 2.131.08.165.136.325.322.54.319-.293-1.445-.737-2.855-1.323-4.208-.021-.065-.061-.122-.116-.162-.08-.033-.17-.033-.251 0l-1.988.52c-.736.192-.822.133-.766.857.015.322.181 3.425-.295 3.425z"/>
        <path fill="#5B5583" d="M191.014 104.003c-.295.455-.295 1.023-.295 1.558 0 2.615.026 5.245.413 7.834.092.62.207 1.241.266 1.867.067.873.081 1.748.042 2.622l-.296 11.377c-.035 1.392-.106 2.887-.966 3.981-.261.366-.383.813-.346 1.261.225 2.855.698 5.686 1.167 8.508.757-.341 1.583-.498 2.412-.459.829.04 1.637.275 2.358.687 1.49-4.688 2.315-9.563 2.449-14.48.068-2.421-.035-4.856.337-7.246.624-4.025.369-8.154-.089-12.202-.144-1.283-.452-2.604-1.273-3.597-.778-.868-1.813-1.465-2.955-1.702-1.093-.286-2.071.009-3.224-.009z"/>
        <path fill="#000" d="M191.014 104.003c-.295.455-.295 1.023-.295 1.558 0 2.615.026 5.245.413 7.834.092.62.207 1.241.266 1.867.067.873.081 1.748.042 2.622l-.296 11.377c-.035 1.392-.106 2.887-.966 3.981-.261.366-.383.813-.346 1.261.225 2.855.698 5.686 1.167 8.508.757-.341 1.583-.498 2.412-.459.829.04 1.637.275 2.358.687 1.49-4.688 2.315-9.563 2.449-14.48.068-2.421-.035-4.856.337-7.246.624-4.025.369-8.154-.089-12.202-.144-1.283-.452-2.604-1.273-3.597-.778-.868-1.813-1.465-2.955-1.702-1.093-.286-2.071.009-3.224-.009z" opacity=".1"/>
        <path fill="#3C354C" d="M194.625 136.998c-1.982 10.156-.9 20.673 3.109 30.213.346.706.589 1.459.721 2.234.162 1.448-.506 2.84-.887 4.241-.886 3.186-.375 6.578.192 9.838.237 1.359.48 2.717.73 4.075.245 1.324.482 2.763-.133 3.963.529 2.204.842 4.388 1.371 6.593.056.174.073.359.05.54-.106.289-.294.54-.54.724-.395.4-.678.896-.823 1.438-.144.543-.145 1.113-.002 1.656 1.351-.969 3.233-.629 4.775 0 1.543.63 3.061 1.478 4.728 1.478-.242-1.956-.476-4.01.245-5.845.42-1.064 1.159-2.069 1.138-3.207-.021-1.019-.644-1.929-.795-2.937-.056-.627-.032-1.259.071-1.88.396-3.617-.053-7.269-.502-10.88-.051-.713-.219-1.411-.497-2.069-.21-.426-.523-.833-.517-1.309 0-.553.446-1.002.612-1.528.295-.969-.248-2.287.57-2.887 2.157-1.584 1.33-5.367 1.282-8.041-.037-2.307-.135-4.612-.295-6.915 1.358 3.819 1.913 7.877 1.631 11.921-.094 1.324-.269 2.716.248 3.939.396.94 1.182 1.714 1.395 2.71.133.615.038 1.25.068 1.877.029.626.242 1.309.783 1.625.041 2.849.295 5.895.34 8.744-.029 1.456.09 2.912.354 4.344.133.456.206.927.219 1.401-.067.595-.224 1.176-.467 1.723-.515 1.525-.649 3.153-.392 4.741.258 1.589.899 3.091 1.87 4.375.697-1.238 2.151-1.894 3.569-1.997 1.418-.104 2.819.254 4.193.614-.21-1.726.133-3.475.981-4.994.227-.342.402-.717.517-1.111.16-.751-.213-1.498-.414-2.24-.328-1.182-.212-2.456-.135-3.691.257-4.137.074-8.29-.547-12.388-.096-.807-.285-1.6-.564-2.364-.107-.272-.237-.532-.326-.807-.139-.493-.218-1.001-.236-1.513l-.34-4.728c-.239-3.313.848-6.584 1.608-9.817.34-1.448.709-2.893.936-4.365.311-2.003.361-4.051.816-6.028.408-1.773 1.143-3.502 1.297-5.32.237-2.816-.934-5.537-2.068-8.12-.473-1.064-2.261-.958-3.41-1.147-8.153-1.339-16.739-1.347-24.428 1.67-.795.329-1.511.824-2.101 1.451z"/>
        <path fill="#FBB3B2" d="M200.502 84.547l.904 3.516c.246.807.382 1.643.405 2.486.01.307-.058.612-.198.886-.149.225-.339.42-.561.573-.618.47-1.046 1.567-1.752 1.892.363.632.865.221 1.521.537 1.156.562 2.214 1.369 3.466 1.647 1.182.26 2.423.014 3.596-.296 1.664-.452 3.319-1.076 4.657-2.166 1.339-1.09 2.101-2.054 2.095-3.777-1.477.175-2.792-1.318-3.445-2.66-.226-.51-.393-1.044-.496-1.592l-.792-3.484c-.863.189-1.566.806-2.391 1.129-.824.322-1.799.351-2.715.392-1.626.075-3.243.284-4.834.627-.219.044-.494.183-.441.396"/>
        <path fill="#000" d="M200.502 84.547l.904 3.516c.246.807.382 1.643.405 2.486.01.307-.058.612-.198.886-.149.225-.339.42-.561.573-.618.47-1.046 1.567-1.752 1.892.363.632.865.221 1.521.537 1.156.562 2.214 1.369 3.466 1.647 1.182.26 2.423.014 3.596-.296 1.664-.452 3.319-1.076 4.657-2.166 1.339-1.09 2.101-2.054 2.095-3.777-1.477.175-2.792-1.318-3.445-2.66-.226-.51-.393-1.044-.496-1.592l-.792-3.484c-.863.189-1.566.806-2.391 1.129-.824.322-1.799.351-2.715.392-1.626.075-3.243.284-4.834.627-.219.044-.494.183-.441.396" opacity=".1"/>
        <path fill="#FBB3B2" d="M204.385 86.485c4.321 0 7.824-3.503 7.824-7.825s-3.503-7.825-7.824-7.825-7.825 3.503-7.825 7.825 3.504 7.825 7.825 7.825z"/>
        <path fill="#323444" d="M206.539 91.56c.418-.904 1.023-1.71 1.773-2.365 1.102-.966 2.609-1.75 2.869-3.191l2.388 2.78c.129.13.23.285.295.456.03.16.026.325-.013.483-.039.159-.111.307-.211.436-.591.942-1.522 1.616-2.403 2.299-2.018 1.599-3.95 3.303-5.788 5.106-.081.094-.19.16-.311.19-.114.002-.226-.03-.322-.092-1.586-.833-2.989-1.974-4.128-3.357-.085-.104-.192-.222-.331-.213-.083.015-.16.055-.221.115-.795.65-1.664 1.428-2.683 1.327 1.321-.949 2.068-2.533 2.346-4.137.055-.55.168-1.091.337-1.617.087-.263.238-.5.439-.69.201-.191.446-.33.713-.403-.644.984-.204 2.379.662 3.174.841.714 1.85 1.203 2.931 1.421 1.005.19 1.3-.948 1.658-1.723zM196.36 137.802c1.114.274 2.168.741 3.25 1.087 1.971.617 4.045.835 6.102.641.633-.014 1.248-.209 1.773-.564.138-.112.266-.245.413-.349.247-.148.515-.259.795-.328 2.71-.848 4.979-2.677 7.18-4.468.071-.059.151-.133.145-.228-.01-.064-.041-.123-.088-.168l-1.159-1.33c-3.037.517-6.149.322-9.231.245-.632-.028-1.266-.011-1.897.051-.608.071-1.208.224-1.808.354-2.278.497-4.607.686-6.914 1.011-.162.012-.319.06-.458.142-.098.075-.181.167-.246.272l-.809 1.137c-.315.383-.546.827-.68 1.304-.189.886.207 1.182.96 1.067.89-.131 1.797-.089 2.672.124z"/>
        <path fill="#5B5583" d="M205.416 96.21c-.904-.926-1.928-1.726-3.046-2.378-.452-.287-.953-.487-1.478-.591-.264-.052-.536-.046-.797.018-.262.065-.506.185-.716.354-.263.234-.428.559-.682.804-.32.269-.687.476-1.082.612-1.345.575-2.62 1.301-3.8 2.166-.643.45-1.222.985-1.722 1.59-1.339 1.714-1.54 4.045-1.504 6.22.026 1.513 1.477 2.636 2.476 3.768.937 1.114 1.784 2.3 2.535 3.546.538.851 1.099 1.773 1.031 2.787-.056.83-.54 1.61-.464 2.438.027.295.122.567.148.854.053.591-.18 1.182-.239 1.773-.08.836.192 1.667.207 2.509-.011.577-.084 1.15-.219 1.711-.567 2.701-1.279 5.417-1.135 8.174l-1.637.295c.155.152.273.339.342.544.07.206.09.425.059.64-.03.215-.111.42-.236.598-.125.178-.289.324-.481.426 2.556.854 5.319.423 8.029.42 2.242 0 4.476.295 6.716.254 2.24-.042 4.55-.447 6.397-1.714.503-.343.964-.745 1.492-1.043.709-.368 1.472-.617 2.261-.739 1.461-.279 2.945-.411 4.432-.396.727 0 1.519.029 2.098-.408.638-.485.801-1.362.887-2.157.085-.84.139-1.682.153-2.524.025-.656-.01-1.313-.103-1.962-.089-.475-.204-.945-.346-1.407l-1.114-3.924c-.461-1.62.18-3.396.316-5.074.033-.396.039-.857-.266-1.111-.109-.092-.26-.154-.295-.296-.016-.067-.018-.137-.006-.205.012-.068.039-.133.077-.191.591-1.182 1.477-2.225 2.287-3.292 1.36-1.871 2.622-3.811 3.782-5.813-.363-4.188-2.126-8.131-5.005-11.194-.591-.641-1.268-1.256-2.095-1.545-.541-.165-1.102-.256-1.667-.27-2.317-.156-4.728-.295-6.746-1.46-.145-.1-.309-.169-.482-.203-.446-.05-.771.39-1.06.739-.745.886-1.841 1.395-2.805 2.048-1.796 1.22-3.2 2.899-4.497 4.61z"/>
        <path fill="#5B5583" d="M229.974 104.695c.461 1.46.417 3.02.567 4.542.09.918.251 1.828.482 2.722.106.491.296.959.561 1.386.266.39.648.706.816 1.146.092.298.133.61.121.922l.036 2.039c.075 1.081-.089 2.165-.482 3.174l-1.274 3.874c-.688 2.098-1.394 4.229-2.635 6.055-.175.309-.44.558-.76.712-.25.067-.506.106-.765.119-.451.08-.859.315-1.155.664-.296.349-.461.79-.467 1.248-.296-.432-.665-.81-1.091-1.114l-2.591-2.069c-.886-.721-1.811-1.454-2.887-1.871 1.447-.451 2.731-1.314 3.697-2.481.966-1.168 1.573-2.591 1.746-4.097-.001-.448.1-.891.295-1.294.216-.349.615-.615.645-1.026.035-.517-.55-.907-.55-1.424 0-.343.254-.626.366-.949.105-.398.105-.816 0-1.214l-.357-1.986c-.021-.199-.081-.392-.177-.567-.134-.169-.283-.325-.444-.467-.614-.689-.342-1.773 0-2.622.787-1.882 1.802-3.661 3.02-5.298.434-.55.836-1.124 1.203-1.72.313-.544.384-1.297.715-1.773.425 1.117 1.002 2.219 1.365 3.369z"/>
        <path fill="#323444" d="M218.359 128.366c-.132.097-.246.217-.337.354-.348.437-.812.768-1.339.955.296.212.564.422.842.638 2.055 1.587 3.937 3.387 5.614 5.37.187-.665 1.301-.618 1.572-1.253.064-.182.085-.377.06-.568-.057-.995-.199-1.984-.426-2.955-.089-.5-.292-.973-.591-1.383-.414-.499-1.058-.739-1.672-.946-.931-.325-2.778-.783-3.723-.212z"/>
        <path fill="#FBB3B2" d="M214.665 130.688c-.887.656-1.664 1.478-2.659 1.927-.704.319-1.504.458-2.119.934.334.736 1.203 1.117 2.009 1.087.808-.079 1.582-.363 2.249-.824.529-.325 1.149-.703 1.725-.476.089.449-.295.872-.295 1.327 0 .455.378.786.751 1.025 1.772 1.144 4.054 1.05 6.166.917.122.004.241-.031.34-.101.046-.053.081-.115.103-.182.021-.067.03-.138.024-.208.027-.467.039-.931.042-1.398.059-.376.01-.762-.141-1.112-.152-.349-.401-.648-.716-.862-1.147-.985-2.383-1.861-3.694-2.615-1.3-.754-2.618-.307-3.785.561z"/>
        <path fill="#3C354C" d="M207.133 75.389c-1.312.156-2.266 1.182-2.133 2.296.133 1.114 1.303 1.882 2.615 1.723 1.312-.16 2.266-1.182 2.133-2.294-.133-1.11-1.303-1.882-2.615-1.725zm.446 3.711c-1.111.133-2.101-.52-2.216-1.46-.115-.94.697-1.808 1.805-1.941 1.109-.133 2.101.52 2.217 1.46.115.94-.698 1.808-1.806 1.941zM200.739 76.157c-1.312.157-2.267 1.182-2.134 2.293.133 1.111 1.303 1.883 2.615 1.726 1.312-.157 2.267-1.182 2.134-2.296-.133-1.114-1.303-1.88-2.615-1.723zm.446 3.709c-1.111.133-2.101-.52-2.213-1.457-.113-.937.694-1.809 1.805-1.945 1.111-.136 2.101.52 2.213 1.46.113.94-.697 1.809-1.805 1.942z"/>
        <path fill="#3C354C" d="M195.99 76.728l2.852.608-.281.75-2.689-.788.118-.57zM211.884 74.818l-2.629 1.268.452.662 2.426-1.404-.249-.526zM203.091 77.147l2-.24-.103.497-1.717.115-.18-.372z"/>
        <path fill="#CBCEDA" d="M199.211 76.476c.188-.405.289-.845.295-1.291.007-.267.053-.532.136-.786.146-.323.367-.606.645-.825.921-.78 2.242-1.182 3.545-1.238 1.421-.065 2.835.24 4.102.887.387.181.733.438 1.019.756.414.505.503 1.159.919 1.658.284.303.642.528 1.039.652.396.124.818.144 1.225.057.144-.514-.045-1.058.029-1.584.117-.45.274-.89.47-1.312.458-1.35-.21-2.916-1.587-3.723-.481-.296-1.052-.488-1.412-.887-.361-.399-.446-.813-.695-1.211-.659-1.055-2.364-1.549-3.661-1.061-.408.153-.768.387-1.182.552-.768.316-1.643.373-2.488.479-.833.077-1.647.29-2.411.632-.73.36-1.341.94-1.51 1.632-.08.319-.062.65-.142.966-.407 1.605-3.04 2.385-3.188 4.022-.053.591.269 1.158.671 1.64.278.328.942 1.206 1.412 1.333s.828-.32 1.277-.473c.709-.222 1.137-.269 1.492-.875z"/>
        <path fill="#46455B" d="M232.545 180.559c0 14.847 9.314 26.863 20.823 26.863l-20.823-26.863z"/>
        <path fill="#6C63FF" d="M253.368 207.425c0-15.015 10.395-27.164 23.24-27.164l-23.24 27.164zM240.091 181.907c0 14.105 5.94 25.518 13.277 25.518l-13.277-25.518z"/>
        <path fill="#46455B" d="M253.368 207.425c0-19.185 12.014-34.711 26.86-34.711l-26.86 34.711z"/>
        <path fill="#6C63FF" d="M252.467 212.555c2.859 0 5.176-.392 5.176-.875s-2.317-.875-5.176-.875c-2.86 0-5.177.392-5.177.875s2.317.875 5.177.875z" opacity=".1"/>
        <path fill="#A8A8A8" d="M248.989 207.614s2.955-.092 3.841-.724c.886-.633 4.542-1.392 4.763-.376.222 1.017 4.432 5.057 1.102 5.083-3.33.027-7.747-.52-8.634-1.061-.886-.54-1.072-2.922-1.072-2.922z"/>
        <path fill="#000" d="M258.757 211.243c-3.333.026-7.744-.52-8.634-1.061-.676-.411-.945-1.891-1.037-2.571h-.097s.186 2.382 1.075 2.922c.89.541 5.301 1.088 8.634 1.061.964 0 1.295-.351 1.277-.857-.133.308-.485.5-1.218.506z" opacity=".2"/>
        <path fill="#46455B" d="M6.646 189.236c0 11.82 7.407 21.371 16.565 21.371L6.646 189.236z"/>
        <path fill="#6C63FF" d="M23.21 210.607c0-11.944 8.274-21.611 18.489-21.611L23.21 210.607zM12.647 190.311c0 11.23 4.728 20.302 10.563 20.302l-10.563-20.302z"/>
        <path fill="#46455B" d="M23.21 210.607c0-15.263 9.56-27.616 21.37-27.616l-21.37 27.616z"/>
        <path fill="#6C63FF" d="M22.492 214.691c2.275 0 4.12-.312 4.12-.697 0-.385-1.845-.698-4.12-.698-2.274 0-4.119.313-4.119.698 0 .385 1.845.697 4.12.697z" opacity=".1"/>
        <path fill="#A8A8A8" d="M19.727 210.758s2.349-.074 3.055-.591 3.617-1.108 3.791-.296c.174.813 3.531 4.022.887 4.043-2.645.021-6.164-.414-6.87-.842-.707-.429-.863-2.314-.863-2.314z"/>
        <path fill="#000" d="M27.498 213.657c-2.66.021-6.164-.414-6.87-.845-.538-.325-.75-1.504-.825-2.045h-.076s.147 1.894.854 2.326c.706.431 4.22.862 6.87.842.765 0 1.03-.278 1.016-.683-.106.237-.399.387-.969.405z" opacity=".2"/>
    </g>
    <defs>
        <clipPath id="clip0">
            <path fill="#fff" d="M0 0H280.23V224H0z"/>
        </clipPath>
    </defs>
</svg>
