<svg xmlns="http://www.w3.org/2000/svg" width="303" height="224" fill="none" viewBox="0 0 303 224">
    <g clip-path="url(#clip0)">
        <path fill="#6C63FF" d="M19.821 87.796h26.32v35.911H21.747c-.063.371-.125.74-.195 1.111h24.59v28.955c-.04 0-.082-.031-.121-.046-.692-.275-1.383-.567-2.075-.875-.148-.068-.293-.138-.444-.203-.691-.327-1.383-.673-2.075-1.038-.24-.127-.482-.26-.718-.395-3.84-2.144-7.33-4.863-10.349-8.063-.09-.085-.174-.179-.26-.259-.42-.457-.832-.919-1.231-1.392-.15-.174-.296-.35-.444-.519-.472-.576-.928-1.173-1.37-1.773-.067-.091-.129-.179-.194-.26-1.806-2.501-3.304-5.212-4.46-8.073-.037-.086-.07-.179-.105-.26-.358-.908-.682-1.83-.962-2.77-.12-.392-.236-.779-.334-1.186-.037-.117-.065-.236-.096-.353-1.458-5.75-1.627-11.726-1.627-17.674v-2.076c.021-2.429.05-4.854.086-7.277.014-.623.027-1.249.039-1.877.036-1.59.088-3.184.155-4.782.016-.441.037-.885.06-1.324.01-.254.023-.508.039-.763.047-.919.102-1.832.166-2.739zM46.142 47.813h-14.44c2.349-3.675 4.913-7.206 7.68-10.576 2.148-2.638 4.41-5.208 6.76-7.684v18.26zM46.142 48.919v37.766H19.904c0-.109.016-.22.026-.33.023-.298.047-.594.073-.893.026-.347.06-.695.093-1.038.034-.343.067-.758.109-1.134.041-.377.075-.758.117-1.135.041-.376.083-.753.13-1.127.046-.373.087-.752.14-1.126.038-.31.077-.62.121-.932.06-.439.122-.878.187-1.314 0-.067.02-.132.031-.197.474-3.192 1.118-6.357 1.93-9.48.852-3.277 1.94-6.487 3.255-9.606 1.397-3.268 3.034-6.428 4.897-9.454h15.129zM52.429 87.796v35.911h56.221v-35.91H52.429zm0 37.022v30.84c.322.065.638.13.957.184.428.083.858.159 1.297.223l.26.037c.17.028.344.052.518.073.433.062.866.109 1.297.15.202.021.412.036.617.055l.5.036c.273.021.543.036.813.047.165 0 .331.013.5.018.169.005.26 0 .394 0h1.442c.223 0 .447 0 .667-.021h.013c.156 0 .309 0 .464-.018.044.002.088.002.133 0 .13 0 .259 0 .383-.016.03-.002.06-.002.089 0 .287-.018.578-.041.871-.067.293-.026.57-.057.864-.088l.589-.073c2.405-.337 4.785-.844 7.12-1.516 5.246-1.464 10.374-3.513 15.618-5.01 6.775-1.934 14.266-2.887 20.812-.533v-24.321H52.429zm56.221-77.005V.005c-6.155-.068-12.293.652-18.265 2.142-14.237 3.58-27.021 11.344-37.956 21.26V47.81h2.83v1.109h-2.83v37.766h56.221V48.92H66.834v-1.111l41.816.005zm72.229-16.15c-3.522-.124-7.024-1.238-10.193-2.964-6.054-3.295-10.894-8.388-16.299-12.682-11.231-8.948-25.159-14.35-39.448-15.69v47.486h80.252l.2-.21-14.512-15.94zm7.312-1.298l7.752 8.518V28.125c-2.609.33-4.881 1.095-7.752 2.23v.01zm7.752 132.951v-38.498h-16.532c-.042-.164-.088-.33-.14-.496.049.166.093.332.137.496h-64.469v27.839c.613.454 1.217.935 1.816 1.417.647.53 1.289 1.066 1.927 1.607l.643.532c.309.26.623.52.934.766.624.504 1.253 1.002 1.886 1.496.316.249.634.494.954.734 5.066 3.875 10.41 7.373 15.988 10.465 1.25.698 2.513 1.37 3.784 2.027.845.436 1.697.864 2.555 1.283 1.286.628 2.583 1.233 3.89 1.817 12.052 5.414 24.796 9.129 37.868 11.038 2.902.427 5.816.765 8.744 1.012v-23.54h.259l-.244.005zM114.939 48.919v37.766h81.004V48.92h-81.004zm0 38.872v35.916h81.004v-35.91l-81.004-.006zm87.291-59.718v12.02l9.893-10.87c-3.279-.542-6.576-.925-9.893-1.15zm0 59.723v35.911h78.784v-35.91H202.23zm78.506 78.368l.278-41.346H202.23v62.451c5.075.211 10.157.15 15.225-.184h.088c2.421-.156 4.831-.377 7.229-.665h.054c12.799-1.491 25.313-4.836 37.15-9.932l18.76-10.324zm15.477-72.47c-.3-.692-.606-1.384-.921-2.076-.586-1.298-1.204-2.56-1.842-3.82h-6.147v35.909h15.539c-.013-10.172-2.586-20.556-6.629-30.013zm-8.91 31.124v35.565c4.376-4.198 8.077-9.003 10.738-14.496 3.203-6.618 4.669-13.777 4.791-21.072l-15.529.003zm0-47.486v9.345h5.572c-1.689-3.212-3.549-6.332-5.572-9.345zm-53.43-42.211c-.41-.158-.822-.317-1.234-.467-4.349-1.609-8.792-2.946-13.306-4.003l-15.142 16.63-.296.319.195.21h53.892c-7.507-5.17-15.599-9.429-24.109-12.689zm25.691 13.798h-56.229l-1.105 1.01v36.756h78.784V68.877c-6.248-7.563-13.46-14.272-21.45-19.958z" opacity=".1"/>
        <path fill="#6C63FF" d="M46.142 67.97v18.715H19.904c0-.109.016-.22.026-.33.023-.298.047-.594.073-.892.026-.348.06-.696.093-1.039.034-.343.067-.758.109-1.134.041-.377.075-.758.117-1.135.041-.376.083-.753.13-1.127.046-.373.087-.752.14-1.126.038-.31.077-.62.121-.932.06-.439.122-.877.187-1.314 0-.067.02-.132.031-.197.474-3.192 1.118-6.357 1.93-9.48l23.28-.008zM19.821 87.796h26.32v35.911H21.747c-.063.371-.125.74-.195 1.111h24.59v28.955c-.04 0-.082-.031-.121-.046-.692-.275-1.383-.567-2.075-.875-.148-.068-.293-.138-.444-.203-.691-.327-1.383-.673-2.075-1.038-.24-.127-.482-.26-.718-.395-3.84-2.144-7.33-4.863-10.349-8.063-.09-.085-.174-.179-.26-.259-.42-.457-.832-.919-1.231-1.392-.15-.174-.296-.35-.444-.519-.472-.576-.928-1.173-1.37-1.773-.067-.091-.129-.179-.194-.26-1.806-2.501-3.304-5.212-4.46-8.073-.037-.086-.07-.179-.105-.26-.358-.908-.682-1.83-.962-2.77-.12-.392-.236-.779-.334-1.186-.037-.117-.065-.236-.096-.353-1.458-5.75-1.627-11.726-1.627-17.674v-2.076c.021-2.429.05-4.854.086-7.277.014-.623.027-1.249.039-1.877.036-1.59.088-3.184.155-4.782.016-.441.037-.885.06-1.324.01-.254.023-.508.039-.763.047-.919.102-1.832.166-2.739zM72.219 54.329v32.356H52.426V54.33h2.822V43.374h11.584v10.955h5.387zM72.216 87.794h-19.79v35.91h19.79v-35.91zM52.429 124.818h19.79v29.853c-2.335.673-4.714 1.179-7.12 1.514-.197.028-.392.052-.589.073-.29.033-.578.065-.866.09l-.869.071h-.088l-.384.02h-.132c-.156 0-.309.019-.465.021h-.012c-.224 0-.444.016-.667.021H59.191c-.169 0-.335 0-.504-.021-.266-.01-.536-.026-.809-.047l-.5-.036c-.208-.016-.415-.036-.62-.057-.436-.038-.868-.087-1.297-.148l-.519-.073-.26-.036c-.432-.065-.863-.138-1.296-.221-.322-.057-.638-.122-.957-.189v-30.835zM195.941 50.508h-16.32v36.175h16.32V50.508zM195.943 87.794v35.913h-81.004v-15.491h43.147v9.138h21.535v-29.56h16.322zM196.2 163.324c-.086 0-.171 0-.26-.016v23.559c-2.923-.241-5.837-.577-8.74-1.01-13.077-1.908-25.826-5.621-37.884-11.033-3.48-1.571-6.89-3.284-10.229-5.137-5.576-3.094-10.919-6.591-15.985-10.465-1.276-.976-2.533-1.974-3.771-2.993-.859-.711-1.71-1.438-2.576-2.142-.596-.485-1.201-.965-1.816-1.422v-27.847h64.469c-.046-.167-.088-.33-.135-.496.05.166.096.329.138.496h16.532v38.488c.086.002.171.01.257.018zM238.506 47.813h-10.635v-3.307h4.765v-9.852c.413.152.825.308 1.235.467v9.385h4.632l.003 3.307zM264.129 86.685h-52.211.015-9.703V50.51h2.744v26.739h12.538V61.413h10.362V48.92h10.634V61.42h10.357v15.836h15.266l-.002 9.428zM202.23 87.796v35.911h61.901v-35.91H202.23zm78.695 78.179l.089-28.426h-16.883v-12.721H202.23v62.441c5.075.212 10.157.15 15.225-.184h.088c2.421-.156 4.831-.377 7.229-.664h.054c12.799-1.492 25.313-4.837 37.15-9.933M288.393 124.818h14.439c-.125 7.292-1.588 14.454-4.791 21.069-2.661 5.495-6.362 10.301-10.738 14.498v-22.844h1.09v-12.723zM302.842 123.707h-14.449V93.694h7.82c4.043 9.458 6.616 19.841 6.629 30.013z" opacity=".1"/>
        <path fill="#6C63FF" d="M195.943 60.565H187.2v11.341h8.743V60.564zM195.943 84.074H187.2v2.611h8.743v-2.611zM195.943 87.794H187.2v7.619h8.743v-7.62zM195.943 107.583H187.2v11.342h8.743v-11.342zM195.943 131.092H187.2v11.342h8.743v-11.342zM195.943 163.306c.086 0 .171 0 .259.018-.085 0-.171 0-.259-.016v2.635H187.2v-11.342h8.743v8.705zM195.943 178.108v8.759c-2.926-.241-5.84-.577-8.743-1.01v-7.749h8.743zM152.411 122.873h-37.472v.834h37.472v-.834zM152.411 124.815h-37.472v3.193h37.472v-3.193zM152.411 138.475h-37.472v5.135h37.472v-5.135zM152.411 154.077v5.135h-29.309c-1.276-.973-2.533-1.971-3.771-2.996-.862-.708-1.712-1.435-2.576-2.139h35.656zM152.411 169.676v5.148h-3.095c-3.48-1.571-6.89-3.284-10.229-5.137l13.324-.011zM224.832 91.275h-7.377v7.383h7.377v-7.383zM65.117 56.876h-7.376v7.383h7.376v-7.383zM65.117 74.025h-7.376v7.383h7.376v-7.383zM65.117 91.174h-7.376v7.383h7.376v-7.383zM65.117 108.32h-7.376v7.383h7.376v-7.383zM65.117 125.469h-7.376v7.383h7.376v-7.383zM65.117 142.618h-7.376v7.383h7.376v-7.383zM252.991 91.275h-7.376v7.383h7.376v-7.383zM224.832 109.486h-7.377v7.383h7.377v-7.383zM252.991 109.486h-7.376v7.383h7.376v-7.383zM224.832 127.694h-7.377v7.383h7.377v-7.383zM252.991 127.694h-7.376v7.383h7.376v-7.383zM224.832 145.905h-7.377v7.383h7.377v-7.383zM252.991 145.905h-7.376v7.383h7.376v-7.383zM224.832 164.116h-7.377v7.383h7.377v-7.383zM252.991 164.116h-7.376v7.383h7.376v-7.383zM217.455 187.085v-4.761h7.374v4.083l-7.374.678zM20.9 77.451v4.224h25.242V77.45H20.9zm2.513 3.959h-2.075v-3.691h2.075v3.691zm2.514 0h-2.075v-3.691h2.075v3.691zm2.508 0H26.36v-3.691h2.075v3.691zm2.513 0h-2.075v-3.691h2.075v3.691zm2.51 0h-2.074v-3.691h2.075v3.691zm2.514 0h-2.075v-3.691h2.075v3.691zm2.513 0H36.41v-3.691h2.075v3.691zm2.51 0h-2.074v-3.691h2.075v3.691zm2.512 0h-2.075v-3.691h2.075v3.691zm2.513 0h-2.075v-3.691h2.075v3.691zM20.9 89.746v4.224h25.242v-4.224H20.9zm2.513 3.959h-2.075v-3.692h2.075v3.692zm2.514 0h-2.075v-3.692h2.075v3.692zm2.508 0H26.36v-3.692h2.075v3.692zm2.513 0h-2.075v-3.692h2.075v3.692zm2.51 0h-2.074v-3.692h2.075v3.692zm2.514 0h-2.075v-3.692h2.075v3.692zm2.513 0H36.41v-3.692h2.075v3.692zm2.51 0h-2.074v-3.692h2.075v3.692zm2.512 0h-2.075v-3.692h2.075v3.692zm2.513 0h-2.075v-3.692h2.075v3.692zM20.9 102.043v4.221h25.242v-4.221H20.9zm2.513 3.954h-2.075v-3.692h2.075v3.692zm2.514 0h-2.075v-3.692h2.075v3.692zm2.508 0H26.36v-3.692h2.075v3.692zm2.513 0h-2.075v-3.692h2.075v3.692zm2.51 0h-2.074v-3.692h2.075v3.692zm2.514 0h-2.075v-3.692h2.075v3.692zm2.513 0H36.41v-3.692h2.075v3.692zm2.51 0h-2.074v-3.692h2.075v3.692zm2.512 0h-2.075v-3.692h2.075v3.692zm2.513 0h-2.075v-3.692h2.075v3.692zM20.9 114.338v4.221h25.242v-4.221H20.9zm2.513 3.956h-2.075v-3.697h2.075v3.697zm2.514 0h-2.075v-3.697h2.075v3.697zm2.508 0H26.36v-3.697h2.075v3.697zm2.513 0h-2.075v-3.697h2.075v3.697zm2.51 0h-2.074v-3.697h2.075v3.697zm2.514 0h-2.075v-3.697h2.075v3.697zm2.513 0H36.41v-3.697h2.075v3.697zm2.51 0h-2.074v-3.697h2.075v3.697zm2.512 0h-2.075v-3.697h2.075v3.697zm2.513 0h-2.075v-3.697h2.075v3.697zM21.022 126.627c.098.4.215.795.335 1.187v-.919h2.074v3.688H22.32c.03.089.065.18.1.26h23.733v-4.216h-25.13zm4.928 3.956h-2.075v-3.688h2.075v3.688zm2.508 0h-2.075v-3.688h2.075v3.688zm2.513 0h-2.075v-3.688h2.075v3.688zm2.511 0h-2.075v-3.688h2.075v3.688zm2.513 0H33.92v-3.688h2.075v3.688zm2.514 0h-2.075v-3.688h2.075v3.688zm2.51 0h-2.075v-3.688h2.075v3.688zm2.51 0h-2.074v-3.688h2.075v3.688zm2.514 0h-2.075v-3.688h2.075v3.688zM26.868 138.922c.068.083.13.176.195.259h1.372v1.773l.443.519v-2.302h2.075v3.722H30.1c.083.086.163.177.26.26h15.777v-4.231H26.868zm6.604 3.971h-2.075v-3.707h2.075v3.707zm2.513 0H33.91v-3.707h2.075v3.707zm2.513 0h-2.075v-3.707h2.075v3.707zm2.51 0h-2.074v-3.707h2.075v3.707zm2.512 0h-2.075v-3.707h2.075v3.707zm2.513 0h-2.075v-3.707h2.075v3.707zM40.716 151.216c.238.135.48.26.72.392v-.129h2.076v1.17c.15.065.293.135.44.203v-1.373h2.076v2.248c.04.017.08.032.122.044v-2.555h-5.434zM195.94 163.306h.26-.26zm-16.669-38.984c.049.166.093.332.137.496-.039-.164-.085-.33-.137-.496zM55.259 47.812v1.107h11.586v-1.111l-11.586.005zm140.684 115.494h.259-.259zm-16.672-38.984c.049.166.093.332.137.496-.039-.164-.085-.33-.137-.496zm16.669 38.984h.26-.26zm-16.669-38.984c.049.166.093.332.137.496-.039-.164-.085-.33-.137-.496zM228.097 224c13.958 0 25.273-1.819 25.273-4.063 0-2.244-11.315-4.062-25.273-4.062s-25.273 1.818-25.273 4.062S214.139 224 228.097 224zM114.115 219.937c13.958 0 25.273-1.819 25.273-4.063 0-2.243-11.315-4.062-25.273-4.062s-25.273 1.819-25.273 4.062c0 2.244 11.315 4.063 25.273 4.063z" opacity=".1"/>
        <path fill="url(#paint0_linear)" d="M143.211 108.447c-.007-.025-.02-.049-.039-.067-.387-.382-5.315-7.357-5.315-7.357s-.259-.779-.679-1.791c.134-.175.236-.373.298-.585.023-.09.039-.18.049-.272 0-.029.021-.052.029-.08.09-.353.081-.723-.026-1.07-.029.089-.064.176-.106.26-.098-.303-.228-.594-.389-.868-.654-1.126-1.588-2.076-2.275-3.174-1.041-1.707-1.455-3.723-1.17-5.701v.306c.026-.392.078-.783.156-1.168.108-.439.253-.868.433-1.282.617-1.415 1.616-2.648 2.223-4.068.203-.48.358-.978.461-1.488.214-.852.292-1.733.231-2.609 0 .208-.034.415-.065.62-.065-2.107-.915-4.113-2.383-5.625-2.119-2.131-5.162-2.96-8.072-3.395-1.223-.143-2.391-.59-3.398-1.299-1.117-.724-2.562-.898-3.869-.74-1.503.163-2.899.854-3.94 1.95-1.383 1.522-1.982 3.676-3.595 4.959-.978.778-2.218 1.142-3.356 1.671-1.139.53-2.215 1.298-2.581 2.435v-.023.065l-.016.041c-.378 1.345.353 2.713.734 4.055.397 1.39.423 2.856.444 4.292.029 1.755.054 3.512.026 5.27-.013.69-.036 1.388-.088 2.076-.614.186-1.21.426-1.782.717-.581.379-2.755 2.728-2.755 2.728l-4.25 16.256.056.065-.057.221.216-.05c.601.649 2.399 2.498 4.339 3.65l.181 3.188s.218 3.199 3.157 4.52c.067 1.108.277 5.61-.695 7.393-.674 1.303-.991 2.761-.918 4.227 0 0 .339 2.705-.047 4.127-.226.951-.243 1.939-.049 2.897v.854c0 2.879.033 12.105 0 13.149-.05 1.233 0 19.47 0 19.47s-.242 9.114-1.014 11.583c-.773 2.469-.579 10.644-.579 10.644s-.485 9.737 1.23 11.658c0 .086-.016.174-.019.26v.122c-.02.74.122 1.526.758 1.768 1.297.498 3.011 1.994 3.335 2.422.324.428 2.21 1.495 4.669 1.21 1.54-.174 3.09-.245 4.64-.213 0 0 .97-.177.656-1.384-.202-.753-.959-1.911-1.499-2.671.099.026.195.047.285.065l.094.018h.072c.04.002.08.002.12 0h.052c.048.004.096.004.145 0 .651-.062 3.079 1.069 3.512 1.817.433.748 1.96 1.316 3.112 1.459.685.083 2.412-.057 3.862-.244.73-.075 1.453-.207 2.163-.395.343-.129.415-.545.317-1.012-.117-.593-.434-1.129-.898-1.516-.42-.299-.975-1.085-1.385-1.729l-.109-.174c.724-.69 2.031-2.949 2.428-3.416.482-.569-.778-21.36-.778-21.36v-10.423l1.932-9.865 1.351-5.22 1.16-7.882s2.028-9.205 1.403-10.108c0-.019-.519-9.497-1.063-11.773-.236-1.015-.177-3.3-.037-5.522.147-.145.249-.33.295-.531.046-.201.033-.411-.035-.606-.039-.133-.089-.262-.151-.387v-.119c1.121-.516 2.291-.915 3.494-1.189 1.932-.379 1.45-1.376 1.45-1.376s.436-.854.723-1.376c.288-.522.05-5.127 0-5.506-.018-.153-.137-.999-.274-1.96.619-.441 1.426-.989 2.305-1.508 1.673-.992 1.297-2.038 1.16-2.311zM118 174.263s-1.45 3.702-.869 4.65c.581.947-.096 4.465-.096 4.465l-.485 5.22s-1.351 9.684-.869 11.96c.379 1.786.519 7.121.563 9.346-.033.013-.065.028-.096.047l-.065.033c.223-.875.13-2.645-.978-6.207l-.093-14.711s-.171-16.994 1.17-18.894c1.341-1.9 1.815-5.127 1.815-5.127s-.29 4.655-.479 5.888c-.19 1.233.482 3.33.482 3.33zm-2.7 36.568c-.013.031-.029.062-.039.09l-.073-.093c.038.004.075.004.112.003z"/>
        <path fill="#fff" d="M130.087 216.661c-.75.288-4.814.779-5.95.641-1.136-.137-2.641-.714-3.069-1.466-.428-.753-2.827-1.89-3.47-1.818-.264.008-.527-.029-.778-.109-.444-.134-.877-.301-1.297-.498-.059-.327-.049-.663.029-.987.015-.065.034-.129.057-.192.151-.426.464-.774.871-.971l.093-.044c.18-.077.368-.135.561-.171 2.038-.392 10.45.395 10.45.395s.236.423.56.947c.405.649.954 1.441 1.369 1.739.46.394.772.932.885 1.527.098.459.026.88-.311 1.007z"/>
        <path fill="#000" d="M130.087 216.661c-.75.288-4.812.779-5.948.641-1.136-.137-2.64-.716-3.071-1.466-.43-.751-2.824-1.89-3.467-1.818-.644.073-2.075-.607-2.075-.607s-.223-1.038.425-1.747l1.297.921s3.47 1.078 4.113 2.077c.644 1 1.816 1.558 3.51 1.659 1.265.083 4.173-.41 5.535-.657.09.449.02.87-.319.997z" opacity=".1"/>
        <path fill="#fff" d="M117.671 217.985c-1.53-.03-3.06.042-4.581.216-2.435.285-4.295-.779-4.619-1.218-.324-.439-2.003-1.921-3.292-2.44-.63-.244-.778-1.039-.749-1.781v-.122c.024-.47.093-.937.207-1.394l10.092-.215.874 1.186.135.182.532.724s.241.317.558.779c.534.778 1.281 1.928 1.481 2.689.319 1.218-.638 1.394-.638 1.394z"/>
        <path fill="#000" d="M117.671 217.985c-1.53-.03-3.06.042-4.581.215-2.433.286-4.295-.778-4.617-1.217-.321-.439-2.005-1.934-3.294-2.435-.63-.244-.778-1.038-.749-1.781.721.169 2.236.6 2.83 1.35.778 1.002 2.17 2.687 4.149 2.793 1.598.086 5.489-.2 6.915-.314.306 1.212-.653 1.389-.653 1.389z" opacity=".1"/>
        <path fill="#000" d="M116.47 211.251c-.117.867-.477 1.101-.737 1.153-.063.012-.128.012-.192 0-.034-.003-.068-.008-.101-.016 0 0-9.062 2.004-10.893.382-.047-.042-.09-.087-.13-.135.024-.471.093-.938.207-1.394l10.092-.216.874 1.186c.152-.425.465-.774.872-.97l.008.01zM128.141 212.378c-.202.223-.371.35-.477.306-.477-.192-4.388-.859-5.631-.285-1.242.573-5.447.093-5.447.093s0-.498-.023-1.298c.18-.078.368-.135.56-.171 2.039-.392 10.45.394 10.45.394s.247.437.568.961z" opacity=".1"/>
        <path fill="#6C63FF" d="M134.06 153.657l-1.146 7.928-1.333 5.254-1.909 9.932v10.514s1.239 20.919.762 21.49c-.477.571-2.29 3.824-2.767 3.634-.477-.189-4.389-.859-5.631-.288-1.243.571-5.447.096-5.447.096s-.096-8.118-.573-10.41.858-12.035.858-12.035l.478-5.252s.669-3.535.096-4.491c-.574-.955.858-4.673.858-4.673s-.666-2.105-.475-3.346c.192-1.241.475-5.921.475-5.921s-.475 3.25-1.8 5.158c-1.325 1.908-1.157 19.008-1.157 19.008l.094 14.797c2.388 7.835 0 7.069 0 7.069s-9.063 2.007-10.894.381c-1.831-1.625-1.307-11.853-1.307-11.853s-.189-8.214.573-10.695c.763-2.482 1.004-11.654 1.004-11.654s-.049-18.34 0-19.579c.036-1.038 0-10.334 0-13.239v-.859l1.094-2.721 12.969-1.625h6.204s9.337 2.196 10.302 3.144c.021.015.038.035.052.057.625.916-1.38 10.179-1.38 10.179z"/>
        <path fill="#000" d="M118.314 195.301s2.853 6.877 4.199 7.355c1.346.477-4.199-7.355-4.199-7.355zM119.37 205.426s9.632.477 9.537 1.529c-.096 1.051-9.537-1.529-9.537-1.529zM106.481 202.677c.382.36 7.348 1.038 6.775 1.697-.573.66-6.201 1.942-6.201 1.942l-.574-3.639zM105.338 190.813c0 .286 1.431 9.169 1.815 9.551.384.381 3.53.763 3.53.763l-5.345-10.314z" opacity=".1"/>
        <path fill="#3F3D56" d="M115.725 69.388c-1.367 1.529-1.958 3.697-3.55 4.99-.968.778-2.192 1.15-3.318 1.68-1.125.529-2.241 1.336-2.575 2.535-.374 1.35.347 2.729.726 4.079.392 1.396.415 2.855.438 4.317.026 1.768.055 3.535.024 5.303-.047 2.755-.275 5.636-1.736 7.97 5.273 1.68 10.881 1.908 16.411 2.124 1.062.075 2.13.048 3.187-.081.917-.183 1.823-.412 2.716-.688 1.765-.467 3.584-.7 5.41-.693.797 0 1.609.049 2.376-.158.768-.208 1.507-.74 1.715-1.509.184-.69-.086-1.425-.439-2.045-.643-1.132-1.556-2.077-2.246-3.193-.704-1.18-1.122-2.508-1.22-3.878-.097-1.37.128-2.744.657-4.012.612-1.425 1.598-2.666 2.2-4.093.616-1.533.78-3.211.472-4.835-.308-1.623-1.075-3.124-2.21-4.324-2.093-2.144-5.097-2.975-7.97-3.416-1.21-.143-2.365-.59-3.357-1.298-1.102-.727-2.531-.904-3.823-.743-1.49.167-2.87.866-3.888 1.968z"/>
        <g opacity=".1">
            <path fill="#000" d="M134.382 84.632c-.529 1.25-.756 2.609-.662 3.964.059-.969.282-1.92.662-2.814.609-1.425 1.595-2.666 2.197-4.094.492-1.192.699-2.483.604-3.77-.053.902-.258 1.789-.604 2.623-.602 1.427-1.588 2.666-2.197 4.09zM107.524 86.636c.016 1.018.031 2.038.034 3.056 0-1.402-.013-2.801-.034-4.2-.021-1.452-.047-2.921-.438-4.32-.26-.888-.643-1.79-.778-2.685-.231 1.272.425 2.563.778 3.832.391 1.386.417 2.866.438 4.317zM135.922 99.281c-.778.21-1.577.164-2.373.158-1.824-.011-3.643.218-5.408.681-.893.274-1.799.503-2.715.685-1.058.131-2.127.159-3.19.083-5.343-.21-10.762-.436-15.879-1.965-.152.34-.325.669-.519.986 5.273 1.677 10.881 1.908 16.408 2.124 1.063.076 2.132.048 3.19-.083.913-.181 1.816-.409 2.705-.683 1.762-.465 3.576-.696 5.398-.688.796 0 1.605.049 2.373-.161.768-.21 1.507-.737 1.714-1.506.088-.355.079-.728-.025-1.08-.231.727-.945 1.234-1.679 1.45z" opacity=".1"/>
        </g>
        <path fill="#FFB9B9" d="M128.24 96.205c-.192.43-1.001 4.153-1.193 4.535-.192.382-1.24 6.49-1.336 6.833-.096.342-6.907-1.433-6.907-1.433l-4.101-3.44-4.214-4.198s-.125-3.787 2.98-5.002c.211-.083.428-.15.648-.203 3.766-.906 3.388-12.367 3.388-12.367l7.729 3.341s-1.432 6.687-1.383 7.977c.013.434.353.704.797.867.685.196 1.399.273 2.111.229 0 0 1.673 2.432 1.481 2.86z"/>
        <path fill="#6C63FF" d="M142.077 108.764l1.097.288s.812 1.236-1.097 2.386c-1.212.737-2.375 1.551-3.483 2.438l-5.641 1.718-1.087-3.414 5.25-3.987 4.961.571z"/>
        <path fill="#000" d="M142.077 108.764l1.097.288s.812 1.236-1.097 2.386c-1.212.737-2.375 1.551-3.483 2.438l-5.641 1.718-1.087-3.414 5.25-3.987 4.961.571z" opacity=".1"/>
        <path fill="#6C63FF" d="M100.908 112.061l-2.195 2.149s3.958 4.585 7.003 4.87c3.045.286 5.009-3.486 5.009-3.486l-2.635-4.154-7.182.621z"/>
        <path fill="#000" d="M100.908 112.061l-2.195 2.149s3.958 4.585 7.003 4.87c3.045.286 5.009-3.486 5.009-3.486l-2.635-4.154-7.182.621zM121.751 88.42c4.215 0 7.633-3.421 7.633-7.64 0-4.22-3.418-7.64-7.633-7.64-4.216 0-7.634 3.42-7.634 7.64 0 4.219 3.418 7.64 7.634 7.64z" opacity=".1"/>
        <path fill="#FFB9B9" d="M121.751 87.846c4.215 0 7.633-3.42 7.633-7.64s-3.418-7.64-7.633-7.64c-4.216 0-7.634 3.42-7.634 7.64s3.418 7.64 7.634 7.64z"/>
        <path fill="#000" d="M135.445 144.345c-1.738.199-3.45.583-5.107 1.145-2.853.95-25.21.015-25.522 0v-.86l1.095-2.72 12.968-1.625h6.204s9.338 2.196 10.303 3.143c.038.572.059.917.059.917zM128.24 96.205c-.192.43-1.001 4.153-1.193 4.535-.192.382-1.24 6.49-1.336 6.833-.096.342-6.907-1.433-6.907-1.433l-4.101-3.44-4.214-4.198s-.125-3.787 2.98-5.002l7.708 8.87 3.471-9.255c.685.196 1.399.273 2.111.229 0 0 1.673 2.432 1.481 2.86z" opacity=".1"/>
        <path fill="#6C63FF" d="M121.177 102.656l-7.89-9.086c-.462-.295-.989-.47-1.536-.511-.546-.04-1.094.056-1.594.28-1.767.766-3.961 1.386-4.534 1.768-.573.381-2.721 2.743-2.721 2.743l6.396 16.747-2.817 11.031s.431 5.635-.666 7.689c-.668 1.313-.981 2.778-.908 4.25 0 0 .335 2.723-.047 4.153-.222.957-.239 1.949-.049 2.913 0 0 22.666.955 25.527 0 1.657-.564 3.369-.948 5.107-1.145 0 0-.519-9.553-1.037-11.846-.519-2.292.43-11.03.43-11.03l-.62-9.361 3.72-9.605s-2.016-6.158-4.116-6.778c0 0-3.816-.909-4.628-1.337-.811-.428-3.198-.813-3.198-.813l-1.252.42-3.567 9.518z"/>
        <path fill="#000" d="M132.186 110.935l-16.603-1.13c-.42-.029-.784.289-.813.71l-1.782 26.236c-.029.421.289.785.709.814l16.603 1.13c.42.028.784-.29.812-.71l1.783-26.237c.028-.42-.289-.785-.709-.813z" opacity=".1"/>
        <path fill="#3F3D56" d="M132.757 110.365l-16.603-1.13c-.42-.028-.784.289-.812.71l-1.783 26.237c-.028.42.289.784.709.813l16.603 1.13c.42.028.784-.289.813-.71l1.782-26.237c.029-.42-.289-.784-.709-.813z"/>
        <path fill="#fff" d="M132.209 112.422l-15.79-1.075-1.623 23.885 15.791 1.075 1.622-23.885z"/>
        <path fill="#000" d="M130.794 118.518l-12.899-.903-.252 3.598 12.899.903.252-3.598zM130.327 132.817l-2.047-.14-.128 1.876 2.047.139.128-1.875zM128.308 128.291l-10.478-.713-.127 1.875 10.477.713.128-1.875z" opacity=".1"/>
        <path fill="#3F3D56" d="M130.255 111.529l-10.91-.743-.196 2.883 10.91.742.196-2.882z"/>
        <path fill="#000" d="M130.255 111.529l-10.91-.743-.196 2.883 10.91.742.196-2.882zM122.132 143.818s-.096 14.137-3.818 22.255c0 0 4.487-10.698 4.487-11.126 0-.429 2.48-4.92 1.816-6.257-.664-1.337-2.485-4.872-2.485-4.872zM122.334 78.295c-.142-1.251.164-2.513.864-3.56-.083 1.05.213 2.094.835 2.942.622.848 1.528 1.444 2.552 1.68-.087-.076-.15-.177-.179-.289-.029-.112-.024-.23.016-.34.531.603.939 1.317 1.54 1.846.602.53 1.505.847 2.213.47.962-.519.972-1.887.723-2.951-.534-2.267-1.63-4.363-3.187-6.093-.389-.523-.893-.95-1.473-1.245-.581-.295-1.222-.452-1.873-.458-1.473-.114-3.004.015-4.324.677-.743.406-1.439.893-2.075 1.451l-3.631 2.965c-.349.252-.648.567-.882.93-.156.302-.249.633-.275.973-.092.97.087 1.948.519 2.823.431.874 1.098 1.611 1.925 2.127-.018-.767.193-1.522.605-2.17.413-.646 1.008-1.156 1.711-1.464.11.092.199.207.261.336.062.13.096.27.099.414l.765-1.365c.114-.249.294-.461.519-.615.472-.26 1.061.046 1.463.412.402.366.794.823 1.333.88l.021-2.032" opacity=".1"/>
        <path fill="#3F3D56" d="M122.334 78.01c-.143-1.253.163-2.515.864-3.562-.234 2.077 1.33 4.22 3.39 4.62-.088-.075-.15-.175-.18-.287-.029-.112-.023-.23.016-.338.532.602.939 1.314 1.541 1.846s1.504.846 2.212.467c.963-.52.973-1.887.724-2.95-.534-2.266-1.631-4.361-3.188-6.092-.483-.59-1.092-1.063-1.781-1.386-.5-.185-1.025-.292-1.557-.317-1.473-.114-3.003.013-4.323.675-.743.408-1.439.895-2.075 1.454l-3.631 2.965c-.35.25-.65.566-.882.929-.157.302-.25.634-.275.973-.093.97.087 1.948.518 2.822.432.874 1.098 1.61 1.925 2.126-.017-.767.194-1.522.607-2.169.412-.647 1.007-1.157 1.709-1.465.11.092.199.207.261.336.062.13.096.27.1.414l.762-1.36c.113-.249.293-.462.519-.615.472-.26 1.061.046 1.463.412.402.366.793.82 1.333.88l.021-2.035"/>
        <path fill="#FFB9B9" d="M125.95 126.199c-.667-.338-11.69 1.383-11.69 1.383s-1.816-.519-6.204-1.241c-4.389-.721-4.669-5.015-4.669-5.015l-.48-8.595 1.481-1.298 6.345 4.153s.098 2.1 0 2.479c-.063.26-.229.569-.213.779.005.057.028.111.067.153.038.042.089.071.146.081.43.109 6.297 1.059 6.297 1.059s13.599-.932 16.989 3.653c.268.336.471.72.599 1.131.84 3.134-8.064 1.576-8.668 1.278z"/>
        <path fill="#000" d="M134.626 124.94c-.519.231-.841.397-.841.397s-4.866-.143-7.599-1.135c-2.734-.991-6.057-.815-6.057-.815s-11.391-1.962-9.625-4.524c.005.056.029.11.067.152.038.043.09.071.146.081.43.109 6.297 1.059 6.297 1.059s13.599-.932 16.989 3.653c.277.335.488.719.623 1.132z" opacity=".1"/>
        <path fill="#FFB9B9" d="M139.356 109.815s.67 4.728.716 5.112c.047.384.288 5.013 0 5.54-.288.527-.716 1.383-.716 1.383s.478 1.002-1.431 1.387c-1.909.384-4.15 1.526-4.15 1.526s-4.869-.143-7.587-1.145-6.059-.812-6.059-.812-14.459-2.485-8.255-5.517c6.204-3.032 10.592 1.075 10.592 1.075l6.918-.428s2.578-1.579 3.294-1.433c.505.064 1.019-.019 1.478-.239l.049-5.016 5.151-1.433z"/>
        <path fill="#000" d="M104.279 98.211l-1.385-.072-4.196 16.354s4.531-1.147 6.484 0c1.953 1.148 5.535 1.384 5.535 1.384l-1.336-13.037-5.102-4.629z" opacity=".1"/>
        <path fill="#6C63FF" d="M104.279 97.923l-1.385-.072-4.196 16.354s4.531-1.147 6.484 0c1.953 1.148 5.535 1.384 5.535 1.384l-1.336-13.037-5.102-4.629z"/>
        <path fill="#000" d="M136.018 101.506l1.907.431s4.868 7.009 5.249 7.401c.382.392-1.815 1.817-2.72 1.817-.906 0-5.343.519-6.632 1.719-1.29 1.199-.753-4.837-.753-4.974 0-.138 1.601-3.946 1.601-3.946l1.348-2.448z" opacity=".1"/>
        <path fill="#6C63FF" d="M136.018 101.22l1.907.429s4.868 7.022 5.249 7.403c.382.382-1.815 1.818-2.72 1.818-.906 0-5.343.519-6.632 1.718-1.29 1.199-.753-4.836-.753-4.974 0-.137 1.611-3.959 1.611-3.959l1.338-2.435z"/>
        <g fill="#000" opacity=".1">
            <path d="M123.185 74.471c-.011-.199-.007-.399.013-.597-.395.593-.667 1.26-.799 1.96v.724c0 .42 0 .844-.013 1.264h-.036v.195c0-.067 0-.132-.013-.2-.519-.083-.89-.519-1.276-.867-.387-.348-.991-.68-1.463-.413-.226.154-.406.367-.519.616l-.77 1.36c-.004-.143-.038-.284-.1-.413-.062-.129-.151-.243-.261-.335-.702.308-1.298.818-1.71 1.465-.413.647-.624 1.402-.606 2.17-.709-.445-1.301-1.051-1.729-1.77-.428-.72-.679-1.53-.732-2.366-.046.933.159 1.861.591 2.688.433.828 1.079 1.525 1.87 2.019-.017-.767.194-1.522.607-2.17.412-.646 1.007-1.156 1.709-1.465.11.093.199.208.261.337.062.13.096.27.1.414l.762-1.36c.113-.25.293-.462.519-.616.472-.26 1.061.047 1.463.413.402.366.793.82 1.333.88 0-.665.007-1.327.021-1.989.127-.693.392-1.354.778-1.944z" opacity=".1"/>
            <path d="M122.308 77.085c.013-.176.034-.353.06-.519l.028-.716c-.078.407-.107.821-.088 1.235zM130.177 80.182c-.708.38-1.61.063-2.212-.467-.602-.53-1.009-1.243-1.541-1.846-.039.11-.044.228-.015.34.029.112.091.213.179.289-.052 0-.101-.026-.151-.04.519.598.931 1.299 1.528 1.818.597.52 1.504.846 2.212.467.708-.379.911-1.267.849-2.131-.047.68-.291 1.27-.849 1.57zM126.422 78.453c-.868-.236-1.642-.733-2.22-1.422-.577-.69-.93-1.54-1.012-2.435-.148 2.038 1.388 4.08 3.398 4.473-.086-.075-.147-.173-.177-.283-.03-.11-.026-.225.011-.333z" opacity=".1"/>
        </g>
        <path fill="url(#paint1_linear)" d="M250.981 120.882s-1.022-.143-1.022-1.63c0-1.488-.731-4.273-.731-4.273s-.633-4.847-1.507-5.615c-.874-.769-1.997-5.28-1.997-5.28s-.192-2.448-.584-2.975c-.391-.527-.921-1.818-1.701-3.658-.781-1.84-4.028-3.102-4.028-3.102s-5.885-3.417-7.553-4.53c-.153-.093-.295-.2-.425-.322-.291-.38-1.557-.387-1.557-.387-.132-.839-.259-1.8-.301-2.669v-.28c1.86-1.1 3.261-2.835 3.945-4.886.032-.099.058-.2.086-.3.114-.036.219-.095.308-.174.09-.079.162-.175.211-.284.148-.335.153-.724.34-1.038.217-.369.632-.566.959-.841.825-.704 1.038-1.885.999-2.957-.026-.872-.166-1.75-.112-2.614 0-.073 0-.146.016-.218.015-.128.034-.26.057-.385.127-.643.405-1.25.56-1.89.156-.638.171-1.357-.192-1.907-.531-.808-1.639-.969-2.612-1.039-1.102-.093-2.075.026-2.793-.89-.33-.479-.701-.927-1.11-1.34-.145-.135-1.556-1-1.556-1.054-1.381-.642-2.947-.763-4.41-.34-.734.213-1.421.56-2.165.735-1.598.379-3.44-.031-4.799.885-.757.52-1.211 1.347-1.636 2.15-.346.66-.697 1.323-1.053 1.985-.576 1.088-1.157 2.194-1.398 3.398-.051.264-.083.53-.096.797v.413c0 .088 0 .177.015.26.016.083 0 .106.018.16.019.055.024.177.039.26.016.084.047.231.078.343 0 .05.031.096.047.145.015.05.057.174.091.26.033.086.036.09.057.135.039.09.085.18.132.26.021.033.036.067.057.1.071.122.151.239.239.349.552.693 1.372 1.134 1.976 1.783v.291c.037 1.448.427 2.864 1.136 4.126.708 1.263 1.715 2.332 2.931 3.117 0 .098.013.2.018.3.051.77.041 1.543-.028 2.311-.106-.124-.239-.223-.388-.29-.149-.066-.31-.098-.474-.094-.111-.005-.223.004-.332.029l-.023-.019v.024c-.571.14-1.273.734-1.945 2.424 0 0-2.044 2.306-3.6 2.21-1.556-.096-5.496 2.401-5.496 2.401s-3.844 2.495-4.669 5.039c-.461 1.443-1.015 2.854-1.657 4.226l-4.765 9.792-.874 7.788s.485 3.455.389 3.985c-.096.53 1.995 5.28 1.995 5.28s6.907 12.144 9.729 12.767l.202-.14c.121.061.249.108.381.14l.581-.407c.036.456.02.915-.047 1.368-.386 1.202.148 9.026.828 10.56.679 1.534.438 21.653.438 21.653l-.096 1.773s0 .058.024.156l-.024.421.07.036c.073.564.049 1.137-.07 1.693-.244.778-.342 2.977-.342 2.977s-1.945 12.43-1.022 14.927c.923 2.498 1.704 5.234 1.704 5.234s.973 3.115.047 3.634c-.926.519-3.548 1.441-3.014 2.736.493 1.2 2.363 4.413 2.64 4.883l-.023.26-.381 4.135c.061.546.209 1.079.438 1.579.418.903 1.227 1.835 2.773 1.734.259-.018.557-.047.85-.086 2.825-.382 6.3-1.643 6.3-1.643-.18-.114-.345-.251-.49-.408-.139-.134-.249-.296-.323-.474-.075-.179-.112-.371-.11-.564.042-.756-1.367-4.341-1.72-5.226l-.08-.197s3.211-3.362 2.677-6.337c0 0-3.554-2.077-2.384-3.219s3.26-4.413 3.26-4.413.096-12.24 0-14.065c-.1-1.27-.04-2.546.179-3.801.039-.187.086-.371.135-.555 1.619.244 3.254.368 4.892.371.598 0 1.203-.012 1.815-.036 0 .173.008.36.024.56.135 3.032.386 8.352.591 10.327.291 2.83 1.896 10.465 1.896 10.465s-3.063 1.965.534 6.817c0 0 0 1.755-.238 2.012-.255.832-.46 1.679-.615 2.536-.15.911-.213 1.838.031 2.315.584 1.148 4.085 1.054 4.085 1.054.028-.006.057-.01.086-.013.661-.069 1.329-.007 1.965.185.637.192 1.229.508 1.741.932 1.331 1.069 6.378.602 9.115.259 1.071-.137 1.787-.259 1.787-.259.034-.122.046-.248.036-.374-.029-.672-.555-2.147-4.124-3.463 0 0-3.356-2.259-3.31-4.226h-.461c.244-.008.415-.008.415-.008s-1.315-4.8-.778-5.192c.536-.392-1.072-5.711-1.072-5.711s-.92-8.931-.972-9.554c.003-.537.085-1.07.244-1.583l-.244-4.899s-.047-1.627 0-2.157c-.005-.46-.042-.919-.109-1.373-.024-.182-.047-.372-.073-.558 1.258-.32 2.075-.613 2.075-.613l-.145-17.043c1.069-2.077 1.266-6.635 1.26-9.865 0-2.076-.093-3.613-.093-3.613l1.46-2.386s.337-2.855-.197-3.481c-.236-.283-.129-.576.065-.818.102-.084.211-.16.324-.228-.013-.018-.024-.037-.033-.057.101-.086.21-.163.324-.231 0 0-.519-.805-.055-1.145.436.296.825.532 1.121.701-.021.189-.042.298-.042.298l.125-.259.459.259s2.287-4.561 2.238-5.231c-.049-.669 1.556-3.504 1.556-3.504s.195-1.49 1.072-2.113c.876-.623.679-5.138.679-5.138s.244-2.352.828-3.31c.583-.958-.522-2.261-.522-2.261zm-43.771-2.001l.044 1.087c-.259-.418-.446-.716-.446-.716l.402-.371z"/>
        <path fill="#fff" d="M245.265 140.466l-.56 2.389s-4.488-2.298-5.294-5.205c-.807-2.908 1.351-4.016 1.351-4.016l4.184 1.77.319 5.062z"/>
        <path fill="#000" d="M245.265 140.466l-.56 2.389s-4.488-2.298-5.294-5.205c-.807-2.908 1.351-4.016 1.351-4.016l4.184 1.77.319 5.062z" opacity=".1"/>
        <path fill="#fff" d="M220.083 221.749s-4.15 1.527-7.003 1.719c-1.515.101-2.311-.828-2.721-1.724-.223-.494-.368-1.019-.431-1.557l.376-4.115.197-2.188 6.062-1.579.858 2.63.081.197c.342.88 1.727 4.447 1.686 5.192-.004.193.032.384.105.563.072.178.181.34.318.476.14.148.298.278.472.386zM248.416 219.657c.011.126-.002.252-.036.374 0 0-8.876 1.479-10.691 0-.511-.433-1.106-.753-1.747-.943-.641-.189-1.315-.242-1.978-.155 0 0-3.434.093-4.007-1.039-.239-.475-.177-1.396-.029-2.302.151-.853.352-1.695.602-2.524l.137-.109.817-.657 9.566-.282h.073c-.047 1.957 3.244 4.202 3.244 4.202 3.504 1.298 4.02 2.765 4.049 3.435z"/>
        <path fill="#000" d="M248.419 219.657c.009.126-.004.253-.039.374 0 0-8.876 1.48-10.689 0-.511-.433-1.106-.754-1.748-.943-.641-.189-1.316-.242-1.979-.155 0 0-3.437.093-4.01-1.039-.236-.475-.176-1.396-.028-2.305 1.322.133 3.41.462 4.23 1.251 1.24 1.195 3.341 2.389 4.627 2.485 1.017.062 7.063.254 9.636.332zM220.083 221.749s-4.15 1.527-7.003 1.719c-1.515.101-2.311-.828-2.721-1.724 1.058.356 2.523.727 3.294.387.913-.408 4.15-.667 5.965-.779.137.152.293.286.465.397z" opacity=".1"/>
        <path fill="#FFB9B9" d="M226.24 98.728c-3.424-1.332-7.828-5.732-6.728-7.788.243-.52.388-1.079.428-1.651.071-.777.081-1.558.031-2.337-.077-1.275-.23-2.545-.459-3.803 0 0 10.689.242 10.066 1.818-.181.464-.213 1.267-.161 2.162.052.896.179 1.916.314 2.775.184 1.176.374 2.077.374 2.077s-.657.916-1.038.966c-.381.049 2.085 7.689-2.827 5.78z"/>
        <path fill="#000" d="M217.491 215.119l-.08.088c-3.195-3.868-7.06.956-7.06.956l-.057-.104.197-2.189 6.062-1.578.858 2.63.08.197zM241.128 212.292s-2.335-.046-3.58 1.054c-1.244 1.101-7.262.236-7.002 0 .075-.12.121-.256.134-.397l.817-.657 9.566-.283c.036.182.065.283.065.283z" opacity=".1"/>
        <path fill="#6C63FF" d="M221.468 181.916c-.174.431-.306.877-.395 1.332-.216 1.248-.276 2.517-.179 3.78.096 1.817 0 13.995 0 13.995s-2.051 3.247-3.198 4.392c-1.146 1.145 2.335 3.201 2.335 3.201.518 2.962-2.625 6.306-2.625 6.306-3.196-3.868-7.06.953-7.06.953s-2.101-3.635-2.625-4.933 2.052-2.193 2.957-2.723c.905-.53-.047-3.634-.047-3.634s-.762-2.724-1.67-5.208c-.908-2.484 1.001-14.849 1.001-14.849s.099-2.199.335-2.965c.117-.552.141-1.121.07-1.682-.016-.189-.034-.345-.047-.454-.013-.109-.023-.156-.023-.156l.036-.062 1.297-2.42s10.46 3.604 9.838 5.127zM241.128 212.007s-2.335-.05-3.58 1.038c-1.244 1.088-7.262.239-7.002 0 .259-.239.236-2.004.236-2.004-3.53-4.826-.519-6.783-.519-6.783s-1.575-7.594-1.86-10.41c-.2-1.965-.446-7.269-.578-10.273-.057-1.298-.091-2.193-.091-2.193l2.858-.569.371-.072 6.956-1.4s.192 1.298.322 2.36c.066.453.101.91.106 1.368-.044.519 0 2.147 0 2.147l.239 4.87c-.154.511-.234 1.042-.239 1.576.05.623.955 9.504.955 9.504s1.574 5.301 1.037 5.682c-.537.382.789 5.159.789 5.159z"/>
        <path fill="#000" d="M229.578 84.974c-.181.465-.213 1.267-.161 2.163-1.431.863-3.077 1.304-4.748 1.273-1.671-.031-3.299-.534-4.698-1.45-.077-1.275-.23-2.545-.459-3.803 0 0 10.689.242 10.066 1.817z" opacity=".1"/>
        <path fill="#FFB9B9" d="M233.705 79.243c.028 2.355-.88 4.625-2.524 6.31-1.644 1.686-3.89 2.649-6.243 2.677-2.353.028-4.621-.88-6.305-2.526-1.684-1.645-2.646-3.893-2.674-6.248v-.213c0-2.356.935-4.616 2.599-6.282 1.665-1.666 3.922-2.602 6.276-2.602 2.354 0 4.612.936 6.276 2.602 1.665 1.666 2.6 3.926 2.6 6.282h-.005z"/>
        <path fill="#000" d="M226.24 98.728c-3.424-1.332-7.828-5.732-6.728-7.788.243-.52.388-1.079.428-1.65l4.687 3.857 2.899 2.38 2.205-5.615c.184 1.176.374 2.077.374 2.077s-.657.916-1.038.966c-.381.049 2.085 7.681-2.827 5.773z" opacity=".1"/>
        <path fill="#6C63FF" d="M238.36 115.776l-3.914 65.808-5.104.335-13.22-38.158 2.168-45.303.459-9.571 5.878 4.83 2.899 2.381 2.27-5.78 4.22 3.68 4.344 21.778z"/>
        <path fill="#000" d="M221.468 181.917c-.174.43-.306.876-.395 1.331-3.717-.573-7.328-1.701-10.712-3.346l-.07-.036.024-.418v-.218l1.297-2.42s10.478 3.583 9.856 5.107zM230.678 183.259c-.95.162-1.907.272-2.869.329-.057-1.298-.091-2.193-.091-2.193l2.874-.582.086 2.446zM238.251 181.701c-1.844.48-4.694 1.02-7.241.683l-.037-1.643 6.957-1.4s.184 1.288.321 2.36z" opacity=".1"/>
        <path fill="#000" d="M230.963 182.685c-10.634 1.817-20.373-3.393-20.373-3.393l.093-1.765s.241-20.013-.428-21.547c-.669-1.534-1.19-9.304-.812-10.49.379-1.187-1.382-19.099-1.382-19.099l-.285-7.269-10.45-4.25 4.668-9.742c.631-1.366 1.173-2.771 1.624-4.206.812-2.53 4.58-5.015 4.58-5.015s3.865-2.482 5.393-2.389c1.527.094 3.53-2.196 3.53-2.196 1.478-3.772 2.816-2.076 2.816-2.076 0 .181 0 0-.072.558-.519 4.14 8.388 17.224 8.515 17.458l.858 20.679.859 26.17.866 28.572z" opacity=".1"/>
        <path fill="#fff" d="M230.678 182.685c-10.634 1.817-20.376-3.393-20.376-3.393l.096-1.765s.238-20.013-.431-21.547c-.669-1.534-1.19-9.312-.809-10.509.381-1.196-1.39-19.09-1.39-19.09l-.288-7.269-10.448-4.25 4.669-9.743c.629-1.365 1.171-2.769 1.624-4.203.812-2.523 4.593-5.01 4.593-5.01s3.865-2.482 5.39-2.388c1.525.093 3.538-2.194 3.538-2.194 1.481-3.772 3.112-2.076 3.112-2.076 0 .181-.156.26-.073.558 1.142 4.016 8.103 17.224 8.23 17.458l.859 20.679.84 26.183.864 28.559z"/>
        <path fill="#000" d="M227.812 107.848c-1.144-.478-7.203-7.401-7.203-7.401v-1.576c-.22-.52-1.533-.203-2.594.16l.457-9.57.519.43c1.133 4.014 8.696 17.726 8.821 17.957z" opacity=".1"/>
        <path fill="#fff" d="M228.1 107.277c-1.147-.481-7.206-7.402-7.206-7.402v-1.578c-.22-.52-1.53-.202-2.593.161l.448-9.561.519.428c1.144 4.008 8.705 17.718 8.832 17.952z"/>
        <path fill="#000" d="M210.59 141.803c.142 0 7.394-.763 7.394-.763s4.391 8.645 4.104 10.745c-.288 2.1-.81 3.964-2.576 3.634-1.766-.329-9.506.26-9.506.26l.584-13.876z" opacity=".1"/>
        <path fill="#fff" d="M210.302 141.23c.145 0 7.397-.764 7.397-.764s4.388 8.658 4.103 10.735c-.285 2.076-.812 3.964-2.575 3.634-1.764-.33-9.509.26-9.509.26l.584-13.865z"/>
        <path fill="#FFB9B9" d="M215.767 137.182s6.655 3.583 6.798 4.673c.142 1.09-3.388-.477-4.15-.67-.502-.119-1.013-.199-1.528-.238l-5.086.137 3.966-3.902z"/>
        <path fill="#000" d="M225.952 108.294c.387 0 .7-.314.7-.701 0-.387-.313-.701-.7-.701-.387 0-.7.314-.7.701 0 .387.313.701.7.701z" opacity=".1"/>
        <path fill="#3F3D56" d="M225.952 108.009c.387 0 .7-.314.7-.701 0-.387-.313-.701-.7-.701-.387 0-.7.314-.7.701 0 .387.313.701.7.701z"/>
        <path fill="#000" d="M227.241 138.636c.387 0 .7-.314.7-.701 0-.387-.313-.701-.7-.701-.387 0-.7.314-.7.701 0 .387.313.701.7.701z" opacity=".1"/>
        <path fill="#3F3D56" d="M227.241 138.348c.387 0 .7-.314.7-.701 0-.387-.313-.701-.7-.701-.387 0-.7.314-.7.701 0 .387.313.701.7.701z"/>
        <path fill="#000" d="M226.652 123.465c.387 0 .701-.314.701-.701 0-.387-.314-.701-.701-.701-.386 0-.7.314-.7.701 0 .387.314.701.7.701z" opacity=".1"/>
        <path fill="#3F3D56" d="M226.652 123.18c.387 0 .701-.314.701-.701 0-.387-.314-.701-.701-.701-.386 0-.7.314-.7.701 0 .387.314.701.7.701z"/>
        <path fill="#fff" d="M242.796 140.801s.477.717 0 1.039c-.478.322.046 1.147.046 1.147s-1.19.696-.666 1.327c.524.63.192 3.463.192 3.463l-1.432 2.385s.085 1.529.091 3.596c0 3.224-.19 7.757-1.238 9.823l.14 16.954s-5.013 1.836-9.21 1.275l-.622-27.206s.908-15.428 1.242-18.387c.196-1.537.276-3.086.239-4.634 0 0-.143-4.631-.623-6.778 0 0-.518-9.315-.57-11.892-.024-1.234.041-4.832.114-8.253.08-3.741.171-7.269.171-7.269l-.947-7.5s.947-.093 1.232.286c.128.12.267.226.415.32 1.637 1.105 7.41 4.506 7.41 4.506s3.196 1.272 3.961 3.094c.765 1.823 1.297 3.115 1.668 3.635.371.519.573 2.959.573 2.959s1.1 4.491 1.958 5.252c.859.76 1.476 5.589 1.476 5.589l-7.587 5.971s-.666 9.932-.809 10.316c-.142.384 2.776 8.982 2.776 8.982z"/>
        <path fill="#fff" d="M243.083 140.801s.475.717 0 1.039c-.474.321.045 1.147.045 1.147s-1.191.696-.667 1.327c.524.63.192 3.463.192 3.463l-1.427 2.385s.086 1.529.094 3.596c0 3.224-.19 7.757-1.237 9.823l.142 16.954s-5.013 1.836-9.21 1.275l-.62-27.206s.905-15.428 1.243-18.387c.196-1.537.274-3.086.236-4.634 0 0-.143-4.631-.62-6.778 0 0-.519-9.315-.574-11.892-.023-1.234.042-4.832.115-8.253.08-3.741.171-7.269.171-7.269l-1.25-7.601s1.25 0 1.538.387c.126.12.265.228.415.32 1.634 1.105 7.407 4.506 7.407 4.506s3.188 1.272 3.966 3.094c.778 1.823 1.297 3.115 1.668 3.635.371.519.573 2.959.573 2.959s1.1 4.491 1.958 5.252c.859.76 1.479 5.589 1.479 5.589l-7.587 5.971s-.667 9.932-.812 10.316c-.145.384 2.762 8.982 2.762 8.982z"/>
        <path fill="#000" d="M233.998 99.595l.687 1.999-3.608 3.634c.081-3.741.171-7.268.171-7.268l-1.25-7.599s1.25 0 1.538.387c.127.12.266.228.415.32l3.066 8.849-1.019-.322z" opacity=".1"/>
        <path fill="#fff" d="M233.705 99.021l.687 1.997-3.605 3.634c.078-3.741.171-7.269.171-7.269l-1.253-7.6s1.253 0 1.538.386c.127.12.267.227.415.32l3.084 8.857-1.037-.325z"/>
        <path fill="#000" d="M233.705 79.243c.001.935-.146 1.865-.436 2.754-.049.008-.099.006-.147-.005-.048-.012-.093-.033-.133-.063-.07-2.336-1.217-4.532-2.63-6.399-.398-.563-.879-1.062-1.427-1.48-.554-.416-1.244-.611-1.935-.547-.778.106-1.465.636-2.251.703-1.037.086-1.966-.633-2.996-.667-.418.004-.831.097-1.211.273-.38.177-.718.432-.991.75-.541.64-.943 1.385-1.18 2.188-.408 1.22-.63 2.494-.659 3.78-.013.727-.083 1.638-.757 1.903.051-.534-.01-1.073-.178-1.583-.168-.51-.441-.978-.8-1.376l-.015-.019v-.212c0-2.356.935-4.616 2.599-6.282 1.665-1.666 3.922-2.602 6.276-2.602 2.354 0 4.612.936 6.276 2.602 1.665 1.666 2.6 3.926 2.6 6.282h-.005z" opacity=".1"/>
        <path fill="#512E4E" d="M228.517 65.139c-1.348-.635-2.881-.755-4.31-.338-.719.213-1.396.558-2.125.732-1.556.377-3.372-.03-4.707.88-.742.52-1.188 1.34-1.603 2.14l-1.038 1.975c-.565 1.082-1.136 2.183-1.372 3.375-.236 1.191-.093 2.526.662 3.486.547.696 1.361 1.135 1.958 1.791.358.4.63.871.798 1.382.168.51.228 1.05.177 1.585.675-.26.742-1.175.757-1.902.03-1.286.252-2.56.659-3.78.237-.804.639-1.55 1.18-2.189.273-.318.611-.574.991-.75.379-.177.793-.271 1.211-.275 1.038.036 1.969.755 2.996.667.778-.065 1.468-.594 2.252-.7.69-.066 1.38.13 1.934.547.549.416 1.029.916 1.424 1.48 1.416 1.869 2.566 4.055 2.633 6.399.293.213.716-.068.861-.4.145-.332.15-.722.335-1.038.212-.366.62-.564.939-.839.809-.698 1.011-1.874.98-2.941-.031-1.067-.239-2.15-.036-3.198.122-.641.396-1.246.547-1.882.15-.636.169-1.35-.187-1.898-.519-.802-1.611-.963-2.562-1.038-1.082-.094-2.049.026-2.739-.886-.325-.475-.689-.92-1.09-1.334-.142-.138-1.525-.994-1.525-1.051z"/>
        <path fill="#000" d="M200.319 119.883l-2.708-5.013-.859 7.736s.478 3.437.382 3.964c-.096.527 1.955 5.252 1.955 5.252s6.778 12.084 9.545 12.704l9.337-6.687-2.479-3.151s-.859-.335-1.074 0c0 0-4.606-7.929-5.081-8.5-.475-.571-.384-1.721-.384-1.721s-.716-.763-.477-1.479c.238-.717-1.37-3.199-1.37-3.199l1.479-1.383-8.266 1.477z" opacity=".1"/>
        <path fill="#fff" d="M197.753 114.296l-.715.574-.859 7.736s.477 3.437.381 3.964c-.096.527 1.959 5.252 1.959 5.252s6.774 12.084 9.542 12.704l9.353-6.687-2.483-3.151s-.858-.335-1.073 0c0 0-4.604-7.929-5.081-8.5-.478-.571-.382-1.721-.382-1.721s-.715-.763-.477-1.479c.239-.717-1.385-3.199-1.385-3.199l1.479-1.383-10.259-4.11z"/>
        <path fill="#000" d="M242.176 144.612c.518.631.192 3.466.192 3.466l-1.432 2.37s.085 1.531.091 3.598l-2.407.753c-.218.068-.449.083-.674.043-.225-.039-.437-.132-.619-.27-.181-.139-.327-.318-.426-.524-.098-.207-.145-.433-.138-.661l.417-13.396 5.615 2.147c-.477.332.047 1.148.047 1.148s-1.19.695-.666 1.326z" opacity=".1"/>
        <path fill="#fff" d="M242.461 144.327c.519.628.192 3.463.192 3.463l-1.427 2.372s.086 1.529.094 3.596l-2.451.766c-.213.066-.439.081-.659.043-.219-.038-.427-.129-.604-.264-.178-.135-.321-.31-.417-.512-.096-.201-.143-.423-.136-.646l.418-13.442 5.612 2.152c-.479.332.045 1.148.045 1.148s-1.191.693-.667 1.324z"/>
        <path fill="#FFB9B9" d="M244.323 137.935s-.381 2.438-1.336 2.581c-.954.143-1.382 3.943-2.334 3.811-.952-.133-.321-3.536-.288-4.195.034-.66-1.037-3.391-.238-4.011.798-.621 3.34 0 3.34 0l.856 1.814z"/>
        <path fill="#000" d="M246.341 119.166l1.798-3.634s.718 2.77.718 4.249c0 1.48 1.001 1.625 1.001 1.625s1.097 1.298.519 2.246-.809 3.294-.809 3.294.189 4.489-.669 5.109c-.859.621-1.051 2.103-1.051 2.103s-1.574 2.817-1.525 3.486c.049.67-2.194 5.205-2.194 5.205s1.097-5.636-5.297-8.071c0 0-.049-1.91.428-2.435.478-.524 1.222-.778.755-3.416-.467-2.637-.135-5.818-.135-6.454 0-.636 1.432-4.6 1.432-4.6l5.029 1.293z" opacity=".1"/>
        <path fill="#fff" d="M247.14 115.013l1.572.519s.718 2.77.718 4.25c0 1.479 1.001 1.625 1.001 1.625s1.097 1.298.519 2.245c-.578.948-.812 3.294-.812 3.294s.192 4.489-.666 5.109c-.859.621-1.038 2.103-1.038 2.103s-1.574 2.817-1.525 3.487c.049.669-2.197 5.204-2.197 5.204s1.097-5.635-5.296-8.07c0 0-.047-1.911.43-2.435.478-.525 1.222-.779.755-3.417-.467-2.637-.135-5.817-.135-6.453 0-.636 1.432-4.601 1.432-4.601l5.242-2.86z"/>
        <path fill="#000" d="M212.416 209.213s2.505-1.575 4.15-.431c1.644 1.145-4.15.431-4.15.431zM231.889 204.341s2.218-.286 4.08 1.721-4.08-1.721-4.08-1.721z" opacity=".1"/>
        <g opacity=".1">
            <path fill="#000" d="M235.129 78.796c-.319.278-.729.472-.942.838-.182.315-.187.704-.332 1.039-.145.335-.568.612-.864.4-.067-2.337-1.216-4.53-2.63-6.4-.395-.563-.875-1.061-1.424-1.477-.554-.418-1.245-.614-1.937-.55-.778.106-1.463.636-2.249.704-1.037.085-1.968-.634-2.998-.668-.418.004-.831.097-1.211.273-.379.176-.716.432-.989.75-.541.64-.943 1.385-1.18 2.189-.407 1.22-.629 2.494-.658 3.78-.016.724-.083 1.627-.753 1.897.016.193.016.386 0 .579.677-.26.745-1.176.76-1.903.029-1.286.252-2.56.659-3.78.237-.803.639-1.549 1.18-2.188.273-.318.61-.574.989-.75.38-.178.792-.271 1.211-.275 1.037.036 1.971.755 2.998.667.778-.065 1.468-.595 2.249-.701.691-.066 1.382.13 1.937.548.549.416 1.029.915 1.424 1.48 1.414 1.868 2.563 4.054 2.63 6.398.296.213.719-.067.864-.4.145-.332.15-.721.332-1.038.213-.366.622-.563.941-.838.81-.699 1.012-1.875.981-2.942v-.098c-.052.93-.299 1.871-.988 2.466zM215.979 78.614c-.594-.656-1.408-1.098-1.955-1.794-.463-.614-.726-1.355-.755-2.123-.081.96.187 1.919.755 2.697.547.696 1.361 1.135 1.955 1.791.574.643.919 1.457.981 2.316.039-.522-.028-1.047-.196-1.543-.169-.496-.436-.953-.785-1.344zM236.62 70.775c-.153.635-.425 1.24-.55 1.882-.075.433-.102.874-.08 1.313.008-.248.035-.495.08-.74.125-.64.397-1.246.55-1.882.088-.35.117-.714.086-1.075-.017.17-.046.337-.086.502z" opacity=".1"/>
        </g>
        <path fill="#6C63FF" d="M34.426 217.772c13.958 0 25.273-1.819 25.273-4.063 0-2.243-11.315-4.062-25.273-4.062s-25.273 1.819-25.273 4.062c0 2.244 11.315 4.063 25.273 4.063z" opacity=".1"/>
        <path fill="#535461" d="M35.24 135.879h-1.626v36.648h1.627v-36.648z"/>
        <path fill="#3F3D56" d="M45.462 172.418l-.104 1.651-.142 2.336-.06.971-.145 2.336-.062.971-.143 2.337-1.642 26.497c-.07 1.14-.572 2.21-1.403 2.993-.831.782-1.93 1.218-3.07 1.218h-8.526c-1.145 0-2.246-.438-3.078-1.224-.832-.786-1.331-1.862-1.396-3.005l-1.642-26.498-.143-2.336-.06-.971-.147-2.336-.06-.971-.143-2.337-.104-1.651c-.017-.316.03-.633.137-.931.109-.298.276-.57.493-.801.217-.231.479-.416.77-.542.29-.127.603-.193.92-.194h17.434c.318.001.633.068.924.196.291.128.553.314.77.547.217.233.384.508.491.807.107.3.152.619.131.937z"/>
        <path fill="#9D9CB5" d="M45.358 174.066l-.145 2.331H23.64l-.145-2.331h21.864zM45.154 177.368l-.143 2.331H23.844l-.145-2.331h21.455zM44.949 180.673l-.143 2.328H24.049l-.145-2.328h21.045z"/>
        <path fill="#6C63FF" d="M21.022 149.617c9.472 6.859 13.417 17.585 13.417 17.585s-11.412-.392-20.887-7.25C4.077 153.093.127 142.374.127 142.374s11.412.384 20.895 7.243z"/>
        <path stroke="#535461" stroke-miterlimit="10" stroke-width="2" d="M.127 142.374s11.846 6.581 15.645 12.03c3.8 5.449 18.657 12.803 18.657 12.803"/>
        <path fill="#6C63FF" d="M27.125 135.801c5.156 3.731 7.304 9.569 7.304 9.569s-6.225-.213-11.369-3.943c-5.143-3.731-7.303-9.572-7.303-9.572s6.214.213 11.368 3.946z"/>
        <path stroke="#535461" stroke-miterlimit="10" stroke-width="2" d="M15.757 131.855s6.448 3.583 8.517 6.548c2.07 2.964 10.155 6.967 10.155 6.967"/>
        <path fill="#6C63FF" d="M41.92 145.074c-5.922 6.513-7.175 15.026-7.175 15.026s8.35-2.051 14.265-8.567c5.917-6.516 7.175-15.026 7.175-15.026s-8.344 2.054-14.266 8.567z"/>
        <path stroke="#535461" stroke-miterlimit="10" stroke-width="2" d="M56.19 136.51s-7.714 6.677-9.675 11.277c-1.96 4.6-11.77 12.313-11.77 12.313"/>
    </g>
    <defs>
        <linearGradient id="paint0_linear" x1="120.744" x2="120.744" y1="216.91" y2="66.953" gradientUnits="userSpaceOnUse">
            <stop stop-color="gray" stop-opacity=".25"/>
            <stop offset=".54" stop-color="gray" stop-opacity=".12"/>
            <stop offset="1" stop-color="gray" stop-opacity=".1"/>
        </linearGradient>
        <linearGradient id="paint1_linear" x1="49352.5" x2="49352.5" y1="140534" y2="42244.3" gradientUnits="userSpaceOnUse">
            <stop stop-color="gray" stop-opacity=".25"/>
            <stop offset=".54" stop-color="gray" stop-opacity=".12"/>
            <stop offset="1" stop-color="gray" stop-opacity=".1"/>
        </linearGradient>
        <clipPath id="clip0">
            <path fill="#fff" d="M0 0H302.842V224H0z"/>
        </clipPath>
    </defs>
</svg>
