<svg xmlns="http://www.w3.org/2000/svg" width="121" height="32" fill="none" viewBox="0 0 121 32">
    <g filter="url(#filter0_d)">
        <path fill="#fff" d="M1 1H37.218V30.091H1z"/>
    </g>
    <path fill="#133D53" d="M43.594 4.675h15.108v2.669H46.545v6.612h10.69v2.595h-10.69v9.904h-2.95V4.675zM71.275 4.082c3.845 0 6.691 1.236 8.54 3.707 1.442 1.927 2.164 4.393 2.164 7.398 0 3.252-.825 5.955-2.476 8.11-1.937 2.53-4.7 3.795-8.288 3.795-3.35 0-5.984-1.107-7.902-3.32-1.71-2.136-2.565-4.834-2.565-8.096 0-2.945.732-5.466 2.195-7.561 1.877-2.689 4.655-4.033 8.332-4.033zm.296 20.371c2.6 0 4.478-.929 5.634-2.787 1.166-1.868 1.75-4.013 1.75-6.435 0-2.56-.673-4.62-2.017-6.182-1.334-1.562-3.163-2.343-5.485-2.343-2.254 0-4.092.776-5.516 2.328-1.423 1.542-2.135 3.82-2.135 6.835 0 2.412.608 4.448 1.824 6.108 1.226 1.65 3.207 2.476 5.945 2.476zM85.508 4.675h2.95V23.86h11.03v2.595h-13.98V4.675zM110.771 23.934c.998 0 1.819-.104 2.461-.311 1.147-.386 2.086-1.127 2.817-2.224.583-.88 1.003-2.007 1.26-3.38.149-.82.223-1.582.223-2.284 0-2.698-.539-4.793-1.616-6.286-1.068-1.492-2.792-2.239-5.175-2.239h-5.233v16.724h5.263zm-8.228-19.259h8.821c2.995 0 5.318 1.063 6.968 3.188 1.473 1.917 2.209 4.373 2.209 7.368 0 2.313-.434 4.404-1.304 6.272-1.532 3.3-4.166 4.952-7.902 4.952h-8.792V4.675z"/>
    <path fill="#2F98D0" d="M11.764 4.636v21.819h-2.97V8.542l-2.478 2.844-1.68-1.928 4.158-4.773v-.049h2.97z"/>
    <path fill="#6A5CFA" d="M22.678 26.455c6.025 0 10.91-4.885 10.91-10.91H29.95c0 4.017-3.256 7.273-7.273 7.273v3.637z"/>
    <path fill="#FE5D00" d="M15.405 15.546c0-4.017 3.257-7.273 7.273-7.273V4.636c-6.025 0-10.909 4.885-10.909 10.91v.013-.013h3.636z"/>
    <path fill="#69D37D" d="M11.77 15.546c0 6.024 4.883 10.909 10.908 10.909v-3.637c-4.016 0-7.272-3.256-7.272-7.273h-3.637z"/>
    <path fill="#FBBD03" d="M33.587 15.552v-.006h-3.636c0-4.017-3.256-7.273-7.273-7.273V4.636c6.025 0 10.91 4.885 10.91 10.91v.006z"/>
    <defs>
        <filter id="filter0_d" width="38.218" height="31.091" x="0" y="0" color-interpolation-filters="sRGB" filterUnits="userSpaceOnUse">
            <feFlood flood-opacity="0" result="BackgroundImageFix"/>
            <feColorMatrix in="SourceAlpha" values="0 0 0 0 0 0 0 0 0 0 0 0 0 0 0 0 0 0 127 0"/>
            <feOffset/>
            <feGaussianBlur stdDeviation=".5"/>
            <feColorMatrix values="0 0 0 0 0 0 0 0 0 0 0 0 0 0 0 0 0 0 0.25 0"/>
            <feBlend in2="BackgroundImageFix" result="effect1_dropShadow"/>
            <feBlend in="SourceGraphic" in2="effect1_dropShadow" result="shape"/>
        </filter>
    </defs>
</svg>
