<svg width="279" height="209" viewBox="0 0 279 209" fill="none" xmlns="http://www.w3.org/2000/svg">
<g clip-path="url(#clip0)">
<path d="M33.1153 179.484C43.2757 179.484 51.5094 173.314 51.5094 165.705V89.9155C51.5094 82.3044 43.2727 76.1368 33.1153 76.1368H18.3965C8.2367 76.1368 0 82.3066 0 89.9155V165.705C0 173.317 8.2367 179.484 18.397 179.484H33.1153V179.484Z" fill="#2F98D0"/>
<path d="M258.694 76.1342H197.663H182.085H140.357C136.295 76.1342 134.108 73.8095 135.475 70.943L151.984 36.311C153.352 33.4446 151.295 30.3901 147.275 29.9506C138.352 28.9765 123.049 28.9221 112.707 37.6524C110.009 39.9298 106.872 44.3094 104.595 46.8293C94.1715 58.3695 79.0717 68.0292 70.835 72.8442C67.6317 74.718 64.9336 78.6019 64.9336 81.645V173.971C64.9336 177.017 68.2278 179.484 72.293 179.484H181.719C185.785 179.484 191.235 177.62 193.897 175.32L200.2 169.87C202.862 167.57 205.524 163.265 206.144 160.258L216.387 110.664H258.695C269.911 110.664 279 102.936 279 93.4006C279 83.8657 269.911 76.1342 258.694 76.1342Z" fill="#2F98D0"/>
</g>
<defs>
<clipPath id="clip0">
<rect width="279" height="209" fill="white"/>
</clipPath>
</defs>
</svg>
