<svg xmlns="http://www.w3.org/2000/svg" width="200" height="200" fill="none" viewBox="0 0 200 200">
    <g clip-path="url(#clip0)" filter="url(#filter0_d)">
        <path fill="#fff" d="M169.828 10.345H23.276c-7.142 0-12.931 5.79-12.931 12.93v146.553c0 7.141 5.79 12.931 12.93 12.931h146.553c7.141 0 12.931-5.79 12.931-12.931V23.276c0-7.142-5.79-12.931-12.931-12.931z"/>
        <path fill-rule="evenodd" stroke="#667D8A" stroke-width=".5" d="M28.777 154.498h-.866c-.05-.476-.307-.917-.683-1.188h1.549c.093 0 .17-.077.17-.17 0-.094-.077-.171-.17-.171H25.17c-.094 0-.17.077-.17.171 0 .093.076.17.17.17h1.032c.703 0 1.282.526 1.366 1.188H25.17c-.094 0-.17.077-.17.17 0 .094.076.171.17.171h2.398c-.086.688-.672 1.204-1.366 1.206h-1.03c-.096.002-.173.08-.171.175 0 .046.02.089.053.122l2.578 2.431c.068.065.176.061.24-.007.065-.069.062-.176-.006-.242l-2.269-2.139h.604c.89 0 1.624-.68 1.709-1.546h.866c.093 0 .17-.077.17-.171 0-.093-.077-.17-.17-.17z" clip-rule="evenodd"/>
        <path fill="#2CC57B" d="M35.116 156.391c0 .525.141.955.424 1.287.283.332.642.498 1.078.498.426 0 .76-.16 1.003-.478.247-.323.37-.741.37-1.252 0-.571-.139-1.006-.417-1.307-.278-.305-.62-.458-1.024-.458-.327 0-.617.098-.868.296-.378.292-.566.764-.566 1.414zm2.7-4.216c0-.157-.06-.329-.181-.518-.207-.305-.519-.458-.936-.458-.624 0-1.07.35-1.334 1.05-.144.386-.242.957-.296 1.711.238-.282.514-.489.828-.619.314-.131.674-.196 1.078-.196.866 0 1.576.295 2.128.883.557.588.835 1.34.835 2.256 0 .911-.272 1.715-.815 2.411-.543.696-1.387 1.044-2.532 1.044-1.23 0-2.138-.514-2.721-1.542-.454-.804-.68-1.842-.68-3.112 0-.745.031-1.351.094-1.819.112-.83.33-1.522.653-2.074.279-.471.642-.851 1.091-1.139.454-.287.995-.431 1.623-.431.907 0 1.63.234 2.169.701.539.462.842 1.08.91 1.852h-1.913zm5.011 2.519c0 1.122.092 1.983.276 2.58.184.592.562.889 1.132.889.57 0 .943-.297 1.118-.889.18-.597.27-1.458.27-2.58 0-1.176-.09-2.047-.27-2.613-.175-.565-.548-.848-1.118-.848-.57 0-.947.283-1.132.848-.184.566-.276 1.437-.276 2.613zm1.408-5.044c1.244 0 2.115.438 2.613 1.313.503.876.754 2.12.754 3.731 0 1.612-.251 2.853-.754 3.725-.498.871-1.37 1.306-2.613 1.306-1.244 0-2.117-.435-2.62-1.306-.498-.872-.748-2.113-.748-3.725 0-1.611.25-2.855.748-3.731.503-.875 1.376-1.313 2.62-1.313zm6.27 5.044c0 1.122.092 1.983.276 2.58.184.592.562.889 1.132.889.57 0 .943-.297 1.118-.889.18-.597.27-1.458.27-2.58 0-1.176-.09-2.047-.27-2.613-.175-.565-.548-.848-1.118-.848-.57 0-.948.283-1.132.848-.184.566-.276 1.437-.276 2.613zm1.408-5.044c1.244 0 2.115.438 2.613 1.313.503.876.754 2.12.754 3.731 0 1.612-.251 2.853-.754 3.725-.498.871-1.37 1.306-2.613 1.306-1.244 0-2.117-.435-2.62-1.306-.498-.872-.748-2.113-.748-3.725 0-1.611.25-2.855.748-3.731.503-.875 1.376-1.313 2.62-1.313z"/>
        <path fill="#667D8A" d="M61.621 158.872c.424 0 .776-.177 1.056-.531.283-.357.424-.888.424-1.596 0-.431-.062-.801-.187-1.111-.236-.596-.667-.894-1.293-.894-.63 0-1.06.314-1.293.944-.125.337-.187.764-.187 1.283 0 .417.062.774.187 1.066.236.559.667.839 1.293.839zm-2.354-4.774h.884v.718c.182-.246.38-.437.596-.571.307-.203.667-.304 1.081-.304.613 0 1.133.237 1.561.708.428.468.642 1.138.642 2.01 0 1.179-.309 2.02-.925 2.525-.39.32-.845.481-1.364.481-.407 0-.749-.09-1.025-.268-.162-.101-.342-.275-.54-.52v2.763h-.91v-7.542zm8.082-.146c.384 0 .756.09 1.116.272.36.179.635.411.824.698.182.272.303.591.364.954.053.249.08.646.08 1.192h-3.965c.017.549.147.991.39 1.323.242.331.617.496 1.125.496.475 0 .854-.157 1.137-.47.162-.182.276-.392.343-.632h.894c-.023.199-.102.422-.237.668-.131.242-.28.44-.444.595-.276.27-.618.452-1.026.546-.219.053-.466.081-.742.081-.674 0-1.245-.245-1.713-.733-.468-.491-.702-1.178-.702-2.061 0-.868.236-1.574.707-2.116.472-.543 1.088-.813 1.85-.813zm1.45 2.394c-.037-.394-.123-.709-.258-.944-.249-.438-.665-.657-1.248-.657-.417 0-.767.152-1.05.454-.283.3-.433.682-.45 1.147H68.8zm2.08-2.273h.865v.935c.07-.182.244-.403.52-.662.276-.263.594-.394.955-.394.016 0 .045.001.086.005l.207.02v.96c-.054-.01-.105-.017-.152-.021-.044-.003-.093-.005-.147-.005-.457 0-.81.148-1.055.445-.246.293-.369.631-.369 1.016v3.111h-.91v-5.41zm6.84 3.712c.027.304.103.536.228.698.228.293.626.439 1.192.439.336 0 .633-.072.889-.217.255-.148.383-.376.383-.682 0-.232-.102-.409-.308-.531-.13-.074-.39-.159-.777-.257l-.723-.182c-.461-.114-.801-.243-1.02-.384-.39-.246-.586-.585-.586-1.02 0-.512.183-.926.55-1.243.37-.316.868-.474 1.49-.474.816 0 1.403.239 1.763.717.226.303.335.629.329.979h-.859c-.017-.205-.09-.392-.217-.56-.209-.239-.57-.359-1.086-.359-.344 0-.605.066-.783.197-.175.132-.263.305-.263.521 0 .235.116.424.349.565.135.085.333.159.596.223l.6.146c.654.158 1.092.311 1.314.46.354.232.53.597.53 1.096 0 .481-.183.898-.55 1.248-.364.35-.92.525-1.667.525-.805 0-1.376-.182-1.712-.546-.334-.366-.512-.82-.536-1.359h.874zm6.885-3.833c.384 0 .756.09 1.116.272.36.179.635.411.824.698.182.272.303.591.363.954.054.249.08.646.08 1.192h-3.964c.017.549.147.991.389 1.323.242.331.618.496 1.126.496.475 0 .854-.157 1.137-.47.162-.182.276-.392.343-.632h.894c-.023.199-.103.422-.237.668-.131.242-.28.44-.445.595-.276.27-.618.452-1.025.546-.219.053-.466.081-.742.081-.674 0-1.245-.245-1.713-.733-.468-.491-.702-1.178-.702-2.061 0-.868.236-1.574.707-2.116.472-.543 1.088-.813 1.849-.813zm1.45 2.394c-.037-.394-.123-.709-.258-.944-.25-.438-.665-.657-1.248-.657-.417 0-.767.152-1.05.454-.283.3-.433.682-.45 1.147h3.006zm2.596 1.439c.027.304.103.536.228.698.228.293.625.439 1.191.439.337 0 .634-.072.89-.217.256-.148.383-.376.383-.682 0-.232-.102-.409-.308-.531-.131-.074-.39-.159-.778-.257l-.722-.182c-.462-.114-.801-.243-1.02-.384-.39-.246-.586-.585-.586-1.02 0-.512.183-.926.55-1.243.37-.316.868-.474 1.49-.474.816 0 1.403.239 1.763.717.226.303.335.629.329.979h-.86c-.016-.205-.089-.392-.216-.56-.209-.239-.571-.359-1.087-.359-.343 0-.604.066-.782.197-.175.132-.263.305-.263.521 0 .235.116.424.349.565.134.085.333.159.596.223l.6.146c.654.158 1.092.311 1.314.46.354.232.53.597.53 1.096 0 .481-.183.898-.55 1.248-.364.35-.92.525-1.667.525-.805 0-1.376-.182-1.713-.546-.333-.366-.511-.82-.535-1.359h.874zm5.172 0c.027.304.103.536.228.698.228.293.626.439 1.191.439.337 0 .634-.072.89-.217.256-.148.384-.376.384-.682 0-.232-.103-.409-.308-.531-.132-.074-.391-.159-.779-.257l-.722-.182c-.461-.114-.8-.243-1.02-.384-.39-.246-.586-.585-.586-1.02 0-.512.184-.926.55-1.243.37-.316.868-.474 1.49-.474.816 0 1.403.239 1.763.717.226.303.336.629.329.979h-.859c-.017-.205-.09-.392-.217-.56-.209-.239-.57-.359-1.086-.359-.343 0-.604.066-.783.197-.175.132-.263.305-.263.521 0 .235.117.424.35.565.134.085.332.159.595.223l.6.146c.654.158 1.092.311 1.315.46.353.232.53.597.53 1.096 0 .481-.184.898-.551 1.248-.364.35-.919.525-1.666.525-.806 0-1.376-.182-1.713-.546-.333-.366-.512-.82-.536-1.359h.874zm4.632-3.687h.924v5.385h-.924v-5.385zm0-2.035h.924v1.03h-.924v-1.03zm4.45 6.834c.603 0 1.016-.227 1.238-.682.225-.458.338-.967.338-1.525 0-.506-.08-.917-.242-1.233-.256-.498-.697-.748-1.323-.748-.556 0-.96.213-1.212.637-.253.424-.38.936-.38 1.535 0 .576.127 1.056.38 1.44.252.384.652.576 1.201.576zm.036-4.981c.697 0 1.286.232 1.768.698.482.464.722 1.148.722 2.05 0 .872-.212 1.593-.636 2.162-.425.569-1.083.854-1.975.854-.745 0-1.335-.251-1.773-.753-.438-.505-.657-1.182-.657-2.03 0-.91.231-1.634.692-2.173.461-.539 1.081-.808 1.859-.808zm3.576.157h.864v.768c.255-.317.527-.544.813-.682.286-.138.604-.207.954-.207.769 0 1.287.268 1.556.803.149.292.223.712.223 1.258v3.47h-.924v-3.41c0-.33-.049-.595-.147-.798-.162-.336-.455-.505-.879-.505-.216 0-.392.022-.53.065-.249.074-.468.223-.657.445-.152.179-.251.364-.298.556-.044.188-.066.46-.066.813v2.834h-.909v-5.41z"/>
        <path fill="#2F98D0" d="M152.759 146.552h-2.069v4.138h-4.138v2.069h4.138v4.138h2.069v-4.138h4.138v-2.069h-4.138v-4.138zm-1.035-5.173c-5.71 0-10.345 4.635-10.345 10.345 0 5.711 4.635 10.345 10.345 10.345 5.71 0 10.345-4.634 10.345-10.345 0-5.71-4.635-10.345-10.345-10.345zm0 18.621c-4.562 0-8.276-3.714-8.276-8.276 0-4.562 3.714-8.276 8.276-8.276 4.562 0 8.276 3.714 8.276 8.276 0 4.562-3.714 8.276-8.276 8.276z"/>
        <path fill="#B8DCEF" d="M108.19 24.138H34.914c-5.952 0-10.776 4.824-10.776 10.776 0 5.951 4.824 10.776 10.776 10.776h73.276c5.951 0 10.776-4.825 10.776-10.776 0-5.952-4.825-10.776-10.776-10.776z"/>
        <path fill="#F0F3F4" d="M164.655 66.38H28.448c-2.38 0-4.31 1.93-4.31 4.31s1.93 4.31 4.31 4.31h136.207c2.381 0 4.311-1.93 4.311-4.31s-1.93-4.31-4.311-4.31zM164.655 78.448H28.448c-2.38 0-4.31 1.93-4.31 4.31 0 2.381 1.93 4.311 4.31 4.311h136.207c2.381 0 4.311-1.93 4.311-4.31s-1.93-4.31-4.311-4.31zM164.655 90.517H28.448c-2.38 0-4.31 1.93-4.31 4.31 0 2.381 1.93 4.311 4.31 4.311h136.207c2.381 0 4.311-1.93 4.311-4.31s-1.93-4.31-4.311-4.31zM164.655 102.586H28.448c-2.38 0-4.31 1.93-4.31 4.311 0 2.38 1.93 4.31 4.31 4.31h136.207c2.381 0 4.311-1.93 4.311-4.31 0-2.381-1.93-4.311-4.311-4.311z"/>
    </g>
    <defs>
        <clipPath id="clip0">
            <path fill="#fff" d="M0 0H200V200H0z"/>
        </clipPath>
        <filter id="filter0_d" width="204.414" height="204.414" x="-1.655" y="-1.655" color-interpolation-filters="sRGB" filterUnits="userSpaceOnUse">
            <feFlood flood-opacity="0" result="BackgroundImageFix"/>
            <feColorMatrix in="SourceAlpha" values="0 0 0 0 0 0 0 0 0 0 0 0 0 0 0 0 0 0 127 0"/>
            <feOffset dx="4" dy="4"/>
            <feGaussianBlur stdDeviation="8"/>
            <feColorMatrix values="0 0 0 0 0 0 0 0 0 0 0 0 0 0 0 0 0 0 0.1 0"/>
            <feBlend in2="BackgroundImageFix" result="effect1_dropShadow"/>
            <feBlend in="SourceGraphic" in2="effect1_dropShadow" result="shape"/>
        </filter>
    </defs>
</svg>
