<svg xmlns="http://www.w3.org/2000/svg" width="212" height="168" fill="none" viewBox="0 0 212 168">
    <g filter="url(#filter0_d)">
        <g clip-path="url(#clip0)">
            <path fill="#fff" d="M13.622 12c-.43 0-.842.172-1.146.478-.305.306-.476.72-.476 1.152v132.269c0 .433.171.847.476 1.152.303.306.716.478 1.146.478h176.756c.43 0 .842-.172 1.146-.478.304-.305.475-.719.476-1.152V13.629c-.001-.431-.172-.845-.476-1.151-.304-.306-.716-.477-1.146-.478H13.622z"/>
            <path fill="#fff" d="M17.19 17.216v125.098H186.81V17.216H17.189z"/>
            <path fill="#fff" stroke="#F0F3F4" stroke-width="2" d="M142.202 52.605V24.98h37.346v27.625h-37.346z"/>
            <path fill="#fff" d="M142.337 25.12v27.345h37.076V25.12h-37.076z"/>
            <path fill="#F0F3F4" d="M141.557 64.713c-.094 0-.184.038-.251.104-.066.067-.103.158-.104.252v28.912c.001.095.038.185.104.252.067.067.157.104.251.104h38.636c.094 0 .184-.037.251-.104.066-.067.103-.157.104-.252V65.07c-.001-.094-.038-.185-.104-.252-.067-.066-.157-.104-.251-.104h-38.636z"/>
            <path fill="#fff" d="M142.337 65.853v27.344h37.076V65.853h-37.076z"/>
            <path fill="#F0F3F4" d="M141.557 105.446c-.094 0-.184.037-.251.104-.066.067-.103.157-.104.252v28.912c.001.094.038.185.104.252.067.066.157.104.251.104h38.636c.094 0 .184-.038.251-.104.066-.067.103-.158.104-.252v-28.912c-.001-.095-.038-.185-.104-.252-.067-.067-.157-.104-.251-.104h-38.636z"/>
            <path fill="#fff" d="M142.337 106.586v27.344h37.076v-27.344h-37.076z"/>
            <path fill="#B8DCEF" d="M172.457 47.193l-7.388-5.195h-.002l-.001.001c-.251-.794-.424-1.612-.517-2.44.694-.635 1.186-1.461 1.416-2.376.029.018.058.038.085.059.647.52 1.877-5.009-.194-6.05 0 0-1.553-3.382-4.53-2.602-2.977.781-4.659 1.952-4.789 3.123-.129 1.17.065 2.927.065 2.927s.179-1.328 1.121-1.798c-.466.534-.808 1.165-1.002 1.847-.194.683-.235 1.4-.12 2.1.115.7.383 1.367.784 1.95.402.584.927 1.071 1.539 1.426-.225.776-.525 1.78-.777 2.519l-2.258 1.128-4.918 3.122s-1.94 2.47-2.589 5.334c-.05.225-.102.45-.157.675h26.234c-.875-2.657-2.002-5.75-2.002-5.75zM170.833 130.839c.505-.324 1.04-.599 1.597-.82l-5.497-6.56-3.633-.935c-.637-.359-1.14-.919-1.432-1.593l1.945-.019.741-4.219c.451-1.227.267-2.303-.741-3.19.181-1.135-.332-1.972-1.69-2.444-1.352-1.178-3.35-1.461-4.549.427-.484-.029-.96.131-1.33.447-.369.315-.603.762-.653 1.247-1.101 1.287.122 6.009.484 7.809l1.933-.02c-.111.666-.436 1.277-.925 1.74l-.026-.026-3.864 1.9-5.497 6.387c.542.214 1.064.479 1.557.791l-.568 2.169h3.934l1.046-1.529h.052l.003-.079.734-1.074c.017.868-.007 1.762-.067 2.682h12.234c-.019-.765-.024-1.524-.024-2.279l1.368 1.996c.103-.151.213-.292.322-.436l.27.719h3.132l-.751-2.871c-.021-.079-.057-.154-.105-.22zM168.099 85.106l-5.194-2.135c-.124-.494-.229-.959-.296-1.368.533-.305 1.001-.714 1.374-1.204.373-.489.645-1.049.8-1.645l.548-.592c.292-.306.515-.67.654-1.07.14-.399.193-.823.157-1.245-.095-.81-.504-1.55-1.137-2.06.212-1.35-.396-2.341-2.007-2.902-1.602-1.397-3.974-1.735-5.395.506-.575-.035-1.14.155-1.579.53-.439.374-.717.904-.776 1.48-1.168 1.366.036 4.09.61 6.177.044.154.132.292.254.396.122.104.272.17.43.188.382.568.885 1.043 1.471 1.393.015.602-.056 1.204-.21 1.787l.005-.182-3.874 1.751-.002-.047-.374.218-.594.268.014.07-.054.03c-.835.486-1.474 1.25-1.807 2.16l-1.991 5.855h17.822c.181-.61.404-1.208.667-1.787l.005-.065 1.583 1.852h4.834l-5.938-8.36z"/>
            <path fill="#fff" stroke="#F0F3F4" d="M89.85 123.176c0 5.519-4.45 9.989-9.934 9.989-5.485 0-9.935-4.47-9.935-9.989 0-5.519 4.45-9.988 9.934-9.988 5.485 0 9.935 4.469 9.935 9.988z"/>
            <path fill="#fff" d="M79.915 131.217c4.419 0 8-3.6 8-8.041 0-4.441-3.581-8.041-8-8.041-4.418 0-8 3.6-8 8.041 0 4.441 3.582 8.041 8 8.041z"/>
            <path fill="#B8DCEF" d="M83.923 127.568c-.048 0-.095-.009-.14-.028-.043-.018-.084-.045-.117-.079l-8.017-8.058c-.065-.069-.101-.161-.1-.257.001-.096.04-.187.107-.254.067-.068.158-.106.253-.108.095-.001.186.035.255.101l8.017 8.058c.05.051.085.116.1.187.014.071.006.145-.021.212-.028.067-.075.124-.134.164-.06.04-.13.062-.203.062zM79.733 124.543l-1.18-1.186c-.006-.006-.015-.011-.025-.012-.009-.002-.019 0-.027.004-.009.004-.016.011-.02.019-.004.009-.006.018-.005.028.048.308.191.592.41.812.22.22.502.365.808.412.01.002.02 0 .028-.004.008-.005.015-.012.02-.021.004-.008.005-.018.003-.027-.001-.01-.005-.018-.012-.025zM80.097 121.803l1.181 1.187c.007.007.016.011.025.013.01.001.02 0 .028-.005.009-.004.016-.011.02-.019.005-.009.006-.018.005-.028-.048-.308-.191-.593-.41-.813-.22-.22-.503-.365-.81-.413-.01-.001-.019 0-.027.005-.009.004-.016.011-.02.02-.004.008-.006.018-.004.028.001.009.005.018.012.025z"/>
            <path fill="#B8DCEF" d="M85.267 123.57c.075-.119.115-.257.115-.398 0-.141-.041-.279-.117-.397-.585-.919-1.355-1.703-2.261-2.302-.918-.614-1.994-.948-3.096-.963-.556.001-1.109.092-1.636.27-.015.005-.028.014-.038.025-.01.012-.018.026-.022.041-.003.015-.003.031.001.046.005.015.013.029.024.04l1.075 1.081c.012.012.026.02.04.024.016.004.032.004.047 0 .365-.089.746-.082 1.108.019.361.102.69.296.956.562.265.267.458.598.56.961.1.364.107.747.018 1.114-.004.015-.004.031 0 .046.005.016.013.03.024.041l1.548 1.556c.016.017.037.026.06.027.023.001.045-.006.063-.021.595-.51 1.111-1.108 1.53-1.772zM79.915 125.37c-.33 0-.658-.075-.955-.22-.298-.146-.559-.357-.764-.619-.204-.261-.347-.566-.417-.891-.07-.325-.067-.662.011-.985.004-.016.004-.032 0-.047-.005-.015-.013-.029-.024-.04l-1.522-1.531c-.016-.016-.038-.026-.06-.027-.023-.001-.046.007-.063.022-.585.509-1.103 1.092-1.541 1.733-.083.119-.128.26-.13.404-.003.145.037.288.115.409.575.919 1.338 1.705 2.238 2.304.92.617 2 .948 3.105.953.561-.001 1.12-.09 1.654-.264.015-.005.028-.013.039-.025.01-.011.018-.025.022-.041.004-.015.003-.031-.001-.046s-.012-.029-.023-.04l-1.081-1.086c-.011-.012-.025-.02-.04-.024-.016-.004-.032-.004-.047 0-.169.041-.342.061-.516.061z"/>
            <path fill="#fff" stroke="#F0F3F4" d="M50.26 123.176c0 5.519-4.451 9.989-9.935 9.989-5.485 0-9.935-4.47-9.935-9.989 0-5.519 4.45-9.988 9.935-9.988 5.484 0 9.934 4.469 9.934 9.988z"/>
            <path fill="#fff" d="M40.325 131.217c4.418 0 8-3.6 8-8.041 0-4.441-3.582-8.041-8-8.041-4.419 0-8 3.6-8 8.041 0 4.441 3.581 8.041 8 8.041z"/>
            <path fill="#B8DCEF" d="M43.398 128.304c-.445 0-1.07-.162-2.004-.687-1.162-.624-2.224-1.422-3.148-2.367-.956-.915-1.755-1.984-2.364-3.162-.838-1.534-.695-2.338-.536-2.682.185-.375.475-.688.835-.9.206-.136.425-.252.652-.348l.063-.027c.075-.043.159-.07.245-.077.086-.008.173.002.255.031.182.088.343.212.475.366.474.534.873 1.131 1.188 1.772.13.223.209.47.233.726-.019.254-.121.494-.29.683l-.089.118c-.173.229-.21.295-.186.413.051.237.43.944 1.052 1.568.622.625 1.305.981 1.542 1.032.123.026.19-.013.425-.194.034-.026.068-.053.105-.079.188-.179.43-.288.689-.31h.001c.259.026.507.114.726.256.41.208 1.346.769 1.756 1.185.154.132.278.294.366.476.028.083.039.17.03.257-.007.087-.033.171-.075.247l-.028.063c-.096.228-.213.447-.348.654-.211.361-.523.653-.897.837-.21.1-.44.151-.673.149z"/>
            <path stroke="#F0F3F4" d="M129.748 123.176c0 5.519-4.45 9.989-9.935 9.989-5.484 0-9.934-4.47-9.934-9.989 0-5.519 4.45-9.988 9.934-9.988 5.485 0 9.935 4.469 9.935 9.988z"/>
            <path fill="#fff" d="M119.813 131.217c4.419 0 8-3.6 8-8.041 0-4.441-3.581-8.041-8-8.041-4.418 0-8 3.6-8 8.041 0 4.441 3.582 8.041 8 8.041z"/>
            <path fill="#B8DCEF" d="M121.271 127.938h-2.915c-.097 0-.19-.039-.258-.108-.068-.068-.107-.162-.107-.259s.039-.19.107-.259c.068-.068.161-.107.258-.107h2.915c.096 0 .189.039.258.107.068.069.106.162.106.259s-.038.191-.106.259c-.069.069-.162.108-.258.108zM119.813 126.106c-.869-.001-1.703-.348-2.318-.966-.614-.618-.96-1.456-.961-2.33v-.733c0-.097.038-.19.107-.259.068-.068.161-.107.257-.107.097 0 .19.039.258.107.068.069.107.162.107.259v.733c0 .68.269 1.331.747 1.811.479.481 1.127.75 1.803.75.676 0 1.325-.269 1.803-.75.478-.48.747-1.131.748-1.811v-.733c0-.097.038-.19.107-.259.068-.068.161-.107.257-.107.097 0 .19.039.258.107.068.069.107.162.107.259v.733c-.001.874-.347 1.712-.962 2.33-.615.618-1.448.965-2.318.966z"/>
            <path fill="#B8DCEF" d="M119.813 127.937c-.048 0-.095-.009-.139-.027-.044-.019-.085-.046-.118-.08-.034-.034-.061-.074-.079-.119-.019-.044-.028-.092-.028-.14v-1.831c0-.097.038-.19.107-.259.068-.069.161-.107.257-.107.097 0 .19.038.258.107s.107.162.107.259v1.831c0 .048-.01.096-.028.14-.018.045-.045.085-.079.119-.034.034-.074.061-.118.08-.044.018-.092.027-.14.027zM119.813 124.641c-.24 0-.478-.05-.699-.144-.222-.095-.422-.234-.589-.408-.341-.346-.533-.814-.534-1.302v-2.541c-.001-.239.045-.477.136-.699.09-.221.223-.423.391-.593.168-.17.367-.305.587-.398.22-.092.456-.14.694-.141h.014c.24-.003.478.043.701.134.222.091.424.226.593.396.17.171.304.374.395.597.09.224.136.463.133.704v2.541c.003.488-.188.958-.529 1.306-.342.347-.807.544-1.293.548z"/>
            <path fill="#fff" stroke="#F0F3F4" stroke-width="2" d="M26.701 25.037H130.43v77.607H26.701V25.037zm103.768-.042l.006-.006h0l-.006.006z"/>
            <path fill="#fff" d="M28.75 27.101v73.479h99.631V27.101H28.749z"/>
            <path fill="#B8DCEF" d="M97.544 100.58l.18-.706-1.558-6.485-.152-.636-.114-.476.182-.062 9.201-3.081.118 1.711.667 9.735h-8.524zM60.964 93.39l-1.557 6.484.18.706h-8.525l.667-9.735.118-1.711 9.384 3.143-.267 1.112zM86.255 67.387l-14.858 1.572c1.56-4.038 1.272-8.673 0-13.624h10.687c.702 4.225 2.112 8.3 4.17 12.052z"/>
            <path fill="#B8DCEF" d="M76.87 61.623c4.463 0 8.081-3.636 8.081-8.122s-3.617-8.122-8.08-8.122-8.08 3.636-8.08 8.122 3.617 8.122 8.08 8.122zM100.07 70.531c-1.705 7.578-3.11 14.782-3.988 21.684-.024.18-.047.36-.068.538-.029.234-.058.467-.084.701-.287 2.411-.504 4.787-.65 7.126H62.758c.034-2.206-.04-4.463-.202-6.75-.56-7.848-2.207-16.054-4.454-23.823L58.12 70l14.217-4.936.104-.035c4.098 1.901 8.178 1.989 12.226-.897l.038-.025 13.252 5.541.005.002 2.109.881z"/>
            <path fill="#B8DCEF" d="M109.714 89.657l-16.16 4.454 3.909-24.628 2.494.835c.915.307 1.739.838 2.397 1.547.658.708 1.129 1.57 1.371 2.508l5.989 15.284zM47.416 89.657l16.161 4.454-3.91-24.628-2.494.835c-.915.307-1.738.838-2.397 1.547-.658.708-1.13 1.57-1.371 2.508l-5.989 15.284zM76.351 39.762c-1.374.063-2.713.46-3.903 1.155-.273.16-.147.737-.4.925-.318.237-1.01.093-1.291.37-.91.894-1.61 1.98-2.051 3.179-.44 1.199-.61 2.482-.495 3.755l.449 4.486 1.059-1.164c1.899-2.116 4.535-3.417 7.361-3.633.12-.008.24-.014.361-.019l-.814-1.433 1.416 1.423c.645.007 1.29.06 1.929.158l-1.084-1.906 2.079 2.09c.85.188 1.645.574 2.32 1.127.674.553 1.21 1.257 1.564 2.057l.23.514.26-4.28c.025-1.183-.192-2.358-.638-3.454-.445-1.095-1.11-2.086-1.954-2.912-.843-.825-1.846-1.468-2.946-1.888-1.101-.42-2.276-.606-3.452-.55z"/>
            <path fill="#F0F3F4" d="M68.873 54.852c.357 0 .646-.69.646-1.543 0-.852-.29-1.542-.646-1.542-.357 0-.646.69-.646 1.542 0 .852.289 1.543.646 1.543zM85.026 54.365c.357 0 .647-.69.647-1.543 0-.852-.29-1.542-.647-1.542-.356 0-.646.69-.646 1.542 0 .852.29 1.543.647 1.543z"/>
        </g>
    </g>
    <defs>
        <clipPath id="clip0">
            <rect width="180" height="135.529" x="12" y="12" fill="#fff" rx="10"/>
        </clipPath>
        <filter id="filter0_d" width="212" height="167.529" x="0" y="0" color-interpolation-filters="sRGB" filterUnits="userSpaceOnUse">
            <feFlood flood-opacity="0" result="BackgroundImageFix"/>
            <feColorMatrix in="SourceAlpha" values="0 0 0 0 0 0 0 0 0 0 0 0 0 0 0 0 0 0 127 0"/>
            <feOffset dx="4" dy="4"/>
            <feGaussianBlur stdDeviation="8"/>
            <feColorMatrix values="0 0 0 0 0 0 0 0 0 0 0 0 0 0 0 0 0 0 0.1 0"/>
            <feBlend in2="BackgroundImageFix" result="effect1_dropShadow"/>
            <feBlend in="SourceGraphic" in2="effect1_dropShadow" result="shape"/>
        </filter>
    </defs>
</svg>
