<svg xmlns="http://www.w3.org/2000/svg" width="232" height="289" fill="none" viewBox="0 0 232 289">
    <g filter="url(#filter0_d)">
        <path fill="#fff" d="M212 12H12v257h200V12z"/>
        <path fill="#D5EAF6" d="M112 48c7.732 0 14-6.268 14-14s-6.268-14-14-14-14 6.268-14 14 6.268 14 14 14z"/>
        <path fill="#F0F3F4" d="M132 54H92c-2.21 0-4 1.79-4 4s1.79 4 4 4h40c2.209 0 4-1.79 4-4s-1.791-4-4-4zM182 68H42c-2.21 0-4 1.79-4 4s1.79 4 4 4h140c2.209 0 4-1.79 4-4s-1.791-4-4-4zM182 80H42c-2.21 0-4 1.79-4 4s1.79 4 4 4h140c2.209 0 4-1.79 4-4s-1.791-4-4-4zM182 92H42c-2.21 0-4 1.79-4 4s1.79 4 4 4h140c2.209 0 4-1.79 4-4s-1.791-4-4-4z"/>
        <path fill="#D5EAF6" d="M78 125H42c-3.314 0-6 2.686-6 6v8c0 3.314 2.686 6 6 6h36c3.314 0 6-2.686 6-6v-8c0-3.314-2.686-6-6-6zM130 125H94c-3.314 0-6 2.686-6 6v8c0 3.314 2.686 6 6 6h36c3.314 0 6-2.686 6-6v-8c0-3.314-2.686-6-6-6zM182 125h-36c-3.314 0-6 2.686-6 6v8c0 3.314 2.686 6 6 6h36c3.314 0 6-2.686 6-6v-8c0-3.314-2.686-6-6-6zM78 153H42c-3.314 0-6 2.686-6 6v8c0 3.314 2.686 6 6 6h36c3.314 0 6-2.686 6-6v-8c0-3.314-2.686-6-6-6zM130 153H94c-3.314 0-6 2.686-6 6v8c0 3.314 2.686 6 6 6h36c3.314 0 6-2.686 6-6v-8c0-3.314-2.686-6-6-6zM182 153h-36c-3.314 0-6 2.686-6 6v8c0 3.314 2.686 6 6 6h36c3.314 0 6-2.686 6-6v-8c0-3.314-2.686-6-6-6zM78 194H42c-3.314 0-6 2.686-6 6v8c0 3.314 2.686 6 6 6h36c3.314 0 6-2.686 6-6v-8c0-3.314-2.686-6-6-6zM130 194H94c-3.314 0-6 2.686-6 6v8c0 3.314 2.686 6 6 6h36c3.314 0 6-2.686 6-6v-8c0-3.314-2.686-6-6-6zM182 194h-36c-3.314 0-6 2.686-6 6v8c0 3.314 2.686 6 6 6h36c3.314 0 6-2.686 6-6v-8c0-3.314-2.686-6-6-6zM78 222H42c-3.314 0-6 2.686-6 6v8c0 3.314 2.686 6 6 6h36c3.314 0 6-2.686 6-6v-8c0-3.314-2.686-6-6-6zM130 222H94c-3.314 0-6 2.686-6 6v8c0 3.314 2.686 6 6 6h36c3.314 0 6-2.686 6-6v-8c0-3.314-2.686-6-6-6zM182 222h-36c-3.314 0-6 2.686-6 6v8c0 3.314 2.686 6 6 6h36c3.314 0 6-2.686 6-6v-8c0-3.314-2.686-6-6-6z"/>
        <path fill="#4C5D67" d="M36.513 182.696h1.936c.383 0 .692.109.926.325.234.215.352.518.352.909 0 .336-.105.629-.314.879-.209.248-.53.372-.964.372h-1.353V187h-.583v-4.304zm2.625 1.237c0-.317-.117-.532-.352-.645-.129-.06-.306-.091-.53-.091h-1.16v1.491h1.16c.262 0 .474-.055.636-.167.164-.111.246-.307.246-.588zm1.265-.071h.501v.542c.041-.105.142-.233.302-.383.16-.153.345-.229.554-.229l.05.003.12.012v.556c-.032-.006-.06-.009-.088-.011-.026-.002-.054-.003-.085-.003-.266 0-.47.086-.612.257-.143.17-.214.367-.214.589V187h-.528v-3.138zm1.984.015h.536V187h-.536v-3.123zm0-1.181h.536v.598h-.536v-.598zm1.593 1.166l.838 2.555.876-2.555h.578L45.088 187h-.563l-1.157-3.138h.612zm3.147 2.303c0 .152.056.273.167.36.111.088.243.132.396.132.185 0 .365-.043.538-.129.294-.142.44-.376.44-.7v-.425c-.065.041-.148.076-.25.103-.1.027-.2.047-.298.058l-.32.041c-.19.026-.334.066-.43.121-.162.091-.243.238-.243.439zm1.277-1.066c.121-.016.202-.067.243-.153.024-.047.036-.114.036-.202 0-.18-.065-.309-.194-.39-.127-.082-.31-.123-.548-.123-.275 0-.47.075-.586.223-.064.082-.106.204-.125.366h-.493c.01-.386.135-.655.375-.805.242-.153.523-.229.841-.229.37 0 .67.07.9.211.228.141.342.359.342.656v1.808c0 .055.011.099.032.132.024.033.072.05.144.05l.08-.003.093-.015v.39c-.082.023-.145.038-.188.044-.043.005-.101.008-.175.008-.182 0-.314-.064-.396-.193-.043-.068-.073-.165-.09-.29-.108.141-.262.263-.464.366-.2.104-.422.155-.665.155-.29 0-.529-.087-.714-.263-.184-.178-.276-.4-.276-.665 0-.291.091-.517.273-.677.181-.16.42-.259.715-.296l.84-.105zm1.764-2.113h.533v.876h.501v.431h-.5v2.048c0 .109.036.182.11.22.041.021.11.032.206.032h.082l.102-.009V187c-.06.018-.124.03-.19.038-.065.008-.135.012-.211.012-.246 0-.413-.063-.501-.188-.088-.127-.132-.291-.132-.492v-2.077h-.425v-.431h.425v-.876zm2.871.806c.223 0 .438.053.648.158.209.104.368.238.477.404.105.159.176.343.211.554.031.145.047.375.047.692h-2.3c.01.318.085.574.226.767.14.192.358.287.653.287.275 0 .495-.091.66-.272.093-.106.16-.228.198-.366h.519c-.014.115-.06.244-.138.386-.076.141-.162.256-.258.346-.16.156-.358.262-.594.316-.127.032-.27.047-.431.047-.39 0-.722-.141-.993-.424-.272-.286-.407-.684-.407-1.196 0-.504.136-.913.41-1.227.273-.315.63-.472 1.072-.472zm.84 1.389c-.02-.229-.07-.411-.148-.548-.145-.254-.386-.381-.724-.381-.242 0-.445.088-.61.264-.164.173-.25.395-.26.665h1.743zm3.177.835c.015.175.06.31.132.404.132.17.363.255.69.255.196 0 .368-.042.517-.126.148-.086.222-.218.222-.396 0-.134-.06-.237-.178-.307-.077-.043-.227-.093-.452-.15l-.419-.105c-.267-.067-.465-.141-.591-.223-.227-.142-.34-.34-.34-.592 0-.297.106-.537.32-.72.214-.184.502-.276.863-.276.473 0 .814.139 1.023.416.13.176.194.366.19.569h-.498c-.01-.119-.052-.228-.126-.326-.12-.138-.33-.208-.63-.208-.199 0-.35.039-.454.115-.101.076-.152.176-.152.301 0 .137.067.247.202.329.078.048.193.091.346.128l.348.085c.38.092.633.181.762.267.205.135.308.347.308.636 0 .279-.107.52-.32.723-.21.204-.533.305-.967.305-.466 0-.797-.105-.993-.316-.193-.213-.297-.476-.31-.788h.507zm3.993-2.224c.223 0 .438.053.647.158.21.104.369.238.478.404.105.159.176.343.21.554.032.145.048.375.048.692h-2.3c.01.318.085.574.225.767.141.192.359.287.654.287.275 0 .495-.091.659-.272.094-.106.16-.228.2-.366h.518c-.014.115-.06.244-.138.386-.076.141-.162.256-.258.346-.16.156-.358.262-.594.316-.128.032-.271.047-.431.047-.39 0-.722-.141-.993-.424-.272-.286-.408-.684-.408-1.196 0-.504.137-.913.41-1.227.274-.315.631-.472 1.073-.472zm.84 1.389c-.02-.229-.07-.411-.149-.548-.144-.254-.386-.381-.723-.381-.243 0-.446.088-.61.264-.164.173-.25.395-.26.665h1.743zm1.506.835c.016.175.06.31.132.404.133.17.364.255.692.255.195 0 .367-.042.515-.126.149-.086.223-.218.223-.396 0-.134-.06-.237-.179-.307-.076-.043-.226-.093-.45-.15l-.42-.105c-.267-.067-.465-.141-.592-.223-.226-.142-.34-.34-.34-.592 0-.297.107-.537.32-.72.215-.184.503-.276.864-.276.473 0 .814.139 1.023.416.13.176.194.366.19.569h-.498c-.01-.119-.052-.228-.126-.326-.121-.138-.331-.208-.63-.208-.2 0-.35.039-.454.115-.102.076-.152.176-.152.301 0 .137.067.247.202.329.078.048.193.091.346.128l.348.085c.38.092.633.181.762.267.205.135.307.347.307.636 0 .279-.106.52-.319.723-.21.204-.533.305-.967.305-.466 0-.797-.105-.993-.316-.193-.213-.297-.476-.31-.788h.506zm3 0c.016.175.06.31.132.404.133.17.364.255.692.255.195 0 .367-.042.515-.126.149-.086.223-.218.223-.396 0-.134-.06-.237-.179-.307-.076-.043-.226-.093-.45-.15l-.42-.105c-.267-.067-.465-.141-.592-.223-.226-.142-.34-.34-.34-.592 0-.297.107-.537.32-.72.215-.184.503-.276.864-.276.473 0 .814.139 1.023.416.13.176.194.366.19.569h-.498c-.01-.119-.052-.228-.126-.326-.121-.138-.331-.208-.63-.208-.2 0-.35.039-.454.115-.102.076-.152.176-.152.301 0 .137.067.247.202.329.078.048.193.091.346.128l.348.085c.38.092.633.181.762.267.205.135.307.347.307.636 0 .279-.106.52-.319.723-.21.204-.533.305-.967.305-.466 0-.797-.105-.993-.316-.193-.213-.297-.476-.31-.788h.507zm2.687-2.139h.536V187h-.536v-3.123zm0-1.181h.536v.598h-.536v-.598zm2.581 3.964c.35 0 .589-.132.718-.395.13-.266.196-.561.196-.885 0-.293-.047-.531-.14-.715-.149-.289-.405-.434-.768-.434-.322 0-.557.123-.703.37-.147.246-.22.543-.22.89 0 .334.073.613.22.835.146.223.379.334.697.334zm.02-2.889c.405 0 .747.135 1.026.405.28.269.419.666.419 1.189 0 .506-.123.924-.37 1.254-.245.33-.627.495-1.145.495-.431 0-.774-.145-1.028-.436-.254-.293-.38-.686-.38-1.178 0-.527.133-.947.4-1.26.268-.312.627-.469 1.079-.469zm2.075.091h.5v.446c.15-.184.306-.316.473-.396.166-.08.35-.12.553-.12.445 0 .746.155.902.466.086.17.13.413.13.729V187h-.537v-1.978c0-.191-.028-.345-.085-.462-.093-.196-.263-.293-.51-.293-.124 0-.227.012-.307.038-.145.043-.271.129-.38.257-.089.104-.146.211-.174.323-.025.109-.038.266-.038.471V187h-.527v-3.138zm3.653 2.154c.016.175.06.31.132.404.133.17.363.255.691.255.196 0 .368-.042.516-.126.148-.086.223-.218.223-.396 0-.134-.06-.237-.18-.307-.075-.043-.226-.093-.45-.15l-.42-.105c-.267-.067-.464-.141-.591-.223-.226-.142-.34-.34-.34-.592 0-.297.107-.537.32-.72.214-.184.502-.276.864-.276.472 0 .813.139 1.022.416.131.176.195.366.19.569h-.497c-.01-.119-.052-.228-.126-.326-.121-.138-.331-.208-.63-.208-.2 0-.35.039-.454.115-.102.076-.153.176-.153.301 0 .137.068.247.203.329.078.048.193.091.345.128l.349.085c.379.092.633.181.761.267.206.135.308.347.308.636 0 .279-.106.52-.32.723-.21.204-.532.305-.966.305-.467 0-.798-.105-.993-.316-.194-.213-.297-.476-.31-.788h.506zM38.317 113.585c.405 0 .754.078 1.05.234.427.225.689.619.784 1.181h-.577c-.07-.314-.216-.543-.436-.686-.221-.144-.5-.216-.835-.216-.399 0-.735.149-1.008.448-.272.299-.407.744-.407 1.336 0 .512.112.929.337 1.251.224.32.59.48 1.098.48.389 0 .71-.112.964-.337.256-.226.387-.591.393-1.095h-1.348v-.484h1.89V118h-.375l-.14-.554c-.198.217-.373.367-.525.451-.256.145-.581.217-.976.217-.51 0-.948-.165-1.315-.495-.4-.414-.601-.982-.601-1.705 0-.721.195-1.294.586-1.72.371-.406.852-.609 1.441-.609zm2.754 1.277h.501v.542c.041-.105.142-.233.302-.383.16-.153.345-.229.554-.229l.05.003.12.012v.556c-.032-.006-.06-.009-.088-.011-.026-.002-.054-.003-.085-.003-.266 0-.47.086-.612.257-.143.17-.214.367-.214.589V118h-.528v-3.138zm3.229 2.798c.35 0 .589-.132.718-.395.13-.266.196-.561.196-.885 0-.293-.047-.531-.14-.715-.15-.289-.405-.434-.768-.434-.323 0-.557.123-.703.37-.147.246-.22.543-.22.89 0 .334.073.613.22.835.146.223.378.334.697.334zm.02-2.889c.405 0 .746.135 1.026.405.279.269.419.666.419 1.189 0 .506-.123.924-.37 1.254-.246.33-.627.495-1.145.495-.432 0-.774-.145-1.028-.436-.254-.293-.381-.686-.381-1.178 0-.527.134-.947.401-1.26.268-.312.627-.469 1.078-.469zm2.602.091v2.083c0 .16.025.291.076.393.094.187.269.281.525.281.367 0 .617-.164.75-.492.072-.176.108-.417.108-.724v-1.541h.527V118h-.498l.006-.463c-.068.119-.153.22-.255.302-.201.164-.445.246-.732.246-.448 0-.752-.149-.914-.448-.088-.16-.132-.374-.132-.642v-2.133h.539zm4.137 2.784c.246 0 .45-.103.612-.308.164-.207.246-.516.246-.926 0-.25-.036-.465-.108-.644-.137-.346-.387-.519-.75-.519-.366 0-.616.183-.75.548-.073.195-.109.443-.109.744 0 .242.036.448.109.618.136.324.386.487.75.487zm-1.366-2.769h.513v.416c.105-.143.22-.253.346-.331.178-.117.386-.176.627-.176.355 0 .657.137.905.41.248.272.372.66.372 1.166 0 .684-.179 1.172-.536 1.465-.227.186-.49.278-.791.278-.236 0-.435-.051-.595-.155-.094-.058-.198-.159-.313-.302v1.603h-.528v-4.374zm5.365 2.139c.015.175.06.31.132.404.132.17.363.255.69.255.196 0 .368-.042.517-.126.148-.086.222-.218.222-.396 0-.134-.06-.237-.179-.307-.076-.043-.226-.093-.45-.15l-.42-.105c-.267-.067-.465-.141-.592-.223-.226-.142-.34-.34-.34-.592 0-.297.107-.537.32-.72.215-.184.503-.276.864-.276.473 0 .814.139 1.023.416.13.176.194.366.19.569h-.498c-.01-.119-.052-.228-.126-.326-.121-.138-.33-.208-.63-.208-.199 0-.35.039-.454.115-.101.076-.152.176-.152.301 0 .137.067.247.202.329.078.048.193.091.346.128l.348.085c.38.092.633.181.762.267.205.135.308.347.308.636 0 .279-.107.52-.32.723-.21.204-.533.305-.966.305-.467 0-.798-.105-.994-.316-.193-.213-.296-.476-.31-.788h.507zm3.993-2.224c.222 0 .438.053.647.158.21.104.368.238.478.404.105.159.176.343.21.554.032.145.048.375.048.692h-2.3c.01.318.085.574.225.767.141.192.359.287.654.287.275 0 .495-.091.659-.272.094-.106.16-.228.2-.366h.518c-.014.115-.06.244-.138.386-.076.141-.162.256-.258.346-.16.156-.358.262-.595.316-.127.032-.27.047-.43.047-.39 0-.722-.141-.993-.424-.272-.286-.408-.684-.408-1.196 0-.504.137-.913.41-1.227.274-.315.631-.472 1.073-.472zm.84 1.389c-.02-.229-.07-.411-.149-.548-.144-.254-.386-.381-.723-.381-.243 0-.446.088-.61.264-.164.173-.25.395-.26.665h1.743zm1.507.835c.015.175.059.31.131.404.133.17.364.255.692.255.195 0 .367-.042.515-.126.149-.086.223-.218.223-.396 0-.134-.06-.237-.179-.307-.076-.043-.226-.093-.45-.15l-.42-.105c-.267-.067-.465-.141-.592-.223-.226-.142-.34-.34-.34-.592 0-.297.107-.537.32-.72.215-.184.503-.276.864-.276.473 0 .814.139 1.023.416.13.176.194.366.19.569h-.498c-.01-.119-.052-.228-.126-.326-.121-.138-.331-.208-.63-.208-.2 0-.35.039-.454.115-.102.076-.152.176-.152.301 0 .137.067.247.202.329.078.048.193.091.346.128l.348.085c.379.092.633.181.762.267.205.135.307.347.307.636 0 .279-.106.52-.319.723-.21.204-.533.305-.967.305-.467 0-.797-.105-.993-.316-.193-.213-.297-.476-.31-.788h.507zm3 0c.015.175.059.31.131.404.133.17.364.255.692.255.195 0 .367-.042.515-.126.149-.086.223-.218.223-.396 0-.134-.06-.237-.179-.307-.076-.043-.226-.093-.45-.15l-.42-.105c-.267-.067-.465-.141-.592-.223-.226-.142-.34-.34-.34-.592 0-.297.107-.537.32-.72.215-.184.503-.276.864-.276.473 0 .814.139 1.023.416.13.176.194.366.19.569h-.498c-.01-.119-.052-.228-.126-.326-.121-.138-.331-.208-.63-.208-.2 0-.35.039-.454.115-.102.076-.152.176-.152.301 0 .137.067.247.202.329.078.048.193.091.346.128l.348.085c.379.092.633.181.762.267.205.135.308.347.308.636 0 .279-.107.52-.32.723-.21.204-.533.305-.967.305-.466 0-.797-.105-.993-.316-.193-.213-.297-.476-.31-.788h.506zm2.686-2.139h.536V118h-.536v-3.123zm0-1.181h.536v.598h-.536v-.598zm2.581 3.964c.35 0 .589-.132.718-.395.13-.266.196-.561.196-.885 0-.293-.047-.531-.14-.715-.149-.289-.405-.434-.768-.434-.322 0-.557.123-.703.37-.147.246-.22.543-.22.89 0 .334.073.613.22.835.146.223.379.334.697.334zm.02-2.889c.405 0 .747.135 1.026.405.28.269.419.666.419 1.189 0 .506-.123.924-.37 1.254-.245.33-.627.495-1.145.495-.431 0-.774-.145-1.028-.436-.254-.293-.38-.686-.38-1.178 0-.527.133-.947.4-1.26.268-.312.627-.469 1.079-.469zm2.075.091h.5v.446c.15-.184.306-.316.472-.396.166-.08.351-.12.554-.12.445 0 .746.155.903.466.085.17.128.413.128.729V118h-.536v-1.978c0-.191-.028-.345-.085-.462-.093-.196-.263-.293-.51-.293-.125 0-.227.012-.307.038-.145.043-.272.129-.381.257-.088.104-.145.211-.173.323-.025.109-.038.266-.038.471V118h-.527v-3.138zm3.653 2.154c.016.175.06.31.132.404.133.17.363.255.691.255.196 0 .367-.042.516-.126.148-.086.223-.218.223-.396 0-.134-.06-.237-.18-.307-.075-.043-.226-.093-.45-.15l-.42-.105c-.267-.067-.464-.141-.591-.223-.227-.142-.34-.34-.34-.592 0-.297.107-.537.32-.72.214-.184.502-.276.864-.276.472 0 .813.139 1.022.416.131.176.194.366.19.569h-.497c-.01-.119-.052-.228-.126-.326-.121-.138-.331-.208-.63-.208-.2 0-.35.039-.454.115-.102.076-.153.176-.153.301 0 .137.068.247.202.329.079.048.194.091.346.128l.349.085c.379.092.633.181.761.267.206.135.308.347.308.636 0 .279-.106.52-.32.723-.21.204-.532.305-.966.305-.467 0-.798-.105-.993-.316-.194-.213-.297-.476-.31-.788h.506z"/>
    </g>
    <defs>
        <filter id="filter0_d" width="232" height="289" x="0" y="0" color-interpolation-filters="sRGB" filterUnits="userSpaceOnUse">
            <feFlood flood-opacity="0" result="BackgroundImageFix"/>
            <feColorMatrix in="SourceAlpha" values="0 0 0 0 0 0 0 0 0 0 0 0 0 0 0 0 0 0 127 0"/>
            <feOffset dx="4" dy="4"/>
            <feGaussianBlur stdDeviation="8"/>
            <feColorMatrix values="0 0 0 0 0 0 0 0 0 0 0 0 0 0 0 0 0 0 0.1 0"/>
            <feBlend in2="BackgroundImageFix" result="effect1_dropShadow"/>
            <feBlend in="SourceGraphic" in2="effect1_dropShadow" result="shape"/>
        </filter>
    </defs>
</svg>
