<svg xmlns="http://www.w3.org/2000/svg" width="324" height="242" fill="none" viewBox="0 0 324 242">
    <g opacity=".1">
        <path fill="#4C5D67" d="M232.943 232.948c2.964 0 5.367-3.145 5.367-7.024 0-3.88-2.403-7.024-5.367-7.024s-5.367 3.144-5.367 7.024c0 3.879 2.403 7.024 5.367 7.024z" opacity=".1"/>
        <path fill="#4C5D67" d="M237.182 195.862c.75-1.305 1.137-2.787 1.122-4.292 0-3.877-2.405-7.027-5.37-7.027-2.966 0-5.37 3.147-5.37 7.027-.011 1.506.379 2.987 1.13 4.292-.735 1.312-1.121 2.79-1.121 4.293 0 1.504.386 2.982 1.121 4.294-.735 1.311-1.121 2.789-1.121 4.292 0 1.503.386 2.981 1.121 4.292-.748 1.307-1.135 2.789-1.121 4.295 0 3.877 2.404 7.024 5.37 7.024 2.965 0 5.37-3.144 5.37-7.024.011-1.504-.38-2.983-1.131-4.286.736-1.311 1.122-2.789 1.122-4.292 0-1.503-.386-2.981-1.122-4.292.737-1.313 1.124-2.793 1.124-4.298s-.387-2.985-1.124-4.298z" opacity=".1"/>
        <path fill="#4C5D67" d="M232.943 190.016c2.964 0 5.367-3.145 5.367-7.024s-2.403-7.024-5.367-7.024-5.367 3.145-5.367 7.024 2.403 7.024 5.367 7.024z" opacity=".1"/>
        <path fill="#4C5D67" d="M232.943 181.432c2.964 0 5.367-3.145 5.367-7.024s-2.403-7.024-5.367-7.024-5.367 3.145-5.367 7.024 2.403 7.024 5.367 7.024z" opacity=".1"/>
        <path fill="#776BFA" d="M253.036 115.651c.735-.934 1.402-1.917 1.999-2.944l-14.106-2.315 15.255.114c1.463-3.183 2.262-6.632 2.346-10.134.085-3.502-.546-6.985-1.854-10.235l-20.466 10.615 18.873-13.872c-1.768-3.055-4.147-5.713-6.988-7.809-2.84-2.096-6.082-3.584-9.524-4.373-3.441-.789-7.008-.86-10.478-.21-3.47.65-6.77 2.006-9.692 3.986-2.923 1.98-5.407 4.541-7.296 7.522-1.89 2.982-3.145 6.32-3.688 9.808-.542 3.488-.361 7.05.534 10.464.894 3.415 2.483 6.609 4.666 9.383-1.143 1.452-2.126 3.023-2.933 4.685l18.309 9.509-19.52-6.562c-1.371 4.051-1.711 8.379-.987 12.594.723 4.215 2.487 8.183 5.131 11.544-2.983 3.792-4.838 8.346-5.354 13.142-.516 4.796.328 9.64 2.436 13.979 2.109 4.339 5.395 7.997 9.485 10.557 4.09 2.559 8.818 3.917 13.643 3.917 4.824 0 9.552-1.358 13.642-3.917 4.09-2.56 7.376-6.218 9.485-10.557 2.108-4.339 2.952-9.183 2.436-13.979-.516-4.796-2.371-9.35-5.354-13.142 3.564-4.53 5.502-10.127 5.502-15.891 0-5.764-1.938-11.361-5.502-15.891v.012z" opacity=".1"/>
        <path fill="#195270" d="M207.115 131.542c-.009 5.765 1.93 11.365 5.502 15.891-2.983 3.792-4.838 8.346-5.354 13.142-.516 4.796.328 9.64 2.436 13.979 2.109 4.339 5.395 7.997 9.485 10.557 4.09 2.559 8.818 3.916 13.643 3.916 4.825 0 9.552-1.357 13.642-3.916 4.09-2.56 7.376-6.218 9.485-10.557 2.108-4.339 2.952-9.183 2.436-13.979-.516-4.796-2.371-9.35-5.354-13.142 3.446-4.363-45.921-18.775-45.921-15.891z" opacity=".1"/>
    </g>
    <g opacity=".1">
        <path fill="#4C5D67" d="M48.99 232.948c2.965 0 5.368-3.145 5.368-7.024 0-3.88-2.403-7.024-5.367-7.024s-5.367 3.144-5.367 7.024c0 3.879 2.403 7.024 5.367 7.024z" opacity=".1"/>
        <path fill="#4C5D67" d="M53.24 195.862c.748-1.306 1.135-2.787 1.121-4.292 0-3.877-2.405-7.027-5.37-7.027-2.966 0-5.37 3.147-5.37 7.027-.013 1.506.377 2.988 1.13 4.292-.735 1.312-1.121 2.79-1.121 4.293 0 1.504.386 2.982 1.121 4.294-.735 1.311-1.121 2.789-1.121 4.292 0 1.503.386 2.981 1.121 4.292-.75 1.306-1.136 2.789-1.121 4.295 0 3.877 2.404 7.024 5.37 7.024 2.965 0 5.37-3.144 5.37-7.024.014-1.506-.374-2.988-1.122-4.295.736-1.311 1.122-2.789 1.122-4.292 0-1.503-.386-2.981-1.122-4.292.736-1.312 1.122-2.79 1.122-4.294 0-1.503-.386-2.981-1.122-4.293h-.009z" opacity=".1"/>
        <path fill="#4C5D67" d="M48.99 190.016c2.965 0 5.368-3.145 5.368-7.024s-2.403-7.024-5.367-7.024-5.367 3.145-5.367 7.024 2.403 7.024 5.367 7.024z" opacity=".1"/>
        <path fill="#4C5D67" d="M48.99 181.432c2.965 0 5.368-3.145 5.368-7.024s-2.403-7.024-5.367-7.024-5.367 3.145-5.367 7.024 2.403 7.024 5.367 7.024z" opacity=".1"/>
        <path fill="#776BFA" d="M28.898 115.651c-.735-.934-1.403-1.917-2-2.944l14.106-2.315-15.254.114c-1.463-3.183-2.262-6.632-2.346-10.134-.085-3.502.546-6.985 1.854-10.235l20.466 10.615L26.851 86.88c1.768-3.055 4.147-5.713 6.987-7.809 2.841-2.096 6.083-3.584 9.524-4.373 3.442-.789 7.009-.86 10.479-.21 3.47.65 6.77 2.006 9.692 3.986 2.923 1.98 5.406 4.541 7.296 7.522 1.89 2.982 3.145 6.32 3.687 9.808.543 3.488.361 7.05-.533 10.464-.895 3.415-2.483 6.609-4.666 9.383 1.143 1.452 2.126 3.023 2.933 4.685l-18.31 9.509 19.52-6.562c1.372 4.051 1.711 8.379.988 12.594-.724 4.215-2.487 8.183-5.131 11.544 2.983 3.792 4.838 8.346 5.354 13.142.516 4.796-.329 9.64-2.437 13.979-2.108 4.339-5.395 7.997-9.484 10.557-4.09 2.559-8.818 3.917-13.643 3.917-4.825 0-9.552-1.358-13.642-3.917-4.09-2.56-7.377-6.218-9.485-10.557-2.108-4.339-2.953-9.183-2.437-13.979.516-4.796 2.372-9.35 5.355-13.142-3.565-4.53-5.502-10.127-5.502-15.891 0-5.764 1.937-11.361 5.502-15.891v.012z" opacity=".1"/>
        <path fill="#195270" d="M74.818 131.542c.01 5.765-1.93 11.365-5.501 15.891 2.983 3.792 4.838 8.346 5.354 13.142.516 4.796-.329 9.64-2.437 13.979-2.108 4.339-5.395 7.997-9.484 10.557-4.09 2.559-8.818 3.916-13.643 3.916-4.825 0-9.552-1.357-13.642-3.916-4.09-2.56-7.377-6.218-9.485-10.557-2.108-4.339-2.953-9.183-2.437-13.979.516-4.796 2.372-9.35 5.354-13.142-3.445-4.363 45.921-18.775 45.921-15.891z" opacity=".1"/>
    </g>
    <g opacity=".1">
        <path fill="#4C5D67" d="M135.242 232.948c2.964 0 5.367-3.145 5.367-7.024 0-3.88-2.403-7.024-5.367-7.024-2.965 0-5.368 3.144-5.368 7.024 0 3.879 2.403 7.024 5.368 7.024z" opacity=".1"/>
        <path fill="#4C5D67" d="M139.49 195.862c.748-1.306 1.134-2.787 1.119-4.292 0-3.877-2.387-7.027-5.37-7.027-2.984 0-5.371 3.147-5.371 7.027-.013 1.506.376 2.987 1.128 4.292-.735 1.312-1.121 2.79-1.121 4.293 0 1.504.386 2.982 1.121 4.294-.735 1.311-1.121 2.789-1.121 4.292 0 1.503.386 2.981 1.121 4.292-.749 1.306-1.137 2.789-1.122 4.295 0 3.877 2.405 7.024 5.371 7.024 2.965 0 5.37-3.144 5.37-7.024.014-1.506-.372-2.988-1.119-4.295.734-1.312 1.119-2.789 1.119-4.292 0-1.503-.385-2.981-1.119-4.292.734-1.312 1.119-2.79 1.119-4.294 0-1.503-.385-2.981-1.119-4.293h-.006z" opacity=".1"/>
        <path fill="#4C5D67" d="M135.242 190.016c2.964 0 5.367-3.145 5.367-7.024s-2.403-7.024-5.367-7.024c-2.965 0-5.368 3.145-5.368 7.024s2.403 7.024 5.368 7.024z" opacity=".1"/>
        <path fill="#4C5D67" d="M135.242 181.432c2.964 0 5.367-3.145 5.367-7.024s-2.403-7.024-5.367-7.024c-2.965 0-5.368 3.145-5.368 7.024s2.403 7.024 5.368 7.024z" opacity=".1"/>
        <path fill="#776BFA" d="M115.16 115.651c-.734-.934-1.402-1.917-1.999-2.944l14.103-2.315-15.251.114c-1.464-3.183-2.262-6.632-2.347-10.134-.084-3.502.547-6.985 1.854-10.235l20.467 10.615-18.876-13.872c1.769-3.052 4.148-5.708 6.989-7.802 2.84-2.094 6.081-3.58 9.522-4.367 3.44-.788 7.005-.858 10.474-.209 3.468.65 6.766 2.007 9.688 3.986 2.921 1.98 5.404 4.539 7.293 7.519 1.89 2.98 3.146 6.316 3.689 9.802.544 3.486.364 7.047-.528 10.46-.893 3.414-2.478 6.607-4.658 9.382 1.142 1.451 2.125 3.022 2.929 4.685l-18.318 9.509 19.521-6.562c1.371 4.051 1.71 8.379.987 12.594-.724 4.215-2.487 8.183-5.131 11.544 2.982 3.792 4.838 8.346 5.354 13.142.516 4.796-.329 9.64-2.437 13.979-2.108 4.339-5.395 7.997-9.485 10.557-4.089 2.559-8.817 3.917-13.642 3.917-4.825 0-9.553-1.358-13.642-3.917-4.09-2.56-7.377-6.218-9.485-10.557-2.108-4.339-2.953-9.183-2.437-13.979.516-4.796 2.372-9.35 5.354-13.142-3.564-4.53-5.501-10.127-5.501-15.891 0-5.764 1.937-11.361 5.501-15.891l.012.012z" opacity=".1"/>
        <path fill="#195270" d="M161.069 131.542c.009 5.765-1.929 11.365-5.501 15.891 2.982 3.792 4.838 8.346 5.354 13.142.516 4.796-.329 9.64-2.437 13.979-2.108 4.339-5.395 7.997-9.485 10.557-4.089 2.559-8.817 3.916-13.642 3.916-4.825 0-9.553-1.357-13.642-3.916-4.09-2.56-7.377-6.218-9.485-10.557-2.108-4.339-2.953-9.183-2.437-13.979.516-4.796 2.372-9.35 5.354-13.142-3.446-4.363 45.921-18.775 45.921-15.891z" opacity=".1"/>
    </g>
    <path fill="#4C5D67" d="M253.341 198.49c.652-1.138.989-2.429.975-3.74 0-3.38-2.088-6.118-4.675-6.118-2.587 0-4.675 2.738-4.675 6.118-.014 1.311.323 2.602.976 3.74-.64 1.143-.976 2.43-.976 3.74s.336 2.597.976 3.74c-.64 1.143-.976 2.431-.976 3.74 0 1.31.336 2.598.976 3.741-.64 1.142-.976 2.43-.976 3.74 0 1.309.336 2.597.976 3.74-.652 1.138-.989 2.429-.976 3.74 0 3.38 2.088 6.121 4.675 6.121 2.587 0 4.675-2.741 4.675-6.121.013-1.311-.323-2.602-.975-3.74.639-1.143.975-2.431.975-3.74 0-1.31-.336-2.598-.975-3.74.639-1.143.975-2.431.975-3.741 0-1.309-.336-2.597-.975-3.74.639-1.143.975-2.43.975-3.74s-.336-2.597-.975-3.74z"/>
    <path fill="#4C5D67" d="M249.641 193.393c2.582 0 4.675-2.741 4.675-6.121 0-3.38-2.093-6.12-4.675-6.12s-4.675 2.74-4.675 6.12 2.093 6.121 4.675 6.121z"/>
    <path fill="#4C5D67" d="M249.641 185.912c2.582 0 4.675-2.74 4.675-6.12s-2.093-6.121-4.675-6.121-4.675 2.741-4.675 6.121c0 3.38 2.093 6.12 4.675 6.12z"/>
    <path fill="#776BFA" d="M232.134 128.604c-.638-.813-1.219-1.669-1.739-2.562l12.286-2.019-13.288.098c-1.274-2.772-1.969-5.775-2.042-8.825-.074-3.049.476-6.082 1.615-8.912l17.826 9.246-16.442-12.089c1.536-2.67 3.606-4.995 6.081-6.829 2.475-1.834 5.301-3.138 8.303-3.83 3.002-.693 6.115-.76 9.143-.195 3.029.565 5.908 1.748 8.459 3.475 2.551 1.727 4.718 3.962 6.365 6.564 1.648 2.603 2.741 5.517 3.211 8.561.47 3.044.307 6.152-.479 9.13-.786 2.978-2.178 5.762-4.088 8.178.995 1.266 1.851 2.635 2.554 4.083l-15.947 8.304 17.006-5.706c1.193 3.529 1.488 7.3.858 10.972-.63 3.672-2.166 7.129-4.468 10.059 2.6 3.302 4.218 7.27 4.668 11.449.451 4.179-.284 8.4-2.121 12.181-1.836 3.781-4.699 6.968-8.263 9.199-3.563 2.23-7.682 3.413-11.887 3.413-4.204 0-8.323-1.183-11.886-3.413-3.564-2.231-6.427-5.418-8.263-9.199-1.837-3.781-2.572-8.002-2.121-12.181.45-4.179 2.068-8.147 4.668-11.449-3.104-3.948-4.791-8.824-4.791-13.846 0-5.021 1.687-9.897 4.791-13.845l-.009-.012z"/>
    <path fill="#195270" d="M272.139 142.449c.008 5.023-1.681 9.901-4.791 13.846 2.6 3.302 4.218 7.27 4.668 11.449.451 4.179-.284 8.4-2.121 12.181-1.836 3.781-4.699 6.969-8.263 9.199-3.563 2.23-7.682 3.413-11.886 3.413-4.205 0-8.324-1.183-11.887-3.413-3.564-2.23-6.427-5.418-8.263-9.199-1.837-3.781-2.572-8.002-2.121-12.181.45-4.179 2.068-8.147 4.668-11.449-3.016-3.812 39.996-16.36 39.996-13.846z" opacity=".1"/>
    <path fill="#4C5D67" d="M82.16 200.667c.692-1.205 1.05-2.572 1.036-3.961 0-3.579-2.217-6.481-4.953-6.481s-4.952 2.902-4.952 6.481c-.014 1.389.344 2.756 1.035 3.961-.679 1.21-1.035 2.574-1.035 3.961s.356 2.751 1.035 3.961c-.679 1.21-1.035 2.574-1.035 3.961s.356 2.751 1.035 3.961c-.679 1.209-1.035 2.572-1.035 3.959s.356 2.75 1.035 3.959c-.69 1.205-1.048 2.573-1.035 3.961 0 3.579 2.216 6.482 4.952 6.482 2.736 0 4.953-2.903 4.953-6.482.013-1.388-.345-2.756-1.035-3.961.678-1.209 1.035-2.572 1.035-3.959s-.357-2.75-1.035-3.959c.678-1.21 1.035-2.574 1.035-3.961s-.357-2.751-1.035-3.961c.678-1.21 1.035-2.574 1.035-3.961s-.357-2.751-1.035-3.961z"/>
    <path fill="#4C5D67" d="M78.243 195.269c2.736 0 4.953-2.902 4.953-6.482 0-3.579-2.218-6.481-4.953-6.481-2.735 0-4.952 2.902-4.952 6.481 0 3.58 2.217 6.482 4.952 6.482z"/>
    <path fill="#4C5D67" d="M78.243 187.347c2.736 0 4.953-2.902 4.953-6.482 0-3.579-2.218-6.481-4.953-6.481-2.735 0-4.952 2.902-4.952 6.481 0 3.58 2.217 6.482 4.952 6.482z"/>
    <path fill="#776BFA" d="M96.782 126.666c.676-.862 1.292-1.769 1.844-2.715l-13.002-2.141 14.073.104c1.35-2.936 2.087-6.117 2.165-9.348.078-3.231-.504-6.444-1.711-9.442l-18.891 9.792 17.41-12.796c-1.633-2.812-3.83-5.259-6.45-7.187s-5.609-3.296-8.781-4.02c-3.172-.724-6.459-.788-9.657-.188-3.197.6-6.237 1.852-8.93 3.677-2.694 1.825-4.983 4.184-6.726 6.93-1.742 2.748-2.9 5.824-3.403 9.037-.503 3.214-.338 6.497.482 9.644.82 3.148 2.28 6.093 4.288 8.653-1.055 1.339-1.962 2.789-2.704 4.324l16.902 8.766-18.011-6.043c-1.264 3.738-1.576 7.731-.908 11.619s2.294 7.548 4.732 10.65c-2.751 3.498-4.463 7.699-4.938 12.124-.476 4.425.303 8.894 2.248 12.897 1.945 4.003 4.977 7.378 8.75 9.739 3.774 2.361 8.135 3.613 12.587 3.613 4.451 0 8.813-1.252 12.586-3.613 3.773-2.361 6.806-5.736 8.75-9.739 1.946-4.003 2.725-8.472 2.249-12.897-.476-4.425-2.187-8.626-4.939-12.124 3.288-4.181 5.075-9.344 5.075-14.661 0-5.318-1.787-10.481-5.075-14.661l-.015.006z"/>
    <path fill="#195270" d="M54.418 141.322c-.008 5.318 1.779 10.483 5.072 14.66-2.752 3.498-4.464 7.699-4.94 12.124-.475 4.425.304 8.894 2.249 12.897s4.978 7.378 8.75 9.739c3.774 2.361 8.135 3.613 12.587 3.613 4.451 0 8.813-1.252 12.586-3.613 3.773-2.361 6.806-5.736 8.75-9.739 1.946-4.003 2.725-8.472 2.249-12.897-.476-4.425-2.187-8.626-4.939-12.124 3.178-4.036-42.364-17.323-42.364-14.66z" opacity=".1"/>
    <path fill="#4C5D67" d="M162 242c89.47 0 162-3.543 162-7.913s-72.53-7.913-162-7.913-162 3.543-162 7.913S72.53 242 162 242z"/>
    <path fill="#195270" d="M161.955 226.1c.067.073.138.143.212.208.126.067.269.096.412.084.022.004.046.004.068 0 .027-.012.048-.032.063-.057l.078-.098M148.682 224.364c-.056.046-.121.079-.191.097-.07.018-.144.02-.215.007" opacity=".1"/>
    <path fill="#776BFA" d="M57.67 225.751l3.974-2.336c-.538-.917-1.225-1.738-2.032-2.431l-7.495 2.333 5.872-3.454c-1.454-.796-3.09-1.2-4.748-1.172-1.657.028-3.279.487-4.705 1.332-1.426.845-2.607 2.047-3.428 3.486-.82 1.44-1.252 3.069-1.252 4.726 0 5.27 4.276 5.455 9.547 5.455 5.272 0 9.547-.185 9.547-5.455.003-1.336-.277-2.657-.82-3.877l-4.46 1.393z"/>
    <path fill="#195270" d="M58.681 230.875c-.423-.424-.896-.796-1.408-1.107-.72-.477-1.468-.966-2.318-1.13-.746-.143-1.516-.021-2.277-.066-1.32-.08-2.564-.65-3.487-1.598-.543-.561-.97-1.25-1.623-1.677-.73-.434-1.592-.593-2.429-.447-.242.035-.482.085-.719.149-.373 1.038-.564 2.133-.564 3.236 0 5.27 4.276 5.455 9.547 5.455 2.56 0 4.881-.044 6.597-.692l-.299-.533c-.271-.571-.614-1.105-1.02-1.59z" opacity=".1"/>
    <path fill="#776BFA" d="M290.377 225.751l3.974-2.336c-.538-.917-1.225-1.738-2.032-2.431l-7.494 2.333 5.871-3.454c-1.454-.796-3.09-1.2-4.747-1.172-1.658.028-3.279.487-4.705 1.332-1.426.845-2.608 2.047-3.429 3.486-.82 1.44-1.252 3.069-1.251 4.726 0 5.27 4.275 5.455 9.547 5.455 5.271 0 9.546-.185 9.546-5.455.003-1.336-.276-2.657-.82-3.877l-4.46 1.393z"/>
    <path fill="#195270" d="M291.388 230.875c-.423-.424-.896-.796-1.408-1.107-.719-.477-1.468-.966-2.318-1.13-.746-.143-1.516-.021-2.276-.066-1.321-.08-2.565-.65-3.488-1.598-.543-.561-.97-1.25-1.623-1.677-.73-.434-1.592-.593-2.429-.447-.242.035-.482.085-.719.149-.373 1.038-.564 2.133-.563 3.236 0 5.27 4.275 5.455 9.547 5.455 2.559 0 4.88-.044 6.596-.692l-.298-.533c-.272-.571-.615-1.105-1.021-1.59z" opacity=".1"/>
    <path fill="#776BFA" d="M98.999 221.671l-3.106-1.826c.422-.715.958-1.356 1.587-1.897l5.857 1.82-4.589-2.685c1.134-.621 2.411-.936 3.704-.916 1.293.021 2.558.378 3.671 1.035 1.114.657 2.037 1.593 2.68 2.714.643 1.122.983 2.392.987 3.684 0 4.119-3.338 4.262-7.459 4.262-4.12 0-7.458-.143-7.458-4.262-.001-1.042.217-2.072.641-3.024L99 221.671z"/>
    <path fill="#195270" d="M98.208 225.688c.33-.33.699-.62 1.098-.862.538-.416 1.154-.72 1.811-.895.597-.113 1.194-.018 1.79-.05 1.032-.066 2.002-.511 2.724-1.25.424-.439.758-.979 1.268-1.313.571-.339 1.244-.463 1.898-.349.189.029.376.067.56.117.289.807.436 1.657.433 2.514 0 4.119-3.338 4.262-7.458 4.262-1.999 0-3.813-.036-5.153-.54l.224-.417c.215-.438.486-.847.805-1.217z" opacity=".1"/>
    <path fill="#776BFA" d="M122.866 221.671l-3.105-1.826c.421-.715.957-1.356 1.587-1.897l5.856 1.82-4.588-2.685c1.134-.621 2.41-.936 3.703-.916 1.293.021 2.558.378 3.672 1.035 1.113.657 2.037 1.593 2.68 2.714.642 1.122.983 2.392.986 3.684 0 4.119-3.338 4.262-7.458 4.262s-7.459-.143-7.459-4.262c-.001-1.042.218-2.072.642-3.024l3.484 1.095z"/>
    <path fill="#195270" d="M122.076 225.688c.33-.33.698-.62 1.098-.862.538-.416 1.153-.72 1.811-.895.596-.113 1.193-.018 1.79-.05 1.031-.066 2.002-.511 2.724-1.25.423-.439.757-.979 1.268-1.313.57-.339 1.243-.463 1.897-.349.189.029.376.067.561.117.289.807.435 1.657.432 2.514 0 4.119-3.338 4.262-7.458 4.262-1.999 0-3.813-.036-5.152-.54l.223-.417c.216-.438.487-.847.806-1.217z" opacity=".1"/>
    <path fill="#776BFA" d="M209.684 221.671l-3.106-1.826c.422-.715.958-1.356 1.588-1.897l5.856 1.82-4.589-2.685c1.135-.621 2.411-.936 3.704-.916 1.293.021 2.558.378 3.671 1.035 1.114.657 2.037 1.593 2.68 2.714.643 1.122.983 2.392.987 3.684 0 4.119-3.338 4.262-7.458 4.262-4.121 0-7.459-.143-7.459-4.262-.001-1.042.218-2.072.641-3.024l3.485 1.095z"/>
    <path fill="#195270" d="M208.893 225.688c.33-.33.699-.62 1.098-.862.538-.416 1.154-.72 1.811-.895.597-.113 1.194-.018 1.79-.05 1.032-.066 2.002-.511 2.724-1.25.424-.439.758-.979 1.268-1.313.571-.339 1.244-.463 1.898-.349.189.029.376.067.561.117.288.807.435 1.657.432 2.514 0 4.119-3.338 4.262-7.458 4.262-1.999 0-3.813-.036-5.153-.54l.224-.417c.216-.438.486-.847.805-1.217z" opacity=".1"/>
    <path fill="#4C5D67" d="M133.013 202.51c.545-.952.827-2.032.817-3.129 0-2.827-1.754-5.121-3.914-5.121s-3.914 2.294-3.914 5.121c-.01 1.097.272 2.177.817 3.129-.536.957-.818 2.035-.818 3.132s.282 2.175.818 3.132c-.537.956-.819 2.035-.819 3.131 0 1.097.282 2.176.819 3.132-.536.957-.818 2.035-.818 3.132s.282 2.175.818 3.132c-.545.951-.827 2.031-.817 3.128 0 2.828 1.754 5.122 3.914 5.122s3.914-2.294 3.914-5.122c.011-1.097-.271-2.177-.817-3.128.537-.957.818-2.035.818-3.132s-.281-2.175-.818-3.132c.537-.956.819-2.035.819-3.132 0-1.096-.282-2.175-.819-3.131.537-.957.818-2.035.818-3.132s-.281-2.175-.818-3.132z"/>
    <path fill="#4C5D67" d="M129.916 198.245c2.162 0 3.915-2.293 3.915-5.121 0-2.828-1.753-5.121-3.915-5.121s-3.914 2.293-3.914 5.121c0 2.828 1.752 5.121 3.914 5.121z"/>
    <path fill="#4C5D67" d="M129.916 191.988c2.162 0 3.915-2.293 3.915-5.121 0-2.829-1.753-5.122-3.915-5.122s-3.914 2.293-3.914 5.122c0 2.828 1.752 5.121 3.914 5.121z"/>
    <path fill="#776BFA" d="M144.565 144.033c.534-.68 1.02-1.397 1.456-2.144l-10.275-1.689 11.119.084c1.067-2.32 1.648-4.834 1.71-7.387.062-2.553-.398-5.091-1.352-7.461l-14.917 7.737 13.757-10.108c-1.291-2.224-3.025-4.159-5.095-5.684-2.07-1.525-4.432-2.608-6.939-3.181-2.507-.574-5.105-.625-7.632-.152-2.528.474-4.931 1.463-7.06 2.905-2.129 1.442-3.938 3.306-5.316 5.478-1.377 2.171-2.292 4.602-2.689 7.142-.397 2.54-.266 5.135.383 7.623.649 2.487 1.804 4.815 3.392 6.837-.833 1.059-1.549 2.205-2.137 3.418l13.345 6.932-14.231-4.772c-.998 2.953-1.245 6.108-.717 9.181.527 3.072 1.813 5.965 3.74 8.416-2.175 2.764-3.527 6.083-3.903 9.579-.376 3.496.24 7.027 1.777 10.19 1.536 3.163 3.932 5.829 6.913 7.695 2.982 1.866 6.428 2.855 9.945 2.855 3.517 0 6.963-.989 9.944-2.855 2.981-1.866 5.377-4.532 6.914-7.695 1.537-3.163 2.152-6.694 1.776-10.19-.376-3.496-1.728-6.815-3.902-9.579 2.597-3.303 4.01-7.383 4.01-11.585 0-4.201-1.413-8.281-4.01-11.584l-.006-.006z"/>
    <path fill="#195270" d="M111.091 155.618c-.008 4.203 1.405 8.285 4.01 11.584-2.175 2.764-3.527 6.084-3.903 9.58-.376 3.495.24 7.027 1.777 10.189 1.536 3.163 3.932 5.83 6.913 7.695 2.982 1.866 6.428 2.855 9.945 2.855 3.517 0 6.963-.989 9.944-2.855 2.981-1.865 5.377-4.532 6.914-7.695 1.537-3.162 2.152-6.694 1.776-10.189-.376-3.496-1.728-6.816-3.902-9.58 2.518-3.185-33.474-13.693-33.474-11.584z" opacity=".1"/>
    <path fill="#4C5D67" d="M190.152 197.89c.689-1.205 1.046-2.572 1.032-3.961 0-3.579-2.217-6.481-4.953-6.481-2.735 0-4.952 2.902-4.952 6.481-.013 1.389.345 2.756 1.035 3.961-.679 1.209-1.035 2.573-1.035 3.96 0 1.386.356 2.75 1.035 3.959-.679 1.21-1.035 2.574-1.035 3.961s.356 2.751 1.035 3.961c-.679 1.21-1.035 2.574-1.035 3.961s.356 2.751 1.035 3.961c-.691 1.204-1.048 2.572-1.035 3.96 0 3.58 2.22 6.482 4.952 6.482 2.733 0 4.953-2.902 4.953-6.482.014-1.388-.342-2.755-1.032-3.96.676-1.211 1.032-2.575 1.032-3.961 0-1.387-.356-2.751-1.032-3.961.676-1.211 1.032-2.574 1.032-3.961s-.356-2.751-1.032-3.961c.676-1.21 1.032-2.573 1.032-3.959 0-1.387-.356-2.75-1.032-3.96z"/>
    <path fill="#4C5D67" d="M186.231 192.492c2.736 0 4.953-2.902 4.953-6.481 0-3.58-2.217-6.482-4.953-6.482-2.735 0-4.952 2.902-4.952 6.482 0 3.579 2.217 6.481 4.952 6.481z"/>
    <path fill="#4C5D67" d="M186.231 184.57c2.736 0 4.953-2.902 4.953-6.481 0-3.58-2.217-6.482-4.953-6.482-2.735 0-4.952 2.902-4.952 6.482 0 3.579 2.217 6.481 4.952 6.481z"/>
    <path fill="#776BFA" d="M167.695 123.88c-.678-.86-1.294-1.767-1.843-2.714l13.01-2.136-14.072.104c-1.351-2.936-2.087-6.117-2.165-9.348-.078-3.231.504-6.444 1.711-9.442l18.882 9.792-17.414-12.795c1.634-2.813 3.83-5.26 6.45-7.188 2.621-1.928 5.61-3.296 8.782-4.02 3.172-.724 6.459-.788 9.656-.188 3.198.6 6.238 1.852 8.931 3.677 2.694 1.825 4.983 4.184 6.725 6.93 1.743 2.748 2.901 5.824 3.404 9.037.502 3.214.338 6.497-.482 9.644-.821 3.148-2.28 6.093-4.288 8.653 1.055 1.34 1.962 2.79 2.706 4.325l-16.892 8.774 18.011-6.042c1.266 3.736 1.579 7.73.911 11.618-.668 3.889-2.296 7.549-4.736 10.65 2.752 3.498 4.463 7.699 4.939 12.124.476 4.425-.303 8.894-2.248 12.897-1.945 4.003-4.978 7.378-8.751 9.739-3.773 2.361-8.135 3.614-12.586 3.614-4.452 0-8.813-1.253-12.586-3.614-3.774-2.361-6.806-5.736-8.751-9.739-1.945-4.003-2.724-8.472-2.249-12.897.476-4.425 2.188-8.626 4.939-12.124-3.289-4.18-5.077-9.344-5.077-14.663 0-5.318 1.788-10.482 5.077-14.662l.006-.006z"/>
    <path fill="#195270" d="M210.06 138.542c.01 5.319-1.777 10.486-5.072 14.663 2.752 3.498 4.463 7.7 4.939 12.124.476 4.425-.303 8.894-2.248 12.897-1.945 4.003-4.978 7.378-8.751 9.739-3.773 2.361-8.135 3.614-12.586 3.614-4.452 0-8.813-1.253-12.586-3.614-3.774-2.361-6.806-5.736-8.751-9.739-1.945-4.003-2.724-8.472-2.249-12.897.476-4.424 2.188-8.626 4.939-12.124-3.18-4.036 42.365-17.323 42.365-14.663z" opacity=".1"/>
</svg>
