<svg xmlns="http://www.w3.org/2000/svg" width="600" height="394" fill="none" viewBox="0 0 600 394">
    <g clip-path="url(#clip0)">
        <g filter="url(#filter0_d)">
            <path fill="#F9FAFB" d="M544.898 53.409H44.606v311.698h500.292V53.409z"/>
        </g>
        <path fill="#fff" stroke="#F0F3F4" d="M157.216 53.628H45.7v311.26h111.516V53.628z"/>
        <path fill="#B8DCEF" d="M150 77.924H52.916c-1.208 0-2.187.98-2.187 2.19v16.635c0 1.209.979 2.189 2.187 2.189H150c1.208 0 2.187-.98 2.187-2.19V80.114c0-1.209-.979-2.189-2.187-2.189z"/>
        <path fill="#133D53" d="M71.242 86.033v3.106c0 .365.068.668.205.91.203.365.544.547 1.025.547.576 0 .968-.197 1.175-.592.111-.214.167-.503.167-.865v-3.106h.69v2.822c0 .618-.083 1.093-.249 1.427-.305.606-.881.91-1.728.91-.848 0-1.423-.304-1.726-.91-.166-.334-.25-.809-.25-1.427v-2.822h.69zm5.78 4.611c.287 0 .526-.12.715-.36.19-.241.287-.601.287-1.08 0-.292-.042-.543-.127-.752-.16-.404-.45-.606-.874-.606-.426 0-.718.213-.875.64-.084.228-.126.517-.126.868 0 .283.042.524.126.722.16.379.45.568.875.568zm-1.592-3.232h.599v.485c.123-.166.257-.295.402-.386.208-.137.452-.205.732-.205.414 0 .766.16 1.055.478.29.317.434.771.434 1.362 0 .798-.208 1.368-.625 1.71-.264.217-.571.325-.923.325-.275 0-.506-.06-.693-.181-.11-.069-.231-.186-.365-.353v1.871h-.616v-5.106zm5.354-.123c.412 0 .747.1 1.004.3.26.201.416.547.469 1.037h-.598c-.037-.226-.12-.413-.25-.56-.13-.151-.338-.227-.625-.227-.391 0-.672.192-.84.575-.11.249-.164.555-.164.92 0 .367.077.676.232.927.155.25.398.376.731.376.255 0 .457-.077.605-.232.15-.158.254-.372.311-.644h.598c-.068.486-.24.842-.513 1.068-.273.223-.623.335-1.049.335-.478 0-.86-.174-1.144-.523-.285-.352-.427-.79-.427-1.314 0-.643.156-1.143.468-1.501.312-.358.71-.537 1.192-.537zm3.54 3.372c.408 0 .687-.154.837-.462.152-.31.229-.654.229-1.032 0-.343-.055-.62-.164-.835-.173-.337-.472-.506-.895-.506-.376 0-.65.143-.82.43-.171.288-.257.634-.257 1.04 0 .39.086.715.257.975.17.26.441.39.813.39zm.024-3.372c.471 0 .87.157 1.195.472.326.315.49.777.49 1.389 0 .59-.145 1.078-.431 1.463-.287.386-.733.578-1.336.578-.504 0-.904-.17-1.2-.51-.296-.342-.444-.8-.444-1.374 0-.616.156-1.106.468-1.47.313-.366.732-.548 1.258-.548zm2.418.106h.609v.52c.145-.18.278-.312.396-.394.203-.139.433-.208.69-.208.292 0 .526.071.704.215.1.082.191.203.273.363.137-.196.297-.341.482-.435.185-.095.392-.143.622-.143.492 0 .827.178 1.004.533.096.192.144.45.144.773v2.439h-.64v-2.545c0-.244-.06-.412-.184-.503-.12-.09-.268-.136-.444-.136-.24 0-.45.08-.625.242-.173.162-.26.432-.26.811v2.13h-.625v-2.39c0-.249-.03-.43-.089-.544-.093-.17-.267-.256-.522-.256-.233 0-.445.09-.636.27-.189.18-.284.506-.284.978v1.943h-.615v-3.663zm5.83.017h.624v3.646h-.625v-3.646zm0-1.379h.624v.698h-.625v-.698zm1.557 1.362h.584v.52c.174-.215.357-.369.55-.462.194-.094.41-.14.646-.14.52 0 .87.18 1.052.544.1.198.15.482.15.851v2.35h-.624v-2.309c0-.223-.033-.403-.1-.54-.109-.228-.307-.342-.594-.342-.146 0-.265.015-.359.044-.168.05-.316.15-.444.301-.102.121-.17.246-.201.376-.03.128-.045.312-.045.551v1.919h-.615v-3.663zm5.186-.065c.287 0 .538.07.752.212.116.08.235.196.356.349v-.462h.566v3.331c0 .465-.068.832-.204 1.102-.256.496-.737.745-1.446.745-.394 0-.725-.089-.994-.266-.269-.176-.419-.452-.45-.828h.624c.03.164.09.29.178.38.14.136.358.204.656.204.471 0 .78-.166.926-.499.086-.196.126-.546.12-1.05-.123.187-.272.326-.445.417-.173.091-.402.137-.686.137-.397 0-.744-.14-1.042-.42-.296-.283-.445-.75-.445-1.4 0-.613.15-1.091.448-1.436.3-.344.663-.516 1.086-.516zm1.108 1.88c0-.453-.094-.789-.281-1.008-.186-.219-.424-.328-.714-.328-.433 0-.729.203-.888.608-.084.217-.126.5-.126.852 0 .413.083.727.249.944.168.214.394.321.676.321.442 0 .753-.2.933-.598.1-.226.151-.489.151-.79zm3.809.699c.018.205.069.362.154.471.154.199.423.298.806.298.228 0 .428-.049.601-.147.174-.1.26-.254.26-.462 0-.157-.069-.277-.208-.359-.089-.05-.265-.108-.527-.174l-.488-.123c-.312-.078-.542-.165-.69-.26-.265-.167-.397-.397-.397-.691 0-.347.124-.627.373-.842.25-.214.586-.321 1.008-.321.551 0 .948.162 1.192.485.153.206.226.427.222.664h-.581c-.011-.139-.06-.266-.147-.38-.141-.161-.386-.242-.734-.242-.232 0-.409.044-.53.133-.118.089-.177.206-.177.353 0 .159.078.287.235.383.091.057.226.107.404.15l.406.1c.442.106.738.21.888.31.24.158.359.405.359.743 0 .326-.124.607-.372.844-.246.237-.622.356-1.128.356-.544 0-.93-.123-1.158-.37-.226-.248-.346-.555-.362-.92h.591zm4.657-2.596c.259 0 .511.061.755.184.244.121.429.279.557.472.123.185.205.4.245.647.037.168.055.438.055.807h-2.682c.012.372.099.67.263.896.164.224.418.335.762.335.322 0 .578-.106.769-.318.109-.123.187-.265.232-.427h.605c-.016.134-.07.285-.161.451-.088.164-.188.299-.3.404-.187.182-.418.305-.694.37-.148.035-.315.054-.502.054-.456 0-.841-.166-1.158-.496-.317-.333-.475-.798-.475-1.395 0-.589.159-1.066.478-1.434.319-.367.736-.55 1.251-.55zm.98 1.62c-.025-.266-.083-.48-.174-.639-.169-.296-.45-.444-.844-.444-.282 0-.519.102-.711.308-.191.203-.292.461-.303.776h2.032zm1.756.976c.018.205.07.362.154.471.155.199.424.298.806.298.228 0 .428-.049.602-.147.173-.1.259-.254.259-.462 0-.157-.069-.277-.208-.359-.089-.05-.264-.108-.526-.174l-.489-.123c-.312-.078-.542-.165-.69-.26-.264-.167-.396-.397-.396-.691 0-.347.124-.627.372-.842.251-.214.587-.321 1.008-.321.551 0 .949.162 1.192.485.153.206.227.427.222.664h-.58c-.012-.139-.061-.266-.147-.38-.142-.161-.386-.242-.735-.242-.232 0-.409.044-.53.133-.118.089-.177.206-.177.353 0 .159.079.287.236.383.091.057.225.107.403.15l.407.1c.441.106.737.21.888.31.239.158.358.405.358.743 0 .326-.123.607-.372.844-.246.237-.622.356-1.127.356-.545 0-.931-.123-1.159-.37-.225-.248-.346-.555-.362-.92h.591zm3.499 0c.018.205.07.362.153.471.155.199.424.298.807.298.228 0 .428-.049.601-.147.173-.1.26-.254.26-.462 0-.157-.07-.277-.209-.359-.088-.05-.264-.108-.526-.174l-.488-.123c-.312-.078-.542-.165-.69-.26-.264-.167-.397-.397-.397-.691 0-.347.124-.627.373-.842.25-.214.586-.321 1.008-.321.551 0 .948.162 1.192.485.152.206.227.427.222.664h-.581c-.011-.139-.06-.266-.147-.38-.141-.161-.386-.242-.734-.242-.233 0-.409.044-.53.133-.118.089-.178.206-.178.353 0 .159.079.287.236.383.092.057.226.107.403.15l.407.1c.442.106.738.21.888.31.239.158.359.405.359.743 0 .326-.124.607-.372.844-.247.237-.622.356-1.128.356-.544 0-.93-.123-1.158-.37-.225-.248-.346-.555-.362-.92h.591zm3.133-2.497h.625v3.646h-.625v-3.646zm0-1.379h.625v.698h-.625v-.698zm3.01 4.628c.408 0 .687-.154.837-.462.153-.31.229-.654.229-1.032 0-.343-.055-.62-.164-.835-.173-.337-.472-.506-.895-.506-.376 0-.649.143-.82.43-.171.288-.257.634-.257 1.04 0 .39.086.715.257.975s.442.39.813.39zm.024-3.372c.471 0 .87.157 1.196.472.325.315.488.777.488 1.389 0 .59-.143 1.078-.431 1.463-.286.386-.732.578-1.335.578-.504 0-.903-.17-1.199-.51-.297-.342-.445-.8-.445-1.374 0-.616.157-1.106.468-1.47.313-.366.732-.548 1.258-.548zm2.419.106h.584v.52c.173-.215.357-.369.55-.462.194-.094.409-.14.646-.14.519 0 .87.18 1.052.544.1.198.15.482.15.851v2.35h-.625v-2.309c0-.223-.033-.403-.099-.54-.109-.228-.308-.342-.595-.342-.145 0-.265.015-.358.044-.169.05-.317.15-.445.301-.102.121-.169.246-.201.376-.029.128-.044.312-.044.551v1.919h-.615v-3.663zm4.26 2.514c.018.205.07.362.154.471.155.199.423.298.806.298.228 0 .428-.049.601-.147.174-.1.26-.254.26-.462 0-.157-.069-.277-.208-.359-.089-.05-.265-.108-.527-.174l-.488-.123c-.312-.078-.542-.165-.69-.26-.264-.167-.397-.397-.397-.691 0-.347.124-.627.373-.842.25-.214.586-.321 1.008-.321.551 0 .948.162 1.192.485.153.206.227.427.222.664h-.581c-.011-.139-.06-.266-.147-.38-.141-.161-.386-.242-.734-.242-.232 0-.409.044-.53.133-.118.089-.177.206-.177.353 0 .159.078.287.235.383.092.057.226.107.404.15l.406.1c.442.106.738.21.888.31.24.158.359.405.359.743 0 .326-.124.607-.372.844-.246.237-.622.356-1.128.356-.544 0-.93-.123-1.158-.37-.225-.248-.346-.555-.362-.92h.591zM63.411 88.431h-2.187v2.189h2.187v-2.189zm-.437-4.815v.875h-3.499v-.875h-.874v.875h-.438c-.485 0-.87.394-.87.876l-.004 6.129c0 .481.389.875.874.875h6.123c.48 0 .874-.394.874-.875v-6.13c0-.48-.393-.875-.874-.875h-.438v-.875h-.874zm1.312 7.88h-6.123V86.68h6.123v4.816z"/>
        <path fill="#161B1D" d="M70.948 110.45c.016.285.083.517.201.694.226.333.624.499 1.193.499.255 0 .487-.036.697-.109.406-.141.608-.394.608-.759 0-.274-.085-.469-.256-.585-.174-.114-.444-.213-.813-.298l-.68-.153c-.444-.101-.759-.211-.943-.332-.319-.21-.479-.523-.479-.941 0-.451.156-.822.469-1.111.312-.29.754-.435 1.325-.435.526 0 .973.128 1.34.383.368.254.553.66.553 1.218h-.639c-.034-.269-.107-.475-.219-.619-.207-.262-.559-.393-1.055-.393-.401 0-.69.084-.865.253-.175.169-.263.365-.263.588 0 .246.103.426.308.54.134.073.438.164.912.274l.704.161c.339.077.6.183.785.318.32.235.479.575.479 1.022 0 .557-.203.955-.608 1.194-.404.239-.873.359-1.408.359-.624 0-1.113-.16-1.466-.479-.353-.317-.526-.747-.52-1.289h.64zm4.264-3.064h.621v1.022h.585v.503h-.585v2.391c0 .127.044.213.13.256.048.025.128.038.24.038h.095l.12-.01v.485c-.07.021-.145.036-.222.045-.076.009-.157.013-.246.013-.287 0-.482-.073-.584-.219-.103-.148-.154-.339-.154-.574v-2.425h-.495v-.503h.495v-1.022zm2.439 1.022v2.432c0 .187.03.34.09.458.109.219.312.328.61.328.429 0 .72-.191.875-.574.085-.205.127-.487.127-.845v-1.799h.615v3.663h-.581l.007-.54c-.08.139-.18.256-.298.352-.234.192-.519.287-.854.287-.521 0-.877-.174-1.066-.523-.102-.187-.153-.437-.153-.749v-2.49h.628zm3.67 1.874c0 .393.083.721.249.985.166.265.433.397.8.397.284 0 .517-.122.7-.366.184-.246.277-.598.277-1.057 0-.463-.095-.804-.284-1.026-.19-.223-.423-.335-.7-.335-.31 0-.562.119-.756.356-.19.237-.286.586-.286 1.046zm.925-1.939c.28 0 .515.06.704.178.11.068.234.188.373.359v-1.85h.59v5.041h-.553v-.509c-.143.225-.313.388-.509.489-.196.1-.42.15-.673.15-.407 0-.76-.171-1.059-.513-.298-.344-.447-.802-.447-1.371 0-.534.135-.996.406-1.386.273-.392.663-.588 1.168-.588zm4.104-.017c.26 0 .51.062.755.185.243.12.429.278.557.472.122.184.205.4.246.646.036.169.055.438.055.807H85.28c.01.372.098.671.262.896.164.224.418.335.762.335.321 0 .578-.105.769-.317.11-.124.187-.266.233-.428h.604c-.016.134-.07.285-.16.451-.09.164-.19.299-.301.404-.187.182-.418.305-.694.369-.148.037-.315.055-.502.055-.455 0-.842-.165-1.158-.496-.317-.333-.475-.798-.475-1.395 0-.588.16-1.066.478-1.433.32-.367.736-.551 1.25-.551zm.98 1.621c-.025-.267-.083-.48-.174-.639-.169-.297-.45-.445-.844-.445-.282 0-.519.103-.71.308-.192.203-.293.462-.305.776h2.033zm1.39-1.539h.585v.52c.173-.214.356-.368.55-.462.194-.093.41-.14.646-.14.52 0 .87.181 1.052.544.1.198.15.482.15.852v2.349h-.625v-2.308c0-.224-.033-.404-.099-.541-.11-.228-.307-.342-.594-.342-.146 0-.266.015-.36.044-.168.051-.316.151-.443.302-.103.12-.17.246-.202.376-.03.127-.044.311-.044.55v1.919h-.615v-3.663zm4.019-1.022h.621v1.022h.585v.503h-.585v2.391c0 .127.044.213.13.256.048.025.128.038.24.038h.095l.12-.01v.485c-.07.021-.145.036-.223.045-.074.009-.157.013-.245.013-.287 0-.482-.073-.585-.219-.102-.148-.153-.339-.153-.574v-2.425h-.496v-.503h.496v-1.022zm2.19 3.536c.018.205.07.362.153.472.155.198.424.298.807.298.227 0 .428-.049.601-.148.173-.1.26-.254.26-.461 0-.158-.07-.278-.209-.359-.088-.051-.264-.109-.526-.175l-.488-.123c-.312-.078-.543-.164-.69-.26-.265-.166-.397-.397-.397-.691 0-.346.124-.627.373-.841.25-.214.586-.322 1.007-.322.552 0 .95.162 1.193.486.152.205.226.426.222.664h-.58c-.012-.14-.061-.266-.148-.38-.141-.162-.386-.243-.734-.243-.233 0-.41.045-.53.134-.118.088-.178.206-.178.352 0 .159.079.287.236.383.091.057.226.107.403.15l.407.1c.442.107.738.211.888.311.24.157.359.404.359.742 0 .326-.124.607-.373.845-.245.237-.621.355-1.127.355-.544 0-.93-.123-1.158-.369-.226-.248-.347-.555-.362-.92h.59zM63.192 109.882c-.524 0-1.342.149-1.968.438-.625-.293-1.443-.438-1.967-.438-.95 0-2.843.473-2.843 1.423v1.204h9.621v-1.204c0-.95-1.894-1.423-2.843-1.423zm-1.749 1.97H57.07v-.547c0-.236 1.12-.766 2.187-.766 1.067 0 2.186.53 2.186.766v.547zm3.936 0h-3.28v-.547c0-.201-.087-.376-.227-.534.385-.131.857-.232 1.32-.232 1.068 0 2.187.53 2.187.766v.547zm-6.122-2.408c.844 0 1.53-.687 1.53-1.532s-.686-1.532-1.53-1.532-1.531.687-1.531 1.532.687 1.532 1.53 1.532zm0-2.407c.48 0 .874.394.874.875 0 .482-.393.876-.874.876s-.875-.394-.875-.876c0-.481.394-.875.875-.875zm3.935 2.407c.845 0 1.531-.687 1.531-1.532s-.686-1.532-1.53-1.532c-.845 0-1.531.687-1.531 1.532s.686 1.532 1.53 1.532zm0-2.407c.481 0 .875.394.875.875 0 .482-.393.876-.875.876-.48 0-.874-.394-.874-.876 0-.481.393-.875.874-.875zM73.08 131.026l-.762-2.22-.81 2.22h1.572zm-1.117-2.966h.768l1.822 5.024h-.746l-.509-1.505h-1.985l-.543 1.505h-.697l1.89-5.024zm3.126 1.362h.584v.519c.173-.214.356-.368.55-.461.194-.094.41-.141.646-.141.52 0 .87.181 1.052.544.1.199.15.482.15.852v2.349h-.625v-2.308c0-.224-.033-.404-.099-.541-.11-.228-.307-.342-.594-.342-.146 0-.266.015-.359.045-.169.05-.316.15-.444.301-.103.121-.17.246-.202.376-.03.128-.044.311-.044.551v1.918h-.615v-3.662zm4.366 2.688c0 .178.065.318.195.42.13.103.283.154.461.154.216 0 .426-.05.629-.15.341-.167.512-.439.512-.818v-.496c-.075.049-.171.088-.29.12-.119.032-.235.055-.349.069l-.372.047c-.223.03-.39.077-.502.141-.19.107-.284.278-.284.513zm1.49-1.245c.141-.018.236-.078.283-.178.028-.055.041-.133.041-.236 0-.21-.075-.361-.225-.455-.148-.096-.361-.144-.64-.144-.32 0-.548.087-.682.26-.075.096-.124.239-.147.428H79c.011-.452.157-.765.437-.941.282-.177.61-.266.98-.266.431 0 .78.082 1.05.246.266.164.4.42.4.766v2.11c0 .064.012.115.037.154.027.039.083.058.167.058l.093-.003.109-.017v.455c-.096.027-.169.044-.219.051-.05.007-.118.01-.205.01-.212 0-.365-.075-.461-.226-.05-.079-.085-.192-.106-.338-.125.164-.305.306-.54.427-.234.121-.493.181-.775.181-.34 0-.618-.102-.834-.307-.214-.208-.321-.467-.321-.776 0-.34.106-.604.317-.791.213-.187.49-.302.834-.345l.98-.123zm1.95-2.805h.616v5.024h-.615v-5.024zm3.827 1.362h.68c-.087.234-.28.77-.577 1.607-.223.629-.41 1.142-.56 1.539-.356.935-.607 1.505-.752 1.71-.146.205-.397.308-.752.308-.087 0-.154-.003-.202-.01-.045-.007-.102-.02-.17-.038v-.561c.107.03.184.048.232.055.048.007.09.01.126.01.114 0 .198-.019.25-.058.054-.037.1-.082.136-.137.012-.018.053-.112.123-.28.071-.169.122-.294.154-.377l-1.353-3.768h.697l.98 2.982.988-2.982zm1.336-1.023h.622v1.023h.584v.502h-.584v2.391c0 .128.043.213.13.256.048.025.127.038.239.038h.096l.119-.01v.485c-.07.021-.145.036-.222.045-.075.009-.157.014-.246.014-.287 0-.482-.073-.584-.219-.103-.149-.154-.34-.154-.575v-2.425h-.495v-.502h.495v-1.023zm1.824 1.04h.626v3.645h-.626v-3.645zm0-1.379h.626v.698h-.626v-.698zm2.97 1.256c.412 0 .747.1 1.004.3.26.201.416.547.468 1.037h-.598c-.036-.226-.12-.413-.25-.561-.13-.151-.337-.226-.625-.226-.391 0-.671.192-.84.575-.11.248-.164.555-.164.919 0 .368.078.677.233.928.154.251.398.376.73.376.256 0 .457-.078.605-.233.15-.157.254-.371.311-.643h.598c-.068.486-.239.842-.512 1.067-.274.224-.623.335-1.05.335-.478 0-.86-.174-1.144-.523-.285-.351-.427-.789-.427-1.313 0-.643.156-1.144.468-1.502.312-.358.71-.536 1.192-.536zm2.453 2.619c.018.206.07.363.153.472.155.199.424.298.807.298.227 0 .428-.049.6-.147.174-.1.26-.255.26-.462 0-.157-.069-.277-.208-.359-.089-.05-.264-.109-.526-.175l-.489-.123c-.312-.077-.542-.164-.69-.26-.264-.166-.396-.396-.396-.691 0-.346.124-.626.372-.841.25-.214.587-.321 1.008-.321.551 0 .949.162 1.192.485.153.206.227.427.223.664h-.581c-.011-.139-.06-.266-.147-.38-.141-.162-.386-.243-.735-.243-.232 0-.409.045-.53.134-.117.089-.177.206-.177.352 0 .16.079.287.236.383.091.057.225.107.403.15l.407.1c.441.107.738.211.888.311.24.157.359.405.359.742 0 .326-.124.608-.373.845-.246.237-.621.356-1.127.356-.544 0-.93-.123-1.158-.37-.226-.248-.346-.555-.363-.92h.592zM58.163 129.232h1.312v4.29h-1.312v-4.29zm2.45-1.839h1.224v6.129h-1.225v-6.129zm2.448 3.503h1.225v2.626H63.06v-2.626z"/>
        <path fill="#fff" stroke="#F0F3F4" d="M157.216 144.686H45.7v25.828h111.516v-25.828z"/>
        <path fill="#161B1D" d="M70.487 155.202h.973l1.442 4.248 1.432-4.248h.963v5.025h-.645v-2.965c0-.103.002-.273.007-.51.004-.237.006-.492.006-.763l-1.431 4.238h-.673l-1.442-4.238v.154c0 .123.002.311.007.564.006.251.01.436.01.555v2.965h-.65v-5.025zm6.235 4.05c0 .178.065.318.195.42.13.103.283.155.461.155.216 0 .426-.051.629-.151.341-.166.512-.439.512-.817v-.496c-.075.048-.172.088-.29.12-.119.032-.235.054-.349.068l-.372.048c-.224.029-.39.076-.502.14-.19.107-.284.278-.284.513zm1.49-1.245c.14-.018.235-.077.283-.178.028-.055.041-.133.041-.236 0-.21-.075-.361-.225-.455-.148-.095-.361-.143-.64-.143-.32 0-.548.086-.683.26-.075.095-.124.238-.147.427h-.574c.012-.451.158-.765.438-.94.282-.178.61-.267.98-.267.43 0 .78.082 1.05.246.266.164.399.42.399.766v2.11c0 .064.013.116.038.154.027.039.083.058.167.058l.092-.003c.034-.004.07-.01.11-.017v.455c-.096.027-.17.044-.219.051-.05.007-.118.01-.205.01-.212 0-.366-.075-.462-.225-.05-.08-.085-.193-.105-.339-.125.164-.305.307-.54.427-.235.121-.493.182-.776.182-.34 0-.617-.103-.833-.308-.214-.208-.321-.466-.321-.776 0-.34.106-.604.317-.79.212-.187.49-.303.834-.346l.98-.123zm1.933-1.443h.585v.519c.172-.214.356-.368.55-.461.193-.094.408-.141.645-.141.52 0 .87.182 1.053.545.1.198.15.482.15.851v2.35h-.625v-2.309c0-.223-.033-.403-.1-.54-.109-.228-.307-.342-.594-.342-.146 0-.265.015-.359.044-.168.05-.316.151-.444.301-.102.121-.17.246-.201.376-.03.128-.045.311-.045.551v1.919h-.615v-3.663zm4.367 2.688c0 .178.064.318.194.42.13.103.284.155.462.155.216 0 .426-.051.628-.151.342-.166.513-.439.513-.817v-.496c-.075.048-.172.088-.29.12-.12.032-.235.054-.35.068l-.371.048c-.224.029-.391.076-.503.14-.189.107-.283.278-.283.513zm1.49-1.245c.14-.018.235-.077.283-.178.027-.055.04-.133.04-.236 0-.21-.074-.361-.225-.455-.148-.095-.36-.143-.638-.143-.322 0-.55.086-.684.26-.075.095-.124.238-.147.427h-.574c.012-.451.157-.765.438-.94.282-.178.609-.267.98-.267.43 0 .78.082 1.05.246.265.164.399.42.399.766v2.11c0 .064.012.116.037.154.028.039.084.058.168.058l.092-.003c.034-.004.07-.01.11-.017v.455c-.096.027-.17.044-.22.051-.05.007-.118.01-.204.01-.212 0-.366-.075-.462-.225-.05-.08-.085-.193-.105-.339-.126.164-.306.307-.54.427-.235.121-.493.182-.776.182-.34 0-.617-.103-.833-.308-.215-.208-.322-.466-.322-.776 0-.34.106-.604.318-.79.212-.187.49-.303.834-.346l.98-.123zm3.224-1.508c.288 0 .538.07.752.212.117.08.235.196.355.349v-.462h.567v3.331c0 .465-.068.832-.204 1.101-.256.497-.737.746-1.446.746-.394 0-.725-.089-.994-.267-.269-.175-.419-.451-.45-.827h.624c.03.164.09.29.178.379.14.137.358.205.656.205.471 0 .78-.166.926-.499.086-.196.126-.546.12-1.05-.123.187-.272.326-.445.417-.173.091-.402.137-.686.137-.397 0-.744-.14-1.042-.42-.296-.283-.445-.749-.445-1.4 0-.613.15-1.091.448-1.436.3-.344.663-.516 1.086-.516zm1.107 1.881c0-.454-.093-.79-.28-1.009-.186-.219-.424-.328-.714-.328-.433 0-.729.202-.888.608-.084.217-.126.501-.126.852 0 .413.083.727.249.944.168.214.394.321.676.321.442 0 .753-.199.933-.598.1-.226.15-.489.15-.79zm3.02-1.899c.26 0 .512.062.756.185.244.121.429.279.557.472.123.185.205.4.246.647.036.168.054.438.054.807h-2.682c.011.372.1.67.263.896.164.223.419.335.762.335.322 0 .578-.106.769-.318.11-.123.187-.266.232-.427h.605c-.016.134-.07.285-.16.451-.09.164-.19.299-.301.403-.187.183-.418.306-.694.37-.148.036-.315.055-.502.055-.456 0-.841-.166-1.158-.496-.317-.333-.475-.798-.475-1.396 0-.588.16-1.065.478-1.433.32-.367.736-.551 1.25-.551zm.981 1.622c-.025-.267-.083-.48-.174-.64-.169-.296-.45-.444-.844-.444-.282 0-.52.102-.71.307-.192.204-.293.462-.305.777h2.033zm3.338-1.539h.608v.519c.146-.179.278-.311.397-.393.202-.139.432-.209.69-.209.291 0 .526.072.704.216.1.082.191.203.273.363.137-.196.297-.341.482-.435.184-.095.392-.144.622-.144.492 0 .826.179 1.004.534.096.192.144.449.144.773v2.439h-.639v-2.545c0-.244-.062-.412-.185-.503-.121-.091-.269-.136-.444-.136-.242 0-.45.08-.626.242-.172.162-.259.432-.259.811v2.131h-.625v-2.391c0-.249-.03-.43-.089-.544-.094-.171-.268-.256-.523-.256-.232 0-.444.09-.635.27-.19.18-.284.506-.284.978v1.943h-.615v-3.663zm8.114 0h.68c-.086.234-.279.77-.577 1.607-.223.629-.41 1.142-.56 1.539-.356.935-.606 1.505-.752 1.71-.146.205-.396.308-.752.308-.086 0-.154-.003-.201-.01-.046-.007-.103-.02-.171-.038v-.561c.107.03.184.048.232.055.048.007.09.011.127.011.114 0 .197-.02.249-.059.055-.036.1-.082.137-.137.011-.018.052-.111.123-.28.07-.169.122-.294.153-.376l-1.352-3.769h.696l.981 2.982.987-2.982zm3.526 2.514c.019.205.07.362.154.471.155.199.424.298.806.298.228 0 .428-.049.602-.147.173-.1.259-.254.259-.462 0-.157-.069-.277-.208-.359-.089-.05-.264-.108-.526-.174l-.489-.123c-.312-.078-.542-.165-.69-.261-.264-.166-.396-.396-.396-.69 0-.347.124-.627.372-.842.251-.214.587-.321 1.008-.321.551 0 .949.162 1.193.485.152.206.226.427.221.664h-.58c-.012-.139-.061-.266-.147-.379-.142-.162-.386-.243-.735-.243-.232 0-.408.044-.529.133-.119.089-.178.206-.178.352 0 .16.079.288.236.384.091.056.225.106.403.15l.406.099c.442.107.739.211.889.311.239.158.359.405.359.742 0 .327-.125.608-.373.845-.246.237-.622.356-1.127.356-.545 0-.931-.123-1.158-.369-.226-.249-.347-.556-.363-.92h.591zm4.657-2.597c.26 0 .512.062.755.185.244.121.43.279.557.472.123.185.205.4.246.647.036.168.055.438.055.807H112.9c.011.372.099.67.263.896.164.223.418.335.762.335.321 0 .577-.106.769-.318.109-.123.186-.266.232-.427h.605c-.017.134-.07.285-.161.451-.089.164-.189.299-.301.403-.186.183-.418.306-.693.37-.148.036-.316.055-.502.055-.456 0-.842-.166-1.159-.496-.316-.333-.475-.798-.475-1.396 0-.588.16-1.065.479-1.433.318-.367.735-.551 1.25-.551zm.981 1.622c-.026-.267-.084-.48-.175-.64-.168-.296-.45-.444-.844-.444-.282 0-.519.102-.71.307-.191.204-.293.462-.304.777h2.033zm1.407-1.539h.584v.632c.049-.123.166-.272.352-.447.187-.179.402-.268.646-.268l.058.004.14.014v.65c-.036-.007-.07-.012-.102-.014-.03-.003-.063-.003-.099-.003-.31 0-.548.1-.714.3-.166.199-.25.428-.25.688v2.107h-.615v-3.663zm2.614 0l.977 2.982 1.022-2.982h.673l-1.381 3.663h-.656l-1.349-3.663h.714zm3.198.017h.625v3.646h-.625v-3.646zm0-1.379h.625v.698h-.625v-.698zm2.969 1.256c.412 0 .747.1 1.004.301.26.2.416.546.468 1.036h-.598c-.036-.226-.119-.413-.249-.561-.13-.151-.338-.226-.625-.226-.392 0-.672.192-.84.575-.11.249-.164.555-.164.92 0 .367.077.676.232.927.155.251.398.376.731.376.255 0 .456-.078.605-.232.15-.158.253-.372.31-.644h.598c-.068.486-.239.842-.512 1.068-.273.223-.623.335-1.049.335-.478 0-.86-.175-1.145-.524-.284-.351-.426-.788-.426-1.313 0-.643.155-1.143.467-1.501.312-.359.71-.537 1.193-.537zm3.611.023c.26 0 .512.062.755.185.244.121.43.279.557.472.123.185.205.4.246.647.036.168.055.438.055.807h-2.682c.011.372.099.67.263.896.164.223.418.335.762.335.321 0 .577-.106.768-.318.11-.123.187-.266.233-.427h.605c-.017.134-.07.285-.161.451-.089.164-.189.299-.301.403-.186.183-.418.306-.693.37-.149.036-.316.055-.502.055-.456 0-.842-.166-1.159-.496-.316-.333-.475-.798-.475-1.396 0-.588.16-1.065.479-1.433.318-.367.735-.551 1.25-.551zm.98 1.622c-.024-.267-.083-.48-.174-.64-.168-.296-.45-.444-.844-.444-.282 0-.519.102-.71.307-.191.204-.293.462-.304.777h2.032zm1.757.975c.018.205.069.362.154.471.154.199.423.298.806.298.227 0 .428-.049.601-.147.173-.1.26-.254.26-.462 0-.157-.07-.277-.208-.359-.09-.05-.265-.108-.527-.174l-.488-.123c-.312-.078-.542-.165-.691-.261-.264-.166-.396-.396-.396-.69 0-.347.124-.627.372-.842.251-.214.587-.321 1.008-.321.552 0 .949.162 1.193.485.153.206.226.427.222.664h-.581c-.011-.139-.06-.266-.147-.379-.141-.162-.386-.243-.734-.243-.233 0-.409.044-.53.133-.118.089-.177.206-.177.352 0 .16.078.288.235.384.091.056.226.106.404.15l.406.099c.442.107.738.211.888.311.239.158.359.405.359.742 0 .327-.124.608-.373.845-.245.237-.621.356-1.127.356-.544 0-.931-.123-1.158-.369-.226-.249-.346-.556-.363-.92h.592zM63.848 153.222h-5.247c-.481 0-.875.394-.875.876v7.004c0 .482.394.876.875.876h5.247c.481 0 .875-.394.875-.876v-7.004c0-.482-.394-.876-.875-.876zm-3.935.876h.874v2.189l-.437-.329-.438.329v-2.189zm3.935 7.004h-5.247v-7.004h.437v3.94l1.312-.985 1.312.985v-3.94h2.186v7.004z"/>
        <path fill="#fff" stroke="#F0F3F4" d="M157.216 330.303H45.7v34.585h111.516v-34.585z"/>
        <path fill="#F0F3F4" d="M117.201 340.153H77.843c-1.208 0-2.187.98-2.187 2.189v1.314c0 1.208.979 2.188 2.187 2.188H117.2c1.208 0 2.187-.98 2.187-2.188v-1.314c0-1.209-.979-2.189-2.187-2.189zM117.201 348.471H77.843c-1.208 0-2.187.98-2.187 2.189v1.313c0 1.209.979 2.189 2.187 2.189H117.2c1.208 0 2.187-.98 2.187-2.189v-1.313c0-1.209-.979-2.189-2.187-2.189z"/>
        <path fill="#B8DCEF" fill-rule="evenodd" d="M64.723 356.352c4.83 0 8.746-3.92 8.746-8.756s-3.915-8.756-8.746-8.756c-4.83 0-8.746 3.92-8.746 8.756s3.915 8.756 8.746 8.756z" clip-rule="evenodd"/>
        <path fill="#8A9EA8" d="M181.213 72.215v.523h-1.48v3.873h-.604v-3.873h-1.479v-.523h3.563zm1.065 4.049c.356 0 .6-.135.732-.404.133-.272.2-.573.2-.904 0-.3-.048-.543-.144-.73-.151-.295-.412-.443-.783-.443-.329 0-.568.126-.717.377-.15.252-.224.555-.224.91 0 .341.074.625.224.853.149.227.387.34.712.34zm.02-2.95c.413 0 .761.137 1.047.412.285.275.427.68.427 1.215 0 .517-.126.944-.377 1.28-.251.338-.64.507-1.169.507-.44 0-.79-.149-1.049-.446-.259-.3-.389-.7-.389-1.203 0-.539.137-.968.41-1.287.273-.32.64-.479 1.1-.479zm2.458 1.732c0 .343.072.63.218.862.145.231.379.347.699.347.25 0 .454-.107.613-.32.162-.216.242-.524.242-.925 0-.405-.082-.704-.248-.898-.165-.195-.369-.293-.612-.293-.272 0-.492.104-.661.311-.168.208-.251.513-.251.916zm.81-1.697c.245 0 .45.052.615.156.096.06.205.164.326.314V72.2h.518v4.411h-.484v-.446c-.126.198-.275.34-.446.428-.172.088-.368.132-.589.132-.357 0-.666-.15-.927-.45-.261-.3-.391-.7-.391-1.2 0-.466.118-.87.355-1.21.24-.344.58-.516 1.023-.516zm2.67 2.41c0 .155.056.278.17.367.113.09.248.135.403.135.19 0 .373-.044.55-.132.3-.145.449-.384.449-.715v-.434c-.066.042-.151.077-.254.105-.104.028-.205.048-.305.06l-.326.042c-.195.025-.342.067-.439.122-.166.094-.248.244-.248.45zm1.303-1.09c.124-.016.206-.068.248-.156.024-.047.036-.117.036-.206 0-.184-.066-.316-.198-.398-.129-.084-.315-.126-.559-.126-.281 0-.48.076-.597.228-.066.083-.109.208-.129.374h-.502c.01-.395.137-.67.382-.824.248-.155.534-.233.858-.233.377 0 .683.072.918.216.233.143.35.367.35.67v1.846c0 .056.011.101.033.135.024.034.072.051.146.051.024 0 .051 0 .081-.003l.096-.015v.398c-.084.024-.148.039-.192.045-.043.006-.103.009-.179.009-.185 0-.32-.066-.403-.198-.044-.07-.075-.168-.093-.296-.11.144-.267.268-.472.374-.206.106-.432.159-.679.159-.297 0-.54-.09-.73-.27-.187-.181-.281-.407-.281-.679 0-.297.093-.527.278-.691.186-.164.429-.264.73-.302l.858-.108zm3.692-1.263h.595c-.076.206-.244.674-.505 1.407-.196.55-.359 1-.491 1.346-.31.818-.53 1.317-.657 1.497-.128.18-.347.269-.658.269-.076 0-.135-.003-.177-.01-.039-.005-.089-.016-.149-.032v-.49c.094.025.162.041.203.047.042.006.079.009.111.009.099 0 .173-.017.218-.05.048-.033.088-.073.12-.12.01-.016.046-.098.107-.246.062-.147.107-.257.135-.33l-1.184-3.297h.61l.858 2.61.864-2.61z"/>
        <path fill="#F0F3F4" d="M506.414 128.269H190.671c-7.488 0-13.557 6.076-13.557 13.571s6.069 13.571 13.557 13.571h315.743c7.487 0 13.557-6.076 13.557-13.571s-6.07-13.571-13.557-13.571zM506.414 203.567H190.671c-7.488 0-13.557 6.076-13.557 13.571s6.069 13.571 13.557 13.571h315.743c7.487 0 13.557-6.076 13.557-13.571s-6.07-13.571-13.557-13.571zM506.414 274.487H190.671c-7.488 0-13.557 6.076-13.557 13.571s6.069 13.571 13.557 13.571h315.743c7.487 0 13.557-6.076 13.557-13.571s-6.07-13.571-13.557-13.571z"/>
        <g filter="url(#filter1_d)">
            <path fill="#fff" d="M588.63 235.524H130.321v42.027H588.63v-42.027z"/>
        </g>
        <path fill="#A1B1BA" d="M561.525 258.882l2.335-2.344-2.335-2.345.721-.72 3.062 3.065-3.062 3.064-.721-.72z"/>
        <path fill="#B8DCEF" stroke="#fff" stroke-width="2" d="M520.408 264.856c4.589 0 8.309-3.724 8.309-8.318 0-4.594-3.72-8.318-8.309-8.318-4.589 0-8.309 3.724-8.309 8.318 0 4.594 3.72 8.318 8.309 8.318z"/>
        <path fill="#303B41" d="M207.961 247.821h2.541c.502 0 .907.142 1.214.427.308.282.462.68.462 1.193 0 .441-.137.826-.412 1.154-.274.326-.695.489-1.264.489h-1.776v2.389h-.765v-5.652zm3.444 1.624c0-.416-.153-.698-.461-.847-.169-.079-.401-.119-.696-.119h-1.522v1.958h1.522c.344 0 .621-.073.834-.219.216-.146.323-.404.323-.773zm1.641-.073h.704v4.101h-.704v-4.101zm0-1.551h.704v.785h-.704v-.785zm1.772 0h.692v5.652h-.692v-5.652zm2.264 4.556c0 .2.073.357.219.473.146.116.319.173.519.173.244 0 .479-.056.707-.169.385-.187.577-.494.577-.92v-.558c-.085.054-.194.099-.327.135-.133.036-.264.062-.392.077l-.419.054c-.251.033-.439.086-.565.158-.212.12-.319.313-.319.577zm1.676-1.401c.159-.02.265-.087.319-.2.031-.062.046-.15.046-.266 0-.236-.085-.406-.254-.511-.166-.108-.406-.162-.718-.162-.361 0-.618.098-.769.293-.084.107-.14.268-.165.481h-.646c.013-.508.177-.861.492-1.058.318-.2.685-.301 1.103-.301.484 0 .878.093 1.18.277.3.185.45.472.45.862v2.374c0 .072.014.13.042.173.031.044.094.066.188.066.031 0 .066-.001.104-.004.039-.005.08-.011.123-.019v.512c-.108.03-.189.05-.246.057-.056.008-.133.012-.23.012-.239 0-.412-.085-.519-.254-.057-.09-.097-.217-.119-.381-.142.185-.344.345-.608.481s-.555.204-.872.204c-.382 0-.695-.115-.938-.347-.241-.233-.362-.524-.362-.873 0-.382.12-.679.358-.889.238-.21.551-.339.938-.388l1.103-.139zm2.314-2.774h.699v1.151h.658v.565h-.658v2.689c0 .144.049.24.146.289.054.028.144.042.269.042h.108c.038-.002.083-.006.135-.011v.546c-.08.024-.163.04-.25.05-.085.011-.177.016-.277.016-.323 0-.542-.082-.657-.246-.116-.167-.173-.383-.173-.647v-2.728h-.558v-.565h.558v-1.151zm3.767 1.058c.292 0 .575.069.849.208.274.136.483.313.627.531.138.208.23.45.276.727.041.19.062.493.062.908h-3.017c.012.418.111.754.296 1.008.184.252.47.377.857.377.361 0 .649-.119.864-.357.123-.139.211-.299.262-.481h.68c-.018.151-.078.32-.181.507-.099.185-.212.337-.338.454-.21.206-.47.344-.78.416-.167.041-.355.062-.565.062-.512 0-.947-.186-1.303-.558-.356-.375-.534-.898-.534-1.57 0-.662.179-1.2.538-1.612.358-.413.828-.62 1.407-.62zm1.103 1.824c-.028-.3-.094-.54-.196-.72-.19-.333-.506-.5-.95-.5-.317 0-.584.116-.799.347-.215.228-.329.519-.342.873h2.287zm1.975 1.097c.021.23.079.408.173.531.175.223.477.334.908.334.256 0 .481-.055.676-.165.195-.113.292-.286.292-.52 0-.176-.078-.311-.235-.404-.099-.056-.297-.121-.591-.196l-.55-.139c-.351-.087-.61-.184-.776-.292-.298-.187-.446-.446-.446-.777 0-.39.139-.705.419-.947.282-.241.66-.361 1.134-.361.62 0 1.067.182 1.341.546.172.231.255.48.25.747h-.654c-.013-.157-.068-.299-.165-.428-.159-.182-.434-.273-.826-.273-.262 0-.46.05-.596.15-.133.101-.2.232-.2.397 0 .179.089.323.265.431.103.064.254.12.454.169l.457.111c.497.121.83.238 1 .351.268.176.403.455.403.834 0 .367-.139.684-.419.951-.277.267-.699.4-1.268.4-.613 0-1.047-.138-1.303-.416-.254-.279-.39-.624-.408-1.034h.665z"/>
        <path fill="#8A9EA8" d="M207.886 259.831h2.259c.446 0 .806.127 1.08.38.273.251.41.604.41 1.06 0 .392-.122.735-.366 1.026-.244.29-.618.434-1.124.434h-1.578v2.125h-.681v-5.025zm3.062 1.444c0-.37-.137-.62-.41-.753-.151-.071-.356-.106-.618-.106h-1.353v1.741h1.353c.305 0 .552-.065.741-.195.191-.13.287-.359.287-.687zm1.476-.082h.584v.632c.048-.123.165-.272.352-.448.187-.178.402-.267.645-.267l.059.004.14.013v.651c-.037-.007-.071-.012-.103-.014-.03-.003-.062-.004-.099-.004-.31 0-.548.101-.714.301-.166.199-.249.428-.249.688v2.107h-.615v-3.663zm2.313.017h.625v3.646h-.625v-3.646zm0-1.379h.625v.698h-.625v-.698zm1.858 1.362l.978 2.982 1.021-2.982h.673l-1.38 3.663h-.656l-1.35-3.663h.714zm3.67 2.688c0 .178.064.318.194.42.13.103.284.154.462.154.216 0 .426-.05.628-.15.342-.167.513-.439.513-.817v-.497c-.076.049-.172.088-.291.12-.118.032-.234.055-.348.069l-.372.047c-.224.03-.391.077-.503.141-.189.107-.283.278-.283.513zm1.489-1.245c.142-.018.236-.077.284-.178.027-.055.041-.133.041-.236 0-.21-.075-.361-.225-.455-.149-.095-.362-.144-.639-.144-.322 0-.549.087-.684.26-.075.096-.124.239-.147.428h-.574c.012-.452.157-.765.438-.941.282-.177.609-.266.98-.266.43 0 .78.082 1.049.246.267.164.4.42.4.766v2.11c0 .064.012.116.037.154.028.039.084.058.168.058l.092-.003c.034-.005.071-.01.109-.017v.455c-.096.027-.168.044-.218.051-.05.007-.119.01-.205.01-.212 0-.366-.075-.461-.226-.051-.079-.086-.192-.106-.338-.126.164-.306.307-.54.427-.235.121-.493.182-.776.182-.339 0-.617-.103-.833-.308-.215-.208-.322-.466-.322-.776 0-.34.106-.604.318-.791.212-.186.49-.302.834-.345l.98-.123zm2.057-2.466h.622v1.023h.584v.502h-.584v2.391c0 .128.043.213.13.256.047.025.127.038.239.038h.096l.119-.01v.486c-.07.02-.145.035-.222.044-.075.009-.157.014-.246.014-.287 0-.482-.073-.584-.219-.103-.149-.154-.34-.154-.575v-2.425h-.496v-.502h.496v-1.023zm3.349.94c.259 0 .511.062.754.185.244.121.43.279.557.472.123.185.205.4.246.647.037.168.055.437.055.807h-2.682c.011.372.099.67.263.896.164.223.418.335.762.335.321 0 .577-.106.769-.318.109-.123.186-.266.232-.428h.605c-.016.135-.07.285-.161.452-.089.164-.189.299-.301.403-.186.183-.418.306-.693.37-.148.036-.316.055-.502.055-.456 0-.842-.166-1.159-.496-.316-.333-.475-.798-.475-1.396 0-.588.16-1.066.479-1.433.319-.367.735-.551 1.251-.551zm.98 1.621c-.025-.266-.083-.479-.175-.639-.168-.297-.449-.444-.843-.444-.283 0-.52.102-.711.307-.191.203-.293.462-.304.776h2.033zm3.864.503c.016.285.083.517.202.695.225.332.622.499 1.192.499.255 0 .487-.036.697-.11.405-.141.608-.394.608-.759 0-.273-.085-.468-.256-.585-.173-.113-.444-.213-.813-.297l-.68-.154c-.444-.1-.759-.211-.943-.332-.319-.209-.478-.523-.478-.94 0-.452.155-.822.468-1.112.311-.289.754-.434 1.325-.434.526 0 .973.127 1.34.383.368.253.553.659.553 1.218h-.639c-.034-.27-.107-.476-.219-.619-.207-.263-.559-.394-1.055-.394-.401 0-.689.085-.865.253-.175.169-.263.365-.263.588 0 .246.103.427.308.541.134.073.438.164.912.273l.703.161c.34.078.602.184.786.318.32.235.479.576.479 1.023 0 .556-.203.954-.609 1.194-.402.239-.872.359-1.407.359-.624 0-1.113-.16-1.466-.479-.353-.317-.526-.747-.519-1.29h.639zm5.665-2.124c.259 0 .511.062.755.185.244.121.429.279.557.472.123.185.205.4.245.647.037.168.055.437.055.807h-2.682c.011.372.099.67.263.896.164.223.418.335.762.335.322 0 .578-.106.769-.318.109-.123.187-.266.232-.428h.605c-.016.135-.07.285-.161.452-.088.164-.188.299-.3.403-.187.183-.418.306-.694.37-.148.036-.315.055-.502.055-.456 0-.841-.166-1.158-.496-.317-.333-.475-.798-.475-1.396 0-.588.159-1.066.478-1.433.319-.367.736-.551 1.251-.551zm.98 1.621c-.025-.266-.083-.479-.174-.639-.169-.297-.45-.444-.844-.444-.282 0-.519.102-.711.307-.191.203-.292.462-.304.776h2.033zm1.756.975c.018.206.07.363.154.472.155.199.424.298.806.298.228 0 .428-.049.602-.147.173-.1.259-.254.259-.462 0-.157-.069-.277-.208-.359-.089-.05-.264-.108-.526-.175l-.489-.123c-.312-.077-.542-.164-.69-.26-.264-.166-.396-.396-.396-.69 0-.347.124-.627.372-.842.251-.214.587-.321 1.008-.321.551 0 .949.162 1.192.485.153.206.227.427.222.664h-.58c-.012-.139-.061-.266-.147-.38-.142-.162-.386-.243-.735-.243-.232 0-.409.045-.53.134-.118.089-.177.206-.177.352 0 .16.079.288.236.383.091.057.225.107.403.151l.406.099c.442.107.738.211.889.311.239.157.358.405.358.742 0 .326-.124.608-.372.845-.246.237-.622.356-1.127.356-.545 0-.931-.123-1.159-.369-.225-.249-.346-.556-.362-.921h.591zm3.499 0c.018.206.069.363.153.472.155.199.424.298.807.298.228 0 .428-.049.601-.147.173-.1.26-.254.26-.462 0-.157-.07-.277-.209-.359-.088-.05-.264-.108-.526-.175l-.488-.123c-.312-.077-.542-.164-.69-.26-.265-.166-.397-.396-.397-.69 0-.347.124-.627.373-.842.25-.214.586-.321 1.008-.321.551 0 .948.162 1.192.485.152.206.226.427.222.664h-.581c-.011-.139-.06-.266-.147-.38-.141-.162-.386-.243-.734-.243-.233 0-.409.045-.53.134-.119.089-.178.206-.178.352 0 .16.079.288.236.383.091.057.226.107.403.151l.407.099c.442.107.738.211.888.311.239.157.359.405.359.742 0 .326-.124.608-.372.845-.247.237-.622.356-1.128.356-.544 0-.93-.123-1.158-.369-.225-.249-.347-.556-.362-.921h.591zm3.133-2.496h.625v3.646h-.625v-3.646zm0-1.379h.625v.698h-.625v-.698zm3.01 4.628c.408 0 .687-.154.837-.462.152-.31.229-.654.229-1.033 0-.342-.055-.62-.164-.834-.173-.338-.472-.507-.895-.507-.376 0-.649.144-.82.432-.171.287-.257.633-.257 1.039 0 .39.086.715.257.975s.441.39.813.39zm.024-3.372c.471 0 .87.157 1.195.472.326.314.489.777.489 1.388 0 .591-.143 1.079-.431 1.464-.286.385-.732.578-1.335.578-.504 0-.903-.17-1.2-.509-.296-.343-.444-.801-.444-1.376 0-.615.156-1.105.468-1.47.313-.365.731-.547 1.258-.547zm2.418.106h.585v.519c.173-.214.356-.368.55-.461.194-.094.409-.141.646-.141.519 0 .87.182 1.052.545.1.198.15.482.15.851v2.35h-.625v-2.309c0-.224-.033-.403-.099-.541-.11-.228-.308-.341-.595-.341-.145 0-.265.014-.358.044-.169.05-.317.15-.445.301-.102.121-.169.246-.201.376-.03.128-.044.311-.044.551v1.919h-.616v-3.663z"/>
        <path fill="#667D8A" d="M543.459 255.263v-.531c.503-.049.849-.13 1.045-.243.197-.115.346-.386.442-.811h.547v5.486h-.739v-3.901h-1.295zM163.854 259.062c.547 0 .927.142 1.141.427.217.283.325.575.325.876h-.608c-.037-.194-.095-.346-.175-.455-.148-.205-.372-.308-.673-.308-.343 0-.617.16-.82.479-.202.317-.315.772-.338 1.365.141-.208.319-.363.533-.466.196-.091.414-.136.656-.136.41 0 .768.131 1.073.393.305.262.457.653.457 1.173 0 .445-.144.839-.433 1.183-.289.342-.702.514-1.237.514-.458 0-.853-.174-1.186-.52-.332-.349-.498-.935-.498-1.758 0-.609.074-1.125.222-1.55.284-.811.805-1.217 1.561-1.217zm-.044 4.497c.323 0 .565-.108.724-.325.162-.218.242-.476.242-.773 0-.25-.071-.489-.215-.715-.143-.227-.404-.341-.782-.341-.264 0-.497.088-.697.263-.198.176-.297.44-.297.793 0 .311.09.572.27.784.182.209.434.314.755.314zm3.785-4.477c.633 0 1.091.261 1.374.784.218.403.328.956.328 1.658 0 .666-.1 1.217-.298 1.652-.287.625-.756.938-1.407.938-.588 0-1.025-.256-1.312-.767-.239-.426-.359-.999-.359-1.717 0-.556.072-1.034.215-1.433.269-.743.755-1.115 1.459-1.115zm-.007 4.47c.319 0 .573-.141.762-.423.189-.283.284-.81.284-1.581 0-.556-.069-1.013-.205-1.371-.137-.36-.402-.541-.796-.541-.362 0-.628.172-.796.513-.166.34-.25.842-.25 1.506 0 .499.054.9.161 1.203.164.463.444.694.84.694zm4.408-3.235h.608v.52c.146-.18.278-.312.396-.393.203-.14.433-.209.69-.209.292 0 .526.072.704.216.1.081.192.202.273.362.137-.196.298-.341.482-.435.185-.095.392-.143.622-.143.492 0 .827.178 1.005.533.095.192.143.45.143.774v2.438h-.639v-2.544c0-.245-.062-.412-.184-.503-.121-.091-.269-.137-.445-.137-.241 0-.449.081-.625.243-.173.162-.259.432-.259.81v2.131h-.626v-2.391c0-.248-.03-.43-.089-.543-.093-.172-.267-.257-.522-.257-.233 0-.444.09-.636.27-.189.181-.283.506-.283.978v1.943h-.615v-3.663zm5.828.017h.626v3.646h-.626v-3.646zm0-1.378h.626v.697h-.626v-.697zm1.558 1.361h.584v.52c.173-.214.357-.368.55-.462.194-.093.409-.14.646-.14.519 0 .87.181 1.053.544.1.198.15.482.15.851v2.35h-.625v-2.308c0-.224-.033-.404-.099-.541-.11-.228-.308-.342-.595-.342-.146 0-.265.015-.359.044-.168.051-.316.151-.444.301-.102.121-.17.246-.201.376-.03.128-.045.312-.045.551v1.919h-.615v-3.663zm4.261 2.514c.018.205.069.362.153.472.155.198.424.297.807.297.228 0 .428-.049.601-.147.173-.1.26-.254.26-.462 0-.157-.07-.277-.209-.358-.089-.051-.264-.109-.526-.175l-.488-.123c-.313-.078-.543-.164-.69-.26-.265-.167-.397-.397-.397-.691 0-.346.124-.627.372-.841.251-.215.587-.322 1.009-.322.551 0 .948.162 1.192.486.152.205.227.426.222.663h-.581c-.011-.139-.06-.265-.147-.379-.141-.162-.386-.243-.735-.243-.232 0-.408.045-.529.133-.118.089-.178.207-.178.353 0 .159.079.287.236.383.091.057.226.107.403.15l.407.099c.442.108.738.211.888.312.239.157.359.404.359.742 0 .326-.124.607-.372.845-.247.236-.622.355-1.128.355-.544 0-.93-.123-1.158-.369-.226-.249-.346-.556-.362-.92h.591z"/>
        <path fill="#A1B1BA" d="M153.061 258.435v1.751h.003l-.003.003 1.167 1.164-1.167 1.168.003.002h-.003v1.749h3.499v-1.749h-.003l.003-.002-1.167-1.168 1.167-1.164-.003-.003h.003v-1.751h-3.499zm2.916 4.232v1.021h-2.333v-1.021l1.166-1.168 1.167 1.168zm-1.167-1.459l-1.166-1.168v-1.021h2.333v1.021l-1.167 1.168z"/>
        <path fill="#667D8A" d="M165.467 249.096v.537c-.157.152-.367.418-.629.796-.26.379-.49.787-.69 1.225-.198.426-.348.815-.451 1.166-.066.226-.152.589-.256 1.091h-.68c.155-.935.496-1.865 1.025-2.791.312-.543.64-1.011.984-1.405h-2.706v-.619h3.403zm1.011 1.2h.714v.745h-.714v-.745zm0 2.87h.714v.745h-.714v-.745zm3.065-4.153c.633 0 1.091.262 1.373.784.219.403.328.956.328 1.659 0 .665-.099 1.216-.297 1.651-.287.625-.756.938-1.408.938-.587 0-1.025-.256-1.312-.766-.239-.427-.359-.999-.359-1.717 0-.557.072-1.034.216-1.434.268-.743.755-1.115 1.459-1.115zm-.007 4.47c.319 0 .573-.141.762-.423.189-.283.283-.81.283-1.581 0-.556-.068-1.013-.205-1.371-.137-.36-.402-.541-.796-.541-.362 0-.627.172-.796.514-.166.339-.249.841-.249 1.505 0 .499.053.9.16 1.204.164.462.445.693.841.693zm3.902-4.47c.633 0 1.091.262 1.373.784.218.403.328.956.328 1.659 0 .665-.099 1.216-.297 1.651-.287.625-.756.938-1.408.938-.588 0-1.025-.256-1.312-.766-.239-.427-.358-.999-.358-1.717 0-.557.071-1.034.215-1.434.268-.743.755-1.115 1.459-1.115zm-.007 4.47c.318 0 .572-.141.761-.423.19-.283.284-.81.284-1.581 0-.556-.068-1.013-.205-1.371-.136-.36-.402-.541-.796-.541-.362 0-.627.172-.796.514-.166.339-.249.841-.249 1.505 0 .499.053.9.16 1.204.164.462.444.693.841.693zm4.554-4.596h2.258c.447 0 .807.126 1.08.38.273.251.41.604.41 1.06 0 .392-.122.734-.366 1.026-.244.29-.618.434-1.124.434h-1.578v2.124h-.68v-5.024zm3.061 1.443c0-.369-.136-.62-.41-.752-.15-.071-.356-.106-.618-.106h-1.353v1.741h1.353c.305 0 .552-.065.741-.195.191-.13.287-.36.287-.688zm1.524-1.443h.974l1.441 4.248 1.432-4.248h.964v5.024h-.646v-2.965c0-.103.002-.273.007-.51.004-.237.006-.491.006-.763l-1.431 4.238h-.673l-1.442-4.238v.155c0 .123.002.311.007.564.007.251.01.435.01.554v2.965h-.649v-5.024z"/>
        <path fill="#A1B1BA" d="M154.807 247.928c-1.609 0-2.912 1.308-2.912 2.919s1.303 2.918 2.912 2.918c1.613 0 2.919-1.307 2.919-2.918 0-1.611-1.306-2.919-2.919-2.919zm.004 5.253c-1.289 0-2.333-1.044-2.333-2.334s1.044-2.335 2.333-2.335c1.288 0 2.332 1.045 2.332 2.335s-1.044 2.334-2.332 2.334z"/>
        <path fill="#A1B1BA" d="M154.956 249.388h-.437v1.751l1.53.919.219-.359-1.312-.779v-1.532z"/>
        <path fill="#2F98D0" d="M428.134 255.881v-1.532c0-.241-.197-.438-.437-.438h-5.248c-.241 0-.437.197-.437.438v4.378c0 .24.196.437.437.437h5.248c.24 0 .437-.197.437-.437v-1.533l1.749 1.752v-4.816l-1.749 1.751z"/>
        <g filter="url(#filter2_d)">
            <path fill="#fff" d="M588.63 160.227H130.321v42.026H588.63v-42.026z"/>
        </g>
        <path fill="#A1B1BA" d="M561.525 183.584l2.335-2.344-2.335-2.344.721-.72 3.062 3.064-3.062 3.064-.721-.72z"/>
        <path fill="#B8DCEF" stroke="#fff" stroke-width="2" d="M495.918 189.558c4.589 0 8.309-3.724 8.309-8.318 0-4.594-3.72-8.318-8.309-8.318-4.589 0-8.309 3.724-8.309 8.318 0 4.594 3.72 8.318 8.309 8.318z"/>
        <path fill="#B8DCEF" stroke="#fff" stroke-width="2" d="M508.163 189.558c4.589 0 8.309-3.724 8.309-8.318 0-4.594-3.72-8.318-8.309-8.318-4.589 0-8.309 3.724-8.309 8.318 0 4.594 3.72 8.318 8.309 8.318z"/>
        <path fill="#B8DCEF" stroke="#fff" stroke-width="2" d="M520.408 189.558c4.589 0 8.309-3.724 8.309-8.318 0-4.594-3.72-8.318-8.309-8.318-4.589 0-8.309 3.724-8.309 8.318 0 4.594 3.72 8.318 8.309 8.318z"/>
        <path fill="#303B41" d="M207.45 172.523h.892l1.622 2.717 1.622-2.717h.895l-2.133 3.375v2.278h-.765v-2.278l-2.133-3.375zm6.507 5.206c.459 0 .773-.173.942-.519.172-.349.257-.737.257-1.162 0-.385-.061-.698-.184-.939-.195-.38-.531-.57-1.007-.57-.423 0-.73.162-.923.485-.192.324-.288.714-.288 1.17 0 .439.096.804.288 1.097.193.292.498.438.915.438zm.027-3.794c.53 0 .979.178 1.346.531.366.354.549.875.549 1.563 0 .664-.162 1.213-.484 1.646-.323.434-.824.651-1.503.651-.566 0-1.016-.192-1.349-.574-.333-.385-.5-.9-.5-1.546 0-.693.175-1.245.527-1.655.351-.41.822-.616 1.414-.616zm4.174.047c.323 0 .605.079.846.238.131.09.264.221.4.392v-.519h.638v3.748c0 .523-.077.936-.231 1.239-.287.559-.829.838-1.626.838-.443 0-.816-.099-1.118-.3-.303-.197-.472-.507-.508-.931h.704c.033.185.1.327.2.428.156.153.402.23.738.23.53 0 .877-.187 1.041-.561.098-.221.142-.615.135-1.182-.139.211-.305.367-.5.47-.195.102-.452.153-.773.153-.445 0-.836-.157-1.172-.473-.333-.318-.5-.843-.5-1.574 0-.69.168-1.228.504-1.615.338-.388.746-.581 1.222-.581zm1.246 2.116c0-.511-.105-.889-.316-1.135-.21-.246-.477-.37-.803-.37-.487 0-.82.229-.999.685-.095.244-.142.563-.142.958 0 .465.093.818.28 1.062.19.241.443.362.761.362.497 0 .847-.224 1.049-.673.113-.254.17-.551.17-.889zm2.214.981c0 .2.073.358.219.473.146.116.319.174.519.174.243 0 .479-.057.707-.17.384-.187.576-.494.576-.92v-.557c-.084.053-.193.099-.326.134-.134.036-.264.062-.392.077l-.419.054c-.251.034-.44.086-.565.158-.213.12-.319.313-.319.577zm1.676-1.401c.158-.02.265-.087.318-.2.031-.061.047-.15.047-.265 0-.236-.085-.407-.254-.512-.167-.108-.406-.162-.719-.162-.361 0-.617.098-.769.293-.084.107-.139.268-.165.481h-.645c.012-.508.176-.861.492-1.058.317-.2.685-.301 1.102-.301.485 0 .878.093 1.18.278.3.184.45.472.45.862v2.374c0 .071.014.129.042.173.031.043.094.065.189.065.03 0 .065-.001.103-.004.039-.005.08-.011.124-.019v.512c-.108.03-.19.05-.246.058-.057.007-.134.011-.231.011-.238 0-.411-.084-.519-.254-.056-.09-.096-.217-.119-.381-.141.185-.343.345-.607.481-.264.136-.555.204-.873.204-.382 0-.694-.115-.938-.346-.24-.234-.361-.525-.361-.874 0-.382.119-.678.358-.888.238-.211.55-.34.937-.389l1.104-.139z"/>
        <path fill="#8A9EA8" d="M209.991 184.404c.472 0 .879.091 1.223.273.499.263.804.722.916 1.379h-.673c-.082-.368-.252-.634-.509-.801-.258-.169-.582-.253-.974-.253-.465 0-.857.174-1.175.523-.317.349-.475.869-.475 1.56 0 .597.131 1.084.393 1.461.262.373.689.56 1.281.56.453 0 .828-.131 1.124-.393.298-.265.451-.691.458-1.279h-1.572v-.565h2.204v2.689h-.437l-.164-.647c-.23.254-.434.429-.612.527-.298.169-.678.253-1.138.253-.594 0-1.106-.192-1.534-.578-.467-.483-.7-1.147-.7-1.99 0-.842.227-1.511.683-2.008.433-.474.993-.711 1.681-.711zm3.211 1.491h.585v.632c.048-.123.165-.272.352-.447.186-.179.402-.267.646-.267l.057.003.141.014v.65c-.037-.007-.071-.012-.103-.014-.029-.002-.063-.003-.099-.003-.31 0-.548.1-.714.3-.166.199-.249.428-.249.688v2.107h-.616v-3.663zm3.766 3.266c.407 0 .686-.154.837-.462.152-.31.229-.654.229-1.032 0-.343-.055-.621-.164-.835-.174-.337-.472-.506-.896-.506-.375 0-.649.143-.82.431-.17.287-.255.633-.255 1.04 0 .389.085.714.255.974.171.26.442.39.814.39zm.024-3.372c.471 0 .87.157 1.195.472.326.315.489.777.489 1.388 0 .591-.144 1.079-.43 1.464-.288.386-.733.578-1.336.578-.504 0-.903-.17-1.2-.509-.296-.343-.444-.801-.444-1.375 0-.616.156-1.106.468-1.471.312-.365.731-.547 1.258-.547zm3.033.106v2.432c0 .187.03.339.089.458.11.219.313.328.612.328.428 0 .719-.191.875-.574.084-.206.126-.487.126-.845v-1.799h.615v3.663h-.581l.007-.54c-.08.138-.179.256-.297.352-.235.191-.52.287-.854.287-.522 0-.878-.175-1.066-.523-.103-.187-.154-.437-.154-.749v-2.49h.628zm4.825 3.249c.286 0 .525-.12.714-.359.191-.242.287-.602.287-1.081 0-.292-.042-.543-.127-.752-.159-.404-.451-.606-.874-.606-.426 0-.718.213-.875.64-.084.228-.126.517-.126.868 0 .283.042.524.126.722.16.379.451.568.875.568zm-1.592-3.232h.598v.485c.122-.166.257-.295.403-.386.207-.137.451-.205.731-.205.414 0 .766.159 1.056.479.289.316.433.77.433 1.361 0 .798-.208 1.368-.625 1.71-.264.217-.572.325-.922.325-.276 0-.507-.061-.694-.181-.109-.069-.231-.186-.365-.353v1.871h-.615v-5.106zm6.416 2.025c.016.285.083.516.201.694.226.333.623.499 1.193.499.255 0 .487-.036.697-.109.405-.141.608-.395.608-.759 0-.274-.086-.469-.257-.585-.172-.114-.443-.214-.813-.298l-.68-.154c-.443-.1-.758-.211-.942-.332-.319-.209-.479-.523-.479-.94 0-.452.156-.822.469-1.111.311-.29.753-.435 1.325-.435.526 0 .973.128 1.339.383.369.253.554.659.554 1.218h-.639c-.034-.269-.107-.476-.219-.619-.207-.262-.559-.394-1.056-.394-.401 0-.688.085-.864.253-.175.169-.263.365-.263.589 0 .246.102.426.308.54.134.073.438.164.912.273l.703.162c.34.077.602.183.786.317.319.236.479.576.479 1.023 0 .556-.203.954-.609 1.194-.403.239-.872.359-1.407.359-.624 0-1.113-.16-1.466-.479-.353-.317-.526-.747-.519-1.289h.639zm5.665-2.124c.259 0 .511.061.754.184.244.121.43.279.558.472.122.185.204.4.245.647.037.168.055.438.055.807h-2.682c.011.372.099.67.263.896.164.224.418.335.762.335.321 0 .577-.106.769-.318.109-.123.187-.265.232-.427h.605c-.016.134-.07.285-.161.451-.088.164-.189.299-.301.404-.186.182-.417.305-.693.369-.148.036-.315.055-.502.055-.456 0-.842-.166-1.159-.496-.316-.333-.474-.798-.474-1.395 0-.589.159-1.066.478-1.434.319-.367.736-.55 1.251-.55zm.98 1.621c-.025-.267-.083-.48-.174-.639-.169-.297-.45-.445-.844-.445-.283 0-.52.102-.711.307-.191.204-.293.462-.304.777h2.033zm1.756.975c.018.205.069.362.154.472.155.198.424.297.806.297.228 0 .428-.049.602-.147.173-.1.259-.254.259-.462 0-.157-.069-.277-.208-.359-.089-.05-.264-.108-.526-.174l-.489-.123c-.312-.078-.542-.165-.69-.26-.265-.167-.397-.397-.397-.691 0-.347.125-.627.373-.842.251-.214.586-.321 1.008-.321.551 0 .949.162 1.192.486.153.205.227.426.222.663h-.58c-.012-.139-.061-.266-.147-.379-.142-.162-.387-.243-.735-.243-.232 0-.409.044-.53.133-.118.089-.177.206-.177.353 0 .159.079.287.236.383.09.057.225.106.403.15l.406.099c.442.107.738.211.889.311.239.158.358.405.358.742 0 .327-.124.608-.372.845-.246.237-.622.356-1.128.356-.544 0-.93-.123-1.158-.369-.225-.249-.346-.556-.362-.92h.591zm3.498 0c.019.205.07.362.154.472.155.198.424.297.807.297.228 0 .428-.049.601-.147.173-.1.259-.254.259-.462 0-.157-.069-.277-.208-.359-.088-.05-.264-.108-.526-.174l-.488-.123c-.313-.078-.543-.165-.69-.26-.265-.167-.397-.397-.397-.691 0-.347.124-.627.373-.842.25-.214.586-.321 1.008-.321.551 0 .948.162 1.192.486.152.205.226.426.222.663h-.581c-.011-.139-.06-.266-.147-.379-.141-.162-.386-.243-.735-.243-.232 0-.408.044-.529.133-.119.089-.178.206-.178.353 0 .159.079.287.236.383.091.057.226.106.403.15l.407.099c.442.107.738.211.888.311.239.158.359.405.359.742 0 .327-.124.608-.372.845-.247.237-.622.356-1.128.356-.544 0-.93-.123-1.158-.369-.226-.249-.347-.556-.362-.92h.59zm3.133-2.497h.626v3.646h-.626v-3.646zm0-1.379h.626v.698h-.626v-.698zm3.01 4.628c.408 0 .687-.154.837-.462.153-.31.23-.654.23-1.032 0-.343-.055-.621-.164-.835-.174-.337-.472-.506-.896-.506-.375 0-.649.143-.82.431-.171.287-.256.633-.256 1.04 0 .389.085.714.256.974.171.26.442.39.813.39zm.025-3.372c.471 0 .87.157 1.195.472.326.315.489.777.489 1.388 0 .591-.144 1.079-.431 1.464-.287.386-.732.578-1.336.578-.503 0-.903-.17-1.199-.509-.296-.343-.444-.801-.444-1.375 0-.616.156-1.106.468-1.471.312-.365.731-.547 1.258-.547zm2.418.106h.585v.52c.173-.215.356-.369.55-.462.193-.094.409-.14.646-.14.519 0 .869.181 1.052.544.1.198.15.482.15.851v2.35h-.625v-2.309c0-.223-.033-.403-.099-.54-.11-.228-.308-.342-.595-.342-.145 0-.265.015-.358.044-.169.05-.317.151-.445.301-.102.121-.169.246-.201.376-.03.128-.044.312-.044.551v1.919h-.616v-3.663z"/>
        <path fill="#667D8A" d="M541.268 179.965v-.531c.503-.048.849-.129 1.045-.242.202-.115.346-.386.442-.812h.547v5.487h-.735v-3.902h-1.299zm5.76-1.608c.713 0 1.229.294 1.543.881.245.454.372 1.076.372 1.866 0 .749-.114 1.368-.337 1.859-.323.702-.848 1.054-1.583 1.054-.66 0-1.154-.287-1.473-.862-.272-.48-.407-1.123-.407-1.932 0-.626.083-1.163.245-1.612.302-.836.848-1.254 1.64-1.254zm-.009 5.029c.359 0 .647-.159.857-.477.214-.318.319-.911.319-1.778 0-.626-.074-1.14-.231-1.543-.153-.405-.451-.608-.893-.608-.411 0-.708.192-.896.577-.188.382-.28.947-.28 1.693 0 .562.057 1.014.179 1.355.184.521.499.781.945.781zM164.121 186.948v-2.219l-1.569 2.219h1.569zm.01 1.734v-1.197h-2.146v-.602l2.241-3.112h.52v3.177h.721v.537h-.721v1.197h-.615zm3.464-4.898c.633 0 1.091.262 1.374.784.218.403.328.956.328 1.659 0 .665-.1 1.216-.298 1.651-.287.625-.756.938-1.407.938-.588 0-1.025-.256-1.312-.766-.239-.427-.359-.999-.359-1.717 0-.557.072-1.034.215-1.434.269-.743.755-1.115 1.459-1.115zm-.007 4.471c.319 0 .573-.141.762-.424.189-.283.284-.81.284-1.581 0-.556-.069-1.013-.205-1.371-.137-.36-.402-.54-.796-.54-.362 0-.628.171-.796.513-.166.339-.25.841-.25 1.505 0 .499.054.9.161 1.204.164.462.444.694.84.694zm4.408-3.236h.608v.52c.146-.18.278-.311.396-.393.203-.139.433-.209.69-.209.292 0 .526.072.704.216.1.082.192.203.273.362.137-.196.298-.341.482-.434.185-.096.392-.144.622-.144.492 0 .827.178 1.005.534.095.191.143.449.143.773v2.438h-.639v-2.544c0-.244-.062-.412-.184-.503-.121-.091-.269-.137-.445-.137-.241 0-.449.081-.625.243-.173.162-.259.432-.259.811v2.13h-.626v-2.39c0-.249-.03-.43-.089-.544-.093-.171-.267-.257-.522-.257-.233 0-.444.09-.636.27-.189.181-.283.506-.283.978v1.943h-.615v-3.663zm5.828.017h.626v3.646h-.626v-3.646zm0-1.378h.626v.698h-.626v-.698zm1.558 1.361h.584v.52c.173-.214.357-.368.55-.461.194-.094.409-.141.646-.141.519 0 .87.181 1.053.544.1.198.15.482.15.852v2.349h-.625v-2.308c0-.224-.033-.404-.099-.541-.11-.228-.308-.342-.595-.342-.146 0-.265.015-.359.044-.168.051-.316.151-.444.302-.102.12-.17.246-.201.376-.03.128-.045.311-.045.55v1.919h-.615v-3.663zm4.261 2.514c.018.205.069.363.153.472.155.198.424.298.807.298.228 0 .428-.049.601-.147.173-.101.26-.255.26-.462 0-.157-.07-.277-.209-.359-.089-.051-.264-.109-.526-.175l-.488-.123c-.313-.077-.543-.164-.69-.26-.265-.166-.397-.397-.397-.691 0-.346.124-.627.373-.841.25-.214.586-.322 1.008-.322.551 0 .948.162 1.192.486.152.205.227.426.222.664h-.581c-.011-.14-.06-.266-.147-.38-.141-.162-.386-.243-.735-.243-.232 0-.408.045-.529.134-.118.088-.178.206-.178.352 0 .159.079.287.236.383.091.057.226.107.403.15l.407.1c.442.107.738.211.888.311.239.157.359.404.359.742 0 .326-.124.608-.372.845-.247.237-.622.355-1.128.355-.544 0-.93-.123-1.158-.369-.226-.248-.346-.555-.362-.92h.591z"/>
        <path fill="#A1B1BA" d="M153.061 183.137v1.751h.003l-.003.003 1.167 1.165-1.167 1.167.003.003h-.003v1.748h3.499v-1.748h-.003l.003-.003-1.167-1.167 1.167-1.165-.003-.003h.003v-1.751h-3.499zm2.916 4.232v1.021h-2.333v-1.021l1.166-1.168 1.167 1.168zm-1.167-1.459l-1.166-1.168v-1.021h2.333v1.021l-1.167 1.168z"/>
        <path fill="#667D8A" d="M162.672 177.365c.041.351.204.594.489.728.145.069.314.103.505.103.364 0 .635-.116.81-.349.175-.232.263-.49.263-.773 0-.342-.105-.606-.315-.793-.207-.187-.456-.281-.748-.281-.211 0-.394.041-.546.123-.15.083-.279.196-.386.343l-.533-.031.372-2.637h2.542v.595h-2.081l-.208 1.361c.114-.086.222-.152.325-.195.182-.075.392-.113.632-.113.448 0 .829.145 1.141.435.312.289.468.656.468 1.101 0 .463-.144.871-.431 1.224-.285.354-.74.53-1.367.53-.398 0-.751-.111-1.058-.335-.306-.225-.476-.571-.513-1.036h.639zm3.806-2.367h.714v.746h-.714v-.746zm0 2.87h.714v.745h-.714v-.745zm2.99.879c-.579 0-.999-.159-1.261-.476-.26-.319-.39-.707-.39-1.163h.643c.027.317.086.547.177.691.16.258.448.387.865.387.323 0 .583-.087.779-.26.195-.173.293-.397.293-.671 0-.337-.103-.573-.31-.708-.206-.134-.491-.201-.858-.201l-.126.003c-.042 0-.084.001-.127.004v-.544c.064.006.117.011.161.013.043.003.09.004.14.004.23 0 .419-.037.567-.109.26-.128.389-.356.389-.685 0-.244-.086-.432-.259-.564-.173-.132-.375-.198-.605-.198-.41 0-.694.137-.851.41-.086.15-.135.365-.147.643h-.608c0-.365.073-.675.219-.93.25-.456.691-.684 1.322-.684.499 0 .885.112 1.158.335.274.221.41.543.41.965 0 .3-.081.544-.242.732-.1.116-.23.207-.39.273.258.071.458.207.601.41.146.201.219.447.219.739 0 .468-.154.848-.461 1.143-.307.294-.744.441-1.308.441zm3.97-5.032c.633 0 1.091.262 1.373.784.218.403.328.956.328 1.659 0 .665-.099 1.216-.297 1.652-.288.624-.756.937-1.408.937-.588 0-1.025-.256-1.312-.766-.239-.427-.358-.999-.358-1.717 0-.557.071-1.034.215-1.434.268-.743.754-1.115 1.459-1.115zm-.007 4.471c.318 0 .572-.141.761-.424.19-.283.284-.81.284-1.581 0-.556-.068-1.013-.205-1.371-.136-.36-.402-.54-.796-.54-.362 0-.627.171-.796.513-.166.339-.249.841-.249 1.505 0 .499.053.9.16 1.204.164.462.444.694.841.694zm4.554-4.597h2.258c.447 0 .807.126 1.08.38.273.251.41.604.41 1.06 0 .392-.122.734-.366 1.026-.244.29-.618.434-1.124.434h-1.578v2.124h-.68v-5.024zm3.061 1.443c0-.369-.136-.62-.41-.752-.15-.071-.356-.106-.618-.106h-1.353v1.741h1.353c.305 0 .552-.065.741-.195.191-.13.287-.359.287-.688zm1.524-1.443h.974l1.441 4.248 1.432-4.248h.964v5.024h-.646v-2.965c0-.103.002-.272.007-.51.004-.237.006-.491.006-.762l-1.431 4.237h-.673l-1.442-4.237v.154c0 .123.002.311.007.564.007.251.01.436.01.554v2.965h-.649v-5.024z"/>
        <path fill="#A1B1BA" d="M154.807 172.63c-1.609 0-2.912 1.308-2.912 2.919s1.303 2.919 2.912 2.919c1.613 0 2.919-1.308 2.919-2.919s-1.306-2.919-2.919-2.919zm.004 5.254c-1.289 0-2.333-1.045-2.333-2.335s1.044-2.335 2.333-2.335c1.288 0 2.332 1.045 2.332 2.335s-1.044 2.335-2.332 2.335z"/>
        <path fill="#A1B1BA" d="M154.956 174.09h-.437v1.751l1.53.919.219-.359-1.312-.779v-1.532z"/>
        <path fill="#2F98D0" d="M428.134 180.583v-1.532c0-.241-.197-.438-.437-.438h-5.248c-.241 0-.437.197-.437.438v4.378c0 .241.196.438.437.438h5.248c.24 0 .437-.197.437-.438v-1.532l1.749 1.751v-4.816l-1.749 1.751z"/>
        <path fill="#F0F3F4" d="M506.414 309.947H190.671c-7.488 0-13.557 6.076-13.557 13.571s6.069 13.571 13.557 13.571h315.743c7.487 0 13.557-6.076 13.557-13.571s-6.07-13.571-13.557-13.571zM506.414 92.809H190.671c-7.488 0-13.557 6.076-13.557 13.571s6.069 13.571 13.557 13.571h315.743c7.487 0 13.557-6.076 13.557-13.571s-6.07-13.571-13.557-13.571z"/>
        <path fill="#B8DCEF" d="M446.501 62.602h-38.484c-3.864 0-6.997 3.136-6.997 7.005 0 3.868 3.133 7.004 6.997 7.004h38.484c3.865 0 6.998-3.136 6.998-7.004 0-3.869-3.133-7.005-6.998-7.005zM512.974 62.602H474.49c-3.865 0-6.997 3.136-6.997 7.005 0 3.868 3.132 7.004 6.997 7.004h38.484c3.864 0 6.997-3.136 6.997-7.004 0-3.869-3.133-7.005-6.997-7.005z"/>
    </g>
    <defs>
        <filter id="filter0_d" width="532.292" height="343.698" x="44.606" y="53.409" color-interpolation-filters="sRGB" filterUnits="userSpaceOnUse">
            <feFlood flood-opacity="0" result="BackgroundImageFix"/>
            <feColorMatrix in="SourceAlpha" values="0 0 0 0 0 0 0 0 0 0 0 0 0 0 0 0 0 0 127 0"/>
            <feOffset dx="16" dy="16"/>
            <feGaussianBlur stdDeviation="8"/>
            <feColorMatrix values="0 0 0 0 0 0 0 0 0 0 0 0 0 0 0 0 0 0 0.1 0"/>
            <feBlend in2="BackgroundImageFix" result="effect1_dropShadow"/>
            <feBlend in="SourceGraphic" in2="effect1_dropShadow" result="shape"/>
        </filter>
        <filter id="filter1_d" width="490.309" height="74.027" x="114.321" y="221.524" color-interpolation-filters="sRGB" filterUnits="userSpaceOnUse">
            <feFlood flood-opacity="0" result="BackgroundImageFix"/>
            <feColorMatrix in="SourceAlpha" values="0 0 0 0 0 0 0 0 0 0 0 0 0 0 0 0 0 0 127 0"/>
            <feOffset dy="2"/>
            <feGaussianBlur stdDeviation="8"/>
            <feColorMatrix values="0 0 0 0 0 0 0 0 0 0 0 0 0 0 0 0 0 0 0.4 0"/>
            <feBlend in2="BackgroundImageFix" result="effect1_dropShadow"/>
            <feBlend in="SourceGraphic" in2="effect1_dropShadow" result="shape"/>
        </filter>
        <filter id="filter2_d" width="490.309" height="74.027" x="114.321" y="146.227" color-interpolation-filters="sRGB" filterUnits="userSpaceOnUse">
            <feFlood flood-opacity="0" result="BackgroundImageFix"/>
            <feColorMatrix in="SourceAlpha" values="0 0 0 0 0 0 0 0 0 0 0 0 0 0 0 0 0 0 127 0"/>
            <feOffset dy="2"/>
            <feGaussianBlur stdDeviation="8"/>
            <feColorMatrix values="0 0 0 0 0 0 0 0 0 0 0 0 0 0 0 0 0 0 0.4 0"/>
            <feBlend in2="BackgroundImageFix" result="effect1_dropShadow"/>
            <feBlend in="SourceGraphic" in2="effect1_dropShadow" result="shape"/>
        </filter>
        <clipPath id="clip0">
            <path fill="#fff" d="M0 0H600V394H0z"/>
        </clipPath>
    </defs>
</svg>
