<svg width="526" height="390" viewBox="0 0 526 390" fill="none" xmlns="http://www.w3.org/2000/svg">
<g clip-path="url(#clip0)">
<path d="M375 -84.1101C483.972 -118.497 524.015 -83.7662 535 -55.1104C545.985 -26.4546 539.94 34.4116 496 76.8896C441.075 129.987 524.737 176.847 480.797 272.928C436.856 369.009 321 316.89 287.459 298.213C256.431 280.935 157.94 221.963 114 259.89C70.0596 297.816 10.6345 262.814 -20.1237 219.831C-50.882 176.847 76.5451 176.847 10.6345 47.8958C-42.0939 -55.265 47.2515 -94.5405 98.5153 -101.283C151 -114.11 266.028 -49.7231 375 -84.1101Z" fill="url(#paint0_radial)"/>
<path d="M381.673 15.8076H143.02V121.08H381.673V15.8076Z" fill="white"/>
<path d="M381.673 139.2H143.02V244.473H381.673V139.2Z" fill="white"/>
<path d="M381.673 262.593H143.02V367.865H381.673V262.593Z" fill="white"/>
<path d="M164.912 200.466C168.604 200.466 171.597 196.602 171.597 191.837C171.597 187.071 168.604 183.208 164.912 183.208C161.22 183.208 158.227 187.071 158.227 191.837C158.227 196.602 161.22 200.466 164.912 200.466Z" fill="#E6E6E6"/>
<path d="M247.138 184.933H184.299V198.739H247.138V184.933Z" fill="#E6E6E6"/>
<path d="M283.738 200.897C287.43 200.897 290.423 197.034 290.423 192.268C290.423 187.502 287.43 183.639 283.738 183.639C280.046 183.639 277.053 187.502 277.053 192.268C277.053 197.034 280.046 200.897 283.738 200.897Z" fill="#E6E6E6"/>
<path d="M365.964 185.364H303.125V199.17H365.964V185.364Z" fill="#E6E6E6"/>
<path d="M164.912 77.0731C168.604 77.0731 171.597 73.2099 171.597 68.4443C171.597 63.6787 168.604 59.8154 164.912 59.8154C161.22 59.8154 158.227 63.6787 158.227 68.4443C158.227 73.2099 161.22 77.0731 164.912 77.0731Z" fill="#E6E6E6"/>
<path d="M366.465 60.6777H196.666V74.484H366.465V60.6777Z" fill="#E6E6E6"/>
<path d="M338.722 60.6777H186.305V74.484H338.722V60.6777Z" fill="#0155E1"/>
<path d="M164.912 323.858C168.604 323.858 171.597 319.995 171.597 315.229C171.597 310.463 168.604 306.6 164.912 306.6C161.22 306.6 158.227 310.463 158.227 315.229C158.227 319.995 161.22 323.858 164.912 323.858Z" fill="#E6E6E6"/>
<path d="M366.465 307.464H196.666V321.271H366.465V307.464Z" fill="#E6E6E6"/>
<path d="M281.733 307.464H186.305V321.271H281.733V307.464Z" fill="#0155E1"/>
<path d="M204.187 184.933H184.299V198.739H204.187V184.933Z" fill="#0155E1"/>
<path d="M342.566 185.364H303.125V199.17H342.566V185.364Z" fill="#0155E1"/>
<path opacity="0.1" d="M390.505 159.398H377.693V172.22H390.505V159.398Z" fill="#0155E1"/>
<path opacity="0.1" d="M390.505 191.023H377.693V203.845H390.505V191.023Z" fill="#0155E1"/>
<path opacity="0.1" d="M390.505 222.644H377.693V235.465H390.505V222.644Z" fill="#0155E1"/>
<path opacity="0.1" d="M390.505 254.269H377.693V267.09H390.505V254.269Z" fill="#0155E1"/>
<path opacity="0.1" d="M390.505 285.894H377.693V298.715H390.505V285.894Z" fill="#0155E1"/>
<path opacity="0.1" d="M377.693 325.783V317.515H390.501V324.606L377.693 325.783Z" fill="#0155E1"/>
<path opacity="0.1" d="M70.7188 263.493C71.1332 263.727 71.5522 263.944 71.9711 264.173V263.948H75.5751V265.981C75.8364 266.094 76.0841 266.216 76.3409 266.333V263.948H79.9449V267.852C80.0134 267.883 80.0842 267.909 80.1566 267.929V263.493H70.7188Z" fill="#0155E1"/>
<path opacity="0.1" d="M396.177 389.89C420.42 389.89 440.073 386.731 440.073 382.835C440.073 378.938 420.42 375.779 396.177 375.779C371.934 375.779 352.281 378.938 352.281 382.835C352.281 386.731 371.934 389.89 396.177 389.89Z" fill="#0155E1"/>
<path opacity="0.1" d="M198.203 382.834C222.446 382.834 242.099 379.676 242.099 375.779C242.099 371.882 222.446 368.724 198.203 368.724C173.96 368.724 154.307 371.882 154.307 375.779C154.307 379.676 173.96 382.834 198.203 382.834Z" fill="#0155E1"/>
<path d="M248.74 189.22C248.729 189.175 248.706 189.134 248.672 189.103C248.001 188.44 239.442 176.326 239.442 176.326C239.442 176.326 238.991 174.974 238.261 173.216C238.495 172.913 238.671 172.569 238.78 172.201C238.819 172.046 238.848 171.888 238.865 171.728C238.865 171.679 238.901 171.638 238.915 171.588C239.071 170.977 239.056 170.334 238.87 169.731C238.82 169.886 238.758 170.036 238.685 170.182C238.515 169.657 238.289 169.152 238.009 168.676C236.874 166.719 235.252 165.069 234.058 163.163C232.251 160.2 231.532 156.699 232.027 153.262C232.027 153.438 232.027 153.619 232.027 153.794C232.072 153.113 232.162 152.435 232.297 151.766C232.485 151.004 232.737 150.259 233.049 149.539C234.121 147.082 235.856 144.94 236.91 142.474C237.264 141.643 237.532 140.777 237.712 139.891C238.083 138.411 238.219 136.882 238.113 135.36C238.113 135.721 238.054 136.082 238 136.438C237.886 132.779 236.41 129.294 233.86 126.669C230.18 122.967 224.895 121.529 219.841 120.772C217.717 120.524 215.688 119.749 213.939 118.518C211.998 117.26 209.488 116.958 207.218 117.233C204.608 117.515 202.184 118.715 200.375 120.619C197.974 123.26 196.933 127.002 194.131 129.229C192.433 130.582 190.279 131.213 188.302 132.132C186.324 133.052 184.455 134.387 183.819 136.361C183.819 136.361 183.819 136.334 183.819 136.321V136.433L183.792 136.505C183.135 138.841 184.405 141.217 185.067 143.547C185.757 145.959 185.802 148.506 185.838 150.999C185.887 154.047 185.932 157.099 185.883 160.151C185.86 161.35 185.82 162.563 185.729 163.758C184.663 164.08 183.628 164.497 182.635 165.002C181.625 165.66 177.85 169.74 177.85 169.74L170.467 197.97L170.566 198.083L170.467 198.466L170.841 198.381C171.886 199.508 175.008 202.718 178.377 204.719L178.693 210.255C178.693 210.255 179.071 215.809 184.175 218.104C184.292 220.029 184.657 227.846 182.968 230.943C181.798 233.206 181.248 235.738 181.373 238.283C181.373 238.283 181.963 242.98 181.292 245.451C180.9 247.102 180.871 248.819 181.207 250.482C181.207 250.482 181.207 251.028 181.207 251.965C181.207 256.965 181.265 272.987 181.207 274.799C181.121 276.941 181.207 308.611 181.207 308.611C181.207 308.611 180.788 324.439 179.445 328.727C178.103 333.014 178.441 347.21 178.441 347.21C178.441 347.21 177.598 364.121 180.576 367.457C180.576 367.605 180.549 367.759 180.544 367.907C180.544 367.975 180.544 368.052 180.544 368.119C180.508 369.404 180.756 370.77 181.86 371.189C184.112 372.055 187.09 374.652 187.653 375.396C188.216 376.139 191.491 377.992 195.762 377.496C198.437 377.195 201.13 377.072 203.821 377.127C203.821 377.127 205.506 376.82 204.961 374.724C204.61 373.416 203.294 371.406 202.357 370.085C202.528 370.13 202.695 370.166 202.853 370.198L203.015 370.229H203.141C203.21 370.233 203.279 370.233 203.348 370.229H203.438C203.522 370.236 203.607 370.236 203.691 370.229C204.821 370.121 209.038 372.087 209.79 373.385C210.543 374.683 213.196 375.671 215.196 375.919C216.386 376.063 219.386 375.819 221.904 375.495C223.172 375.364 224.428 375.135 225.661 374.809C226.256 374.584 226.382 373.863 226.211 373.051C226.009 372.021 225.458 371.091 224.652 370.418C223.922 369.9 222.958 368.534 222.246 367.416L222.057 367.114C223.314 365.915 225.585 361.993 226.274 361.181C227.112 360.194 224.922 324.088 224.922 324.088V305.987L228.279 288.856L230.626 279.79L232.639 266.103C232.639 266.103 236.162 250.117 235.076 248.548C235.076 248.516 234.175 232.057 233.229 228.103C232.82 226.341 232.923 222.373 233.166 218.514C233.421 218.262 233.598 217.942 233.678 217.592C233.757 217.243 233.736 216.878 233.617 216.54C233.55 216.309 233.462 216.084 233.356 215.868C233.356 215.8 233.356 215.728 233.356 215.661C235.302 214.765 237.335 214.073 239.424 213.596C242.78 212.938 241.942 211.207 241.942 211.207C241.942 211.207 242.699 209.723 243.199 208.817C243.699 207.911 243.284 199.913 243.199 199.255C243.167 198.989 242.96 197.52 242.721 195.852C243.798 195.085 245.199 194.134 246.726 193.232C249.632 191.51 248.979 189.693 248.74 189.22ZM204.952 303.517C204.952 303.517 202.434 309.945 203.443 311.591C204.452 313.236 203.276 319.345 203.276 319.345L202.434 328.411C202.434 328.411 200.087 345.227 200.925 349.18C201.582 352.282 201.826 361.546 201.902 365.41C201.845 365.432 201.789 365.459 201.736 365.491L201.623 365.55C202.01 364.03 201.848 360.956 199.925 354.771L199.762 329.222C199.762 329.222 199.465 299.712 201.794 296.412C204.123 293.112 204.948 287.508 204.948 287.508C204.948 287.508 204.443 295.591 204.114 297.733C203.785 299.874 204.952 303.517 204.952 303.517ZM200.262 367.019C200.24 367.073 200.213 367.127 200.195 367.177L200.069 367.015C200.133 367.021 200.198 367.023 200.262 367.019Z" fill="url(#paint1_linear)"/>
<path d="M225.945 377.145C224.643 377.645 217.584 378.497 215.61 378.259C213.637 378.02 211.024 377.019 210.281 375.711C209.538 374.404 205.371 372.429 204.253 372.556C203.796 372.569 203.339 372.505 202.902 372.366C202.131 372.133 201.378 371.843 200.65 371.501C200.548 370.932 200.565 370.349 200.699 369.788C200.725 369.674 200.758 369.563 200.798 369.454C201.061 368.714 201.605 368.108 202.312 367.768L202.474 367.691C202.786 367.556 203.113 367.456 203.447 367.394C206.988 366.713 221.597 368.079 221.597 368.079C221.597 368.079 222.007 368.814 222.571 369.724C223.273 370.852 224.228 372.227 224.949 372.745C225.748 373.428 226.289 374.363 226.485 375.396C226.656 376.194 226.53 376.924 225.945 377.145Z" fill="white"/>
<path opacity="0.1" d="M225.945 377.145C224.643 377.645 217.588 378.497 215.615 378.258C213.642 378.019 211.029 377.014 210.281 375.711C209.533 374.408 205.375 372.429 204.258 372.555C203.141 372.681 200.654 371.5 200.654 371.5C200.654 371.5 200.267 369.697 201.393 368.466L203.645 370.067C203.645 370.067 209.673 371.938 210.79 373.673C211.908 375.409 213.944 376.378 216.886 376.554C219.084 376.698 224.134 375.842 226.499 375.413C226.657 376.193 226.535 376.924 225.945 377.145Z" fill="black"/>
<path d="M204.38 379.444C201.723 379.392 199.065 379.517 196.425 379.818C192.195 380.314 188.965 378.465 188.401 377.704C187.838 376.942 184.924 374.367 182.685 373.466C181.59 373.042 181.333 371.663 181.383 370.373C181.383 370.306 181.383 370.229 181.383 370.161C181.424 369.345 181.545 368.534 181.743 367.74L199.272 367.366L200.79 369.426L201.024 369.742L201.948 371C201.948 371 202.367 371.55 202.916 372.352C203.844 373.705 205.142 375.702 205.489 377.023C206.043 379.137 204.38 379.444 204.38 379.444Z" fill="white"/>
<path opacity="0.1" d="M204.38 379.444C201.723 379.392 199.065 379.517 196.425 379.818C192.199 380.314 188.965 378.466 188.406 377.704C187.847 376.942 184.924 374.345 182.685 373.475C181.59 373.051 181.333 371.672 181.383 370.382C182.635 370.675 185.266 371.424 186.298 372.727C187.649 374.467 190.068 377.393 193.505 377.577C196.281 377.726 203.038 377.23 205.516 377.032C206.047 379.137 204.38 379.444 204.38 379.444Z" fill="black"/>
<path opacity="0.1" d="M202.294 367.75C202.091 369.255 201.465 369.661 201.014 369.751C200.904 369.773 200.791 369.773 200.681 369.751C200.622 369.747 200.563 369.738 200.505 369.724C200.505 369.724 184.765 373.205 181.585 370.387C181.504 370.314 181.429 370.236 181.359 370.153C181.401 369.336 181.522 368.525 181.72 367.732L199.249 367.357L200.767 369.418C201.03 368.678 201.574 368.072 202.28 367.732L202.294 367.75Z" fill="black"/>
<path opacity="0.1" d="M222.567 369.707C222.216 370.094 221.923 370.315 221.738 370.239C220.909 369.905 214.116 368.746 211.958 369.743C209.8 370.739 202.498 369.905 202.498 369.905C202.498 369.905 202.498 369.039 202.457 367.651C202.769 367.516 203.096 367.416 203.43 367.353C206.971 366.672 221.58 368.038 221.58 368.038C221.58 368.038 222.008 368.796 222.567 369.707Z" fill="black"/>
<path d="M232.845 267.731L230.854 281.499L228.539 290.624L225.223 307.872V326.13C225.223 326.13 227.376 362.458 226.548 363.449C225.719 364.441 222.57 370.09 221.741 369.761C220.912 369.432 214.118 368.269 211.961 369.26C209.803 370.252 202.5 369.427 202.5 369.427C202.5 369.427 202.334 355.33 201.505 351.349C200.676 347.369 202.996 330.449 202.996 330.449L203.825 321.329C203.825 321.329 204.987 315.189 203.991 313.53C202.996 311.871 205.482 305.415 205.482 305.415C205.482 305.415 204.325 301.759 204.658 299.604C204.991 297.449 205.482 289.321 205.482 289.321C205.482 289.321 204.658 294.965 202.356 298.279C200.054 301.592 200.347 331.288 200.347 331.288L200.509 356.985C204.658 370.59 200.509 369.26 200.509 369.26C200.509 369.26 184.769 372.745 181.588 369.923C178.408 367.101 179.318 349.339 179.318 349.339C179.318 349.339 178.989 335.075 180.313 330.765C181.638 326.455 182.057 310.527 182.057 310.527C182.057 310.527 181.971 278.677 182.057 276.526C182.12 274.723 182.057 258.579 182.057 253.535C182.057 252.597 182.057 252.042 182.057 252.042L183.958 247.318L206.483 244.496H217.258C217.258 244.496 233.476 248.31 235.152 249.955C235.188 249.982 235.218 250.016 235.242 250.054C236.328 251.646 232.845 267.731 232.845 267.731Z" fill="#0155E1"/>
<path opacity="0.1" d="M205.496 340.052C205.496 340.052 210.452 351.994 212.79 352.823C215.128 353.653 205.496 340.052 205.496 340.052Z" fill="black"/>
<path opacity="0.1" d="M207.33 357.634C207.33 357.634 224.061 358.463 223.895 360.289C223.728 362.115 207.33 357.634 207.33 357.634Z" fill="black"/>
<path opacity="0.1" d="M184.945 352.859C185.608 353.486 197.708 354.662 196.712 355.807C195.717 356.952 185.941 359.179 185.941 359.179L184.945 352.859Z" fill="black"/>
<path opacity="0.1" d="M182.959 332.256C182.959 332.752 185.446 348.179 186.112 348.842C186.779 349.505 192.244 350.167 192.244 350.167L182.959 332.256Z" fill="black"/>
<path d="M201.001 121.39C198.627 124.045 197.6 127.81 194.834 130.055C193.154 131.407 191.028 132.052 189.072 132.972C187.117 133.891 185.18 135.293 184.599 137.376C183.95 139.721 185.203 142.114 185.86 144.459C186.541 146.884 186.581 149.418 186.622 151.956C186.667 155.026 186.716 158.096 186.662 161.166C186.581 165.949 186.185 170.953 183.648 175.006C192.807 177.923 202.547 178.32 212.151 178.694C213.997 178.826 215.851 178.779 217.688 178.554C219.279 178.237 220.854 177.838 222.404 177.36C225.471 176.548 228.63 176.143 231.802 176.156C233.185 176.156 234.595 176.242 235.928 175.881C237.262 175.52 238.546 174.596 238.906 173.262C239.226 172.062 238.757 170.787 238.145 169.709C237.027 167.744 235.442 166.103 234.243 164.164C233.02 162.116 232.294 159.81 232.125 157.43C231.955 155.051 232.346 152.664 233.266 150.464C234.329 147.989 236.041 145.834 237.086 143.354C238.156 140.692 238.441 137.778 237.906 134.959C237.371 132.14 236.039 129.533 234.068 127.449C230.432 123.725 225.215 122.283 220.224 121.516C218.122 121.268 216.117 120.493 214.395 119.262C212.48 118 209.998 117.693 207.754 117.973C205.166 118.263 202.769 119.476 201.001 121.39Z" fill="#3F3D56"/>
<g opacity="0.1">
<path opacity="0.1" d="M233.405 147.862C232.487 150.034 232.093 152.393 232.257 154.746C232.358 153.063 232.746 151.41 233.405 149.859C234.464 147.384 236.176 145.229 237.221 142.75C238.076 140.679 238.435 138.438 238.271 136.204C238.178 137.769 237.823 139.309 237.221 140.757C236.176 143.236 234.464 145.387 233.405 147.862Z" fill="black"/>
<path opacity="0.1" d="M186.757 151.342C186.784 153.109 186.811 154.881 186.815 156.648C186.815 154.214 186.793 151.784 186.757 149.354C186.721 146.834 186.676 144.282 185.996 141.852C185.545 140.311 184.878 138.746 184.644 137.191C184.243 139.4 185.383 141.641 185.996 143.845C186.676 146.252 186.721 148.822 186.757 151.342Z" fill="black"/>
<path opacity="0.1" d="M236.081 173.302C234.729 173.667 233.342 173.586 231.959 173.577C228.79 173.557 225.632 173.954 222.566 174.758C221.015 175.234 219.441 175.632 217.849 175.948C216.011 176.176 214.156 176.225 212.308 176.092C203.028 175.727 193.617 175.335 184.729 172.68C184.465 173.269 184.164 173.841 183.828 174.393C192.987 177.305 202.726 177.706 212.326 178.08C214.174 178.213 216.029 178.165 217.867 177.936C219.453 177.623 221.021 177.227 222.566 176.75C225.625 175.943 228.777 175.542 231.941 175.556C233.324 175.556 234.729 175.641 236.063 175.276C237.396 174.911 238.68 173.996 239.04 172.662C239.192 172.044 239.177 171.396 238.995 170.786C238.594 172.048 237.356 172.928 236.081 173.302Z" fill="black"/>
</g>
<path d="M222.737 167.959C222.404 168.708 220.998 175.173 220.665 175.835C220.332 176.498 218.512 187.106 218.345 187.701C218.178 188.296 206.348 185.212 206.348 185.212L199.226 179.239L191.905 171.949C191.905 171.949 191.689 165.372 197.082 163.262C197.448 163.118 197.825 163 198.208 162.91C204.749 161.337 204.091 141.433 204.091 141.433L217.516 147.235C217.516 147.235 215.029 158.848 215.115 161.089C215.137 161.842 215.728 162.311 216.498 162.595C217.689 162.934 218.929 163.068 220.165 162.991C220.165 162.991 223.071 167.216 222.737 167.959Z" fill="#FBBEBE"/>
<path d="M246.771 189.77L248.677 190.271C248.677 190.271 250.087 192.416 246.771 194.414C244.666 195.693 242.645 197.107 240.721 198.647L230.923 201.631L229.035 195.703L238.153 188.778L246.771 189.77Z" fill="#0155E1"/>
<path opacity="0.1" d="M246.771 189.77L248.677 190.271C248.677 190.271 250.087 192.416 246.771 194.414C244.666 195.693 242.645 197.107 240.721 198.647L230.923 201.631L229.035 195.703L238.153 188.778L246.771 189.77Z" fill="black"/>
<path d="M175.264 195.496L171.453 199.229C171.453 199.229 178.328 207.19 183.616 207.686C188.905 208.182 192.316 201.632 192.316 201.632L187.738 194.418L175.264 195.496Z" fill="#0155E1"/>
<path opacity="0.1" d="M175.264 195.496L171.453 199.229C171.453 199.229 178.328 207.19 183.616 207.686C188.905 208.182 192.316 201.632 192.316 201.632L187.738 194.418L175.264 195.496Z" fill="black"/>
<path opacity="0.1" d="M211.465 154.439C218.787 154.439 224.723 148.499 224.723 141.171C224.723 133.844 218.787 127.904 211.465 127.904C204.143 127.904 198.207 133.844 198.207 141.171C198.207 148.499 204.143 154.439 211.465 154.439Z" fill="black"/>
<path d="M211.465 153.443C218.787 153.443 224.723 147.503 224.723 140.175C224.723 132.848 218.787 126.908 211.465 126.908C204.143 126.908 198.207 132.848 198.207 140.175C198.207 147.503 204.143 153.443 211.465 153.443Z" fill="#FBBEBE"/>
<path opacity="0.1" d="M235.251 251.56C232.233 251.905 229.259 252.572 226.381 253.548C221.426 255.198 182.593 253.575 182.053 253.548C182.053 252.61 182.053 252.056 182.053 252.056L183.954 247.331L206.478 244.509H217.254C217.254 244.509 233.472 248.323 235.148 249.968C235.215 250.96 235.251 251.56 235.251 251.56Z" fill="black"/>
<path opacity="0.1" d="M222.737 167.959C222.404 168.708 220.998 175.173 220.665 175.835C220.332 176.498 218.512 187.106 218.345 187.701C218.178 188.296 206.348 185.212 206.348 185.212L199.226 179.239L191.905 171.949C191.905 171.949 191.689 165.372 197.082 163.262L210.47 178.667L216.498 162.595C217.689 162.934 218.929 163.068 220.165 162.991C220.165 162.991 223.071 167.216 222.737 167.959Z" fill="black"/>
<path d="M210.47 179.162L196.766 163.383C195.964 162.871 195.047 162.566 194.098 162.496C193.149 162.426 192.197 162.593 191.329 162.982C188.261 164.312 184.45 165.39 183.454 166.052C182.459 166.715 178.729 170.818 178.729 170.818L189.838 199.9L184.945 219.055C184.945 219.055 185.693 228.843 183.788 232.409C182.627 234.689 182.084 237.233 182.211 239.789C182.211 239.789 182.792 244.518 182.13 247.002C181.743 248.663 181.714 250.387 182.044 252.06C182.044 252.06 221.413 253.719 226.382 252.06C229.259 251.081 232.232 250.415 235.252 250.072C235.252 250.072 234.351 233.482 233.45 229.501C232.549 225.52 234.198 210.345 234.198 210.345L233.121 194.089L239.581 177.409C239.581 177.409 236.081 166.715 232.432 165.638C232.432 165.638 225.805 164.06 224.395 163.316C222.985 162.572 218.84 161.905 218.84 161.905L216.665 162.635L210.47 179.162Z" fill="#0155E1"/>
<path opacity="0.1" d="M229.59 193.54L200.753 191.578C200.023 191.528 199.391 192.08 199.342 192.81L196.246 238.373C196.196 239.103 196.748 239.736 197.477 239.785L226.314 241.748C227.044 241.797 227.676 241.245 227.726 240.515L230.822 194.952C230.871 194.222 230.32 193.59 229.59 193.54Z" fill="black"/>
<path d="M230.582 192.55L201.745 190.588C201.015 190.538 200.384 191.09 200.334 191.82L197.238 237.383C197.188 238.114 197.74 238.746 198.47 238.796L227.307 240.758C228.036 240.808 228.668 240.256 228.718 239.525L231.814 193.963C231.863 193.232 231.312 192.6 230.582 192.55Z" fill="#3F3D56"/>
<path d="M229.631 196.122L202.205 194.256L199.387 235.735L226.812 237.601L229.631 196.122Z" fill="white"/>
<path opacity="0.1" d="M227.173 206.709L204.77 205.14L204.332 211.388L226.735 212.958L227.173 206.709Z" fill="black"/>
<path opacity="0.1" d="M226.362 231.54L222.807 231.298L222.585 234.554L226.141 234.796L226.362 231.54Z" fill="black"/>
<path opacity="0.1" d="M222.855 223.681L204.656 222.442L204.435 225.699L222.633 226.937L222.855 223.681Z" fill="black"/>
<path d="M226.236 194.571L207.287 193.282L206.947 198.288L225.896 199.577L226.236 194.571Z" fill="#3F3D56"/>
<path opacity="0.1" d="M226.236 194.571L207.287 193.282L206.947 198.288L225.896 199.577L226.236 194.571Z" fill="black"/>
<path opacity="0.1" d="M212.127 250.645C212.127 250.645 211.961 275.196 205.496 289.293C205.496 289.293 213.29 270.715 213.29 269.971C213.29 269.227 217.596 261.428 216.443 259.106C215.29 256.785 212.127 250.645 212.127 250.645Z" fill="black"/>
<path opacity="0.1" d="M212.479 136.857C212.231 134.684 212.763 132.494 213.979 130.677C213.834 132.498 214.349 134.311 215.429 135.784C216.509 137.257 218.083 138.293 219.862 138.701C219.711 138.569 219.602 138.395 219.552 138.2C219.501 138.005 219.51 137.8 219.579 137.61C220.502 138.656 221.209 139.896 222.255 140.816C223.3 141.735 224.867 142.285 226.097 141.632C227.769 140.73 227.787 138.354 227.354 136.506C226.426 132.569 224.522 128.93 221.818 125.925C221.143 125.016 220.267 124.277 219.259 123.764C218.251 123.251 217.137 122.978 216.006 122.968C213.447 122.769 210.79 122.995 208.497 124.144C207.206 124.849 205.997 125.694 204.893 126.664L198.586 131.813C197.979 132.25 197.459 132.798 197.054 133.427C196.783 133.952 196.621 134.527 196.577 135.117C196.415 136.803 196.727 138.501 197.477 140.02C198.226 141.538 199.384 142.818 200.82 143.714C200.79 142.382 201.156 141.07 201.872 139.946C202.589 138.822 203.623 137.937 204.843 137.403C205.034 137.563 205.189 137.762 205.297 137.987C205.405 138.211 205.464 138.456 205.469 138.706L206.798 136.334C206.996 135.903 207.307 135.534 207.699 135.266C208.519 134.815 209.542 135.347 210.24 135.983C210.938 136.618 211.618 137.412 212.555 137.511L212.592 133.981" fill="black"/>
<path d="M212.48 136.361C212.232 134.187 212.764 131.995 213.98 130.176C213.575 133.783 216.291 137.506 219.868 138.201C219.716 138.07 219.608 137.896 219.557 137.702C219.506 137.508 219.516 137.303 219.585 137.114C220.508 138.16 221.215 139.395 222.26 140.32C223.306 141.244 224.873 141.789 226.103 141.131C227.774 140.229 227.792 137.854 227.36 136.01C226.432 132.073 224.528 128.434 221.823 125.429C220.984 124.405 219.927 123.583 218.729 123.022C217.861 122.7 216.949 122.515 216.026 122.472C213.467 122.273 210.809 122.494 208.516 123.644C207.226 124.351 206.018 125.198 204.912 126.168L198.605 131.317C197.997 131.753 197.478 132.301 197.073 132.931C196.802 133.456 196.64 134.031 196.596 134.621C196.435 136.307 196.747 138.004 197.497 139.521C198.246 141.039 199.404 142.318 200.84 143.214C200.81 141.881 201.177 140.57 201.893 139.447C202.609 138.323 203.643 137.438 204.862 136.902C205.053 137.063 205.207 137.262 205.315 137.487C205.423 137.711 205.482 137.956 205.489 138.205L206.813 135.843C207.01 135.411 207.321 135.041 207.714 134.774C208.534 134.324 209.557 134.856 210.255 135.491C210.953 136.127 211.633 136.916 212.57 137.02L212.606 133.485" fill="#3F3D56"/>
<path d="M218.76 220.047C217.602 219.461 198.456 222.45 198.456 222.45C198.456 222.45 195.303 221.548 187.681 220.295C180.058 219.042 179.572 211.585 179.572 211.585L178.738 196.658L181.311 194.404L192.33 201.617C192.33 201.617 192.501 205.265 192.33 205.923C192.222 206.374 191.933 206.91 191.96 207.275C191.969 207.374 192.009 207.467 192.076 207.541C192.143 207.614 192.232 207.663 192.33 207.681C193.077 207.87 203.268 209.52 203.268 209.52C203.268 209.52 226.887 207.902 232.775 215.863C233.241 216.448 233.594 217.114 233.816 217.829C235.275 223.27 219.81 220.565 218.76 220.047Z" fill="#FBBEBE"/>
<path opacity="0.1" d="M233.828 217.861C232.927 218.262 232.369 218.551 232.369 218.551C232.369 218.551 223.918 218.303 219.169 216.581C214.421 214.858 208.65 215.165 208.65 215.165C208.65 215.165 188.865 211.757 191.933 207.307C191.941 207.406 191.982 207.499 192.048 207.573C192.115 207.646 192.204 207.695 192.302 207.713C193.05 207.902 203.24 209.552 203.24 209.552C203.24 209.552 226.859 207.934 232.747 215.895C233.228 216.476 233.595 217.143 233.828 217.861Z" fill="black"/>
<path d="M242.046 191.596C242.046 191.596 243.208 199.806 243.29 200.473C243.371 201.14 243.79 209.178 243.29 210.093C242.789 211.008 242.046 212.496 242.046 212.496C242.046 212.496 242.875 214.236 239.559 214.904C236.244 215.571 232.352 217.554 232.352 217.554C232.352 217.554 223.896 217.306 219.175 215.566C214.453 213.826 208.651 214.155 208.651 214.155C208.651 214.155 183.536 209.841 194.312 204.575C205.088 199.31 212.71 206.442 212.71 206.442L224.725 205.698C224.725 205.698 229.203 202.957 230.446 203.209C231.324 203.321 232.216 203.177 233.014 202.795L233.099 194.085L242.046 191.596Z" fill="#FBBEBE"/>
<path opacity="0.1" d="M181.12 171.445L178.715 171.318L171.426 199.72C171.426 199.72 179.296 197.727 182.688 199.72C186.08 201.713 192.302 202.123 192.302 202.123L189.982 179.483L181.12 171.445Z" fill="black"/>
<path d="M181.12 170.944L178.715 170.817L171.426 199.219C171.426 199.219 179.296 197.226 182.688 199.219C186.08 201.212 192.302 201.622 192.302 201.622L189.982 178.982L181.12 170.944Z" fill="#0155E1"/>
<path opacity="0.1" d="M236.248 177.166L239.559 177.914C239.559 177.914 248.015 190.086 248.677 190.767C249.34 191.448 245.524 193.923 243.952 193.923C242.379 193.923 234.672 194.824 232.433 196.907C230.194 198.99 231.126 188.508 231.126 188.269C231.126 188.03 233.906 181.417 233.906 181.417L236.248 177.166Z" fill="black"/>
<path d="M236.248 176.669L239.559 177.413C239.559 177.413 248.015 189.608 248.677 190.27C249.34 190.933 245.524 193.426 243.952 193.426C242.379 193.426 234.672 194.328 232.433 196.41C230.194 198.493 231.126 188.012 231.126 187.773C231.126 187.534 233.924 180.898 233.924 180.898L236.248 176.669Z" fill="#0155E1"/>
<g opacity="0.1">
<path opacity="0.1" d="M213.957 130.217C213.937 129.871 213.945 129.525 213.979 129.18C213.293 130.21 212.822 131.368 212.592 132.584V133.63C212.592 133.63 212.592 133.607 212.592 133.594V133.842C212.592 134.572 212.592 135.307 212.569 136.037H212.506V136.375C212.506 136.258 212.506 136.145 212.484 136.028C211.583 135.884 210.939 135.127 210.267 134.522C209.596 133.918 208.546 133.341 207.727 133.806C207.334 134.072 207.022 134.442 206.826 134.874L205.488 137.236C205.482 136.988 205.423 136.743 205.315 136.519C205.207 136.295 205.052 136.097 204.861 135.938C203.641 136.472 202.607 137.358 201.891 138.481C201.174 139.605 200.808 140.917 200.839 142.249C199.608 141.478 198.578 140.424 197.835 139.175C197.091 137.926 196.656 136.519 196.563 135.068C196.485 136.688 196.84 138.299 197.591 139.736C198.343 141.173 199.464 142.383 200.839 143.241C200.809 141.909 201.176 140.598 201.892 139.474C202.608 138.351 203.642 137.465 204.861 136.93C205.052 137.09 205.206 137.289 205.314 137.514C205.422 137.739 205.481 137.984 205.488 138.233L206.812 135.87C207.009 135.438 207.32 135.068 207.713 134.802C208.533 134.351 209.556 134.883 210.254 135.519C210.952 136.154 211.632 136.943 212.569 137.047C212.569 135.893 212.581 134.742 212.605 133.594C212.826 132.389 213.286 131.241 213.957 130.217Z" fill="black"/>
<path opacity="0.1" d="M212.434 134.757C212.456 134.45 212.492 134.144 212.537 133.855L212.587 132.611C212.452 133.318 212.4 134.038 212.434 134.757Z" fill="black"/>
<path opacity="0.1" d="M226.101 140.135C224.871 140.793 223.304 140.243 222.259 139.324C221.213 138.404 220.506 137.164 219.583 136.118C219.514 136.307 219.505 136.513 219.556 136.708C219.606 136.902 219.715 137.077 219.866 137.209C219.776 137.209 219.691 137.164 219.605 137.142C220.506 138.178 221.222 139.396 222.259 140.297C223.295 141.199 224.871 141.767 226.101 141.109C227.331 140.451 227.682 138.909 227.574 137.408C227.493 138.589 227.07 139.612 226.101 140.135Z" fill="black"/>
<path opacity="0.1" d="M219.579 137.133C218.073 136.722 216.728 135.86 215.725 134.663C214.721 133.465 214.108 131.99 213.966 130.434C213.71 133.973 216.376 137.521 219.868 138.201C219.719 138.072 219.612 137.901 219.561 137.711C219.509 137.521 219.516 137.319 219.579 137.133Z" fill="black"/>
</g>
<path d="M435.924 210.814C435.924 210.814 434.15 210.566 434.15 207.983C434.15 205.4 432.879 200.563 432.879 200.563C432.879 200.563 431.78 192.146 430.262 190.811C428.744 189.477 426.793 181.642 426.793 181.642C426.793 181.642 426.46 177.39 425.779 176.475C425.099 175.56 424.18 173.32 422.824 170.123C421.468 166.927 415.828 164.736 415.828 164.736C415.828 164.736 405.606 158.803 402.71 156.869C402.445 156.709 402.197 156.521 401.971 156.31C401.466 155.652 399.268 155.638 399.268 155.638C399.038 154.182 398.817 152.514 398.745 151.004C398.745 150.842 398.745 150.679 398.745 150.517C401.975 148.606 404.408 145.594 405.597 142.033C405.651 141.861 405.696 141.685 405.746 141.51C405.944 141.449 406.126 141.346 406.281 141.21C406.437 141.073 406.561 140.905 406.647 140.716C406.904 140.135 406.913 139.458 407.237 138.913C407.615 138.273 408.336 137.93 408.904 137.452C410.336 136.231 410.706 134.179 410.638 132.317C410.593 130.803 410.35 129.279 410.445 127.778C410.445 127.651 410.445 127.525 410.472 127.399C410.499 127.178 410.53 126.948 410.571 126.732C410.791 125.614 411.273 124.559 411.544 123.45C411.814 122.341 411.841 121.092 411.21 120.136C410.287 118.734 408.363 118.455 406.674 118.333C404.759 118.171 403.07 118.378 401.822 116.787C401.25 115.955 400.604 115.177 399.894 114.46C399.642 114.226 397.191 112.725 397.191 112.63C394.793 111.514 392.073 111.305 389.533 112.039C388.258 112.409 387.064 113.013 385.771 113.315C382.996 113.973 379.798 113.261 377.437 114.853C376.122 115.754 375.333 117.192 374.594 118.585C373.994 119.733 373.384 120.883 372.765 122.034C371.765 123.923 370.756 125.844 370.337 127.935C370.25 128.392 370.194 128.855 370.171 129.319C370.171 129.486 370.171 129.653 370.171 129.82C370.171 129.892 370.171 129.964 370.171 130.036C370.171 130.19 370.171 130.343 370.198 130.487C370.225 130.631 370.198 130.672 370.229 130.767C370.261 130.861 370.27 131.073 370.297 131.217C370.324 131.362 370.378 131.619 370.432 131.812C370.432 131.898 370.486 131.979 370.513 132.065C370.54 132.151 370.612 132.367 370.671 132.516C370.729 132.665 370.734 132.674 370.77 132.75C370.837 132.908 370.918 133.061 370.999 133.201C371.035 133.26 371.063 133.318 371.099 133.377C371.222 133.588 371.361 133.79 371.513 133.981C372.473 135.185 373.896 135.951 374.946 137.078C374.946 137.123 374.946 137.168 374.946 137.213C374.946 137.335 374.946 137.457 374.946 137.583C375.01 140.097 375.687 142.557 376.918 144.749C378.149 146.941 379.897 148.799 382.009 150.161C382.009 150.332 382.032 150.508 382.041 150.684C382.129 152.021 382.112 153.362 381.991 154.696C381.808 154.48 381.578 154.309 381.319 154.193C381.06 154.078 380.779 154.022 380.496 154.029C380.302 154.019 380.108 154.036 379.919 154.079L379.879 154.047V154.088C378.888 154.331 377.667 155.363 376.5 158.298C376.5 158.298 372.95 162.302 370.247 162.135C367.544 161.968 360.701 166.305 360.701 166.305C360.701 166.305 354.025 170.637 352.592 175.055C351.791 177.561 350.83 180.013 349.714 182.395L341.438 199.4L339.92 212.924C339.92 212.924 340.762 218.925 340.596 219.844C340.429 220.764 344.06 229.014 344.06 229.014C344.06 229.014 356.057 250.103 360.958 251.185L361.309 250.942C361.52 251.048 361.742 251.13 361.972 251.185L362.981 250.478C363.043 251.27 363.016 252.067 362.9 252.853C362.228 254.941 363.156 268.529 364.337 271.193C365.517 273.857 365.098 308.796 365.098 308.796L364.931 311.875C364.931 311.875 364.931 311.974 364.972 312.145L364.931 312.876L365.053 312.939C365.179 313.918 365.138 314.912 364.931 315.878C364.508 317.231 364.337 321.049 364.337 321.049C364.337 321.049 360.958 342.634 362.562 346.971C364.165 351.308 365.521 356.06 365.521 356.06C365.521 356.06 367.211 361.47 365.603 362.371C363.994 363.273 359.44 364.873 360.368 367.123C361.224 369.206 364.472 374.787 364.954 375.603L364.913 376.054L364.251 383.235C364.358 384.184 364.615 385.109 365.012 385.976C365.738 387.545 367.143 389.164 369.828 388.988C370.279 388.956 370.797 388.907 371.306 388.839C376.212 388.176 382.248 385.985 382.248 385.985C381.935 385.787 381.649 385.549 381.397 385.278C381.156 385.044 380.965 384.763 380.835 384.453C380.706 384.143 380.641 383.81 380.644 383.474C380.717 382.162 378.27 375.937 377.658 374.399L377.518 374.057C377.518 374.057 383.095 368.219 382.167 363.052C382.167 363.052 375.995 359.446 378.027 357.462C380.059 355.478 383.69 349.798 383.69 349.798C383.69 349.798 383.856 328.542 383.69 325.373C383.516 323.168 383.62 320.951 384.001 318.772C384.068 318.448 384.149 318.128 384.235 317.808C387.047 318.232 389.887 318.448 392.731 318.452C393.77 318.452 394.821 318.431 395.885 318.389C395.885 318.69 395.898 319.014 395.925 319.363C396.159 324.629 396.596 333.866 396.952 337.297C397.457 342.211 400.245 355.469 400.245 355.469C400.245 355.469 394.925 358.882 401.173 367.308C401.173 367.308 401.173 370.355 400.759 370.802C400.316 372.247 399.96 373.718 399.691 375.206C399.43 376.789 399.322 378.398 399.745 379.228C400.759 381.22 406.841 381.058 406.841 381.058C406.89 381.047 406.939 381.039 406.989 381.035C408.137 380.914 409.298 381.023 410.403 381.356C411.509 381.689 412.536 382.239 413.427 382.974C415.738 384.831 424.504 384.02 429.257 383.425C431.118 383.186 432.361 382.974 432.361 382.974C432.421 382.763 432.442 382.543 432.424 382.325C432.375 381.157 431.46 378.596 425.261 376.311C425.261 376.311 419.432 372.389 419.513 368.971H419.382H418.711C419.135 368.958 419.432 368.958 419.432 368.958C419.432 368.958 417.148 360.622 418.08 359.941C419.013 359.261 416.22 350.023 416.22 350.023C416.22 350.023 414.621 334.515 414.531 333.433C414.537 332.501 414.679 331.574 414.954 330.683L414.531 322.176C414.531 322.176 414.449 319.35 414.531 318.43C414.522 317.632 414.458 316.835 414.341 316.045C414.301 315.729 414.26 315.4 414.215 315.076C416.4 314.521 417.819 314.012 417.819 314.012L417.567 284.415C419.423 280.809 419.765 272.892 419.756 267.284C419.756 263.678 419.594 261.009 419.594 261.009L422.13 256.866C422.13 256.866 422.716 251.907 421.788 250.82C421.378 250.329 421.563 249.819 421.901 249.4C422.078 249.254 422.267 249.122 422.464 249.003C422.442 248.972 422.422 248.939 422.405 248.904C422.582 248.756 422.771 248.622 422.968 248.503C422.968 248.503 422.067 247.105 422.874 246.515C423.631 247.029 424.306 247.439 424.82 247.732C424.784 248.061 424.748 248.251 424.748 248.251L424.964 247.8C425.46 248.079 425.761 248.251 425.761 248.251C425.761 248.251 429.735 240.33 429.649 239.167C429.563 238.003 432.352 233.08 432.352 233.08C432.352 233.08 432.69 230.493 434.213 229.411C435.735 228.329 435.393 220.489 435.393 220.489C435.393 220.489 435.816 216.405 436.83 214.741C437.844 213.077 435.924 210.814 435.924 210.814ZM359.899 207.339L359.976 209.227C359.525 208.502 359.201 207.983 359.201 207.983L359.899 207.339Z" fill="url(#paint2_linear)"/>
<path d="M425.995 244.824L425.022 248.972C425.022 248.972 417.228 244.982 415.827 239.933C414.426 234.883 418.174 232.958 418.174 232.958L425.441 236.033L425.995 244.824Z" fill="white"/>
<path opacity="0.1" d="M425.995 244.824L425.022 248.972C425.022 248.972 417.228 244.982 415.827 239.933C414.426 234.883 418.174 232.958 418.174 232.958L425.441 236.033L425.995 244.824Z" fill="black"/>
<path d="M382.256 385.981C382.256 385.981 375.048 388.632 370.093 388.966C367.462 389.142 366.079 387.528 365.367 385.972C364.98 385.115 364.728 384.202 364.619 383.267L365.272 376.122L365.615 372.322L376.143 369.581L377.634 374.147L377.774 374.49C378.368 376.018 380.774 382.213 380.702 383.506C380.696 383.841 380.758 384.173 380.884 384.483C381.01 384.793 381.198 385.074 381.436 385.31C381.68 385.567 381.955 385.793 382.256 385.981Z" fill="white"/>
<path d="M431.469 382.347C431.488 382.566 431.466 382.786 431.406 382.996C431.406 382.996 415.99 385.566 412.837 382.996C411.95 382.246 410.917 381.688 409.803 381.36C408.69 381.032 407.519 380.939 406.368 381.089C406.368 381.089 400.403 381.252 399.408 379.286C398.993 378.461 399.101 376.861 399.358 375.287C399.621 373.807 399.97 372.344 400.403 370.905L400.642 370.716L402.061 369.575L418.675 369.084H418.801C418.72 372.483 424.437 376.383 424.437 376.383C430.523 378.637 431.42 381.184 431.469 382.347Z" fill="white"/>
<path opacity="0.1" d="M431.473 382.347C431.489 382.566 431.466 382.786 431.405 382.996C431.405 382.996 415.989 385.566 412.84 382.996C411.953 382.245 410.919 381.687 409.805 381.359C408.69 381.031 407.519 380.939 406.367 381.089C406.367 381.089 400.398 381.252 399.402 379.286C398.992 378.461 399.096 376.861 399.353 375.283C401.65 375.513 405.277 376.085 406.7 377.456C408.853 379.529 412.502 381.603 414.737 381.77C416.503 381.878 427.004 382.212 431.473 382.347Z" fill="black"/>
<path opacity="0.1" d="M382.256 385.981C382.256 385.981 375.048 388.632 370.093 388.966C367.462 389.141 366.079 387.528 365.367 385.972C367.205 386.59 369.75 387.235 371.088 386.644C372.674 385.936 378.296 385.485 381.45 385.292C381.688 385.555 381.959 385.787 382.256 385.981Z" fill="black"/>
<path d="M392.951 172.341C387.005 170.029 379.355 162.387 381.265 158.817C381.688 157.915 381.94 156.943 382.009 155.95C382.132 154.601 382.15 153.244 382.063 151.892C381.929 149.677 381.662 147.471 381.265 145.288C381.265 145.288 399.83 145.707 398.749 148.443C398.434 149.25 398.38 150.643 398.47 152.199C398.56 153.754 398.781 155.526 399.015 157.018C399.335 159.06 399.664 160.625 399.664 160.625C399.664 160.625 398.524 162.216 397.862 162.302C397.199 162.387 401.483 175.655 392.951 172.341Z" fill="#CF6F80"/>
<path opacity="0.1" d="M377.757 374.467L377.617 374.62C372.067 367.903 365.355 376.279 365.355 376.279L365.256 376.099L365.598 372.299L376.126 369.558L377.617 374.124L377.757 374.467Z" fill="black"/>
<path opacity="0.1" d="M418.81 369.557C418.81 369.557 414.756 369.476 412.593 371.388C410.431 373.299 399.98 371.798 400.43 371.388C400.562 371.179 400.642 370.943 400.664 370.698L402.083 369.557L418.698 369.066C418.761 369.381 418.81 369.557 418.81 369.557Z" fill="black"/>
<path d="M384.663 316.808C384.362 317.555 384.132 318.329 383.978 319.12C383.603 321.287 383.498 323.492 383.667 325.684C383.834 328.84 383.667 349.988 383.667 349.988C383.667 349.988 380.104 355.628 378.113 357.616C376.122 359.604 382.167 363.174 382.167 363.174C383.068 368.318 377.608 374.125 377.608 374.125C372.058 367.408 365.346 375.779 365.346 375.779C365.346 375.779 361.697 369.468 360.787 367.214C359.877 364.96 364.35 363.404 365.923 362.485C367.495 361.565 365.841 356.173 365.841 356.173C365.841 356.173 364.517 351.444 362.94 347.13C361.364 342.815 364.679 321.343 364.679 321.343C364.679 321.343 364.85 317.524 365.26 316.194C365.465 315.234 365.506 314.247 365.382 313.273C365.355 312.944 365.323 312.673 365.301 312.484C365.278 312.295 365.26 312.214 365.26 312.214L365.323 312.105L367.576 307.904C367.576 307.904 385.744 314.161 384.663 316.808Z" fill="#0155E1"/>
<path d="M418.81 369.062C418.81 369.062 414.756 368.977 412.594 370.865C410.431 372.754 399.98 371.28 400.43 370.865C400.881 370.451 400.84 367.385 400.84 367.385C394.709 359.004 399.939 355.605 399.939 355.605C399.939 355.605 397.205 342.419 396.709 337.527C396.362 334.115 395.934 324.904 395.705 319.688C395.605 317.434 395.547 315.879 395.547 315.879L400.511 314.892L401.156 314.765L413.238 312.335C413.238 312.335 413.571 314.59 413.796 316.433C413.91 317.22 413.972 318.014 413.981 318.809C413.904 319.711 413.981 322.538 413.981 322.538L414.396 330.995C414.128 331.883 413.989 332.804 413.981 333.731C414.067 334.813 415.639 350.236 415.639 350.236C415.639 350.236 418.373 359.442 417.441 360.104C416.508 360.767 418.81 369.062 418.81 369.062Z" fill="#0155E1"/>
<path opacity="0.1" d="M398.749 148.457C398.434 149.264 398.38 150.657 398.47 152.212C395.983 153.711 393.125 154.477 390.222 154.423C387.32 154.369 384.492 153.496 382.063 151.906C381.929 149.69 381.663 147.485 381.266 145.301C381.266 145.301 399.83 145.721 398.749 148.457Z" fill="black"/>
<path d="M405.916 138.503C405.965 142.594 404.389 146.536 401.533 149.463C398.678 152.39 394.777 154.062 390.69 154.111C386.602 154.16 382.663 152.582 379.738 149.724C376.813 146.867 375.143 142.963 375.094 138.873C375.094 138.747 375.094 138.63 375.094 138.503C375.094 134.412 376.718 130.488 379.609 127.595C382.5 124.702 386.421 123.076 390.51 123.076C394.598 123.076 398.519 124.702 401.41 127.595C404.301 130.488 405.925 134.412 405.925 138.503H405.916Z" fill="#CF6F80"/>
<path opacity="0.1" d="M392.951 172.341C387.005 170.028 379.355 162.387 381.265 158.816C381.688 157.915 381.94 156.943 382.009 155.949L390.149 162.648L395.186 166.782L399.015 157.031C399.335 159.073 399.664 160.638 399.664 160.638C399.664 160.638 398.524 162.229 397.862 162.315C397.199 162.4 401.483 175.655 392.951 172.341Z" fill="black"/>
<path d="M414.002 201.947L407.204 316.23L398.339 316.812L375.377 250.546L379.143 171.873L379.94 155.251L390.149 163.641L395.185 167.775L399.127 157.735L406.456 164.128L414.002 201.947Z" fill="#0155E1"/>
<path opacity="0.1" d="M384.662 316.807C384.36 317.554 384.131 318.329 383.977 319.12C377.52 318.125 371.248 316.166 365.372 313.309L365.25 313.246L365.291 312.52V312.141L367.543 307.939C367.543 307.939 385.743 314.161 384.662 316.807Z" fill="black"/>
<path opacity="0.1" d="M400.66 319.138C399.011 319.42 397.347 319.612 395.677 319.711C395.578 317.457 395.52 315.901 395.52 315.901L400.511 314.892L400.66 319.138Z" fill="black"/>
<path opacity="0.1" d="M413.815 316.433C410.612 317.267 405.661 318.205 401.237 317.619L401.174 314.765L413.256 312.335C413.256 312.335 413.576 314.571 413.815 316.433Z" fill="black"/>
<path opacity="0.1" d="M401.155 318.142C382.685 321.298 365.769 312.25 365.769 312.25L365.931 309.184C365.931 309.184 366.35 274.43 365.188 271.766C364.025 269.102 363.12 255.609 363.778 253.548C364.435 251.488 361.376 220.381 361.376 220.381L360.881 207.758L342.73 200.378L350.839 183.459C351.934 181.087 352.876 178.648 353.659 176.156C355.069 171.76 361.615 167.446 361.615 167.446C361.615 167.446 368.327 163.136 370.981 163.298C373.634 163.461 377.112 159.484 377.112 159.484C379.68 152.934 382.004 155.878 382.004 155.878C382.004 156.193 382.004 155.878 381.878 156.847C380.977 164.038 396.447 186.759 396.668 187.165L398.159 223.077L399.65 268.525L401.155 318.142Z" fill="black"/>
<path d="M400.659 318.142C382.188 321.298 365.268 312.25 365.268 312.25L365.435 309.184C365.435 309.184 365.849 274.43 364.687 271.766C363.525 269.102 362.619 255.595 363.281 253.517C363.943 251.438 360.867 220.363 360.867 220.363L360.367 207.74L342.221 200.36L350.33 183.441C351.422 181.07 352.364 178.632 353.15 176.142C354.56 171.76 361.128 167.441 361.128 167.441C361.128 167.441 367.84 163.132 370.489 163.294C373.138 163.456 376.634 159.484 376.634 159.484C379.206 152.934 382.04 155.878 382.04 155.878C382.04 156.193 381.769 156.329 381.914 156.847C383.896 163.821 395.987 186.759 396.208 187.165L397.699 223.077L399.159 268.547L400.659 318.142Z" fill="white"/>
<path opacity="0.1" d="M395.681 188.179C393.694 187.349 383.171 175.326 383.171 175.326V172.589C382.788 171.688 380.509 172.238 378.666 172.869L379.459 156.247L380.36 156.995C382.329 163.965 395.465 187.778 395.681 188.179Z" fill="black"/>
<path d="M396.182 187.187C394.191 186.353 383.667 174.334 383.667 174.334V171.593C383.284 170.691 381.009 171.241 379.162 171.872L379.941 155.269L380.842 156.012C382.829 162.973 395.961 186.781 396.182 187.187Z" fill="white"/>
<path opacity="0.1" d="M365.769 247.146C366.017 247.146 378.613 245.821 378.613 245.821C378.613 245.821 386.24 260.833 385.74 264.48C385.24 268.127 384.334 271.364 381.266 270.792C378.199 270.219 364.756 271.243 364.756 271.243L365.769 247.146Z" fill="black"/>
<path d="M365.269 246.15C365.522 246.15 378.118 244.825 378.118 244.825C378.118 244.825 385.74 259.86 385.244 263.466C384.749 267.073 383.834 270.35 380.771 269.778C377.708 269.205 364.256 270.228 364.256 270.228L365.269 246.15Z" fill="white"/>
<path d="M374.761 239.122C374.761 239.122 386.321 245.343 386.569 247.236C386.816 249.13 380.685 246.407 379.361 246.073C378.488 245.866 377.601 245.727 376.707 245.658L367.873 245.897L374.761 239.122Z" fill="#CF6F80"/>
<path opacity="0.1" d="M392.451 188.954C393.123 188.954 393.667 188.409 393.667 187.737C393.667 187.065 393.123 186.52 392.451 186.52C391.779 186.52 391.234 187.065 391.234 187.737C391.234 188.409 391.779 188.954 392.451 188.954Z" fill="black"/>
<path d="M392.451 188.458C393.123 188.458 393.667 187.913 393.667 187.241C393.667 186.568 393.123 186.023 392.451 186.023C391.779 186.023 391.234 186.568 391.234 187.241C391.234 187.913 391.779 188.458 392.451 188.458Z" fill="#3F3D56"/>
<path opacity="0.1" d="M394.691 241.646C395.363 241.646 395.907 241.101 395.907 240.429C395.907 239.757 395.363 239.212 394.691 239.212C394.019 239.212 393.475 239.757 393.475 240.429C393.475 241.101 394.019 241.646 394.691 241.646Z" fill="black"/>
<path d="M394.691 241.145C395.363 241.145 395.907 240.6 395.907 239.928C395.907 239.256 395.363 238.711 394.691 238.711C394.019 238.711 393.475 239.256 393.475 239.928C393.475 240.6 394.019 241.145 394.691 241.145Z" fill="#3F3D56"/>
<path opacity="0.1" d="M393.668 215.3C394.339 215.3 394.884 214.755 394.884 214.083C394.884 213.411 394.339 212.866 393.668 212.866C392.996 212.866 392.451 213.411 392.451 214.083C392.451 214.755 392.996 215.3 393.668 215.3Z" fill="black"/>
<path d="M393.668 214.804C394.339 214.804 394.884 214.259 394.884 213.587C394.884 212.915 394.339 212.37 393.668 212.37C392.996 212.37 392.451 212.915 392.451 213.587C392.451 214.259 392.996 214.804 393.668 214.804Z" fill="#3F3D56"/>
<path d="M421.707 245.406C421.707 245.406 422.536 246.65 421.707 247.21C420.878 247.769 421.788 249.202 421.788 249.202C421.788 249.202 419.72 250.41 420.63 251.506C421.54 252.601 420.963 257.52 420.963 257.52L418.477 261.663C418.477 261.663 418.625 264.318 418.634 267.907C418.634 273.506 418.306 281.377 416.486 284.966L416.729 314.409C416.729 314.409 408.021 317.596 400.732 316.622L399.651 269.376C399.651 269.376 401.227 242.584 401.809 237.445C402.149 234.777 402.287 232.087 402.223 229.398C402.223 229.398 401.975 221.355 401.142 217.627C401.142 217.627 400.241 201.451 400.151 196.975C400.11 194.833 400.223 188.585 400.349 182.643C400.489 176.147 400.646 170.02 400.646 170.02L399.002 156.996C399.002 156.996 400.646 156.833 401.142 157.492C401.364 157.699 401.605 157.885 401.863 158.046C404.705 159.967 414.733 165.872 414.733 165.872C414.733 165.872 420.283 168.081 421.612 171.246C422.941 174.411 423.865 176.656 424.509 177.558C425.153 178.459 425.504 182.697 425.504 182.697C425.504 182.697 427.414 190.496 428.906 191.817C430.397 193.138 431.469 201.523 431.469 201.523L418.292 211.892C418.292 211.892 417.134 229.141 416.886 229.808C416.639 230.475 421.707 245.406 421.707 245.406Z" fill="white"/>
<path d="M422.207 245.406C422.207 245.406 423.031 246.65 422.207 247.209C421.382 247.768 422.283 249.202 422.283 249.202C422.283 249.202 420.216 250.41 421.126 251.506C422.036 252.601 421.459 257.52 421.459 257.52L418.981 261.663C418.981 261.663 419.13 264.318 419.143 267.907C419.143 273.506 418.814 281.377 416.994 284.966L417.242 314.409C417.242 314.409 408.534 317.596 401.245 316.622L400.169 269.376C400.169 269.376 401.741 242.584 402.326 237.445C402.667 234.777 402.804 232.086 402.736 229.398C402.736 229.398 402.489 221.355 401.66 217.627C401.66 217.627 400.759 201.451 400.664 196.974C400.624 194.833 400.736 188.585 400.862 182.643C401.002 176.147 401.16 170.02 401.16 170.02L398.988 156.82C398.988 156.82 401.16 156.82 401.66 157.492C401.88 157.701 402.121 157.887 402.381 158.046C405.219 159.967 415.247 165.872 415.247 165.872C415.247 165.872 420.783 168.081 422.135 171.246C423.486 174.411 424.387 176.656 425.031 177.558C425.675 178.459 426.027 182.697 426.027 182.697C426.027 182.697 427.937 190.496 429.428 191.817C430.919 193.138 431.996 201.523 431.996 201.523L418.819 211.892C418.819 211.892 417.661 229.141 417.409 229.808C417.157 230.475 422.207 245.406 422.207 245.406Z" fill="white"/>
<path opacity="0.1" d="M406.425 173.847L407.619 177.319L401.353 183.63C401.492 177.134 401.65 171.007 401.65 171.007L399.479 157.812C399.479 157.812 401.65 157.812 402.15 158.483C402.37 158.693 402.611 158.879 402.871 159.038L408.195 174.406L406.425 173.847Z" fill="black"/>
<path d="M405.917 172.851L407.111 176.318L400.849 182.629C400.984 176.133 401.147 170.006 401.147 170.006L398.971 156.806C398.971 156.806 401.147 156.806 401.642 157.478C401.863 157.687 402.105 157.872 402.363 158.032L407.719 173.414L405.917 172.851Z" fill="white"/>
<path opacity="0.1" d="M405.916 138.503C405.918 140.128 405.663 141.742 405.16 143.286C405.075 143.301 404.988 143.298 404.904 143.277C404.821 143.257 404.742 143.221 404.673 143.169C404.551 139.112 402.56 135.298 400.105 132.057C399.415 131.079 398.579 130.212 397.627 129.487C396.664 128.763 395.466 128.424 394.267 128.536C392.915 128.72 391.721 129.64 390.356 129.757C388.554 129.906 386.942 128.657 385.153 128.599C384.426 128.605 383.709 128.766 383.049 129.073C382.389 129.379 381.803 129.823 381.329 130.375C380.388 131.485 379.69 132.779 379.279 134.175C378.571 136.294 378.185 138.506 378.135 140.739C378.112 142.002 377.99 143.584 376.819 144.044C376.908 143.116 376.803 142.18 376.51 141.295C376.218 140.411 375.745 139.596 375.121 138.905L375.094 138.873C375.094 138.747 375.094 138.629 375.094 138.503C375.094 134.412 376.718 130.488 379.609 127.595C382.5 124.702 386.421 123.076 390.51 123.076C394.598 123.076 398.519 124.702 401.41 127.595C404.301 130.488 405.925 134.412 405.925 138.503H405.916Z" fill="black"/>
<path d="M396.907 114.01C394.566 112.908 391.904 112.699 389.42 113.424C388.172 113.793 386.997 114.393 385.731 114.695C383.028 115.349 379.874 114.641 377.554 116.223C376.266 117.125 375.491 118.55 374.77 119.938L372.968 123.369C371.986 125.249 370.995 127.16 370.585 129.229C370.175 131.299 370.423 133.616 371.734 135.284C372.684 136.492 374.099 137.254 375.135 138.395C375.758 139.09 376.229 139.907 376.521 140.794C376.813 141.681 376.917 142.618 376.829 143.548C378 143.097 378.117 141.505 378.144 140.243C378.195 138.01 378.581 135.797 379.289 133.679C379.7 132.283 380.398 130.989 381.338 129.879C381.812 129.326 382.399 128.882 383.058 128.574C383.718 128.267 384.436 128.105 385.163 128.098C386.965 128.161 388.582 129.41 390.366 129.257C391.718 129.144 392.916 128.224 394.277 128.039C395.476 127.926 396.675 128.265 397.637 128.991C398.59 129.714 399.424 130.581 400.11 131.56C402.57 134.806 404.566 138.602 404.683 142.673C405.192 143.043 405.926 142.556 406.179 141.979C406.431 141.402 406.44 140.725 406.76 140.175C407.129 139.54 407.836 139.197 408.39 138.719C409.796 137.507 410.147 135.464 410.093 133.611C410.039 131.759 409.679 129.879 410.03 128.057C410.242 126.944 410.719 125.893 410.981 124.789C411.242 123.684 411.274 122.445 410.656 121.493C409.755 120.1 407.859 119.821 406.206 119.69C404.327 119.528 402.647 119.735 401.448 118.153C400.884 117.328 400.252 116.553 399.556 115.836C399.309 115.597 396.907 114.109 396.907 114.01Z" fill="#512E4E"/>
<path opacity="0.1" d="M347.929 209.078L343.226 200.373L341.734 213.808C341.734 213.808 342.563 219.776 342.397 220.692C342.23 221.607 345.793 229.812 345.793 229.812C345.793 229.812 357.565 250.797 362.371 251.875L378.589 240.262L374.282 234.789C374.282 234.789 372.791 234.207 372.417 234.789C372.417 234.789 364.417 221.021 363.592 220.029C362.768 219.037 362.926 217.04 362.926 217.04C362.926 217.04 361.682 215.715 362.097 214.47C362.511 213.226 359.718 208.916 359.718 208.916L362.286 206.513L347.929 209.078Z" fill="black"/>
<path d="M343.475 199.377L342.231 200.374L340.74 213.808C340.74 213.808 341.569 219.777 341.402 220.692C341.236 221.607 344.804 229.812 344.804 229.812C344.804 229.812 356.571 250.798 361.377 251.876L377.622 240.262L373.311 234.789C373.311 234.789 371.82 234.208 371.446 234.789C371.446 234.789 363.45 221.021 362.621 220.03C361.792 219.038 361.958 217.041 361.958 217.041C361.958 217.041 360.715 215.715 361.13 214.471C361.544 213.227 358.724 208.917 358.724 208.917L361.292 206.514L343.475 199.377Z" fill="white"/>
<path opacity="0.1" d="M420.63 252.025C421.531 253.12 420.963 258.043 420.963 258.043L418.476 262.159C418.476 262.159 418.625 264.819 418.634 268.407L414.453 269.715C414.075 269.833 413.674 269.859 413.283 269.79C412.893 269.721 412.525 269.56 412.209 269.32C411.893 269.08 411.64 268.768 411.469 268.41C411.298 268.052 411.216 267.659 411.228 267.262L411.953 244L421.706 247.728C420.877 248.305 421.787 249.721 421.787 249.721C421.787 249.721 419.72 250.929 420.63 252.025Z" fill="black"/>
<path d="M421.124 251.528C422.025 252.619 421.458 257.542 421.458 257.542L418.98 261.663C418.98 261.663 419.129 264.318 419.142 267.906L414.885 269.236C414.515 269.352 414.123 269.378 413.742 269.312C413.36 269.245 413 269.088 412.691 268.854C412.382 268.619 412.134 268.315 411.967 267.965C411.8 267.615 411.72 267.23 411.732 266.842L412.457 243.499L422.206 247.236C421.372 247.813 422.282 249.229 422.282 249.229C422.282 249.229 420.214 250.433 421.124 251.528Z" fill="white"/>
<path d="M424.359 240.429C424.359 240.429 423.697 244.663 422.039 244.911C420.381 245.159 419.638 251.759 417.984 251.529C416.331 251.299 417.426 245.388 417.484 244.243C417.543 243.098 415.682 238.356 417.07 237.278C418.458 236.201 422.872 237.278 422.872 237.278L424.359 240.429Z" fill="#CF6F80"/>
<path opacity="0.1" d="M427.865 207.834L430.987 201.523C430.987 201.523 432.234 206.333 432.234 208.903C432.234 211.473 433.973 211.725 433.973 211.725C433.973 211.725 435.879 213.979 434.874 215.625C433.87 217.27 433.469 221.346 433.469 221.346C433.469 221.346 433.798 229.14 432.307 230.218C430.815 231.295 430.482 233.869 430.482 233.869C430.482 233.869 427.748 238.761 427.833 239.924C427.919 241.087 424.022 248.963 424.022 248.963C424.022 248.963 425.928 239.176 414.823 234.947C414.823 234.947 414.737 231.629 415.566 230.718C416.395 229.807 417.688 229.366 416.877 224.785C416.066 220.205 416.643 214.682 416.643 213.578C416.643 212.473 419.13 205.589 419.13 205.589L427.865 207.834Z" fill="black"/>
<path d="M429.252 200.621L431.982 201.523C431.982 201.523 433.23 206.333 433.23 208.903C433.23 211.472 434.969 211.725 434.969 211.725C434.969 211.725 436.874 213.979 435.869 215.624C434.865 217.27 434.459 221.345 434.459 221.345C434.459 221.345 434.793 229.14 433.302 230.218C431.811 231.295 431.5 233.869 431.5 233.869C431.5 233.869 428.765 238.761 428.851 239.924C428.936 241.087 425.035 248.963 425.035 248.963C425.035 248.963 426.941 239.175 415.836 234.947C415.836 234.947 415.755 231.629 416.584 230.718C417.413 229.807 418.706 229.365 417.895 224.785C417.084 220.205 417.661 214.682 417.661 213.578C417.661 212.473 420.147 205.589 420.147 205.589L429.252 200.621Z" fill="white"/>
<path opacity="0.1" d="M368.939 364.211C368.939 364.211 373.291 361.474 376.147 363.462C379.003 365.45 368.939 364.211 368.939 364.211Z" fill="black"/>
<path opacity="0.1" d="M402.764 355.749C402.764 355.749 406.615 355.253 409.85 358.738C413.084 362.223 402.764 355.749 402.764 355.749Z" fill="black"/>
<g opacity="0.1">
<path opacity="0.1" d="M408.39 137.727C407.836 138.21 407.124 138.548 406.755 139.183C406.44 139.729 406.431 140.405 406.178 140.987C405.926 141.568 405.192 142.051 404.678 141.681C404.561 137.624 402.565 133.814 400.11 130.568C399.424 129.59 398.589 128.725 397.637 128.003C396.674 127.276 395.473 126.935 394.272 127.047C392.92 127.232 391.731 128.152 390.366 128.269C388.564 128.418 386.947 127.169 385.158 127.11C384.432 127.116 383.715 127.277 383.056 127.584C382.397 127.89 381.811 128.334 381.338 128.887C380.398 129.997 379.7 131.291 379.289 132.687C378.581 134.805 378.195 137.018 378.144 139.251C378.117 140.509 378 142.078 376.838 142.547C376.865 142.881 376.865 143.217 376.838 143.552C378.014 143.101 378.131 141.51 378.158 140.247C378.208 138.014 378.594 135.802 379.302 133.683C379.713 132.287 380.411 130.993 381.352 129.883C381.825 129.331 382.411 128.886 383.069 128.579C383.728 128.272 384.445 128.109 385.172 128.102C386.974 128.165 388.596 129.414 390.38 129.261C391.731 129.148 392.929 128.228 394.285 128.044C395.486 127.93 396.686 128.269 397.651 128.995C398.603 129.718 399.437 130.585 400.124 131.565C402.579 134.81 404.575 138.606 404.692 142.677C405.205 143.047 405.94 142.56 406.192 141.983C406.444 141.406 406.453 140.73 406.769 140.18C407.138 139.544 407.85 139.201 408.404 138.724C409.809 137.511 410.161 135.469 410.107 133.616C410.107 133.557 410.107 133.503 410.107 133.444C410.017 135.058 409.589 136.695 408.39 137.727Z" fill="black"/>
<path opacity="0.1" d="M375.131 137.412C374.099 136.271 372.685 135.505 371.734 134.297C370.931 133.23 370.474 131.943 370.423 130.609C370.282 132.277 370.747 133.941 371.734 135.293C372.685 136.501 374.099 137.263 375.131 138.404C376.127 139.519 376.726 140.933 376.834 142.425C376.901 141.518 376.786 140.606 376.493 139.745C376.2 138.883 375.737 138.09 375.131 137.412Z" fill="black"/>
<path opacity="0.1" d="M410.982 123.797C410.716 124.901 410.243 125.952 410.027 127.065C409.897 127.818 409.85 128.583 409.887 129.346C409.902 128.915 409.949 128.486 410.027 128.062C410.243 126.948 410.716 125.898 410.982 124.793C411.135 124.184 411.185 123.553 411.131 122.927C411.102 123.22 411.052 123.511 410.982 123.797Z" fill="black"/>
</g>
<path opacity="0.1" d="M95.5738 380.094C119.817 380.094 139.47 376.935 139.47 373.038C139.47 369.142 119.817 365.983 95.5738 365.983C71.3307 365.983 51.6777 369.142 51.6777 373.038C51.6777 376.935 71.3307 380.094 95.5738 380.094Z" fill="#0155E1"/>
<path d="M96.9886 237.877H94.1641V301.52H96.9886V237.877Z" fill="#535461"/>
<path d="M114.741 301.331L114.561 304.198L114.313 308.255L114.21 309.941L113.957 313.999L113.849 315.685L113.602 319.742L110.75 365.757C110.628 367.737 109.757 369.596 108.313 370.955C106.869 372.314 104.961 373.07 102.979 373.07H88.1712C86.1837 373.071 84.2711 372.31 82.8261 370.945C81.381 369.579 80.513 367.712 80.4002 365.726L77.5486 319.711L77.3008 315.653L77.1972 313.967L76.9404 309.91L76.8368 308.224L76.5891 304.166L76.4089 301.299C76.3777 300.749 76.4586 300.199 76.6466 299.682C76.8347 299.165 77.1259 298.691 77.5027 298.29C77.8795 297.889 78.3338 297.569 78.8381 297.349C79.3425 297.129 79.8862 297.015 80.4363 297.012H110.718C111.271 297.015 111.817 297.131 112.323 297.353C112.829 297.575 113.284 297.898 113.661 298.302C114.038 298.707 114.328 299.184 114.514 299.705C114.699 300.226 114.777 300.779 114.741 301.331Z" fill="#3F3D56"/>
<path d="M114.561 304.193L114.308 308.242H76.8363L76.584 304.193H114.561Z" fill="#9D9CB5"/>
<path d="M114.206 309.928L113.958 313.976H77.1937L76.9414 309.928H114.206Z" fill="#9D9CB5"/>
<path d="M113.85 315.667L113.602 319.711H77.5491L77.2969 315.667H113.85Z" fill="#9D9CB5"/>
<path d="M72.2917 261.735C88.7437 273.646 95.5957 292.274 95.5957 292.274C95.5957 292.274 75.774 291.593 59.3175 279.682C42.861 267.772 36 249.157 36 249.157C36 249.157 55.8217 249.824 72.2917 261.735Z" fill="#A5EBD4"/>
<path d="M36 249.157C36 249.157 56.574 260.586 63.1737 270.048C69.7735 279.511 95.5777 292.283 95.5777 292.283" stroke="#535461" stroke-width="2" stroke-miterlimit="10"/>
<path d="M82.8916 237.742C91.8474 244.22 95.5775 254.359 95.5775 254.359C95.5775 254.359 84.7656 253.99 75.8324 247.511C66.8991 241.033 63.1465 230.89 63.1465 230.89C63.1465 230.89 73.9403 231.259 82.8916 237.742Z" fill="#A5EBD4"/>
<path d="M63.1465 230.89C63.1465 230.89 74.3457 237.111 77.9407 242.259C81.5356 247.408 95.5775 254.359 95.5775 254.359" stroke="#535461" stroke-width="2" stroke-miterlimit="10"/>
<path d="M108.588 253.846C98.3028 265.157 96.127 279.939 96.127 279.939C96.127 279.939 110.628 276.378 120.904 265.062C131.18 253.747 133.365 238.969 133.365 238.969C133.365 238.969 118.872 242.535 108.588 253.846Z" fill="#A5EBD4"/>
<path d="M133.374 238.973C133.374 238.973 119.976 250.568 116.57 258.556C113.165 266.545 96.127 279.939 96.127 279.939" stroke="#535461" stroke-width="2" stroke-miterlimit="10"/>
</g>
<defs>
<radialGradient id="paint0_radial" cx="0" cy="0" r="1" gradientUnits="userSpaceOnUse" gradientTransform="translate(257.383 113.08) rotate(90.0975) scale(224.809 293.79)">
<stop stop-color="#DFEEFD"/>
<stop offset="1" stop-color="#DFEEFD" stop-opacity="0"/>
</radialGradient>
<linearGradient id="paint1_linear" x1="209.718" y1="377.578" x2="209.718" y2="117.161" gradientUnits="userSpaceOnUse">
<stop stop-color="#808080" stop-opacity="0.25"/>
<stop offset="0.54" stop-color="#808080" stop-opacity="0.12"/>
<stop offset="1" stop-color="#808080" stop-opacity="0.1"/>
</linearGradient>
<linearGradient id="paint2_linear" x1="85719.4" y1="244053" x2="85719.4" y2="73362.7" gradientUnits="userSpaceOnUse">
<stop stop-color="#808080" stop-opacity="0.25"/>
<stop offset="0.54" stop-color="#808080" stop-opacity="0.12"/>
<stop offset="1" stop-color="#808080" stop-opacity="0.1"/>
</linearGradient>
<clipPath id="clip0">
<rect width="526" height="389" fill="white" transform="translate(0 0.889648)"/>
</clipPath>
</defs>
</svg>
