<svg width="445" height="359" viewBox="0 0 445 359" fill="none" xmlns="http://www.w3.org/2000/svg">
<g clip-path="url(#clip0)">
<path d="M125.264 238.723C153.147 238.723 175.751 216.099 175.751 188.191C175.751 160.283 153.147 137.659 125.264 137.659C97.381 137.659 74.7773 160.283 74.7773 188.191C74.7773 216.099 97.381 238.723 125.264 238.723Z" fill="#E6E6E6"/>
<path d="M111.623 261.982L124.042 269.684V217.618L110.122 208.984C108.971 208.271 108.13 207.15 107.766 205.845C109.095 205.591 110.472 205.846 111.623 206.56L124.042 214.262V194.072C124.042 190.167 124.521 186.276 125.467 182.486C126.414 186.276 126.892 190.167 126.892 194.072V227.026L145.214 215.662C146.677 214.755 148.369 214.288 150.09 214.316C149.349 215.871 148.178 217.18 146.715 218.087L126.892 230.382V353.514H124.042V273.04L110.122 264.406C108.971 263.693 108.13 262.572 107.766 261.267C109.095 261.013 110.472 261.268 111.623 261.982Z" fill="#CCCCCC"/>
<path d="M50.4866 243.014C78.3696 243.014 100.973 220.39 100.973 192.482C100.973 164.574 78.3696 141.95 50.4866 141.95C22.6036 141.95 0 164.574 0 192.482C0 220.39 22.6036 243.014 50.4866 243.014Z" fill="#E6E6E6"/>
<path d="M64.1272 266.272L51.7082 273.974V221.908L65.6284 213.274C66.7792 212.561 67.6202 211.44 67.9846 210.135C66.6548 209.881 65.278 210.136 64.1271 210.85L51.7081 218.552V198.362C51.7081 194.457 51.2295 190.566 50.2831 186.776C49.3367 190.566 48.8581 194.457 48.8581 198.362V231.316L30.5366 219.952C29.0737 219.045 27.381 218.578 25.6602 218.606C26.4009 220.161 27.5725 221.47 29.0354 222.377L48.8582 234.672V353.786H51.7082V277.33L65.6284 268.696C66.7792 267.983 67.6202 266.862 67.9846 265.557C66.6548 265.303 65.2781 265.558 64.1272 266.272Z" fill="#CCCCCC"/>
<path d="M87.1615 174.006C135.169 174.006 174.087 135.054 174.087 87.0032C174.087 38.9526 135.169 0 87.1615 0C39.154 0 0.236328 38.9526 0.236328 87.0032C0.236328 135.054 39.154 174.006 87.1615 174.006Z" fill="#E6E6E6"/>
<path d="M110.647 214.05L89.2642 227.312V137.667L113.231 122.803C115.213 121.574 116.661 119.644 117.288 117.397L117.288 117.397H117.288C114.998 116.96 112.628 117.399 110.647 118.628L89.2642 131.889V97.1279C89.2642 90.4031 88.4402 83.7037 86.8106 77.1797C85.1811 83.7037 84.3571 90.4031 84.3571 97.1279V153.865L52.8121 134.3C50.2932 132.738 47.3789 131.933 44.416 131.982C45.6913 134.659 47.7085 136.913 50.2274 138.475L84.3571 159.643V353.976H89.2642V233.09L113.231 218.225C115.213 216.996 116.661 215.067 117.288 212.82L117.288 212.82H117.288C114.998 212.382 112.628 212.821 110.647 214.05Z" fill="#CCCCCC"/>
<path d="M445 353.514H34.668V354.553H445V353.514Z" fill="#3F3D56"/>
<path d="M339.324 156.968L318.959 168.736L330.717 189.12L351.082 177.351L339.324 156.968Z" fill="#2FD0A9"/>
<path d="M339.582 193.368L327.305 172.083L348.57 159.795L360.848 181.08L339.582 193.368ZM328.724 172.464L339.963 191.947L359.428 180.699L348.19 161.215L328.724 172.464Z" fill="#2F2E41"/>
<path d="M320.531 250.563C325.981 250.563 330.4 246.14 330.4 240.685C330.4 235.23 325.981 230.808 320.531 230.808C315.08 230.808 310.662 235.23 310.662 240.685C310.662 246.14 315.08 250.563 320.531 250.563Z" fill="#D0CDE1"/>
<path d="M327.802 251.082C325.748 251.082 323.739 250.472 322.031 249.33C320.323 248.187 318.991 246.563 318.205 244.664C317.419 242.764 317.213 240.673 317.614 238.656C318.014 236.639 319.004 234.787 320.457 233.332C321.909 231.878 323.76 230.888 325.776 230.487C327.791 230.086 329.879 230.292 331.778 231.079C333.676 231.866 335.298 233.198 336.44 234.908C337.581 236.618 338.19 238.628 338.19 240.685C338.19 243.442 337.096 246.087 335.148 248.037C333.2 249.987 330.557 251.082 327.802 251.082ZM327.802 231.327C325.953 231.327 324.145 231.876 322.608 232.904C321.07 233.932 319.872 235.394 319.165 237.104C318.457 238.813 318.272 240.695 318.633 242.51C318.993 244.325 319.884 245.993 321.191 247.302C322.499 248.61 324.165 249.501 325.978 249.863C327.792 250.224 329.672 250.038 331.38 249.33C333.088 248.622 334.549 247.422 335.576 245.883C336.603 244.345 337.152 242.535 337.152 240.685C337.152 238.203 336.167 235.823 334.413 234.068C332.66 232.313 330.282 231.327 327.802 231.327Z" fill="#2F2E41"/>
<path d="M382.787 355.879H287.216C286.045 355.877 284.923 355.411 284.095 354.583C283.268 353.755 282.802 352.631 282.801 351.46V262.562C282.802 261.39 283.268 260.267 284.095 259.438C284.923 258.61 286.045 258.144 287.216 258.143H382.787C383.957 258.144 385.079 258.61 385.907 259.438C386.735 260.267 387.2 261.39 387.202 262.562V351.46C387.2 352.631 386.735 353.755 385.907 354.583C385.079 355.411 383.957 355.877 382.787 355.879Z" fill="#0155E1"/>
<path d="M341.754 359H328.249C327.078 358.999 325.956 358.533 325.129 357.705C324.301 356.876 323.835 355.753 323.834 354.582V259.921C323.835 258.749 324.301 257.626 325.129 256.798C325.956 255.969 327.078 255.503 328.249 255.502H341.754C342.924 255.503 344.046 255.969 344.874 256.798C345.702 257.626 346.167 258.749 346.169 259.921V354.582C346.167 355.753 345.702 356.876 344.874 357.705C344.046 358.533 342.924 358.999 341.754 359Z" fill="#3F3D56"/>
<path d="M408.179 249.342C407.62 258.513 395.244 265.22 395.244 265.22C395.244 265.22 383.772 257.058 384.33 247.888C384.889 238.717 397.266 232.01 397.266 232.01C397.266 232.01 408.737 240.171 408.179 249.342Z" fill="#3F3D56"/>
<path d="M408.74 277.956C399.576 277.425 392.836 265.058 392.836 265.058C392.836 265.058 400.954 253.551 410.119 254.081C419.283 254.611 426.023 266.978 426.023 266.978C426.023 266.978 417.904 278.486 408.74 277.956Z" fill="#3F3D56"/>
<path opacity="0.1" d="M386.942 269.018V302.956L353.217 258.402H378.907L386.942 269.018Z" fill="black"/>
<path d="M415.573 327.112C414.891 327.114 414.217 326.956 413.606 326.653C412.994 326.35 412.461 325.908 412.049 325.364L341.787 232.545C341.437 232.082 341.181 231.555 341.034 230.994C340.888 230.432 340.853 229.848 340.932 229.273C341.011 228.698 341.203 228.144 341.496 227.643C341.789 227.143 342.177 226.705 342.639 226.354L352.989 218.505C353.452 218.155 353.978 217.899 354.539 217.752C355.1 217.605 355.684 217.571 356.259 217.65C356.833 217.729 357.386 217.921 357.886 218.214C358.387 218.507 358.824 218.897 359.174 219.359L429.437 312.177C429.787 312.64 430.043 313.167 430.189 313.728C430.336 314.29 430.371 314.875 430.292 315.45C430.212 316.024 430.021 316.578 429.728 317.079C429.435 317.58 429.046 318.018 428.584 318.368L418.234 326.217C417.469 326.799 416.534 327.113 415.573 327.112Z" fill="#7FD8BA" fill-opacity="0.6"/>
<path d="M387.448 254.987L369.646 268.487L383.134 286.305L400.936 272.805L387.448 254.987Z" fill="#3F3D56"/>
<path d="M295.873 187.088L289.787 209.823L312.502 215.915L318.588 193.18L295.873 187.088Z" fill="#D0CDE1"/>
<path d="M302.866 219.314L279.148 212.953L285.504 189.214L309.221 195.575L302.866 219.314ZM280.421 212.218L302.132 218.041L307.949 196.31L286.238 190.487L280.421 212.218Z" fill="#2F2E41"/>
<path d="M202.957 274.493C203.581 273.894 204.067 273.166 204.379 272.36C204.692 271.553 204.824 270.688 204.766 269.825C204.709 268.961 204.463 268.121 204.046 267.364C203.628 266.606 203.05 265.949 202.352 265.439L192.814 188.482L180.49 192.15L193.795 267.042C193.017 268.273 192.717 269.747 192.952 271.184C193.187 272.621 193.94 273.922 195.07 274.841C196.199 275.759 197.626 276.231 199.08 276.167C200.533 276.103 201.913 275.507 202.957 274.493Z" fill="#FFB8B8"/>
<path d="M214.381 348.05H221.589L225.019 320.224H214.381V348.05Z" fill="#FFB8B8"/>
<path d="M235.49 354.749H212.837V345.989H227.539C229.647 345.989 231.67 346.827 233.161 348.32C234.652 349.812 235.49 351.837 235.49 353.948V354.749Z" fill="#2F2E41"/>
<path d="M164.537 336.813L171.293 339.329L184.2 314.445L174.23 310.732L164.537 336.813Z" fill="#FFB8B8"/>
<path d="M181.988 350.457L160.756 342.552L163.808 334.342L177.587 339.472C179.563 340.208 181.167 341.699 182.045 343.619C182.923 345.538 183.003 347.728 182.267 349.706L181.988 350.457L181.988 350.457Z" fill="#2F2E41"/>
<path d="M201.451 168.504C208.978 168.504 215.079 162.397 215.079 154.864C215.079 147.33 208.978 141.223 201.451 141.223C193.924 141.223 187.822 147.33 187.822 154.864C187.822 162.397 193.924 168.504 201.451 168.504Z" fill="#FFB8B8"/>
<path d="M180.134 189.873C179.707 177.309 192.9 168.592 204.001 174.475C205.415 175.225 220.018 187.642 220.568 195.354C221.119 203.065 222.219 215.734 222.219 215.734L237.629 330.856L204.609 329.204L208.597 295.621L187.134 329.772L161.133 321.492L193.052 229.505C193.052 229.505 180.781 208.914 180.134 189.873Z" fill="#2F2E41"/>
<path d="M180.394 194.248L182.514 221.837C182.536 222.125 182.666 222.394 182.878 222.59C183.09 222.786 183.368 222.895 183.657 222.895H192.986C193.175 222.895 193.36 222.849 193.527 222.76C193.693 222.671 193.835 222.542 193.939 222.385C194.044 222.228 194.108 222.048 194.127 221.86C194.145 221.672 194.117 221.483 194.044 221.309L182.595 193.72C182.49 193.468 182.299 193.261 182.056 193.138C181.813 193.014 181.534 192.981 181.269 193.044C181.004 193.108 180.771 193.264 180.61 193.484C180.45 193.705 180.373 193.976 180.394 194.248Z" fill="#2F2E41"/>
<path d="M228.304 269.712C228.854 269.045 229.251 268.265 229.467 267.428C229.683 266.59 229.713 265.715 229.555 264.865C229.397 264.014 229.054 263.209 228.551 262.505C228.048 261.802 227.397 261.217 226.644 260.792L208.173 185.481L196.363 190.567L218.333 263.386C217.704 264.7 217.579 266.199 217.98 267.599C218.382 268.999 219.282 270.202 220.511 270.982C221.74 271.762 223.212 272.063 224.649 271.829C226.085 271.595 227.385 270.842 228.304 269.712Z" fill="#FFB8B8"/>
<path d="M198.005 178.83C198.005 178.83 194.153 186.541 198.005 200.312C201.857 214.082 204.609 225.65 204.609 225.65C204.609 225.65 213.414 220.142 217.267 221.794C221.119 223.446 211.173 185.085 211.173 185.085C211.173 185.085 205.159 172.22 198.005 178.83Z" fill="#2F2E41"/>
<path d="M204.649 156.993C204.833 154.163 208.401 154.066 211.235 154.039C214.069 154.012 217.456 154.113 219.06 151.775C220.119 150.229 219.917 148.083 219.042 146.426C218.166 144.769 216.726 143.495 215.31 142.269C211.652 139.103 207.883 135.963 203.492 133.937C199.101 131.911 193.955 131.092 189.402 132.718C183.808 134.716 176.245 145.001 175.592 150.91C174.939 156.818 177.299 162.842 181.276 167.258C185.253 171.673 194.355 169.891 200.084 171.462C196.601 166.529 198.897 157.565 204.476 155.261L204.649 156.993Z" fill="#2F2E41"/>
<path d="M408 77L421.6 63L435.2 77L448.8 63L462.4 77L476 63" stroke="#DFF3EC" stroke-width="5"/>
</g>
<defs>
<clipPath id="clip0">
<rect width="445" height="359" fill="white"/>
</clipPath>
</defs>
</svg>
