<svg width="293" height="198" viewBox="0 0 293 198" fill="none" xmlns="http://www.w3.org/2000/svg">
<g clip-path="url(#clip0)">
<path d="M89.6803 91.8223H51.9648V133.965H89.6803V91.8223Z" fill="#CCCCCC"/>
<path d="M32.7637 197.35H13.5631L11.5059 180.904H34.8209L32.7637 197.35Z" fill="#E6E6E6"/>
<path d="M71.3195 185.438L70.6716 194.289C70.6422 194.69 70.699 195.092 70.838 195.469C70.977 195.846 71.1951 196.189 71.4776 196.475C71.7601 196.761 72.1004 196.983 72.4759 197.126C72.8514 197.27 73.2532 197.332 73.6545 197.307L78.2043 197.032C78.4151 197.019 78.6205 196.96 78.806 196.859C78.9914 196.758 79.1522 196.617 79.2771 196.447C79.402 196.277 79.4878 196.081 79.5285 195.874C79.5691 195.667 79.5637 195.454 79.5125 195.249L76.9869 185.154L71.3195 185.438Z" fill="#E6E6E6"/>
<path d="M109.376 190.672C114.73 191.924 118.556 193.703 121.068 196.111C121.963 196.962 123.134 197.463 124.368 197.524C125.944 197.607 127.233 197.43 128.201 196.998H128.201C128.449 196.889 128.664 196.715 128.822 196.495C128.98 196.275 129.076 196.017 129.101 195.747C129.13 195.473 129.086 195.196 128.972 194.945C128.858 194.694 128.679 194.478 128.454 194.32L115.754 185.29L110.36 187.447L109.101 188.704C108.965 188.84 108.862 189.006 108.801 189.189C108.74 189.371 108.722 189.565 108.748 189.756C108.775 189.947 108.845 190.129 108.954 190.288C109.063 190.447 109.207 190.578 109.376 190.672H109.376Z" fill="#E6E6E6"/>
<path d="M92.8962 46.1494L56.5957 45.8135C56.687 40.53 57.9171 35.3418 60.6061 30.6992C62.3721 27.65 62.334 24.3316 61.9084 21.536C61.2516 17.2217 62.7789 12.8075 66.1727 10.0611C68.7662 7.9587 72.0395 6.87645 75.3762 7.01821L76.081 7.04756C78.377 7.14291 80.6122 7.81312 82.5815 8.99665C84.5507 10.1802 86.1908 11.8391 87.3513 13.8211C88.5307 15.937 89.0064 18.3728 88.7095 20.7766C88.4794 23.0383 89.03 25.3231 90.3177 27.6297C92.5395 32.6945 93.0206 39.1756 92.8962 46.1494Z" fill="#2F2E41"/>
<path d="M117.184 185.762L110.06 187.619L75.3671 112.093L77.5354 185.762H70.411C62.7982 151.102 49.0536 111.102 55.233 98.4734L92.0939 96.3066L117.184 185.762Z" fill="#0155E1"/>
<path d="M75.0575 33.4713C80.3608 33.4713 84.6599 29.1753 84.6599 23.8758C84.6599 18.5763 80.3608 14.2803 75.0575 14.2803C69.7542 14.2803 65.4551 18.5763 65.4551 23.8758C65.4551 29.1753 69.7542 33.4713 75.0575 33.4713Z" fill="#FFB9B9"/>
<path d="M83.4206 41.5191L67.623 40.5905C69.1712 37.0397 69.7897 33.6204 69.1718 30.376H80.9425C80.9159 32.867 82.1564 37.1761 83.4206 41.5191Z" fill="#FFB9B9"/>
<path d="M93.333 99.0921L58.6406 101.569L62.2027 40.1262L68.243 38.4238L75.0575 39.9714L81.872 36.5664L86.2086 38.1144L93.333 99.0921Z" fill="#0155E1"/>
<path d="M64.5244 143.355L40.8281 137.938C47.8743 114.589 60.5682 61.1736 56.4708 42.138L68.861 36.5664L64.5244 143.355Z" fill="#E6E6E6"/>
<path d="M53.0649 75.8766L44.082 70.305L51.7429 47.8841C52.5973 45.5705 54.2339 43.628 56.3696 42.3924L58.9503 40.8994L57.4015 63.4953L53.0649 75.8766Z" fill="#E6E6E6"/>
<path d="M113.93 138.248C106.451 142.572 87.7562 144.982 79.5475 141.962C78.9435 120.866 77.7589 61.193 81.561 35.9473L95.1902 41.5189L93.9512 58.2336C87.4353 72.5322 106.356 122.334 113.93 138.248Z" fill="#E6E6E6"/>
<path d="M112.847 73.0911L104.483 70.3053L93.332 57.6142L95.1907 41.5186L113.776 67.5194L112.847 73.0911Z" fill="#E6E6E6"/>
<path d="M86.6374 85.1392C86.7742 85.7393 87.1436 86.2607 87.6646 86.589C88.1855 86.9173 88.8155 87.0258 89.4164 86.8907L96.5158 85.2841L95.4898 80.7559L88.3902 82.3622C87.7893 82.4982 87.2671 82.8672 86.9383 83.388C86.6096 83.9088 86.5014 84.5387 86.6374 85.1392Z" fill="#FFB9B9"/>
<path d="M83.4209 21.3994C78.0873 19.2078 72.8197 19.0493 67.6234 21.0899L65.4551 13.3516H85.2794L83.4209 21.3994Z" fill="#2F2E41"/>
<path d="M93.0234 79.9008L97.0503 87.3296C103.823 85.4419 109.693 79.4909 115.326 72.472L113.777 67.5195L104.175 69.9958L93.0234 79.9008Z" fill="#E6E6E6"/>
<path d="M90.0794 64.5793H88.8404C88.8404 47.0677 85.2322 34.8641 81.716 34.8641L81.4062 33.626C84.5596 33.626 86.57 38.705 87.7012 42.9659C89.2348 48.7423 90.0794 56.418 90.0794 64.5793Z" fill="#3F3D56"/>
<path d="M61.5828 60.2459H60.3438C60.3438 44.2081 63.9769 34.2451 69.3266 34.2451L69.0169 35.4832C65.3165 35.4832 61.5828 43.1401 61.5828 60.2459Z" fill="#3F3D56"/>
<path d="M89.4609 67.9836C91.1716 67.9836 92.5584 66.5978 92.5584 64.8883C92.5584 63.1788 91.1716 61.793 89.4609 61.793C87.7501 61.793 86.3633 63.1788 86.3633 64.8883C86.3633 66.5978 87.7501 67.9836 89.4609 67.9836Z" fill="#3F3D56"/>
<path d="M56.6257 67.6748H55.3867C55.3867 63.2372 57.8879 59.627 60.9623 59.627V60.8651C58.5711 60.8651 56.6257 63.9199 56.6257 67.6748Z" fill="#3F3D56"/>
<path d="M66.5385 67.6748H65.2995C65.2995 63.9199 63.3541 60.8651 60.9629 60.8651V59.627C64.0373 59.627 66.5385 63.2372 66.5385 67.6748Z" fill="#3F3D56"/>
<path d="M65.9187 69.2223C66.603 69.2223 67.1577 68.668 67.1577 67.9842C67.1577 67.3004 66.603 66.7461 65.9187 66.7461C65.2344 66.7461 64.6797 67.3004 64.6797 67.9842C64.6797 68.668 65.2344 69.2223 65.9187 69.2223Z" fill="#3F3D56"/>
<path d="M56.0066 69.2223C56.6909 69.2223 57.2456 68.668 57.2456 67.9842C57.2456 67.3004 56.6909 66.7461 56.0066 66.7461C55.3223 66.7461 54.7676 67.3004 54.7676 67.9842C54.7676 68.668 55.3223 69.2223 56.0066 69.2223Z" fill="#3F3D56"/>
<path d="M40.5195 56.5986L48.2502 57.978L65.9195 83.084L56.5325 80.8768L40.5195 56.5986Z" fill="#0155E1"/>
<path d="M39.1476 56.291C39.0298 56.2928 38.9147 56.3262 38.8142 56.3876C38.7137 56.4491 38.6316 56.5364 38.5765 56.6405C38.5213 56.7445 38.4952 56.8614 38.5007 56.979C38.5063 57.0966 38.5434 57.2106 38.6081 57.3089L55.1245 82.3504C55.2167 82.4904 55.3591 82.5898 55.5223 82.6281L63.2069 84.4348C63.3365 84.4653 63.4722 84.4556 63.5962 84.4072C63.7202 84.3588 63.8265 84.2739 63.9011 84.1637C63.9756 84.0535 64.0149 83.9233 64.0136 83.7903C64.0124 83.6573 63.9707 83.5278 63.8942 83.419L45.7602 57.6532C45.711 57.583 45.6484 57.5232 45.5761 57.4772C45.5038 57.4312 45.4231 57.3998 45.3386 57.385L39.2715 56.3022C39.2306 56.2949 39.1892 56.2911 39.1476 56.291Z" fill="#3F3D56"/>
<path d="M49.4512 74.1957L49.9102 78.816L57.1538 78.0975C57.7669 78.0367 58.3307 77.735 58.7213 77.2588C59.1118 76.7825 59.297 76.1708 59.2361 75.5581C59.1753 74.9454 58.8734 74.3819 58.3968 73.9917C57.9202 73.6014 57.308 73.4164 56.6949 73.4772L49.4512 74.1957Z" fill="#FFB9B9"/>
<path d="M43.1523 73.6609C43.1629 75.2363 43.7961 76.7437 44.9139 77.8547C46.0318 78.9656 47.5438 79.59 49.1204 79.5919H50.3115L51.1786 72.3709L43.999 69.7881L43.1523 73.6609Z" fill="#E6E6E6"/>
<path d="M293 0H151.738V74.3489H293V0Z" fill="#161B1D"/>
<path d="M155.854 70.2373H288.886V4.11133H155.854V70.2373Z" fill="white"/>
<path d="M213.454 13.7051H166.139V60.9868H213.454V13.7051Z" fill="#D5EAF6"/>
<path d="M202.141 35.2898C202.898 35.2898 203.512 34.6762 203.512 33.9193C203.512 33.1624 202.898 32.5488 202.141 32.5488C201.384 32.5488 200.77 33.1624 200.77 33.9193C200.77 34.6762 201.384 35.2898 202.141 35.2898Z" fill="#0155E1"/>
<path d="M196.996 30.4929C197.754 30.4929 198.368 29.8793 198.368 29.1224C198.368 28.3655 197.754 27.752 196.996 27.752C196.239 27.752 195.625 28.3655 195.625 29.1224C195.625 29.8793 196.239 30.4929 196.996 30.4929Z" fill="#0155E1"/>
<path d="M196.312 33.9196C195.807 33.9197 195.312 34.0598 194.883 34.3243C194.504 33.7555 194.059 33.2339 193.558 32.7702C193.563 32.6971 193.569 32.6238 193.569 32.5492C193.569 32.0114 193.411 31.4854 193.114 31.0367C192.817 30.5881 192.395 30.2367 191.9 30.0264C191.404 29.816 190.858 29.7561 190.329 29.8539C189.8 29.9518 189.311 30.2032 188.924 30.5767C188.189 30.4726 187.444 30.4661 186.708 30.5574C186.709 30.5359 186.711 30.515 186.711 30.4934C186.712 30.0346 186.597 29.5831 186.378 29.18C186.158 28.777 185.841 28.4355 185.455 28.1868C185.07 27.9381 184.628 27.7901 184.17 27.7564C183.712 27.7227 183.253 27.8045 182.835 27.9941C182.417 28.1837 182.053 28.4751 181.777 28.8417C181.501 29.2083 181.321 29.6382 181.254 30.0921C181.188 30.5461 181.236 31.0095 181.395 31.4398C181.555 31.8702 181.819 32.2537 182.165 32.5554C181.706 32.9484 181.289 33.3887 180.922 33.8688C180.584 33.5873 180.182 33.3914 179.752 33.2977C179.322 33.2039 178.875 33.2152 178.45 33.3304C178.025 33.4456 177.634 33.6615 177.31 33.9597C176.986 34.2579 176.739 34.6296 176.589 35.0435C176.439 35.4575 176.391 35.9013 176.449 36.3376C176.508 36.7739 176.67 37.1898 176.923 37.55C177.176 37.9103 177.512 38.2044 177.903 38.4074C178.294 38.6104 178.728 38.7164 179.168 38.7163L179.177 38.7159C179.172 38.8299 179.168 38.9439 179.168 39.059C179.168 39.7486 179.252 40.4357 179.416 41.1054C178.601 41.412 177.877 41.9204 177.313 42.5831C176.748 43.2458 176.361 44.041 176.188 44.8941C176.015 45.7471 176.062 46.6301 176.324 47.4601C176.587 48.2901 177.056 49.0399 177.687 49.6392C178.319 50.2384 179.093 50.6675 179.936 50.8861C180.779 51.1047 181.664 51.1056 182.507 50.8889C183.351 50.6721 184.125 50.2447 184.758 49.6468C185.391 49.0489 185.862 48.3001 186.126 47.4707C188.034 47.8372 190.01 47.5443 191.729 46.6401C191.905 47.0531 192.179 47.4168 192.528 47.6991C192.877 47.9815 193.29 48.1739 193.731 48.2594C194.172 48.345 194.627 48.3211 195.056 48.1899C195.486 48.0587 195.876 47.8241 196.194 47.5068C196.511 47.1895 196.746 46.7992 196.877 46.3701C197.009 45.941 197.033 45.4862 196.947 45.0457C196.861 44.6052 196.669 44.1924 196.386 43.8437C196.104 43.4949 195.74 43.2208 195.327 43.0453C195.921 41.9188 196.254 40.6735 196.303 39.4012L196.312 39.4016C197.039 39.4016 197.737 39.1128 198.251 38.5988C198.766 38.0848 199.055 37.3876 199.055 36.6606C199.055 35.9337 198.766 35.2365 198.251 34.7225C197.737 34.2084 197.039 33.9197 196.312 33.9197V33.9196Z" fill="#0155E1"/>
<path d="M195.625 12.6768H181.91V14.7325H195.625V12.6768Z" fill="#E6E6E6"/>
<path d="M273.8 13.7051H226.484V60.9868H273.8V13.7051Z" fill="#D5EAF6"/>
<path d="M259.125 45.7744C259.466 45.7744 259.742 45.4983 259.742 45.1577C259.742 44.8171 259.466 44.541 259.125 44.541C258.784 44.541 258.508 44.8171 258.508 45.1577C258.508 45.4983 258.784 45.7744 259.125 45.7744Z" fill="#0155E1"/>
<path d="M256.811 43.6153C257.151 43.6153 257.428 43.3392 257.428 42.9986C257.428 42.658 257.151 42.3818 256.811 42.3818C256.47 42.3818 256.193 42.658 256.193 42.9986C256.193 43.3392 256.47 43.6153 256.811 43.6153Z" fill="#0155E1"/>
<path d="M256.502 45.1576C256.275 45.1577 256.052 45.2207 255.859 45.3397C255.689 45.0838 255.488 44.849 255.263 44.6404C255.265 44.6075 255.268 44.5745 255.268 44.5409C255.268 44.2989 255.197 44.0622 255.063 43.8603C254.93 43.6584 254.74 43.5003 254.517 43.4057C254.294 43.311 254.048 43.284 253.81 43.328C253.572 43.3721 253.352 43.4852 253.178 43.6533C252.847 43.6064 252.512 43.6035 252.18 43.6446C252.181 43.635 252.182 43.6256 252.182 43.6158C252.182 43.4094 252.13 43.2062 252.032 43.0248C251.933 42.8435 251.79 42.6898 251.617 42.5779C251.443 42.4659 251.244 42.3993 251.038 42.3842C250.832 42.369 250.625 42.4058 250.437 42.4911C250.249 42.5765 250.086 42.7076 249.961 42.8726C249.837 43.0375 249.756 43.231 249.726 43.4353C249.696 43.6395 249.718 43.848 249.79 44.0417C249.861 44.2354 249.98 44.408 250.136 44.5437C249.929 44.7206 249.742 44.9187 249.577 45.1348C249.424 45.0081 249.244 44.9199 249.05 44.8777C248.856 44.8356 248.656 44.8406 248.464 44.8925C248.273 44.9443 248.097 45.0415 247.951 45.1756C247.805 45.3098 247.694 45.4771 247.627 45.6634C247.559 45.8496 247.538 46.0494 247.564 46.2457C247.59 46.4421 247.663 46.6292 247.777 46.7913C247.891 46.9534 248.042 47.0858 248.218 47.1771C248.394 47.2685 248.589 47.3162 248.787 47.3161L248.791 47.3159C248.789 47.3672 248.787 47.4186 248.787 47.4703C248.787 47.7807 248.825 48.0899 248.899 48.3912C248.532 48.5292 248.206 48.758 247.952 49.0562C247.698 49.3544 247.524 49.7122 247.446 50.0961C247.369 50.48 247.39 50.8773 247.508 51.2508C247.626 51.6243 247.837 51.9617 248.121 52.2314C248.405 52.5011 248.753 52.6941 249.133 52.7925C249.512 52.8909 249.91 52.8913 250.29 52.7938C250.67 52.6962 251.018 52.5039 251.303 52.2349C251.588 51.9658 251.8 51.6289 251.918 51.2556C252.777 51.4205 253.666 51.2887 254.44 50.8818C254.519 51.0677 254.642 51.2313 254.799 51.3584C254.956 51.4854 255.142 51.572 255.341 51.6105C255.539 51.649 255.744 51.6383 255.937 51.5793C256.13 51.5202 256.306 51.4147 256.449 51.2719C256.592 51.1291 256.698 50.9534 256.757 50.7603C256.816 50.5672 256.826 50.3626 256.788 50.1644C256.749 49.9661 256.663 49.7804 256.536 49.6234C256.408 49.4665 256.245 49.3431 256.059 49.2642C256.326 48.7573 256.476 48.1969 256.498 47.6243L256.502 47.6245C256.829 47.6245 257.143 47.4946 257.375 47.2632C257.606 47.0319 257.736 46.7182 257.736 46.3911C257.736 46.0639 257.606 45.7502 257.375 45.5189C257.143 45.2876 256.829 45.1576 256.502 45.1576V45.1576Z" fill="#0155E1"/>
<path d="M263.967 34.0713C264.308 34.0713 264.584 33.7952 264.584 33.4546C264.584 33.114 264.308 32.8379 263.967 32.8379C263.626 32.8379 263.35 33.114 263.35 33.4546C263.35 33.7952 263.626 34.0713 263.967 34.0713Z" fill="#0155E1"/>
<path d="M265.418 31.2598C265.759 31.2598 266.035 30.9837 266.035 30.6431C266.035 30.3025 265.759 30.0264 265.418 30.0264C265.077 30.0264 264.801 30.3025 264.801 30.6431C264.801 30.9837 265.077 31.2598 265.418 31.2598Z" fill="#0155E1"/>
<path d="M263.255 30.9313C263.193 30.7129 263.072 30.5159 262.905 30.3621C263.105 30.129 263.277 29.8728 263.417 29.599C263.449 29.5926 263.482 29.586 263.514 29.5769C263.747 29.5114 263.956 29.3789 264.114 29.1957C264.273 29.0125 264.373 28.7868 264.404 28.5468C264.435 28.3067 264.394 28.0629 264.287 27.8458C264.18 27.6287 264.012 27.4479 263.803 27.3258C263.758 26.9952 263.67 26.6719 263.541 26.3644C263.55 26.362 263.559 26.3606 263.569 26.358C263.768 26.3023 263.949 26.1975 264.097 26.0534C264.245 25.9093 264.355 25.7303 264.415 25.533C264.476 25.3357 264.486 25.1263 264.445 24.924C264.404 24.7217 264.312 24.533 264.179 24.3752C264.046 24.2173 263.875 24.0954 263.683 24.0206C263.49 23.9459 263.282 23.9206 263.077 23.9471C262.872 23.9736 262.677 24.0511 262.51 24.1725C262.343 24.2938 262.209 24.4552 262.12 24.6417C261.894 24.4909 261.652 24.3643 261.399 24.2641C261.48 24.0832 261.516 23.8855 261.504 23.6878C261.492 23.4901 261.433 23.2981 261.331 23.1282C261.229 22.9583 261.088 22.8153 260.919 22.7115C260.751 22.6076 260.559 22.5459 260.362 22.5316C260.164 22.5172 259.966 22.5507 259.784 22.6291C259.602 22.7075 259.441 22.8285 259.316 22.982C259.191 23.1355 259.104 23.3168 259.064 23.5107C259.024 23.7047 259.031 23.9054 259.084 24.0961L259.086 24.0998C259.036 24.1117 258.986 24.1238 258.936 24.1379C258.637 24.222 258.349 24.3419 258.079 24.4949C257.847 24.1794 257.538 23.9281 257.182 23.7646C256.826 23.601 256.434 23.5305 256.043 23.5598C255.652 23.589 255.275 23.717 254.947 23.9318C254.62 24.1465 254.352 24.4409 254.169 24.7875C253.986 25.134 253.895 25.5212 253.903 25.9128C253.911 26.3044 254.018 26.6875 254.215 27.0261C254.412 27.3648 254.692 27.648 255.028 27.849C255.365 28.0501 255.747 28.1624 256.138 28.1755C256.212 29.046 256.58 29.8656 257.182 30.4995C257.024 30.6259 256.9 30.789 256.82 30.9745C256.741 31.16 256.707 31.3623 256.724 31.5635C256.741 31.7647 256.807 31.9588 256.916 32.1287C257.025 32.2985 257.175 32.439 257.351 32.5377C257.527 32.6365 257.725 32.6905 257.927 32.695C258.129 32.6994 258.329 32.6543 258.51 32.5635C258.69 32.4727 258.845 32.339 258.962 32.1742C259.079 32.0093 259.153 31.8184 259.179 31.6181C259.74 31.7378 260.32 31.7303 260.878 31.5962L260.878 31.6C260.922 31.756 260.996 31.9019 261.097 32.0292C261.197 32.1566 261.321 32.263 261.463 32.3422C261.604 32.4215 261.76 32.4722 261.921 32.4913C262.082 32.5105 262.245 32.4977 262.401 32.4538C262.558 32.4099 262.703 32.3356 262.831 32.2353C262.958 32.135 263.065 32.0106 263.144 31.8692C263.223 31.7278 263.274 31.5722 263.293 31.4113C263.312 31.2504 263.299 31.0872 263.255 30.9313V30.9313Z" fill="#0155E1"/>
<path d="M240.062 25.6905C240.403 25.6905 240.68 25.4144 240.68 25.0737C240.68 24.7331 240.403 24.457 240.062 24.457C239.722 24.457 239.445 24.7331 239.445 25.0737C239.445 25.4144 239.722 25.6905 240.062 25.6905Z" fill="#0155E1"/>
<path d="M236.906 25.9434C237.247 25.9434 237.523 25.6673 237.523 25.3267C237.523 24.9861 237.247 24.71 236.906 24.71C236.565 24.71 236.289 24.9861 236.289 25.3267C236.289 25.6673 236.565 25.9434 236.906 25.9434Z" fill="#0155E1"/>
<path d="M238.294 27.0096C238.141 27.1772 238.037 27.384 237.995 27.6069C237.691 27.56 237.382 27.5495 237.076 27.5754C237.053 27.5513 237.031 27.5273 237.006 27.5047C236.827 27.3414 236.604 27.2343 236.365 27.1967C236.126 27.1591 235.881 27.1928 235.66 27.2935C235.44 27.3941 235.254 27.5574 235.126 27.7628C234.998 27.9683 234.934 28.2068 234.941 28.4487C234.683 28.6611 234.455 28.9065 234.262 29.1787C234.255 29.172 234.249 29.1648 234.242 29.1582C234.089 29.0189 233.904 28.9199 233.704 28.8705C233.503 28.8211 233.293 28.8228 233.093 28.8755C232.894 28.9281 232.71 29.03 232.56 29.1719C232.41 29.3137 232.298 29.491 232.234 29.6873C232.17 29.8837 232.157 30.0929 232.195 30.2958C232.233 30.4987 232.322 30.6888 232.452 30.8487C232.583 31.0085 232.752 31.133 232.943 31.2108C233.135 31.2885 233.343 31.317 233.548 31.2936C233.539 31.5654 233.559 31.8373 233.608 32.1048C233.411 32.1319 233.224 32.2057 233.063 32.3202C232.901 32.4347 232.769 32.5864 232.679 32.7626C232.588 32.9387 232.541 33.134 232.542 33.3321C232.543 33.5302 232.591 33.7251 232.684 33.9004C232.776 34.0758 232.909 34.2263 233.072 34.3394C233.234 34.4524 233.422 34.5246 233.619 34.5499C233.815 34.5752 234.015 34.5528 234.201 34.4846C234.387 34.4164 234.554 34.3044 234.688 34.1581L234.69 34.1551C234.727 34.1912 234.763 34.2272 234.802 34.2621C235.031 34.4713 235.285 34.6521 235.557 34.8006C235.412 35.1643 235.362 35.559 235.411 35.9476C235.46 36.3362 235.607 36.7059 235.838 37.0221C236.069 37.3384 236.377 37.5907 236.733 37.7554C237.088 37.9202 237.48 37.9919 237.871 37.964C238.262 37.936 238.639 37.8093 238.968 37.5956C239.296 37.3819 239.565 37.0884 239.749 36.7425C239.933 36.3966 240.026 36.0096 240.019 35.618C240.012 35.2264 239.906 34.843 239.71 34.5036C240.411 33.9812 240.913 33.2361 241.134 32.3908C241.325 32.4578 241.529 32.477 241.729 32.4468C241.928 32.4165 242.118 32.3377 242.28 32.2173C242.442 32.0969 242.572 31.9385 242.659 31.7561C242.745 31.5737 242.786 31.3728 242.777 31.1711C242.768 30.9693 242.709 30.7729 242.606 30.5991C242.503 30.4253 242.359 30.2794 242.187 30.1742C242.014 30.069 241.819 30.0077 241.617 29.9957C241.415 29.9837 241.214 30.0214 241.03 30.1055C240.835 29.5664 240.523 29.0778 240.114 28.6755L240.117 28.6728C240.226 28.5532 240.311 28.4132 240.367 28.2608C240.422 28.1085 240.447 27.9466 240.44 27.7847C240.432 27.6227 240.393 27.4638 240.324 27.3169C240.256 27.1701 240.159 27.0383 240.039 26.929C239.919 26.8197 239.779 26.735 239.626 26.6799C239.474 26.6248 239.312 26.6003 239.15 26.6078C238.987 26.6152 238.828 26.6546 238.682 26.7235C238.535 26.7925 238.403 26.8897 238.294 27.0096Z" fill="#0155E1"/>
<path d="M255.971 12.6768H242.256V14.7325H255.971V12.6768Z" fill="#E6E6E6"/>
<path d="M8.63227 174.82C13.5763 181.436 23.8391 182.133 23.8391 182.133C23.8391 182.133 26.0861 172.102 21.1421 165.486C16.1981 158.869 5.93523 158.173 5.93523 158.173C5.93523 158.173 3.68824 168.204 8.63227 174.82Z" fill="#E6E6E6"/>
<path d="M33.818 177.307C30.5556 181.673 23.7834 182.133 23.7834 182.133C23.7834 182.133 22.3007 175.514 25.5631 171.148C28.8256 166.782 35.5977 166.322 35.5977 166.322C35.5977 166.322 37.0804 172.941 33.818 177.307Z" fill="#E6E6E6"/>
</g>
<defs>
<clipPath id="clip0">
<rect width="293" height="198" fill="white"/>
</clipPath>
</defs>
</svg>
