<svg width="314" height="223" viewBox="0 0 314 223" fill="none" xmlns="http://www.w3.org/2000/svg">
<g clip-path="url(#clip0)">
<path opacity="0.1" d="M104.391 222.874C119.683 222.874 132.079 220.878 132.079 218.416C132.079 215.953 119.683 213.957 104.391 213.957C89.0994 213.957 76.7031 215.953 76.7031 218.416C76.7031 220.878 89.0994 222.874 104.391 222.874Z" fill="#0155E1"/>
<path opacity="0.1" d="M254.9 223C273.981 223 289.45 221.004 289.45 218.542C289.45 216.079 273.981 214.083 254.9 214.083C235.818 214.083 220.35 216.079 220.35 218.542C220.35 221.004 235.818 223 254.9 223Z" fill="#0155E1"/>
<path opacity="0.1" d="M3.93283 96.3516H32.7715V135.761H6.04409C5.97305 136.166 5.90485 136.573 5.83097 136.981H32.7715V168.764C32.7232 168.75 32.6806 168.732 32.6351 168.715C31.8736 168.413 31.1177 168.094 30.3619 167.752L29.8788 167.533C29.1211 167.174 28.3633 166.794 27.6056 166.393C27.3413 166.254 27.0771 166.109 26.8156 165.96C22.609 163.598 18.7875 160.604 15.4836 157.083C15.387 156.989 15.2961 156.889 15.1995 156.798C14.7392 156.297 14.2874 155.79 13.8498 155.271L13.3667 154.701C12.8495 154.066 12.3494 153.414 11.8635 152.753C11.7925 152.656 11.7243 152.559 11.6504 152.468C9.67427 149.72 8.03344 146.746 6.76299 143.607C6.72321 143.513 6.68912 143.411 6.65218 143.322C6.26194 142.316 5.91622 141.3 5.61502 140.274C5.48431 139.844 5.35928 139.419 5.2513 138.972C5.21152 138.841 5.17742 138.713 5.14617 138.585C3.53218 132.269 3.3418 125.707 3.3418 119.192C3.3418 118.431 3.3418 117.668 3.3418 116.913C3.3418 114.277 3.37305 111.625 3.41852 108.975C3.41852 108.289 3.44693 107.605 3.46114 106.916C3.50092 105.166 3.55775 103.417 3.63163 101.668C3.64868 101.181 3.67141 100.696 3.69699 100.212C3.69699 99.9327 3.7112 99.6535 3.73961 99.3743C3.80781 98.3601 3.86464 97.3544 3.93283 96.3516Z" fill="#0155E1"/>
<path opacity="0.1" d="M32.7719 52.4721H16.9531C19.5246 48.4367 22.3341 44.559 25.3669 40.8597C27.7168 37.9651 30.1975 35.1447 32.7719 32.4268V52.4721Z" fill="#0155E1"/>
<path opacity="0.1" d="M32.7712 53.6914V95.1325H4.02344C4.02344 95.0128 4.04333 94.8903 4.05185 94.7706C4.07743 94.443 4.103 94.1154 4.13141 93.7906C4.16267 93.4088 4.19677 93.0242 4.23371 92.651C4.27065 92.2778 4.31043 91.822 4.35305 91.4089C4.39568 90.9958 4.43546 90.577 4.48376 90.1639C4.53207 89.7508 4.57469 89.3377 4.62584 88.9274C4.67699 88.5172 4.72245 88.1012 4.77644 87.691C4.81907 87.3491 4.86453 87.0101 4.90999 86.6682C4.97535 86.1867 5.04355 85.7024 5.11742 85.2238C5.11742 85.1525 5.13732 85.0785 5.14868 85.0101C5.66731 81.5063 6.37398 78.0331 7.26562 74.6057C8.19894 71.0102 9.39077 67.4873 10.8317 64.0645C12.3632 60.4838 14.1564 57.0215 16.1965 53.7057L32.7712 53.6914Z" fill="#0155E1"/>
<path opacity="0.1" d="M39.6562 96.3491V135.762H101.252V96.3491H39.6562ZM39.6562 136.978V170.824C40.0086 170.898 40.3581 170.969 40.7048 171.029C41.1765 171.12 41.6453 171.203 42.1255 171.274C42.2165 171.288 42.3102 171.303 42.4097 171.311C42.5972 171.342 42.7905 171.368 42.978 171.394C43.4525 171.459 43.9242 171.513 44.3988 171.556C44.6232 171.579 44.8506 171.599 45.0779 171.616L45.6263 171.659C45.9247 171.681 46.2202 171.699 46.5128 171.707C46.6947 171.707 46.8766 171.724 47.0641 171.73C47.2062 171.73 47.3483 171.73 47.496 171.73C47.6438 171.73 47.854 171.73 48.0331 171.73C48.2774 171.73 48.5218 171.73 48.7633 171.73H49.0901C49.3345 171.73 49.5789 171.73 49.8204 171.707H49.8374C50.0051 171.707 50.1756 171.707 50.3461 171.684C50.3934 171.687 50.4408 171.687 50.4881 171.684C50.6302 171.684 50.7723 171.684 50.9087 171.664H51.0081L51.9601 171.59C52.2726 171.562 52.588 171.525 52.9063 171.491L53.5541 171.414C56.1899 171.043 58.7963 170.487 61.3541 169.75C67.0997 168.143 72.7202 165.895 78.463 164.248C85.8879 162.126 94.0913 161.083 101.266 163.679V136.978H39.6562ZM101.252 52.4721V0.00270603C94.5083 -0.0705476 87.7829 0.720269 81.2391 2.35595C65.642 6.28468 51.6475 14.8059 39.6562 25.689V52.4693H42.7478V53.6858H39.6562V95.1325H101.252V53.6886H55.4409V52.4721H101.252ZM180.369 34.7487C176.51 34.612 172.674 33.3869 169.204 31.4952C162.569 27.877 157.27 22.2902 151.348 17.5751C139.044 7.75474 123.785 1.82889 108.131 0.358827V52.4721H196.062L196.281 52.2414L180.369 34.7487ZM188.379 33.3242L196.872 42.6688V30.8741C194.028 31.2274 191.536 32.0678 188.39 33.3128L188.379 33.3242ZM196.872 179.228V136.978H178.774C178.726 136.799 178.678 136.616 178.621 136.434C178.675 136.616 178.72 136.799 178.772 136.978H108.143V167.533C108.813 168.032 109.475 168.556 110.132 169.089C110.839 169.659 111.538 170.26 112.24 170.85L112.948 171.436C113.286 171.721 113.627 172.006 113.971 172.274C114.653 172.829 115.341 173.376 116.036 173.915C116.38 174.2 116.733 174.456 117.082 174.724C122.631 178.978 128.484 182.816 134.594 186.208C135.964 186.968 137.346 187.71 138.74 188.433C139.669 188.909 140.604 189.382 141.542 189.841C142.951 190.53 144.372 191.195 145.804 191.835C159.008 197.777 172.97 201.855 187.291 203.952C190.471 204.423 193.664 204.793 196.869 205.063V179.225H197.153L196.872 179.228ZM108.143 53.6886V95.1325H196.883V53.6886H108.143ZM108.143 96.3491V135.762H196.883V96.3491H108.143ZM203.771 30.8228V43.9794L214.612 32.0536C211.02 31.4724 207.407 31.0574 203.771 30.8086V30.8228ZM203.771 96.3633V135.762H290.083V96.3491L203.771 96.3633ZM289.767 182.357L290.071 136.978H203.771V205.516C209.331 205.75 214.899 205.683 220.451 205.316H220.548C223.2 205.149 225.84 204.906 228.467 204.587H228.527C242.544 202.951 256.251 199.284 269.217 193.701L289.767 182.357ZM306.725 102.839C306.402 102.073 306.063 101.312 305.72 100.56C305.077 99.1353 304.398 97.7507 303.699 96.3661H296.965V135.762H313.991C313.983 124.605 311.167 113.209 306.734 102.825L306.725 102.839ZM296.965 136.992V176.023C301.761 171.414 305.813 166.14 308.732 160.112C312.241 152.853 313.846 144.992 313.977 136.987L296.965 136.992ZM296.965 84.8791V95.1354H303.068C301.222 91.6047 299.187 88.1763 296.973 84.8649L296.965 84.8791ZM238.429 38.5549C237.98 38.384 237.532 38.2102 237.08 38.0421C232.315 36.2778 227.445 34.8107 222.5 33.649L205.911 51.9023L205.593 52.2414L205.806 52.475H264.847C256.624 46.8 247.759 42.1225 238.438 38.5407L238.429 38.5549ZM266.578 53.7029H204.982L203.771 54.814V95.1325H214.382H214.399H290.094V75.6029C283.247 67.2998 275.343 59.9323 266.586 53.6886L266.578 53.7029Z" fill="#0155E1"/>
<path opacity="0.1" d="M32.7712 74.5947V95.1329H4.02344C4.02344 95.0133 4.04333 94.8908 4.05185 94.7711C4.07743 94.4435 4.103 94.1159 4.13141 93.7911C4.16267 93.4093 4.19677 93.0247 4.23371 92.6515C4.27065 92.2783 4.31043 91.8224 4.35305 91.4093C4.39568 90.9962 4.43546 90.5774 4.48376 90.1643C4.53207 89.7512 4.57469 89.3381 4.62584 88.9279C4.67699 88.5176 4.72245 88.1017 4.77644 87.6914C4.81907 87.3496 4.86453 87.0105 4.90999 86.6687C4.97535 86.1872 5.04355 85.7029 5.11742 85.2242C5.11742 85.153 5.13732 85.0789 5.14868 85.0106C5.66731 81.5068 6.37398 78.0336 7.26562 74.6061L32.7712 74.5947Z" fill="#0155E1"/>
<path opacity="0.1" d="M3.93283 96.3516H32.7715V135.761H6.04409C5.97305 136.166 5.90485 136.573 5.83097 136.981H32.7715V168.764C32.7232 168.75 32.6806 168.732 32.6351 168.715C31.8736 168.413 31.1177 168.094 30.3619 167.752L29.8788 167.533C29.1211 167.174 28.3633 166.794 27.6056 166.393C27.3413 166.254 27.0771 166.109 26.8156 165.96C22.609 163.598 18.7875 160.604 15.4836 157.083C15.387 156.989 15.2961 156.889 15.1995 156.798C14.7392 156.297 14.2874 155.79 13.8498 155.271L13.3667 154.701C12.8495 154.066 12.3494 153.414 11.8635 152.753C11.7925 152.656 11.7243 152.559 11.6504 152.468C9.67427 149.72 8.03344 146.746 6.76299 143.607C6.72321 143.513 6.68912 143.411 6.65218 143.322C6.26194 142.316 5.91622 141.3 5.61502 140.274C5.48431 139.844 5.35928 139.419 5.2513 138.972C5.21152 138.841 5.17742 138.713 5.14617 138.585C3.53218 132.269 3.3418 125.707 3.3418 119.192C3.3418 118.431 3.3418 117.668 3.3418 116.913C3.3418 114.277 3.37305 111.625 3.41852 108.975C3.41852 108.289 3.44693 107.605 3.46114 106.916C3.50092 105.166 3.55775 103.417 3.63163 101.668C3.64868 101.181 3.67141 100.696 3.69699 100.212C3.69699 99.9327 3.7112 99.6535 3.73961 99.3743C3.80781 98.3601 3.86464 97.3544 3.93283 96.3516Z" fill="#0155E1"/>
<path opacity="0.1" d="M61.3399 59.6232V95.1328H39.6562V59.6232H42.7478V47.6006H55.4381V59.6232H61.3399Z" fill="#0155E1"/>
<path opacity="0.1" d="M61.339 96.3496H39.6582V135.759H61.339V96.3496Z" fill="#0155E1"/>
<path opacity="0.1" d="M39.6562 136.981H61.3399V169.745C58.7821 170.481 56.1757 171.036 53.5399 171.406L52.8921 171.485C52.5738 171.522 52.2584 171.554 51.9459 171.585C51.6333 171.616 51.3093 171.639 50.9939 171.659H50.8945C50.7581 171.659 50.6103 171.676 50.4768 171.679H50.3319C50.1614 171.679 49.9909 171.696 49.8204 171.702C49.5789 171.716 49.3373 171.719 49.0901 171.722C48.985 171.722 48.8855 171.722 48.7804 171.722C48.536 171.722 48.2945 171.722 48.0501 171.722H47.5131C47.3682 171.722 47.2289 171.722 47.0783 171.722L46.5299 171.702C46.2458 171.702 45.9389 171.67 45.6433 171.651L45.0978 171.611L44.4186 171.548C43.9413 171.505 43.4667 171.451 42.9979 171.386L42.4296 171.306L42.1454 171.266C41.6709 171.192 41.202 171.112 40.7247 171.021C40.3752 170.961 40.0285 170.887 39.6761 170.816L39.6562 136.981Z" fill="#0155E1"/>
<path opacity="0.1" d="M196.883 55.4297H179.004V95.1301H196.883V55.4297Z" fill="#0155E1"/>
<path opacity="0.1" d="M196.886 96.3496V135.762H108.143V118.762H155.411V128.791H179.005V96.3496H196.886Z" fill="#0155E1"/>
<path opacity="0.1" d="M197.168 179.238H196.883V205.092C193.682 204.82 190.49 204.451 187.307 203.984C172.979 201.88 159.012 197.794 145.804 191.841C141.991 190.121 138.255 188.242 134.597 186.206C128.487 182.812 122.633 178.974 117.082 174.722C115.688 173.651 114.312 172.555 112.953 171.434C112.013 170.656 111.078 169.859 110.132 169.084C109.475 168.551 108.813 168.027 108.143 167.525V136.982H178.769C178.72 136.799 178.672 136.617 178.621 136.438C178.675 136.617 178.726 136.799 178.774 136.982H196.883V179.22C196.98 179.223 197.074 179.232 197.168 179.238Z" fill="#0155E1"/>
<path opacity="0.1" d="M243.514 52.4717H231.863V48.8421H237.086V38.0303C237.539 38.1955 237.99 38.3655 238.439 38.5402V48.8421H243.514V52.4717Z" fill="#0155E1"/>
<path opacity="0.1" d="M271.582 95.1325H214.387C214.387 95.1325 214.387 95.1325 214.407 95.1467L214.382 95.1325H203.771V55.4321H206.778V84.7765H220.517V67.3978H231.866V53.6914H243.516V67.4092H254.865V84.7879H271.582V95.1325Z" fill="#0155E1"/>
<path opacity="0.1" d="M203.771 96.3496V135.762H271.582V96.3496H203.771ZM289.989 182.155L290.083 150.959H271.582V136.999H203.771V205.516C209.331 205.75 214.899 205.684 220.451 205.317H220.548C223.2 205.15 225.84 204.907 228.467 204.588H228.527C242.544 202.952 256.251 199.285 269.218 193.702" fill="#0155E1"/>
<path opacity="0.1" d="M298.17 136.981H313.989C313.85 144.984 312.247 152.844 308.741 160.104C305.822 166.135 301.767 171.408 296.977 176.015V150.944H298.17V136.981Z" fill="#0155E1"/>
<path opacity="0.1" d="M313.997 135.762H298.17V102.825H306.734C311.167 113.21 313.983 124.606 313.997 135.762Z" fill="#0155E1"/>
<path opacity="0.1" d="M196.887 66.4668H187.309V78.9139H196.887V66.4668Z" fill="#0155E1"/>
<path opacity="0.1" d="M196.887 92.2666H187.309V95.1327H196.887V92.2666Z" fill="#0155E1"/>
<path opacity="0.1" d="M196.887 96.3496H187.309V104.711H196.887V96.3496Z" fill="#0155E1"/>
<path opacity="0.1" d="M196.887 118.067H187.309V130.514H196.887V118.067Z" fill="#0155E1"/>
<path opacity="0.1" d="M196.887 143.867H187.309V156.314H196.887V143.867Z" fill="#0155E1"/>
<path opacity="0.1" d="M196.885 179.22C196.981 179.22 197.075 179.22 197.169 179.237H196.885V182.128H187.309V169.667H196.885V179.22Z" fill="#0155E1"/>
<path opacity="0.1" d="M196.885 195.462V205.077C193.683 204.806 190.491 204.436 187.309 203.969V195.462H196.885Z" fill="#0155E1"/>
<path opacity="0.1" d="M149.194 134.848H108.143V135.762H149.194V134.848Z" fill="#0155E1"/>
<path opacity="0.1" d="M149.194 136.979H108.143V140.483H149.194V136.979Z" fill="#0155E1"/>
<path opacity="0.1" d="M149.194 151.97H108.143V157.605H149.194V151.97Z" fill="#0155E1"/>
<path opacity="0.1" d="M149.191 169.092V174.727H117.082C115.688 173.66 114.311 172.564 112.951 171.439C112.01 170.662 111.078 169.864 110.129 169.092H149.191Z" fill="#0155E1"/>
<path opacity="0.1" d="M149.192 186.212V191.841H145.802C141.992 190.119 138.258 188.239 134.598 186.203L149.192 186.212Z" fill="#0155E1"/>
<path opacity="0.1" d="M228.534 100.17H220.453V108.272H228.534V100.17Z" fill="#0155E1"/>
<path opacity="0.1" d="M53.5598 62.418H45.4785V70.5204H53.5598V62.418Z" fill="#0155E1"/>
<path opacity="0.1" d="M53.5598 81.2383H45.4785V89.3407H53.5598V81.2383Z" fill="#0155E1"/>
<path opacity="0.1" d="M53.5598 100.059H45.4785V108.161H53.5598V100.059Z" fill="#0155E1"/>
<path opacity="0.1" d="M53.5598 118.876H45.4785V126.978H53.5598V118.876Z" fill="#0155E1"/>
<path opacity="0.1" d="M53.5598 137.696H45.4785V145.799H53.5598V137.696Z" fill="#0155E1"/>
<path opacity="0.1" d="M53.5598 156.517H45.4785V164.619H53.5598V156.517Z" fill="#0155E1"/>
<path opacity="0.1" d="M259.386 100.17H251.305V108.272H259.386V100.17Z" fill="#0155E1"/>
<path opacity="0.1" d="M228.534 120.155H220.453V128.258H228.534V120.155Z" fill="#0155E1"/>
<path opacity="0.1" d="M259.386 120.155H251.305V128.258H259.386V120.155Z" fill="#0155E1"/>
<path opacity="0.1" d="M228.534 140.138H220.453V148.24H228.534V140.138Z" fill="#0155E1"/>
<path opacity="0.1" d="M259.386 140.138H251.305V148.24H259.386V140.138Z" fill="#0155E1"/>
<path opacity="0.1" d="M228.534 160.123H220.453V168.225H228.534V160.123Z" fill="#0155E1"/>
<path opacity="0.1" d="M259.386 160.123H251.305V168.225H259.386V160.123Z" fill="#0155E1"/>
<path opacity="0.1" d="M228.534 180.108H220.453V188.211H228.534V180.108Z" fill="#0155E1"/>
<path opacity="0.1" d="M259.386 180.108H251.305V188.211H259.386V180.108Z" fill="#0155E1"/>
<path opacity="0.1" d="M220.453 205.317V200.092H228.532V204.573L220.453 205.317Z" fill="#0155E1"/>
<path opacity="0.1" d="M5.11523 85.0049V89.6402H32.7718V85.0049H5.11523ZM7.87152 89.3496H5.61534V85.2898H7.88856L7.87152 89.3496ZM10.625 89.3496H8.35173V85.2898H10.625V89.3496ZM13.3727 89.3496H11.0995V85.2898H13.3727V89.3496ZM16.1261 89.3496H13.8558V85.2898H16.129L16.1261 89.3496ZM18.8767 89.3496H16.6035V85.2898H18.8767V89.3496ZM21.6302 89.3496H19.357V85.2898H21.6302V89.3496ZM24.3836 89.3496H22.1104V85.2898H24.3836V89.3496ZM27.1342 89.3496H24.861V85.2898H27.1342V89.3496ZM29.8848 89.3496H27.6116V85.2898H29.8848V89.3496ZM32.6354 89.3496H30.3622V85.2898H32.6354V89.3496Z" fill="#0155E1"/>
<path opacity="0.1" d="M5.11523 98.4912V103.126H32.7718V98.4912H5.11523ZM7.87152 102.833H5.61534V98.7847H7.88856L7.87152 102.833ZM10.625 102.833H8.35173V98.7847H10.625V102.833ZM13.3727 102.833H11.0995V98.7847H13.3727V102.833ZM16.1261 102.833H13.8558V98.7847H16.129L16.1261 102.833ZM18.8767 102.833H16.6035V98.7847H18.8767V102.833ZM21.6302 102.833H19.357V98.7847H21.6302V102.833ZM24.3836 102.833H22.1104V98.7847H24.3836V102.833ZM27.1342 102.833H24.861V98.7847H27.1342V102.833ZM29.8848 102.833H27.6116V98.7847H29.8848V102.833ZM32.6354 102.833H30.3622V98.7847H32.6354V102.833Z" fill="#0155E1"/>
<path opacity="0.1" d="M5.11523 111.984V116.628H32.7718V111.984H5.11523ZM7.87152 116.326H5.61534V112.275H7.88856L7.87152 116.326ZM10.625 116.326H8.35173V112.275H10.625V116.326ZM13.3727 116.326H11.0995V112.275H13.3727V116.326ZM16.1261 116.326H13.8558V112.275H16.129L16.1261 116.326ZM18.8767 116.326H16.6035V112.275H18.8767V116.326ZM21.6302 116.326H19.357V112.275H21.6302V116.326ZM24.3836 116.326H22.1104V112.275H24.3836V116.326ZM27.1342 116.326H24.861V112.275H27.1342V116.326ZM29.8848 116.326H27.6116V112.275H29.8848V116.326ZM32.6354 116.326H30.3622V112.275H32.6354V116.326Z" fill="#0155E1"/>
<path opacity="0.1" d="M5.11523 125.477V130.106H32.7718V125.477H5.11523ZM7.87152 129.818H5.61534V125.764H7.88856L7.87152 129.818ZM10.625 129.818H8.35173V125.764H10.625V129.818ZM13.3727 129.818H11.0995V125.764H13.3727V129.818ZM16.1261 129.818H13.8558V125.764H16.129L16.1261 129.818ZM18.8767 129.818H16.6035V125.764H18.8767V129.818ZM21.6302 129.818H19.357V125.764H21.6302V129.818ZM24.3836 129.818H22.1104V125.764H24.3836V129.818ZM27.1342 129.818H24.861V125.764H27.1342V129.818ZM29.8848 129.818H27.6116V125.764H29.8848V129.818ZM32.6354 129.818H30.3622V125.764H32.6354V129.818Z" fill="#0155E1"/>
<path opacity="0.1" d="M5.23438 138.967C5.34519 139.403 5.47022 139.839 5.60093 140.269V139.257H7.87415V143.309H6.65798C6.69492 143.403 6.73186 143.505 6.7688 143.594H32.7716V138.967H5.23438ZM10.6333 143.309H8.36005V139.257H10.6333V143.309ZM13.381 143.309H11.1078V139.257H13.381V143.309ZM16.1345 143.309H13.8556V139.257H16.1288L16.1345 143.309ZM18.8851 143.309H16.6118V139.257H18.8851V143.309ZM21.6385 143.309H19.3653V139.257H21.6385V143.309ZM24.3919 143.309H22.1187V139.257H24.3919V143.309ZM27.1425 143.309H24.8693V139.257H27.1425V143.309ZM29.8931 143.309H27.6199V139.257H29.8931V143.309ZM32.6437 143.309H30.3705V139.257H32.6437V143.309Z" fill="#0155E1"/>
<path opacity="0.1" d="M11.6562 152.46C11.7273 152.551 11.7955 152.654 11.8694 152.745H13.3725V154.691C13.5345 154.884 13.6936 155.078 13.8584 155.26V152.733H16.1317V156.799H15.211C15.3019 156.893 15.39 156.993 15.4952 157.084H32.7802V152.46H11.6562ZM18.8766 156.799H16.6033V152.751H18.8766V156.799ZM21.63 156.799H19.3568V152.751H21.63V156.799ZM24.3834 156.799H22.1102V152.751H24.3834V156.799ZM27.134 156.799H24.8608V152.751H27.134V156.799ZM29.8846 156.799H27.6114V152.751H29.8846V156.799ZM32.6352 156.799H30.362V152.751H32.6352V156.799Z" fill="#0155E1"/>
<path opacity="0.1" d="M26.8262 165.949C27.0848 166.097 27.349 166.234 27.6161 166.382V166.24H29.8893V167.522L30.3724 167.747V166.24H32.6456V168.704C32.6892 168.726 32.7349 168.743 32.782 168.755V165.949H26.8262Z" fill="#0155E1"/>
<path opacity="0.1" d="M214.388 95.1328H214.405H214.388ZM196.884 179.217H197.168H196.884ZM178.622 136.434C178.676 136.617 178.721 136.799 178.772 136.978C178.727 136.799 178.678 136.617 178.622 136.434ZM214.388 95.1243H214.405H214.388ZM42.7598 52.4639V53.6804H55.4529V52.4639H42.7598ZM196.884 179.217H197.168H196.884ZM178.622 136.434C178.676 136.617 178.721 136.799 178.772 136.978C178.727 136.799 178.678 136.617 178.622 136.434ZM214.388 95.1243H214.405H214.388ZM196.884 179.209H197.168H196.884ZM178.622 136.434C178.676 136.617 178.721 136.799 178.772 136.978C178.727 136.799 178.678 136.617 178.622 136.434Z" fill="#0155E1"/>
<path d="M131.165 108.167C131.165 108.167 130.046 108.01 130.046 106.375C130.046 104.739 129.244 101.685 129.244 101.685C129.244 101.671 128.551 96.3663 127.593 95.523C126.636 94.6797 125.405 89.7282 125.405 89.7282C125.405 89.7282 125.195 87.0416 124.766 86.4633C124.337 85.8849 123.757 84.469 122.902 82.4491C122.047 80.4291 118.481 79.0303 118.481 79.0303C118.481 79.0303 112.033 75.2811 110.206 74.0589C110.04 73.9584 109.885 73.841 109.743 73.7084C109.425 73.2896 108.038 73.2811 108.038 73.2811C107.893 72.3637 107.754 71.3096 107.708 70.3552C107.708 70.2526 107.708 70.1501 107.694 70.0475C109.731 68.8401 111.266 66.9363 112.016 64.6858C112.05 64.5775 112.079 64.4635 112.11 64.3553C112.232 64.315 112.344 64.2495 112.44 64.1632C112.535 64.0769 112.611 63.9715 112.664 63.8539C112.829 63.4863 112.832 63.0562 113.036 62.7143C113.275 62.3097 113.73 62.0932 114.088 61.7884C114.991 61.0191 115.224 59.7229 115.182 58.5434C115.153 57.589 115 56.626 115.059 55.6773L115.076 55.438C115.093 55.2956 115.113 55.1531 115.139 55.0164C115.278 54.3098 115.582 53.6432 115.753 52.9423C115.923 52.2415 115.94 51.4523 115.542 50.8483C114.96 49.9623 113.747 49.7857 112.681 49.6945C111.473 49.5919 110.394 49.7258 109.621 48.7201C109.259 48.1945 108.852 47.7017 108.405 47.2472C108.245 47.0991 106.7 46.1532 106.7 46.0906C105.191 45.39 103.481 45.2585 101.883 45.7202C101.082 45.9538 100.326 46.3356 99.5134 46.5264C97.7602 46.9424 95.7427 46.4923 94.2537 47.4979C93.424 48.0677 92.9267 48.9737 92.4607 49.8569C92.0818 50.5843 91.6973 51.3108 91.3071 52.0363C90.6791 53.2301 90.0397 54.4437 89.7755 55.7656C89.7199 56.0533 89.6857 56.3447 89.6732 56.6374V56.6517C89.6732 56.7571 89.6732 56.8625 89.6732 56.9679V57.1018C89.6732 57.2015 89.6732 57.2984 89.6902 57.3867C89.7073 57.475 89.7044 57.5035 89.713 57.5633C89.7215 57.6232 89.7357 57.7571 89.7527 57.8482C89.7698 57.9394 89.8039 58.0989 89.838 58.2243C89.8522 58.2784 89.8721 58.3297 89.8891 58.381C89.9175 58.4779 89.9516 58.5719 89.9886 58.6659C90.0085 58.7143 90.0284 58.7656 90.0511 58.814C90.0937 58.9138 90.1449 59.0106 90.196 59.0989C90.2187 59.1388 90.2358 59.1759 90.2585 59.2129C90.3378 59.3454 90.4251 59.4729 90.5199 59.5947C91.128 60.3553 92.0231 60.8397 92.6852 61.5519C92.6852 61.5804 92.6852 61.6089 92.6852 61.6345C92.6852 61.7143 92.6852 61.7912 92.6852 61.871C92.7203 63.4594 93.142 65.0152 93.9136 66.403C94.6851 67.7908 95.7832 68.9686 97.1123 69.8338C97.1123 69.9421 97.1265 70.0532 97.1322 70.1615C97.1876 71.0071 97.1771 71.8559 97.1009 72.6999C96.9852 72.5633 96.8404 72.4544 96.6771 72.3815C96.5138 72.3085 96.3362 72.2732 96.1575 72.2783C96.0354 72.2723 95.9131 72.2828 95.7938 72.3096L95.7682 72.2896V72.3153C95.1431 72.4691 94.3731 73.1215 93.6371 74.9762C93.6371 74.9762 91.398 77.5061 89.6931 77.4007C87.9882 77.2953 83.6719 80.0331 83.6719 80.0331C83.6719 80.0331 79.4607 82.7738 78.5571 85.5658C78.0521 87.149 77.4465 88.6982 76.7442 90.204L71.5386 100.959L70.5781 109.491C70.5781 109.491 71.1095 113.286 71.0044 113.865C70.8992 114.443 73.1895 119.659 73.1895 119.659C73.1895 119.659 80.7565 132.99 83.8481 133.673L84.0697 133.517C84.202 133.586 84.3423 133.639 84.4874 133.673L85.1239 133.223C85.1621 133.725 85.1459 134.229 85.0756 134.728C84.6494 136.044 85.2347 144.633 85.9792 146.317C86.7237 148.001 86.4594 170.078 86.4594 170.078L86.3543 172.026C86.3543 172.026 86.3543 172.089 86.3799 172.197L86.3543 172.659L86.431 172.699C86.5107 173.317 86.4847 173.944 86.3543 174.553C86.0872 175.408 85.9792 177.824 85.9792 177.824C85.9792 177.824 83.8509 191.465 84.8596 194.205C85.8684 196.946 86.7265 199.949 86.7265 199.949C86.7265 199.949 87.7921 203.368 86.7777 203.952C85.7632 204.536 82.8791 205.516 83.473 206.94C84.0129 208.257 86.0616 211.784 86.3656 212.299L86.3401 212.57L85.9224 217.108C85.99 217.708 86.1521 218.292 86.4026 218.841C86.8601 219.829 87.7495 220.855 89.4402 220.744C89.7243 220.724 90.0539 220.689 90.3722 220.647C93.4666 220.231 97.2771 218.846 97.2771 218.846C97.0793 218.72 96.8979 218.57 96.7372 218.399C96.5851 218.251 96.4646 218.074 96.383 217.878C96.3014 217.682 96.2605 217.472 96.2627 217.259C96.3081 216.433 94.7652 212.496 94.3816 211.527C94.3219 211.388 94.2907 211.308 94.2907 211.308C94.2907 211.308 97.8085 207.621 97.2231 204.354C97.2231 204.354 93.3302 202.074 94.6117 200.824C95.8933 199.573 98.1835 195.98 98.1835 195.98C98.1835 195.98 98.2887 182.548 98.1835 180.542C98.0739 179.15 98.1398 177.749 98.3796 176.374C98.4222 176.166 98.4734 175.964 98.5274 175.764C100.3 176.029 102.089 176.166 103.881 176.172C104.534 176.172 105.199 176.172 105.87 176.132C105.87 176.322 105.878 176.527 105.895 176.747C106.043 180.075 106.319 185.909 106.543 188.077C106.862 191.186 108.62 199.562 108.62 199.562C108.62 199.562 105.265 201.721 109.206 207.043C109.206 207.043 109.206 208.972 108.944 209.251C108.665 210.164 108.44 211.092 108.271 212.031C108.106 213.034 108.038 214.049 108.305 214.576C108.944 215.835 112.78 215.732 112.78 215.732L112.874 215.715C113.598 215.64 114.33 215.71 115.027 215.921C115.724 216.132 116.373 216.479 116.935 216.943C118.392 218.117 123.925 217.601 126.92 217.228C128.093 217.08 128.878 216.943 128.878 216.943C128.916 216.81 128.929 216.671 128.917 216.533C128.886 215.795 128.309 214.177 124.399 212.732C124.399 212.732 120.723 210.254 120.774 208.094H120.697H120.271C120.58 208.077 120.779 208.094 120.779 208.094C120.779 208.094 119.339 202.824 119.927 202.396C120.515 201.969 118.753 196.129 118.753 196.129C118.753 196.129 117.745 186.328 117.691 185.641C117.693 185.052 117.782 184.467 117.955 183.904L117.691 178.53C117.691 178.53 117.639 176.744 117.691 176.163C117.682 175.658 117.641 175.155 117.568 174.656C117.543 174.456 117.517 174.248 117.489 174.043C118.867 173.693 119.762 173.368 119.762 173.368L119.603 154.665C120.774 152.385 120.99 147.386 120.984 143.839C120.984 141.559 120.882 139.873 120.882 139.873L122.481 137.255C122.481 137.255 122.851 134.121 122.265 133.434C122.007 133.124 122.123 132.802 122.337 132.537C122.447 132.449 122.564 132.369 122.686 132.297C122.686 132.297 122.669 132.272 122.649 132.235C122.761 132.141 122.88 132.056 123.004 131.981C123.004 131.981 122.436 131.098 122.945 130.725C123.422 131.05 123.848 131.295 124.172 131.494C124.149 131.702 124.127 131.822 124.127 131.822L124.263 131.537C124.576 131.713 124.766 131.822 124.766 131.822C124.766 131.822 127.272 126.816 127.218 126.078C127.164 125.34 128.923 122.232 128.923 122.232C128.923 122.232 129.136 120.6 130.097 119.916C131.057 119.232 130.841 114.278 130.841 114.278C130.841 114.278 131.108 111.697 131.748 110.642C132.387 109.588 131.165 108.167 131.165 108.167ZM83.2115 105.97L83.2599 107.164C82.9757 106.705 82.7711 106.375 82.7711 106.375L83.2115 105.97Z" fill="url(#paint0_linear)"/>
<path d="M124.902 129.66L124.288 132.281C124.288 132.281 119.372 129.765 118.486 126.568C117.599 123.372 119.969 122.158 119.969 122.158L124.549 124.104L124.902 129.66Z" fill="white"/>
<path opacity="0.1" d="M124.902 129.66L124.288 132.281C124.288 132.281 119.372 129.765 118.486 126.568C117.599 123.372 119.969 122.158 119.969 122.158L124.549 124.104L124.902 129.66Z" fill="black"/>
<path d="M97.3131 218.863C97.3131 218.863 92.7667 220.538 89.641 220.749C87.9816 220.86 87.1092 219.84 86.6603 218.857C86.415 218.311 86.2568 217.729 86.1914 217.134L86.5977 212.618L86.8137 210.214L93.4543 208.484L94.3949 211.368L94.483 211.587C94.8609 212.55 96.3754 216.467 96.33 217.285C96.3281 217.494 96.3684 217.702 96.4485 217.895C96.5286 218.089 96.6468 218.264 96.796 218.41C96.9484 218.583 97.1222 218.735 97.3131 218.863Z" fill="white"/>
<path d="M128.368 216.567C128.38 216.704 128.366 216.842 128.328 216.975C128.328 216.975 118.605 218.601 116.616 216.975C116.055 216.499 115.401 216.147 114.696 215.94C113.992 215.733 113.252 215.676 112.524 215.772C112.524 215.772 108.762 215.875 108.134 214.633C107.872 214.111 107.94 213.1 108.102 212.103C108.268 211.169 108.488 210.245 108.762 209.337L108.912 209.217L109.807 208.496L120.287 208.186H120.366C120.315 210.334 123.924 212.798 123.924 212.798C127.757 214.223 128.323 215.832 128.368 216.567Z" fill="white"/>
<path opacity="0.1" d="M128.369 216.567C128.379 216.704 128.364 216.842 128.326 216.974C128.326 216.974 118.605 218.601 116.616 216.974C116.056 216.499 115.402 216.147 114.698 215.94C113.994 215.733 113.255 215.676 112.527 215.772C112.527 215.772 108.762 215.875 108.137 214.632C107.876 214.108 107.941 213.1 108.103 212.103C109.552 212.248 111.839 212.61 112.737 213.473C114.096 214.786 116.397 216.097 117.81 216.199C118.915 216.271 125.527 216.481 128.369 216.567Z" fill="black"/>
<path opacity="0.1" d="M97.3141 218.864C97.3141 218.864 92.7677 220.539 89.642 220.75C87.9825 220.861 87.1102 219.841 86.6641 218.855C87.8206 219.245 89.426 219.656 90.27 219.279C91.2702 218.835 94.8164 218.547 96.8055 218.425C96.9569 218.591 97.1276 218.738 97.3141 218.864Z" fill="black"/>
<path d="M104.059 83.8653C100.308 82.4037 95.4835 77.5748 96.6883 75.3184C96.9559 74.749 97.1149 74.1344 97.1572 73.5064C97.2347 72.6539 97.2461 71.7967 97.1913 70.9424C97.1068 69.5433 96.9389 68.1505 96.6883 66.7715C96.6883 66.7715 108.398 67.0364 107.716 68.7658C107.517 69.2729 107.486 70.1532 107.54 71.1389C107.594 72.1247 107.736 73.2386 107.884 74.1816C108.089 75.4751 108.293 76.4608 108.293 76.4608C108.293 76.4608 107.577 77.4665 107.157 77.5206C106.736 77.5748 109.441 85.9479 104.059 83.8653Z" fill="#CF6F80"/>
<path opacity="0.1" d="M94.4751 211.587L94.387 211.684C90.8862 207.439 86.6524 212.729 86.6524 212.729L86.5898 212.618L86.8058 210.214L93.4465 208.484L94.387 211.368L94.4751 211.587Z" fill="black"/>
<path opacity="0.1" d="M120.37 208.484C120.37 208.484 117.813 208.43 116.449 209.638C115.085 210.846 108.492 209.9 108.776 209.638C108.861 209.508 108.911 209.36 108.924 209.205L109.819 208.484L120.299 208.174C120.339 208.365 120.37 208.484 120.37 208.484Z" fill="black"/>
<path d="M98.8308 175.149C98.6403 175.621 98.4957 176.111 98.3989 176.611C98.1619 177.98 98.0961 179.373 98.2028 180.759C98.308 182.753 98.2028 196.118 98.2028 196.118C98.2028 196.118 95.9552 199.682 94.7021 200.938C93.4489 202.194 97.2594 204.451 97.2594 204.451C97.8277 207.699 94.3838 211.368 94.3838 211.368C90.883 207.123 86.6492 212.417 86.6492 212.417C86.6492 212.417 84.3475 208.428 83.7735 207.003C83.1996 205.579 86.0212 204.593 87.0129 204.015C88.0046 203.437 86.9646 200.026 86.9646 200.026C86.9646 200.026 86.1263 197.038 85.1318 194.311C84.1373 191.585 86.2286 178.012 86.2286 178.012C86.2286 178.012 86.3366 175.602 86.5952 174.762C86.7256 174.155 86.7516 173.531 86.6719 172.916C86.6549 172.708 86.635 172.534 86.6208 172.417C86.6065 172.3 86.5952 172.246 86.5952 172.246L86.635 172.178L88.0557 169.522C88.0557 169.522 99.5128 173.477 98.8308 175.149Z" fill="#0155E1"/>
<path d="M120.371 208.171C120.371 208.171 117.814 208.117 116.45 209.311C115.086 210.505 108.493 209.573 108.777 209.311C109.062 209.049 109.039 207.109 109.039 207.109C105.172 201.815 108.471 199.667 108.471 199.667C108.471 199.667 106.743 191.334 106.43 188.243C106.212 186.083 105.942 180.28 105.797 176.967C105.734 175.542 105.697 174.562 105.697 174.562L108.857 173.924L109.263 173.841L116.884 172.309C116.884 172.309 117.095 173.733 117.237 174.898C117.308 175.396 117.347 175.897 117.356 176.4C117.305 176.969 117.356 178.753 117.356 178.753L117.615 184.1C117.446 184.661 117.359 185.244 117.356 185.83C117.407 186.511 118.399 196.26 118.399 196.26C118.399 196.26 120.124 202.077 119.535 202.496C118.947 202.915 120.371 208.171 120.371 208.171Z" fill="#0155E1"/>
<path opacity="0.1" d="M107.717 68.7658C107.519 69.2729 107.487 70.1532 107.541 71.1389C105.973 72.0859 104.17 72.5701 102.339 72.5358C100.508 72.5016 98.7246 71.9502 97.1924 70.9452C97.108 69.5451 96.9401 68.1514 96.6895 66.7715C96.6895 66.7715 108.399 67.0307 107.717 68.7658Z" fill="black"/>
<path d="M112.244 62.4695C112.246 63.4962 112.085 64.5166 111.767 65.4923C111.055 67.6785 109.595 69.542 107.645 70.7534C105.695 71.9648 103.381 72.4462 101.112 72.1124C98.8423 71.7786 96.7636 70.6512 95.243 68.9294C93.7224 67.2076 92.8579 65.0022 92.8022 62.7031C92.8022 62.6234 92.8022 62.5493 92.8022 62.4695C92.7801 61.1754 93.0153 59.8898 93.494 58.6878C93.9727 57.4858 94.6853 56.3913 95.5903 55.4683C96.4953 54.5453 97.5745 53.8123 98.765 53.3118C99.9556 52.8114 101.234 52.5537 102.524 52.5537C103.815 52.5537 105.093 52.8114 106.284 53.3118C107.474 53.8123 108.554 54.5453 109.459 55.4683C110.364 56.3913 111.076 57.4858 111.555 58.6878C112.034 59.8898 112.269 61.1754 112.247 62.4695H112.244Z" fill="#CF6F80"/>
<path opacity="0.1" d="M104.059 83.8657C100.308 82.4042 95.4835 77.5752 96.6883 75.3188C96.9559 74.7494 97.1149 74.1348 97.1572 73.5068L102.292 77.7375L105.469 80.35L107.884 74.1849C108.089 75.4783 108.293 76.4641 108.293 76.4641C108.293 76.4641 107.577 77.4697 107.157 77.5239C106.736 77.578 109.441 85.9483 104.059 83.8657Z" fill="black"/>
<path d="M117.339 102.563L113.051 174.785L107.459 175.152L92.9785 133.275L95.354 83.5578L95.8541 73.0537L102.293 78.3556L105.473 80.9681L107.959 74.6235L112.582 78.6633L117.339 102.563Z" fill="#0155E1"/>
<path opacity="0.1" d="M98.8304 175.149C98.6399 175.621 98.4953 176.11 98.3985 176.61C94.3294 175.98 90.3775 174.743 86.6744 172.938L86.5977 172.898L86.6232 172.439L86.6374 172.2L88.0582 169.545C88.0582 169.545 99.5124 173.476 98.8304 175.149Z" fill="black"/>
<path opacity="0.1" d="M108.922 176.622C107.882 176.8 106.832 176.919 105.779 176.981C105.717 175.557 105.68 174.577 105.68 174.577L108.839 173.938L108.922 176.622Z" fill="black"/>
<path opacity="0.1" d="M117.219 174.912C115.199 175.439 112.079 176.032 109.286 175.661L109.246 173.855L116.867 172.322C116.867 172.322 117.077 173.733 117.219 174.912Z" fill="black"/>
<path opacity="0.1" d="M109.234 175.992C97.5836 177.986 86.9137 172.268 86.9137 172.268L87.016 170.331C87.016 170.331 87.2802 148.368 86.5471 146.685C85.814 145.001 85.2428 136.463 85.6577 135.152C86.0726 133.842 84.1432 114.189 84.1432 114.189L83.8306 106.212L72.3906 101.566L77.5054 90.8763C78.1962 89.3777 78.7904 87.836 79.2842 86.261C80.1736 83.4861 84.3023 80.7597 84.3023 80.7597C84.3023 80.7597 88.5362 78.0361 90.2098 78.1386C91.8835 78.2412 94.0772 75.7284 94.0772 75.7284C95.6968 71.5888 97.163 73.4635 97.163 73.4635C97.163 73.66 97.163 73.4635 97.0835 74.076C96.5152 78.6201 106.273 92.9789 106.412 93.2324L107.341 115.927L108.282 144.648L109.234 175.992Z" fill="black"/>
<path d="M108.922 175.992C97.2718 177.986 86.599 172.268 86.599 172.268L86.7042 170.331C86.7042 170.331 86.9684 148.368 86.2325 146.684C85.4965 145.001 84.9282 136.462 85.3459 135.152C85.7636 133.841 83.8314 114.189 83.8314 114.189L83.516 106.212L72.0703 101.548L77.1851 90.8588C77.8744 89.3594 78.4685 87.8179 78.9639 86.2434C79.8504 83.4686 83.982 80.7421 83.982 80.7421C83.982 80.7421 88.2159 78.0185 89.8867 78.121C91.5575 78.2236 93.754 75.7108 93.754 75.7108C95.3765 71.5713 97.1638 73.4459 97.1638 73.4459C97.1638 73.6425 96.9933 73.7308 97.0843 74.0584C98.3345 78.4658 105.961 92.9613 106.1 93.2149L107.041 115.91L107.982 144.63L108.922 175.992Z" fill="white"/>
<path opacity="0.1" d="M105.781 93.8618C104.528 93.3376 97.8904 85.7394 97.8904 85.7394V84.0101C97.6488 83.4403 96.2139 83.7879 95.0488 84.1868L95.5489 73.6826L96.1172 74.1555C97.3618 78.5601 105.636 93.6083 105.781 93.8618Z" fill="black"/>
<path d="M106.097 93.2329C104.841 92.7087 98.2029 85.1105 98.2029 85.1105V83.3812C97.9613 82.8114 96.5264 83.159 95.3613 83.5579L95.8643 73.0537L96.4326 73.5266C97.68 77.9311 105.957 92.9822 106.097 93.2329Z" fill="white"/>
<path opacity="0.1" d="M86.9128 131.127C87.0691 131.127 95.014 130.289 95.014 130.289C95.014 130.289 99.8247 139.773 99.5093 142.081C99.1939 144.389 98.6227 146.431 96.6877 146.069C94.7526 145.708 86.2734 146.354 86.2734 146.354L86.9128 131.127Z" fill="black"/>
<path d="M86.5983 130.497C86.7546 130.497 94.6995 129.659 94.6995 129.659C94.6995 129.659 99.5074 139.146 99.1948 141.451C98.8822 143.756 98.3054 145.801 96.3732 145.44C94.4409 145.078 85.959 145.725 85.959 145.725L86.5983 130.497Z" fill="white"/>
<path d="M92.5849 126.044C92.5849 126.044 99.8763 129.973 100.033 131.172C100.189 132.372 96.3215 130.648 95.4861 130.44C94.9363 130.307 94.3765 130.219 93.8125 130.178L88.2402 130.329L92.5849 126.044Z" fill="#CF6F80"/>
<path opacity="0.1" d="M103.748 94.3519C104.171 94.3519 104.515 94.0075 104.515 93.5827C104.515 93.1579 104.171 92.8135 103.748 92.8135C103.324 92.8135 102.98 93.1579 102.98 93.5827C102.98 94.0075 103.324 94.3519 103.748 94.3519Z" fill="black"/>
<path d="M103.748 94.0384C104.171 94.0384 104.515 93.6941 104.515 93.2692C104.515 92.8444 104.171 92.5 103.748 92.5C103.324 92.5 102.98 92.8444 102.98 93.2692C102.98 93.6941 103.324 94.0384 103.748 94.0384Z" fill="#3F3D56"/>
<path opacity="0.1" d="M105.16 127.651C105.583 127.651 105.927 127.306 105.927 126.882C105.927 126.457 105.583 126.112 105.16 126.112C104.736 126.112 104.393 126.457 104.393 126.882C104.393 127.306 104.736 127.651 105.16 127.651Z" fill="black"/>
<path d="M105.16 127.334C105.583 127.334 105.927 126.99 105.927 126.565C105.927 126.14 105.583 125.796 105.16 125.796C104.736 125.796 104.393 126.14 104.393 126.565C104.393 126.99 104.736 127.334 105.16 127.334Z" fill="#3F3D56"/>
<path opacity="0.1" d="M104.511 111.001C104.935 111.001 105.279 110.657 105.279 110.232C105.279 109.807 104.935 109.463 104.511 109.463C104.088 109.463 103.744 109.807 103.744 110.232C103.744 110.657 104.088 111.001 104.511 111.001Z" fill="black"/>
<path d="M104.511 110.688C104.935 110.688 105.279 110.343 105.279 109.919C105.279 109.494 104.935 109.149 104.511 109.149C104.088 109.149 103.744 109.494 103.744 109.919C103.744 110.343 104.088 110.688 104.511 110.688Z" fill="#3F3D56"/>
<path d="M122.196 130.019C122.196 130.019 122.719 130.805 122.196 131.173C121.674 131.54 122.248 132.429 122.248 132.429C122.248 132.429 120.943 133.195 121.517 133.885C122.091 134.574 121.728 137.688 121.728 137.688L120.159 140.292C120.159 140.292 120.253 141.97 120.259 144.238C120.259 147.776 120.051 152.751 118.903 155.018L119.062 173.625C119.062 173.625 113.57 175.636 108.972 175.024L108.29 145.167C108.29 145.167 109.285 128.235 109.651 124.987C109.866 123.301 109.953 121.601 109.913 119.902C109.913 119.902 109.756 114.819 109.231 112.461C109.231 112.461 108.662 102.241 108.605 99.4123C108.58 98.059 108.651 94.1104 108.73 90.3554C108.819 86.2501 108.918 82.3783 108.918 82.3783L107.881 74.1505C107.881 74.1505 108.918 74.0451 109.231 74.4639C109.371 74.595 109.523 74.7124 109.685 74.8143C111.475 76.028 117.801 79.7601 117.801 79.7601C117.801 79.7601 121.301 81.1561 122.14 83.1561C122.978 85.1561 123.56 86.5748 123.967 87.1446C124.373 87.7144 124.595 90.3925 124.595 90.3925C124.595 90.3925 125.8 95.3212 126.74 96.1559C127.681 96.9907 128.368 102.301 128.368 102.301L120.057 108.854C120.057 108.854 119.327 119.754 119.17 120.176C119.014 120.597 122.196 130.019 122.196 130.019Z" fill="white"/>
<path d="M122.512 130.019C122.512 130.019 123.032 130.805 122.512 131.172C121.992 131.54 122.561 132.429 122.561 132.429C122.561 132.429 121.265 133.204 121.833 133.893C122.401 134.583 122.043 137.697 122.043 137.697L120.475 140.301C120.475 140.301 120.569 141.979 120.577 144.246C120.577 147.785 120.37 152.759 119.222 155.027L119.378 173.633C119.378 173.633 113.877 175.645 109.285 175.032L108.606 145.175C108.606 145.175 109.6 128.244 109.967 124.996C110.182 123.31 110.268 121.61 110.225 119.911C110.225 119.911 110.069 114.828 109.546 112.469C109.546 112.469 108.978 102.25 108.918 99.4208C108.893 98.0675 108.967 94.1188 109.043 90.3639C109.131 86.2585 109.231 82.3868 109.231 82.3868L107.861 74.0479C107.861 74.0479 109.231 74.0478 109.546 74.4723C109.685 74.605 109.837 74.7225 110.001 74.8228C111.791 76.0364 118.119 79.7686 118.119 79.7686C118.119 79.7686 121.617 81.1646 122.455 83.1645C123.294 85.1645 123.876 86.5833 124.285 87.1531C124.695 87.7229 124.91 90.4009 124.91 90.4009C124.91 90.4009 126.115 95.3296 127.056 96.1644C127.996 96.9991 128.676 102.298 128.676 102.298L120.364 108.851C120.364 108.851 119.634 119.751 119.475 120.173C119.316 120.594 122.512 130.019 122.512 130.019Z" fill="white"/>
<path opacity="0.1" d="M112.557 84.8047L113.308 86.9984L109.358 90.9869C109.446 86.8844 109.545 83.0098 109.545 83.0098L108.176 74.6709C108.176 74.6709 109.545 74.6709 109.861 75.0954C109.999 75.2277 110.152 75.3443 110.315 75.443L113.674 85.1579L112.557 84.8047Z" fill="black"/>
<path d="M112.243 84.1758L112.996 86.3695L109.046 90.358C109.134 86.2527 109.234 82.3809 109.234 82.3809L107.861 74.042C107.861 74.042 109.234 74.042 109.546 74.4665C109.686 74.5984 109.838 74.7158 110.001 74.8169L113.363 84.529L112.243 84.1758Z" fill="white"/>
<path opacity="0.1" d="M112.244 62.4695C112.246 63.4962 112.085 64.5166 111.767 65.4923C111.713 65.5007 111.658 65.4982 111.605 65.485C111.553 65.4718 111.503 65.4481 111.46 65.4154C111.386 62.8513 110.127 60.4439 108.578 58.3955C108.144 57.777 107.616 57.2293 107.016 56.7716C106.408 56.3141 105.652 56.0998 104.896 56.1705C104.043 56.2873 103.29 56.8685 102.429 56.9425C101.293 57.0365 100.275 56.2474 99.1473 56.2075C98.6887 56.2119 98.2363 56.3143 97.8203 56.5078C97.4043 56.7014 97.0343 56.9817 96.7349 57.33C96.1422 58.0329 95.7019 58.8518 95.442 59.7345C94.9952 61.0731 94.7519 62.4714 94.7202 63.8826C94.706 64.6803 94.6293 65.6803 93.8905 65.9709C93.9461 65.3842 93.8796 64.7924 93.6952 64.2328C93.5108 63.6733 93.2125 63.1582 92.8193 62.7202L92.8022 62.7031C92.8022 62.6234 92.8022 62.5493 92.8022 62.4695C92.7801 61.1754 93.0153 59.8899 93.494 58.6878C93.9727 57.4858 94.6853 56.3913 95.5903 55.4683C96.4953 54.5453 97.5745 53.8123 98.765 53.3118C99.9556 52.8114 101.234 52.5537 102.524 52.5537C103.815 52.5537 105.093 52.8114 106.284 53.3118C107.474 53.8123 108.554 54.5453 109.459 55.4683C110.364 56.3913 111.076 57.4858 111.555 58.6878C112.034 59.8899 112.269 61.1754 112.247 62.4695H112.244Z" fill="black"/>
<path d="M106.549 46.991C105.073 46.2946 103.393 46.1629 101.827 46.6206C101.039 46.8542 100.298 47.2331 99.4993 47.424C97.7944 47.8371 95.8053 47.3898 94.3419 48.3898C93.5293 48.9596 93.0405 49.8599 92.5859 50.7345L91.4493 52.9054C90.8298 54.0934 90.2047 55.3014 89.9461 56.6091C89.6875 57.9167 89.8438 59.3811 90.6707 60.4324C91.2731 61.1988 92.1625 61.6802 92.8161 62.401C93.2076 62.8395 93.5046 63.3542 93.6884 63.9131C93.8723 64.472 93.939 65.0629 93.8845 65.6488C94.6261 65.364 94.6971 64.3611 94.7142 63.5634C94.7459 62.1522 94.9892 60.7539 95.4359 59.4153C95.6953 58.5323 96.1356 57.7133 96.7288 57.0108C97.0285 56.6627 97.3986 56.3826 97.8145 56.1891C98.2305 55.9956 98.6828 55.893 99.1413 55.8883C100.278 55.9282 101.298 56.7145 102.423 56.6205C103.276 56.5492 104.032 55.9652 104.89 55.8513C105.646 55.7795 106.402 55.9939 107.009 56.4524C107.61 56.9094 108.136 57.4573 108.569 58.0763C110.121 60.1247 111.38 62.5264 111.454 65.0961C111.775 65.3326 112.238 65.0249 112.397 64.6603C112.556 64.2956 112.562 63.8682 112.764 63.5207C112.997 63.119 113.443 62.9053 113.792 62.6033C114.679 61.8369 114.9 60.5464 114.866 59.3754C114.832 58.2045 114.605 57.0165 114.827 55.8655C114.96 55.159 115.261 54.498 115.426 53.8C115.591 53.102 115.611 52.3185 115.221 51.7174C114.653 50.8342 113.457 50.6604 112.414 50.5778C111.229 50.4753 110.169 50.6063 109.413 49.6063C109.059 49.0845 108.659 48.5945 108.22 48.1419C108.069 47.9938 106.549 47.0536 106.549 46.991Z" fill="#512E4E"/>
<path opacity="0.1" d="M75.6638 107.07L72.6945 101.565L71.7539 110.058C71.7539 110.058 72.2767 113.83 72.1716 114.409C72.0665 114.987 74.3141 120.172 74.3141 120.172C74.3141 120.172 81.739 133.431 84.7709 134.115L95.0146 126.776L92.2981 123.317C92.2981 123.317 91.3576 122.95 91.1217 123.317C91.1217 123.317 86.078 114.617 85.5552 113.987C85.0324 113.357 85.1347 112.101 85.1347 112.101C85.1347 112.101 84.3504 111.263 84.6118 110.477C84.8732 109.691 83.0973 106.964 83.0973 106.964L84.7169 105.446L75.6638 107.07Z" fill="black"/>
<path d="M72.8518 100.939L72.0675 101.566L71.127 110.059C71.127 110.059 71.6498 113.831 71.5447 114.409C71.4395 114.988 73.69 120.173 73.69 120.173C73.69 120.173 81.1121 133.432 84.144 134.116L94.3905 126.777L91.6712 123.318C91.6712 123.318 90.7306 122.951 90.4948 123.318C90.4948 123.318 85.4511 114.617 84.9282 113.988C84.4054 113.358 84.5105 112.102 84.5105 112.102C84.5105 112.102 83.7263 111.264 83.9877 110.478C84.2491 109.691 82.4703 106.965 82.4703 106.965L84.09 105.447L72.8518 100.939Z" fill="white"/>
<path opacity="0.1" d="M121.518 134.209C122.086 134.901 121.728 138.009 121.728 138.009L120.16 140.613C120.16 140.613 120.254 142.294 120.259 144.559L117.622 145.385C117.384 145.46 117.131 145.476 116.885 145.433C116.639 145.39 116.407 145.288 116.209 145.137C116.01 144.986 115.85 144.789 115.742 144.563C115.635 144.337 115.583 144.089 115.591 143.838L116.045 129.135L122.197 131.494C121.674 131.858 122.248 132.753 122.248 132.753C122.248 132.753 120.944 133.516 121.518 134.209Z" fill="black"/>
<path d="M121.833 133.892C122.402 134.585 122.044 137.696 122.044 137.696L120.475 140.3C120.475 140.3 120.569 141.978 120.577 144.246L117.892 145.086C117.659 145.159 117.411 145.175 117.171 145.132C116.93 145.09 116.703 144.99 116.508 144.842C116.314 144.693 116.157 144.501 116.052 144.28C115.947 144.058 115.896 143.815 115.903 143.57L116.361 128.821L122.515 131.18C121.99 131.545 122.564 132.437 122.564 132.437C122.564 132.437 121.265 133.203 121.833 133.892Z" fill="white"/>
<path d="M123.871 126.884C123.871 126.884 123.453 129.559 122.407 129.716C121.362 129.872 120.893 134.043 119.85 133.895C118.807 133.747 119.498 130.018 119.535 129.294C119.572 128.57 118.398 125.573 119.276 124.892C120.154 124.212 122.933 124.892 122.933 124.892L123.871 126.884Z" fill="#CF6F80"/>
<path opacity="0.1" d="M126.096 106.283L128.068 102.295C128.068 102.295 128.853 105.335 128.853 106.959C128.853 108.583 129.949 108.742 129.949 108.742C129.949 108.742 131.151 110.167 130.518 111.204C129.884 112.241 129.628 114.822 129.628 114.822C129.628 114.822 129.836 119.748 128.895 120.429C127.955 121.109 127.759 122.736 127.759 122.736C127.759 122.736 126.031 125.827 126.085 126.562C126.139 127.297 123.681 132.275 123.681 132.275C123.681 132.275 124.883 126.089 117.879 123.417C117.879 123.417 117.825 121.317 118.347 120.742C118.87 120.166 119.686 119.904 119.174 116.996C118.663 114.087 119.027 110.611 119.027 109.913C119.027 109.215 120.595 104.862 120.595 104.862L126.096 106.283Z" fill="black"/>
<path d="M126.948 101.726L128.67 102.295C128.67 102.295 129.457 105.335 129.457 106.959C129.457 108.583 130.554 108.743 130.554 108.743C130.554 108.743 131.756 110.167 131.123 111.204C130.489 112.241 130.236 114.822 130.236 114.822C130.236 114.822 130.443 119.748 129.503 120.429C128.562 121.11 128.352 122.737 128.352 122.737C128.352 122.737 126.627 125.828 126.681 126.563C126.735 127.298 124.274 132.275 124.274 132.275C124.274 132.275 125.479 126.09 118.472 123.418C118.472 123.418 118.421 121.318 118.944 120.742C119.467 120.167 120.282 119.905 119.771 116.996C119.259 114.087 119.623 110.612 119.623 109.914C119.623 109.216 121.191 104.862 121.191 104.862L126.948 101.726Z" fill="white"/>
<path opacity="0.1" d="M88.9141 205.105C88.9141 205.105 91.659 203.376 93.4605 204.632C95.262 205.889 88.9141 205.105 88.9141 205.105Z" fill="black"/>
<path opacity="0.1" d="M110.242 199.759C110.242 199.759 112.672 199.445 114.712 201.647C116.752 203.85 110.242 199.759 110.242 199.759Z" fill="black"/>
<g opacity="0.1">
<path opacity="0.1" d="M113.799 61.9795C113.449 62.2815 113 62.4981 112.767 62.8998C112.568 63.2445 112.562 63.669 112.403 64.0394C112.244 64.4097 111.781 64.7117 111.46 64.4781C111.386 61.914 110.124 59.5066 108.576 57.4554C108.143 56.8363 107.617 56.2885 107.016 55.8315C106.408 55.373 105.651 55.1587 104.893 55.2303C104.041 55.3472 103.291 55.9283 102.43 55.9996C101.293 56.0964 100.273 55.3073 99.1448 55.2674C98.6863 55.272 98.2342 55.3747 97.8186 55.5688C97.403 55.7629 97.0336 56.0438 96.7352 56.3927C96.142 57.0942 95.7016 57.9123 95.4423 58.7944C94.9957 60.133 94.7524 61.5314 94.7205 62.9425C94.7035 63.7374 94.6296 64.7288 93.8965 65.0251C93.9135 65.2356 93.9135 65.4471 93.8965 65.6576C94.6353 65.3727 94.7092 64.3698 94.7262 63.5721C94.7579 62.1609 95.0012 60.7626 95.448 59.424C95.7073 58.541 96.1477 57.722 96.7409 57.0195C97.0399 56.6715 97.4095 56.3915 97.825 56.1979C98.2405 56.0044 98.6923 55.9018 99.1505 55.897C100.287 55.9369 101.31 56.7232 102.435 56.6292C103.288 56.558 104.044 55.9739 104.899 55.86C105.656 55.7883 106.413 56.0027 107.021 56.4611C107.622 56.9181 108.148 57.466 108.581 58.085C110.13 60.1334 111.392 62.5351 111.466 65.1049C111.787 65.3413 112.25 65.0336 112.409 64.669C112.568 64.3043 112.574 63.877 112.773 63.5294C113.006 63.1277 113.455 62.914 113.804 62.612C114.691 61.8456 114.912 60.5551 114.878 59.3841C114.878 59.3471 114.878 59.3101 114.878 59.2759C114.824 60.2901 114.554 61.3243 113.799 61.9795Z" fill="black"/>
<path opacity="0.1" d="M92.822 61.7776C92.1684 61.0568 91.2762 60.5753 90.6766 59.8118C90.1718 59.1359 89.8834 58.3223 89.8497 57.4785C89.7603 58.5329 90.054 59.5842 90.6766 60.4386C91.2762 61.205 92.1684 61.6864 92.822 62.4072C93.4495 63.1123 93.8262 64.006 93.8932 64.9485C93.9367 64.3749 93.8643 63.7984 93.6802 63.2535C93.4961 62.7086 93.2042 62.2066 92.822 61.7776Z" fill="black"/>
<path opacity="0.1" d="M115.432 53.1764C115.264 53.8744 114.966 54.5382 114.83 55.2419C114.749 55.7121 114.719 56.1898 114.742 56.6664C114.751 56.3949 114.78 56.1244 114.83 55.8573C114.966 55.1507 115.264 54.4898 115.432 53.7918C115.53 53.4068 115.561 53.0079 115.526 52.6123C115.508 52.8024 115.477 52.9909 115.432 53.1764Z" fill="black"/>
</g>
<path opacity="0.1" d="M37.7152 216.69C53.0067 216.69 65.403 214.694 65.403 212.231C65.403 209.769 53.0067 207.772 37.7152 207.772C22.4236 207.772 10.0273 209.769 10.0273 212.231C10.0273 214.694 22.4236 216.69 37.7152 216.69Z" fill="#0155E1"/>
<path d="M38.6078 126.818H36.8262V167.037H38.6078V126.818Z" fill="#535461"/>
<path d="M49.8041 166.916L49.6933 168.728L49.5342 171.292L49.4688 172.357L49.3125 174.921L49.2443 175.987L49.0852 178.551L47.2894 207.63C47.2113 208.882 46.6607 210.056 45.7495 210.914C44.8384 211.773 43.6352 212.251 42.3849 212.251H33.0476C31.7976 212.251 30.5947 211.773 29.6841 210.914C28.7734 210.056 28.2233 208.881 28.146 207.63L26.3587 178.531L26.1995 175.967L26.1342 174.901L25.9751 172.337L25.9097 171.272L25.7506 168.708L25.6369 166.896C25.6172 166.547 25.6687 166.198 25.7884 165.87C25.908 165.542 26.0933 165.242 26.3327 164.988C26.5722 164.734 26.8608 164.532 27.181 164.395C27.5011 164.257 27.8459 164.186 28.1943 164.187H47.2922C47.6393 164.19 47.982 164.264 48.2994 164.405C48.6167 164.546 48.9019 164.75 49.1372 165.006C49.3726 165.262 49.5532 165.563 49.6679 165.892C49.7826 166.22 49.829 166.569 49.8041 166.916Z" fill="#3F3D56"/>
<path d="M49.6923 168.727L49.5332 171.282H25.8974L25.7383 168.727H49.6923Z" fill="#9D9CB5"/>
<path d="M49.468 172.348L49.3117 174.906H26.122L25.9629 172.348H49.468Z" fill="#9D9CB5"/>
<path d="M49.2436 175.975L49.0874 178.53H26.3466L26.1875 175.975H49.2436Z" fill="#9D9CB5"/>
<path d="M23.0188 141.893C33.3932 149.42 37.7237 161.192 37.7237 161.192C37.7237 161.192 25.221 160.761 14.8437 153.235C4.46649 145.708 0.144531 133.938 0.144531 133.938C0.144531 133.938 12.6416 134.366 23.0188 141.893Z" fill="#0155E1"/>
<path d="M0.136719 133.938C0.136719 133.938 13.1168 141.161 17.2796 147.141C21.4425 153.121 37.7244 161.192 37.7244 161.192" stroke="#535461" stroke-width="2" stroke-miterlimit="10"/>
<path d="M29.7172 126.731C35.3633 130.825 37.7246 137.232 37.7246 137.232C37.7246 137.232 30.9192 136.998 25.2702 132.905C19.6212 128.811 17.2656 122.4 17.2656 122.4C17.2656 122.4 24.0682 122.634 29.7172 126.731Z" fill="#0155E1"/>
<path d="M17.2656 122.4C17.2656 122.4 24.3297 126.332 26.5944 129.585C28.8591 132.839 37.7246 137.232 37.7246 137.232" stroke="#535461" stroke-width="2" stroke-miterlimit="10"/>
<path d="M45.9222 136.907C39.435 144.056 38.0625 153.397 38.0625 153.397C38.0625 153.397 47.2094 151.147 53.6909 143.996C60.1724 136.845 61.5506 127.506 61.5506 127.506C61.5506 127.506 52.4094 129.759 45.9222 136.907Z" fill="#0155E1"/>
<path d="M61.5562 127.509C61.5562 127.509 53.1055 134.836 50.9573 139.885C48.8092 144.933 38.0625 153.397 38.0625 153.397" stroke="#535461" stroke-width="2" stroke-miterlimit="10"/>
<path d="M284.058 134.391C284.058 134.391 279.367 110.99 281.163 108.078C281.163 108.078 281.228 105.371 281.12 101.921C281.12 101.79 281.12 101.659 281.12 101.525C281.436 101.736 281.766 101.927 282.106 102.095C283.761 102.947 285.661 103.193 287.477 102.79L286.056 101.203C285.715 100.824 285.36 100.414 285.286 99.9127C285.212 99.4113 285.417 98.964 285.593 98.5167C286.943 95.098 287.014 90.7989 284.414 88.1892C282.217 85.9955 281.683 83.1637 279.299 81.1608C277.557 79.6936 276.599 77.5426 275.696 75.4629C274.931 73.7051 274.161 71.933 273.724 70.0698C273.383 68.614 273.246 67.1069 272.778 65.6852C272.309 64.2636 271.431 62.8819 270.058 62.2465C269.569 62.0215 269.027 61.8933 268.581 61.5941C267.995 61.1981 267.643 60.5543 267.22 59.9902C265.069 57.1412 257.865 58.8192 254.455 59.9759C253.528 60.2672 252.67 60.7441 251.932 61.3776L251.963 61.3263C251.989 61.2836 252.02 61.2409 252.049 61.1981C251.675 61.5007 251.353 61.8614 251.094 62.2665C250.597 63.0556 250.389 63.9759 249.974 64.8306C249.474 65.8419 246.692 68.6653 247.889 69.802C247.972 69.8783 248.069 69.94 248.173 69.9843C248.622 70.1717 249.116 70.2213 249.594 70.1268L249.542 70.2493C249.134 71.2522 248.924 72.3254 248.926 73.4088C248.926 78.0896 252.776 81.8845 257.53 81.8845C258.424 81.8853 259.312 81.7479 260.164 81.4771C260.184 81.5853 260.201 81.6936 260.221 81.8019C260.221 81.8446 260.235 81.8873 260.241 81.93L260.09 82.1409C260.083 82.1279 260.074 82.1155 260.065 82.1038L255.603 88.3545C254.921 88.8359 250.994 91.6849 250.773 93.8216C250.54 96.1606 250.307 98.8985 250.307 98.8985L250.276 99.4854C250.081 99.6487 249.853 99.7677 249.607 99.8341C249.362 99.9005 249.105 99.9128 248.855 99.87C247.462 99.6421 247.462 104.998 247.462 104.998C247.462 104.998 246.536 105.853 245.9 105.112C245.263 104.371 243.581 106.881 243.581 106.881L233.039 107.337L232.797 107.351L232.229 105.588C232.168 105.402 232.036 105.248 231.862 105.158C231.688 105.069 231.486 105.053 231.3 105.112C231.256 105.127 231.213 105.145 231.172 105.166L231.132 105.189L231.058 105.24L231.021 105.274C231.001 105.293 230.982 105.313 230.965 105.334L230.93 105.374L230.913 105.391C230.848 105.482 230.804 105.587 230.787 105.698C230.769 105.809 230.777 105.922 230.811 106.029L231.3 107.542C229.265 107.953 227.185 109.109 228.882 112.294L220.283 110.702L223.065 113.044L237.426 116.015C237.236 116.357 237.361 116.853 237.955 117.551C240.512 120.562 245.172 121.38 247.048 121.591C247.543 122.701 248.161 123.753 248.892 124.724L248.73 127.724C248.73 127.724 243.982 150.59 243.112 151.75C243.551 151.251 243.953 150.721 244.314 150.163C242.936 154.861 241.009 161.291 240.504 162.254C239.691 163.792 238.938 170.017 239.864 170.416C240.148 170.539 240.961 170.479 242.12 170.39V170.906L242.069 190.447C242.069 190.447 242.302 202.433 241.663 203.575C241.024 204.718 240.853 207.114 240.853 207.114C240.853 207.114 238.296 211.84 236.27 213.74C236.256 213.755 236.241 213.768 236.224 213.78L236.162 213.336C236.162 213.336 233.726 216.418 228.339 216.245C228.339 216.245 225.097 218.359 229.905 218.472C234.712 218.586 240.853 218.302 240.853 218.302C240.853 218.302 245.141 211.749 248.733 212.604V217.569H249.832V212.524C250.342 212.187 250.779 211.75 251.115 211.24C251.452 210.729 251.681 210.155 251.79 209.552C251.884 208.931 251.815 208.297 251.59 207.711C251.365 207.125 250.991 206.608 250.506 206.211C250.288 206.013 250.113 205.772 249.992 205.503C249.871 205.235 249.807 204.944 249.804 204.649L249.764 204.683C249.764 204.584 249.738 204.481 249.727 204.376C249.412 201.812 249.017 196.521 250.412 192.607C252.324 187.239 252.904 179.764 251.512 175.313C251.062 173.891 250.693 172.444 250.406 170.98C250.372 170.795 250.341 170.618 250.312 170.453C251.264 170.582 252.207 170.773 253.134 171.023C256.359 171.915 263.415 172.08 269.439 172.031C269.453 172.197 269.47 172.371 269.49 172.544C269.597 173.752 269.822 174.947 270.161 176.111C270.916 178.39 271.263 188.439 271.263 188.439C271.263 188.439 272.238 196.701 271.706 200.062C271.422 201.931 271.138 203.809 270.976 205.695V205.732C270.976 205.732 269.379 210.29 268.211 212.766C268.183 212.829 268.152 212.891 268.123 212.951C267.812 212.98 267.505 213.048 267.211 213.153C267.211 213.153 265.645 216.287 264.085 216.806C262.525 217.324 263.043 219.031 266.575 218.404C270.107 217.777 275.44 217.265 275.44 217.265L275.67 214.068L276.756 212.706L276.472 215.894L277.628 215.666L277.475 211.789L279.251 209.561C279.251 209.561 281.396 207.646 278.208 203.88V203.963C278.174 203.909 278.142 203.852 278.105 203.797V203.78C277.577 202.96 277.156 201.43 277.926 198.715C279.319 193.809 280.129 189.356 280.129 189.356C280.129 189.356 283.237 177.427 279.501 171.784H279.665C279.282 170.989 279.012 170.146 278.861 169.277C278.842 169.174 278.825 169.069 278.81 168.96C281.575 168.801 284.289 168.299 286.502 167.217C286.494 167.205 285.161 138.898 284.058 134.391ZM248.957 114.648V114.705L248.389 114.733L248.957 114.648ZM247.008 114.918C246.914 114.939 246.827 114.981 246.752 115.041C246.508 115.387 246.354 115.79 246.306 116.212L245.419 116.012C245.419 116.012 244.797 115.878 243.902 115.727L243.479 115.3C244.644 115.203 245.854 115.061 247.008 114.918Z" fill="url(#paint1_linear)"/>
<path d="M276.342 211.829L276.004 215.866L277.138 215.638L276.967 211.259L276.342 211.829Z" fill="#1D2366"/>
<path d="M250.475 192.661C249.109 196.564 249.495 201.832 249.802 204.39C249.916 205.336 250.021 205.912 250.021 205.912C250.021 205.912 247.978 210.578 247.807 210.755C247.637 210.931 241.795 214.507 241.795 214.507L237.711 216.897C237.711 216.897 233.568 215.077 235.555 214.45C235.96 214.287 236.326 214.037 236.626 213.718C238.615 211.823 241.113 207.114 241.113 207.114C241.113 207.114 241.283 204.723 241.908 203.587C242.533 202.45 242.306 190.504 242.306 190.504L242.354 171.032V168.493L250.126 168.55C250.175 169.412 250.287 170.269 250.461 171.114C250.74 172.573 251.102 174.015 251.544 175.433C252.913 179.875 252.345 187.313 250.475 192.661Z" fill="#FFB0B1"/>
<path opacity="0.1" d="M250.021 205.912C250.021 205.912 247.978 210.579 247.807 210.755C247.637 210.932 241.795 214.507 241.795 214.507L237.711 216.898C237.711 216.898 233.568 215.077 235.555 214.45C235.96 214.287 236.326 214.037 236.626 213.718L236.802 214.963L238.163 214.906L249.813 204.396C249.916 205.337 250.021 205.912 250.021 205.912Z" fill="black"/>
<path d="M249.878 204.661L238.162 215.242L236.801 215.299L236.517 213.305C236.517 213.305 234.136 216.376 228.845 216.205C228.845 216.205 225.668 218.311 230.376 218.424C235.085 218.538 241.098 218.254 241.098 218.254C241.098 218.254 245.297 211.701 248.812 212.556V217.504H249.892V212.51C250.394 212.171 250.823 211.734 251.152 211.225C251.481 210.716 251.704 210.145 251.807 209.547C251.901 208.931 251.835 208.302 251.615 207.719C251.396 207.136 251.03 206.62 250.554 206.22C250.342 206.02 250.172 205.778 250.056 205.51C249.939 205.242 249.879 204.953 249.878 204.661Z" fill="#1D2366"/>
<path d="M277.421 198.747C276.665 201.453 277.077 202.977 277.594 203.795V203.812C278.258 204.822 278.719 205.951 278.953 207.137L278.998 207.393L273.667 215.185L270.775 216.325C270.775 216.325 266.123 214.732 266.973 214.276C267.186 214.165 267.518 213.573 267.899 212.755C269.036 210.291 270.604 205.744 270.604 205.744V205.707C270.769 203.829 271.031 201.957 271.32 200.094C271.84 196.741 270.886 188.51 270.886 188.51C270.886 188.51 270.545 178.502 269.806 176.226C269.472 175.068 269.251 173.881 269.144 172.681C268.99 171.257 268.956 170.083 268.956 170.083C268.956 170.083 272.019 165.81 277.634 170.425C278.083 170.793 278.478 171.223 278.808 171.701C282.686 177.234 279.564 189.422 279.564 189.422C279.564 189.422 278.782 193.855 277.421 198.747Z" fill="#FFB0B1"/>
<path opacity="0.1" d="M279.006 207.393L273.675 215.185L270.783 216.325C270.783 216.325 266.131 214.732 266.981 214.276C267.194 214.165 267.526 213.573 267.907 212.755C269.876 212.738 270.896 214.618 270.896 214.618L273.391 214.219C273.391 214.219 276.682 207.735 277.42 207.339C278.159 206.943 277.534 204.379 277.534 204.379V203.727C277.554 203.749 277.571 203.775 277.594 203.798V203.815C278.257 204.824 278.718 205.954 278.952 207.14L279.006 207.393Z" fill="black"/>
<path d="M271.068 214.786C271.068 214.786 269.647 212.171 266.925 213.136C266.925 213.136 265.393 216.27 263.861 216.777C262.33 217.285 262.841 218.994 266.302 218.37C269.763 217.746 274.98 217.23 274.98 217.23L275.208 214.042L278.725 209.55C278.725 209.55 280.823 207.644 277.703 203.892V204.544C277.703 204.544 278.328 207.108 277.589 207.504C276.85 207.9 273.571 214.387 273.571 214.387L271.068 214.786Z" fill="#1D2366"/>
<path opacity="0.1" d="M250.134 168.545C250.183 169.407 250.295 170.264 250.469 171.109C247.269 170.639 244.3 170.873 242.354 171.027V168.488L250.134 168.545Z" fill="black"/>
<path opacity="0.1" d="M279.124 172.411C279.124 172.411 274.578 172.633 269.156 172.678C269.003 171.254 268.969 170.08 268.969 170.08C268.969 170.08 272.032 165.807 277.647 170.422C278.096 170.79 278.491 171.22 278.82 171.698C278.908 171.941 279.01 172.179 279.124 172.411Z" fill="black"/>
<path d="M279.123 171.899C279.123 171.899 259.209 172.864 253.14 171.158C247.07 169.451 241.055 170.93 240.148 170.534C239.242 170.138 239.978 163.936 240.773 162.4C241.569 160.864 245.934 145.335 245.934 145.335L250.133 123.381L254.558 122.158L254.87 122.07L262.579 119.939L268.228 118.375C268.228 118.375 279.461 162.343 278.497 165.585C278.148 166.827 278.091 168.133 278.333 169.4C278.48 170.265 278.746 171.106 279.123 171.899Z" fill="#1D2366"/>
<path d="M235.494 108.366C235.494 108.366 231.515 112.64 234.528 115.021C237.54 117.403 239.52 115.249 239.52 115.249L235.494 108.366Z" fill="#C7DAF5"/>
<path opacity="0.1" d="M235.494 108.366C235.494 108.366 231.515 112.64 234.528 115.021C237.54 117.403 239.52 115.249 239.52 115.249L235.494 108.366Z" fill="black"/>
<path d="M267.635 80.2701C267.635 80.2701 267.169 80.7145 266.468 81.3698C265.467 82.3071 263.987 83.6774 262.674 84.8256C260.856 86.4124 259.355 87.5777 259.892 86.5834C260.429 85.5891 260.327 83.8569 260.06 82.2359C260.04 82.1276 260.023 82.0193 260.003 81.9139C259.782 80.7234 259.489 79.5474 259.125 78.3926C259.125 78.3926 262.063 74.5864 263.688 73.085C264.294 72.5152 264.717 72.2816 264.743 72.6776C264.771 73.2103 265.169 74.387 265.663 75.6348C265.678 75.6747 265.692 75.7117 265.709 75.7516C266.038 76.6063 266.411 77.4838 266.737 78.2416C267.238 79.404 267.635 80.2701 267.635 80.2701Z" fill="#FFB0B1"/>
<path opacity="0.1" d="M265.709 75.7512C265.433 77.2402 264.763 78.6275 263.769 79.7681C262.775 80.9088 261.494 81.7609 260.06 82.2354C259.834 80.9349 259.522 79.651 259.125 78.3922C259.125 78.3922 264.657 71.227 264.743 72.6772C264.763 73.227 265.195 74.4464 265.709 75.7512Z" fill="black"/>
<path opacity="0.1" d="M259.508 84.1501L260.224 83.1387C260.224 83.1387 260.698 86.0389 262.443 84.7597C264.188 83.4805 264.273 94.3864 264.273 94.3864L262.401 122.457L248.869 121.645L249.253 108.081L250.784 101.244L254.572 91.3038L256.825 88.0189L259.508 84.1501Z" fill="black"/>
<path d="M264.272 94.5598L262.567 119.941L262.388 122.631L254.844 122.178L254.56 122.161L248.877 121.819L249.261 108.252L250.792 101.414L254.58 91.4744L256.833 88.1895L259.516 84.3064L260.232 83.2979C260.232 83.2979 260.706 86.1981 262.451 84.9189L262.488 84.8933C264.193 83.8107 264.272 94.5598 264.272 94.5598Z" fill="#1D2366"/>
<path d="M250.984 99.0391C250.984 99.0391 250.305 100.464 248.941 100.233C247.577 100.002 247.58 105.361 247.58 105.361C247.58 105.361 246.674 106.216 246.049 105.475C245.423 104.734 243.775 107.238 243.775 107.238L233.449 107.694C233.449 107.694 238.044 109.8 237.143 116.17C237.143 116.17 252.743 115.201 253.255 113.723C253.766 112.244 250.984 99.0391 250.984 99.0391Z" fill="white"/>
<path opacity="0.03" d="M250.984 99.0391C250.984 99.0391 250.305 100.464 248.941 100.233C247.577 100.002 247.58 105.361 247.58 105.361C247.58 105.361 246.674 106.216 246.049 105.475C245.423 104.734 243.775 107.238 243.775 107.238L233.449 107.694C233.449 107.694 238.044 109.8 237.143 116.17C237.143 116.17 252.743 115.201 253.255 113.723C253.766 112.244 250.984 99.0391 250.984 99.0391Z" fill="black"/>
<path d="M220.975 111.041L223.697 113.371L246.105 118.092L243.326 115.249L220.975 111.041Z" fill="white"/>
<path d="M259.55 85.0476C259.178 85.6174 258.113 88.5347 257.223 91.0817C256.482 93.2042 255.862 95.0702 255.862 95.0702C255.862 95.0702 254.416 104.512 253.677 106.218C252.938 107.925 253.339 114.58 253.339 114.58L250.585 131.016C250.585 131.016 249.338 139.491 247.411 144.554C245.51 149.537 243.393 151.873 243.328 151.947C244.181 150.79 248.826 128.016 248.826 128.016L250.361 99.2924C250.361 99.2924 250.585 96.5631 250.813 94.2298C251.04 91.8965 255.643 88.7114 255.643 88.7114L260.082 82.3838C260.528 82.9821 260.229 84.0248 259.55 85.0476Z" fill="white"/>
<path d="M247.976 121.962C247.976 121.962 241.441 121.677 238.275 117.865C235.11 114.053 245.592 116.344 245.592 116.344L248.317 116.97L247.976 121.962Z" fill="#FFB0B1"/>
<path opacity="0.1" d="M278.498 165.588C278.149 166.829 278.092 168.136 278.334 169.403C271.204 169.91 263.578 167.978 263.578 167.978C262.157 169.289 258.415 171.22 258.415 171.22L256.374 145.865C255.07 142.446 254.559 124.534 254.559 124.534C254.559 124.534 254.675 123.597 254.843 122.193C254.843 122.158 254.843 122.121 254.857 122.087C255.366 118.164 256.374 110.799 256.869 109.805C257.551 108.438 254.772 104.8 254.772 104.8L256.036 93.9877L256.19 92.6829C258.855 91.4892 260.898 87.6773 260.898 87.6773L262.467 84.9223C264.171 83.8255 264.26 94.5746 264.26 94.5746L262.555 119.956L268.204 118.392C268.204 118.392 279.462 162.346 278.498 165.588Z" fill="black"/>
<path d="M285.814 167.339C278.043 171.208 263.917 167.624 263.917 167.624C262.497 168.935 258.754 170.866 258.754 170.866L256.711 145.511C255.41 142.092 254.898 124.18 254.898 124.18C254.898 124.18 256.541 110.816 257.223 109.451C257.422 109.052 257.325 108.46 257.089 107.822C255.93 104.784 255.503 101.515 255.845 98.2804L256.39 93.6337L256.541 92.3317C259.209 91.1352 261.252 87.3233 261.252 87.3233L262.673 84.8276L265.287 80.2293L266.526 78.0527L266.736 78.2436L268.342 79.7023C268.342 79.7023 269.024 80.2721 270.047 81.1268C272.272 83.0071 276.116 86.3176 278.1 88.3432C279.844 90.1266 280.395 97.0639 280.555 102.286C280.66 105.725 280.597 108.42 280.597 108.42C278.838 111.323 283.439 134.63 283.439 134.63C284.51 139.135 285.814 167.339 285.814 167.339Z" fill="white"/>
<path opacity="0.03" d="M270.898 87.2671C270.898 87.2671 265.564 97.4464 266.184 101.315C266.803 105.184 268.565 109.563 267.715 110.586C267.423 110.973 267.046 111.288 266.613 111.505C266.18 111.722 265.702 111.835 265.218 111.837C264.365 111.894 262.092 113.486 262.092 113.657C262.092 113.828 259.992 113.828 258.114 114.626C256.236 115.423 253.462 115.876 253.462 115.876C253.462 115.876 248.063 115.705 247.56 116.218C247.057 116.731 246.54 119.799 247.617 122.247C248.694 124.694 249.89 126.52 250.794 126.853C251.698 127.187 257.432 125.261 262.083 124.805C266.735 124.349 271.784 120.654 271.784 120.654C271.784 120.654 277.345 118.66 278.32 115.307C279.295 111.953 277.129 93.5234 277.129 93.5234C277.129 93.5234 275.493 84.9338 270.898 87.2671Z" fill="black"/>
<path opacity="0.03" d="M270.216 86.4118C270.216 86.4118 264.882 96.594 265.507 100.46C266.133 104.326 267.889 108.708 267.036 109.733C266.745 110.121 266.369 110.436 265.936 110.653C265.503 110.87 265.025 110.984 264.541 110.984C263.689 111.041 261.416 112.634 261.416 112.805C261.416 112.976 259.316 112.976 257.437 113.77C255.559 114.565 252.786 115.021 252.786 115.021C252.786 115.021 247.387 114.85 246.887 115.363C246.387 115.876 245.864 118.947 246.944 121.391C248.023 123.836 249.217 125.665 250.121 125.998C251.024 126.332 256.758 124.406 261.41 123.953C266.061 123.5 271.111 119.799 271.111 119.799C271.111 119.799 276.669 117.805 277.632 114.454C278.595 111.104 276.442 92.6681 276.442 92.6681C276.442 92.6681 274.811 84.0813 270.216 86.4118Z" fill="black"/>
<path d="M270.728 86.7543C270.728 86.7543 265.395 96.9365 266.02 100.803C266.645 104.669 268.401 109.05 267.551 110.073C267.26 110.462 266.883 110.778 266.45 110.995C266.016 111.213 265.538 111.326 265.054 111.327C264.201 111.384 261.928 112.976 261.928 113.144C261.928 113.312 259.831 113.315 257.95 114.113C256.069 114.911 253.298 115.364 253.298 115.364C253.298 115.364 247.899 115.193 247.396 115.706C246.893 116.218 246.376 119.29 247.453 121.734C248.53 124.178 249.726 126.007 250.63 126.341C251.534 126.674 257.268 124.748 261.919 124.292C266.571 123.836 271.62 120.141 271.62 120.141C271.62 120.141 277.181 118.147 278.156 114.794C279.131 111.441 276.98 93.0107 276.98 93.0107C276.98 93.0107 275.32 84.4353 270.728 86.7543Z" fill="white"/>
<path opacity="0.1" d="M270.612 114.064C270.612 114.064 266.35 113.209 267.833 114.634C269.316 116.058 269.308 117.306 271.123 117.249C272.939 117.192 270.612 114.064 270.612 114.064Z" fill="black"/>
<path opacity="0.1" d="M277.816 144.713C277.816 144.713 275.889 146.021 279.575 149.035C283.26 152.049 277.816 144.713 277.816 144.713Z" fill="black"/>
<path opacity="0.1" d="M274.139 155.462C274.139 155.633 273.457 161.73 276.009 163.254C278.561 164.778 274.139 155.462 274.139 155.462Z" fill="black"/>
<path d="M233.624 107.68C231.567 107.751 227.123 108.381 229.427 112.691C231.465 116.506 234.889 113.956 236.815 112.021C236.345 110.218 235.203 108.664 233.624 107.68Z" fill="#FFB0B1"/>
<path d="M236.842 111.988L236.928 111.898L236.842 111.988Z" fill="#FFB0B1"/>
<path opacity="0.1" d="M270.047 81.3004C267.865 82.7961 266.035 84.0582 265.677 84.3203C264.699 85.0468 262.835 89.3117 261.633 91.4883C260.676 93.2405 257.564 93.6906 256.391 93.8017L256.541 92.4997C259.209 91.3032 261.253 87.4912 261.253 87.4912L266.526 78.2207L268.342 79.876C268.342 79.876 269.024 80.4457 270.047 81.3004Z" fill="black"/>
<path d="M270.047 81.1305C267.865 82.6262 266.035 83.8883 265.677 84.1533C264.699 84.8769 262.835 89.1418 261.633 91.3184C260.676 93.0705 257.564 93.5207 256.391 93.6318L256.541 92.3298C259.209 91.1332 261.253 87.3213 261.253 87.3213L266.526 78.0508L268.342 79.7003C268.342 79.7003 269.024 80.2644 270.047 81.1305Z" fill="#DCE7FF"/>
<path d="M265.848 73.8705C265.849 75.5807 265.332 77.2509 264.365 78.6596C263.223 80.3252 261.523 81.5251 259.573 82.0415C257.624 82.558 255.555 82.3568 253.741 81.4744C251.927 80.5921 250.489 79.087 249.687 77.2324C248.886 75.3778 248.773 73.2964 249.371 71.366C249.969 69.4356 251.237 67.784 252.946 66.7109C254.655 65.6378 256.69 65.2144 258.683 65.5174C260.677 65.8203 262.496 66.8297 263.81 68.3623C265.125 69.8948 265.848 71.8491 265.848 73.8705Z" fill="#FFB0B1"/>
<path opacity="0.1" d="M280.554 102.29C279.4 101.578 278.461 100.566 277.835 99.3612C277.36 98.421 277.045 97.3356 276.235 96.6689C275.505 96.0706 274.53 95.9253 273.621 95.6575C270.632 94.7715 268.125 92.0365 268.032 88.914C267.986 87.4439 268.444 85.9767 268.236 84.5209C268.118 83.697 267.792 82.9171 267.287 82.256C267.037 81.9398 266.762 81.6435 266.466 81.3699C266.068 80.9939 265.65 80.6292 265.287 80.2304C265.058 79.9834 264.857 79.711 264.69 79.4184C264.555 79.179 264.445 78.9259 264.363 78.6634C263.795 76.9199 264.312 74.8515 263.687 73.088L263.653 72.9911C263.417 72.3644 262.937 71.7376 262.269 71.6892C261.601 71.6407 261.03 72.1963 260.394 72.4441C259.061 72.9626 257.623 72.0795 256.512 71.1792C255.401 70.2789 254.148 69.2504 252.736 69.4499C251.801 69.5838 251.062 70.2219 250.201 70.5524C250.007 70.6279 249.806 70.686 249.602 70.7262C250.33 68.9043 251.669 67.3937 253.388 66.4539C255.107 65.5142 257.098 65.2039 259.02 65.5764C260.942 65.9489 262.675 66.9809 263.921 68.4952C265.167 70.0094 265.848 71.9114 265.847 73.8743C265.847 74.4671 265.786 75.0582 265.662 75.6378C265.676 75.6777 265.69 75.7147 265.707 75.7546C266.037 76.6093 266.409 77.4868 266.736 78.2446L268.341 79.7033C268.341 79.7033 269.023 80.2731 270.046 81.1278C272.271 83.0081 276.116 86.3186 278.099 88.3442C279.844 90.1334 280.389 97.0678 280.554 102.29Z" fill="black"/>
<path d="M250.104 65.3468C250.51 64.5178 250.712 63.589 251.198 62.8027C251.911 61.6631 253.156 60.9338 254.434 60.4922C257.773 59.3384 264.829 57.6632 266.937 60.4922C267.352 61.062 267.696 61.6945 268.27 62.0876C268.707 62.3868 269.236 62.515 269.716 62.74C271.06 63.3725 271.918 64.7514 272.376 66.1588C272.833 67.5662 272.969 69.0761 273.305 70.5263C273.734 72.3866 274.487 74.1501 275.237 75.9023C276.121 77.9706 277.058 80.1159 278.763 81.5774C281.091 83.5717 281.605 86.395 283.764 88.583C286.322 91.1813 286.239 95.4689 284.921 98.8735C284.748 99.3207 284.552 99.788 284.62 100.264C284.688 100.74 285.04 101.173 285.373 101.551L286.771 103.133C283.463 103.933 279.721 102.201 278.181 99.1612C277.706 98.221 277.391 97.1384 276.578 96.4689C275.851 95.8706 274.873 95.7282 273.967 95.4604C270.978 94.5715 268.471 91.8337 268.378 88.7112C268.332 87.244 268.79 85.7768 268.582 84.3238C268.467 83.4943 268.139 82.709 267.63 82.0446C266.849 81.0218 265.67 80.3352 265.033 79.1957C263.956 77.2897 264.775 74.8139 263.999 72.7684C263.76 72.1416 263.283 71.5149 262.615 71.4664C261.947 71.418 261.376 71.9735 260.737 72.2214C259.407 72.7399 257.969 71.8596 256.858 70.9565C255.747 70.0533 254.494 69.0277 253.079 69.23C252.144 69.361 251.408 69.9992 250.547 70.3325C249.911 70.5775 248.62 70.7969 248.064 70.2585C246.887 69.173 249.612 66.3611 250.104 65.3468Z" fill="#591D4B"/>
<path opacity="0.1" d="M278.97 98.2213C278.492 97.2812 278.18 96.1986 277.367 95.5319C276.639 94.9336 275.662 94.7883 274.753 94.5205C271.766 93.6345 269.26 90.8966 269.163 87.7742C269.118 86.3069 269.575 84.8369 269.371 83.3839C269.252 82.5598 268.924 81.78 268.419 81.119C267.635 80.0962 266.455 79.4096 265.822 78.27C264.745 76.3669 265.563 73.8912 264.785 71.8427C264.549 71.2188 264.069 70.5921 263.404 70.5408C262.739 70.4895 262.162 71.0507 261.525 71.2986C260.196 71.8171 258.755 70.9339 257.647 70.0337C256.539 69.1334 255.28 68.1049 253.868 68.3043C252.933 68.4382 252.194 69.0764 251.336 69.4069C250.699 69.6519 249.406 69.8741 248.849 69.3357C247.679 68.1961 250.404 65.3898 250.892 64.3813C251.299 63.5494 251.501 62.6235 251.989 61.8372C252.015 61.7944 252.043 61.7517 252.072 61.709C251.706 62.0126 251.391 62.3722 251.137 62.7745C250.651 63.5608 250.449 64.4839 250.043 65.3186C249.551 66.3272 246.826 69.1419 248 70.273C248.568 70.8143 249.847 70.5921 250.483 70.347C251.336 70.0137 252.08 69.3755 253.015 69.2445C254.436 69.0422 255.686 70.0707 256.794 70.971C257.902 71.8712 259.352 72.7544 260.676 72.2359C261.312 71.988 261.869 71.4297 262.551 71.4809C263.233 71.5322 263.688 72.1561 263.935 72.7829C264.711 74.8285 263.892 77.3042 264.969 79.2102C265.606 80.3298 266.785 81.0307 267.566 82.0591C268.075 82.7236 268.403 83.5089 268.518 84.3383C268.726 85.7913 268.268 87.2585 268.314 88.7257C268.408 91.8596 270.914 94.586 273.903 95.4749C274.804 95.7427 275.787 95.8852 276.514 96.4835C277.33 97.153 277.651 98.2356 278.117 99.1757C279.657 102.216 283.399 103.948 286.707 103.147L286.048 102.401C283.181 102.443 280.279 100.808 278.97 98.2213Z" fill="black"/>
<path opacity="0.1" d="M259.38 85.2186C259.008 85.7884 257.943 88.7058 257.053 91.2528C256.221 90.928 255.465 88.8568 255.465 88.8568L259.903 82.5264C260.358 83.1531 260.06 84.193 259.38 85.2186Z" fill="black"/>
<path d="M259.55 85.0468C259.178 85.6166 258.113 88.534 257.223 91.081C256.391 90.759 255.635 88.685 255.635 88.685L260.073 82.3574C260.528 82.9813 260.229 84.0241 259.55 85.0468Z" fill="#DCE7FF"/>
<path d="M233.743 114.153L231.283 106.372C231.254 106.281 231.243 106.185 231.251 106.09C231.259 105.995 231.285 105.902 231.329 105.817C231.373 105.732 231.433 105.657 231.506 105.595C231.579 105.533 231.663 105.487 231.754 105.458C231.937 105.401 232.136 105.418 232.306 105.507C232.476 105.595 232.605 105.748 232.664 105.931L235.124 113.703L234.88 115.33L233.743 114.153Z" fill="#BE8B87"/>
<path opacity="0.1" d="M231.516 105.688C231.699 105.63 231.898 105.647 232.069 105.736C232.24 105.824 232.369 105.977 232.428 106.161L234.889 113.933L234.704 115.152L234.883 115.34L235.127 113.714L232.652 105.942C232.594 105.758 232.465 105.606 232.295 105.517C232.125 105.429 231.926 105.411 231.743 105.469C231.589 105.519 231.456 105.619 231.365 105.754C231.414 105.728 231.464 105.706 231.516 105.688Z" fill="white"/>
<path d="M233.744 114.153L235.125 113.714L234.923 115.047L234.881 115.341L234.477 114.919L233.744 114.153Z" fill="#EFC8C4"/>
<path d="M234.477 114.919C234.501 114.888 234.531 114.863 234.565 114.845C234.585 114.832 234.608 114.825 234.631 114.825C234.655 114.825 234.678 114.832 234.698 114.845C234.718 114.868 234.734 114.894 234.746 114.921C234.765 114.953 234.791 114.98 234.821 115C234.852 115.02 234.886 115.033 234.923 115.038L234.88 115.323L234.477 114.919Z" fill="#727A9C"/>
<path d="M231.27 109.136C231.27 109.136 236.205 109.107 235.043 111.213C233.881 113.318 232.065 113.572 232.065 113.572L231.27 109.136Z" fill="#FFB0B1"/>
<path d="M200.572 14.6494H200.359C191.88 14.6494 184.381 19.1479 180.068 25.786C175.754 19.1479 168.256 14.6494 159.777 14.6494H159.563C153.2 14.7102 147.118 17.2864 142.638 21.8182C138.159 26.35 135.644 32.4711 135.641 38.8514C135.641 46.7744 139.102 58.0164 145.85 67.267C158.708 84.8935 180.068 100.315 180.068 100.315C180.068 100.315 201.428 84.8964 214.283 67.267C221.034 58.0164 224.492 46.7744 224.492 38.8514C224.489 32.4716 221.974 26.3509 217.496 21.8192C213.017 17.2875 206.935 14.711 200.572 14.6494ZM197.523 68.6231C196.558 68.6194 195.616 68.323 194.821 67.7729C194.026 67.2228 193.416 66.4446 193.071 65.5405H188.001C187.668 65.5384 187.343 65.4319 187.072 65.2358C186.802 65.0396 186.599 64.7637 186.493 64.4465L184.935 59.7429L180.008 77.0048C179.912 77.3371 179.711 77.6292 179.436 77.8372C179.16 78.0453 178.824 78.158 178.479 78.1586H178.38C178.02 78.1411 177.677 78.0004 177.408 77.7598C177.139 77.5191 176.961 77.1933 176.902 76.8367L171.825 46.216L168.114 64.3354C168.028 64.6796 167.831 64.9853 167.552 65.2038C167.274 65.4222 166.93 65.5407 166.576 65.5405H159.436C159.221 65.5496 159.008 65.5152 158.807 65.4393C158.607 65.3634 158.424 65.2477 158.269 65.099C158.115 64.9504 157.991 64.7719 157.907 64.5743C157.823 64.3768 157.78 64.1642 157.78 63.9494C157.78 63.7346 157.823 63.522 157.907 63.3244C157.991 63.1268 158.115 62.9483 158.269 62.7997C158.424 62.651 158.607 62.5353 158.807 62.4594C159.008 62.3836 159.221 62.3491 159.436 62.3582H165.326L170.583 37.9967C170.669 37.6365 170.878 37.3176 171.172 37.0944C171.467 36.8712 171.83 36.7577 172.199 36.7731C172.569 36.7886 172.921 36.9322 173.196 37.1793C173.471 37.4263 173.653 37.7616 173.709 38.1278L178.894 69.3638L183.31 53.9196C183.402 53.5943 183.596 53.3076 183.864 53.1022C184.132 52.8968 184.459 52.7838 184.796 52.78H184.827C185.161 52.7801 185.487 52.8859 185.757 53.0824C186.028 53.2788 186.229 53.5559 186.333 53.874L189.149 62.3668H193.008C193.283 61.5311 193.782 60.7876 194.451 60.2184C195.12 59.6493 195.933 59.2766 196.8 59.1414C197.667 59.0063 198.555 59.114 199.365 59.4526C200.175 59.7912 200.876 60.3476 201.39 61.0604C201.904 61.7732 202.212 62.6146 202.28 63.4918C202.348 64.369 202.172 65.2478 201.773 66.0314C201.374 66.8149 200.767 67.4727 200.018 67.932C199.27 68.3914 198.409 68.6345 197.532 68.6345L197.523 68.6231Z" fill="#0155E1"/>
</g>
<defs>
<linearGradient id="paint0_linear" x1="101.252" y1="220.758" x2="101.252" y2="45.4495" gradientUnits="userSpaceOnUse">
<stop stop-color="#808080" stop-opacity="0.25"/>
<stop offset="0.54" stop-color="#808080" stop-opacity="0.12"/>
<stop offset="1" stop-color="#808080" stop-opacity="0.1"/>
</linearGradient>
<linearGradient id="paint1_linear" x1="63427.3" y1="132272" x2="63427.3" y2="42285.2" gradientUnits="userSpaceOnUse">
<stop stop-color="#808080" stop-opacity="0.25"/>
<stop offset="0.54" stop-color="#808080" stop-opacity="0.12"/>
<stop offset="1" stop-color="#808080" stop-opacity="0.1"/>
</linearGradient>
<clipPath id="clip0">
<rect width="314" height="223" fill="white"/>
</clipPath>
</defs>
</svg>
