<svg width="133" height="34" viewBox="0 0 133 34" fill="none" xmlns="http://www.w3.org/2000/svg">
<g filter="url(#filter0_d)">
<rect x="1" y="1" width="39.8106" height="32" fill="white"/>
</g>
<path d="M47.8203 5.04248H64.4265V7.97803H51.0633V15.2517H62.8131V18.1057H51.0633V28.9998H47.8203V5.04248Z" fill="#133D53"/>
<path d="M78.246 4.39014C82.4722 4.39014 85.6011 5.74919 87.6328 8.46729C89.219 10.5874 90.0121 13.3001 90.0121 16.6053C90.0121 20.1823 89.1049 23.1559 87.2905 25.5261C85.1611 28.3094 82.1245 29.7011 78.1808 29.7011C74.4977 29.7011 71.6024 28.4834 69.4947 26.048C67.6152 23.6995 66.6754 20.7313 66.6754 17.1435C66.6754 13.9035 67.4794 11.131 69.0873 8.82607C71.1515 5.86878 74.2044 4.39014 78.246 4.39014ZM78.5719 26.7981C81.4292 26.7981 83.4934 25.7761 84.7646 23.7321C86.0466 21.6772 86.6876 19.3179 86.6876 16.6542C86.6876 13.8382 85.9488 11.5714 84.4712 9.85352C83.0045 8.13568 80.9946 7.27676 78.4415 7.27676C75.9644 7.27676 73.9437 8.13024 72.3792 9.83721C70.8147 11.5333 70.0325 14.0394 70.0325 17.3555C70.0325 20.0083 70.7007 22.248 72.037 24.0746C73.3842 25.8903 75.5625 26.7981 78.5719 26.7981Z" fill="#133D53"/>
<path d="M93.8906 5.04248H97.1336V26.1458H109.258V28.9998H93.8906V5.04248Z" fill="#133D53"/>
<path d="M121.66 26.2273C122.757 26.2273 123.659 26.1132 124.365 25.8849C125.625 25.4608 126.658 24.6454 127.462 23.4386C128.103 22.4709 128.564 21.2315 128.847 19.7202C129.01 18.8178 129.091 17.9806 129.091 17.2087C129.091 14.2405 128.499 11.9356 127.315 10.2938C126.141 8.65212 124.246 7.83125 121.627 7.83125H115.875V26.2273H121.66ZM112.615 5.04248H122.312C125.604 5.04248 128.157 6.21126 129.971 8.54883C131.59 10.6581 132.399 13.3599 132.399 16.6542C132.399 19.1983 131.921 21.4979 130.965 23.5527C129.281 27.1841 126.386 28.9998 122.279 28.9998H112.615V5.04248Z" fill="#133D53"/>
<path d="M12.8303 5V29H9.56604V9.29596L6.84264 12.4246L4.99609 10.3033L9.56604 5.05332V5H12.8303Z" fill="#2F98D0"/>
<path d="M24.8262 29C31.4487 29 36.8173 23.6274 36.8173 17H32.8203C32.8203 21.4183 29.2412 25 24.8262 25L24.8262 29Z" fill="#6A5CFA"/>
<path d="M16.833 17C16.833 12.5817 20.412 9 24.827 9L24.8271 5C18.2045 5 12.8359 10.3726 12.8359 17C12.8359 17.0048 12.8359 17.0097 12.8359 17.0145L12.8359 17H16.833Z" fill="#FE5D00"/>
<path d="M12.8359 17C12.8359 23.6274 18.2045 29 24.8271 29V25C24.8271 25 24.8271 25 24.8271 25C20.4121 25 16.833 21.4183 16.833 17H12.8359Z" fill="#69D37D"/>
<path d="M36.8173 17.0068V17H32.8202C32.8202 12.5817 29.2412 9.00001 24.8262 9V5C31.4487 5 36.8173 10.3726 36.8173 17C36.8173 17.0023 36.8173 17.0046 36.8173 17.0068Z" fill="#FBBD03"/>
<defs>
<filter id="filter0_d" x="0" y="0" width="41.8106" height="34" filterUnits="userSpaceOnUse" color-interpolation-filters="sRGB">
<feFlood flood-opacity="0" result="BackgroundImageFix"/>
<feColorMatrix in="SourceAlpha" type="matrix" values="0 0 0 0 0 0 0 0 0 0 0 0 0 0 0 0 0 0 127 0"/>
<feOffset/>
<feGaussianBlur stdDeviation="0.5"/>
<feColorMatrix type="matrix" values="0 0 0 0 0 0 0 0 0 0 0 0 0 0 0 0 0 0 0.25 0"/>
<feBlend mode="normal" in2="BackgroundImageFix" result="effect1_dropShadow"/>
<feBlend mode="normal" in="SourceGraphic" in2="effect1_dropShadow" result="shape"/>
</filter>
</defs>
</svg>
