<svg width="20" height="32" viewBox="0 0 20 32" fill="none" xmlns="http://www.w3.org/2000/svg">
<path d="M18.921 7.07819C18.7934 6.94506 18.6302 6.87861 18.4317 6.87861H14.7923C14.551 5.65122 14.0969 4.58579 13.4301 3.6835H18.3889C18.5879 3.6835 18.7507 3.61697 18.8787 3.48415C19.0057 3.3511 19.0695 3.18082 19.0695 2.97378V0.710026C19.0695 0.502832 19.0058 0.332864 18.8787 0.199656C18.7505 0.0667593 18.5877 0 18.3888 0H0.680983C0.482242 0 0.319208 0.0667593 0.191436 0.199578C0.0640356 0.332786 0 0.502754 0 0.709949V3.66103C0 3.85331 0.06739 4.0197 0.20217 4.16021C0.33695 4.30073 0.496555 4.37098 0.680983 4.37098H3.76714C6.76085 4.37098 8.66224 5.20652 9.47092 6.87822H0.680983C0.482242 6.87822 0.318985 6.94467 0.191436 7.0778C0.0640356 7.21109 0 7.38098 0 7.58817V9.85162C0 10.0587 0.0637374 10.2289 0.191436 10.3617C0.319208 10.495 0.48254 10.5613 0.680983 10.5613H9.76933C9.45713 11.7746 8.72985 12.6989 7.5875 13.3351C6.44507 13.9713 4.93782 14.2894 3.06476 14.2894H0.680983C0.496555 14.2894 0.33695 14.3597 0.20217 14.5001C0.0673154 14.6407 0 14.8072 0 14.9993V17.8176C0 18.0102 0.0637374 18.1728 0.191436 18.3058C2.91559 21.3234 6.4488 25.5463 10.7906 30.9757C10.9185 31.1533 11.0957 31.2419 11.3228 31.2419H15.473C15.7712 31.2419 15.9771 31.1092 16.0903 30.8424C16.2321 30.5761 16.2043 30.3246 16.0051 30.0879C11.8624 24.792 8.60573 20.8276 6.23612 18.1947C8.6483 17.8989 10.6064 17.0851 12.1105 15.754C13.6144 14.4228 14.5295 12.6917 14.8561 10.5616H18.4317C18.6302 10.5616 18.7935 10.4953 18.921 10.3621C19.0488 10.2292 19.1128 10.059 19.1128 9.852V7.5888C19.1128 7.38137 19.0488 7.2114 18.921 7.07819Z" fill="#1AD294" fill-opacity="0.4"/>
</svg>
