<svg width="203" height="212" viewBox="0 0 203 212" fill="none" xmlns="http://www.w3.org/2000/svg">
<g clip-path="url(#clip0)">
<circle cx="120" cy="96" r="172" fill="url(#paint0_radial)" fill-opacity="0.9"/>
<path d="M141.598 25.8612L141.209 26.2686L167.895 51.6058L168.284 51.1984L141.598 25.8612Z" fill="#E6E6E6"/>
<path d="M168.327 48.4512L167.764 48.4852L167.934 51.2533L165.153 51.22L165.146 51.7826L168.534 51.8227L168.327 48.4512Z" fill="#E6E6E6"/>
<path d="M144.347 25.6839L144.341 26.2466L141.561 26.2133L141.731 28.9814L141.167 29.0154L140.961 25.6436L144.347 25.6839Z" fill="#E6E6E6"/>
<path d="M154.746 41.8266C156.46 41.8266 157.848 40.4416 157.848 38.7331C157.848 37.0246 156.46 35.6396 154.746 35.6396C153.033 35.6396 151.645 37.0246 151.645 38.7331C151.645 40.4416 153.033 41.8266 154.746 41.8266Z" fill="#E6E6E6"/>
<path d="M61.9655 25.861L35.2793 51.1982L35.6682 51.6056L62.3544 26.2684L61.9655 25.861Z" fill="#E6E6E6"/>
<path d="M35.0312 51.8227L38.4184 51.7826L38.412 51.22L35.6312 51.2533L35.8013 48.4852L35.2378 48.4512L35.0312 51.8227Z" fill="#E6E6E6"/>
<path d="M62.6036 25.6436L62.3974 29.0154L61.8339 28.9814L62.0037 26.2133L59.2229 26.2466L59.2168 25.6839L62.6036 25.6436Z" fill="#E6E6E6"/>
<path d="M48.8168 41.8266C50.53 41.8266 51.9188 40.4416 51.9188 38.7331C51.9188 37.0246 50.53 35.6396 48.8168 35.6396C47.1037 35.6396 45.7148 37.0246 45.7148 38.7331C45.7148 40.4416 47.1037 41.8266 48.8168 41.8266Z" fill="#E6E6E6"/>
<path d="M124.906 64.1192H78.0946C77.4217 64.1184 76.7766 63.8515 76.3008 63.377C75.825 62.9025 75.5574 62.2592 75.5566 61.5882V2.53102C75.5574 1.85998 75.825 1.21666 76.3008 0.742165C76.7766 0.267672 77.4217 0.00076417 78.0946 0H124.906C125.579 0.00076417 126.224 0.267672 126.7 0.742165C127.176 1.21666 127.443 1.85998 127.444 2.53102V61.5882C127.443 62.2592 127.176 62.9025 126.7 63.377C126.224 63.8515 125.579 64.1184 124.906 64.1192ZM78.0946 0.56245C77.5712 0.563036 77.0695 0.770626 76.6994 1.13968C76.3294 1.50873 76.1212 2.0091 76.1206 2.53102V61.5882C76.1212 62.1101 76.3294 62.6104 76.6994 62.9795C77.0695 63.3485 77.5712 63.5561 78.0946 63.5567H124.906C125.43 63.5561 125.931 63.3485 126.301 62.9795C126.672 62.6104 126.88 62.1101 126.88 61.5882V2.53102C126.88 2.0091 126.672 1.50873 126.301 1.13968C125.931 0.770626 125.43 0.563036 124.906 0.56245H78.0946Z" fill="#3F3D56"/>
<path d="M97.6064 28.3868H87.3022C86.9657 28.3864 86.6432 28.253 86.4053 28.0157C86.1674 27.7785 86.0336 27.4568 86.0332 27.1213V14.995C86.0336 14.6595 86.1674 14.3378 86.4053 14.1006C86.6432 13.8633 86.9657 13.7299 87.3022 13.7295H97.6064C97.9428 13.7299 98.2654 13.8633 98.5033 14.1006C98.7412 14.3378 98.875 14.6595 98.8754 14.995V27.1213C98.875 27.4568 98.7412 27.7785 98.5033 28.0157C98.2654 28.253 97.9428 28.3864 97.6064 28.3868Z" fill="#0155E1"/>
<path d="M117.628 34.0118H107.324C106.987 34.0114 106.665 33.878 106.427 33.6407C106.189 33.4035 106.055 33.0818 106.055 32.7463V20.62C106.055 20.2845 106.189 19.9628 106.427 19.7256C106.665 19.4883 106.987 19.3549 107.324 19.3545H117.628C117.964 19.3549 118.287 19.4883 118.525 19.7256C118.763 19.9628 118.896 20.2845 118.897 20.62V32.7463C118.896 33.0818 118.763 33.4035 118.525 33.6407C118.287 33.878 117.964 34.0114 117.628 34.0118Z" fill="#CCCCCC"/>
<path d="M101.554 51.1661H91.2495C90.913 51.1657 90.5905 51.0323 90.3526 50.795C90.1147 50.5578 89.9808 50.2361 89.9805 49.9006V37.7743C89.9808 37.4388 90.1147 37.1171 90.3526 36.8799C90.5905 36.6426 90.913 36.5092 91.2495 36.5088H101.554C101.89 36.5092 102.213 36.6426 102.451 36.8799C102.688 37.1171 102.822 37.4388 102.823 37.7743V49.9006C102.822 50.2361 102.688 50.5578 102.451 50.795C102.213 51.0323 101.89 51.1657 101.554 51.1661Z" fill="#2FD0A9"/>
<path d="M200.463 124.845H153.651C152.978 124.844 152.333 124.577 151.857 124.103C151.382 123.628 151.114 122.985 151.113 122.314V63.2566C151.114 62.5856 151.382 61.9422 151.857 61.4677C152.333 60.9933 152.978 60.7264 153.651 60.7256H200.463C201.136 60.7263 201.781 60.9933 202.257 61.4677C202.733 61.9422 203 62.5856 203.001 63.2566V122.314C203 122.985 202.733 123.628 202.257 124.103C201.781 124.577 201.136 124.844 200.463 124.845ZM153.651 61.288C153.128 61.2886 152.626 61.4962 152.256 61.8653C151.886 62.2343 151.678 62.7347 151.677 63.2566V122.314C151.678 122.836 151.886 123.336 152.256 123.705C152.626 124.074 153.128 124.282 153.651 124.282H200.463C200.986 124.282 201.488 124.074 201.858 123.705C202.228 123.336 202.436 122.836 202.437 122.314V63.2566C202.436 62.7347 202.228 62.2343 201.858 61.8653C201.488 61.4962 200.986 61.2886 200.463 61.288H153.651Z" fill="#3F3D56"/>
<path d="M185.093 73.8025H169.019C168.719 73.8025 168.433 73.684 168.221 73.473C168.009 73.2621 167.891 72.976 167.891 72.6776C167.891 72.3793 168.009 72.0932 168.221 71.8822C168.433 71.6712 168.719 71.5527 169.019 71.5527H185.093C185.392 71.5527 185.679 71.6712 185.89 71.8822C186.102 72.0932 186.221 72.3793 186.221 72.6776C186.221 72.976 186.102 73.2621 185.89 73.473C185.679 73.684 185.392 73.8025 185.093 73.8025Z" fill="#0155E1"/>
<path d="M192.988 84.489H161.122C160.974 84.4893 160.827 84.4604 160.69 84.404C160.553 84.3476 160.428 84.2647 160.323 84.1603C160.218 84.0558 160.135 83.9317 160.078 83.7951C160.021 83.6585 159.992 83.512 159.992 83.3642C159.992 83.2163 160.021 83.0698 160.078 82.9332C160.135 82.7966 160.218 82.6725 160.323 82.568C160.428 82.4636 160.553 82.3807 160.69 82.3243C160.827 82.2679 160.974 82.239 161.122 82.2393H192.988C193.136 82.239 193.283 82.2679 193.42 82.3243C193.557 82.3807 193.682 82.4636 193.787 82.568C193.892 82.6725 193.975 82.7966 194.032 82.9332C194.089 83.0698 194.118 83.2163 194.118 83.3642C194.118 83.512 194.089 83.6585 194.032 83.7951C193.975 83.9317 193.892 84.0558 193.787 84.1603C193.682 84.2647 193.557 84.3476 193.42 84.404C193.283 84.4604 193.136 84.4893 192.988 84.489Z" fill="#CCCCCC"/>
<path d="M192.988 90.3943H161.122C160.974 90.3946 160.827 90.3657 160.69 90.3092C160.553 90.2528 160.428 90.17 160.323 90.0655C160.218 89.9611 160.135 89.837 160.078 89.7004C160.021 89.5637 159.992 89.4173 159.992 89.2694C159.992 89.1215 160.021 88.9751 160.078 88.8385C160.135 88.7019 160.218 88.5778 160.323 88.4733C160.428 88.3688 160.553 88.286 160.69 88.2296C160.827 88.1732 160.974 88.1443 161.122 88.1445H192.988C193.136 88.1443 193.283 88.1732 193.42 88.2296C193.557 88.286 193.682 88.3688 193.787 88.4733C193.892 88.5778 193.975 88.7019 194.032 88.8385C194.089 88.9751 194.118 89.1215 194.118 89.2694C194.118 89.4173 194.089 89.5637 194.032 89.7004C193.975 89.837 193.892 89.9611 193.787 90.0655C193.682 90.17 193.557 90.2528 193.42 90.3092C193.283 90.3657 193.136 90.3946 192.988 90.3943Z" fill="#CCCCCC"/>
<path d="M192.988 96.3006H161.122C160.974 96.3008 160.827 96.2719 160.69 96.2155C160.553 96.1591 160.428 96.0763 160.323 95.9718C160.218 95.8673 160.135 95.7432 160.078 95.6066C160.021 95.47 159.992 95.3236 159.992 95.1757C159.992 95.0278 160.021 94.8814 160.078 94.7448C160.135 94.6081 160.218 94.4841 160.323 94.3796C160.428 94.2751 160.553 94.1923 160.69 94.1359C160.827 94.0794 160.974 94.0505 161.122 94.0508H192.988C193.136 94.0505 193.283 94.0794 193.42 94.1359C193.557 94.1923 193.682 94.2751 193.787 94.3796C193.892 94.4841 193.975 94.6081 194.032 94.7448C194.089 94.8814 194.118 95.0278 194.118 95.1757C194.118 95.3236 194.089 95.47 194.032 95.6066C193.975 95.7432 193.892 95.8673 193.787 95.9718C193.682 96.0763 193.557 96.1591 193.42 96.2155C193.283 96.2719 193.136 96.3008 192.988 96.3006Z" fill="#CCCCCC"/>
<path d="M192.988 102.206H161.122C160.974 102.206 160.827 102.177 160.69 102.121C160.553 102.064 160.428 101.982 160.323 101.877C160.218 101.773 160.135 101.649 160.078 101.512C160.021 101.375 159.992 101.229 159.992 101.081C159.992 100.933 160.021 100.787 160.078 100.65C160.135 100.513 160.218 100.389 160.323 100.285C160.428 100.18 160.553 100.098 160.69 100.041C160.827 99.9847 160.974 99.9558 161.122 99.9561H192.988C193.136 99.9558 193.283 99.9847 193.42 100.041C193.557 100.098 193.682 100.18 193.787 100.285C193.892 100.389 193.975 100.513 194.032 100.65C194.089 100.787 194.118 100.933 194.118 101.081C194.118 101.229 194.089 101.375 194.032 101.512C193.975 101.649 193.892 101.773 193.787 101.877C193.682 101.982 193.557 102.064 193.42 102.121C193.283 102.177 193.136 102.206 192.988 102.206Z" fill="#CCCCCC"/>
<path d="M192.988 108.112H161.122C160.974 108.112 160.827 108.083 160.69 108.027C160.553 107.971 160.428 107.888 160.323 107.783C160.218 107.679 160.135 107.555 160.078 107.418C160.021 107.282 159.992 107.135 159.992 106.987C159.992 106.839 160.021 106.693 160.078 106.556C160.135 106.42 160.218 106.296 160.323 106.191C160.428 106.087 160.553 106.004 160.69 105.947C160.827 105.891 160.974 105.862 161.122 105.862H192.988C193.136 105.862 193.283 105.891 193.42 105.947C193.557 106.004 193.682 106.087 193.787 106.191C193.892 106.296 193.975 106.42 194.032 106.556C194.089 106.693 194.118 106.839 194.118 106.987C194.118 107.135 194.089 107.282 194.032 107.418C193.975 107.555 193.892 107.679 193.787 107.783C193.682 107.888 193.557 107.971 193.42 108.027C193.283 108.083 193.136 108.112 192.988 108.112Z" fill="#CCCCCC"/>
<path d="M192.988 114.017H161.122C160.974 114.018 160.827 113.989 160.69 113.932C160.553 113.876 160.428 113.793 160.323 113.689C160.218 113.584 160.135 113.46 160.078 113.323C160.021 113.187 159.992 113.04 159.992 112.892C159.992 112.745 160.021 112.598 160.078 112.462C160.135 112.325 160.218 112.201 160.323 112.096C160.428 111.992 160.553 111.909 160.69 111.853C160.827 111.796 160.974 111.767 161.122 111.768H192.988C193.136 111.767 193.283 111.796 193.42 111.853C193.557 111.909 193.682 111.992 193.787 112.096C193.892 112.201 193.975 112.325 194.032 112.462C194.089 112.598 194.118 112.745 194.118 112.892C194.118 113.04 194.089 113.187 194.032 113.323C193.975 113.46 193.892 113.584 193.787 113.689C193.682 113.793 193.557 113.876 193.42 113.932C193.283 113.989 193.136 114.018 192.988 114.017Z" fill="#CCCCCC"/>
<path d="M49.3496 124.845H2.53798C1.8651 124.844 1.22 124.577 0.744201 124.103C0.268403 123.628 0.000765379 122.985 0 122.314V63.2566C0.000765379 62.5856 0.268403 61.9422 0.744201 61.4677C1.22 60.9933 1.8651 60.7263 2.53798 60.7256H49.3496C50.0225 60.7264 50.6676 60.9933 51.1434 61.4677C51.6192 61.9422 51.8869 62.5856 51.8876 63.2566V122.314C51.8869 122.985 51.6192 123.628 51.1434 124.103C50.6676 124.577 50.0225 124.844 49.3496 124.845ZM2.53798 61.288C2.01463 61.2886 1.51288 61.4962 1.14281 61.8653C0.772746 62.2343 0.56458 62.7347 0.563992 63.2566V122.314C0.56458 122.836 0.772746 123.336 1.14281 123.705C1.51288 124.074 2.01463 124.282 2.53798 124.282H49.3496C49.873 124.282 50.3747 124.074 50.7448 123.705C51.1149 123.336 51.323 122.836 51.3236 122.314V63.2566C51.323 62.7347 51.1149 62.2343 50.7448 61.8653C50.3747 61.4962 49.873 61.2886 49.3496 61.288H2.53798Z" fill="#3F3D56"/>
<path d="M41.9252 74.6687H27.8253C27.5261 74.6687 27.2392 74.5502 27.0276 74.3393C26.8161 74.1283 26.6973 73.8422 26.6973 73.5438C26.6973 73.2455 26.8161 72.9594 27.0276 72.7484C27.2392 72.5375 27.5261 72.4189 27.8253 72.4189H41.9252C42.2243 72.4189 42.5112 72.5375 42.7228 72.7484C42.9343 72.9594 43.0532 73.2455 43.0532 73.5438C43.0532 73.8422 42.9343 74.1283 42.7228 74.3393C42.5112 74.5502 42.2243 74.6687 41.9252 74.6687Z" fill="#3F3D56"/>
<path d="M41.9252 80.575H27.8253C27.5261 80.575 27.2392 80.4565 27.0276 80.2455C26.8161 80.0346 26.6973 79.7484 26.6973 79.4501C26.6973 79.1518 26.8161 78.8656 27.0276 78.6547C27.2392 78.4437 27.5261 78.3252 27.8253 78.3252H41.9252C42.2243 78.3252 42.5112 78.4437 42.7228 78.6547C42.9343 78.8656 43.0532 79.1518 43.0532 79.4501C43.0532 79.7484 42.9343 80.0346 42.7228 80.2455C42.5112 80.4565 42.2243 80.575 41.9252 80.575Z" fill="#3F3D56"/>
<path d="M20.5908 83.9366H10.2866C9.95014 83.9363 9.62758 83.8028 9.38967 83.5655C9.15177 83.3283 9.01795 83.0066 9.01758 82.6711V70.5448C9.01795 70.2093 9.15177 69.8876 9.38967 69.6504C9.62758 69.4131 9.95014 69.2797 10.2866 69.2793H20.5908C20.9272 69.2797 21.2498 69.4131 21.4877 69.6504C21.7256 69.8876 21.8594 70.2093 21.8598 70.5448V82.6711C21.8594 83.0066 21.7256 83.3283 21.4877 83.5655C21.2498 83.8028 20.9272 83.9363 20.5908 83.9366Z" fill="#0155E1"/>
<path d="M41.8278 92.6668H9.96197C9.81368 92.667 9.66679 92.6381 9.52971 92.5817C9.39263 92.5253 9.26805 92.4425 9.1631 92.338C9.05815 92.2335 8.97489 92.1094 8.91808 91.9728C8.86127 91.8362 8.83203 91.6898 8.83203 91.5419C8.83203 91.394 8.86127 91.2476 8.91808 91.111C8.97489 90.9744 9.05815 90.8503 9.1631 90.7458C9.26805 90.6413 9.39263 90.5585 9.52971 90.5021C9.66679 90.4456 9.81368 90.4167 9.96197 90.417H41.8278C41.976 90.4167 42.1229 90.4456 42.26 90.5021C42.3971 90.5585 42.5217 90.6413 42.6266 90.7458C42.7316 90.8503 42.8148 90.9744 42.8716 91.111C42.9285 91.2476 42.9577 91.394 42.9577 91.5419C42.9577 91.6898 42.9285 91.8362 42.8716 91.9728C42.8148 92.1094 42.7316 92.2335 42.6266 92.338C42.5217 92.4425 42.3971 92.5253 42.26 92.5817C42.1229 92.6381 41.976 92.667 41.8278 92.6668Z" fill="#CCCCCC"/>
<path d="M41.8278 98.573H9.96197C9.81368 98.5733 9.66679 98.5444 9.52971 98.488C9.39263 98.4315 9.26805 98.3487 9.1631 98.2442C9.05815 98.1398 8.97489 98.0157 8.91808 97.8791C8.86127 97.7425 8.83203 97.596 8.83203 97.4481C8.83203 97.3003 8.86127 97.1538 8.91808 97.0172C8.97489 96.8806 9.05815 96.7565 9.1631 96.652C9.26805 96.5475 9.39263 96.4647 9.52971 96.4083C9.66679 96.3519 9.81368 96.323 9.96197 96.3232H41.8278C41.976 96.323 42.1229 96.3519 42.26 96.4083C42.3971 96.4647 42.5217 96.5475 42.6266 96.652C42.7316 96.7565 42.8148 96.8806 42.8716 97.0172C42.9285 97.1538 42.9577 97.3003 42.9577 97.4481C42.9577 97.596 42.9285 97.7425 42.8716 97.8791C42.8148 98.0157 42.7316 98.1398 42.6266 98.2442C42.5217 98.3487 42.3971 98.4315 42.26 98.488C42.1229 98.5444 41.976 98.5733 41.8278 98.573Z" fill="#CCCCCC"/>
<path d="M41.8278 104.478H9.96197C9.81368 104.479 9.66679 104.45 9.52971 104.393C9.39263 104.337 9.26805 104.254 9.1631 104.15C9.05815 104.045 8.97489 103.921 8.91808 103.784C8.86127 103.648 8.83203 103.501 8.83203 103.353C8.83203 103.206 8.86127 103.059 8.91808 102.922C8.97489 102.786 9.05815 102.662 9.1631 102.557C9.26805 102.453 9.39263 102.37 9.52971 102.314C9.66679 102.257 9.81368 102.228 9.96197 102.229H41.8278C41.976 102.228 42.1229 102.257 42.26 102.314C42.3971 102.37 42.5217 102.453 42.6266 102.557C42.7316 102.662 42.8148 102.786 42.8716 102.922C42.9285 103.059 42.9577 103.206 42.9577 103.353C42.9577 103.501 42.9285 103.648 42.8716 103.784C42.8148 103.921 42.7316 104.045 42.6266 104.15C42.5217 104.254 42.3971 104.337 42.26 104.393C42.1229 104.45 41.976 104.479 41.8278 104.478Z" fill="#CCCCCC"/>
<path d="M41.8278 110.385H9.96197C9.81368 110.385 9.66679 110.356 9.52971 110.3C9.39263 110.243 9.26805 110.16 9.1631 110.056C9.05815 109.951 8.97489 109.827 8.91808 109.691C8.86127 109.554 8.83203 109.408 8.83203 109.26C8.83203 109.112 8.86127 108.965 8.91808 108.829C8.97489 108.692 9.05815 108.568 9.1631 108.464C9.26805 108.359 9.39263 108.276 9.52971 108.22C9.66679 108.163 9.81368 108.135 9.96197 108.135H41.8278C41.976 108.135 42.1229 108.163 42.26 108.22C42.3971 108.276 42.5217 108.359 42.6266 108.464C42.7316 108.568 42.8148 108.692 42.8716 108.829C42.9285 108.965 42.9577 109.112 42.9577 109.26C42.9577 109.408 42.9285 109.554 42.8716 109.691C42.8148 109.827 42.7316 109.951 42.6266 110.056C42.5217 110.16 42.3971 110.243 42.26 110.3C42.1229 110.356 41.976 110.385 41.8278 110.385Z" fill="#CCCCCC"/>
<path d="M41.8278 116.29H9.96197C9.81368 116.29 9.66679 116.261 9.52971 116.205C9.39263 116.148 9.26805 116.066 9.1631 115.961C9.05815 115.857 8.97489 115.732 8.91808 115.596C8.86127 115.459 8.83203 115.313 8.83203 115.165C8.83203 115.017 8.86127 114.871 8.91808 114.734C8.97489 114.597 9.05815 114.473 9.1631 114.369C9.26805 114.264 9.39263 114.182 9.52971 114.125C9.66679 114.069 9.81368 114.04 9.96197 114.04H41.8278C41.976 114.04 42.1229 114.069 42.26 114.125C42.3971 114.182 42.5217 114.264 42.6266 114.369C42.7316 114.473 42.8148 114.597 42.8716 114.734C42.9285 114.871 42.9577 115.017 42.9577 115.165C42.9577 115.313 42.9285 115.459 42.8716 115.596C42.8148 115.732 42.7316 115.857 42.6266 115.961C42.5217 116.066 42.3971 116.148 42.26 116.205C42.1229 116.261 41.976 116.29 41.8278 116.29Z" fill="#CCCCCC"/>
<path d="M67.0469 159.073V146.947C67.0472 146.612 67.1811 146.29 67.419 146.053C67.6569 145.815 67.9794 145.682 68.3159 145.682H78.6201C78.9565 145.682 79.2791 145.815 79.517 146.053C79.7549 146.29 79.8887 146.612 79.8891 146.947V159.073C79.8887 159.409 79.7549 159.731 79.517 159.968C79.2791 160.205 78.9565 160.339 78.6201 160.339H68.3159C67.9794 160.339 67.6569 160.205 67.419 159.968C67.1811 159.731 67.0472 159.409 67.0469 159.073Z" fill="#E6E6E6"/>
<path d="M70.7578 155.035V142.909C70.7582 142.574 70.892 142.252 71.1299 142.015C71.3678 141.777 71.6904 141.644 72.0268 141.644H82.331C82.6674 141.644 82.99 141.777 83.2279 142.015C83.4658 142.252 83.5996 142.574 83.6 142.909V155.035C83.5996 155.371 83.4658 155.693 83.2279 155.93C82.99 156.167 82.6674 156.3 82.331 156.301H72.0268C71.6904 156.3 71.3678 156.167 71.1299 155.93C70.892 155.693 70.7582 155.371 70.7578 155.035Z" fill="#0155E1"/>
<path d="M116.949 151.155C116.561 150.932 116.227 150.626 115.97 150.26C115.714 149.894 115.541 149.476 115.464 149.036C115.387 148.597 115.407 148.145 115.524 147.714C115.641 147.283 115.851 146.882 116.139 146.541L112.945 123.259L119.599 123.584L120.643 146.294C121.186 146.815 121.519 147.518 121.577 148.267C121.636 149.017 121.417 149.762 120.961 150.361C120.506 150.96 119.846 151.372 119.106 151.518C118.367 151.665 117.599 151.535 116.949 151.155V151.155Z" fill="#FBBEBE"/>
<path d="M120.513 123.896C120.377 124.056 120.202 124.179 120.005 124.254L114.026 126.53C113.726 126.644 113.393 126.639 113.096 126.516C112.799 126.393 112.561 126.161 112.43 125.868L107.134 113.998C106.625 112.897 106.539 111.648 106.891 110.488C107.151 109.66 107.63 108.917 108.278 108.337C108.926 107.758 109.719 107.364 110.572 107.196C111.229 107.061 111.907 107.071 112.56 107.224C113.342 107.398 114.068 107.763 114.673 108.288C115.278 108.812 115.742 109.478 116.023 110.226L120.732 122.64C120.811 122.85 120.833 123.077 120.794 123.298C120.756 123.518 120.659 123.725 120.513 123.896Z" fill="#3F3D56"/>
<path d="M89.3556 207.982H85.2186L83.7188 191.994L89.3562 192.07L89.3556 207.982Z" fill="#FBBEBE"/>
<path d="M82.2616 206.804H90.2398V211.813H77.2383C77.2383 211.155 77.3682 210.504 77.6207 209.896C77.8731 209.288 78.2431 208.736 78.7096 208.271C79.176 207.806 79.7298 207.437 80.3393 207.185C80.9487 206.933 81.6019 206.804 82.2616 206.804Z" fill="#2F2E41"/>
<path d="M108.589 207.982H104.452L102.484 192.069L108.59 192.07L108.589 207.982Z" fill="#FBBEBE"/>
<path d="M101.496 206.804H109.474V211.813H96.4727C96.4727 211.155 96.6026 210.504 96.855 209.896C97.1075 209.288 97.4775 208.736 97.944 208.271C98.4104 207.806 98.9642 207.437 99.5736 207.185C100.183 206.933 100.836 206.804 101.496 206.804Z" fill="#2F2E41"/>
<path d="M109.108 202.321L102.611 201.841C102.242 201.813 101.895 201.652 101.636 201.387C101.378 201.123 101.225 200.773 101.207 200.404L99.7578 170.545C99.7439 170.259 99.6255 169.987 99.425 169.781C99.2245 169.576 98.9556 169.45 98.6688 169.428C98.382 169.406 98.0969 169.489 97.8672 169.662C97.6375 169.834 97.4789 170.085 97.4211 170.366L91.3773 199.779C91.3025 200.141 91.0977 200.463 90.8015 200.685C90.5053 200.907 90.1381 201.013 89.7687 200.984L83.8954 200.516C83.6941 200.5 83.4981 200.444 83.3187 200.351C83.1394 200.259 82.9803 200.132 82.8509 199.977C82.7215 199.822 82.6243 199.644 82.565 199.451C82.5057 199.259 82.4855 199.056 82.5056 198.856L87.9543 144.518C87.9756 144.305 88.0417 144.1 88.1482 143.915C88.2548 143.73 88.3993 143.569 88.5725 143.444C88.7456 143.318 88.9434 143.231 89.1528 143.187C89.3623 143.143 89.5787 143.144 89.7878 143.189L110.508 147.681C110.851 147.756 111.158 147.947 111.376 148.222C111.594 148.497 111.71 148.839 111.704 149.189L110.739 200.839C110.731 201.235 110.568 201.612 110.285 201.89C110.002 202.168 109.621 202.324 109.224 202.325C109.186 202.325 109.147 202.323 109.108 202.321Z" fill="#2F2E41"/>
<path d="M103.424 99.0846C108.002 99.0846 111.712 95.3843 111.712 90.8197C111.712 86.255 108.002 82.5547 103.424 82.5547C98.8473 82.5547 95.1367 86.255 95.1367 90.8197C95.1367 95.3843 98.8473 99.0846 103.424 99.0846Z" fill="#A0616A"/>
<path d="M90.5647 148.708C89.7678 147.995 89.1352 147.119 88.7103 146.139C88.2855 145.159 88.0785 144.099 88.1036 143.032C88.1036 131.153 98.4141 104.614 98.7374 103.785C98.7689 103.586 99.0409 103.5 100.468 102.538C101.896 101.576 103.956 101.428 106.589 102.099C106.857 102.167 107.1 102.308 107.294 102.504C107.487 102.701 107.623 102.947 107.686 103.216L108.176 103.922C108.218 104.101 108.302 104.267 108.421 104.408C108.54 104.548 108.69 104.659 108.86 104.731C110.984 105.623 117.734 109.738 115.434 125.222C113.297 139.605 112.43 148.064 112.157 151.034C112.124 151.386 111.969 151.716 111.718 151.966C111.467 152.216 111.136 152.37 110.783 152.402C109.741 152.495 107.954 152.618 105.826 152.618C100.892 152.618 94.125 151.954 90.5647 148.708Z" fill="#3F3D56"/>
<path d="M80.6623 144.308C80.4652 143.907 80.3586 143.467 80.3502 143.021C80.3417 142.574 80.4315 142.131 80.6132 141.723C80.7949 141.315 81.0642 140.952 81.402 140.658C81.7398 140.365 82.138 140.15 82.5685 140.027L92.9254 118.919L98.2681 122.887L86.4465 142.324C86.6059 143.059 86.4895 143.827 86.1192 144.482C85.749 145.137 85.1507 145.633 84.4378 145.878C83.7248 146.122 82.9467 146.098 82.2508 145.808C81.555 145.519 80.9898 144.985 80.6623 144.308L80.6623 144.308Z" fill="#FBBEBE"/>
<path d="M98.8521 123.651C98.6494 123.708 98.4355 123.713 98.2303 123.666L91.9938 122.233C91.6805 122.161 91.4069 121.972 91.2291 121.705C91.0514 121.438 90.983 121.113 91.0382 120.798L93.2728 107.998C93.4658 106.801 94.0916 105.716 95.0321 104.948C95.7108 104.404 96.5239 104.054 97.3857 103.933C98.2475 103.812 99.126 103.925 99.9287 104.26C100.549 104.513 101.107 104.898 101.563 105.388C102.116 105.967 102.514 106.674 102.724 107.445C102.933 108.216 102.946 109.028 102.762 109.805L99.7357 122.73C99.6843 122.948 99.5752 123.149 99.4198 123.311C99.2644 123.473 99.0684 123.59 98.8521 123.651Z" fill="#3F3D56"/>
<path d="M101.483 98.2863C101.08 97.8759 100.782 97.3743 100.615 96.8243C100.449 96.2742 100.418 95.6921 100.525 95.1276C100.814 93.6202 100.984 92.634 101.016 92.2752C101.126 91.0477 99.8819 90.054 98.6507 89.8959C98.603 89.8897 98.5631 89.8855 98.5297 89.8829C98.5611 89.9136 98.5948 89.9449 98.6243 89.9727C98.8582 90.1917 99.1493 90.4645 99.0801 90.7459C99.0384 90.9153 98.8832 91.0356 98.6055 91.113C96.68 91.6503 95.1971 91.157 93.9385 89.5595C93.5847 89.1056 93.3416 88.5759 93.2282 88.0123C92.7774 85.8065 93.9786 83.9261 95.0658 82.7374C95.9622 81.7572 97.4155 80.5672 99.248 80.4652C100.673 80.3859 102.368 81.2037 102.875 82.6775C103.114 82.3239 103.433 82.0308 103.805 81.8213C104.178 81.6118 104.594 81.4918 105.022 81.4708C105.994 81.4497 106.952 81.7153 107.774 82.2343C111.793 84.53 113.52 89.9984 111.546 94.1762C110.304 96.804 107.613 98.7604 104.524 99.2817C104.33 99.3145 104.135 99.331 103.938 99.3311C103.48 99.3304 103.026 99.2375 102.604 99.058C102.182 98.8784 101.801 98.616 101.483 98.2863Z" fill="#2F2E41"/>
<path d="M62.6206 212H128.42C128.51 212 128.595 211.965 128.659 211.902C128.722 211.838 128.758 211.753 128.758 211.664C128.758 211.574 128.722 211.489 128.659 211.426C128.595 211.363 128.51 211.327 128.42 211.327H62.6206C62.5311 211.327 62.4453 211.363 62.382 211.426C62.3187 211.489 62.2832 211.574 62.2832 211.664C62.2832 211.753 62.3187 211.838 62.382 211.902C62.4453 211.965 62.5311 212 62.6206 212Z" fill="#3F3D56"/>
</g>
<defs>
<radialGradient id="paint0_radial" cx="0" cy="0" r="1" gradientUnits="userSpaceOnUse" gradientTransform="translate(120 96) rotate(90) scale(132.583)">
<stop stop-color="#DAEAF9"/>
<stop offset="1" stop-color="#DAEAF9" stop-opacity="0"/>
</radialGradient>
<clipPath id="clip0">
<rect width="203" height="212" fill="white"/>
</clipPath>
</defs>
</svg>
