<svg width="314" height="198" viewBox="0 0 314 198" fill="none" xmlns="http://www.w3.org/2000/svg">
<g clip-path="url(#clip0)">
<circle cx="134" cy="92" r="172" fill="url(#paint0_radial)" fill-opacity="0.9"/>
<ellipse cx="61.1074" cy="44.6467" rx="38.5449" ry="39.7941" fill="#0155E1"/>
<path d="M262.948 39.2634V175.193C262.948 176.578 262.415 177.907 261.468 178.886C260.52 179.865 259.235 180.416 257.895 180.416H56.1058C55.634 180.416 55.1646 180.347 54.7115 180.211C53.6566 179.9 52.7288 179.241 52.0686 178.336C51.4083 177.43 51.0517 176.327 51.0527 175.193V114.533C51.0527 114.224 51.0527 113.917 51.0527 113.611V55.7589C51.1708 55.7589 51.286 55.7589 51.4041 55.7759C55.9274 47.8076 61.9741 40.486 69.245 34.041H257.895C259.235 34.041 260.52 34.5912 261.468 35.5706C262.415 36.55 262.948 37.8783 262.948 39.2634Z" fill="white"/>
<path d="M228.369 51.6934H200.408C197.682 51.6934 195.473 53.9769 195.473 56.7938C195.473 59.6107 197.682 61.8942 200.408 61.8942H228.369C231.094 61.8942 233.304 59.6107 233.304 56.7938C233.304 53.9769 231.094 51.6934 228.369 51.6934Z" fill="#3F3D56"/>
<path opacity="0.1" d="M227.551 53.3975H201.223C199.408 53.3975 197.938 54.9171 197.938 56.7916C197.938 58.6661 199.408 60.1857 201.223 60.1857H227.551C229.365 60.1857 230.836 58.6661 230.836 56.7916C230.836 54.9171 229.365 53.3975 227.551 53.3975Z" fill="black"/>
<path d="M227.089 53.7705H221.056C219.442 53.7705 218.133 55.1231 218.133 56.7916V56.7945C218.133 58.463 219.442 59.8156 221.056 59.8156H227.089C228.703 59.8156 230.012 58.463 230.012 56.7945V56.7916C230.012 55.1231 228.703 53.7705 227.089 53.7705Z" fill="#0155E1"/>
<path d="M223.982 58.6828C224.992 58.6828 225.81 57.837 225.81 56.7935C225.81 55.7501 224.992 54.9043 223.982 54.9043C222.973 54.9043 222.154 55.7501 222.154 56.7935C222.154 57.837 222.973 58.6828 223.982 58.6828Z" fill="white"/>
<path d="M228.369 118.938H200.408C197.682 118.938 195.473 121.221 195.473 124.038C195.473 126.855 197.682 129.138 200.408 129.138H228.369C231.094 129.138 233.304 126.855 233.304 124.038C233.304 121.221 231.094 118.938 228.369 118.938Z" fill="#3F3D56"/>
<path opacity="0.1" d="M227.551 120.644H201.223C199.408 120.644 197.938 122.163 197.938 124.038C197.938 125.912 199.408 127.432 201.223 127.432H227.551C229.365 127.432 230.836 125.912 230.836 124.038C230.836 122.163 229.365 120.644 227.551 120.644Z" fill="black"/>
<path d="M227.089 121.014H221.056C219.442 121.014 218.133 122.366 218.133 124.035V124.038C218.133 125.706 219.442 127.059 221.056 127.059H227.089C228.703 127.059 230.012 125.706 230.012 124.038V124.035C230.012 122.366 228.703 121.014 227.089 121.014Z" fill="#0155E1"/>
<path d="M223.982 125.927C224.992 125.927 225.81 125.081 225.81 124.038C225.81 122.994 224.992 122.148 223.982 122.148C222.973 122.148 222.154 122.994 222.154 124.038C222.154 125.081 222.973 125.927 223.982 125.927Z" fill="white"/>
<path d="M228.369 152.559H200.408C197.682 152.559 195.473 154.842 195.473 157.659C195.473 160.476 197.682 162.759 200.408 162.759H228.369C231.094 162.759 233.304 160.476 233.304 157.659C233.304 154.842 231.094 152.559 228.369 152.559Z" fill="#3F3D56"/>
<path opacity="0.1" d="M227.551 154.266H201.223C199.408 154.266 197.938 155.785 197.938 157.66C197.938 159.534 199.408 161.054 201.223 161.054H227.551C229.365 161.054 230.836 159.534 230.836 157.66C230.836 155.785 229.365 154.266 227.551 154.266Z" fill="black"/>
<path d="M227.089 154.638H221.056C219.442 154.638 218.133 155.99 218.133 157.659V157.662C218.133 159.33 219.442 160.683 221.056 160.683H227.089C228.703 160.683 230.012 159.33 230.012 157.662V157.659C230.012 155.99 228.703 154.638 227.089 154.638Z" fill="#0155E1"/>
<path d="M223.982 159.548C224.992 159.548 225.81 158.702 225.81 157.659C225.81 156.615 224.992 155.77 223.982 155.77C222.973 155.77 222.154 156.615 222.154 157.659C222.154 158.702 222.973 159.548 223.982 159.548Z" fill="white"/>
<path d="M99.8866 45.2715H83.6185C82.0041 45.2715 80.6953 46.6241 80.6953 48.2926V48.2954C80.6953 49.9639 82.0041 51.3165 83.6185 51.3165H99.8866C101.501 51.3165 102.81 49.9639 102.81 48.2954V48.2926C102.81 46.6241 101.501 45.2715 99.8866 45.2715Z" fill="#0155E1"/>
<path d="M139.181 53.7705H83.6185C82.0041 53.7705 80.6953 55.1231 80.6953 56.7916V56.7945C80.6953 58.463 82.0041 59.8156 83.6185 59.8156H139.181C140.795 59.8156 142.104 58.463 142.104 56.7945V56.7916C142.104 55.1231 140.795 53.7705 139.181 53.7705Z" fill="#0155E1"/>
<path d="M139.181 62.2725H83.6185C82.0041 62.2725 80.6953 63.6251 80.6953 65.2936V65.2964C80.6953 66.9649 82.0041 68.3175 83.6185 68.3175H139.181C140.795 68.3175 142.104 66.9649 142.104 65.2964V65.2936C142.104 63.6251 140.795 62.2725 139.181 62.2725Z" fill="#0155E1"/>
<g opacity="0.5">
<path opacity="0.5" d="M99.8866 78.8916H83.6185C82.0041 78.8916 80.6953 80.2442 80.6953 81.9127V81.9155C80.6953 83.584 82.0041 84.9366 83.6185 84.9366H99.8866C101.501 84.9366 102.81 83.584 102.81 81.9155V81.9127C102.81 80.2442 101.501 78.8916 99.8866 78.8916Z" fill="#0155E1"/>
<path opacity="0.5" d="M123.61 87.3926H83.6185C82.0041 87.3926 80.6953 88.7452 80.6953 90.4137V90.4165C80.6953 92.085 82.0041 93.4376 83.6185 93.4376H123.61C125.224 93.4376 126.533 92.085 126.533 90.4165V90.4137C126.533 88.7452 125.224 87.3926 123.61 87.3926Z" fill="#0155E1"/>
<path opacity="0.5" d="M139.181 95.8926H83.6185C82.0041 95.8926 80.6953 97.2452 80.6953 98.9137V98.9165C80.6953 100.585 82.0041 101.938 83.6185 101.938H139.181C140.795 101.938 142.104 100.585 142.104 98.9165V98.9137C142.104 97.2452 140.795 95.8926 139.181 95.8926Z" fill="#0155E1"/>
</g>
<path d="M99.8866 112.516H83.6185C82.0041 112.516 80.6953 113.868 80.6953 115.537V115.54C80.6953 117.208 82.0041 118.561 83.6185 118.561H99.8866C101.501 118.561 102.81 117.208 102.81 115.54V115.537C102.81 113.868 101.501 112.516 99.8866 112.516Z" fill="#0155E1"/>
<path d="M139.181 121.014H83.6185C82.0041 121.014 80.6953 122.366 80.6953 124.035V124.038C80.6953 125.706 82.0041 127.059 83.6185 127.059H139.181C140.795 127.059 142.104 125.706 142.104 124.038V124.035C142.104 122.366 140.795 121.014 139.181 121.014Z" fill="#0155E1"/>
<path d="M115.924 129.516H83.6185C82.0041 129.516 80.6953 130.868 80.6953 132.537V132.54C80.6953 134.208 82.0041 135.561 83.6185 135.561H115.924C117.539 135.561 118.847 134.208 118.847 132.54V132.537C118.847 130.868 117.539 129.516 115.924 129.516Z" fill="#0155E1"/>
<path d="M99.8866 146.137H83.6185C82.0041 146.137 80.6953 147.489 80.6953 149.158V149.161C80.6953 150.829 82.0041 152.182 83.6185 152.182H99.8866C101.501 152.182 102.81 150.829 102.81 149.161V149.158C102.81 147.489 101.501 146.137 99.8866 146.137Z" fill="#0155E1"/>
<path d="M139.181 154.638H83.6185C82.0041 154.638 80.6953 155.99 80.6953 157.659V157.662C80.6953 159.33 82.0041 160.683 83.6185 160.683H139.181C140.795 160.683 142.104 159.33 142.104 157.662V157.659C142.104 155.99 140.795 154.638 139.181 154.638Z" fill="#0155E1"/>
<path d="M127.178 163.137H83.6185C82.0041 163.137 80.6953 164.489 80.6953 166.158V166.161C80.6953 167.829 82.0041 169.182 83.6185 169.182H127.178C128.792 169.182 130.101 167.829 130.101 166.161V166.158C130.101 164.489 128.792 163.137 127.178 163.137Z" fill="#0155E1"/>
<path opacity="0.7" d="M71.3633 73.752H250.321" stroke="#3F3D56" stroke-miterlimit="10" stroke-linecap="round"/>
<path opacity="0.7" d="M71.3633 107.934H250.321" stroke="#3F3D56" stroke-miterlimit="10" stroke-linecap="round"/>
<path opacity="0.7" d="M71.3633 142.116H250.321" stroke="#3F3D56" stroke-miterlimit="10" stroke-linecap="round"/>
<path opacity="0.7" d="M71.3633 177.15H250.321" stroke="#3F3D56" stroke-miterlimit="10" stroke-linecap="round"/>
<path opacity="0.1" d="M218.208 197.999C240.595 197.999 258.743 196.666 258.743 195.021C258.743 193.376 240.595 192.042 218.208 192.042C195.822 192.042 177.674 193.376 177.674 195.021C177.674 196.666 195.822 197.999 218.208 197.999Z" fill="#0155E1"/>
<path d="M228.369 85.3145H200.408C197.682 85.3145 195.473 87.598 195.473 90.4149C195.473 93.2318 197.682 95.5153 200.408 95.5153H228.369C231.094 95.5153 233.304 93.2318 233.304 90.4149C233.304 87.598 231.094 85.3145 228.369 85.3145Z" fill="#3F3D56"/>
<path opacity="0.1" d="M227.551 87.0225H201.223C199.408 87.0225 197.938 88.5421 197.938 90.4166C197.938 92.2911 199.408 93.8107 201.223 93.8107H227.551C229.365 93.8107 230.836 92.2911 230.836 90.4166C230.836 88.5421 229.365 87.0225 227.551 87.0225Z" fill="black"/>
<path d="M199.04 187.508C199.471 187.442 199.902 187.351 200.325 187.249C200.27 187.686 200.147 188.112 199.963 188.509C199.543 189.332 198.722 189.828 197.967 190.333C197.863 190.232 197.729 190.172 197.587 190.162C197.445 190.153 197.304 190.194 197.188 190.279C196.279 190.846 195.555 191.646 194.591 192.134C194.254 192.304 193.902 192.441 193.573 192.631C192.774 193.134 192.112 193.84 191.652 194.682C191.377 195.121 191.155 195.7 191.424 196.137C191.527 196.285 191.66 196.408 191.813 196.497C192.205 196.779 192.673 196.923 193.15 196.908C193.425 196.883 193.699 196.775 193.998 196.727C194.374 196.659 194.759 196.693 195.137 196.659C195.687 196.585 196.225 196.442 196.74 196.23L198.626 195.55C199.158 195.372 199.677 195.152 200.177 194.891C200.476 194.724 200.759 194.528 201.063 194.375C201.406 194.218 201.76 194.089 202.123 193.989L203.193 193.666C203.347 193.605 203.513 193.583 203.676 193.601C203.824 193.629 203.951 193.726 204.102 193.765C204.332 193.808 204.569 193.784 204.788 193.697L206.029 193.334C206.29 193.273 206.54 193.165 206.767 193.016C207.335 192.599 207.437 191.771 207.434 191.048C207.431 189.952 207.311 188.86 207.077 187.791C206.918 187.858 206.779 187.966 206.674 188.106C206.547 187.922 206.41 187.744 206.265 187.576C205.693 186.889 205.271 186.083 205.027 185.213C205.475 184.869 205.849 184.432 206.125 183.93C205.469 181.346 204.796 178.722 203.462 176.441C203.026 175.698 202.526 175 202.09 174.269C200.792 172.141 200.525 169.446 199.04 167.46C198.899 167.259 198.823 167.017 198.823 166.768C198.823 166.52 198.899 166.277 199.04 166.076C199.211 165.843 199.485 165.625 199.433 165.336C199.394 165.129 199.186 164.939 199.265 164.746C199.304 164.652 199.397 164.601 199.469 164.533C199.721 164.289 199.688 163.878 199.713 163.52C199.768 162.618 200.287 161.818 200.786 161.092C200.887 160.918 201.022 160.768 201.181 160.649C201.316 160.564 201.475 160.525 201.609 160.44C202.082 160.13 202.049 159.413 202.274 158.879C202.57 158.176 203.317 157.821 203.805 157.251C204.428 156.525 204.588 155.515 205.244 154.882C205.311 154.816 205.383 154.755 205.46 154.701C205.176 155.777 205.045 156.89 205.073 158.006C205.01 161.844 205.932 165.815 205.502 169.636C205.161 172.66 206.948 175.676 209.481 177.188C210.474 177.734 211.51 178.189 212.58 178.546C214.167 179.134 215.748 179.738 217.304 180.413C218.402 180.889 219.485 181.401 220.554 181.948C221.873 182.613 223.155 183.353 224.396 184.163C225.923 185.176 227.451 186.203 228.536 187.715C229.199 187.68 229.836 187.437 230.364 187.02C230.781 187.36 231.286 187.618 231.678 187.995C232.22 188.579 232.583 189.315 232.721 190.112H232.557C232.576 190.489 232.592 190.866 232.611 191.246C232.626 191.343 232.612 191.442 232.57 191.53C232.531 191.586 232.48 191.634 232.422 191.669L231.577 192.262C230.962 192.69 230.284 193.232 230.251 194.001C230.234 194.224 230.3 194.446 230.435 194.622C230.642 194.821 230.906 194.944 231.187 194.974C232.658 195.294 234.165 195.606 235.655 195.399C236.364 195.3 237.096 195.059 237.558 194.492C237.98 193.975 238.106 193.275 238.222 192.608C238.406 191.473 238.559 190.313 238.68 189.161C238.717 188.379 238.871 187.606 239.136 186.872C239.156 186.808 239.198 186.754 239.254 186.719C239.317 186.691 239.391 186.719 239.457 186.691C239.523 186.662 239.567 186.557 239.589 186.472C239.86 185.352 239.992 184.2 239.981 183.045C239.994 182.745 239.95 182.446 239.852 182.163C239.736 181.927 239.57 181.72 239.367 181.558C239.164 181.396 238.928 181.283 238.677 181.227C238.177 181.122 237.67 181.059 237.16 181.04C236.734 180.997 236.312 180.918 235.9 180.801C235.733 180.736 235.553 180.712 235.375 180.731C235.287 180.743 235.206 180.788 235.148 180.857C235.089 180.927 235.057 181.016 235.057 181.108C235.067 181.173 235.089 181.236 235.123 181.292L234.695 181.204C234.349 181.139 233.871 180.983 233.353 180.853C233.353 180.762 233.358 180.667 233.369 180.569C233.37 180.467 233.343 180.368 233.292 180.281C233.24 180.195 233.166 180.126 233.078 180.081L225.826 176.076L224.471 175.327C221.501 173.684 218.432 172.167 215.454 170.524C215.256 170.586 215.092 170.351 215.034 170.141C214.976 169.931 214.935 169.682 214.746 169.588C214.653 169.543 214.529 169.545 214.471 169.463C214.422 169.389 214.404 169.299 214.419 169.211C214.515 167.716 215.55 166.337 215.344 164.856C215.256 164.224 214.941 163.6 215.07 162.978C215.166 162.55 215.462 162.201 215.619 161.793C215.976 160.879 215.619 159.781 216.008 158.888C216.268 158.301 216.445 157.678 216.533 157.038C216.717 155.764 217.087 154.527 217.631 153.368C217.893 152.783 218.237 152.241 218.652 151.759C218.868 151.515 219.113 151.297 219.321 151.044C219.953 150.264 220.186 149.226 220.364 148.208C220.688 146.389 220.913 144.503 220.507 142.699C220.37 142.086 220.161 141.476 220.17 140.846C220.17 140.092 220.463 139.227 220.109 138.622C220.474 138.32 220.717 137.888 220.793 137.411C220.798 137.239 220.83 137.07 220.889 136.909C221.009 136.734 221.166 136.589 221.347 136.483C221.63 136.26 221.847 135.959 221.972 135.614C222.097 135.27 222.126 134.895 222.055 134.535C222.431 134.711 222.826 134.316 223.005 133.928C223.183 133.539 223.318 133.077 223.699 132.901C223.957 132.787 224.248 132.855 224.523 132.782C224.959 132.665 225.225 132.214 225.533 131.882C226.159 131.184 227.045 130.824 227.866 130.396C230.298 129.117 232.279 127.094 234.22 125.103C235.232 124.131 236.151 123.062 236.965 121.908C237.181 121.577 237.379 121.233 237.566 120.882L237.615 120.856L237.632 120.918C237.662 121.043 237.698 121.168 237.733 121.29C237.821 121.574 237.92 121.877 238.008 122.167C238.304 123.018 238.625 123.925 239.229 124.569C239.414 124.766 239.625 124.935 239.855 125.071C240.354 125.348 240.902 125.518 241.466 125.571C241.68 125.599 241.897 125.616 242.114 125.627C242.331 125.639 242.547 125.647 242.762 125.653L247.203 125.775C245.677 123.488 245.556 120.516 245.657 117.733C245.913 110.584 247.26 103.37 246.009 96.3354C245.858 95.4844 245.657 94.6334 245.155 93.9497C244.496 93.0562 243.415 92.625 242.361 92.3725C241.307 92.12 240.212 91.9981 239.226 91.5414C238.403 91.1527 237.645 90.5286 236.756 90.3244C236.101 90.2109 235.431 90.2225 234.78 90.3584C233.978 90.4814 233.181 90.627 232.389 90.7953L232.197 90.8378H232.205L232.074 90.869H232.038L231.92 90.8974H231.876L231.766 90.9286L231.717 90.9428L231.615 90.9768L231.557 90.9967L231.464 91.0279L231.404 91.0534L231.316 91.0875L231.25 91.1158L231.17 91.1527L231.105 91.1868L231.03 91.2236L230.965 91.2634L230.896 91.3031L230.83 91.3484L230.767 91.391L230.701 91.4392L230.646 91.4846L230.583 91.5414L230.531 91.5896C230.509 91.6099 230.489 91.6317 230.471 91.6548L230.424 91.703C230.402 91.7283 230.382 91.7548 230.364 91.7825C230.364 91.7966 230.339 91.8108 230.328 91.8279C230.317 91.8449 230.278 91.9016 230.254 91.9442V91.9612C230.192 92.0678 230.141 92.1809 230.103 92.2988C230.084 92.3583 230.064 92.4179 230.051 92.4775C230.022 92.5988 230.002 92.722 229.99 92.8462C229.99 92.9086 229.99 92.9739 229.977 93.0363C229.977 93.1611 229.977 93.2888 229.977 93.4136C229.988 93.6266 230.01 93.8387 230.045 94.049C229.072 94.6436 228.26 95.4835 227.686 96.4903C227.112 97.4971 226.794 98.6379 226.762 99.8061C226.73 100.974 226.985 102.132 227.504 103.17C228.022 104.209 228.787 105.095 229.727 105.745C229.74 105.857 229.747 105.97 229.749 106.082V106.156C229.733 106.557 229.693 106.957 229.628 107.353C228.543 107.135 227.439 107.034 226.334 107.05C225.675 107.05 225.011 107.112 224.347 107.166C223.635 106.278 222.972 105.35 222.36 104.386L220.894 102.165C220.391 101.439 219.932 100.681 219.522 99.8955C219.162 99.175 218.882 98.409 218.481 97.7112C217.658 96.273 216.313 95.0504 216.146 93.3852L215.759 93.4675C215.547 93.1101 215.281 92.7328 215.182 92.5257C214.652 91.344 214.244 90.1079 213.964 88.838C213.829 88.1798 213.728 87.4934 213.379 86.926C213.141 86.5716 212.854 86.256 212.525 85.9899C211.996 85.4748 211.375 85.0703 210.697 84.7985C210.395 84.6848 210.073 84.6362 209.751 84.6557C209.43 84.6752 209.116 84.7624 208.828 84.9119C208.739 84.869 208.647 84.8312 208.554 84.7985C208.214 84.6648 207.848 84.6178 207.487 84.6612C207.125 84.7047 206.78 84.8374 206.479 85.0481C205.902 85.5048 205.655 86.2877 205.567 87.0338C205.416 88.0662 205.587 89.1216 206.056 90.0464C206.605 91.0619 207.588 91.7484 208.4 92.5541C208.965 93.1201 209.461 93.7566 209.874 94.449C210.001 95.9813 209.964 97.5236 209.761 99.0473C209.657 99.6997 209.487 100.341 209.438 100.999C209.237 103.376 210.434 105.753 210.006 108.091C209.935 108.442 209.972 108.808 210.111 109.136C210.25 109.465 210.485 109.741 210.782 109.926C211.397 110.269 212.116 110.315 212.792 110.493C214.117 110.845 215.262 111.722 216.601 112.048C217.219 112.201 217.861 112.23 218.476 112.4L218.572 112.431C218.098 112.985 217.76 113.648 217.587 114.366C217.312 115.557 217.57 116.831 217.296 118.022C217.071 119.004 216.505 119.86 215.948 120.691C214.876 122.295 213.802 123.903 212.726 125.514C212.007 126.644 211.213 127.722 210.352 128.739C208.872 130.41 206.319 131.735 205.567 133.743C205.551 133.695 205.529 133.647 205.513 133.599C204.448 134.407 204.05 135.913 203.201 136.96C202.787 137.468 202.276 137.879 201.829 138.35C201.275 138.958 200.767 139.609 200.311 140.299C199.049 142.109 197.778 143.927 196.875 145.955C196.403 147.011 196.038 148.108 195.662 149.2C194.185 153.504 191.775 157.586 190.773 162.037C190.529 163.123 189.889 164.105 189.793 165.217C189.686 166.402 190.211 167.543 190.754 168.589C191.577 170.189 192.494 171.744 193.224 173.389C193.655 174.348 194.028 175.338 194.509 176.274C195.033 177.295 195.675 178.243 196.224 179.25C197.561 181.834 198.329 184.691 199.04 187.508ZM217.2 106.221L217.068 106.153C216.576 105.933 216.125 105.625 215.737 105.243C214.554 103.938 214.046 101.972 213.675 100.216C213.631 100.006 213.593 99.799 213.557 99.5891C214.993 101.697 216.349 103.875 217.2 106.227V106.221Z" fill="url(#paint1_linear)"/>
<path d="M211.807 89.1865C211.672 88.5312 211.573 87.8504 211.225 87.2887C210.986 86.936 210.697 86.6224 210.368 86.3583C209.836 85.8466 209.214 85.4451 208.535 85.1754C208.195 85.0434 207.829 84.997 207.469 85.0399C207.108 85.0828 206.762 85.2139 206.46 85.4222C205.881 85.8761 205.637 86.6533 205.546 87.4079C205.394 88.4338 205.566 89.4829 206.035 90.4006C206.597 91.4105 207.569 92.0856 208.384 92.8913C208.976 93.4814 209.491 94.1489 209.916 94.877C210.109 95.2545 210.343 95.6084 210.613 95.9322C210.749 96.0909 210.919 96.2147 211.11 96.2939C211.3 96.3732 211.506 96.4057 211.711 96.3889C212.053 96.2954 212.364 96.1059 212.608 95.8414C212.943 95.5379 213.843 94.9904 213.871 94.5167C213.893 94.1281 213.19 93.2487 213.017 92.8827C212.489 91.6981 212.083 90.4591 211.807 89.1865Z" fill="#FBBEBE"/>
<path opacity="0.1" d="M211.807 89.1865C211.672 88.5312 211.573 87.8504 211.225 87.2887C210.986 86.936 210.697 86.6224 210.368 86.3583C209.836 85.8466 209.214 85.4451 208.535 85.1754C208.195 85.0434 207.829 84.997 207.469 85.0399C207.108 85.0828 206.762 85.2139 206.46 85.4222C205.881 85.8761 205.637 86.6533 205.546 87.4079C205.394 88.4338 205.566 89.4829 206.035 90.4006C206.597 91.4105 207.569 92.0856 208.384 92.8913C208.976 93.4814 209.491 94.1489 209.916 94.877C210.109 95.2545 210.343 95.6084 210.613 95.9322C210.749 96.0909 210.919 96.2147 211.11 96.2939C211.3 96.3732 211.506 96.4057 211.711 96.3889C212.053 96.2954 212.364 96.1059 212.608 95.8414C212.943 95.5379 213.843 94.9904 213.871 94.5167C213.893 94.1281 213.19 93.2487 213.017 92.8827C212.489 91.6981 212.083 90.4591 211.807 89.1865Z" fill="black"/>
<path d="M230.792 107.86C229.344 107.459 227.85 107.268 226.351 107.293C223.851 107.33 221.276 107.957 218.894 107.163C218.281 106.947 217.684 106.684 217.11 106.377C216.617 106.159 216.165 105.852 215.776 105.472C214.59 104.176 214.079 102.221 213.711 100.479C213.387 98.7267 213.198 96.9499 213.149 95.1661C212.531 95.464 211.878 95.7562 211.2 95.6966C210.522 95.637 209.828 95.098 209.828 94.3945C209.929 96.0455 210.003 97.7163 209.737 99.3446C209.633 99.9914 209.463 100.63 209.416 101.282C209.213 103.645 210.412 106.005 209.984 108.334C209.912 108.684 209.949 109.047 210.088 109.374C210.228 109.701 210.463 109.974 210.761 110.155C211.376 110.499 212.098 110.541 212.773 110.723C214.099 111.072 215.243 111.942 216.588 112.269C217.206 112.419 217.851 112.447 218.465 112.618C219.341 112.859 220.14 113.378 221.035 113.54C221.704 113.664 222.407 113.579 223.074 113.639C223.664 113.69 224.24 113.849 224.833 113.866C226.282 113.903 227.649 113.057 228.61 111.934C229.571 110.811 230.183 109.214 230.792 107.86Z" fill="#2FD0A9"/>
<path opacity="0.1" d="M230.734 107.704C229.286 107.303 227.791 107.112 226.292 107.137C223.792 107.174 221.217 107.801 218.835 107.006C218.222 106.791 217.626 106.528 217.051 106.221C216.558 106.002 216.107 105.696 215.717 105.316C214.531 104.019 214.021 102.065 213.653 100.323C213.328 98.5704 213.14 96.7936 213.09 95.0099C212.473 95.3077 211.819 95.5999 211.141 95.5403C210.463 95.4808 209.769 94.9418 209.769 94.2383C209.871 95.8893 209.945 97.5601 209.679 99.1884C209.574 99.8351 209.404 100.473 209.357 101.126C209.154 103.489 210.354 105.849 209.926 108.178C209.854 108.527 209.89 108.891 210.03 109.218C210.169 109.545 210.404 109.818 210.702 109.999C211.317 110.342 212.039 110.385 212.714 110.566C214.04 110.915 215.184 111.786 216.529 112.112C217.147 112.263 217.792 112.291 218.407 112.461C219.282 112.702 220.081 113.222 220.976 113.383C221.646 113.508 222.348 113.423 223.015 113.483C223.605 113.534 224.182 113.692 224.775 113.71C226.224 113.746 227.591 112.901 228.551 111.778C229.512 110.654 230.124 109.057 230.734 107.704Z" fill="black"/>
<path d="M234.762 180.89C235.21 180.947 235.644 181.087 236.044 181.304C236.565 181.687 236.955 182.231 237.158 182.858C237.756 184.384 237.88 186.064 237.907 187.712C237.929 189.042 237.885 190.404 237.424 191.646C237.298 192.038 237.08 192.392 236.79 192.676C236.533 192.885 236.235 193.034 235.917 193.113C235.228 193.309 234.432 193.306 233.87 192.852C233.244 192.347 233.087 191.453 232.956 190.645C232.777 189.556 232.525 188.395 231.74 187.644C231.158 187.076 230.324 186.793 229.901 186.106C229.396 185.281 229.662 184.203 229.983 183.284C230.258 182.487 230.672 180.872 231.479 180.464C232.286 180.056 233.925 180.733 234.762 180.89Z" fill="#FBBEBE"/>
<path d="M205.032 184.804C205.274 185.694 205.703 186.518 206.289 187.218C206.646 187.643 207.093 188.16 206.906 188.687C206.828 188.866 206.713 189.026 206.569 189.155C203.917 191.833 200.209 193.127 196.531 193.615C196.473 193.63 196.411 193.63 196.353 193.615C196.246 193.566 196.218 193.424 196.207 193.302C196.147 192.907 196.147 192.504 196.207 192.108C196.386 191.181 197.174 190.525 197.945 190.012C198.716 189.498 199.559 189.005 199.987 188.168C200.522 187.13 200.297 185.777 200.934 184.804C201.45 184.012 202.411 183.669 203.325 183.527C203.64 183.476 204.313 183.119 204.582 183.283C204.851 183.448 204.938 184.477 205.032 184.804Z" fill="#FBBEBE"/>
<path d="M235.124 180.792C235.124 180.701 235.156 180.612 235.214 180.543C235.273 180.474 235.354 180.43 235.442 180.418C235.619 180.4 235.799 180.423 235.966 180.486C236.379 180.605 236.8 180.685 237.226 180.727C237.737 180.746 238.246 180.807 238.747 180.912C238.997 180.966 239.233 181.077 239.437 181.238C239.641 181.398 239.807 181.604 239.924 181.839C240.022 182.121 240.066 182.42 240.053 182.719C240.064 183.866 239.933 185.01 239.661 186.123C239.639 186.208 239.606 186.307 239.526 186.338C239.447 186.369 239.389 186.338 239.326 186.369C239.297 186.386 239.272 186.408 239.252 186.434C239.232 186.46 239.217 186.49 239.208 186.523C238.942 187.25 238.787 188.016 238.749 188.792C238.629 189.927 238.475 191.078 238.291 192.213C238.184 192.877 238.05 193.575 237.627 194.085C237.163 194.653 236.43 194.888 235.722 194.987C234.229 195.192 232.722 194.882 231.248 194.565C230.967 194.536 230.702 194.413 230.493 194.216C230.358 194.041 230.292 193.82 230.309 193.597C230.342 192.834 231.023 192.295 231.635 191.87L232.483 191.283C232.542 191.249 232.593 191.201 232.631 191.144C232.673 191.056 232.688 190.957 232.673 190.86L232.618 189.725C233.179 189.736 233.728 189.903 234.205 190.21C234.682 190.516 235.07 190.951 235.327 191.467C235.442 191.708 235.555 191.989 235.796 192.083C235.953 192.12 236.118 192.092 236.256 192.006C236.394 191.92 236.494 191.781 236.534 191.62C236.607 191.295 236.599 190.957 236.51 190.636C236.013 187.893 236.131 185.073 235.829 182.302C235.81 181.989 235.715 181.687 235.555 181.422C235.426 181.232 235.154 181.048 235.124 180.792Z" fill="#2FD0A9"/>
<path d="M201.685 93.4385H207.717C209.332 93.4385 210.641 92.0859 210.641 90.4174V90.4145C210.641 88.746 209.332 87.3934 207.717 87.3934H201.685C200.07 87.3934 198.761 88.746 198.761 90.4145V90.4174C198.761 92.0859 200.07 93.4385 201.685 93.4385Z" fill="#0155E1"/>
<path d="M204.791 92.3039C205.8 92.3039 206.619 91.458 206.619 90.4146C206.619 89.3712 205.8 88.5254 204.791 88.5254C203.781 88.5254 202.963 89.3712 202.963 90.4146C202.963 91.458 203.781 92.3039 204.791 92.3039Z" fill="white"/>
<path d="M198.201 191.427C198.078 191.639 197.883 191.804 197.768 192.022C197.702 192.126 197.676 192.251 197.693 192.374C197.71 192.496 197.77 192.608 197.861 192.689C197.985 192.745 198.122 192.759 198.254 192.729C200.905 192.387 203.393 191.221 205.39 189.387C205.722 189.098 206.017 188.765 206.266 188.397C206.499 188.031 206.696 187.583 207.089 187.43C207.328 188.495 207.451 189.584 207.457 190.678C207.457 191.398 207.358 192.218 206.79 192.635C206.562 192.782 206.311 192.887 206.049 192.947L204.808 193.31C204.588 193.396 204.351 193.419 204.119 193.378C203.974 193.339 203.845 193.242 203.694 193.214C203.53 193.196 203.364 193.218 203.211 193.279L202.137 193.602C201.775 193.7 201.42 193.828 201.078 193.985C200.771 194.136 200.488 194.329 200.189 194.496C199.688 194.755 199.169 194.973 198.635 195.148L196.749 195.826C196.233 196.035 195.694 196.178 195.144 196.252C194.765 196.286 194.378 196.252 194.002 196.317C193.727 196.368 193.453 196.476 193.151 196.499C192.675 196.514 192.206 196.371 191.814 196.09C191.661 196.001 191.529 195.879 191.425 195.733C191.15 195.299 191.389 194.726 191.652 194.286C192.117 193.451 192.778 192.75 193.574 192.249C193.903 192.062 194.257 191.926 194.595 191.756C195.558 191.273 196.286 190.468 197.194 189.917C198.053 189.398 198.605 190.74 198.201 191.427Z" fill="#2FD0A9"/>
<path d="M224.711 112.885C225.708 113.592 226.851 114.051 228.049 114.227C228.675 114.307 229.306 114.342 229.937 114.332C232.57 114.329 235.198 114.102 237.795 113.654C236.763 112.476 235.717 111.217 235.325 109.682C235.131 108.868 235.09 108.024 235.204 107.194C235.362 106.134 235.608 105.09 235.94 104.074C234.832 104.134 233.722 104.105 232.619 103.986C231.99 103.918 230.447 103.328 229.901 103.776C229.355 104.224 229.775 105.668 229.783 106.346C229.785 106.371 229.785 106.395 229.783 106.42C229.757 107.453 229.541 108.471 229.149 109.421C228.364 111.254 226.662 112.763 224.711 112.885Z" fill="#FBBEBE"/>
<path opacity="0.1" d="M229.785 106.332C230.577 106.866 231.471 107.219 232.406 107.366C233.341 107.513 234.296 107.45 235.206 107.183C235.364 106.123 235.61 105.079 235.941 104.062C234.834 104.122 233.723 104.093 232.62 103.974C231.992 103.906 230.449 103.316 229.903 103.764C229.357 104.213 229.777 105.654 229.785 106.332Z" fill="black"/>
<path d="M233.409 107.129C237.063 107.129 240.026 104.067 240.026 100.29C240.026 96.5123 237.063 93.4502 233.409 93.4502C229.754 93.4502 226.791 96.5123 226.791 100.29C226.791 104.067 229.754 107.129 233.409 107.129Z" fill="#FBBEBE"/>
<path d="M205.332 134.894C205.33 135.446 205.466 135.989 205.728 136.47C205.99 136.951 206.368 137.353 206.825 137.637C207.335 137.914 207.88 138.113 208.445 138.227C211.464 138.982 214.571 139.589 217.681 139.405C218.355 139.399 219.021 139.254 219.64 138.979C219.949 138.838 220.22 138.622 220.43 138.35C220.641 138.078 220.785 137.758 220.851 137.416C220.854 137.246 220.886 137.078 220.944 136.92C221.065 136.746 221.221 136.601 221.403 136.497C221.686 136.277 221.903 135.978 222.028 135.636C222.154 135.294 222.184 134.921 222.113 134.562C222.49 134.738 222.885 134.344 223.063 133.958C223.242 133.572 223.379 133.107 223.758 132.94C224.016 132.826 224.307 132.894 224.581 132.821C225.017 132.704 225.284 132.253 225.591 131.927C226.217 131.235 227.109 130.878 227.927 130.449C230.364 129.181 232.349 127.17 234.295 125.193C235.306 124.229 236.226 123.167 237.039 122.021C237.257 121.692 237.459 121.351 237.643 121C238.23 119.835 238.739 118.631 239.167 117.395C239.414 116.731 239.663 116.033 239.562 115.329C239.562 115.267 239.54 115.205 239.526 115.139C239.399 114.688 239.196 114.263 238.925 113.886C238.253 112.864 237.372 111.9 236.213 111.582C235.055 111.264 233.902 111.647 232.725 111.906C232.335 111.996 231.94 112.058 231.542 112.093C230.296 112.184 229.071 111.837 227.858 111.494L226.546 111.12C225.89 110.933 225.561 110.113 224.899 109.968C224.602 109.922 224.299 109.938 224.007 110.016C222.66 110.28 221.298 110.623 220.11 111.333C219.844 111.49 219.591 111.668 219.352 111.866C218.49 112.532 217.869 113.478 217.59 114.552C217.316 115.735 217.574 117 217.299 118.183C217.074 119.159 216.506 120.01 215.952 120.833L212.718 125.618C211.997 126.74 211.203 127.809 210.341 128.818C208.601 130.773 205.379 132.242 205.332 134.894Z" fill="#2FD0A9"/>
<path d="M213.961 89.1865C213.827 88.5312 213.728 87.8504 213.379 87.2887C213.14 86.936 212.852 86.6224 212.523 86.3583C211.99 85.8466 211.368 85.4451 210.689 85.1754C210.349 85.0434 209.984 84.997 209.623 85.0399C209.262 85.0828 208.916 85.2139 208.614 85.4222C208.035 85.8761 207.791 86.6533 207.7 87.4079C207.549 88.4338 207.72 89.4829 208.189 90.4006C208.738 91.4105 209.723 92.0856 210.538 92.8913C211.13 93.4814 211.645 94.1489 212.07 94.877C212.264 95.2545 212.497 95.6084 212.767 95.9322C212.903 96.0909 213.074 96.2147 213.264 96.2939C213.455 96.3732 213.66 96.4057 213.865 96.3889C214.207 96.2954 214.518 96.1059 214.763 95.8414C215.097 95.5379 215.998 94.9904 216.025 94.5167C216.047 94.1281 215.344 93.2487 215.171 92.8827C214.643 91.6981 214.238 90.4591 213.961 89.1865Z" fill="#FBBEBE"/>
<path d="M190.71 168.399C191.533 169.987 192.45 171.519 193.194 173.164C193.625 174.12 193.998 175.102 194.478 176.032C195.002 177.045 195.647 177.987 196.196 178.985C197.569 181.51 198.346 184.358 199.056 187.163C201.043 186.858 202.955 186.163 204.689 185.115C204.805 185.047 204.918 184.972 205.026 184.891C205.49 184.548 205.878 184.106 206.163 183.595C205.507 181.042 204.834 178.423 203.497 176.157C203.061 175.419 202.561 174.739 202.125 173.998C200.827 171.885 200.558 169.221 199.073 167.244C198.931 167.045 198.855 166.805 198.855 166.557C198.855 166.31 198.931 166.07 199.073 165.871C199.243 165.641 199.518 165.423 199.465 165.136C199.427 164.929 199.218 164.742 199.298 164.549C199.336 164.455 199.43 164.404 199.501 164.336C199.754 164.098 199.721 163.687 199.745 163.335C199.8 162.439 200.319 161.653 200.821 160.921C200.923 160.749 201.058 160.599 201.217 160.481C201.351 160.396 201.51 160.356 201.645 160.271C202.117 159.968 202.084 159.253 202.312 158.722C202.608 158.025 203.355 157.67 203.846 157.106C204.469 156.385 204.626 155.384 205.284 154.754C205.352 154.688 205.425 154.627 205.501 154.572C205.216 155.644 205.085 156.754 205.114 157.866C205.051 161.678 205.973 165.621 205.542 169.408C205.202 172.41 206.992 175.405 209.528 176.909C210.522 177.451 211.561 177.903 212.632 178.259C214.218 178.84 215.805 179.439 217.361 180.111C218.459 180.582 219.557 181.093 220.617 181.635C221.935 182.295 223.218 183.03 224.459 183.836C225.988 184.84 227.52 185.861 228.604 187.362C229.655 187.334 230.618 186.681 231.283 185.839C231.947 184.996 232.361 183.978 232.748 182.971C233.086 182.1 233.421 181.206 233.446 180.267C233.446 180.166 233.419 180.067 233.367 179.982C233.316 179.896 233.242 179.827 233.155 179.782L225.892 175.811L224.52 175.068C221.547 173.437 218.481 171.927 215.492 170.299C215.292 170.359 215.127 170.123 215.069 169.919C215.012 169.715 214.971 169.459 214.781 169.369C214.685 169.323 214.564 169.323 214.507 169.244C214.46 169.17 214.442 169.081 214.457 168.994C214.553 167.508 215.591 166.14 215.382 164.668C215.294 164.038 214.979 163.42 215.108 162.804C215.204 162.376 215.5 162.03 215.657 161.624C216.011 160.717 215.657 159.639 216.046 158.739C216.307 158.156 216.483 157.537 216.571 156.901C216.758 155.635 217.133 154.407 217.682 153.259C217.945 152.677 218.289 152.138 218.703 151.659C218.923 151.418 219.167 151.199 219.373 150.95C220.007 150.175 220.238 149.143 220.419 148.147C220.743 146.34 220.968 144.459 220.562 142.675C220.424 142.065 220.216 141.461 220.224 140.834C220.224 140.009 220.584 139.041 220.029 138.443C219.795 138.228 219.512 138.079 219.206 138.012C217.915 137.652 216.597 137.4 215.267 137.26L209.212 136.446C208.513 136.398 207.828 136.214 207.195 135.904C206.371 135.436 205.822 134.565 205.493 133.657C204.428 134.46 204.027 135.955 203.179 136.993C202.765 137.501 202.254 137.909 201.807 138.375C201.251 138.978 200.742 139.626 200.286 140.312C199.021 142.108 197.747 143.918 196.841 145.929C196.372 146.976 196.018 148.068 195.628 149.151C194.149 153.426 191.736 157.483 190.734 161.9C190.487 162.98 189.848 163.953 189.752 165.06C189.639 166.231 190.163 167.366 190.71 168.399Z" fill="#434175"/>
<path opacity="0.1" d="M222.471 132.911C222.618 133.196 222.695 133.514 222.693 133.836C222.559 133.144 221.637 132.761 221.579 132.077C221.551 131.763 221.606 131.777 221.796 131.944C222.084 132.191 222.207 132.639 222.471 132.911Z" fill="black"/>
<path opacity="0.1" d="M219.668 135.011C219.861 135.182 220.006 135.403 220.088 135.652C220.241 136.002 220.27 136.397 220.17 136.767C220.035 136.701 219.989 136.531 219.948 136.381C219.885 136.149 219.793 135.926 219.673 135.72C219.563 135.541 219.061 135.116 219.067 134.92C219.058 134.625 219.533 134.906 219.668 135.011Z" fill="black"/>
<path opacity="0.1" d="M219.344 111.866C219.769 112.243 220.237 112.565 220.738 112.825C222.05 113.511 223.502 113.872 224.822 114.527C225.473 114.869 226.106 115.247 226.716 115.662C228.025 116.513 229.332 117.364 230.638 118.229C230.953 118.416 231.244 118.644 231.503 118.907C231.975 119.429 231.972 120.325 232.403 120.892C232.641 121.173 232.934 121.398 233.261 121.555C233.589 121.711 233.945 121.795 234.305 121.8C235.028 121.806 235.746 121.682 236.427 121.431C236.84 121.305 237.245 121.153 237.64 120.975C238.053 120.795 238.444 120.564 238.804 120.288C239.164 120.027 239.47 119.694 239.706 119.31C239.941 118.926 240.101 118.498 240.176 118.05C240.224 117.431 240.144 116.808 239.943 116.223C239.834 115.842 239.695 115.471 239.526 115.114C239.429 114.911 239.317 114.717 239.191 114.532C238.291 113.213 236.704 112.592 235.17 112.283C234.36 112.121 233.537 112.022 232.724 111.88C232.335 111.97 231.939 112.033 231.541 112.067C230.295 112.158 229.071 111.812 227.858 111.469L226.546 111.094C225.89 110.907 225.561 110.087 224.899 109.943C224.602 109.896 224.298 109.913 224.007 109.991C222.659 110.255 221.298 110.598 220.11 111.307C219.84 111.472 219.584 111.659 219.344 111.866Z" fill="black"/>
<path d="M216.147 93.7139C216.314 95.3677 217.665 96.5818 218.488 98.0087C218.889 98.7037 219.169 99.4639 219.528 100.182C219.939 100.967 220.398 101.725 220.901 102.451L222.369 104.655C223.234 105.951 224.107 107.259 225.21 108.343C227.131 108.68 228.751 110.158 230.576 110.876C232.039 111.443 233.631 111.528 235.165 111.838C236.699 112.147 238.286 112.765 239.186 114.087C239.523 114.61 239.777 115.184 239.938 115.789C240.139 116.373 240.219 116.995 240.172 117.613C240.097 118.062 239.937 118.491 239.702 118.875C239.466 119.26 239.159 119.592 238.799 119.854C238.077 120.371 237.274 120.755 236.425 120.989C235.744 121.238 235.026 121.363 234.303 121.358C233.942 121.352 233.586 121.268 233.258 121.112C232.93 120.956 232.637 120.73 232.398 120.45C231.97 119.883 231.973 118.978 231.501 118.464C231.241 118.202 230.951 117.974 230.636 117.786L226.714 115.233C226.103 114.819 225.471 114.44 224.82 114.099C223.5 113.432 222.048 113.072 220.736 112.396C219.424 111.721 218.203 110.578 217.945 109.083C217.146 104.491 214.069 100.618 211.439 96.8257C211.525 96.8087 211.5 96.6045 211.53 96.5194C211.911 95.6292 212.594 94.9145 213.451 94.511C214.297 94.0373 215.235 93.9153 216.147 93.7139Z" fill="#2FD0A9"/>
<path d="M230.011 93.7479C229.961 93.25 230.057 92.7482 230.285 92.3068C230.722 91.5579 231.633 91.2941 232.462 91.1182C233.291 90.9423 234.054 90.8062 234.855 90.687C235.507 90.5515 236.178 90.5391 236.834 90.6502C237.729 90.8544 238.481 91.4756 239.304 91.8586C240.292 92.3153 241.39 92.4259 242.444 92.6869C243.498 92.9479 244.583 93.3649 245.244 94.2528C245.746 94.9251 245.947 95.7846 246.098 96.6214C247.352 103.608 246.002 110.774 245.746 117.874C245.645 120.637 245.766 123.59 247.294 125.862L242.845 125.74C241.706 125.709 240.482 125.647 239.587 124.921C238.797 124.282 238.423 123.253 238.088 122.28C237.785 121.524 237.593 120.725 237.518 119.911C237.449 118.243 238.366 116.606 238.066 114.964C237.844 113.738 236.969 112.745 236.057 111.943C235.146 111.14 234.109 110.439 233.359 109.46C232.028 107.716 231.773 105.336 231.937 103.12C232.036 101.804 232.267 100.485 232.154 99.1688C232.098 98.1617 231.747 97.1961 231.147 96.4002C230.447 95.5265 230.077 94.9818 230.011 93.7479Z" fill="#434175"/>
<path opacity="0.1" d="M230.285 92.3071C230.713 91.5696 231.603 91.3029 232.418 91.1299C231.985 91.2871 231.614 91.5859 231.361 91.9809C231.134 92.4239 231.039 92.9261 231.086 93.4248C231.147 94.6588 231.517 95.2034 232.226 96.0771C232.828 96.8719 233.18 97.838 233.236 98.8458C233.345 100.162 233.118 101.478 233.019 102.797C232.851 105.01 233.107 107.393 234.441 109.137C235.187 110.116 236.216 110.814 237.139 111.619C238.061 112.425 238.926 113.415 239.148 114.641C239.444 116.28 238.528 117.92 238.599 119.588C238.672 120.402 238.863 121.199 239.167 121.954C239.505 122.929 239.878 123.959 240.666 124.597C241.561 125.324 242.787 125.386 243.927 125.417L247.077 125.502C247.146 125.622 247.22 125.741 247.297 125.857L242.848 125.735C241.709 125.704 240.485 125.641 239.59 124.915C238.799 124.277 238.426 123.247 238.091 122.274C237.788 121.518 237.595 120.72 237.52 119.906C237.452 118.238 238.368 116.601 238.069 114.958C237.847 113.733 236.971 112.74 236.06 111.937C235.149 111.134 234.111 110.434 233.362 109.455C232.031 107.71 231.775 105.33 231.94 103.115C232.039 101.799 232.269 100.48 232.157 99.1635C232.101 98.1564 231.749 97.1907 231.15 96.3948C230.441 95.5211 230.071 94.9765 230.008 93.7425C229.961 93.2462 230.057 92.7466 230.285 92.3071Z" fill="black"/>
<path opacity="0.1" d="M196.859 164.312L205.033 184.892C205.497 184.549 205.885 184.107 206.17 183.596C205.514 181.043 204.841 178.424 203.504 176.158C203.068 175.42 202.568 174.739 202.132 173.999C200.834 171.886 200.565 169.222 199.08 167.245C198.938 167.046 198.862 166.805 198.862 166.558C198.862 166.311 198.938 166.071 199.08 165.872C199.25 165.642 199.525 165.424 199.472 165.137C199.434 164.93 199.225 164.743 199.305 164.55C199.343 164.456 199.437 164.405 199.508 164.337C199.761 164.099 199.728 163.687 199.752 163.336C199.807 162.439 200.326 161.654 200.828 160.922C200.93 160.749 201.065 160.6 201.224 160.482C201.358 160.397 201.517 160.357 201.652 160.272C202.124 159.969 202.091 159.254 202.319 158.723C202.615 158.025 203.362 157.671 203.853 157.106C204.476 156.386 204.633 155.384 205.291 154.755L205.349 154.607L204.731 150.636L196.859 164.312Z" fill="black"/>
<path d="M268.178 188.891C273.324 188.891 277.496 188.062 277.496 187.039C277.496 186.016 273.324 185.187 268.178 185.187C263.031 185.187 258.859 186.016 258.859 187.039C258.859 188.062 263.031 188.891 268.178 188.891Z" fill="#0155E1"/>
<path d="M268.332 187.717C268.931 187.717 269.416 187.061 269.416 186.251C269.416 185.441 268.931 184.784 268.332 184.784C267.733 184.784 267.248 185.441 267.248 186.251C267.248 187.061 267.733 187.717 268.332 187.717Z" fill="#3F3D56"/>
<path d="M268.332 185.924C268.931 185.924 269.416 185.268 269.416 184.458C269.416 183.648 268.931 182.991 268.332 182.991C267.733 182.991 267.248 183.648 267.248 184.458C267.248 185.268 267.733 185.924 268.332 185.924Z" fill="#3F3D56"/>
<path d="M268.332 184.128C268.931 184.128 269.416 183.472 269.416 182.662C269.416 181.852 268.931 181.195 268.332 181.195C267.733 181.195 267.248 181.852 267.248 182.662C267.248 183.472 267.733 184.128 268.332 184.128Z" fill="#3F3D56"/>
<path d="M268.332 182.335C268.931 182.335 269.416 181.679 269.416 180.869C269.416 180.059 268.931 179.402 268.332 179.402C267.733 179.402 267.248 180.059 267.248 180.869C267.248 181.679 267.733 182.335 268.332 182.335Z" fill="#3F3D56"/>
<path d="M268.332 180.541C268.931 180.541 269.416 179.884 269.416 179.074C269.416 178.264 268.931 177.607 268.332 177.607C267.733 177.607 267.248 178.264 267.248 179.074C267.248 179.884 267.733 180.541 268.332 180.541Z" fill="#3F3D56"/>
<path d="M268.332 178.747C268.931 178.747 269.416 178.09 269.416 177.28C269.416 176.47 268.931 175.813 268.332 175.813C267.733 175.813 267.248 176.47 267.248 177.28C267.248 178.09 267.733 178.747 268.332 178.747Z" fill="#3F3D56"/>
<path d="M268.332 176.954C268.931 176.954 269.416 176.297 269.416 175.487C269.416 174.677 268.931 174.021 268.332 174.021C267.733 174.021 267.248 174.677 267.248 175.487C267.248 176.297 267.733 176.954 268.332 176.954Z" fill="#3F3D56"/>
<path d="M264.27 163.211C264.122 163.015 263.987 162.81 263.866 162.595L266.715 162.11L263.633 162.136C263.338 161.47 263.177 160.75 263.16 160.019C263.143 159.287 263.27 158.56 263.534 157.881L267.671 160.096L263.855 157.2C264.211 156.558 264.691 155.999 265.266 155.559C265.84 155.118 266.497 154.804 267.194 154.637C267.891 154.471 268.614 154.454 269.317 154.59C270.021 154.725 270.689 155.009 271.282 155.424C271.874 155.839 272.377 156.376 272.76 157.001C273.142 157.626 273.395 158.326 273.504 159.057C273.612 159.788 273.574 160.534 273.39 161.249C273.207 161.963 272.883 162.631 272.438 163.211C272.67 163.513 272.869 163.841 273.031 164.189L269.331 166.175L273.278 164.808C273.459 165.363 273.552 165.944 273.553 166.53C273.554 167.735 273.161 168.906 272.438 169.851C273.041 170.644 273.416 171.595 273.52 172.597C273.624 173.599 273.454 174.611 273.028 175.517C272.602 176.424 271.937 177.188 271.111 177.723C270.284 178.257 269.329 178.541 268.354 178.541C267.379 178.541 266.424 178.257 265.597 177.723C264.771 177.188 264.106 176.424 263.68 175.517C263.254 174.611 263.084 173.599 263.188 172.597C263.292 171.595 263.667 170.644 264.27 169.851C263.55 168.905 263.158 167.735 263.158 166.531C263.158 165.327 263.55 164.157 264.27 163.211Z" fill="#0155E1"/>
<path opacity="0.1" d="M273.553 166.529C273.554 167.734 273.161 168.905 272.438 169.851C273.041 170.643 273.416 171.594 273.52 172.596C273.624 173.598 273.454 174.61 273.028 175.517C272.602 176.423 271.937 177.187 271.111 177.722C270.284 178.257 269.329 178.54 268.354 178.54C267.379 178.54 266.424 178.257 265.597 177.722C264.771 177.187 264.106 176.423 263.68 175.517C263.254 174.61 263.084 173.598 263.188 172.596C263.292 171.594 263.667 170.643 264.27 169.851C263.573 168.937 273.553 165.928 273.553 166.529Z" fill="black"/>
<path d="M286.325 167.712C289.786 167.712 292.591 167.155 292.591 166.467C292.591 165.779 289.786 165.222 286.325 165.222C282.864 165.222 280.059 165.779 280.059 166.467C280.059 167.155 282.864 167.712 286.325 167.712Z" fill="#0155E1"/>
<path d="M286.431 166.927C286.835 166.927 287.161 166.485 287.161 165.939C287.161 165.394 286.835 164.952 286.431 164.952C286.028 164.952 285.701 165.394 285.701 165.939C285.701 166.485 286.028 166.927 286.431 166.927Z" fill="#3F3D56"/>
<path d="M286.431 165.72C286.835 165.72 287.161 165.278 287.161 164.733C287.161 164.188 286.835 163.746 286.431 163.746C286.028 163.746 285.701 164.188 285.701 164.733C285.701 165.278 286.028 165.72 286.431 165.72Z" fill="#3F3D56"/>
<path d="M286.431 164.512C286.835 164.512 287.161 164.07 287.161 163.525C287.161 162.98 286.835 162.538 286.431 162.538C286.028 162.538 285.701 162.98 285.701 163.525C285.701 164.07 286.028 164.512 286.431 164.512Z" fill="#3F3D56"/>
<path d="M286.431 163.306C286.835 163.306 287.161 162.864 287.161 162.319C287.161 161.774 286.835 161.332 286.431 161.332C286.028 161.332 285.701 161.774 285.701 162.319C285.701 162.864 286.028 163.306 286.431 163.306Z" fill="#3F3D56"/>
<path d="M286.431 162.101C286.835 162.101 287.161 161.659 287.161 161.114C287.161 160.569 286.835 160.127 286.431 160.127C286.028 160.127 285.701 160.569 285.701 161.114C285.701 161.659 286.028 162.101 286.431 162.101Z" fill="#3F3D56"/>
<path d="M286.431 160.895C286.835 160.895 287.161 160.453 287.161 159.908C287.161 159.363 286.835 158.921 286.431 158.921C286.028 158.921 285.701 159.363 285.701 159.908C285.701 160.453 286.028 160.895 286.431 160.895Z" fill="#3F3D56"/>
<path d="M286.431 159.687C286.835 159.687 287.161 159.245 287.161 158.7C287.161 158.155 286.835 157.713 286.431 157.713C286.028 157.713 285.701 158.155 285.701 158.7C285.701 159.245 286.028 159.687 286.431 159.687Z" fill="#3F3D56"/>
<path d="M283.7 150.448C283.598 150.317 283.506 150.179 283.426 150.033L285.347 149.707L283.275 149.724C283.063 149.251 282.953 148.736 282.954 148.215C282.953 147.751 283.039 147.292 283.206 146.862L285.989 148.354L283.423 146.405C283.661 145.972 283.983 145.594 284.37 145.295C284.756 144.997 285.198 144.784 285.668 144.671C286.138 144.557 286.625 144.546 287.099 144.637C287.574 144.728 288.025 144.919 288.424 145.199C288.823 145.479 289.162 145.841 289.419 146.263C289.676 146.685 289.846 147.158 289.917 147.651C289.989 148.144 289.961 148.647 289.835 149.128C289.71 149.609 289.489 150.059 289.187 150.448C289.342 150.651 289.476 150.872 289.585 151.106L287.098 152.442L289.75 151.52C289.937 152.091 289.984 152.701 289.886 153.296C289.788 153.89 289.547 154.45 289.187 154.924C289.594 155.457 289.847 156.097 289.918 156.772C289.99 157.447 289.875 158.128 289.589 158.739C289.303 159.35 288.855 159.865 288.299 160.225C287.742 160.586 287.099 160.777 286.442 160.777C285.785 160.777 285.142 160.586 284.585 160.225C284.029 159.865 283.582 159.35 283.295 158.739C283.009 158.128 282.895 157.447 282.966 156.772C283.037 156.097 283.29 155.457 283.697 154.924C283.212 154.288 282.948 153.501 282.948 152.691C282.948 151.881 283.212 151.095 283.697 150.459L283.7 150.448Z" fill="#0155E1"/>
<path opacity="0.1" d="M289.939 152.681C289.94 153.491 289.677 154.277 289.193 154.914C289.6 155.447 289.853 156.087 289.924 156.762C289.995 157.436 289.881 158.118 289.595 158.729C289.308 159.34 288.861 159.855 288.305 160.215C287.748 160.576 287.105 160.767 286.448 160.767C285.791 160.767 285.148 160.576 284.591 160.215C284.035 159.855 283.588 159.34 283.301 158.729C283.015 158.118 282.901 157.436 282.972 156.762C283.043 156.087 283.296 155.447 283.703 154.914C283.231 154.298 289.939 152.276 289.939 152.681Z" fill="black"/>
</g>
<defs>
<radialGradient id="paint0_radial" cx="0" cy="0" r="1" gradientUnits="userSpaceOnUse" gradientTransform="translate(134 92) rotate(90) scale(132.583)">
<stop stop-color="#DAEAF9"/>
<stop offset="1" stop-color="#DAEAF9" stop-opacity="0"/>
</radialGradient>
<linearGradient id="paint1_linear" x1="218.473" y1="196.92" x2="218.473" y2="84.6822" gradientUnits="userSpaceOnUse">
<stop stop-color="#808080" stop-opacity="0.25"/>
<stop offset="0.54" stop-color="#808080" stop-opacity="0.12"/>
<stop offset="1" stop-color="#808080" stop-opacity="0.1"/>
</linearGradient>
<clipPath id="clip0">
<rect width="314" height="198" fill="white"/>
</clipPath>
</defs>
</svg>
