<svg width="225" height="160" viewBox="0 0 225 160" fill="none" xmlns="http://www.w3.org/2000/svg">
<g clip-path="url(#clip0)">
<circle cx="114" cy="76" r="172" fill="url(#paint0_radial)" fill-opacity="0.9"/>
<ellipse cx="110.594" cy="63.6274" rx="38.8983" ry="40.4379" fill="#0155E1"/>
<path d="M2.99223 12.4365H61.4387C62.232 12.4375 62.9926 12.766 63.5535 13.35C64.1145 13.934 64.43 14.7259 64.4309 15.5518V105.784C64.43 106.61 64.1145 107.402 63.5535 107.986C62.9926 108.57 62.232 108.899 61.4387 108.899H2.99223C2.19891 108.899 1.43835 108.57 0.877392 107.986C0.316434 107.402 0.000891825 106.61 0 105.784V15.5518C0.000896746 14.7259 0.316439 13.934 0.877397 13.35C1.43835 12.766 2.19892 12.4375 2.99223 12.4365Z" fill="#F2F2F2"/>
<path d="M3.71722 14.7021H60.7129C61.1216 14.7026 61.5134 14.8719 61.8024 15.1727C62.0914 15.4736 62.2539 15.8815 62.2544 16.307V105.029C62.2539 105.454 62.0914 105.862 61.8024 106.163C61.5134 106.464 61.1216 106.633 60.7129 106.634H3.71722C3.30855 106.633 2.91674 106.464 2.62776 106.163C2.33878 105.862 2.17624 105.454 2.17578 105.029V16.307C2.17624 15.8815 2.33878 15.4736 2.62776 15.1727C2.91674 14.8719 3.30855 14.7026 3.71722 14.7021Z" fill="white"/>
<path d="M43.3257 47.8402C43.3257 53.5439 38.2602 52.6812 32.0115 52.6812C25.7628 52.6812 20.6973 53.5439 20.6973 47.8402C20.6973 42.1365 23.1717 32.0264 32.0115 32.0264C41.1559 32.0264 43.3257 42.1365 43.3257 47.8402Z" fill="#2F2E41"/>
<path d="M56.6363 96.1202C56.8629 95.6716 56.9924 95.1768 57.0155 94.6705C57.0386 94.1642 56.9548 93.6588 56.77 93.1899C56.5852 92.721 56.3039 92.2999 55.9459 91.9565C55.5879 91.613 55.162 91.3554 54.698 91.2018L41.7359 62.6533L35.8066 66.9821L50.4124 93.6832C50.2163 94.5118 50.319 95.3864 50.7009 96.1415C51.0829 96.8965 51.7175 97.4794 52.4847 97.7798C53.2519 98.0802 54.0982 98.0772 54.8634 97.7713C55.6285 97.4654 56.2593 96.8779 56.6363 96.1201V96.1202Z" fill="#FFB8B8"/>
<path d="M45.3565 65.161L44.6156 63.954L44.2375 63.3344L41.3267 58.5838C40.8785 57.5409 40.0515 56.7256 39.0269 56.3165C38.0023 55.9074 36.8638 55.9379 35.8607 56.4013C34.8577 56.8647 34.0721 57.7232 33.676 58.7887C33.2799 59.8542 33.3057 61.0397 33.7477 62.0854L34.4143 64.5607L35.775 69.6212C35.8575 69.9326 36.0335 70.2085 36.2772 70.4086C36.3694 70.4891 36.4716 70.5564 36.5809 70.6087C36.7713 70.7024 36.9787 70.7529 37.1893 70.7568C37.3998 70.7607 37.6088 70.7179 37.8022 70.6313C37.8084 70.6281 37.8178 70.6249 37.824 70.6216L41.3454 68.9822L41.3516 68.9789L44.0391 67.7267L44.7087 67.4169C44.9007 67.328 45.072 67.197 45.2109 67.0329C45.358 66.8636 45.4661 66.6616 45.5269 66.4423C45.5898 66.2287 45.6071 66.0033 45.5776 65.782C45.5482 65.5607 45.4727 65.3488 45.3565 65.161Z" fill="#CCCCCC"/>
<path d="M26.7791 105.638C26.6474 105.41 26.462 105.222 26.2404 105.09C26.0189 104.958 25.7687 104.887 25.5135 104.885C25.2584 104.882 25.0069 104.948 24.7829 105.075C24.559 105.202 24.3701 105.387 24.2342 105.612C24.1754 105.704 24.1286 105.804 24.0948 105.909L23.918 106.416H27.2286L26.7791 105.638Z" fill="#2F2E41"/>
<path d="M31.9396 52.3532C36.1443 52.3532 39.553 48.8044 39.553 44.4266C39.553 40.0489 36.1443 36.5 31.9396 36.5C27.7348 36.5 24.3262 40.0489 24.3262 44.4266C24.3262 48.8044 27.7348 52.3532 31.9396 52.3532Z" fill="#FFB8B8"/>
<path d="M45.2856 67.872C45.2669 67.588 45.2421 67.3072 45.2112 67.0329C45.1012 65.9902 44.902 64.9598 44.616 63.954C44.5571 63.7346 44.492 63.5216 44.4207 63.3118C43.5143 60.5308 41.9392 58.0376 39.8455 56.0697C39.0165 55.2963 37.9425 54.8688 36.8294 54.8691H26.1041C25.4455 54.8692 24.7949 55.0191 24.1977 55.3083C23.6006 55.5976 23.0714 56.0191 22.6471 56.5436C22.2228 57.068 21.9137 57.6826 21.7414 58.3444C21.5691 59.0062 21.5378 59.6992 21.6496 60.3749C21.6465 60.3782 21.6465 60.3782 21.6496 60.3814C21.7253 60.8325 21.8643 61.2697 22.0619 61.6788L22.4959 62.5792L25.4034 68.6336L29.0209 76.1662L29.2317 76.6051L42.7128 80.465L42.7685 80.3327C42.8181 80.2165 42.8708 80.0971 42.9173 79.9809C42.9917 79.8066 43.063 79.6323 43.1343 79.4613C44.335 76.6178 45.0644 73.5832 45.2918 70.4861V70.4829C45.3425 69.6133 45.3404 68.7413 45.2856 67.872Z" fill="#3F3D56"/>
<path d="M43.1345 79.4616C43.0887 79.2973 43.0164 79.1423 42.9207 79.0033C42.5735 78.5199 42.1587 78.0934 41.69 77.7382L41.687 77.7349C40.0534 76.444 36.811 74.9401 30.5463 74.9014H30.5369C30.2499 74.9016 29.9689 74.9879 29.7276 75.1498C29.4863 75.3118 29.2949 75.5426 29.1761 75.8147L29.0211 76.1665L28.0231 78.4514C27.9379 78.6469 27.8042 78.8151 27.6356 78.9387C26.0516 80.107 18.3797 86.6585 22.8836 101.043C23.3237 102.446 23.7763 103.979 24.2351 105.612C24.3095 105.877 24.3839 106.145 24.4583 106.416H37.961L37.6727 104.157C37.6534 104.009 37.6608 103.86 37.6945 103.715L43.1283 80.3684L43.1531 80.2684C43.2153 80.0024 43.2088 79.7241 43.1345 79.4616Z" fill="#2F2E41"/>
<path d="M47.3713 53.3262H53.2609C53.5076 53.3262 53.7441 53.4282 53.9185 53.6098C54.0929 53.7913 54.1909 54.0376 54.1909 54.2944V55.908C54.273 55.9083 54.3517 55.9424 54.4098 56.0028C54.4679 56.0633 54.5006 56.1452 54.5009 56.2308V56.8762C54.5006 56.9617 54.4679 57.0437 54.4098 57.1041C54.3517 57.1646 54.273 57.1987 54.1909 57.1989V57.8444C54.273 57.8447 54.3517 57.8788 54.4098 57.9392C54.4679 57.9997 54.5006 58.0816 54.5009 58.1671V58.8126C54.5006 58.8981 54.4679 58.9801 54.4098 59.0405C54.3517 59.101 54.273 59.1351 54.1909 59.1353V67.8491C54.1909 68.1059 54.0929 68.3521 53.9185 68.5337C53.7441 68.7153 53.5076 68.8173 53.2609 68.8173H47.3713C47.1247 68.8173 46.8882 68.7153 46.7138 68.5337C46.5394 68.3521 46.4414 68.1059 46.4414 67.8491V54.2944C46.4414 54.0376 46.5394 53.7913 46.7138 53.6098C46.8882 53.4282 47.1247 53.3262 47.3713 53.3262Z" fill="#3F3D56"/>
<path d="M47.0614 67.8491V54.2944C47.0614 54.0376 47.1594 53.7913 47.3337 53.6098C47.5081 53.4282 47.7447 53.3262 47.9913 53.3262H47.3713C47.1247 53.3262 46.8882 53.4282 46.7138 53.6098C46.5394 53.7913 46.4414 54.0376 46.4414 54.2944V67.8491C46.4414 68.1059 46.5394 68.3521 46.7138 68.5337C46.8882 68.7153 47.1247 68.8173 47.3713 68.8173H47.9913C47.7447 68.8173 47.5081 68.7153 47.3337 68.5337C47.1594 68.3521 47.0614 68.1059 47.0614 67.8491Z" fill="#0155E1"/>
<path d="M50.1618 59.1356C50.8466 59.1356 51.4017 58.5576 51.4017 57.8446C51.4017 57.1317 50.8466 56.5537 50.1618 56.5537C49.477 56.5537 48.9219 57.1317 48.9219 57.8446C48.9219 58.5576 49.477 59.1356 50.1618 59.1356Z" fill="white"/>
<path d="M48.5883 62.367C48.4876 62.5116 48.398 62.6642 48.3204 62.8235L33.0572 64.7324L30.8127 61.6247L25.8652 64.5384L29.3251 70.4421C29.6047 70.919 30.0252 71.2887 30.5237 71.4956C31.0222 71.7025 31.5717 71.7354 32.0897 71.5895L48.9722 66.8338C49.4519 67.3068 50.0586 67.6166 50.7116 67.7219C51.3646 67.8272 52.0329 67.723 52.6276 67.4232C53.2223 67.1235 53.7153 66.6422 54.041 66.0436C54.3666 65.445 54.5095 64.7574 54.4506 64.0722C54.3917 63.3869 54.1338 62.7366 53.7113 62.2077C53.2887 61.6788 52.7216 61.2964 52.0852 61.1113C51.4488 60.9262 50.7733 60.9472 50.1487 61.1715C49.524 61.3958 48.9797 61.8128 48.5883 62.367V62.367Z" fill="#FFB8B8"/>
<path d="M32.9297 62.7442L28.6519 56.9738C28.1746 56.0845 27.3917 55.4163 26.4606 55.1033C25.5295 54.7903 24.5191 54.8557 23.6324 55.2865C22.7457 55.7172 22.0484 56.4813 21.6806 57.4253C21.3128 58.3693 21.3017 59.4232 21.6496 60.3753C21.6464 60.3786 21.6464 60.3786 21.6496 60.3818C21.7133 60.5576 21.79 60.7281 21.8789 60.8917L22.4958 62.5796L24.3711 67.7272C24.442 67.9225 24.5527 68.0995 24.6956 68.2461C24.8385 68.3926 25.0102 68.5051 25.1989 68.5759C25.2653 68.6013 25.3338 68.6207 25.4034 68.634C25.7282 68.7031 26.066 68.6481 26.3551 68.4791L27.7128 67.6884L32.505 64.9C32.6794 64.7971 32.8307 64.6566 32.9488 64.488C33.0669 64.3193 33.1492 64.1265 33.1901 63.9222C33.2303 63.7179 33.2279 63.5069 33.183 63.3037C33.1381 63.1004 33.0517 62.9096 32.9297 62.7442Z" fill="#3F3D56"/>
<path d="M23.1777 45.9036H26.189L27.5174 41.1371L27.7831 45.9036H29.2223L29.9973 43.1231L30.1523 45.9036H40.8465C40.8465 40.1999 37.2382 35.5762 32.7871 35.5762H31.2372C26.7861 35.5762 23.1777 40.1999 23.1777 45.9036Z" fill="#2F2E41"/>
<path d="M111.484 39.8447H48.375C47.5817 39.8438 46.8212 39.5153 46.2602 38.9313C45.6992 38.3472 45.3837 37.5554 45.3828 36.7294V3.31064C45.3837 2.48469 45.6992 1.69283 46.2602 1.1088C46.8212 0.52476 47.5817 0.196241 48.375 0.195312H111.484C112.277 0.19624 113.037 0.52476 113.598 1.1088C114.159 1.69283 114.475 2.48469 114.476 3.31064V36.7294C114.475 37.5554 114.159 38.3472 113.598 38.9313C113.037 39.5153 112.277 39.8438 111.484 39.8447Z" fill="#CCCCCC"/>
<path d="M110.758 37.58H49.1C48.6914 37.5795 48.2996 37.4102 48.0106 37.1094C47.7216 36.8085 47.559 36.4006 47.5586 35.9751V4.06677C47.559 3.64128 47.7216 3.23335 48.0106 2.93249C48.2996 2.63162 48.6914 2.46239 49.1 2.46191H110.758C111.166 2.46239 111.558 2.63162 111.847 2.93249C112.136 3.23335 112.299 3.64128 112.299 4.06677V35.9751C112.299 36.4006 112.136 36.8085 111.847 37.1094C111.558 37.4102 111.166 37.5795 110.758 37.58Z" fill="white"/>
<path d="M52.1589 45.987C52.0058 45.9866 51.8544 45.9547 51.7132 45.8932C51.5024 45.805 51.3222 45.6526 51.196 45.456C51.0698 45.2593 51.0035 45.0276 51.0059 44.7911V38.649L59.8961 38.415L52.9617 45.6346C52.857 45.7457 52.7321 45.8341 52.5943 45.8946C52.4564 45.9551 52.3085 45.9865 52.1589 45.987Z" fill="#CCCCCC"/>
<path d="M103.25 18.5893H72.0584C71.8677 18.5895 71.6788 18.5507 71.5025 18.4749C71.3263 18.3991 71.1661 18.2879 71.0311 18.1476C70.8962 18.0074 70.7891 17.8407 70.7161 17.6573C70.6431 17.4739 70.6055 17.2774 70.6055 17.0788C70.6055 16.8803 70.6431 16.6837 70.7161 16.5003C70.7891 16.3169 70.8962 16.1503 71.0311 16.01C71.1661 15.8697 71.3263 15.7585 71.5025 15.6827C71.6788 15.6069 71.8677 15.5681 72.0584 15.5684H103.25C103.635 15.5684 104.004 15.7275 104.276 16.0108C104.548 16.294 104.701 16.6782 104.701 17.0788C104.701 17.4794 104.548 17.8636 104.276 18.1469C104.004 18.4301 103.635 18.5893 103.25 18.5893Z" fill="#CCCCCC"/>
<path d="M93.0943 12.1693H72.0582C71.6734 12.1693 71.3044 12.0102 71.0323 11.7269C70.7603 11.4437 70.6074 11.0595 70.6074 10.6589C70.6074 10.2583 70.7603 9.8741 71.0323 9.59084C71.3044 9.30757 71.6734 9.14844 72.0582 9.14844H93.0943C93.4791 9.14844 93.8481 9.30757 94.1202 9.59084C94.3923 9.8741 94.5451 10.2583 94.5451 10.6589C94.5451 11.0595 94.3923 11.4437 94.1202 11.7269C93.8481 12.0102 93.4791 12.1693 93.0943 12.1693Z" fill="#CCCCCC"/>
<path d="M59.1469 18.5888C61.6508 18.5888 63.6806 16.4755 63.6806 13.8686C63.6806 11.2617 61.6508 9.14844 59.1469 9.14844C56.6431 9.14844 54.6133 11.2617 54.6133 13.8686C54.6133 16.4755 56.6431 18.5888 59.1469 18.5888Z" fill="#0155E1"/>
<path d="M93.6383 30.891C94.4395 30.891 95.089 30.2148 95.089 29.3806C95.089 28.5464 94.4395 27.8701 93.6383 27.8701C92.837 27.8701 92.1875 28.5464 92.1875 29.3806C92.1875 30.2148 92.837 30.891 93.6383 30.891Z" fill="#E6E6E6"/>
<path d="M98.7164 30.891C99.5176 30.891 100.167 30.2148 100.167 29.3806C100.167 28.5464 99.5176 27.8701 98.7164 27.8701C97.9152 27.8701 97.2656 28.5464 97.2656 29.3806C97.2656 30.2148 97.9152 30.891 98.7164 30.891Z" fill="#E6E6E6"/>
<path d="M103.795 30.891C104.596 30.891 105.245 30.2148 105.245 29.3806C105.245 28.5464 104.596 27.8701 103.795 27.8701C102.993 27.8701 102.344 28.5464 102.344 29.3806C102.344 30.2148 102.993 30.891 103.795 30.891Z" fill="#E6E6E6"/>
<path d="M163.561 63.1055H222.007C222.8 63.1064 223.561 63.4349 224.122 64.019C224.683 64.603 224.998 65.3948 224.999 66.2208V156.453C224.998 157.279 224.683 158.071 224.122 158.655C223.561 159.239 222.8 159.568 222.007 159.568H163.561C162.767 159.568 162.007 159.239 161.446 158.655C160.885 158.071 160.569 157.279 160.568 156.453V66.2208C160.569 65.3948 160.885 64.603 161.446 64.019C162.007 63.4349 162.767 63.1064 163.561 63.1055Z" fill="#F2F2F2"/>
<path d="M164.288 65.3711H221.283C221.692 65.3716 222.084 65.5408 222.373 65.8417C222.662 66.1425 222.824 66.5505 222.825 66.9759V155.698C222.824 156.123 222.662 156.531 222.373 156.832C222.084 157.133 221.692 157.302 221.283 157.303H164.288C163.879 157.302 163.487 157.133 163.198 156.832C162.909 156.531 162.747 156.123 162.746 155.698V66.9759C162.747 66.5505 162.909 66.1425 163.198 65.8417C163.487 65.5408 163.879 65.3716 164.288 65.3711Z" fill="white"/>
<path d="M166.017 108.79H102.908C102.115 108.789 101.354 108.461 100.793 107.877C100.232 107.292 99.9169 106.501 99.916 105.675V72.2559C99.9169 71.43 100.232 70.6381 100.793 70.0541C101.354 69.4701 102.115 69.1416 102.908 69.1406H166.017C166.81 69.1416 167.571 69.4701 168.132 70.0541C168.692 70.6381 169.008 71.43 169.009 72.2559V105.675C169.008 106.501 168.692 107.293 168.132 107.877C167.571 108.461 166.81 108.789 166.017 108.79Z" fill="#CCCCCC"/>
<path d="M165.291 106.524H103.633C103.225 106.524 102.833 106.355 102.544 106.054C102.255 105.753 102.092 105.345 102.092 104.919V73.0111C102.092 72.5856 102.255 72.1777 102.544 71.8768C102.833 71.576 103.225 71.4067 103.633 71.4062H165.291C165.7 71.4067 166.091 71.576 166.38 71.8768C166.669 72.1777 166.832 72.5856 166.832 73.0111V104.919C166.832 105.345 166.669 105.753 166.38 106.054C166.091 106.355 165.7 106.524 165.291 106.524Z" fill="white"/>
<path d="M161.72 114.58L154.785 107.36L163.675 107.594V113.736C163.678 113.973 163.612 114.205 163.485 114.401C163.359 114.598 163.179 114.75 162.968 114.838C162.827 114.9 162.675 114.932 162.522 114.932C162.373 114.932 162.225 114.9 162.087 114.84C161.949 114.779 161.824 114.691 161.72 114.58Z" fill="#CCCCCC"/>
<path d="M157.783 87.5346H126.592C126.401 87.5349 126.212 87.496 126.036 87.4202C125.859 87.3445 125.699 87.2332 125.564 87.093C125.429 86.9527 125.322 86.7861 125.249 86.6027C125.176 86.4193 125.139 86.2227 125.139 86.0241C125.139 85.8256 125.176 85.629 125.249 85.4456C125.322 85.2622 125.429 85.0956 125.564 84.9553C125.699 84.815 125.859 84.7038 126.036 84.628C126.212 84.5522 126.401 84.5134 126.592 84.5137H157.783C157.974 84.5134 158.163 84.5522 158.339 84.628C158.515 84.7038 158.675 84.815 158.81 84.9553C158.945 85.0956 159.052 85.2622 159.125 85.4456C159.198 85.629 159.236 85.8256 159.236 86.0241C159.236 86.2227 159.198 86.4193 159.125 86.6027C159.052 86.7861 158.945 86.9527 158.81 87.093C158.675 87.2332 158.515 87.3445 158.339 87.4202C158.163 87.496 157.974 87.5349 157.783 87.5346Z" fill="#CCCCCC"/>
<path d="M147.628 81.1146H126.591C126.401 81.1146 126.212 81.0756 126.036 80.9997C125.86 80.9238 125.7 80.8125 125.566 80.6722C125.431 80.532 125.324 80.3655 125.251 80.1822C125.178 79.999 125.141 79.8025 125.141 79.6042C125.141 79.4058 125.178 79.2094 125.251 79.0262C125.324 78.8429 125.431 78.6764 125.566 78.5361C125.7 78.3959 125.86 78.2846 126.036 78.2087C126.212 78.1328 126.401 78.0937 126.591 78.0938H147.628C148.012 78.0938 148.381 78.2529 148.653 78.5361C148.925 78.8194 149.078 79.2036 149.078 79.6042C149.078 80.0048 148.925 80.389 148.653 80.6722C148.381 80.9555 148.012 81.1146 147.628 81.1146Z" fill="#CCCCCC"/>
<path d="M113.68 87.5341C116.184 87.5341 118.214 85.4208 118.214 82.8139C118.214 80.207 116.184 78.0938 113.68 78.0938C111.176 78.0938 109.146 80.207 109.146 82.8139C109.146 85.4208 111.176 87.5341 113.68 87.5341Z" fill="#0155E1"/>
<path d="M148.171 99.8364C148.973 99.8364 149.622 99.1601 149.622 98.3259C149.622 97.4917 148.973 96.8154 148.171 96.8154C147.37 96.8154 146.721 97.4917 146.721 98.3259C146.721 99.1601 147.37 99.8364 148.171 99.8364Z" fill="#E6E6E6"/>
<path d="M153.25 99.8364C154.051 99.8364 154.7 99.1601 154.7 98.3259C154.7 97.4917 154.051 96.8154 153.25 96.8154C152.448 96.8154 151.799 97.4917 151.799 98.3259C151.799 99.1601 152.448 99.8364 153.25 99.8364Z" fill="#E6E6E6"/>
<path d="M158.326 99.8364C159.127 99.8364 159.777 99.1601 159.777 98.3259C159.777 97.4917 159.127 96.8154 158.326 96.8154C157.525 96.8154 156.875 97.4917 156.875 98.3259C156.875 99.1601 157.525 99.8364 158.326 99.8364Z" fill="#E6E6E6"/>
<path d="M166.71 129.018C166.961 128.622 167.293 128.288 167.681 128.04C168.069 127.792 168.505 127.635 168.958 127.582C169.411 127.528 169.87 127.578 170.302 127.729C170.734 127.88 171.129 128.128 171.459 128.455L181.302 123.165L180.69 129.124L171.437 133.234C170.872 133.775 170.137 134.082 169.37 134.096C168.603 134.11 167.857 133.831 167.275 133.311C166.692 132.792 166.313 132.068 166.209 131.276C166.105 130.485 166.283 129.681 166.71 129.018Z" fill="#FFB8B8"/>
<path d="M197.358 102.524C196.595 101.902 195.658 101.553 194.689 101.53C193.72 101.508 192.77 101.812 191.98 102.398C191.624 102.664 191.306 102.981 191.035 103.34L182.393 120.029L174.417 126.302C174.152 126.51 173.968 126.808 173.896 127.145C173.842 127.391 173.851 127.649 173.924 127.89L174.708 130.524C174.792 130.807 174.956 131.057 175.179 131.24C175.266 131.308 175.36 131.367 175.458 131.415C175.47 131.421 175.483 131.427 175.495 131.431C175.669 131.508 175.857 131.548 176.046 131.548C176.235 131.547 176.422 131.506 176.596 131.427L185.945 127.206L186.047 127.158C189.198 125.706 191.743 123.123 193.217 119.88L198.133 109.078C198.862 108.101 199.189 106.863 199.044 105.635C198.899 104.406 198.293 103.288 197.358 102.524Z" fill="#3F3D56"/>
<path d="M198.348 96.3737C202.553 96.3737 205.961 92.8249 205.961 88.4471C205.961 84.0694 202.553 80.5205 198.348 80.5205C194.143 80.5205 190.734 84.0694 190.734 88.4471C190.734 92.8249 194.143 96.3737 198.348 96.3737Z" fill="#FFB8B8"/>
<path d="M203.503 141.455L203.425 140.838L203.066 138.027L202.672 134.958L201.274 135.207L200.734 135.3L200.189 135.397L200.009 135.429L186.141 137.882L184.414 136.801L184.377 136.778L184.393 136.943L184.718 140.457L186.271 157.246H205.527L203.503 141.455Z" fill="#2F2E41"/>
<path d="M208.834 109.204C208.587 106.329 207.282 103.664 205.191 101.768C203.18 99.913 200.543 98.9658 197.86 99.1344C195.303 99.3119 193.338 100.406 191.98 102.397C191.281 103.463 190.766 104.647 190.455 105.896C188.911 111.679 187.284 120.151 186.047 127.157C185.353 131.069 184.782 134.525 184.413 136.8C184.407 136.849 184.401 136.894 184.392 136.942C184.249 137.83 184.141 138.524 184.069 138.985C184.024 139.27 184.062 139.562 184.177 139.824C184.293 140.086 184.481 140.307 184.717 140.457C184.72 140.46 184.726 140.463 184.73 140.467C186.294 141.441 188.08 141.964 189.903 141.98C192.11 141.98 194.757 141.18 197.544 138.595C197.733 138.416 197.977 138.312 198.233 138.3C198.488 138.289 198.739 138.372 198.942 138.533L199.246 138.779L202.247 141.209C202.481 141.4 202.768 141.507 203.065 141.515C203.213 141.522 203.361 141.502 203.502 141.454C203.515 141.452 203.527 141.449 203.539 141.444C203.755 141.371 203.951 141.244 204.109 141.073C204.267 140.903 204.382 140.694 204.444 140.467C204.612 139.86 204.798 139.16 205.002 138.379C205.086 138.053 205.173 137.71 205.263 137.355C205.656 135.787 206.093 133.967 206.521 131.985C208.015 125.059 209.435 116.162 208.834 109.204Z" fill="#3F3D56"/>
<path d="M196.295 142.283C196.258 141.81 196.321 141.334 196.48 140.889C196.639 140.445 196.889 140.041 197.214 139.708C197.538 139.375 197.929 139.12 198.358 138.961C198.787 138.802 199.245 138.743 199.699 138.788L204.309 128.302L207.359 133.384L202.514 142.563C202.391 143.351 201.994 144.065 201.399 144.569C200.804 145.074 200.052 145.333 199.285 145.298C198.519 145.264 197.791 144.938 197.24 144.382C196.689 143.826 196.353 143.079 196.295 142.283Z" fill="#FFB8B8"/>
<path d="M211.739 118.063L209.203 106.402C209.197 105.252 208.785 104.144 208.045 103.29C207.306 102.435 206.29 101.894 205.192 101.768C205.034 101.752 204.873 101.742 204.708 101.742C204.116 101.744 203.53 101.867 202.984 102.104C202.438 102.342 201.942 102.69 201.525 103.127C201.108 103.564 200.777 104.083 200.553 104.653C200.329 105.224 200.214 105.834 200.217 106.451L203.31 125.134L203.301 125.172L201.661 131.617L200.753 135.197C200.744 135.23 200.737 135.265 200.734 135.3C200.676 135.6 200.715 135.912 200.843 136.187C200.946 136.419 201.107 136.617 201.308 136.762L203.066 138.027L203.484 138.33C203.717 138.499 203.994 138.589 204.278 138.588C204.387 138.588 204.496 138.575 204.603 138.55C204.615 138.546 204.625 138.543 204.637 138.54C204.766 138.505 204.889 138.451 205.003 138.379C205.214 138.245 205.387 138.056 205.505 137.83L210.359 128.5C212.017 125.309 212.508 121.601 211.739 118.063Z" fill="#3F3D56"/>
<path opacity="0.2" d="M200.834 114.329L203.623 126.593L199.594 136.92L202.384 126.916L200.834 114.329Z" fill="black"/>
<path d="M204.51 93.2114C205.148 92.9745 205.735 92.6084 206.236 92.1342C206.458 91.9282 206.696 91.7369 206.917 91.5311C208.869 89.7132 209.456 86.5869 208.585 84.0152C207.714 81.4435 205.547 79.4667 203.072 78.5758C200.596 77.6849 197.853 77.8065 195.339 78.5733C192.632 79.3992 189.92 81.2591 189.277 84.1191C189.106 84.8804 189.099 85.7249 189.597 86.3671C189.747 86.5611 189.943 86.7108 190.166 86.8012C191.043 87.1513 191.532 86.4365 192.187 86.1329C193.087 85.7156 194.195 86.1662 194.821 86.9579C195.448 87.7496 195.68 88.8012 195.776 89.8222C195.795 90.4516 195.89 91.076 196.058 91.681C196.146 91.9831 196.306 92.2569 196.523 92.4766C196.741 92.6962 197.009 92.8543 197.301 92.936C198.008 93.0718 198.687 92.5655 199.131 91.978C199.576 91.3906 199.891 90.6928 200.416 90.1826C200.941 89.6724 201.797 89.4031 202.373 89.8504C202.565 90.0198 202.728 90.2231 202.853 90.4511C203.735 91.8619 203.628 91.8006 204.51 93.2114H204.51Z" fill="#2F2E41"/>
<path d="M168.05 122.23L162.679 124.746C162.454 124.851 162.279 125.045 162.191 125.285C162.104 125.525 162.112 125.792 162.213 126.026L162.849 127.497C162.774 127.533 162.716 127.597 162.686 127.677C162.657 127.757 162.66 127.846 162.693 127.924L162.947 128.513C162.981 128.591 163.044 128.651 163.12 128.682C163.197 128.712 163.282 128.71 163.357 128.675L163.612 129.263C163.537 129.299 163.479 129.363 163.449 129.443C163.42 129.523 163.423 129.612 163.456 129.69L163.711 130.279C163.745 130.357 163.807 130.417 163.883 130.448C163.96 130.478 164.045 130.475 164.12 130.441L167.554 138.387C167.656 138.621 167.842 138.804 168.073 138.895C168.303 138.986 168.559 138.978 168.784 138.873L174.155 136.357C174.38 136.252 174.555 136.058 174.643 135.817C174.73 135.577 174.723 135.311 174.622 135.077L169.28 122.715C169.179 122.481 168.992 122.299 168.762 122.207C168.531 122.116 168.275 122.124 168.05 122.23Z" fill="#3F3D56"/>
<path d="M173.627 134.348L172.871 132.596L170.887 128.006L169.145 123.975C169.048 123.751 168.869 123.576 168.649 123.488C168.428 123.4 168.183 123.407 167.967 123.508L165.01 124.892L163.655 125.528C163.44 125.629 163.272 125.815 163.189 126.045C163.105 126.275 163.112 126.53 163.209 126.754L165.01 130.924L165.701 132.521L167.691 137.13C167.789 137.354 167.968 137.529 168.189 137.616C168.411 137.703 168.656 137.695 168.872 137.595L173.181 135.574C173.396 135.473 173.563 135.287 173.647 135.057C173.731 134.827 173.723 134.572 173.627 134.348Z" fill="#0155E1"/>
</g>
<defs>
<radialGradient id="paint0_radial" cx="0" cy="0" r="1" gradientUnits="userSpaceOnUse" gradientTransform="translate(114 76) rotate(90) scale(132.583)">
<stop stop-color="#DAEAF9"/>
<stop offset="1" stop-color="#DAEAF9" stop-opacity="0"/>
</radialGradient>
<clipPath id="clip0">
<rect width="225" height="159.373" fill="white" transform="translate(0 0.195312)"/>
</clipPath>
</defs>
</svg>
