<svg width="212" height="183" viewBox="0 0 212 183" fill="none" xmlns="http://www.w3.org/2000/svg">
<g clip-path="url(#clip0)">
<ellipse cx="70.082" cy="74.426" rx="44.6777" ry="44.6555" fill="#0155E1"/>
<path d="M156.597 4.34863H149.06C149.406 5.19956 149.539 6.12279 149.445 7.03699C149.351 7.95119 149.034 8.82829 148.523 9.59104C148.011 10.3538 147.319 10.9788 146.509 11.4109C145.699 11.8431 144.795 12.0692 143.878 12.0692H110.796C109.878 12.0692 108.974 11.8431 108.164 11.4109C107.354 10.9788 106.663 10.3538 106.151 9.59104C105.639 8.82829 105.322 7.95119 105.229 7.03699C105.135 6.12279 105.267 5.19956 105.614 4.34863H98.5736C97.0266 4.34863 95.4946 4.65373 94.0653 5.24651C92.6361 5.8393 91.3374 6.70816 90.2434 7.80348C89.1495 8.8988 88.2817 10.1991 87.6897 11.6302C87.0977 13.0614 86.793 14.5952 86.793 16.1442V165.644C86.793 167.193 87.0977 168.726 87.6897 170.158C88.2817 171.589 89.1495 172.889 90.2434 173.984C91.3374 175.08 92.6361 175.948 94.0653 176.541C95.4946 177.134 97.0266 177.439 98.5736 177.439H156.597C158.144 177.439 159.676 177.134 161.106 176.541C162.535 175.948 163.834 175.08 164.927 173.984C166.021 172.889 166.889 171.589 167.481 170.158C168.073 168.726 168.378 167.193 168.378 165.644V16.1442C168.378 14.5952 168.073 13.0614 167.481 11.6302C166.889 10.1991 166.021 8.8988 164.927 7.80348C163.833 6.70816 162.535 5.8393 161.106 5.24651C159.676 4.65373 158.144 4.34863 156.597 4.34863Z" fill="#E6E6E6"/>
<path d="M155.961 181.787H98.2151C93.9694 181.783 89.899 180.092 86.8968 177.086C83.8947 174.08 82.206 170.004 82.2012 165.753V16.0342C82.206 11.7831 83.8947 7.70753 86.8969 4.70159C89.899 1.69564 93.9694 0.00479067 98.2151 0H155.961C160.206 0.00479773 164.277 1.69565 167.279 4.70161C170.281 7.70756 171.97 11.7831 171.974 16.0342V43.0859H172.969V62.9899H171.974V165.753C171.97 170.004 170.281 174.08 167.279 177.086C164.277 180.092 160.206 181.783 155.961 181.787ZM98.2151 0.478085C94.096 0.482731 90.147 2.12316 87.2343 5.03948C84.3217 7.95581 82.6833 11.9099 82.6786 16.0342V165.753C82.6833 169.877 84.3217 173.832 87.2343 176.748C90.1469 179.664 94.096 181.305 98.2151 181.309H155.961C160.08 181.305 164.029 179.664 166.941 176.748C169.854 173.831 171.492 169.877 171.497 165.753V62.5118H172.492V43.564H171.497V16.0342C171.492 11.9099 169.854 7.95587 166.941 5.03955C164.029 2.12323 160.08 0.48278 155.961 0.478085H98.2151Z" fill="#E6E6E6"/>
<path d="M66.8853 97.1436L70.7053 103.068L83.1277 102.968C83.1277 102.968 88.35 100.016 89.4 103.909C89.7597 105.242 84.2931 105.603 83.7784 105.634C82.4915 105.713 69.657 107.942 68.8646 106.801C68.0722 105.659 63.9043 101.67 63.9043 101.67L66.8853 97.1436Z" fill="#FFB8B8"/>
<path d="M102.996 28.1279C102.774 28.1282 102.562 28.2164 102.405 28.3733C102.249 28.5301 102.16 28.7428 102.16 28.9646V78.2074C102.16 78.4292 102.249 78.6418 102.405 78.7987C102.562 78.9555 102.774 79.0437 102.996 79.044H152.176C152.397 79.0437 152.61 78.9555 152.766 78.7987C152.923 78.6418 153.011 78.4292 153.012 78.2074V28.9646C153.011 28.7428 152.923 28.5301 152.766 28.3733C152.61 28.2164 152.397 28.1282 152.176 28.1279H102.996Z" fill="white"/>
<path d="M147.863 86.0915H138.816C138.25 81.0526 139.498 77.2968 138.816 75.2217H147.863C147.515 78.8366 147.515 82.4766 147.863 86.0915Z" fill="#0155E1"/>
<path d="M165.664 98.2871H89.5059V132.709H165.664V98.2871Z" fill="#CCCCCC"/>
<path d="M143.344 52.9613C143.344 56.0732 142.422 59.1151 140.695 61.7026C138.969 64.29 136.515 66.3066 133.643 67.4975C130.772 68.6883 127.612 68.9999 124.564 68.3928C121.516 67.7857 118.716 66.2872 116.518 64.0868C114.321 61.8864 112.824 59.0829 112.218 56.0308C111.612 52.9788 111.923 49.8152 113.112 46.9403C114.302 44.0653 116.316 41.608 118.9 39.8792C121.484 38.1503 124.522 37.2275 127.63 37.2275C129.694 37.2266 131.737 37.6329 133.644 38.4232C135.551 39.2136 137.284 40.3725 138.743 41.8337C140.203 43.2949 141.36 45.0298 142.149 46.9391C142.939 48.8485 143.345 50.8949 143.344 52.9613Z" fill="#0155E1"/>
<path d="M87.7629 96.4346C87.6046 96.4348 87.4529 96.4978 87.341 96.6098C87.2291 96.7218 87.1662 96.8737 87.166 97.0322V130.02C87.1662 130.179 87.2291 130.33 87.341 130.442C87.4529 130.554 87.6046 130.618 87.7629 130.618H162.488C162.646 130.618 162.798 130.555 162.91 130.442C163.022 130.33 163.085 130.179 163.085 130.02V97.0322C163.085 96.8737 163.022 96.7218 162.91 96.6098C162.798 96.4978 162.646 96.4347 162.488 96.4346H87.7629Z" fill="white"/>
<path d="M140.508 103.593C140.414 103.593 140.323 103.631 140.255 103.698C140.188 103.765 140.15 103.856 140.15 103.951V105.69C140.15 105.785 140.188 105.876 140.255 105.943C140.323 106.01 140.414 106.048 140.508 106.048H150.732C150.827 106.048 150.918 106.01 150.985 105.943C151.053 105.876 151.09 105.785 151.09 105.69V103.951C151.09 103.856 151.053 103.765 150.985 103.698C150.918 103.631 150.827 103.593 150.732 103.593H140.508Z" fill="#0155E1"/>
<path d="M101.798 103.593C101.703 103.593 101.612 103.631 101.544 103.698C101.477 103.765 101.44 103.856 101.439 103.951V105.69C101.44 105.785 101.477 105.876 101.544 105.943C101.612 106.01 101.703 106.048 101.798 106.048H104.776C104.871 106.048 104.962 106.01 105.029 105.943C105.096 105.876 105.134 105.785 105.134 105.69V103.951C105.134 103.856 105.096 103.765 105.029 103.698C104.962 103.631 104.871 103.593 104.776 103.593H101.798Z" fill="#0155E1"/>
<path d="M93.9304 103.593C93.8354 103.593 93.7444 103.631 93.6773 103.698C93.6101 103.765 93.5724 103.856 93.5723 103.951V105.69C93.5724 105.785 93.6101 105.876 93.6773 105.943C93.7444 106.01 93.8354 106.048 93.9304 106.048H96.9087C97.0036 106.048 97.0946 106.01 97.1618 105.943C97.2289 105.876 97.2667 105.785 97.2668 105.69V103.951C97.2667 103.856 97.2289 103.765 97.1618 103.698C97.0946 103.631 97.0036 103.593 96.9087 103.593H93.9304Z" fill="#0155E1"/>
<path d="M109.872 103.593C109.777 103.593 109.686 103.631 109.619 103.698C109.552 103.765 109.514 103.856 109.514 103.951V105.69C109.514 105.785 109.552 105.876 109.619 105.943C109.686 106.01 109.777 106.048 109.872 106.048H135.622C135.717 106.048 135.808 106.01 135.875 105.943C135.942 105.876 135.98 105.785 135.98 105.69V103.951C135.98 103.856 135.942 103.765 135.875 103.698C135.808 103.631 135.717 103.593 135.622 103.593H109.872Z" fill="#0155E1"/>
<path d="M115.874 121.004C115.779 121.004 115.688 121.042 115.621 121.109C115.553 121.176 115.516 121.267 115.516 121.362V123.101C115.516 123.196 115.553 123.287 115.621 123.355C115.688 123.422 115.779 123.46 115.874 123.46H118.852C118.947 123.46 119.038 123.422 119.105 123.355C119.172 123.287 119.21 123.196 119.21 123.101V121.362C119.21 121.267 119.172 121.176 119.105 121.109C119.038 121.042 118.947 121.004 118.852 121.004H115.874Z" fill="#0155E1"/>
<path d="M108.008 121.004C107.914 121.004 107.823 121.042 107.755 121.109C107.688 121.176 107.65 121.267 107.65 121.362V123.101C107.65 123.196 107.688 123.287 107.755 123.355C107.823 123.422 107.914 123.46 108.008 123.46H110.987C111.082 123.46 111.173 123.422 111.24 123.355C111.307 123.287 111.345 123.196 111.345 123.101V121.362C111.345 121.267 111.307 121.176 111.24 121.109C111.173 121.042 111.082 121.004 110.987 121.004H108.008Z" fill="#0155E1"/>
<path d="M123.948 121.004C123.853 121.004 123.762 121.042 123.695 121.109C123.628 121.176 123.59 121.267 123.59 121.362V123.101C123.59 123.196 123.628 123.287 123.695 123.355C123.762 123.422 123.853 123.46 123.948 123.46H149.698C149.793 123.46 149.884 123.422 149.951 123.355C150.018 123.287 150.056 123.196 150.056 123.101V121.362C150.056 121.267 150.018 121.176 149.951 121.109C149.884 121.042 149.793 121.004 149.698 121.004H123.948Z" fill="#0155E1"/>
<path d="M108.423 109.603C108.328 109.603 108.237 109.64 108.169 109.708C108.102 109.775 108.065 109.866 108.064 109.961V111.7C108.065 111.795 108.102 111.886 108.169 111.953C108.237 112.02 108.328 112.058 108.423 112.058H118.646C118.741 112.058 118.832 112.02 118.899 111.953C118.967 111.886 119.004 111.795 119.004 111.7V109.961C119.004 109.866 118.967 109.775 118.899 109.708C118.832 109.64 118.741 109.603 118.646 109.603H108.423Z" fill="#0155E1"/>
<path d="M93.3093 109.603C93.2143 109.603 93.1233 109.64 93.0562 109.708C92.989 109.775 92.9513 109.866 92.9512 109.961V111.7C92.9513 111.795 92.989 111.886 93.0562 111.953C93.1233 112.02 93.2143 112.058 93.3093 112.058H103.533C103.628 112.058 103.719 112.02 103.786 111.953C103.853 111.886 103.891 111.795 103.891 111.7V109.961C103.891 109.866 103.853 109.775 103.786 109.708C103.719 109.64 103.628 109.603 103.533 109.603H93.3093Z" fill="#0155E1"/>
<path d="M153.966 109.603C153.871 109.603 153.78 109.64 153.712 109.708C153.645 109.775 153.608 109.866 153.607 109.961V111.7C153.608 111.795 153.645 111.886 153.712 111.953C153.78 112.02 153.871 112.058 153.966 112.058H156.944C157.039 112.058 157.13 112.02 157.197 111.953C157.264 111.886 157.302 111.795 157.302 111.7V109.961C157.302 109.866 157.264 109.775 157.197 109.708C157.13 109.64 157.039 109.603 156.944 109.603H153.966Z" fill="#0155E1"/>
<path d="M123.327 109.603C123.232 109.603 123.141 109.64 123.074 109.708C123.007 109.775 122.969 109.866 122.969 109.961V111.7C122.969 111.795 123.007 111.886 123.074 111.953C123.141 112.02 123.232 112.058 123.327 112.058H149.077C149.171 112.058 149.263 112.02 149.33 111.953C149.397 111.886 149.435 111.795 149.435 111.7V109.961C149.435 109.866 149.397 109.775 149.33 109.708C149.263 109.64 149.171 109.603 149.077 109.603H123.327Z" fill="#0155E1"/>
<path d="M131.608 115.406C131.513 115.406 131.422 115.444 131.355 115.511C131.288 115.579 131.25 115.67 131.25 115.765V117.503C131.25 117.598 131.288 117.689 131.355 117.757C131.422 117.824 131.513 117.862 131.608 117.862H141.832C141.927 117.862 142.018 117.824 142.085 117.757C142.152 117.689 142.19 117.598 142.19 117.503V115.765C142.19 115.67 142.152 115.579 142.085 115.511C142.018 115.444 141.927 115.406 141.832 115.406H131.608Z" fill="#0155E1"/>
<path d="M146.719 115.406C146.624 115.406 146.533 115.444 146.466 115.511C146.399 115.579 146.361 115.67 146.361 115.765V117.503C146.361 117.598 146.399 117.689 146.466 117.757C146.533 117.824 146.624 117.862 146.719 117.862H156.943C157.038 117.862 157.129 117.824 157.196 117.757C157.264 117.689 157.301 117.598 157.301 117.503V115.765C157.301 115.67 157.264 115.579 157.196 115.511C157.129 115.444 157.038 115.406 156.943 115.406H146.719Z" fill="#0155E1"/>
<path d="M93.3093 115.406C93.2143 115.406 93.1233 115.444 93.0562 115.511C92.989 115.579 92.9513 115.67 92.9512 115.765V117.503C92.9513 117.598 92.989 117.689 93.0562 117.757C93.1233 117.824 93.2143 117.862 93.3093 117.862H96.2877C96.3826 117.862 96.4736 117.824 96.5408 117.757C96.6079 117.689 96.6457 117.598 96.6458 117.503V115.765C96.6457 115.67 96.6079 115.579 96.5408 115.511C96.4736 115.444 96.3826 115.406 96.2877 115.406H93.3093Z" fill="#0155E1"/>
<path d="M101.176 115.406C101.082 115.406 100.99 115.444 100.923 115.511C100.856 115.579 100.818 115.67 100.818 115.765V117.503C100.818 117.598 100.856 117.689 100.923 117.757C100.99 117.824 101.082 117.862 101.176 117.862H126.926C127.021 117.862 127.112 117.824 127.179 117.757C127.247 117.689 127.284 117.598 127.284 117.503V115.765C127.284 115.67 127.247 115.579 127.179 115.511C127.112 115.444 127.021 115.406 126.926 115.406H101.176Z" fill="#0155E1"/>
<path d="M129.235 45.7593C129.235 45.7593 132.311 44.6595 134.288 49.0586C136.265 53.4577 139.34 58.2967 139.34 58.2967L137.583 58.7366C137.583 58.7366 137.144 55.6573 136.045 55.2174L136.484 59.1765C136.484 59.1765 123.304 63.7956 117.373 58.7366L117.592 57.197C117.592 57.197 116.714 57.4169 116.714 58.7366L116.055 58.0768C116.055 58.0768 116.714 56.757 118.691 54.9974C119.988 53.8425 120.434 51.6452 120.588 50.2714C120.702 49.1243 121.161 48.0387 121.903 47.157C123.217 45.6323 125.611 44.0119 129.235 45.7593Z" fill="#2F2E41"/>
<path d="M127.356 59.329C130.497 59.329 133.043 56.7798 133.043 53.6352C133.043 50.4906 130.497 47.9414 127.356 47.9414C124.216 47.9414 121.67 50.4906 121.67 53.6352C121.67 56.7798 124.216 59.329 127.356 59.329Z" fill="#FFB8B8"/>
<path d="M134.149 54.3258C131.96 52.8848 130.187 51.2252 129.015 49.2509C129.015 49.2509 124.997 53.3108 122.541 53.5138C120.085 53.7168 122.318 48.6419 122.318 48.6419L126.783 47.627L131.024 48.0329L134.373 50.0629L134.149 54.3258Z" fill="#2F2E41"/>
<path d="M129.496 58.1279H125.199V62.4307H129.496V58.1279Z" fill="#FFB8B8"/>
<path d="M135.785 66.4129C133.185 67.9924 130.183 68.7828 127.143 68.6882C124.103 68.5936 121.156 67.618 118.658 65.8798C119.182 64.7768 120.007 63.8448 121.038 63.192C122.069 62.5392 123.264 62.1923 124.483 62.1914H129.736C131.054 62.1913 132.341 62.5959 133.423 63.3507C134.504 64.1055 135.329 65.1743 135.785 66.4129Z" fill="#2F2E41"/>
<path d="M149.639 139.405H158.685C159.251 135.225 158.003 131.322 158.685 128.535H149.639C147.936 132.158 147.936 135.782 149.639 139.405Z" fill="#1AD294"/>
<path d="M142.541 137.428H133.494C133.833 133.249 134.927 129.346 133.494 126.559H142.541C144.244 130.182 144.244 133.805 142.541 137.428Z" fill="#0155E1"/>
<path d="M68.4291 75.5546C68.4291 75.5546 71.538 74.4429 73.5365 78.8898C75.5351 83.3367 78.6439 88.2282 78.6439 88.2282L76.8675 88.6729C76.8675 88.6729 76.4233 85.5601 75.313 85.1154L75.7572 89.1176C75.7572 89.1176 62.4335 93.7868 56.4378 88.6729L56.6599 87.1165C56.6599 87.1165 55.7716 87.3388 55.7716 88.6729L55.1055 88.0059C55.1055 88.0059 55.7717 86.6718 57.7702 84.8931C59.082 83.7256 59.5327 81.5044 59.6876 80.1157C59.8037 78.9562 60.2671 77.8588 61.0169 76.9675C62.3451 75.4263 64.7651 73.7882 68.4291 75.5546Z" fill="#2F2E41"/>
<path d="M50.4418 161.277L42.6992 172.772L49.9078 179.99L50.8422 178.119L49.2403 174.376C49.2403 174.376 49.5073 170.901 50.4418 169.965C51.3762 169.03 55.5145 163.416 55.5145 163.416L50.4418 161.277Z" fill="#FFB8B8"/>
<path d="M60.3205 124.119C60.3205 124.119 58.8524 126.446 61.9227 136.47C61.9227 136.47 47.6014 160.672 49.8707 162.276C52.1401 163.88 58.2812 167.429 59.8831 166.36C61.485 165.291 73.1357 129.065 73.1357 129.065L60.3205 124.119Z" fill="#2F2E41"/>
<path d="M44.1016 170.7L41.7655 173.039C40.564 174.242 39.7631 175.98 42.0324 177.45C44.3018 178.92 52.1778 184.401 54.8477 182.663C57.5175 180.925 51.6439 179.321 51.6439 179.321C51.6439 179.321 50.6726 175.716 50.1571 176.516C49.6415 177.316 49.6415 178.92 49.6415 178.92L44.1016 170.7Z" fill="#2F2E41"/>
<path d="M72.334 167.559C72.334 167.559 76.6057 175.445 76.6057 176.381C76.6057 177.317 76.3388 179.99 76.3388 179.99L84.4818 181.995L87.2851 180.658L86.3507 178.252C86.3507 178.252 81.278 176.515 80.21 173.173C79.1421 169.832 77.9407 166.356 77.9407 166.356L72.334 167.559Z" fill="#FFB8B8"/>
<path d="M67.3938 89.0997C70.4902 89.0997 73.0004 86.5863 73.0004 83.4859C73.0004 80.3855 70.4902 77.8721 67.3938 77.8721C64.2973 77.8721 61.7871 80.3855 61.7871 83.4859C61.7871 86.5863 64.2973 89.0997 67.3938 89.0997Z" fill="#FFB8B8"/>
<path d="M68.8638 88.298L66.187 95.999L60.3203 93.3772C60.3203 93.3772 64.3251 87.2287 64.3251 86.4268L68.8638 88.298Z" fill="#FFB8B8"/>
<path d="M69.665 115.699H62.5899C62.5899 115.699 57.5172 123.452 60.454 131.605C61.0055 133.264 61.4536 134.956 61.7958 136.67C62.8205 141.426 63.8409 147.867 64.8865 153.787C66.3552 162.101 67.8738 169.385 69.5247 169.517C72.862 169.784 79.3517 169.74 79.3517 168.403C79.3517 167.066 75.0046 128.397 75.0046 128.397L74.0702 126.793L73.8936 119.807C73.8657 118.704 73.4073 117.657 72.6167 116.889C71.8261 116.121 70.7664 115.694 69.665 115.699H69.665Z" fill="#2F2E41"/>
<path d="M76.672 176.314C76.672 176.314 75.1369 178.921 75.5374 180.792C75.9378 182.663 76.6053 182.396 79.5421 182.663C82.4789 182.931 92.4909 182.931 92.4909 181.059C92.4909 179.188 84.6807 176.758 84.6478 177.505C84.6148 178.253 84.3478 179.723 85.1488 179.99C85.9497 180.257 85.2155 180.057 85.2155 180.057L76.672 176.314Z" fill="#2F2E41"/>
<path d="M63.1203 119.424C64.1642 119.424 66.4095 116.739 67.5846 117.916C68.4393 118.771 69.1645 119.593 69.8043 120.319C71.641 122.401 73.2467 124.309 74.3625 122.94C74.5312 122.733 73.9641 123.211 74.437 122.889C74.6331 122.755 74.7828 122.563 74.8654 122.341C74.948 122.118 74.9594 121.875 74.8981 121.646C73.2791 116.567 72.2709 111.702 73.5583 107.638C73.6538 107.315 73.6995 106.98 73.6937 106.643C73.6938 106.594 73.696 106.545 73.7005 106.495C73.7686 105.746 73.7515 103.06 70.6779 99.982C67.8688 97.1694 67.3299 95.4411 67.2589 94.6611C67.2422 94.4795 62.7139 89.7754 62.7139 89.7754C62.4769 89.6757 62.2131 89.6594 61.9655 89.7289C61.7179 89.7985 61.5012 89.95 61.3505 90.1586L59.9001 92.1555C58.3234 95.2813 57.6353 98.7808 57.9109 102.272C58.3036 106.803 58.9854 115.764 59.5453 118.996C59.5917 119.291 59.7477 119.557 59.982 119.741C60.1434 119.866 60.3358 119.945 60.5386 119.969C60.7414 119.993 60.9469 119.961 61.133 119.877C61.7559 119.587 62.4333 119.432 63.1203 119.424Z" fill="#2F2E41"/>
<path opacity="0.2" d="M64.7383 154.208L62.1074 136.656L64.2472 155.604L64.7383 154.208Z" fill="black"/>
<path d="M68.0786 102.163L71.8986 108.087L84.3211 107.988C84.3211 107.988 89.5433 105.035 90.5934 108.929C90.953 110.262 85.4865 110.623 84.9717 110.654C83.6848 110.732 70.8503 112.962 70.0579 111.82C69.2655 110.678 65.0977 106.689 65.0977 106.689L68.0786 102.163Z" fill="#FFB8B8"/>
<path d="M62.3652 98.0071C62.3652 98.0071 64.5342 96.5912 67.5121 99.109C70.49 101.627 71.0856 103.88 71.0856 103.88L64.071 108.054C64.071 108.054 57.2182 100.748 62.3652 98.0071Z" fill="#2F2E41"/>
<path d="M73.3993 83.7365C71.1859 82.2799 69.3943 80.6022 68.2091 78.6065C68.2091 78.6065 64.1472 82.7105 61.6649 82.9157C59.1827 83.1209 61.4393 77.9908 61.4393 77.9908L65.9525 76.9648L70.24 77.3752L73.6249 79.4273L73.3993 83.7365Z" fill="#2F2E41"/>
<path d="M61.8136 84.4219C62.1433 84.4219 62.4105 83.9403 62.4105 83.3462C62.4105 82.7521 62.1433 82.2705 61.8136 82.2705C61.484 82.2705 61.2168 82.7521 61.2168 83.3462C61.2168 83.9403 61.484 84.4219 61.8136 84.4219Z" fill="#FFB8B8"/>
</g>
<defs>
<clipPath id="clip0">
<rect width="212" height="183" fill="white"/>
</clipPath>
</defs>
</svg>
