<svg width="237" height="180" viewBox="0 0 237 180" fill="none" xmlns="http://www.w3.org/2000/svg">
<g clip-path="url(#clip0)">
<path d="M17.3724 160.327C26.967 160.327 34.7449 159.688 34.7449 158.9C34.7449 158.112 26.967 157.473 17.3724 157.473C7.7779 157.473 0 158.112 0 158.9C0 159.688 7.7779 160.327 17.3724 160.327Z" fill="#E6E6E6"/>
<path d="M54.847 163C64.4416 163 72.2195 162.361 72.2195 161.573C72.2195 160.785 64.4416 160.146 54.847 160.146C45.2525 160.146 37.4746 160.785 37.4746 161.573C37.4746 162.361 45.2525 163 54.847 163Z" fill="#E6E6E6"/>
<path d="M186.946 0H99.2835C98.7724 0.000670677 98.2823 0.219703 97.9209 0.609056C97.5594 0.998408 97.3561 1.52629 97.3555 2.07692V160.2C97.3557 160.75 97.5589 161.278 97.9204 161.668C98.2819 162.057 98.7722 162.276 99.2835 162.276H186.946C187.405 162.277 187.849 162.1 188.198 161.779C188.547 161.457 188.778 161.012 188.849 160.524C188.866 160.417 188.875 160.308 188.874 160.2V2.07692C188.874 1.52629 188.67 0.998408 188.309 0.609056C187.947 0.219703 187.457 0.00066997 186.946 0ZM188.103 160.2C188.103 160.53 187.981 160.847 187.764 161.081C187.547 161.314 187.253 161.446 186.946 161.446H99.2835C98.9767 161.446 98.6825 161.314 98.4656 161.081C98.2486 160.847 98.1267 160.53 98.1267 160.2V2.07692C98.1272 1.74657 98.2492 1.42989 98.466 1.1963C98.6829 0.962713 98.9769 0.831262 99.2835 0.830767H186.946C187.253 0.831262 187.547 0.962713 187.764 1.1963C187.981 1.42989 188.103 1.74657 188.103 2.07692V160.2Z" fill="#E6E6E6"/>
<path d="M106.224 11.6651C106.02 11.6653 105.824 11.7529 105.679 11.9086C105.535 12.0644 105.453 12.2756 105.453 12.4958V46.8342C105.453 47.0544 105.535 47.2656 105.679 47.4214C105.824 47.5771 106.02 47.6647 106.224 47.6649H180.005C180.21 47.6647 180.406 47.5771 180.55 47.4214C180.695 47.2656 180.776 47.0544 180.776 46.8342V12.4958C180.776 12.2755 180.695 12.0644 180.55 11.9086C180.406 11.7529 180.21 11.6653 180.005 11.665L106.224 11.6651Z" fill="#E6E6E6"/>
<path d="M75.4066 38.5312C75.2092 38.5315 75.02 38.6161 74.8804 38.7664C74.7408 38.9168 74.6623 39.1206 74.6621 39.3333V72.4831C74.6623 72.6957 74.7408 72.8996 74.8804 73.05C75.02 73.2003 75.2092 73.2849 75.4066 73.2851H146.634C146.831 73.2849 147.02 73.2003 147.16 73.05C147.299 72.8996 147.378 72.6957 147.378 72.4831V39.3333C147.378 39.1206 147.299 38.9168 147.16 38.7664C147.02 38.6161 146.831 38.5315 146.634 38.5312H75.4066Z" fill="#0155E1"/>
<path d="M39.1512 115.529C39.2449 118.012 37.7727 120.212 36.3941 122.19C35.7655 123.117 29.9233 129.395 28.1588 132.14C27.7314 132.805 17.2408 145.849 16.7031 147.058C16.5767 147.344 16.4725 147.641 16.3916 147.946C16.0773 149.104 16.0635 150.351 16.0911 151.587V152.451C16.1462 154.337 16.2262 156.232 16.6425 158.058C16.7031 158.325 16.7721 158.596 16.8079 158.866C16.6965 158.787 16.5914 158.699 16.4936 158.602L10.792 154.043L10.4363 153.758C10.0724 152.623 9.72774 151.477 9.33901 150.357C9.1074 149.692 9.35555 148.932 9.76359 148.376C10.2057 147.85 10.6931 147.371 11.2193 146.945C11.6233 146.494 11.9836 146.001 12.2946 145.472C16.2289 139.303 27.3096 117.168 28.1174 112.713C29.1823 112.5 30.2735 112.485 31.3432 112.669L37.031 113.483C37.6458 113.572 38.3185 113.693 38.7183 114.201C38.9913 114.582 39.1431 115.048 39.1512 115.529Z" fill="#EFB7B9"/>
<path d="M63.4302 120.591C63.309 121.516 63.0054 122.403 62.5396 123.192C61.9551 124.152 55.2417 142.752 53.1546 150.432C52.7714 151.843 52.9726 153.206 52.9313 153.679C52.8982 154.071 52.8679 154.463 52.8403 154.852C52.8017 155.336 52.7714 155.82 52.7383 156.301C52.6528 157.575 52.5784 158.915 53.0774 160.073C53.2732 160.53 53.5682 160.925 53.6977 161.383C53.5032 161.275 53.3233 161.139 53.1629 160.979L47.4612 156.42C46.9963 155.001 46.6377 153.544 46.3888 152.063C46.2454 151.222 46.1765 150.257 46.6645 149.613C46.6925 149.573 46.7229 149.535 46.7554 149.5C46.9146 149.339 47.0925 149.201 47.2848 149.09C47.4611 148.986 47.6306 148.869 47.7921 148.74C47.9132 148.637 48.0225 148.52 48.1174 148.389C48.5861 147.765 48.7543 146.889 48.8949 146.067C49.4463 142.699 54.1168 122.034 54.0286 121.523C53.9321 121.021 51.2798 116.207 49.4601 115.138C51.3481 113.434 53.5017 112.105 55.8207 111.212C56.2293 111.007 56.6816 110.923 57.1303 110.971C57.3704 111.028 57.5997 111.128 57.8085 111.268C59.0575 112.022 60.0142 113.21 60.9295 114.398C62.2943 116.186 63.659 118.289 63.4302 120.591Z" fill="#EFB7B9"/>
<path d="M60.9434 113.436C60.7668 115.232 56.082 116.822 50.1581 117.811C48.6282 118.066 44.8692 108.092 43.2303 108.26C41.2595 108.463 41.3971 118.787 39.448 118.843C32.8129 119.032 28.5251 118.299 27.139 116.18C26.389 115.984 25.4847 115.521 25.5206 114.695C25.5454 114.223 25.8928 113.804 25.89 113.341C25.89 112.533 28.0653 103.689 29.3474 99.4923C29.6672 98.4499 29.8988 97.3807 30.26 96.3502C31.8205 91.7052 32.4904 88.1413 35.3412 84.2745C35.7774 83.7319 36.1361 83.1223 36.4055 82.4658C36.6502 81.6776 36.7777 80.8526 36.7832 80.0215L36.9403 77.114C41.1669 76.9002 45.2722 76.9863 49.4078 77.9485C49.6322 77.9414 49.85 78.0306 50.0134 78.1964C50.1767 78.3623 50.2722 78.5912 50.2789 78.833L50.279 78.8395C50.439 79.9028 50.5511 80.9709 50.6154 82.0441C50.6174 82.2812 50.6489 82.5169 50.7091 82.745C50.8177 83.0333 50.9685 83.301 51.1558 83.5379C53.5489 86.9177 55.0157 90.9627 56.1737 95.0137C57.3316 99.0647 58.2525 103.228 59.7082 107.19C60.21 108.557 60.8662 110.092 60.9985 111.556C61.5224 111.975 61.4066 112.922 60.9434 113.436Z" fill="#2F2E41"/>
<path d="M64.9591 64.734C65.6869 64.0717 66.4148 63.4064 67.082 62.6758C68.0235 61.6009 68.8932 60.4556 69.6847 59.2485C70.5283 58.0101 71.3665 56.7419 71.8903 55.3104C72.4831 53.671 72.6651 51.8059 73.6962 50.4457C73.8128 50.2689 73.9747 50.1327 74.1621 50.0536C74.7494 49.8547 75.1878 50.6476 75.3008 51.304C75.8522 54.5174 74.5371 57.725 73.2578 60.6889C72.836 61.666 72.3949 62.6699 71.6642 63.4094C71.2634 63.7785 70.8446 64.1245 70.4098 64.4459C69.7639 65.0115 69.1693 65.642 68.6342 66.3288C67.7152 67.4534 66.8412 68.6186 66.0122 69.8244C64.9838 71.3094 64.0189 72.8656 62.8003 74.1753C61.5816 75.4851 60.057 76.5513 58.3503 76.8097C58.8383 76.7384 58.6784 73.6526 58.6261 73.2636C58.5516 72.6993 58.1932 72.034 58.1822 71.4816C58.1684 70.8045 58.4248 70.7065 58.9431 70.2313L64.9591 64.734Z" fill="#EFB7B9"/>
<path d="M44.497 45.2998C44.497 45.2998 42.8428 54.2096 40.9129 55.6945C38.9829 57.1795 51.3897 58.9614 51.3897 58.9614C51.3897 58.9614 51.6654 51.8336 54.9739 48.5667C58.2824 45.2998 44.497 45.2998 44.497 45.2998Z" fill="#EFB7B9"/>
<path d="M55.6137 80.6794C56.0227 80.8175 56.4509 80.8778 56.8791 80.8576C58.3267 80.8407 59.7533 80.4829 61.0589 79.8092C61.1812 79.7583 61.2894 79.6744 61.3732 79.5657C61.4219 79.452 61.4483 79.3287 61.4506 79.2034C61.453 79.0782 61.4313 78.9538 61.387 78.8381C60.6095 75.4524 62.1093 71.6123 60.6205 68.5176C59.0021 69.0849 57.2265 69.7056 55.6081 70.258C55.3599 70.3665 55.0927 70.4152 54.8251 70.4005C54.5046 70.3288 54.2109 70.1562 53.9815 69.9045C52.228 68.2711 51.1224 65.9961 50.1216 63.7479C49.1208 61.4997 48.1392 59.1802 46.5622 57.3507C44.9852 55.5212 43.5101 54.5531 41.2052 54.8174C40.3871 54.9379 39.636 55.3698 39.0878 56.0351C37.7865 57.5438 37.5273 59.8395 37.985 61.8413C38.4426 63.843 39.4931 65.616 40.5849 67.3059C42.0075 69.5096 43.5377 71.6806 45.5145 73.317C46.5839 74.1513 47.6938 74.9236 48.8395 75.6306" fill="#E6E6E6"/>
<path d="M50.9763 51.9816C55.5443 51.9816 59.2475 47.9926 59.2475 43.0719C59.2475 38.1511 55.5443 34.1621 50.9763 34.1621C46.4082 34.1621 42.7051 38.1511 42.7051 43.0719C42.7051 47.9926 46.4082 51.9816 50.9763 51.9816Z" fill="#EFB7B9"/>
<path d="M54.2844 68.7133C51.7979 71.8717 51.2724 75.9067 50.7636 79.8891C48.2657 78.9773 45.4976 80.5069 42.9115 79.9485C41.6127 79.4827 40.2385 79.3109 38.8752 79.4439C37.9185 79.3456 36.97 78.6982 36.0575 79.0278C34.5403 80.063 36.0177 73.6507 35.9276 71.787C35.1324 40.3499 58.8035 55.6434 54.2844 68.7133Z" fill="#E6E6E6"/>
<path d="M68.2676 65.9224C68.9955 65.2601 69.7234 64.5949 70.3906 63.8643C71.332 62.7894 72.2018 61.6441 72.9933 60.437C73.8369 59.1986 74.6751 57.9304 75.1989 56.4989C75.7917 54.8595 75.9736 52.9944 77.0048 51.6342C77.1214 51.4574 77.2833 51.3212 77.4707 51.2421C78.058 51.0431 78.4964 51.8361 78.6094 52.4925C79.1608 55.7059 77.8457 58.9134 76.5664 61.8774C76.1446 62.8545 75.7034 63.8583 74.9728 64.5978C74.5719 64.9669 74.1532 65.3129 73.7183 65.6343C73.0724 66.1999 72.4779 66.8304 71.9428 67.5173C71.0238 68.6419 70.1498 69.8071 69.3208 71.0129C68.2924 72.4978 67.3275 74.0541 66.1088 75.3638C64.8902 76.6735 63.3656 77.7397 61.6589 77.9981C62.1469 77.9268 61.987 74.8411 61.9346 74.452C61.8602 73.8877 61.5018 73.2225 61.4908 72.6701C61.477 71.9929 61.7334 71.8949 62.2517 71.4197L68.2676 65.9224Z" fill="#EFB7B9"/>
<path opacity="0.1" d="M53.4572 69.011L53.4379 69.0496C52.9609 70.003 52.2468 70.8049 51.7561 71.7552C51.2047 72.8303 50.9482 74.0569 50.7277 75.2657C50.5751 76.0774 50.4345 76.8902 50.3059 77.704C49.3158 77.0923 48.3585 76.421 47.4385 75.6933C45.4617 74.0569 43.9315 71.8859 42.5089 69.6793C41.406 67.9894 40.3583 66.2163 39.909 64.2176C39.4596 62.2188 39.7215 59.9201 41.0118 58.4114C41.5598 57.7454 42.3108 57.3125 43.1292 57.1907C45.4341 56.9264 46.8898 57.8857 48.4669 59.7122C50.0439 61.5387 51.0199 63.8701 52.0263 66.1094C52.4729 67.0806 52.9306 68.0755 53.4572 69.011Z" fill="black"/>
<path d="M44.5138 56.0059C43.6957 56.1264 42.9446 56.5583 42.3964 57.2235C41.0951 58.7323 40.8359 61.028 41.2936 63.0297C41.7512 65.0314 42.8017 66.8045 43.8935 68.4944C45.3161 70.698 46.8463 72.8691 48.8231 74.5055C49.8925 75.3398 51.0024 76.112 52.1481 76.8191C54.0519 78.0822 55.8815 77.6889 57.6264 79.195C58.009 79.5681 58.447 79.8693 58.9222 80.086C59.3313 80.224 59.7595 80.2843 60.1877 80.2641C61.6353 80.2472 63.0619 79.2954 64.3675 78.6218C64.4898 78.5708 64.598 78.487 64.6818 78.3782C64.7305 78.2645 64.7569 78.1412 64.7592 78.016C64.7616 77.8908 64.7399 77.7664 64.6956 77.6506C63.9181 74.2649 65.4179 72.8007 63.9291 69.7061C62.3107 70.2733 60.5351 70.894 58.9167 71.4464C58.6685 71.555 58.4013 71.6036 58.1337 71.589C57.8131 71.5172 57.5195 71.3446 57.2901 71.093C55.5366 69.4596 54.431 67.1846 53.4302 64.9364C52.4293 62.6881 51.4478 60.3687 49.8708 58.5392C48.2938 56.7097 46.8187 55.7416 44.5138 56.0059Z" fill="#E6E6E6"/>
<path d="M56.0314 161.489C55.6628 161.893 55.1834 162.158 54.6641 162.246C54.1448 162.333 53.6131 162.239 53.1475 161.976C52.953 161.868 52.7731 161.733 52.6126 161.572L46.911 157.014L44.6502 155.205C44.4124 154.967 44.2221 154.679 44.0908 154.359C43.9596 154.039 43.8902 153.693 43.8868 153.344C43.8835 152.994 43.9463 152.647 44.0713 152.324C44.1964 152.001 44.3812 151.709 44.6144 151.466L46.1142 150.207L46.7346 149.684L47.5672 148.983L48.2951 148.371L52.9655 151.193L53.0455 151.359L56.5801 158.7C56.7452 159.173 56.7812 159.687 56.684 160.181C56.5868 160.675 56.3603 161.129 56.0314 161.489Z" fill="#2F2E41"/>
<path d="M19.3615 159.113C18.9928 159.517 18.5135 159.782 17.9942 159.87C17.4749 159.958 16.9432 159.863 16.4776 159.6C16.4031 159.559 16.3287 159.511 16.257 159.461C16.1456 159.382 16.0405 159.294 15.9427 159.196L10.2411 154.638L9.88542 154.352L7.9803 152.829C7.74248 152.591 7.55216 152.303 7.42092 151.983C7.28969 151.663 7.22028 151.317 7.21692 150.968C7.21357 150.618 7.27634 150.271 7.40142 149.948C7.52649 149.625 7.71126 149.333 7.94445 149.09L9.4443 147.831L10.0646 147.308L10.8973 146.607L11.6251 145.995L11.7437 146.066L15.8407 148.54L16.2956 148.817L16.3756 148.983L19.9101 156.324C20.0752 156.797 20.1113 157.311 20.0141 157.805C19.9169 158.299 19.6904 158.753 19.3615 159.113Z" fill="#2F2E41"/>
<path d="M58.7648 35.4766C55.5621 31.5676 51.9508 29.6981 47.621 31.4147C40.6741 28.9029 31.5424 46.1646 37.1653 52.4247L46.6881 53.28L49.604 47.6242L48.5722 53.4826L56.1893 54.3016C52.3035 47.7934 53.5499 41.5375 58.7648 35.4766Z" fill="#2F2E41"/>
<path d="M94.6393 63.6934C98.6308 63.6934 101.867 60.2078 101.867 55.9082C101.867 51.6086 98.6308 48.123 94.6393 48.123C90.6478 48.123 87.4121 51.6086 87.4121 55.9082C87.4121 60.2078 90.6478 63.6934 94.6393 63.6934Z" fill="white"/>
<path d="M110.95 54.8722C110.729 54.8761 110.517 54.9737 110.362 55.144C110.206 55.3143 110.119 55.5436 110.119 55.7824C110.119 56.0213 110.206 56.2506 110.362 56.4209C110.517 56.5912 110.729 56.6888 110.95 56.6927H133.769C133.993 56.6967 134.21 56.6046 134.371 56.4367C134.532 56.2688 134.624 56.0388 134.628 55.7974C134.632 55.556 134.546 55.3229 134.39 55.1494C134.235 54.9759 134.021 54.8762 133.797 54.8722C133.788 54.872 133.779 54.872 133.769 54.8722H110.95Z" fill="white"/>
<path d="M110.95 49.5988C110.729 49.6027 110.517 49.7003 110.362 49.8706C110.206 50.0409 110.119 50.2701 110.119 50.509C110.119 50.7479 110.206 50.9771 110.362 51.1474C110.517 51.3177 110.729 51.4153 110.95 51.4192H122.346C122.57 51.423 122.786 51.3308 122.947 51.1629C123.108 50.9951 123.2 50.7652 123.204 50.5239C123.207 50.2827 123.122 50.0497 122.966 49.8762C122.811 49.7027 122.597 49.6029 122.373 49.5988C122.364 49.5986 122.355 49.5986 122.346 49.5988H110.95Z" fill="white"/>
<path d="M110.95 60.3976C110.729 60.4015 110.517 60.4991 110.362 60.6694C110.206 60.8397 110.119 61.069 110.119 61.3078C110.119 61.5467 110.206 61.776 110.362 61.9462C110.517 62.1165 110.729 62.2141 110.95 62.218H133.769C133.88 62.2201 133.991 62.1986 134.094 62.1547C134.197 62.1108 134.291 62.0454 134.371 61.9623C134.451 61.8791 134.515 61.7799 134.559 61.6701C134.603 61.5604 134.627 61.4424 134.629 61.3228C134.631 61.2032 134.611 61.0844 134.57 60.9731C134.529 60.8619 134.468 60.7604 134.391 60.6745C134.314 60.5886 134.221 60.5199 134.12 60.4724C134.018 60.4249 133.908 60.3995 133.797 60.3976C133.788 60.3974 133.778 60.3974 133.769 60.3976H110.95Z" fill="white"/>
<path d="M117.868 86.1561C118.862 86.1561 119.667 85.2883 119.667 84.2177C119.667 83.1472 118.862 82.2793 117.868 82.2793C116.874 82.2793 116.068 83.1472 116.068 84.2177C116.068 85.2883 116.874 86.1561 117.868 86.1561Z" fill="#E6E6E6"/>
<path d="M125.285 83.214C125.041 83.2185 124.808 83.3262 124.637 83.5139C124.465 83.7017 124.369 83.9544 124.369 84.2177C124.369 84.481 124.465 84.7337 124.637 84.9215C124.808 85.1092 125.041 85.2169 125.285 85.2214H169.214C169.46 85.2246 169.698 85.1226 169.875 84.9375C170.051 84.7525 170.153 84.4996 170.157 84.2341C170.161 83.9687 170.067 83.7123 169.896 83.5211C169.725 83.3299 169.491 83.2195 169.244 83.214C169.234 83.2138 169.224 83.2138 169.214 83.214H125.285Z" fill="#E6E6E6"/>
<path d="M117.868 95.5713C118.862 95.5713 119.667 94.7034 119.667 93.6328C119.667 92.5622 118.862 91.6943 117.868 91.6943C116.874 91.6943 116.068 92.5622 116.068 93.6328C116.068 94.7034 116.874 95.5713 117.868 95.5713Z" fill="#E6E6E6"/>
<path d="M125.283 92.629C125.039 92.6335 124.806 92.7412 124.635 92.9289C124.463 93.1167 124.367 93.3695 124.367 93.6328C124.367 93.8961 124.463 94.1488 124.635 94.3366C124.806 94.5243 125.039 94.632 125.283 94.6365H169.212C169.458 94.6398 169.696 94.5378 169.873 94.3527C170.05 94.1677 170.151 93.9147 170.155 93.6492C170.159 93.3837 170.066 93.1272 169.895 92.936C169.723 92.7448 169.489 92.6344 169.243 92.629C169.232 92.6289 169.222 92.6289 169.212 92.629H125.283Z" fill="#E6E6E6"/>
<path d="M117.868 104.986C118.862 104.986 119.667 104.118 119.667 103.048C119.667 101.977 118.862 101.109 117.868 101.109C116.874 101.109 116.068 101.977 116.068 103.048C116.068 104.118 116.874 104.986 117.868 104.986Z" fill="#E6E6E6"/>
<path d="M125.283 102.044C125.039 102.049 124.806 102.156 124.635 102.344C124.463 102.532 124.367 102.784 124.367 103.048C124.367 103.311 124.463 103.564 124.635 103.752C124.806 103.939 125.039 104.047 125.283 104.051H169.212C169.458 104.055 169.696 103.953 169.873 103.768C170.05 103.583 170.151 103.33 170.155 103.064C170.159 102.799 170.066 102.542 169.895 102.351C169.723 102.16 169.489 102.049 169.243 102.044C169.232 102.044 169.222 102.044 169.212 102.044H125.283Z" fill="#E6E6E6"/>
<path d="M117.868 114.401C118.862 114.401 119.667 113.533 119.667 112.463C119.667 111.392 118.862 110.524 117.868 110.524C116.874 110.524 116.068 111.392 116.068 112.463C116.068 113.533 116.874 114.401 117.868 114.401Z" fill="#E6E6E6"/>
<path d="M125.285 111.459C125.041 111.464 124.808 111.571 124.637 111.759C124.465 111.947 124.369 112.2 124.369 112.463C124.369 112.726 124.465 112.979 124.637 113.167C124.808 113.354 125.041 113.462 125.285 113.467H169.214C169.336 113.469 169.458 113.446 169.573 113.398C169.687 113.35 169.791 113.277 169.88 113.186C169.968 113.094 170.039 112.984 170.088 112.863C170.137 112.742 170.163 112.612 170.165 112.479C170.167 112.347 170.145 112.216 170.099 112.093C170.054 111.97 169.987 111.858 169.901 111.763C169.816 111.668 169.714 111.593 169.601 111.541C169.488 111.488 169.367 111.461 169.244 111.459C169.234 111.459 169.224 111.459 169.214 111.459H125.285Z" fill="#E6E6E6"/>
<path d="M117.868 123.817C118.862 123.817 119.667 122.949 119.667 121.879C119.667 120.808 118.862 119.94 117.868 119.94C116.874 119.94 116.068 120.808 116.068 121.879C116.068 122.949 116.874 123.817 117.868 123.817Z" fill="#E6E6E6"/>
<path d="M125.285 120.876C125.041 120.881 124.808 120.988 124.637 121.176C124.465 121.364 124.369 121.617 124.369 121.88C124.369 122.143 124.465 122.396 124.637 122.584C124.808 122.771 125.041 122.879 125.285 122.884H169.214C169.46 122.887 169.698 122.785 169.875 122.6C170.051 122.415 170.153 122.162 170.157 121.896C170.161 121.631 170.067 121.374 169.896 121.183C169.725 120.992 169.491 120.882 169.244 120.876C169.234 120.876 169.224 120.876 169.214 120.876H125.285Z" fill="#E6E6E6"/>
<path d="M117.868 133.232C118.862 133.232 119.667 132.364 119.667 131.294C119.667 130.223 118.862 129.355 117.868 129.355C116.874 129.355 116.068 130.223 116.068 131.294C116.068 132.364 116.874 133.232 117.868 133.232Z" fill="#E6E6E6"/>
<path d="M125.285 130.291C125.041 130.296 124.808 130.403 124.637 130.591C124.465 130.779 124.369 131.032 124.369 131.295C124.369 131.558 124.465 131.811 124.637 131.999C124.808 132.186 125.041 132.294 125.285 132.299H169.214C169.46 132.302 169.698 132.2 169.875 132.015C170.051 131.83 170.153 131.577 170.157 131.311C170.161 131.046 170.067 130.789 169.896 130.598C169.725 130.407 169.491 130.297 169.244 130.291C169.234 130.291 169.224 130.291 169.214 130.291H125.285Z" fill="#E6E6E6"/>
<path d="M117.868 142.648C118.862 142.648 119.667 141.781 119.667 140.71C119.667 139.639 118.862 138.771 117.868 138.771C116.874 138.771 116.068 139.639 116.068 140.71C116.068 141.781 116.874 142.648 117.868 142.648Z" fill="#E6E6E6"/>
<path d="M125.283 139.706C125.039 139.711 124.806 139.818 124.635 140.006C124.463 140.194 124.367 140.447 124.367 140.71C124.367 140.973 124.463 141.226 124.635 141.414C124.806 141.601 125.039 141.709 125.283 141.714H169.212C169.458 141.717 169.696 141.615 169.873 141.43C170.05 141.245 170.151 140.992 170.155 140.726C170.159 140.461 170.066 140.204 169.895 140.013C169.723 139.822 169.489 139.712 169.243 139.706C169.232 139.706 169.222 139.706 169.212 139.706H125.283Z" fill="#E6E6E6"/>
<path d="M203 126.882C202.961 127.904 202.002 148.997 188.848 160.522C188.297 161.004 187.726 161.469 187.133 161.915L186.686 161.445H186.945C187.252 161.445 187.546 161.313 187.763 161.08C187.98 160.846 188.102 160.529 188.102 160.198V118.621C188.377 117.026 188.637 115.459 188.873 113.933C190.156 105.639 190.75 98.6331 189.788 95.7227C190.205 96.847 198.565 119.843 194.025 143.273C198.521 136.641 202.789 129.679 203 126.882Z" fill="#E6E6E6"/>
</g>
<ellipse cx="198.5" cy="141" rx="38.5" ry="39" fill="#0155E1"/>
<defs>
<clipPath id="clip0">
<rect width="203" height="163" fill="white"/>
</clipPath>
</defs>
</svg>
