<svg width="198" height="147" viewBox="0 0 198 147" fill="none" xmlns="http://www.w3.org/2000/svg">
<g clip-path="url(#clip0)">
<path d="M37.1378 54.0244C37.1378 54.0244 30.6271 60.1554 23.6394 60.3381C20.7051 60.3964 17.869 61.4029 15.5568 63.2066C14.4639 64.0686 13.4525 65.0288 12.5352 66.075" stroke="#535461" stroke-width="2" stroke-miterlimit="10"/>
<path d="M8.12856 66.2266C9.06711 65.7507 12.6496 66.0667 12.6496 66.0667C12.6496 66.0667 10.7916 69.1407 9.85305 69.6166C9.62827 69.7495 9.37852 69.835 9.11927 69.8677C8.86002 69.9003 8.59682 69.8795 8.34597 69.8065C8.09513 69.7334 7.86199 69.6098 7.66103 69.4431C7.46006 69.2765 7.29555 69.0704 7.1777 68.8377C7.05985 68.605 6.99116 68.3506 6.97591 68.0903C6.96066 67.83 6.99916 67.5694 7.08903 67.3246C7.1789 67.0798 7.31822 66.856 7.49835 66.6671C7.67848 66.4782 7.89558 66.3283 8.13619 66.2266H8.12856Z" fill="#2FD0A9"/>
<path d="M11.9002 60.7915C12.9475 60.9019 15.7823 63.1099 15.7823 63.1099C15.7823 63.1099 12.5393 64.6821 11.5016 64.5736C11.016 64.5004 10.5775 64.2432 10.2772 63.8556C9.97693 63.4679 9.83801 62.9797 9.88938 62.4924C9.94074 62.0051 10.1784 61.5564 10.553 61.2396C10.9275 60.9228 11.4101 60.7623 11.9002 60.7915Z" fill="#2FD0A9"/>
<path d="M20.8425 56.4123C21.6894 57.0347 23.021 60.3695 23.021 60.3695C23.021 60.3695 19.4327 60.0973 18.5857 59.4768C18.204 59.169 17.9558 58.7263 17.8928 58.2406C17.8297 57.755 17.9567 57.2638 18.2473 56.8691C18.5379 56.4745 18.9698 56.2068 19.4531 56.1217C19.9364 56.0366 20.434 56.1407 20.8425 56.4123Z" fill="#2FD0A9"/>
<path d="M28.3575 54.6213C29.2979 55.0915 31.175 58.1541 31.175 58.1541C31.175 58.1541 27.5925 58.491 26.6521 58.0208C26.4148 57.9175 26.2011 57.767 26.0239 57.5785C25.8468 57.39 25.71 57.1676 25.6218 56.9247C25.5337 56.6818 25.496 56.4235 25.5111 56.1656C25.5261 55.9077 25.5937 55.6555 25.7096 55.4245C25.8255 55.1934 25.9873 54.9884 26.1852 54.8218C26.3831 54.6551 26.6129 54.5305 26.8606 54.4553C27.1083 54.3802 27.3688 54.3562 27.6262 54.3847C27.8835 54.4132 28.1323 54.4937 28.3575 54.6213Z" fill="#2FD0A9"/>
<path d="M17.7759 66.5765C18.0888 65.5734 17.1731 62.1016 17.1731 62.1016C17.1731 62.1016 14.449 64.4466 14.1362 65.4497C14.048 65.6918 14.01 65.9493 14.0245 66.2064C14.039 66.4636 14.1056 66.7152 14.2204 66.9459C14.3352 67.1767 14.4957 67.3818 14.6922 67.5488C14.8888 67.7158 15.1172 67.8413 15.3638 67.9176C15.6104 67.994 15.8699 68.0196 16.1267 67.9929C16.3835 67.9662 16.6321 67.8878 16.8576 67.7624C17.0832 67.637 17.2808 67.4673 17.4387 67.2634C17.5965 67.0596 17.7112 66.8259 17.7759 66.5765Z" fill="#2FD0A9"/>
<path d="M26.536 64.363C26.536 63.3123 24.6189 60.2744 24.6189 60.2744C24.6189 60.2744 22.7227 63.3199 22.7246 64.3744C22.7261 64.8792 22.9286 65.3628 23.2874 65.7187C23.6462 66.0746 24.132 66.2736 24.638 66.2721C25.1439 66.2706 25.6285 66.0686 25.9852 65.7106C26.3419 65.3526 26.5414 64.8678 26.5399 64.363H26.536Z" fill="#2FD0A9"/>
<path d="M34.7561 61.0582C34.9316 60.0228 33.5581 56.7051 33.5581 56.7051C33.5581 56.7051 31.1717 59.3927 30.9981 60.4282C30.9394 60.914 31.0706 61.4036 31.3642 61.7955C31.6578 62.1874 32.0914 62.4514 32.575 62.5327C33.0585 62.614 33.5549 62.5064 33.9611 62.2322C34.3672 61.958 34.6519 61.5383 34.7561 61.0601V61.0582Z" fill="#2FD0A9"/>
<path d="M45.598 37.7886C45.598 37.7886 37.7558 33.4907 35.4246 26.9067C34.4669 24.1381 32.6348 21.7543 30.2035 20.1134C29.0432 19.343 27.8147 18.6804 26.5332 18.1338" stroke="#535461" stroke-width="2" stroke-miterlimit="10"/>
<path d="M25.0447 13.9942C25.7868 14.7384 26.5861 18.2388 26.5861 18.2388C26.5861 18.2388 23.0837 17.4204 22.3416 16.6742C22.0139 16.3111 21.8387 15.8361 21.8523 15.3477C21.8659 14.8592 22.0672 14.3947 22.4146 14.0503C22.762 13.7059 23.2288 13.508 23.7184 13.4975C24.208 13.4871 24.6829 13.6649 25.0447 13.9942Z" fill="#2FD0A9"/>
<path d="M31.3879 15.9034C31.6053 16.9312 30.3711 20.3022 30.3711 20.3022C30.3711 20.3022 27.8778 17.7154 27.6604 16.6857C27.5958 16.4367 27.5825 16.1771 27.6213 15.9228C27.6601 15.6685 27.7501 15.4247 27.8859 15.2061C28.0218 14.9875 28.2006 14.7986 28.4117 14.6509C28.6227 14.5031 28.8616 14.3996 29.1139 14.3466C29.3661 14.2935 29.6265 14.2921 29.8794 14.3422C30.1322 14.3924 30.3722 14.4932 30.585 14.6385C30.7977 14.7839 30.9787 14.9707 31.117 15.1878C31.2553 15.4048 31.3481 15.6476 31.3898 15.9015L31.3879 15.9034Z" fill="#2FD0A9"/>
<path d="M38.3134 23.0577C37.9815 24.0532 35.2097 26.343 35.2097 26.343C35.2097 26.343 34.3666 22.854 34.6985 21.8566C34.8581 21.377 35.2021 20.9804 35.6549 20.7539C36.1076 20.5274 36.632 20.4896 37.1126 20.6489C37.5932 20.8081 37.9908 21.1514 38.2178 21.6031C38.4447 22.0549 38.4826 22.5781 38.323 23.0577H38.3134Z" fill="#2FD0A9"/>
<path d="M42.3345 29.6345C42.1762 30.6719 39.8317 33.3957 39.8317 33.3957C39.8317 33.3957 38.4087 30.0989 38.567 29.0616C38.5934 28.8052 38.6716 28.5568 38.7971 28.3315C38.9225 28.1063 39.0925 27.9087 39.2967 27.751C39.501 27.5932 39.7352 27.4784 39.9852 27.4136C40.2352 27.3489 40.4958 27.3354 40.7511 27.3741C41.0065 27.4128 41.2513 27.5029 41.4707 27.6388C41.6902 27.7747 41.8797 27.9537 42.0277 28.1649C42.1758 28.3761 42.2793 28.615 42.3321 28.8673C42.3848 29.1196 42.3856 29.38 42.3345 29.6326V29.6345Z" fill="#2FD0A9"/>
<path d="M27.6758 23.2621C28.7288 23.2507 31.7581 21.313 31.7581 21.313C31.7581 21.313 28.6849 19.4476 27.6319 19.459C27.126 19.4648 26.6431 19.6709 26.2894 20.032C25.9358 20.3931 25.7404 20.8795 25.7462 21.3844C25.752 21.8892 25.9586 22.371 26.3205 22.7239C26.6823 23.0767 27.1699 23.2717 27.6758 23.2659V23.2621Z" fill="#2FD0A9"/>
<path d="M32.475 30.9019C33.4746 30.5764 35.7848 27.824 35.7848 27.824C35.7848 27.824 32.2919 26.9618 31.2923 27.2873C31.0456 27.3575 30.8157 27.4767 30.6163 27.6376C30.4168 27.7986 30.2519 27.998 30.1315 28.224C30.0111 28.45 29.9376 28.6979 29.9154 28.9529C29.8932 29.2079 29.9227 29.4648 30.0023 29.7081C30.0819 29.9514 30.2098 30.1763 30.3785 30.3691C30.5472 30.562 30.7531 30.7189 30.9839 30.8305C31.2148 30.9422 31.4658 31.0062 31.722 31.0188C31.9782 31.0314 32.2343 30.9923 32.475 30.9038V30.9019Z" fill="#2FD0A9"/>
<path d="M38.1598 37.6895C39.2014 37.5372 41.9446 35.215 41.9446 35.215C41.9446 35.215 38.6482 33.776 37.6085 33.9283C37.3525 33.9546 37.1044 34.0324 36.8793 34.1569C36.6541 34.2814 36.4566 34.4501 36.2985 34.6528C36.1405 34.8555 36.0251 35.0881 35.9595 35.3364C35.8939 35.5848 35.8793 35.8438 35.9167 36.0979C35.954 36.352 36.0426 36.596 36.1769 36.8151C36.3112 37.0342 36.4886 37.2239 36.6984 37.3727C36.9081 37.5216 37.1459 37.6266 37.3974 37.6813C37.6489 37.7361 37.9089 37.7395 38.1617 37.6914L38.1598 37.6895Z" fill="#2FD0A9"/>
<path d="M99.5677 142.074C137.706 142.074 168.624 111.225 168.624 73.1698C168.624 35.1151 137.706 4.26562 99.5677 4.26562C61.4292 4.26562 30.5117 35.1151 30.5117 73.1698C30.5117 111.225 61.4292 142.074 99.5677 142.074Z" fill="url(#paint0_linear)"/>
<path d="M99.5657 140.932C137.072 140.932 167.477 110.594 167.477 73.1703C167.477 35.7463 137.072 5.4082 99.5657 5.4082C62.0593 5.4082 31.6543 35.7463 31.6543 73.1703C31.6543 110.594 62.0593 140.932 99.5657 140.932Z" fill="#0155E1"/>
<path d="M99.5678 127.037C129.383 127.037 153.554 102.92 153.554 73.1698C153.554 43.4198 129.383 19.3027 99.5678 19.3027C69.7523 19.3027 45.582 43.4198 45.582 73.1698C45.582 102.92 69.7523 127.037 99.5678 127.037Z" fill="white"/>
<path opacity="0.3" d="M101.091 28.8203H98.0391V76.4061H101.091V28.8203Z" fill="#535461"/>
<g opacity="0.1">
<path opacity="0.1" d="M145.923 72.0273H102.811V75.8342H145.923V72.0273Z" fill="black"/>
<path opacity="0.1" d="M72.3715 57.7848L70.6016 61.1572L97.7283 75.3316L99.4982 71.9592L72.3715 57.7848Z" fill="black"/>
<path opacity="0.1" d="M99.5666 79.6413C102.727 79.6413 105.29 77.0847 105.29 73.931C105.29 70.7773 102.727 68.2207 99.5666 68.2207C96.406 68.2207 93.8438 70.7773 93.8438 73.931C93.8438 77.0847 96.406 79.6413 99.5666 79.6413Z" fill="black"/>
</g>
<path d="M145.923 71.2666H102.811V75.0735H145.923V71.2666Z" fill="#535461"/>
<path d="M99.5115 71.2027L72.3848 57.0283L70.6148 60.4007L97.7415 74.5751L99.5115 71.2027Z" fill="#535461"/>
<path d="M99.5666 78.8796C102.727 78.8796 105.29 76.323 105.29 73.1693C105.29 70.0156 102.727 67.459 99.5666 67.459C96.406 67.459 93.8438 70.0156 93.8438 73.1693C93.8438 76.323 96.406 78.8796 99.5666 78.8796Z" fill="#535461"/>
<g opacity="0.1">
<path opacity="0.1" d="M49.773 79.6415C49.773 49.8909 73.9426 25.7744 103.759 25.7744C112.127 25.767 120.383 27.704 127.871 31.432C135.359 35.16 141.875 40.5766 146.902 47.2527C137.715 30.5939 119.974 19.3027 99.562 19.3027C69.7458 19.3027 45.5762 43.4192 45.5762 73.1698C45.5587 84.8572 49.3681 96.2303 56.4249 105.559C52.0486 97.6191 49.7601 88.7025 49.773 79.6415Z" fill="black"/>
</g>
<path d="M149.447 33.5443C148.806 32.9295 143.411 36.9705 143.411 36.9705C143.411 36.9705 141.49 37.3207 141.948 38.636C142.406 39.9513 139.936 47.3175 139.936 47.3175L138.93 45.9147C139.028 44.2682 138.574 43.1014 138.131 42.3743C138.095 42.3153 138.059 42.2582 138.022 42.2049L138.198 42.144C138.131 41.2456 136.691 39.877 135.926 39.207C135.926 39.11 135.926 39.0167 135.926 38.9177C135.974 37.8442 136.405 36.7116 135.926 35.739C135.384 34.6293 133.799 34.0716 133.665 32.8534C133.585 32.1263 134.077 31.4696 134.295 30.7691C134.814 29.0941 133.736 27.3848 132.706 25.942C132.357 25.4011 131.932 24.9127 131.445 24.4916C130.98 24.1529 130.471 23.8812 129.93 23.6846C128.421 23.0755 126.878 22.769 125.321 22.3522C123.828 21.9562 122.45 21.7678 120.934 22.2646C120.574 22.3614 120.245 22.5496 119.98 22.8109C119.619 23.2144 119.572 23.7892 119.335 24.2708C118.954 25.0455 118.132 25.508 117.405 26.0048C116.678 26.5016 115.949 27.1831 115.945 28.0396C115.945 29.2559 117.338 30.0211 117.803 31.1536C118.238 32.2081 117.803 33.3825 117.561 34.4941C117.46 34.8534 117.45 35.2322 117.533 35.5962C117.629 35.8675 117.773 36.1191 117.96 36.3386C118.248 36.7192 118.557 37.0733 118.864 37.4349L118.723 37.4901C116.163 37.2275 114.517 40.4709 114.517 40.4709C114.635 40.4957 114.747 40.5242 114.858 40.5566L114.749 40.6974C113.976 41.6998 113.344 42.8033 112.87 43.977L110.772 46.7827C110.772 46.7827 110.314 39.7666 111.413 38.1887C112.512 36.6107 110.408 35.6457 110.408 35.6457C110.408 35.6457 105.829 30.5597 105.194 30.9975C104.559 31.4353 106.749 36.961 108.67 37.8385C108.67 37.8385 108.86 39.5915 108.479 40.7317C108.248 41.4531 107.016 49.063 107.016 49.063C107.016 49.063 105.919 55.4642 110.949 52.2988C114.217 50.2469 116.329 46.7142 117.405 44.4948C117.48 44.3387 117.55 44.1896 117.616 44.0474C117.666 44.2828 117.7 44.5213 117.718 44.7612L117.908 52.0951C117.957 53.9091 117.56 55.7074 116.752 57.3334L114.511 61.8693L114.761 61.9454L114.61 62.1624C113.134 64.3304 110.623 69.2051 115.791 71.6891L122.658 72.5665L122.292 74.3196C122.292 74.3196 119.457 79.6682 118.633 83.3514C118.121 85.6068 117.322 87.7875 116.254 89.8402L116.466 89.9525C116.422 90.002 116.377 90.0533 116.333 90.1066C115.916 90.574 115.641 91.1494 115.539 91.7664L114.608 93.0836C114.608 93.0836 114.242 98.5198 114.974 99.837C115.375 100.556 116.705 101.013 117.836 101.28C119.515 101.678 120.869 99.9474 119.978 98.5217L119.967 98.5027H119.949C119.759 97.6176 119.175 94.8709 119.366 93.8278C119.419 93.5309 119.469 93.2359 119.494 92.9351C119.539 92.5399 119.66 92.157 119.848 91.8064C119.879 91.7474 119.911 91.6903 119.944 91.6332L120.043 91.6751C120.35 91.8064 120.653 91.9301 120.941 92.0386C120.495 92.4441 120.178 93.2835 120.56 95.0099C120.56 95.0099 120.596 99.3288 120.926 100.008C121.256 100.688 124.949 101.586 125.59 100.886C126.231 100.185 125.178 97.7718 125.178 97.7718L125.146 97.7946C124.934 96.3956 124.673 93.8907 125.316 92.9047C125.575 92.5069 125.827 92.0957 126.052 91.7112L126.191 91.4733C127.385 92.0672 128.648 92.5145 129.339 92.2042C129.339 92.2042 132.357 85.1882 132.174 84.3126C131.99 83.437 136.838 73.5259 136.838 73.5259C136.838 73.5259 140.952 68.9576 135.924 65.8094C134.327 64.8063 133.164 64.1324 132.319 63.6775L131.611 59.9849C131.247 58.049 131.312 56.0571 131.802 54.1489L132.565 51.2443L132.628 50.9969C132.628 50.9969 134.549 47.0511 134.457 45.2085C134.45 45.0654 134.466 44.9221 134.505 44.7841C134.526 44.8716 134.549 44.963 134.573 45.0582C135.078 46.9732 135.743 48.8426 136.561 50.6466C138.02 53.932 140.186 53.6712 141.372 53.2049C141.626 53.1068 141.852 52.9472 142.028 52.7405C142.205 52.5339 142.328 52.2866 142.385 52.0209C142.812 49.9766 143.986 44.2492 144.06 42.6675C144.126 41.4306 144.279 40.1999 144.518 38.9843C147.528 37.2275 150.088 34.1591 149.447 33.5443Z" fill="url(#paint1_linear)"/>
<path d="M127.053 89.7377C127.053 89.7377 126.65 90.5428 126.099 91.5098C125.883 91.8905 125.643 92.2997 125.397 92.6937C124.525 94.0851 125.397 98.5182 125.397 98.5182L123.489 98.779L121.582 97.8272L121.232 94.6105V92.2578L123.407 89.831L124.361 88.7803L127.053 89.7377Z" fill="#F8BDC5"/>
<g opacity="0.1">
<path opacity="0.1" d="M127.054 89.7377C127.054 89.7377 126.651 90.5428 126.1 91.5098C125.258 91.0607 124.443 90.5611 123.662 90.0137L123.494 89.8957L123.404 89.831L124.358 88.7803L127.054 89.7377Z" fill="black"/>
</g>
<path d="M136.38 73.4783C136.38 73.4783 131.762 83.3019 131.937 84.1718C132.113 85.0417 129.236 91.9968 129.236 91.9968C128.58 92.3051 127.374 91.8616 126.237 91.2735C125.38 90.8175 124.552 90.309 123.757 89.7507L123.589 89.6327L123.488 89.5604L131.069 68.6074L124.362 63.6985L123.866 63.3349L120.867 61.127L130.024 62.7791C130.024 62.7791 130.342 62.7392 132.027 63.6795C132.836 64.1306 133.959 64.8063 135.512 65.8227C140.298 68.9577 136.38 73.4783 136.38 73.4783Z" fill="#3C354C"/>
<path d="M122.349 91.4748C122.349 91.4748 120.083 91.1264 120.869 94.7791C120.869 94.7791 120.903 99.0618 121.218 99.728C121.533 100.394 125.052 101.293 125.661 100.598C126.269 99.9032 125.268 97.5124 125.268 97.5124C125.268 97.5124 122.698 99.3816 122 97.3811C121.302 95.3806 122.349 91.4748 122.349 91.4748Z" fill="#5D3E53"/>
<path d="M120.78 90.7799C120.532 91.0148 120.331 91.2937 120.186 91.6022C120.006 91.9516 119.892 92.3309 119.849 92.7214C119.826 93.0183 119.778 93.3133 119.729 93.6065C119.511 94.8456 120.345 98.5173 120.345 98.5173L117.033 99.0389L115.814 97.735L115.553 94.8665C115.878 93.883 116.054 92.8565 116.075 91.8211C116.075 91.073 116.457 90.4049 116.838 89.9176C117.097 89.5925 117.394 89.2992 117.722 89.0439C117.722 89.0439 121.478 90.1708 120.78 90.7799Z" fill="#F8BDC5"/>
<g opacity="0.1">
<path opacity="0.1" d="M120.779 90.7807C120.532 91.0157 120.331 91.2945 120.186 91.603C118.83 90.992 117.405 90.2211 116.886 89.9356L116.846 89.9147C117.104 89.5895 117.401 89.2963 117.729 89.041C117.729 89.041 121.477 90.1716 120.779 90.7807Z" fill="black"/>
</g>
<path d="M131.498 70.8706C131.498 70.8706 129.321 74.9573 127.925 78.3473C127.009 80.5743 125.117 85.8773 123.919 89.2539L123.743 89.7526C123.217 91.2468 122.866 92.2575 122.866 92.2575C122.634 92.2591 122.403 92.2251 122.181 92.1567C121.975 92.1015 121.744 92.0272 121.498 91.9359L121.221 91.8312C120.947 91.7246 120.649 91.6009 120.365 91.4714C118.98 90.8547 117.504 90.0515 116.967 89.7583L116.765 89.646C117.788 87.6021 118.551 85.439 119.037 83.2067C119.821 79.556 122.522 74.2606 122.522 74.2606L122.872 72.5209L116.336 71.651C111.412 69.1956 113.805 64.3552 115.211 62.2062C115.45 61.8332 115.709 61.4729 115.987 61.127L121.216 62.269C121.216 62.269 122.04 62.5317 123.871 63.3406L124.712 63.7213C125.739 64.1915 127.002 64.7968 128.528 65.5734C133.674 68.1696 131.498 70.8706 131.498 70.8706Z" fill="#3C354C"/>
<path d="M120.312 98.2566C120.499 98.5701 120.588 98.9316 120.569 99.2957C120.55 99.6597 120.423 100.01 120.205 100.302C119.987 100.595 119.687 100.816 119.342 100.938C118.998 101.061 118.626 101.079 118.271 100.99C117.201 100.725 115.932 100.272 115.551 99.5586C114.855 98.2547 115.202 92.8642 115.202 92.8642L116.117 91.5166C116.117 91.5166 115.639 97.4724 116.772 97.9883C117.905 98.5041 120.301 98.23 120.301 98.23L120.312 98.2566Z" fill="#5D3E53"/>
<path d="M121.24 22.651C120.892 22.7476 120.576 22.9349 120.324 23.1935C119.981 23.5932 119.943 24.1642 119.71 24.642C119.348 25.4034 118.565 25.8697 117.871 26.3551C117.177 26.8405 116.484 27.5238 116.48 28.3727C116.48 29.5795 117.816 30.3371 118.251 31.4582C118.665 32.5051 118.251 33.6681 118.02 34.7701C117.924 35.127 117.915 35.5016 117.993 35.8627C118.084 36.1306 118.222 36.38 118.401 36.5993C119.243 37.7414 120.288 38.754 120.851 40.0541C121.278 41.0419 121.396 42.1326 121.509 43.2042C121.671 44.746 121.833 46.3163 121.539 47.8391C121.511 47.9302 121.511 48.0278 121.539 48.1189C121.59 48.2062 121.668 48.2735 121.763 48.3092C122.318 48.5783 122.922 48.7327 123.538 48.763C124.155 48.7933 124.771 48.6989 125.35 48.4856C125.929 48.2722 126.458 47.9443 126.907 47.5215C127.356 47.0986 127.714 46.5897 127.961 46.0251C128.342 45.1629 128.489 44.1217 129.244 43.5621C129.333 43.4893 129.439 43.4414 129.552 43.4231C129.73 43.428 129.902 43.4857 130.047 43.5887C131.028 44.1179 132.216 44.1331 133.31 43.9161C133.97 43.7848 134.645 43.5507 135.082 43.0367C135.942 42.0165 135.463 40.4919 135.52 39.1614C135.566 38.0973 135.976 36.9743 135.52 36.0112C135.005 34.911 133.493 34.359 133.367 33.156C133.29 32.4365 133.76 31.7837 133.968 31.0908C134.462 29.4291 133.435 27.7351 132.455 26.3056C132.125 25.7724 131.721 25.2885 131.255 24.8685C130.815 24.5343 130.33 24.2651 129.813 24.0691C128.376 23.4657 126.911 23.1611 125.425 22.75C124.002 22.3446 122.692 22.1561 121.24 22.651Z" fill="#85555C"/>
<path d="M128.535 47.4833H123.479V39.31C123.63 38.525 123.718 37.7294 123.743 36.9307C123.743 36.6623 123.743 36.3882 123.743 36.1122C123.695 35.1376 123.493 34.165 122.962 33.5711C121.568 32.0065 127.493 32.2673 127.493 32.2673C127.675 32.9857 127.911 33.6895 128.199 34.3725C128.628 35.4382 129.199 36.4414 129.897 37.3551C130.51 38.1682 131.297 38.8357 132.199 39.31C135.679 41.0497 128.535 47.4833 128.535 47.4833Z" fill="#F8BDC5"/>
<g opacity="0.1">
<path opacity="0.1" d="M128.195 34.3725C127.682 35.0402 126.995 35.5553 126.21 35.8619C125.424 36.1685 124.57 36.2551 123.739 36.1122C123.691 35.1376 123.489 34.165 122.959 33.5711C121.564 32.0065 127.489 32.2673 127.489 32.2673C127.671 32.9857 127.907 33.6895 128.195 34.3725Z" fill="black"/>
</g>
<path d="M124.525 35.9215C127.075 35.9215 129.143 33.8583 129.143 31.3133C129.143 28.7682 127.075 26.7051 124.525 26.7051C121.974 26.7051 119.906 28.7682 119.906 31.3133C119.906 33.8583 121.974 35.9215 124.525 35.9215Z" fill="#F8BDC5"/>
<path d="M143.697 39.2238C143.47 40.4296 143.325 41.6493 143.262 42.8746C143.191 44.4411 142.073 50.1209 141.665 52.1481C141.614 52.408 141.498 52.6513 141.33 52.8561C141.162 53.061 140.945 53.2212 140.7 53.3225C139.567 53.785 137.506 54.0439 136.121 50.7871C135.341 48.9951 134.707 47.1427 134.227 45.2482C134.057 44.6113 133.93 43.964 133.846 43.3105L136.898 41.6583C137.185 41.9265 137.428 42.238 137.619 42.5815C138.041 43.3029 138.474 44.4601 138.382 46.0914L139.336 47.4828C139.336 47.4828 141.688 40.1793 141.243 38.8755C140.799 37.5716 142.638 37.2233 142.638 37.2233C142.638 37.2233 147.779 33.2261 148.389 33.8333C149 34.4405 146.571 37.4841 143.697 39.2238Z" fill="#F8BDC5"/>
<path d="M118.689 42.7011C118.451 43.3812 118.177 44.0483 117.869 44.6997C116.843 46.9019 114.832 50.41 111.719 52.439C106.927 55.5683 107.972 49.2222 107.972 49.2222C107.972 49.2222 109.145 41.677 109.367 40.9632C109.716 39.8326 109.54 38.0948 109.54 38.0948C107.711 37.2249 105.62 31.7487 106.229 31.3128C106.837 30.877 111.189 35.921 111.189 35.921C111.189 35.921 113.193 36.8728 112.142 38.4431C111.091 40.0134 111.532 46.9628 111.532 46.9628L113.548 44.1857C113.997 43.0269 114.599 41.9335 115.339 40.9347C115.721 40.415 115.988 40.101 115.988 40.101L118.689 42.7011Z" fill="#F8BDC5"/>
<g opacity="0.1">
<path opacity="0.1" d="M137.621 42.5813C136.98 42.8173 134.498 43.8166 134.223 45.2461C134.054 44.6093 133.926 43.962 133.842 43.3084L136.894 41.6562C137.183 41.9246 137.429 42.2368 137.621 42.5813Z" fill="black"/>
</g>
<g opacity="0.1">
<path opacity="0.1" d="M118.69 42.7015C118.452 43.3816 118.178 44.0487 117.869 44.7001C117.751 43.8398 117.265 41.6394 115.34 40.9294C115.721 40.4098 115.988 40.0957 115.988 40.0957L118.69 42.7015Z" fill="black"/>
</g>
<g opacity="0.1">
<path opacity="0.1" d="M128.536 47.4833H123.48V39.31C123.631 38.525 123.719 37.7294 123.744 36.9307C124.783 37.9319 124.526 39.4832 124.526 39.4832L127.227 45.5741L128.536 40.1893L128.101 39.4946L129.894 37.3666C130.508 38.1796 131.294 38.8471 132.196 39.3214C135.68 41.0497 128.536 47.4833 128.536 47.4833Z" fill="black"/>
</g>
<g opacity="0.1">
<path opacity="0.1" d="M132.107 64.1724C132.107 64.1724 128.147 63.8584 124.711 63.7099L124.366 63.6947C123.877 63.6756 123.412 63.6604 122.956 63.649C119.621 63.569 115.85 62.4061 115.209 62.2024C115.449 61.8306 115.709 61.4716 115.987 61.127L121.216 62.269C121.216 62.269 122.04 62.5317 123.872 63.3406L120.867 61.127L130.024 62.7791C130.024 62.7791 130.342 62.7392 132.027 63.6794L132.107 64.1724Z" fill="black"/>
</g>
<path d="M128.535 40.5282L128.1 39.8334L130.035 37.5246C130.035 37.5246 134.024 39.4756 135.069 39.0473C135.069 39.0473 137.597 41.1411 137.682 42.3517C137.682 42.3517 134.024 43.568 134.109 45.3972C134.195 47.2264 132.374 51.1341 132.374 51.1341L131.61 54.2595C131.141 56.1537 131.076 58.1251 131.42 60.046L132.116 63.9156C132.116 63.9156 126.626 63.4817 122.959 63.3941C119.293 63.3065 115.117 61.917 115.117 61.917L117.256 57.4268C118.027 55.8064 118.404 54.0275 118.358 52.2343L118.167 44.9651C118.167 44.9651 117.994 41.3143 115.115 40.7052C115.115 40.7052 116.683 37.4884 119.121 37.7492C119.121 37.7492 122.673 36.2702 123.728 37.2695C124.783 38.2688 124.524 39.8353 124.524 39.8353L127.225 45.9263L128.535 40.5282Z" fill="#2FD0A9"/>
<g opacity="0.1">
<path opacity="0.1" d="M121.193 30.3631C121.893 30.3631 122.443 29.6227 123.143 29.6608C123.505 29.6798 123.816 29.9101 124.116 30.1176C125.247 30.8996 126.507 31.4792 127.837 31.8307C128.354 31.9677 128.902 32.0705 129.421 31.9449C129.94 31.8193 130.426 31.4119 130.485 30.8809C130.5 30.6468 130.469 30.4122 130.394 30.1899C129.806 28.148 128.477 26.3978 126.666 25.281C125.941 24.8375 125.056 24.4987 124.253 24.7766C123.528 25.0259 123.061 25.7035 122.536 26.2613C122.141 26.6788 121.692 27.0424 121.201 27.3424C120.819 27.5727 120.247 27.7231 120.028 28.1456C119.614 28.9337 120.264 30.3555 121.193 30.3631Z" fill="black"/>
</g>
<path d="M121.193 30.1903C121.893 30.1903 122.443 29.4499 123.143 29.4879C123.505 29.507 123.816 29.7373 124.116 29.9448C125.247 30.7267 126.507 31.3064 127.837 31.6578C128.354 31.7949 128.902 31.8977 129.421 31.772C129.94 31.6464 130.426 31.2391 130.485 30.708C130.5 30.474 130.469 30.2393 130.394 30.0171C129.806 27.9751 128.477 26.2249 126.666 25.1081C125.941 24.6646 125.056 24.3258 124.253 24.6037C123.528 24.8531 123.061 25.5307 122.536 26.0884C122.141 26.506 121.692 26.8695 121.201 27.1696C120.819 27.3999 120.247 27.5502 120.028 27.9728C119.614 28.7684 120.264 30.1808 121.193 30.1903Z" fill="#85555C"/>
<path opacity="0.05" d="M119.082 50.0469C119.082 50.0469 123.351 51.6115 126.14 50.3952L127.535 50.4828C127.535 50.4828 129.852 52.1045 132.304 51.3793" fill="black"/>
<path opacity="0.05" d="M139.296 47.4395C139.296 47.4395 138.599 49.0916 138.947 49.6132L139.296 47.4395Z" fill="black"/>
<path opacity="0.05" d="M111.5 46.917C111.5 46.917 111.849 48.5692 111.5 49.0907V46.917Z" fill="black"/>
<path d="M183.766 84.5654C183.766 84.5654 175.785 92.5294 180.29 104.346C184.796 116.162 172.568 135.813 172.568 135.813C172.568 135.813 172.7 135.794 172.95 135.752C189.342 132.865 197.486 114.16 188.371 100.263C184.974 95.0952 182.192 89.0347 183.766 84.5654Z" fill="#0155E1"/>
<path opacity="0.1" d="M183.766 84.6992C183.766 84.6992 175.785 92.6632 180.29 104.48C184.796 116.296 172.568 135.945 172.568 135.945C172.568 135.945 172.7 135.926 172.95 135.884C189.342 132.997 197.486 114.292 188.371 100.395C184.974 95.229 182.192 89.1685 183.766 84.6992Z" fill="black"/>
<path d="M183.766 84.5654C183.766 84.5654 179.26 94.3262 183.766 102.29C188.272 110.254 184.529 132.602 172.566 135.813" stroke="#535461" stroke-miterlimit="10"/>
<path d="M197.982 116.776C197.982 116.776 188.875 115.33 188.045 123.472C187.215 131.615 170.527 132.744 170.527 132.744L170.84 132.952C184.613 141.974 197.782 138.698 195.796 126.718C195.063 122.266 195.124 117.793 197.982 116.776Z" fill="#0155E1"/>
<path d="M197.98 116.775C197.98 116.775 190.91 118.323 191.494 124.737C192.078 131.152 181.002 138.84 170.533 132.745" stroke="#535461" stroke-miterlimit="10"/>
<path d="M189.97 133.04C189.97 133.04 182.797 131.609 180.884 129.7C178.97 127.791 170.363 124.452 169.407 126.845C168.452 129.237 156.497 137.342 164.625 138.773C172.753 140.205 183.753 140.677 186.143 139.725C188.533 138.773 189.97 133.04 189.97 133.04Z" fill="#A8A8A8"/>
<path opacity="0.2" d="M164.623 137.88C172.753 139.311 183.751 139.784 186.141 138.832C187.963 138.105 189.228 134.614 189.727 132.988L189.966 133.038C189.966 133.038 188.531 138.763 186.141 139.717C183.751 140.671 172.752 140.195 164.623 138.765C162.277 138.352 161.605 137.381 161.859 136.154C162.057 136.955 162.876 137.572 164.623 137.88Z" fill="black"/>
</g>
<defs>
<linearGradient id="paint0_linear" x1="99.5677" y1="142.074" x2="99.5677" y2="4.26562" gradientUnits="userSpaceOnUse">
<stop stop-color="#808080" stop-opacity="0.25"/>
<stop offset="0.54" stop-color="#808080" stop-opacity="0.12"/>
<stop offset="1" stop-color="#808080" stop-opacity="0.1"/>
</linearGradient>
<linearGradient id="paint1_linear" x1="33383.9" y1="47349.8" x2="33383.9" y2="14250.2" gradientUnits="userSpaceOnUse">
<stop stop-color="#808080" stop-opacity="0.25"/>
<stop offset="0.54" stop-color="#808080" stop-opacity="0.12"/>
<stop offset="1" stop-color="#808080" stop-opacity="0.1"/>
</linearGradient>
<clipPath id="clip0">
<rect width="198" height="147" fill="white"/>
</clipPath>
</defs>
</svg>
