<svg width="301" height="190" viewBox="0 0 301 190" fill="none" xmlns="http://www.w3.org/2000/svg">
<g clip-path="url(#clip0)">
<path d="M82.5561 189.751L74.7383 166.722C74.7383 166.722 83.3379 171.245 83.7288 177.003C83.7288 177.003 81.7743 148.216 77.8654 142.048C77.8654 142.048 84.1197 142.87 91.1557 174.947C91.1557 174.947 92.3284 137.935 81.7743 127.243C81.7743 127.243 96.2373 139.58 97.41 166.311V189.751H82.5561Z" fill="#F2F2F2"/>
<path d="M229.171 189.75L227.291 184.213C227.291 184.213 229.359 185.301 229.453 186.685C229.453 186.685 228.983 179.763 228.043 178.28C228.043 178.28 229.547 178.478 231.238 186.191C231.238 186.191 231.52 177.292 228.983 174.721C228.983 174.721 232.46 177.687 232.742 184.114V189.75L229.171 189.75Z" fill="#F2F2F2"/>
<path d="M194.347 142.126C213.327 142.126 228.713 125.939 228.713 105.971C228.713 86.0035 213.327 69.8164 194.347 69.8164C175.367 69.8164 159.98 86.0035 159.98 105.971C159.98 125.939 175.367 142.126 194.347 142.126Z" fill="#F2F2F2"/>
<path d="M81.0567 2.74219H0V50.1175H81.0567V2.74219Z" fill="#3F3D56"/>
<path d="M191.029 2.74219H109.973V50.1175H191.029V2.74219Z" fill="#3F3D56"/>
<path d="M301 2.74219H219.943V50.1175H301V2.74219Z" fill="#3F3D56"/>
<path d="M208.365 189.881C208.311 189.787 207.028 187.534 206.583 182.856C206.176 178.564 206.438 171.33 210.004 161.238C216.76 142.121 208.447 126.696 208.362 126.542L208.772 126.292C208.794 126.331 210.939 130.264 212.206 136.526C213.881 144.829 213.271 153.461 210.448 161.412C203.704 180.497 208.718 189.532 208.769 189.621L208.365 189.881Z" fill="#3F3D56"/>
<path d="M205.722 125.419C207.423 125.419 208.803 123.968 208.803 122.178C208.803 120.388 207.423 118.937 205.722 118.937C204.02 118.937 202.641 120.388 202.641 122.178C202.641 123.968 204.02 125.419 205.722 125.419Z" fill="#0155E1"/>
<path d="M215.44 137.388C217.142 137.388 218.522 135.937 218.522 134.147C218.522 132.357 217.142 130.905 215.44 130.905C213.739 130.905 212.359 132.357 212.359 134.147C212.359 135.937 213.739 137.388 215.44 137.388Z" fill="#3F3D56"/>
<path d="M208.804 145.368C210.505 145.368 211.885 143.916 211.885 142.126C211.885 140.336 210.505 138.885 208.804 138.885C207.102 138.885 205.723 140.336 205.723 142.126C205.723 143.916 207.102 145.368 208.804 145.368Z" fill="#0155E1"/>
<path d="M216.862 152.1C218.564 152.1 219.943 150.649 219.943 148.859C219.943 147.068 218.564 145.617 216.862 145.617C215.161 145.617 213.781 147.068 213.781 148.859C213.781 150.649 215.161 152.1 216.862 152.1Z" fill="#0155E1"/>
<path d="M206.435 162.572C208.136 162.572 209.516 161.121 209.516 159.33C209.516 157.54 208.136 156.089 206.435 156.089C204.733 156.089 203.354 157.54 203.354 159.33C203.354 161.121 204.733 162.572 206.435 162.572Z" fill="#3F3D56"/>
<path d="M210.225 190C210.225 190 207.144 182.021 216.388 176.037L210.225 190Z" fill="#3F3D56"/>
<path d="M206.437 189.855C206.437 189.855 205.035 181.37 194.182 181.443L206.437 189.855Z" fill="#3F3D56"/>
<path d="M80.9388 0H0.119141V4.23884H80.9388V0Z" fill="#3F3D56"/>
<path d="M191.147 0H110.09V4.23884H191.147V0Z" fill="#3F3D56"/>
<path d="M300.882 0H220.062V4.23884H300.882V0Z" fill="#3F3D56"/>
<path d="M20.8566 10.8467H6.16211V21.8178H20.8566V10.8467Z" fill="white"/>
<path d="M74.8936 10.8467H34.3652V12.0934H74.8936V10.8467Z" fill="white"/>
<path d="M74.8936 15.833H34.3652V17.0797H74.8936V15.833Z" fill="white"/>
<path d="M74.8936 20.8203H34.3652V22.067H74.8936V20.8203Z" fill="white"/>
<path d="M130.829 10.8467H116.135V21.8178H130.829V10.8467Z" fill="white"/>
<path d="M184.866 10.8467H144.338V12.0934H184.866V10.8467Z" fill="white"/>
<path d="M184.866 15.833H144.338V17.0797H184.866V15.833Z" fill="white"/>
<path d="M184.866 20.8203H144.338V22.067H184.866V20.8203Z" fill="white"/>
<path d="M240.8 10.8467H226.105V21.8178H240.8V10.8467Z" fill="white"/>
<path d="M294.837 10.8467H254.309V12.0934H294.837V10.8467Z" fill="white"/>
<path d="M294.837 15.833H254.309V17.0797H294.837V15.833Z" fill="white"/>
<path d="M294.837 20.8203H254.309V22.067H294.837V20.8203Z" fill="white"/>
<path d="M13.5097 21.4435C16.1276 21.4435 18.2498 19.2108 18.2498 16.4566C18.2498 13.7024 16.1276 11.4697 13.5097 11.4697C10.8918 11.4697 8.76953 13.7024 8.76953 16.4566C8.76953 19.2108 10.8918 21.4435 13.5097 21.4435Z" fill="#0155E1"/>
<path d="M233.453 21.4435C236.071 21.4435 238.193 19.2108 238.193 16.4566C238.193 13.7024 236.071 11.4697 233.453 11.4697C230.835 11.4697 228.713 13.7024 228.713 16.4566C228.713 19.2108 230.835 21.4435 233.453 21.4435Z" fill="#0155E1"/>
<path d="M37.8666 50.1182H37.3926V51.6142H37.8666V50.1182Z" fill="#3F3D56"/>
<path d="M37.8666 111.457H37.3926V108.465H37.8666V111.457ZM37.8666 105.473H37.3926V102.48H37.8666V105.473ZM37.8666 99.4883H37.3926V96.4962H37.8666V99.4883ZM37.8666 93.5041H37.3926V90.512H37.8666V93.5041ZM37.8666 87.5198H37.3926V84.5277H37.8666V87.5198ZM37.8666 81.5356H37.3926V78.5435H37.8666V81.5356ZM37.8666 75.5513H37.3926V72.5592H37.8666V75.5513ZM37.8666 69.5671H37.3926V66.5749H37.8666V69.5671ZM37.8666 63.5828H37.3926V60.5907H37.8666V63.5828ZM37.8666 57.5986H37.3926V54.6064H37.8666V57.5986Z" fill="#3F3D56"/>
<path d="M39.0516 116.195H37.3926V114.449H37.8665V115.696H39.0516V116.195Z" fill="#3F3D56"/>
<path d="M256.193 116.194H253.336V115.695H256.193V116.194ZM250.479 116.194H247.622V115.695H250.479V116.194ZM244.765 116.194H241.908V115.695H244.765V116.194ZM239.051 116.194H236.194V115.695H239.051V116.194ZM233.337 116.194H230.479V115.695H233.337V116.194ZM227.622 116.194H224.765V115.695H227.622V116.194ZM221.908 116.194H219.051V115.695H221.908V116.194ZM216.194 116.194H213.337V115.695H216.194V116.194ZM210.48 116.194H207.623V115.695H210.48V116.194ZM204.765 116.194H201.908V115.695H204.765L204.765 116.194ZM199.051 116.194H196.194V115.695H199.051V116.194ZM193.337 116.194H190.48V115.695H193.337V116.194ZM187.623 116.194H184.766V115.695H187.623V116.194ZM181.909 116.194H179.051V115.695H181.909V116.194ZM176.194 116.194H173.337V115.695H176.194V116.194ZM170.48 116.194H167.623V115.695H170.48V116.194ZM164.766 116.194H161.909V115.695H164.766V116.194ZM159.052 116.194H156.195V115.695H159.052V116.194ZM153.338 116.194H150.48V115.695H153.338V116.194ZM147.623 116.194H144.766V115.695H147.623V116.194ZM141.909 116.194H139.052V115.695H141.909V116.194ZM136.195 116.194H133.338V115.695H136.195V116.194ZM130.481 116.194H127.623V115.695H130.481V116.194ZM124.766 116.194H121.909V115.695H124.766V116.194ZM119.052 116.194H116.195V115.695H119.052V116.194ZM113.338 116.194H110.481V115.695H113.338V116.194ZM107.624 116.194H104.767V115.695H107.624V116.194ZM101.909 116.194H99.0523V115.695H101.909V116.194ZM96.1953 116.194H93.3381V115.695H96.1953V116.194ZM90.481 116.194H87.6239V115.695H90.481V116.194ZM84.7668 116.194H81.9096V115.695H84.7668V116.194ZM79.0526 116.194H76.1955V115.695H79.0526V116.194ZM73.3383 116.194H70.4813V115.695H73.3383V116.194ZM67.6241 116.194H64.7671V115.695H67.6241V116.194ZM61.9099 116.194H59.0528V115.695H61.9099V116.194ZM56.1957 116.194H53.3386V115.695H56.1957V116.194ZM50.4814 116.194H47.6244V115.695H50.4814V116.194ZM44.7672 116.194H41.9102V115.695H44.7672L44.7672 116.194Z" fill="#3F3D56"/>
<path d="M260.708 116.195H259.049V115.696H260.234V114.449H260.708V116.195Z" fill="#3F3D56"/>
<path d="M260.708 111.457H260.234V108.465H260.708V111.457ZM260.708 105.473H260.234V102.48H260.708V105.473ZM260.708 99.4883H260.234V96.4962H260.708V99.4883ZM260.708 93.5041H260.234V90.512H260.708V93.5041ZM260.708 87.5198H260.234V84.5277H260.708V87.5198ZM260.708 81.5356H260.234V78.5435H260.708V81.5356ZM260.708 75.5513H260.234V72.5592H260.708V75.5513ZM260.708 69.5671H260.234V66.5749H260.708V69.5671ZM260.708 63.5828H260.234V60.5907H260.708V63.5828ZM260.708 57.5986H260.234V54.6064H260.708V57.5986Z" fill="#3F3D56"/>
<path d="M260.708 50.1182H260.234V51.6142H260.708V50.1182Z" fill="#3F3D56"/>
<path d="M191.029 100.984H109.973V189.751H191.029V100.984Z" fill="#3F3D56"/>
<path d="M130.829 112.578H116.135V123.549H130.829V112.578Z" fill="white"/>
<path d="M184.866 112.578H144.338V113.825H184.866V112.578Z" fill="white"/>
<path d="M184.866 117.565H144.338V118.812H184.866V117.565Z" fill="white"/>
<path d="M184.866 122.553H144.338V123.799H184.866V122.553Z" fill="white"/>
<path d="M130.829 152.1H116.135V163.071H130.829V152.1Z" fill="white"/>
<path d="M184.866 152.1H144.338V153.346H184.866V152.1Z" fill="white"/>
<path d="M184.866 157.087H144.338V158.334H184.866V157.087Z" fill="white"/>
<path d="M184.866 162.073H144.338V163.32H184.866V162.073Z" fill="white"/>
<path d="M123.544 120.839L118.514 113.784L119.705 112.844L123.803 118.592L134.247 109.692L135.19 110.905L123.544 120.839Z" fill="#0155E1"/>
<path d="M123.544 159.986L118.514 152.931L119.705 151.991L123.803 157.738L134.247 148.839L135.19 150.052L123.544 159.986Z" fill="#0155E1"/>
<path d="M294.838 189.501H2.13281V190H294.838V189.501Z" fill="#3F3D56"/>
<path d="M160.703 52.8605C160.703 52.8605 168.524 49.2751 172.198 53.0625C175.872 56.85 162.362 55.6033 160.703 52.8605Z" fill="#3F3D56"/>
<path d="M174.207 35.8569C171.579 31.1846 166.379 30.9668 166.379 30.9668C166.379 30.9668 161.312 30.2851 158.061 37.4011C155.032 44.0338 150.85 50.4378 157.388 51.9904L158.569 48.1235L159.301 52.2783C160.231 52.3488 161.165 52.3656 162.098 52.3286C169.1 52.0908 175.768 52.3982 175.553 49.7549C175.268 46.2411 176.737 40.3526 174.207 35.8569Z" fill="#2F2E41"/>
<path d="M177.885 120.558C177.885 120.558 174.567 127.041 172.434 127.041C170.301 127.041 170.538 131.279 171.012 132.277C171.486 133.274 172.671 135.518 170.775 138.76C170.112 139.892 170.231 141.176 170.665 142.368C171.883 145.708 176.62 144.696 176.469 141.123C176.467 141.083 176.465 141.044 176.463 141.004C176.226 137.014 178.122 130.781 180.018 129.285C181.914 127.789 183.573 123.799 183.573 123.799L177.885 120.558Z" fill="#FFB8B8"/>
<path d="M155.132 119.062C155.132 119.062 158.45 125.544 160.583 125.544C162.716 125.544 162.479 129.783 162.005 130.781C161.531 131.778 160.346 134.022 162.242 137.264C162.904 138.396 162.786 139.68 162.351 140.872C161.133 144.212 156.396 143.2 156.548 139.627C156.549 139.587 156.551 139.548 156.554 139.508C156.791 135.518 154.895 129.285 152.998 127.789C151.102 126.293 149.443 122.303 149.443 122.303L155.132 119.062Z" fill="#FFB8B8"/>
<path d="M157.741 87.1461L156.319 90.3876C156.319 90.3876 135.462 97.6185 137.358 106.096C139.254 114.574 148.498 127.789 149.92 127.29C151.342 126.792 158.926 125.296 159.163 121.057C159.4 116.818 153.712 109.338 153.712 109.338L161.533 101.857L172.914 101.608L182.627 109.338C182.627 109.338 172.435 118.813 176.938 122.553C181.442 126.293 188.078 128.787 189.026 127.29C189.974 125.794 200.639 103.603 198.98 101.608C197.321 99.6133 180.494 92.133 180.494 92.133L175.99 85.4007L158.452 84.4033L157.741 87.1461Z" fill="#2F2E41"/>
<path d="M162.007 46.004C162.007 46.004 163.192 54.2324 160.822 55.2298C158.452 56.2271 165.562 60.466 165.562 60.466H169.591L172.198 54.7311C172.198 54.7311 169.828 50.2429 171.25 46.004C172.672 41.7652 162.007 46.004 162.007 46.004Z" fill="#FFB8B8"/>
<path opacity="0.1" d="M162.007 46.004C162.007 46.004 163.192 54.2324 160.822 55.2298C158.452 56.2271 165.562 60.466 165.562 60.466H169.591L172.198 54.7311C172.198 54.7311 169.828 50.2429 171.25 46.004C172.672 41.7652 162.007 46.004 162.007 46.004Z" fill="black"/>
<path d="M160.347 52.9854C160.347 52.9854 162.954 55.9775 163.428 56.4762C163.902 56.9749 166.035 59.7176 170.538 55.7281C175.041 51.7386 175.515 56.4762 175.515 56.4762V86.3974C175.515 86.3974 171.723 84.6521 168.642 86.3974C165.561 88.1428 159.162 85.8988 159.162 85.8988L157.977 54.9801L160.347 52.9854Z" fill="white"/>
<path d="M162.089 52.9853C162.089 52.9853 159.874 51.9879 157.978 52.9853C156.082 53.9826 149.446 58.9695 149.92 61.2136C150.394 63.4577 156.556 79.1664 152.29 86.6467C148.024 94.127 147.312 96.1218 147.312 96.1218L157.741 90.3868C157.741 90.3868 165.799 85.1506 165.088 81.9092C164.377 78.6677 162.089 52.9853 162.089 52.9853Z" fill="#0155E1"/>
<path d="M171.49 52.9854C171.49 52.9854 176.464 53.484 176.701 53.9827C176.938 54.4814 184.167 56.6008 183.693 58.8449C183.219 61.089 176.701 81.1612 179.545 84.9014C182.389 88.6415 187.129 93.8777 185.47 94.3764C183.811 94.8751 180.967 93.6284 178.123 94.3764C175.279 95.1245 168.643 88.8909 169.354 82.1586C170.065 75.4263 169.359 54.7308 171.49 52.9854Z" fill="#0155E1"/>
<path d="M159.636 100.61V103.103C159.636 103.103 158.451 108.838 162.243 108.589C166.035 108.34 163.665 101.607 163.665 101.607L163.428 99.3633L159.636 100.61Z" fill="#FFB8B8"/>
<path d="M170.301 100.859C170.301 100.859 167.694 106.594 170.301 107.093C172.908 107.592 174.804 103.851 174.804 102.854C174.804 101.857 170.301 100.859 170.301 100.859Z" fill="#FFB8B8"/>
<path d="M173.738 43.6354C174 43.6354 174.212 43.1888 174.212 42.638C174.212 42.0872 174 41.6406 173.738 41.6406C173.476 41.6406 173.264 42.0872 173.264 42.638C173.264 43.1888 173.476 43.6354 173.738 43.6354Z" fill="#FFB8B8"/>
<path d="M159.753 43.6354C160.015 43.6354 160.227 43.1888 160.227 42.638C160.227 42.0872 160.015 41.6406 159.753 41.6406C159.492 41.6406 159.279 42.0872 159.279 42.638C159.279 43.1888 159.492 43.6354 159.753 43.6354Z" fill="#FFB8B8"/>
<path d="M177.886 56.2266C177.886 56.2266 183.811 56.2266 183.574 58.72C183.337 61.2134 175.516 104.101 175.516 104.101C175.516 104.101 172.198 100.859 169.354 101.607L177.886 56.2266Z" fill="#0155E1"/>
<path d="M154.896 56.9746C154.896 56.9746 148.971 58.2213 148.971 61.9615C148.971 65.7017 157.503 101.607 158.688 101.607C159.873 101.607 164.376 100.859 164.376 99.6124C164.376 98.3657 154.896 56.9746 154.896 56.9746Z" fill="#0155E1"/>
<path opacity="0.2" d="M156.199 64.3301L161.532 86.2701C161.532 86.2701 159.043 67.0729 156.199 64.3301Z" fill="black"/>
<path opacity="0.2" d="M176.942 61.248L171.549 89.9334C171.549 89.9334 173.273 62.9027 176.942 61.248Z" fill="black"/>
<path d="M166.746 49.9932C170.542 49.9932 173.62 46.7558 173.62 42.7622C173.62 38.7687 170.542 35.5312 166.746 35.5312C162.95 35.5312 159.873 38.7687 159.873 42.7622C159.873 46.7558 162.95 49.9932 166.746 49.9932Z" fill="#FFB8B8"/>
<path d="M173.045 35.4063L167.908 32.5752L160.814 33.7332L159.346 40.5536L163 40.4059L164.02 37.9002V40.3646L165.706 40.2963L166.685 36.3069L167.297 40.5536L173.29 40.4251L173.045 35.4063Z" fill="#2F2E41"/>
</g>
<defs>
<clipPath id="clip0">
<rect width="301" height="190" fill="white"/>
</clipPath>
</defs>
</svg>
