<svg width="256" height="204" viewBox="0 0 256 204" fill="none" xmlns="http://www.w3.org/2000/svg">
<g clip-path="url(#clip0)">
<circle cx="36" cy="41" r="24" fill="#0155E1"/>
<path opacity="0.1" d="M130.209 204C195.582 204 248.576 199.663 248.576 194.312C248.576 188.961 195.582 184.623 130.209 184.623C64.8366 184.623 11.8418 188.961 11.8418 194.312C11.8418 199.663 64.8366 204 130.209 204Z" fill="#0155E1"/>
<path d="M226.926 37.4092H34.0341C32.9593 37.4092 32.0879 38.2779 32.0879 39.3496V133.701C32.0879 134.773 32.9593 135.641 34.0341 135.641H226.926C228 135.641 228.872 134.773 228.872 133.701V39.3496C228.872 38.2779 228 37.4092 226.926 37.4092Z" fill="#3F3D56"/>
<path opacity="0.1" d="M32.0879 129.721H228.872V133.701C228.872 134.216 228.667 134.709 228.302 135.073C227.937 135.437 227.442 135.642 226.926 135.642H34.0341C33.518 135.642 33.0229 135.437 32.6579 135.073C32.2929 134.709 32.0879 134.216 32.0879 133.701V129.721Z" fill="black"/>
<path d="M65.1557 122.453H51.9287C51.556 122.453 51.2539 122.754 51.2539 123.126V129.047C51.2539 129.418 51.556 129.72 51.9287 129.72H65.1557C65.5284 129.72 65.8305 129.418 65.8305 129.047V123.126C65.8305 122.754 65.5284 122.453 65.1557 122.453Z" fill="#0155E1"/>
<path d="M79.3267 128.644H70.4188C70.1206 128.644 69.8789 128.885 69.8789 129.182C69.8789 129.479 70.1206 129.72 70.4188 129.72H79.3267C79.6249 129.72 79.8666 129.479 79.8666 129.182C79.8666 128.885 79.6249 128.644 79.3267 128.644Z" fill="#0155E1"/>
<path d="M61.0115 56.6194C68.1351 57.93 75.4018 56.6194 82.4958 55.7312L104.056 53.0399C104.928 52.9296 106.196 52.4102 106.709 53.4732C106.998 54.068 106.804 55.3572 106.825 56.0407C106.882 57.9246 106.876 59.8086 106.825 61.6925C106.728 65.2934 106.463 68.8863 106.126 72.4711C105.47 79.4873 104.542 86.4658 104.077 93.5089C103.84 97.0937 103.721 100.689 103.826 104.274C103.85 105.13 103.886 105.986 103.937 106.839C103.994 107.794 104.423 109.213 103.378 109.85C102.782 110.216 101.607 110.198 100.924 110.305C99.8446 110.475 98.7649 110.609 97.6635 110.72C90.4049 111.444 83.0518 111.142 75.7663 111.099L53.7664 110.986L48.4001 110.957C47.9142 110.957 46.1623 111.247 45.8627 110.671C45.7358 110.426 46.0732 109.28 46.1326 108.973C46.2154 108.467 46.3054 107.962 46.4025 107.458C47.0288 103.919 47.7684 100.401 48.5134 96.8865C50.1142 89.3509 51.7527 81.7776 52.4113 74.0805C52.738 70.2185 52.522 66.3215 52.9215 62.4675C53.1078 60.6778 53.3291 56.684 55.7181 56.5252C57.7426 56.3906 59.8265 56.5252 61.8564 56.5252C61.9638 56.5252 62.0668 56.4826 62.1427 56.4069C62.2187 56.3312 62.2613 56.2285 62.2613 56.1215C62.2613 56.0144 62.2187 55.9117 62.1427 55.836C62.0668 55.7603 61.9638 55.7178 61.8564 55.7178C59.9399 55.7178 58.0206 55.6667 56.1041 55.7043C54.83 55.7286 53.9446 56.03 53.3372 57.198C51.7851 60.1961 51.9443 64.1954 51.8957 67.468C51.7797 75.3023 50.5731 82.9698 49.002 90.6319C48.2111 94.4886 47.3581 98.3317 46.5726 102.191C46.2028 104.035 45.8492 105.883 45.5252 107.738C45.3741 108.621 44.6102 110.566 45.2823 111.376C45.9544 112.186 48.0222 111.751 48.948 111.756L55.3887 111.794L67.7302 111.864C75.7042 111.909 83.7051 112.133 91.6763 111.899C95.4824 111.785 99.5045 111.629 103.211 110.722C104.315 110.453 104.847 109.947 104.89 108.774C104.955 106.955 104.658 105.079 104.62 103.251C104.35 87.615 108.035 72.1966 107.657 56.5548C107.632 55.4917 108.034 52.8112 106.868 52.168C106.345 51.8773 105.664 52.0361 105.114 52.1007C104.061 52.2218 103.011 52.3698 101.958 52.4936L88.2859 54.1945C83.9156 54.7328 79.5481 55.3141 75.1697 55.8093C70.5349 56.3475 65.8542 56.6678 61.2356 55.8093C60.7254 55.7151 60.5067 56.4929 61.0196 56.5871L61.0115 56.6194Z" fill="#0155E1"/>
<path d="M52.4171 66.133L106.356 63.4955C106.877 63.4686 106.88 62.6612 106.356 62.6882L52.4171 65.3256C51.8988 65.3498 51.8961 66.1572 52.4171 66.133Z" fill="#0155E1"/>
<path d="M69.034 59.4776C68.8832 59.637 68.7737 59.8307 68.715 60.0419C68.6563 60.253 68.6503 60.4753 68.6974 60.6894C68.7444 60.9034 68.8433 61.1028 68.9852 61.2701C69.1271 61.4374 69.3079 61.5676 69.5118 61.6494C70.238 61.9805 71.091 61.7033 71.8117 61.523C72.8915 61.2538 73.9712 61.0143 75.0806 60.8178C77.4953 60.3916 79.9411 60.1648 82.3932 60.1396C83.5108 60.1262 84.6202 60.1773 85.7378 60.2258C86.5476 60.258 87.4195 60.3226 88.1051 59.8221C88.8879 59.2515 89.1417 58.1373 88.375 57.443C87.2953 56.4606 84.9684 57.0312 83.7213 57.1335C79.1961 57.5083 74.7001 58.1771 70.2623 59.1358C69.7548 59.2434 69.968 60.0239 70.4782 59.9136C73.4061 59.2838 76.3565 58.7778 79.3295 58.3957C80.7907 58.2163 82.2547 58.0646 83.7213 57.9408C84.4124 57.8843 85.1034 57.8332 85.7944 57.7928C86.0644 57.7767 86.3505 57.7471 86.6259 57.7551C87.4816 57.774 87.5814 57.6206 87.0685 58.6513C86.6124 59.5637 86.7581 59.4587 85.9672 59.4291C85.6325 59.4291 85.2978 59.3915 84.963 59.3753C84.2774 59.3466 83.5918 59.3314 82.9061 59.3296C81.4467 59.3296 79.9908 59.3995 78.5385 59.5395C77.3076 59.6579 76.0794 59.8247 74.862 60.0401C74.1008 60.1746 73.3449 60.3307 72.5918 60.503C72.2598 60.581 71.9251 60.6617 71.5931 60.7452C71.4338 60.7882 71.2718 60.8259 71.1126 60.8663C70.5223 61.0708 70.0193 60.8017 69.6036 60.0589C69.9653 59.6848 69.3958 59.1116 69.0313 59.4883L69.034 59.4776Z" fill="#0155E1"/>
<path d="M78.8102 70.9645C74.9042 70.8137 70.6851 71.866 68.1126 75.0014C66.0989 77.4532 64.9516 81.6597 67.0841 84.4209C69.3759 87.3814 74.4021 86.8592 77.4335 85.597C80.6404 84.2514 84.1495 81.4767 85.1132 78.0049C86.3144 73.6692 82.4138 70.3912 78.3513 70.3428C77.8303 70.3428 77.8303 71.1502 78.3513 71.1502C80.6674 71.1771 82.9402 72.1675 84.02 74.3178C85.151 76.5839 84.1765 78.963 82.6703 80.7769C80.2571 83.6647 76.4833 85.8419 72.6394 85.78C70.3315 85.7451 67.7806 84.9565 67.0652 82.529C66.4768 80.5616 66.9249 78.4113 67.9506 76.6673C70.1695 72.8995 74.6856 71.6238 78.8264 71.7853C79.3474 71.8042 79.3474 70.9968 78.8264 70.9779L78.8102 70.9645Z" fill="#0155E1"/>
<path d="M74.9322 76.9443C74.7657 76.8827 74.5862 76.8642 74.4106 76.8904C74.2349 76.9166 74.0688 76.9867 73.9276 77.0942C73.7865 77.2016 73.6749 77.3429 73.6032 77.5049C73.5315 77.667 73.5021 77.8444 73.5178 78.0208C73.5987 79.0704 74.7595 79.3664 75.6313 79.3045C76.3845 79.24 77.2645 78.9627 76.9999 78.0235C76.9512 77.8572 76.8672 77.7034 76.7536 77.5724C76.6399 77.4415 76.4993 77.3365 76.3413 77.2645C76.0997 77.169 75.8377 77.1366 75.5801 77.1703C75.4802 77.1703 74.5651 77.5041 74.9538 77.1031L74.3168 77.0196C74.3875 77.0892 74.4416 77.1736 74.4753 77.2667C74.5089 77.3599 74.5211 77.4594 74.5111 77.5579C74.5123 77.6282 74.5318 77.697 74.5677 77.7576C74.6036 77.8182 74.6547 77.8684 74.7159 77.9034C74.7771 77.9384 74.8464 77.957 74.917 77.9572C74.9875 77.9575 75.057 77.9396 75.1185 77.9051C75.2111 77.8664 75.3127 77.8543 75.4118 77.87C75.511 77.8858 75.6038 77.9288 75.6798 77.9942C75.7558 78.0596 75.8119 78.1449 75.842 78.2404C75.8721 78.3359 75.8748 78.4378 75.85 78.5348C75.8282 78.6281 75.8402 78.726 75.8838 78.8113C75.9273 78.8966 75.9997 78.9638 76.0881 79.0011C76.1765 79.0384 76.2753 79.0434 76.367 79.0152C76.4588 78.987 76.5376 78.9275 76.5896 78.847C76.8595 78.3626 77.1862 77.3991 76.7813 76.8931C76.5113 76.5513 75.9904 76.6536 75.6664 76.8528C75.4665 76.9938 75.2803 77.1533 75.1104 77.3291C74.7837 77.6171 74.5705 77.7517 74.692 77.1999C74.8944 76.1961 75.8554 75.3968 76.7327 74.9958L76.1388 74.5409C75.8275 75.7075 75.2708 76.7946 74.5057 77.7301L75.1968 78.0154C75.1771 77.6459 75.2724 77.2793 75.4695 76.9657C75.6666 76.6522 75.956 76.4069 76.2981 76.2634H75.9013L76.1118 76.6079C76.0335 77.1165 76.8137 77.3345 76.8919 76.8205C76.9945 76.1557 76.5734 75.2918 75.7933 75.6175C74.862 76.005 74.3788 77.0681 74.3977 78.0154C74.3977 78.3384 74.8566 78.5887 75.0915 78.3034C75.9499 77.2636 76.5766 76.0535 76.9297 74.7536C76.9485 74.6764 76.9444 74.5955 76.9178 74.5207C76.8913 74.4459 76.8435 74.3804 76.7802 74.3322C76.717 74.284 76.6411 74.2551 76.5617 74.2492C76.4823 74.2433 76.4029 74.2605 76.3332 74.2987C75.5246 74.6632 74.8412 75.2565 74.368 76.005C74.0387 76.5433 73.6257 77.383 73.9604 78.0019C74.0153 78.101 74.0893 78.1882 74.1782 78.2585C74.2671 78.3289 74.3691 78.3809 74.4783 78.4117C74.5875 78.4425 74.7017 78.4514 74.8144 78.4379C74.927 78.4244 75.0359 78.3887 75.1347 78.333C75.3842 78.1854 75.6122 78.0043 75.8122 77.7947C75.9121 77.7059 76.0228 77.5525 76.155 77.5256C76.2738 77.4449 76.2684 77.4906 76.1361 77.6682C76.1344 77.9471 76.0529 78.2197 75.9013 78.4541L76.6409 78.7636C76.7075 78.5123 76.6998 78.2471 76.6185 78.0002C76.5372 77.7532 76.386 77.535 76.183 77.3719C75.98 77.2088 75.734 77.1078 75.4746 77.0811C75.2153 77.0544 74.9538 77.1032 74.7217 77.2215L75.3317 77.5713C75.3445 77.2289 75.2366 76.8927 75.0267 76.6213C74.9948 76.569 74.9516 76.5244 74.9002 76.491C74.8488 76.4575 74.7905 76.436 74.7296 76.428C74.6687 76.42 74.6068 76.4257 74.5484 76.4447C74.4901 76.4637 74.4367 76.4956 74.3923 76.5379C73.982 76.9658 73.9038 77.7059 74.4193 78.1015C74.8053 78.3949 74.9943 78.1015 75.4181 78.0343C76.8569 77.8486 76.0173 78.4945 75.5099 78.516C75.2829 78.5402 75.0535 78.5238 74.8323 78.4675C74.2691 78.2774 74.234 78.0325 74.7271 77.7328C75.2102 77.9293 75.4181 77.1488 74.943 76.955L74.9322 76.9443Z" fill="#0155E1"/>
<path d="M74.2798 78.4187C74.6119 79.4952 73.2406 79.8505 72.59 80.2219C72.1335 80.4771 71.7354 80.8245 71.4212 81.2419C70.741 82.1515 70.4872 83.3088 70.2632 84.3988C70.1606 84.9074 70.9407 85.1227 71.046 84.6141C71.1695 83.8131 71.3991 83.0321 71.7289 82.2915C72.2148 81.328 72.9113 81.0051 73.8183 80.5099C74.7252 80.0147 75.3812 79.2476 75.06 78.2034C74.9088 77.7082 74.126 77.9208 74.2798 78.4187Z" fill="#0155E1"/>
<path d="M75.6315 77.8779C75.4384 77.9046 75.2622 78.0021 75.1374 78.1514C75.0125 78.3007 74.9481 78.4911 74.9567 78.6853C74.9567 79.0056 75.1699 79.2101 75.3157 79.4658C75.6617 79.9889 75.9257 80.5615 76.0985 81.164C76.2281 81.7426 76.3549 82.7788 76.0526 83.317C75.4938 84.3155 74.4843 84.1244 73.6232 84.1244C72.8134 84.1244 72.1871 84.3936 72.2141 83.2686C72.2303 82.6361 72.673 81.9956 73.0239 81.4977L72.2843 81.4008C72.4403 82.2226 72.5225 83.0566 72.5299 83.893C72.5299 84.2671 73.1049 84.4743 73.2831 84.0948C73.717 83.1846 74.0615 82.2347 74.3115 81.2582L73.5152 81.1505L73.6556 83.1959C73.6579 83.2832 73.6884 83.3674 73.7425 83.4361C73.7966 83.5048 73.8714 83.5543 73.9559 83.5772C74.0404 83.6002 74.1301 83.5954 74.2116 83.5635C74.2932 83.5317 74.3623 83.4745 74.4087 83.4005C74.5032 83.2965 74.5725 83.1721 74.6111 83.0371C74.6381 82.9107 74.3898 82.0575 74.2899 82.3616L75.0835 82.4693L75.1402 80.5262L74.3304 80.6338C74.5016 81.1818 74.5531 81.7599 74.4816 82.3293C74.4303 82.7788 75.1888 82.881 75.2914 82.437L75.7989 79.8264L75.0592 79.9206C75.235 80.2817 75.2835 80.6913 75.1969 81.0833C75.1375 81.6 75.9473 81.5946 76.0067 81.0833C76.0755 80.5473 75.9893 80.003 75.7584 79.5142C75.7173 79.4469 75.6575 79.3928 75.5862 79.3588C75.515 79.3247 75.4353 79.312 75.3569 79.3222C75.2785 79.3325 75.2048 79.3653 75.1448 79.4166C75.0847 79.4679 75.0409 79.5355 75.0188 79.6111L74.5086 82.2217L75.3049 82.3293C75.3859 81.6878 75.3241 81.0363 75.124 80.4212C75.097 80.3285 75.0375 80.2486 74.9564 80.1958C74.8753 80.1431 74.778 80.1211 74.682 80.1338C74.586 80.1465 74.4978 80.193 74.4333 80.265C74.3688 80.337 74.3323 80.4297 74.3304 80.5262L74.2737 82.4693C74.2737 82.9403 74.9297 83.0075 75.07 82.5769L75.1132 82.4451C75.1319 82.3763 75.1323 82.3039 75.1143 82.235C75.0963 82.1661 75.0606 82.1031 75.0107 82.0521C74.1712 81.1425 74.0011 82.5904 73.7096 82.9914L74.4654 83.1959L74.325 81.1505C74.2953 80.7146 73.6475 80.58 73.5287 81.0429C73.3006 81.9532 72.9841 82.8392 72.5839 83.6884L73.3397 83.893C73.331 82.9843 73.2407 82.0782 73.0698 81.1855C72.9996 80.8141 72.511 80.8303 72.3302 81.0886C71.7903 81.8637 70.8563 83.5566 71.5771 84.4851C72.206 85.2925 74.1846 84.9803 75.0295 84.9291C76.363 84.8538 76.8462 84.0114 76.992 82.7573C77.0614 82.1567 77.0277 81.5487 76.8921 80.9595C76.8192 80.6419 76.0823 78.6288 75.861 78.6692C76.3738 78.575 76.1552 77.7945 75.645 77.8887L75.6315 77.8779Z" fill="#0155E1"/>
<path d="M74.0626 79.6917L71.8518 82.601L72.5509 83.0074L74.1705 80.6713L73.4309 80.3591L72.6238 83.4299C72.6021 83.5231 72.614 83.621 72.6576 83.7063C72.7011 83.7916 72.7735 83.8589 72.8619 83.8962C72.9503 83.9335 73.0491 83.9385 73.1408 83.9103C73.2326 83.8821 73.3114 83.8226 73.3634 83.7421C73.7307 83.1354 74.1431 82.5569 74.597 82.0116L73.9222 81.6187C73.741 82.3139 73.3915 82.9543 72.9045 83.4837L73.5821 83.8767C73.6235 83.5048 73.7228 83.1416 73.8763 82.8001C74.0842 82.3346 73.4255 81.9228 73.1772 82.3911C72.9488 82.8176 72.688 83.2261 72.3971 83.6129L73.1367 83.7098L73.3013 82.9428L72.5617 82.8459L72.6805 83.5187C72.7 83.5864 72.7368 83.6479 72.7873 83.6971C72.8378 83.7464 72.9003 83.7817 72.9686 83.7996C73.0369 83.8175 73.1087 83.8174 73.177 83.7993C73.2453 83.7812 73.3077 83.7457 73.358 83.6963C74.0427 82.99 74.5916 82.1645 74.9776 81.2607H74.2812C74.4643 81.5973 74.5928 81.9606 74.6618 82.3372C74.759 82.8217 75.4041 82.6414 75.4554 82.2296C75.5714 81.3281 75.6309 80.4203 75.6336 79.5114H74.8238V81.2042C74.8238 81.6429 75.5445 81.7721 75.6201 81.3119C75.6736 80.9036 75.8085 80.5101 76.0169 80.1546H75.307C75.4781 80.4298 75.5713 80.7459 75.5769 81.0696C75.5769 81.1767 75.6196 81.2794 75.6955 81.3551C75.7714 81.4308 75.8744 81.4733 75.9818 81.4733C76.0892 81.4733 76.1922 81.4308 76.2681 81.3551C76.3441 81.2794 76.3867 81.1767 76.3867 81.0696L76.4893 80.5314H75.7092C75.7875 81.0077 76.0844 83.691 75.0289 83.3761C74.8508 83.333 74.7995 83.3438 74.8751 83.4057L75.1153 82.8943L75.6795 81.7021L74.9237 81.4976C74.9722 82.052 75.0235 82.8432 74.6888 83.3169C74.4189 83.7017 73.5875 83.8551 73.1637 83.6291C72.8839 83.4302 72.6448 83.1799 72.4591 82.8916L71.9058 83.4299C72.3539 83.7556 73.08 84.5549 73.6577 84.6006C74.0977 84.6356 74.4675 84.2723 74.7563 83.9816C75.1993 83.5252 75.5448 82.9837 75.7717 82.3902C75.9986 81.7967 76.1022 81.1634 76.0763 80.5287C76.0763 80.4216 76.0336 80.3189 75.9577 80.2432C75.8818 80.1675 75.7788 80.125 75.6714 80.125C75.564 80.125 75.461 80.1675 75.3851 80.2432C75.3091 80.3189 75.2665 80.4216 75.2665 80.5287V81.4491C75.2665 81.5562 75.3091 81.6589 75.3851 81.7346C75.461 81.8103 75.564 81.8528 75.6714 81.8528C75.7788 81.8528 75.8818 81.8103 75.9577 81.7346C76.0336 81.6589 76.0763 81.5562 76.0763 81.4491V79.1911C76.0763 79.0841 76.0336 78.9814 75.9577 78.9057C75.8818 78.83 75.7788 78.7874 75.6714 78.7874C75.564 78.7874 75.461 78.83 75.3851 78.9057C75.3091 78.9814 75.2665 79.0841 75.2665 79.1911C75.265 79.7323 75.2181 80.2725 75.1261 80.8059L75.9224 80.9135C75.859 80.2705 75.8293 79.6246 75.8333 78.9785C75.8321 78.8818 75.796 78.7887 75.7317 78.7163C75.6674 78.6438 75.5792 78.5968 75.4831 78.5838C75.3869 78.5707 75.2893 78.5925 75.2079 78.6452C75.1266 78.6979 75.0669 78.778 75.0397 78.8709C74.9183 79.3849 74.7698 79.8909 74.6267 80.3941L75.3664 80.2972L75.3097 80.0819C75.2719 79.5679 74.4621 79.5652 74.4999 80.0819C74.5087 80.2998 74.5659 80.5131 74.6672 80.7063C74.8238 81.0347 75.3124 80.9189 75.4068 80.6094C75.5607 80.1035 75.6984 79.5975 75.8199 79.0862L75.0235 78.9785C75.0195 79.6246 75.0492 80.2705 75.1126 80.9135C75.1531 81.328 75.8225 81.5056 75.9062 81.0212C76.014 80.4133 76.0709 79.7976 76.0763 79.1804H75.2665V81.4384H76.0763V80.5179H75.2665C75.3141 81.5332 74.9603 82.5266 74.2812 83.2846C74.176 83.4038 74.0624 83.5153 73.9411 83.6183C73.7494 83.8013 73.574 83.7744 73.4201 83.5349C73.0368 83.3761 72.64 82.967 72.3053 82.7275C71.9706 82.488 71.5117 82.9616 71.7492 83.2792C72.3701 84.1027 73.2959 85.0205 74.4486 84.6248C75.6606 84.1969 75.8252 82.5606 75.7335 81.4841C75.7038 81.1262 75.1666 80.8839 74.9803 81.2823C74.7104 81.8501 74.4405 82.4153 74.1705 82.9858C74.0761 83.185 73.9006 83.4595 73.9276 83.6963C74.0167 84.3019 74.7536 84.2023 75.2071 84.1673C76.9644 84.0354 76.6863 81.5514 76.4839 80.3026C76.4164 79.8882 75.8117 79.9528 75.7038 80.3026C75.618 80.5485 75.5733 80.8067 75.5715 81.067H76.3813C76.352 80.6042 76.2221 80.1533 76.0007 79.7455C75.9645 79.6853 75.9133 79.6355 75.852 79.6009C75.7907 79.5663 75.7215 79.5481 75.6511 79.5481C75.5807 79.5481 75.5115 79.5663 75.4503 79.6009C75.389 79.6355 75.3378 79.6853 75.3016 79.7455C75.0602 80.161 74.8973 80.6171 74.8211 81.0912L75.6309 81.1988V79.506C75.6309 79.3989 75.5882 79.2963 75.5123 79.2205C75.4364 79.1448 75.3334 79.1023 75.226 79.1023C75.1186 79.1023 75.0156 79.1448 74.9397 79.2205C74.8637 79.2963 74.8211 79.3989 74.8211 79.506C74.8184 80.4149 74.7589 81.3227 74.6429 82.2242L75.4392 82.1166C75.3476 81.6766 75.1921 81.2523 74.9776 80.857C74.9414 80.7968 74.8902 80.747 74.829 80.7124C74.7677 80.6778 74.6985 80.6596 74.6281 80.6596C74.5577 80.6596 74.4885 80.6778 74.4272 80.7124C74.3659 80.747 74.3147 80.7968 74.2785 80.857C73.9265 81.6999 73.4203 82.4701 72.7858 83.1285L73.4633 83.3061L73.3445 82.6333C73.2824 82.2753 72.775 82.2646 72.6049 82.5364C72.4708 82.7388 72.3797 82.9664 72.3375 83.2053C72.2952 83.4442 72.3026 83.6892 72.3593 83.9251C72.4268 84.3073 72.9126 84.2669 73.0989 84.022C73.3898 83.6361 73.6506 83.2285 73.879 82.8028L73.1799 82.3938C72.9932 82.7959 72.8659 83.2229 72.802 83.6614C72.7534 84.0166 73.1772 84.388 73.4795 84.0543C74.0598 83.4212 74.48 82.659 74.705 81.8313C74.8049 81.4653 74.2974 81.1181 74.0275 81.4384C73.5309 82.0317 73.0797 82.6615 72.6778 83.3223L73.4174 83.6344L74.2407 80.5744C74.2625 80.4812 74.2505 80.3833 74.2069 80.298C74.1634 80.2127 74.091 80.1455 74.0026 80.1082C73.9142 80.0709 73.8154 80.0658 73.7237 80.094C73.6319 80.1222 73.5531 80.1818 73.5011 80.2623L71.8815 82.601C71.5791 83.0343 72.2729 83.4084 72.5806 83.0074L74.7833 80.1008C75.0964 79.6863 74.3946 79.2934 74.0842 79.6917H74.0626Z" fill="#0155E1"/>
<path d="M108.502 89.4042C111.741 87.4288 114.316 84.4819 117.177 82.0166C120.282 79.3442 123.54 76.8547 126.895 74.4972C133.411 69.922 140.254 65.8285 147.092 61.7458C147.18 61.6899 147.244 61.602 147.269 61.5004C147.294 61.3989 147.278 61.2917 147.225 61.2013C147.172 61.111 147.086 61.0447 146.986 61.0162C146.885 60.9878 146.777 60.9994 146.684 61.0488C139.847 65.1315 133.001 69.2169 126.485 73.8001C123.41 75.9532 120.409 78.2354 117.531 80.6575C114.4 83.295 111.611 86.5784 108.083 88.7072C107.638 88.9763 108.045 89.6761 108.491 89.4042H108.502Z" fill="#0155E1"/>
<path d="M157.546 49.2103C154.037 49.5656 150.257 50.4564 148.098 53.5164C146.233 56.1485 146.273 60.7398 148.025 63.4419C150.015 66.5127 154.08 66.623 157.238 65.6299C160.396 64.6368 163.665 62.8956 163.636 59.1331C163.619 57.1147 162.888 55.0128 162.081 53.1827C161.384 51.6029 160.151 50.2223 158.283 50.3972C157.767 50.4456 157.762 51.253 158.283 51.2046C160.785 50.9731 161.589 53.9362 162.183 55.8067C162.723 57.5533 163.223 59.6203 162.375 61.3561C161.527 63.092 159.484 63.9775 157.737 64.6126C155.848 65.2962 153.772 65.7133 151.799 65.1509C147.89 64.0609 146.81 59.1224 147.936 55.6183C149.232 51.5814 153.821 50.3945 157.559 50.0177C158.072 49.9666 158.078 49.1592 157.559 49.2103H157.546Z" fill="#0155E1"/>
<path d="M162.944 80.4291C159.435 80.7843 155.656 81.6752 153.496 84.7352C151.631 87.3672 151.672 91.9586 153.424 94.6606C155.413 97.7314 159.478 97.8417 162.636 96.8487C165.795 95.8556 169.064 94.1143 169.034 90.3519C169.018 88.3334 168.286 86.2315 167.479 84.4014C166.783 82.8216 165.549 81.441 163.681 81.6159C163.166 81.6644 163.16 82.4718 163.681 82.4233C166.183 82.1919 166.988 85.155 167.582 87.0254C168.122 88.7721 168.621 90.839 167.773 92.5749C166.926 94.3108 164.882 95.1962 163.136 95.8313C161.246 96.5149 159.17 96.9321 157.197 96.3696C153.289 95.2796 152.209 90.3411 153.334 86.8371C154.63 82.8001 159.219 81.6133 162.958 81.2365C163.471 81.1853 163.476 80.378 162.958 80.4291H162.944Z" fill="#0155E1"/>
<path d="M152.252 57.0713L154.808 59.9779C154.859 60.0266 154.921 60.0614 154.989 60.079C155.058 60.0965 155.129 60.0962 155.197 60.0781C155.265 60.0599 155.327 60.0245 155.377 59.9754C155.427 59.9263 155.464 59.865 155.483 59.7976C156.023 58.382 155.921 56.9152 156.047 55.427C156.187 53.8887 156.575 52.383 157.195 50.9675C158.44 48.0965 160.552 45.6837 163.236 44.0643C163.681 43.7952 163.274 43.0955 162.828 43.3673C160.182 44.9563 158.058 47.2818 156.72 50.0578C156.064 51.4087 155.61 52.8475 155.37 54.3289C155.1 56.0756 155.346 57.9056 154.698 59.5823L155.375 59.402L152.832 56.5008C152.487 56.1105 151.917 56.6838 152.26 57.0713H152.252Z" fill="#0155E1"/>
<path d="M109.804 92.5507C123.727 92.1273 137.654 92.0376 151.585 92.2816C152.106 92.2816 152.106 91.4742 151.585 91.4742C137.658 91.2266 123.731 91.3163 109.804 91.7433C109.283 91.7595 109.28 92.5669 109.804 92.5507Z" fill="#0155E1"/>
<path d="M154.496 84.5899C159.256 86.4524 163.835 88.746 168.174 91.4419C168.617 91.7111 169.025 91.0194 168.582 90.7449C164.185 88.0156 159.546 85.695 154.723 83.8121C154.24 83.621 154.03 84.4015 154.51 84.5899H154.496Z" fill="#0155E1"/>
<path d="M163.138 80.9322C158.312 86.542 155.516 93.6061 155.2 100.99C155.178 101.51 155.988 101.51 156.009 100.99C156.316 93.8181 159.028 86.9559 163.711 81.5027C164.048 81.1098 163.479 80.5365 163.138 80.9322Z" fill="#0155E1"/>
<path d="M55.1789 89.6199L85.3497 89.227L88.8184 89.1812C89.442 89.1812 90.0655 89.1597 90.6891 89.157C91.5664 89.157 92.1575 89.8837 92.1413 90.7718C92.1008 92.6557 90.9131 92.5884 89.3583 92.6557L85.6089 92.8253L70.3412 93.4954C67.6068 93.6165 64.8696 93.7645 62.1351 93.8587C59.6679 93.9341 54.9764 93.1321 56.0724 89.5526C56.2235 89.0548 55.4434 88.8421 55.2896 89.3373C54.7497 91.0975 55.7053 92.8845 57.2439 93.8076C59.4277 95.1155 62.3052 94.6715 64.7157 94.5638L83.4602 93.7161L88.0113 93.5142C89.1774 93.4604 90.7998 93.6972 91.8714 93.1563C93.1293 92.5238 93.3507 90.0129 92.557 88.9552C92.1494 88.4169 91.5772 88.3685 90.9374 88.3443C89.2584 88.2797 87.5497 88.39 85.868 88.4115L76.5228 88.5353L55.1681 88.8045C54.6471 88.8045 54.6471 89.6119 55.1681 89.6119L55.1789 89.6199Z" fill="#0155E1"/>
<path d="M177.075 188.525C176.395 188.95 175.618 189.19 174.916 189.564C174.214 189.938 173.531 190.501 173.331 191.276C173.257 191.516 173.269 191.775 173.366 192.008C173.541 192.288 173.808 192.5 174.122 192.605C175.548 193.236 177.088 193.571 178.648 193.589C180.208 193.606 181.755 193.306 183.195 192.707C183.701 192.465 184.225 192.258 184.76 192.088C185.421 191.954 186.092 191.886 186.766 191.884C187.474 191.843 188.179 191.753 188.874 191.615C189.224 191.576 189.555 191.439 189.83 191.219C190.08 190.931 190.231 190.571 190.259 190.191C190.579 188.094 190.097 185.954 188.909 184.195C188.76 183.948 188.559 183.736 188.321 183.573C188.03 183.423 187.711 183.338 187.384 183.323C186.035 183.159 184.62 182.857 183.257 182.825C182.28 182.803 181.788 183.266 181.097 183.936C179.669 185.36 178.835 187.43 177.075 188.525Z" fill="#323444"/>
<path d="M196.968 188.325C196.968 189.644 197.127 191.041 197.929 192.093C198.295 192.548 198.739 192.935 199.24 193.237C200.936 194.314 203.182 194.709 204.969 193.797C205.257 193.668 205.504 193.461 205.681 193.199C205.951 192.731 205.808 192.147 205.657 191.63L203.071 182.695C201.4 182.951 198.944 183.131 197.459 183.976C196.382 184.587 196.968 187.147 196.968 188.325Z" fill="#323444"/>
<path d="M175.558 133.308C175.402 133.801 174.835 134.03 174.525 134.444C174.16 134.931 174.198 135.607 174.33 136.199C174.494 137.072 174.905 137.88 175.515 138.527C175.825 138.847 176.207 139.089 176.63 139.232C177.052 139.376 177.503 139.416 177.945 139.35C178.814 139.186 179.564 138.419 179.594 137.539C179.578 137.139 179.492 136.744 179.34 136.374L177.499 131.067C177.492 131.029 177.476 130.994 177.454 130.963C177.432 130.931 177.403 130.905 177.37 130.886C177.3 130.871 177.227 130.883 177.167 130.921C176.733 131.126 175.861 131.341 175.607 131.791C175.353 132.24 175.742 132.821 175.558 133.308Z" fill="#FBB3B2"/>
<path d="M174.697 133.041C175.369 132.936 175.958 132.543 176.587 132.285C177.216 132.027 178.004 131.927 178.533 132.358C178.684 132.481 178.83 132.651 179.027 132.648C178.759 131.332 178.354 130.048 177.818 128.816C177.799 128.757 177.762 128.705 177.712 128.668C177.639 128.638 177.557 128.638 177.483 128.668L175.666 129.141C174.994 129.316 174.916 129.263 174.967 129.922C174.981 130.215 175.132 133.041 174.697 133.041Z" fill="#323444"/>
<path d="M174.496 94.7178C174.226 95.1323 174.226 95.649 174.226 96.1361C174.226 98.5179 174.25 100.913 174.604 103.271C174.688 103.836 174.793 104.401 174.847 104.972C174.908 105.766 174.921 106.563 174.885 107.359L174.615 117.72C174.582 118.988 174.518 120.35 173.732 121.345C173.494 121.679 173.382 122.086 173.416 122.495C173.621 125.094 174.053 127.673 174.482 130.243C175.174 129.932 175.929 129.789 176.686 129.825C177.443 129.861 178.181 130.075 178.839 130.45C180.201 126.181 180.954 121.741 181.077 117.263C181.139 115.059 181.045 112.841 181.385 110.664C181.954 106.998 181.722 103.238 181.304 99.5513C181.171 98.3833 180.891 97.1803 180.14 96.2761C179.43 95.4848 178.484 94.9415 177.441 94.7259C176.442 94.4648 175.549 94.7339 174.496 94.7178Z" fill="#5B5583"/>
<path opacity="0.1" d="M174.496 94.7178C174.226 95.1323 174.226 95.649 174.226 96.1361C174.226 98.5179 174.25 100.913 174.604 103.271C174.688 103.836 174.793 104.401 174.847 104.972C174.908 105.766 174.921 106.563 174.885 107.359L174.615 117.72C174.582 118.988 174.518 120.35 173.732 121.345C173.494 121.679 173.382 122.086 173.416 122.495C173.621 125.094 174.053 127.673 174.482 130.243C175.174 129.932 175.929 129.789 176.686 129.825C177.443 129.861 178.181 130.075 178.839 130.45C180.201 126.181 180.954 121.741 181.077 117.263C181.139 115.059 181.045 112.841 181.385 110.664C181.954 106.998 181.722 103.238 181.304 99.5513C181.171 98.3833 180.891 97.1803 180.14 96.2761C179.43 95.4848 178.484 94.9415 177.441 94.7259C176.442 94.4648 175.549 94.7339 174.496 94.7178Z" fill="black"/>
<path d="M177.797 124.765C175.986 134.015 176.975 143.593 180.636 152.281C180.953 152.924 181.175 153.61 181.295 154.316C181.443 155.635 180.833 156.902 180.485 158.178C179.675 161.079 180.142 164.169 180.661 167.137C180.877 168.375 181.099 169.612 181.327 170.848C181.551 172.054 181.767 173.365 181.206 174.458C181.689 176.465 181.975 178.454 182.458 180.462C182.51 180.621 182.525 180.789 182.504 180.954C182.407 181.217 182.235 181.446 182.01 181.614C181.65 181.978 181.391 182.429 181.259 182.923C181.127 183.417 181.127 183.937 181.257 184.431C182.491 183.549 184.21 183.858 185.619 184.431C187.028 185.005 188.416 185.777 189.938 185.777C189.717 183.995 189.504 182.125 190.162 180.454C190.546 179.485 191.221 178.57 191.202 177.534C191.183 176.605 190.613 175.776 190.476 174.859C190.424 174.288 190.446 173.712 190.54 173.147C190.902 169.853 190.492 166.526 190.081 163.237C190.035 162.589 189.882 161.952 189.628 161.354C189.436 160.966 189.15 160.595 189.156 160.161C189.156 159.658 189.563 159.249 189.714 158.77C189.984 157.887 189.488 156.687 190.235 156.141C192.206 154.698 191.45 151.253 191.407 148.818C191.373 146.717 191.283 144.617 191.137 142.52C192.378 145.998 192.885 149.694 192.627 153.377C192.541 154.582 192.381 155.85 192.854 156.964C193.215 157.82 193.933 158.525 194.128 159.432C194.249 159.992 194.163 160.57 194.19 161.141C194.217 161.712 194.411 162.333 194.905 162.621C194.943 165.216 195.175 167.99 195.216 170.585C195.189 171.911 195.298 173.236 195.54 174.541C195.661 174.956 195.728 175.385 195.739 175.817C195.678 176.358 195.535 176.887 195.313 177.386C194.842 178.774 194.719 180.257 194.955 181.704C195.19 183.151 195.776 184.519 196.663 185.688C197.3 184.561 198.628 183.963 199.923 183.869C201.219 183.775 202.499 184.1 203.754 184.429C203.562 182.856 203.876 181.264 204.65 179.88C204.858 179.569 205.017 179.228 205.122 178.869C205.268 178.185 204.928 177.504 204.744 176.829C204.445 175.752 204.55 174.592 204.62 173.467C204.856 169.699 204.688 165.918 204.121 162.185C204.033 161.45 203.86 160.728 203.605 160.032C203.508 159.785 203.389 159.548 203.308 159.297C203.181 158.848 203.108 158.386 203.092 157.92L202.782 153.613C202.563 150.596 203.557 147.617 204.25 144.673C204.561 143.354 204.898 142.038 205.106 140.698C205.39 138.873 205.435 137.008 205.851 135.208C206.224 133.593 206.896 132.018 207.036 130.363C207.252 127.799 206.183 125.32 205.147 122.968C204.715 121.999 203.082 122.096 202.032 121.923C194.584 120.704 186.74 120.696 179.716 123.444C178.99 123.744 178.335 124.194 177.797 124.765Z" fill="#3C354C"/>
<path d="M183.165 76.9977L183.991 80.2003C184.216 80.9348 184.34 81.6961 184.361 82.4637C184.369 82.7437 184.307 83.0213 184.18 83.2711C184.044 83.4762 183.87 83.6534 183.667 83.7932C183.103 84.2211 182.712 85.2196 182.066 85.5156C182.398 86.0915 182.857 85.7174 183.457 86.0054C184.512 86.5168 185.478 87.2515 186.623 87.5045C187.703 87.7413 188.836 87.5179 189.908 87.2353C191.428 86.8236 192.939 86.2557 194.162 85.2626C195.385 84.2695 196.082 83.3922 196.076 81.8231C194.726 81.9819 193.525 80.6228 192.929 79.401C192.722 78.9365 192.57 78.4497 192.475 77.9504L191.752 74.7773C190.964 74.9496 190.321 75.5121 189.568 75.8054C188.815 76.0988 187.924 76.1257 187.087 76.1634C185.602 76.2307 184.125 76.4216 182.671 76.7339C182.471 76.7743 182.22 76.9008 182.269 77.0945" fill="#FBB3B2"/>
<path opacity="0.1" d="M183.165 76.9977L183.991 80.2003C184.216 80.9348 184.34 81.6961 184.361 82.4637C184.369 82.7437 184.307 83.0213 184.18 83.2711C184.044 83.4762 183.87 83.6534 183.667 83.7932C183.103 84.2211 182.712 85.2196 182.066 85.5156C182.398 86.0915 182.857 85.7174 183.457 86.0054C184.512 86.5168 185.478 87.2515 186.623 87.5045C187.703 87.7413 188.836 87.5179 189.908 87.2353C191.428 86.8236 192.939 86.2557 194.162 85.2626C195.385 84.2695 196.082 83.3922 196.076 81.8231C194.726 81.9819 193.525 80.6228 192.929 79.401C192.722 78.9365 192.57 78.4497 192.475 77.9504L191.752 74.7773C190.964 74.9496 190.321 75.5121 189.568 75.8054C188.815 76.0988 187.924 76.1257 187.087 76.1634C185.602 76.2307 184.125 76.4216 182.671 76.7339C182.471 76.7743 182.22 76.9008 182.269 77.0945" fill="black"/>
<path d="M186.712 78.7628C190.66 78.7628 193.86 75.5722 193.86 71.6363C193.86 67.7004 190.66 64.5098 186.712 64.5098C182.765 64.5098 179.564 67.7004 179.564 71.6363C179.564 75.5722 182.765 78.7628 186.712 78.7628Z" fill="#FBB3B2"/>
<path d="M188.679 83.3838C189.062 82.5607 189.614 81.8271 190.299 81.2308C191.306 80.3508 192.683 79.6376 192.92 78.3242L195.101 80.8567C195.22 80.9742 195.312 81.1155 195.371 81.2712C195.399 81.4172 195.395 81.5674 195.359 81.7118C195.324 81.8561 195.258 81.9912 195.166 82.1082C194.626 82.9667 193.776 83.5803 192.971 84.202C191.128 85.6581 189.363 87.2104 187.683 88.8525C187.609 88.9382 187.51 88.9985 187.4 89.0248C187.296 89.0276 187.193 88.9985 187.106 88.9414C185.657 88.183 184.375 87.1435 183.335 85.8841C183.256 85.7899 183.159 85.6822 183.032 85.6903C182.956 85.7043 182.885 85.7409 182.83 85.7952C182.104 86.3873 181.31 87.0951 180.379 87.0036C181.586 86.1397 182.268 84.6972 182.522 83.2358C182.572 82.7357 182.676 82.2422 182.83 81.7637C182.91 81.5243 183.048 81.3082 183.231 81.1346C183.415 80.9609 183.639 80.835 183.883 80.7679C183.294 81.6641 183.696 82.9344 184.487 83.6584C185.256 84.3087 186.177 84.7541 187.165 84.9529C188.083 85.1251 188.353 84.089 188.679 83.3838Z" fill="#323444"/>
<path d="M179.38 125.498C180.398 125.748 181.361 126.173 182.349 126.488C184.15 127.05 186.045 127.249 187.923 127.072C188.502 127.059 189.064 126.881 189.543 126.558C189.67 126.456 189.786 126.335 189.921 126.24C190.147 126.105 190.391 126.005 190.647 125.942C193.122 125.169 195.195 123.503 197.206 121.872C197.271 121.819 197.344 121.751 197.339 121.665C197.329 121.607 197.301 121.553 197.258 121.512L196.2 120.301C193.425 120.772 190.582 120.594 187.767 120.524C187.189 120.499 186.61 120.514 186.034 120.57C185.478 120.635 184.93 120.774 184.382 120.893C182.301 121.345 180.173 121.517 178.065 121.813C177.918 121.824 177.775 121.868 177.647 121.942C177.558 122.011 177.482 122.095 177.423 122.19L176.683 123.226C176.396 123.575 176.185 123.979 176.062 124.413C175.89 125.22 176.251 125.49 176.94 125.385C177.753 125.266 178.581 125.304 179.38 125.498Z" fill="#323444"/>
<path d="M187.654 87.6208C186.828 86.7771 185.892 86.0484 184.871 85.4543C184.459 85.193 184.001 85.0105 183.522 84.916C183.28 84.8685 183.032 84.8743 182.793 84.9329C182.554 84.9914 182.331 85.1014 182.139 85.2551C181.899 85.4677 181.748 85.7638 181.516 85.9871C181.224 86.2318 180.889 86.4207 180.528 86.5442C179.299 87.0677 178.134 87.7296 177.057 88.517C176.469 88.9267 175.94 89.4138 175.483 89.9649C174.26 91.5258 174.076 93.6492 174.109 95.63C174.133 97.008 175.459 98.0307 176.371 99.0614C177.227 100.076 178.001 101.156 178.687 102.291C179.178 103.066 179.691 103.906 179.629 104.829C179.578 105.585 179.135 106.296 179.205 107.049C179.23 107.318 179.316 107.566 179.34 107.827C179.389 108.365 179.176 108.903 179.122 109.442C179.049 110.203 179.297 110.96 179.311 111.727C179.301 112.252 179.234 112.774 179.111 113.285C178.592 115.745 177.942 118.218 178.074 120.729L176.579 120.998C176.72 121.137 176.827 121.306 176.891 121.494C176.955 121.681 176.973 121.881 176.945 122.076C176.917 122.272 176.843 122.458 176.729 122.62C176.615 122.782 176.465 122.915 176.29 123.009C178.625 123.786 181.149 123.393 183.624 123.391C185.673 123.391 187.714 123.66 189.76 123.622C191.806 123.585 193.917 123.216 195.604 122.061C196.063 121.749 196.484 121.383 196.967 121.111C197.614 120.777 198.312 120.55 199.032 120.438C200.366 120.185 201.723 120.064 203.081 120.078C203.745 120.078 204.469 120.105 204.998 119.706C205.581 119.265 205.729 118.466 205.807 117.742C205.886 116.977 205.934 116.21 205.948 115.443C205.97 114.846 205.939 114.248 205.853 113.656C205.772 113.224 205.667 112.796 205.538 112.375L204.52 108.801C204.099 107.326 204.685 105.709 204.809 104.18C204.838 103.82 204.844 103.4 204.566 103.168C204.466 103.085 204.328 103.028 204.296 102.899C204.281 102.838 204.28 102.774 204.291 102.712C204.302 102.65 204.326 102.591 204.361 102.539C204.901 101.462 205.71 100.512 206.45 99.5405C207.692 97.8363 208.845 96.0694 209.905 94.2467C209.573 90.4327 207.962 86.8414 205.332 84.0521C204.793 83.4681 204.174 82.9083 203.419 82.6445C202.925 82.4941 202.412 82.4118 201.896 82.3996C199.78 82.257 197.577 82.1305 195.733 81.0701C195.601 80.9788 195.451 80.9156 195.293 80.8844C194.886 80.8387 194.589 81.2397 194.324 81.5573C193.644 82.3647 192.643 82.8276 191.763 83.4223C190.121 84.5338 188.839 86.0625 187.654 87.6208Z" fill="#5B5583"/>
<path d="M210.088 95.3474C210.509 96.6769 210.469 98.0979 210.606 99.4839C210.688 100.32 210.835 101.149 211.046 101.963C211.143 102.41 211.316 102.837 211.559 103.225C211.802 103.58 212.15 103.868 212.304 104.269C212.388 104.541 212.426 104.825 212.415 105.109L212.447 106.966C212.517 107.95 212.366 108.937 212.007 109.856L210.844 113.384C210.215 115.295 209.57 117.236 208.436 118.899C208.276 119.18 208.034 119.407 207.742 119.547C207.514 119.608 207.279 119.644 207.043 119.655C206.632 119.728 206.259 119.942 205.988 120.26C205.718 120.578 205.567 120.98 205.561 121.396C205.291 121.003 204.954 120.659 204.565 120.382L202.198 118.498C201.388 117.841 200.543 117.174 199.561 116.794C200.882 116.383 202.055 115.598 202.938 114.534C203.821 113.471 204.375 112.175 204.533 110.803C204.532 110.395 204.624 109.992 204.803 109.625C205 109.307 205.364 109.065 205.391 108.691C205.424 108.22 204.889 107.865 204.889 107.394C204.889 107.081 205.121 106.823 205.224 106.53C205.32 106.167 205.32 105.786 205.224 105.424L204.897 103.615C204.878 103.434 204.823 103.258 204.735 103.098C204.613 102.945 204.478 102.803 204.33 102.673C203.769 102.046 204.017 101.058 204.33 100.286C205.049 98.5714 205.976 96.9509 207.089 95.4604C207.485 94.9599 207.852 94.4369 208.188 93.8941C208.474 93.3989 208.539 92.7126 208.841 92.2793C209.23 93.2966 209.756 94.3005 210.088 95.3474Z" fill="#5B5583"/>
<path d="M199.478 116.905C199.357 116.994 199.253 117.103 199.17 117.228C198.852 117.626 198.428 117.927 197.947 118.097C198.217 118.291 198.463 118.482 198.717 118.678C200.594 120.124 202.313 121.763 203.845 123.568C204.015 122.963 205.033 123.006 205.281 122.427C205.34 122.262 205.358 122.085 205.335 121.911C205.284 121.004 205.154 120.104 204.947 119.219C204.865 118.764 204.68 118.333 204.407 117.96C204.029 117.505 203.44 117.287 202.879 117.099C202.029 116.803 200.342 116.385 199.478 116.905Z" fill="#323444"/>
<path d="M196.103 119.02C195.293 119.617 194.583 120.366 193.674 120.775C193.031 121.065 192.3 121.192 191.738 121.625C192.043 122.295 192.837 122.642 193.574 122.616C194.311 122.543 195.018 122.285 195.628 121.865C196.111 121.569 196.678 121.224 197.205 121.431C197.285 121.84 196.935 122.225 196.935 122.64C196.935 123.054 197.28 123.356 197.62 123.574C199.24 124.615 201.324 124.529 203.254 124.408C203.365 124.412 203.474 124.38 203.564 124.316C203.606 124.268 203.638 124.211 203.658 124.15C203.678 124.089 203.685 124.025 203.68 123.961C203.705 123.536 203.715 123.113 203.718 122.688C203.773 122.345 203.728 121.994 203.589 121.676C203.451 121.357 203.224 121.085 202.935 120.89C201.888 119.993 200.758 119.195 199.561 118.509C198.373 117.822 197.169 118.229 196.103 119.02Z" fill="#FBB3B2"/>
<path d="M189.222 68.658C188.023 68.8007 187.152 69.7346 187.273 70.7492C187.394 71.7638 188.463 72.4635 189.662 72.3182C190.86 72.1729 191.732 71.2417 191.611 70.2298C191.489 69.2178 190.42 68.5154 189.222 68.658ZM189.63 72.0383C188.615 72.1594 187.71 71.5646 187.605 70.7088C187.5 69.853 188.242 69.0617 189.254 68.9406C190.267 68.8195 191.174 69.4143 191.279 70.2701C191.384 71.126 190.642 71.9172 189.63 72.0383Z" fill="#3C354C"/>
<path d="M183.38 69.3574C182.182 69.5 181.31 70.4339 181.431 71.4458C181.553 72.4577 182.622 73.1602 183.82 73.0175C185.019 72.8749 185.891 71.941 185.769 70.9264C185.648 69.9118 184.579 69.2147 183.38 69.3574ZM183.788 72.7349C182.773 72.856 181.869 72.2613 181.766 71.4081C181.663 70.555 182.4 69.7611 183.415 69.6373C184.43 69.5135 185.334 70.1109 185.437 70.9668C185.54 71.8226 184.8 72.6138 183.788 72.7349Z" fill="#3C354C"/>
<path d="M179.044 69.877L181.648 70.4314L181.392 71.1149L178.936 70.3964L179.044 69.877Z" fill="#3C354C"/>
<path d="M193.563 68.1387L191.16 69.2932L191.573 69.8961L193.789 68.6177L193.563 68.1387Z" fill="#3C354C"/>
<path d="M185.529 70.259L187.357 70.041L187.262 70.4931L185.694 70.5981L185.529 70.259Z" fill="#3C354C"/>
<path d="M181.986 69.648C182.158 69.2792 182.25 68.8785 182.256 68.4719C182.263 68.2285 182.305 67.9874 182.381 67.756C182.513 67.4621 182.715 67.2045 182.969 67.0051C183.811 66.2946 185.018 65.9286 186.208 65.8775C187.506 65.8179 188.798 66.0962 189.955 66.6849C190.309 66.85 190.625 67.0843 190.886 67.3738C191.264 67.834 191.345 68.4288 191.726 68.8836C191.986 69.1596 192.312 69.3641 192.675 69.4772C193.037 69.5904 193.422 69.6084 193.794 69.5296C193.926 69.0613 193.753 68.5661 193.821 68.087C193.927 67.6765 194.071 67.2766 194.25 66.8921C194.668 65.6622 194.058 64.2358 192.8 63.5011C192.36 63.2319 191.839 63.057 191.51 62.6937C191.181 62.3303 191.102 61.9536 190.876 61.5902C190.274 60.6294 188.716 60.18 187.531 60.6241C187.158 60.764 186.829 60.9766 186.451 61.1273C185.749 61.4153 184.95 61.4664 184.178 61.5633C183.417 61.6335 182.673 61.828 181.976 62.1393C181.309 62.4676 180.75 62.9951 180.596 63.6249C180.523 63.9155 180.54 64.2169 180.467 64.5049C180.094 65.9663 177.689 66.6768 177.554 68.1678C177.506 68.706 177.8 69.2227 178.167 69.6614C178.421 69.9602 179.028 70.7595 179.457 70.8752C179.886 70.9909 180.213 70.5845 180.623 70.4446C181.271 70.2427 181.663 70.1997 181.986 69.648Z" fill="#CBCEDA"/>
<path d="M212.438 164.438C212.438 177.96 220.946 188.902 231.46 188.902L212.438 164.438Z" fill="#46455B"/>
<path d="M231.459 188.904C231.459 175.23 240.955 164.166 252.69 164.166L231.459 188.904Z" fill="#0155E1"/>
<path d="M219.332 165.665C219.332 178.511 224.758 188.904 231.46 188.904L219.332 165.665Z" fill="#0155E1"/>
<path d="M231.459 188.904C231.459 171.432 242.435 157.292 255.996 157.292L231.459 188.904Z" fill="#46455B"/>
<path opacity="0.1" d="M230.636 193.577C233.247 193.577 235.365 193.22 235.365 192.78C235.365 192.34 233.247 191.983 230.636 191.983C228.024 191.983 225.906 192.34 225.906 192.78C225.906 193.22 228.024 193.577 230.636 193.577Z" fill="#0155E1"/>
<path d="M227.459 189.076C227.459 189.076 230.158 188.993 230.968 188.417C231.778 187.841 235.117 187.149 235.319 188.075C235.522 189.001 239.369 192.68 236.326 192.704C233.284 192.728 229.249 192.23 228.439 191.738C227.629 191.245 227.459 189.076 227.459 189.076Z" fill="#A8A8A8"/>
<path opacity="0.2" d="M236.383 192.382C233.338 192.406 229.308 191.908 228.496 191.416C227.877 191.042 227.632 189.693 227.548 189.074H227.459C227.459 189.074 227.629 191.243 228.442 191.736C229.254 192.228 233.284 192.726 236.329 192.702C237.209 192.702 237.512 192.382 237.495 191.922C237.374 192.202 237.053 192.376 236.383 192.382Z" fill="black"/>
<path d="M6.07031 172.34C6.07031 183.105 12.8376 191.803 21.203 191.803L6.07031 172.34Z" fill="#46455B"/>
<path d="M21.2031 191.803C21.2031 180.925 28.7614 172.122 38.0931 172.122L21.2031 191.803Z" fill="#0155E1"/>
<path d="M11.5527 173.319C11.5527 183.546 15.8717 191.809 21.203 191.809L11.5527 173.319Z" fill="#0155E1"/>
<path d="M21.2031 191.802C21.2031 177.902 29.9356 166.652 40.725 166.652L21.2031 191.802Z" fill="#46455B"/>
<path opacity="0.1" d="M20.5481 195.522C22.6263 195.522 24.311 195.238 24.311 194.887C24.311 194.536 22.6263 194.252 20.5481 194.252C18.4699 194.252 16.7852 194.536 16.7852 194.887C16.7852 195.238 18.4699 195.522 20.5481 195.522Z" fill="#0155E1"/>
<path d="M18.0215 191.94C18.0215 191.94 20.1675 191.873 20.8126 191.402C21.4578 190.931 24.1167 190.393 24.2759 191.133C24.4352 191.873 27.5017 194.796 25.0857 194.814C22.6698 194.833 19.4548 194.438 18.8097 194.047C18.1646 193.657 18.0215 191.94 18.0215 191.94Z" fill="#A8A8A8"/>
<path opacity="0.2" d="M25.1208 194.58C22.6914 194.599 19.4899 194.204 18.8448 193.811C18.3535 193.515 18.1592 192.441 18.0917 191.948H18.0215C18.0215 191.948 18.1565 193.673 18.8016 194.066C19.4468 194.459 22.6563 194.852 25.0776 194.833C25.7768 194.833 26.0197 194.58 26.0062 194.212C25.909 194.427 25.6418 194.564 25.1208 194.58Z" fill="black"/>
</g>
<defs>
<clipPath id="clip0">
<rect width="256" height="204" fill="white"/>
</clipPath>
</defs>
</svg>
