<svg width="24" height="23" viewBox="0 0 24 23" fill="none" xmlns="http://www.w3.org/2000/svg">
<path d="M23.4604 8.51112C23.3064 8.03522 22.884 7.69722 22.3842 7.65221L15.5952 7.03627L12.9106 0.757959C12.7127 0.29784 12.2619 0 11.761 0C11.2601 0 10.8093 0.29784 10.6114 0.759034L7.9268 7.03627L1.1367 7.65221C0.637802 7.69829 0.216427 8.03522 0.0615522 8.51112C-0.0933228 8.98702 0.0497078 9.509 0.427115 9.83804L5.55881 14.3349L4.04559 20.9951C3.93486 21.4848 4.12509 21.991 4.53175 22.2847C4.75033 22.4425 5.00607 22.5229 5.26395 22.5229C5.4863 22.5229 5.70686 22.463 5.90481 22.3446L11.761 18.8475L17.615 22.3446C18.0434 22.6021 18.5834 22.5786 18.9891 22.2847C19.396 21.9901 19.586 21.4837 19.4753 20.9951L17.9621 14.3349L23.0938 9.83894C23.4712 9.509 23.6153 8.98792 23.4604 8.51112Z" fill="#0155E1"/>
</svg>
